# Created using Spin3D

# Vertex Array
v 5.758 -34.594 29.690
v 5.756 -34.594 29.687
v 5.756 -34.595 29.689
v 5.754 -34.594 29.689
v 5.755 -34.594 29.691
v 5.758 -34.592 29.689
v 5.755 -34.592 29.688
v 5.754 -34.592 29.690
v 5.756 -34.593 29.691
v 5.756 -34.592 29.690
v 2.251 -26.893 60.859
v 2.534 -26.639 61.056
v 2.532 -27.006 60.940
v 3.392 -26.325 60.699
v 2.512 -26.587 60.167
v 2.067 -25.780 60.303
v 3.119 -25.394 61.171
v 4.230 -25.492 61.187
v 0.590 -24.129 57.228
v 1.074 -24.069 58.757
v 1.822 -25.480 58.379
v 3.904 -25.794 58.672
v 5.472 -25.039 60.029
v 6.538 -24.866 57.903
v 7.439 -24.211 58.757
v 1.292 -24.546 56.215
v 0.221 -23.013 55.650
v 2.845 -25.255 56.807
v 5.158 -24.744 56.112
v 8.596 -23.794 57.386
v 7.878 -24.189 56.180
v 9.432 -23.689 56.138
v 1.092 -23.628 54.838
v 2.813 -24.125 54.930
v 1.817 -22.910 54.004
v 7.097 -23.437 54.665
v 4.904 -23.669 54.345
v 9.145 -23.404 55.321
v 3.697 -22.401 53.567
v 6.316 -17.924 28.327
v 6.377 -17.791 28.539
v 6.593 -18.111 28.177
v 6.772 -18.013 28.243
v 6.657 -18.182 27.999
v 6.602 -18.058 28.015
v 6.893 -18.160 27.993
v 6.889 -18.115 27.889
v 2.425 -23.306 60.188
v 3.530 -23.960 61.286
v 4.307 -24.593 61.431
v 4.923 -24.920 61.155
v 5.519 -23.829 60.788
v 0.136 -22.424 57.105
v 1.013 -22.189 58.545
v 7.266 -23.154 59.412
v 8.298 -23.419 58.426
v 8.809 -22.165 57.690
v -0.183 -21.767 55.818
v 2.809 -22.160 56.072
v 2.808 -22.158 56.072
v 2.809 -22.159 56.073
v 2.811 -22.158 56.072
v 9.810 -23.038 56.389
v 10.078 -23.274 55.704
v 10.218 -22.849 55.746
v 0.755 -22.470 54.358
v 0.312 -21.061 54.763
v 2.809 -22.158 56.071
v 5.746 -22.635 53.652
v 7.071 -22.097 53.782
v 8.627 -22.197 54.656
v 9.888 -22.818 55.342
v 1.864 -21.138 53.634
v 3.686 -20.582 53.151
v 5.594 -21.016 53.340
v 5.812 -17.465 28.899
v 6.029 -17.430 28.887
v 5.987 -17.634 28.726
v 6.458 -17.474 28.758
v 6.795 -17.705 28.479
v 7.052 -17.917 28.162
v 7.062 -17.599 28.387
v 6.006 -17.525 28.710
v 6.437 -17.748 28.276
v 7.099 -18.014 27.952
v 7.165 -17.711 28.155
v 6.773 -17.914 27.994
v 7.040 -17.836 27.994
v 3.569 -22.932 60.953
v 4.527 -23.071 61.054
v 0.567 -20.859 57.496
v 2.198 -20.198 58.456
v 4.018 -21.324 60.012
v 6.108 -21.665 59.924
v 7.762 -21.403 58.931
v 8.172 -20.392 57.979
v 0.095 -20.419 56.062
v 0.897 -19.456 56.923
v 2.809 -22.157 56.072
v 9.516 -21.964 55.841
v 8.511 -20.261 56.573
v 0.448 -19.375 54.916
v 7.398 -20.941 53.925
v 8.239 -20.434 54.970
v 1.293 -19.331 54.060
v 2.939 -19.205 53.471
v 4.621 -19.423 53.338
v 6.370 -19.246 54.091
v 5.838 -17.380 28.934
v 6.091 -17.282 28.878
v 6.397 -17.233 28.870
v 6.790 -17.368 28.666
v 7.017 -17.377 28.462
v 6.773 -17.589 28.227
v 6.384 -17.373 28.593
v 7.045 -17.519 28.238
v 6.775 -17.283 28.521
v 3.902 -19.498 58.910
v 5.529 -19.358 58.752
v 7.168 -20.131 58.769
v 0.870 -18.618 55.698
v 2.089 -18.177 56.690
v 3.952 -18.102 57.630
v 5.649 -17.787 57.365
v 6.105 -17.459 56.160
v 7.149 -18.865 57.383
v 1.187 -18.281 54.679
v 2.083 -17.507 55.259
v 7.292 -18.718 55.600
v 5.927 -17.710 54.919
v 2.411 -17.918 54.207
v 4.368 -17.910 54.103
v 6.455 -17.170 28.784
v 6.722 -17.184 28.720
v 3.482 -17.072 56.014
v 4.861 -17.051 56.510
v 3.375 -17.084 54.846
v 4.752 -16.966 55.329
v 4.136 -8.194 45.132
v 4.132 -8.194 45.127
v 4.134 -8.193 45.129
v 4.132 -8.192 45.125
v 4.133 -8.193 45.126
v 4.131 -8.193 45.123
v 4.136 -8.194 45.131
v 4.139 -8.195 45.132
v 4.135 -8.194 45.127
v 4.137 -8.193 45.129
v 4.140 -8.194 45.132
v 4.135 -8.195 45.129
v 4.132 -8.194 45.127
v 4.138 -8.194 45.130

# Normal Array
vn 0.270 -0.904 -0.333
vn -0.182 -0.880 -0.438
vn 0.165 -0.977 0.136
vn -0.301 -0.953 0.029
vn 0.526 0.378 -0.762
vn 0.801 -0.212 -0.559
vn -0.487 -0.154 -0.860
vn -0.803 0.394 -0.446
vn 0.818 0.179 0.547
vn 0.503 -0.425 0.752
vn -0.814 -0.371 0.447
vn -0.521 0.134 0.843
vn 0.178 0.980 -0.087
vn -0.246 0.969 0.005
vn 0.261 0.923 0.283
vn -0.157 0.915 0.373
vn -0.367 -0.278 0.887
vn 0.453 -0.272 0.849
vn -0.213 -0.861 -0.462
vn 0.485 -0.763 -0.427
vn -0.669 0.249 0.700
vn -0.686 0.231 0.690
vn 0.457 -0.292 0.840
vn -0.054 -0.464 0.884
vn -0.816 -0.507 0.278
vn -0.058 -0.859 -0.509
vn -0.873 -0.487 0.035
vn -0.805 -0.366 -0.467
vn -0.879 -0.476 0.038
vn 0.570 -0.759 0.315
vn 0.500 -0.860 -0.099
vn 0.357 -0.928 0.104
vn 0.364 -0.919 -0.149
vn 0.472 -0.866 0.166
vn -0.661 -0.734 -0.155
vn -0.744 -0.616 -0.261
vn -0.116 -0.970 -0.214
vn -0.291 -0.902 -0.318
vn 0.253 -0.932 -0.258
vn 0.107 -0.937 -0.332
vn 0.486 -0.862 0.147
vn 0.464 -0.885 0.013
vn 0.201 -0.955 -0.219
vn 0.307 -0.943 0.126
vn -0.723 -0.618 -0.307
vn -0.157 -0.677 -0.719
vn -0.211 -0.827 -0.521
vn -0.193 -0.842 -0.504
vn 0.165 -0.832 -0.530
vn 0.039 -0.851 -0.524
vn 0.034 -0.856 -0.516
vn 0.184 -0.839 -0.511
vn 0.177 -0.843 -0.509
vn 0.270 -0.876 -0.400
vn -0.017 -0.614 -0.789
vn -0.097 -0.586 -0.805
vn -0.231 -0.794 0.562
vn 0.128 -0.705 0.697
vn -0.490 -0.856 0.163
vn -0.765 -0.265 -0.588
vn 0.221 -0.790 0.571
vn 0.095 -0.912 0.399
vn -0.412 -0.068 -0.909
vn 0.076 -0.915 -0.397
vn -0.660 0.130 0.740
vn -0.659 0.130 0.741
vn 0.269 -0.274 0.923
vn -0.037 -0.259 0.965
vn -0.200 -0.022 0.979
vn 0.436 0.064 0.897
vn -0.856 0.030 0.516
vn -0.926 -0.225 0.302
vn -0.756 0.139 0.640
vn -0.740 0.052 0.671
vn 0.602 -0.708 0.368
vn 0.599 -0.349 0.721
vn 0.608 -0.344 0.716
vn 0.656 -0.419 0.628
vn 0.841 -0.310 0.443
vn 0.702 0.125 0.701
vn -0.966 -0.254 0.047
vn -0.946 -0.316 0.073
vn -0.576 -0.646 0.501
vn 0.535 -0.672 0.512
vn 0.699 -0.586 0.411
vn 0.677 -0.573 0.462
vn 0.703 -0.572 0.422
vn 0.697 -0.219 0.683
vn 0.926 -0.183 0.331
vn 0.840 -0.319 0.438
vn -0.759 -0.425 -0.493
vn -0.888 -0.155 -0.433
vn -0.830 -0.198 -0.522
vn -0.603 -0.480 -0.637
vn -0.444 -0.450 -0.774
vn 0.177 -0.643 -0.745
vn 0.575 -0.504 -0.644
vn 0.291 -0.522 -0.802
vn 0.400 -0.499 -0.769
vn 0.290 -0.363 -0.885
vn 0.287 -0.869 -0.404
vn 0.391 -0.466 -0.794
vn 0.306 -0.355 -0.883
vn 0.754 -0.185 -0.630
vn -0.586 0.048 -0.809
vn -0.377 -0.180 -0.909
vn -0.171 -0.197 -0.965
vn -0.187 -0.220 -0.957
vn -0.027 -0.541 -0.841
vn 0.019 -0.187 -0.982
vn 0.046 -0.223 -0.974
vn 0.165 -0.172 -0.971
vn 0.145 -0.632 0.761
vn -0.077 -0.836 0.544
vn 0.113 -0.631 0.768
vn 0.179 -0.588 0.789
vn 0.405 -0.575 0.711
vn 0.234 -0.602 0.763
vn 0.233 -0.590 0.773
vn 0.458 -0.523 0.719
vn -0.697 0.012 -0.717
vn -0.760 0.033 -0.649
vn -0.633 0.220 -0.742
vn -0.659 0.247 -0.710
vn 0.575 -0.686 0.447
vn 0.411 -0.685 0.601
vn 0.750 -0.398 0.528
vn 0.813 -0.437 0.386
vn -0.451 0.422 -0.786
vn -0.339 0.273 -0.900
vn 0.491 -0.793 -0.361
vn 0.153 0.273 -0.950
vn -0.118 0.404 -0.907
vn 0.576 0.364 -0.732
vn -0.595 0.269 0.758
vn 0.013 0.239 0.971
vn -0.055 0.310 0.949
vn 0.375 0.172 0.911
vn -0.857 0.110 0.504
vn -0.578 0.377 0.724
vn -0.566 0.369 0.737
vn -0.429 0.416 0.802
vn -0.585 0.525 0.618
vn -0.017 0.509 0.861
vn 0.122 0.534 0.836
vn 0.416 0.237 0.878
vn 0.570 0.166 0.805
vn 0.502 0.094 0.860
vn 0.754 -0.033 0.656
vn 0.806 0.198 0.558
vn -0.848 0.359 0.389
vn -0.921 0.165 0.354
vn -0.942 0.139 0.304
vn -0.553 0.480 0.681
vn -0.581 0.421 0.697
vn 0.585 0.455 0.671
vn 0.834 0.414 0.364
vn 0.861 0.350 0.368
vn 0.924 0.291 0.250
vn 0.675 0.474 0.566
vn -0.931 0.241 -0.275
vn -0.973 0.098 -0.211
vn -0.547 0.683 -0.484
vn 0.594 0.652 -0.470
vn 0.488 -0.030 -0.872
vn 0.805 0.560 -0.197
vn 0.743 0.272 -0.611
vn 0.591 0.583 -0.558
vn 0.681 0.271 -0.680
vn 0.656 0.572 -0.492
vn -0.710 0.120 -0.694
vn -0.588 0.005 -0.809
vn -0.276 0.073 -0.958
vn -0.343 0.112 -0.933
vn 0.114 0.068 -0.991
vn -0.052 0.199 -0.979
vn 0.307 0.031 -0.951
vn 0.287 0.265 -0.921
vn 0.367 0.223 -0.903
vn 0.592 0.426 -0.684
vn 0.116 -0.401 0.909
vn 0.228 -0.032 0.973
vn 0.016 0.059 0.998
vn 0.236 -0.361 0.902
vn 0.368 -0.445 0.816
vn 0.347 -0.323 0.881
vn 0.444 -0.428 0.787
vn 0.660 -0.119 0.742
vn -0.549 0.452 -0.703
vn -0.374 0.567 -0.734
vn -0.440 0.543 -0.716
vn -0.447 0.610 -0.654
vn -0.390 0.613 -0.688
vn -0.148 0.685 -0.713
vn -0.280 0.666 -0.692
vn 0.202 0.838 -0.506
vn 0.753 0.594 -0.283
vn 0.921 0.054 0.385
vn -0.366 0.543 -0.756
vn -0.168 0.575 -0.801
vn -0.124 0.607 -0.785
vn 0.386 0.559 -0.734
vn -0.399 0.455 0.796
vn 0.114 0.473 0.874
vn 0.038 0.518 0.855
vn 0.451 0.317 0.834
vn 0.220 0.485 0.846
vn 0.631 0.381 0.676
vn -0.848 0.428 0.311
vn -0.607 0.649 0.458
vn -0.474 0.565 0.675
vn -0.381 0.597 0.706
vn -0.429 0.619 0.658
vn 0.013 0.676 0.737
vn -0.006 0.662 0.749
vn 0.531 0.746 0.403
vn 0.412 0.585 0.698
vn 0.324 0.701 0.636
vn 0.761 0.603 0.240
vn 0.584 0.603 0.543
vn -0.834 0.546 -0.079
vn -0.907 0.410 0.093
vn -0.559 0.750 0.354
vn -0.668 0.743 0.038
vn 0.747 0.655 0.114
vn 0.651 0.721 -0.239
vn 0.826 0.528 -0.197
vn 0.743 0.659 0.114
vn -0.683 0.319 -0.657
vn -0.408 0.800 -0.440
vn -0.433 0.425 -0.795
vn -0.339 0.358 -0.870
vn -0.012 0.450 -0.893
vn -0.048 0.481 -0.876
vn 0.652 0.497 -0.573
vn 0.343 0.520 -0.782
vn 0.309 0.470 -0.827
vn 0.615 0.548 -0.568
vn -0.119 0.834 0.538
vn 0.430 -0.106 0.897
vn 0.198 0.718 0.667
vn 0.668 0.027 0.744
vn -0.373 0.702 -0.607
vn -0.282 0.708 -0.647
vn -0.065 0.886 -0.460
vn 0.254 0.890 -0.378
vn -0.320 0.754 0.574
vn -0.033 0.742 0.669
vn -0.217 0.794 0.569
vn 0.383 0.845 0.374
vn -0.305 0.952 0.018
vn -0.455 0.806 0.380
vn -0.042 0.996 0.076
vn -0.084 0.996 -0.003
vn 0.458 0.856 -0.239
vn 0.321 0.946 0.038
vn -0.403 0.803 -0.439
vn -0.043 0.639 -0.768
vn 0.157 0.758 -0.632
vn 0.240 0.732 -0.638
vn -0.513 0.634 0.579
vn 0.239 0.970 -0.042
vn -0.456 0.819 0.348
vn 0.524 0.730 -0.438
vn 0.039 0.924 0.380
vn 0.229 0.856 0.463
vn 0.648 0.332 -0.685
vn 0.066 0.983 0.173
vn 0.504 0.856 -0.115
vn 0.679 0.524 -0.514
vn -0.223 0.067 0.973
vn 0.019 0.985 0.170
vn -0.478 -0.791 0.382
vn -0.347 -0.862 -0.369
vn -0.243 -0.954 -0.175
vn -0.955 -0.234 0.182
vn 0.209 -0.893 -0.399
vn -0.222 -0.925 0.310
vn 0.730 -0.151 -0.667
vn -0.017 -0.977 -0.215
vn 0.269 -0.726 -0.633
vn -0.015 -0.985 -0.170
vn 0.548 -0.564 -0.619
vn 0.588 -0.359 -0.725

# Facets
f 1//1 3//1 2//1
f 4//2 2//2 3//2
f 5//3 3//3 1//3
f 5//4 4//4 3//4
f 6//5 2//5 7//5
f 6//6 1//6 2//6
f 4//7 7//7 2//7
f 4//8 8//8 7//8
f 9//9 1//9 6//9
f 9//10 5//10 1//10
f 5//11 8//11 4//11
f 5//12 9//12 8//12
f 6//13 7//13 10//13
f 10//14 7//14 8//14
f 9//15 6//15 10//15
f 10//16 8//16 9//16
f 11//17 13//17 12//17
f 14//18 12//18 13//18
f 15//19 13//19 11//19
f 15//20 14//20 13//20
f 16//21 12//21 17//21
f 16//22 11//22 12//22
f 14//23 17//23 12//23
f 14//24 18//24 17//24
f 19//25 21//25 20//25
f 22//26 15//26 21//26
f 21//27 15//27 16//27
f 16//28 15//28 11//28
f 16//29 20//29 21//29
f 14//30 23//30 18//30
f 22//31 23//31 14//31
f 24//32 23//32 22//32
f 15//33 22//33 14//33
f 25//34 23//34 24//34
f 19//35 26//35 21//35
f 19//36 27//36 26//36
f 28//37 22//37 21//37
f 26//38 28//38 21//38
f 29//39 24//39 22//39
f 28//40 29//40 22//40
f 24//41 30//41 25//41
f 31//42 30//42 24//42
f 29//43 31//43 24//43
f 32//44 30//44 31//44
f 33//45 26//45 27//45
f 34//46 33//46 35//46
f 26//47 33//47 34//47
f 28//48 26//48 34//48
f 29//49 37//49 36//49
f 34//50 37//50 29//50
f 28//51 34//51 29//51
f 36//52 31//52 29//52
f 36//53 38//53 31//53
f 38//54 32//54 31//54
f 39//55 34//55 35//55
f 39//56 37//56 34//56
f 40//57 42//57 41//57
f 43//58 41//58 42//58
f 40//59 44//59 42//59
f 40//60 45//60 44//60
f 42//61 46//61 43//61
f 42//62 44//62 46//62
f 47//63 44//63 45//63
f 47//64 46//64 44//64
f 48//65 17//65 49//65
f 48//66 16//66 17//66
f 50//67 18//67 51//67
f 17//68 18//68 50//68
f 49//69 17//69 50//69
f 52//70 50//70 51//70
f 53//71 20//71 54//71
f 53//72 19//72 20//72
f 16//73 48//73 20//73
f 48//74 54//74 20//74
f 51//75 18//75 23//75
f 55//76 25//76 56//76
f 55//77 23//77 25//77
f 52//78 23//78 55//78
f 51//79 23//79 52//79
f 57//80 55//80 56//80
f 27//81 19//81 53//81
f 27//82 53//82 58//82
f 59//83 61//83 60//83
f 61//84 59//84 62//84
f 56//85 25//85 30//85
f 63//86 32//86 64//86
f 63//87 30//87 32//87
f 57//88 30//88 63//88
f 56//89 30//89 57//89
f 65//90 63//90 64//90
f 27//91 66//91 33//91
f 67//92 66//92 27//92
f 58//93 67//93 27//93
f 59//94 60//94 68//94
f 66//95 35//95 33//95
f 69//96 36//96 37//96
f 59//97 68//97 62//97
f 69//98 70//98 36//98
f 36//99 70//99 71//99
f 36//100 71//100 38//100
f 38//101 64//101 32//101
f 72//102 64//102 38//102
f 71//103 72//103 38//103
f 72//104 65//104 64//104
f 73//105 66//105 67//105
f 73//106 35//106 66//106
f 39//107 35//107 73//107
f 74//108 39//108 73//108
f 39//109 69//109 37//109
f 75//110 69//110 39//110
f 74//111 75//111 39//111
f 75//112 70//112 69//112
f 76//113 78//113 77//113
f 41//114 78//114 40//114
f 77//115 78//115 41//115
f 79//116 77//116 41//116
f 80//117 43//117 81//117
f 41//118 43//118 80//118
f 79//119 41//119 80//119
f 82//120 80//120 81//120
f 83//121 78//121 76//121
f 78//122 83//122 40//122
f 40//123 83//123 84//123
f 40//124 84//124 45//124
f 85//125 81//125 46//125
f 81//126 43//126 46//126
f 81//127 86//127 82//127
f 81//128 85//128 86//128
f 87//129 45//129 84//129
f 87//130 47//130 45//130
f 47//131 85//131 46//131
f 88//132 85//132 47//132
f 87//133 88//133 47//133
f 88//134 86//134 85//134
f 48//135 49//135 89//135
f 90//136 49//136 50//136
f 90//137 89//137 49//137
f 90//138 50//138 52//138
f 53//139 54//139 91//139
f 91//140 54//140 92//140
f 54//141 48//141 92//141
f 92//142 48//142 93//142
f 93//143 48//143 89//143
f 89//144 90//144 93//144
f 90//145 94//145 93//145
f 90//146 52//146 94//146
f 94//147 52//147 55//147
f 94//148 55//148 95//148
f 57//149 95//149 55//149
f 57//150 96//150 95//150
f 97//151 91//151 98//151
f 53//152 91//152 97//152
f 58//153 53//153 97//153
f 61//154 99//154 60//154
f 98//155 91//155 92//155
f 61//156 62//156 99//156
f 63//157 100//157 57//157
f 57//158 100//158 101//158
f 57//159 101//159 96//159
f 100//160 63//160 65//160
f 67//161 58//161 97//161
f 67//162 97//162 102//162
f 60//163 99//163 68//163
f 62//164 68//164 99//164
f 103//165 71//165 70//165
f 101//166 100//166 104//166
f 104//167 100//167 71//167
f 71//168 100//168 72//168
f 71//169 103//169 104//169
f 100//170 65//170 72//170
f 105//171 67//171 102//171
f 105//172 73//172 67//172
f 106//173 74//173 73//173
f 106//174 73//174 105//174
f 107//175 75//175 74//175
f 107//176 74//176 106//176
f 75//177 103//177 70//177
f 108//178 103//178 75//178
f 107//179 108//179 75//179
f 108//180 104//180 103//180
f 76//181 77//181 109//181
f 77//182 110//182 109//182
f 111//183 110//183 77//183
f 79//184 111//184 77//184
f 79//185 80//185 112//185
f 111//186 79//186 112//186
f 82//187 112//187 80//187
f 82//188 113//188 112//188
f 83//189 76//189 109//189
f 114//190 84//190 115//190
f 84//191 83//191 115//191
f 115//192 83//192 110//192
f 110//193 83//193 109//193
f 116//194 114//194 117//194
f 114//195 115//195 117//195
f 113//196 116//196 117//196
f 86//197 116//197 113//197
f 82//198 86//198 113//198
f 87//199 84//199 114//199
f 114//200 88//200 87//200
f 114//201 116//201 88//201
f 116//202 86//202 88//202
f 92//203 93//203 118//203
f 119//204 93//204 94//204
f 119//205 118//205 93//205
f 120//206 94//206 95//206
f 120//207 119//207 94//207
f 120//208 95//208 96//208
f 97//209 98//209 121//209
f 121//210 98//210 122//210
f 98//211 92//211 122//211
f 122//212 92//212 123//212
f 123//213 92//213 118//213
f 118//214 119//214 123//214
f 119//215 124//215 123//215
f 125//216 124//216 126//216
f 126//217 124//217 119//217
f 126//218 119//218 120//218
f 126//219 96//219 101//219
f 126//220 120//220 96//220
f 102//221 121//221 127//221
f 102//222 97//222 121//222
f 122//223 128//223 121//223
f 128//224 127//224 121//224
f 126//225 129//225 125//225
f 129//226 130//226 125//226
f 129//227 101//227 104//227
f 129//228 126//228 101//228
f 105//229 102//229 127//229
f 131//230 127//230 128//230
f 105//231 127//231 131//231
f 106//232 105//232 131//232
f 132//233 107//233 106//233
f 132//234 106//234 131//234
f 108//235 130//235 129//235
f 132//236 130//236 108//236
f 107//237 132//237 108//237
f 129//238 104//238 108//238
f 110//239 111//239 133//239
f 134//240 111//240 112//240
f 134//241 133//241 111//241
f 134//242 112//242 113//242
f 115//243 110//243 133//243
f 133//244 117//244 115//244
f 133//245 134//245 117//245
f 134//246 113//246 117//246
f 122//247 123//247 135//247
f 136//248 123//248 124//248
f 136//249 135//249 123//249
f 136//250 124//250 125//250
f 128//251 135//251 137//251
f 128//252 122//252 135//252
f 135//253 136//253 138//253
f 135//254 138//254 137//254
f 138//255 125//255 130//255
f 138//256 136//256 125//256
f 131//257 128//257 137//257
f 137//258 132//258 131//258
f 137//259 138//259 132//259
f 138//260 130//260 132//260
f 139//261 141//261 140//261
f 142//262 141//262 143//262
f 142//263 140//263 141//263
f 144//264 142//264 143//264
f 139//265 145//265 141//265
f 139//266 146//266 145//266
f 143//267 148//267 147//267
f 145//268 148//268 143//268
f 141//269 145//269 143//269
f 147//270 144//270 143//270
f 149//271 145//271 146//271
f 149//272 148//272 145//272
f 139//273 140//273 150//273
f 151//274 140//274 142//274
f 151//275 150//275 140//275
f 151//276 142//276 144//276
f 146//277 150//277 152//277
f 146//278 139//278 150//278
f 152//279 147//279 148//279
f 151//280 147//280 152//280
f 150//281 151//281 152//281
f 151//282 144//282 147//282
f 149//283 146//283 152//283
f 152//284 148//284 149//284

# Thankyou for using Spin3D

