# Created using Spin3D

# Vertex Array
v 5.758 -34.594 29.690
v 5.756 -34.594 29.687
v 5.756 -34.595 29.689
v 5.754 -34.594 29.689
v 5.755 -34.594 29.691
v 5.758 -34.592 29.689
v 5.755 -34.592 29.688
v 5.754 -34.592 29.690
v 5.756 -34.593 29.691
v 5.756 -34.592 29.690
v 2.279 -26.944 60.863
v 2.563 -26.690 61.061
v 2.561 -27.061 60.943
v 3.423 -26.377 60.702
v 2.541 -26.633 60.171
v 2.088 -25.804 60.310
v 3.144 -25.434 61.180
v 4.263 -25.542 61.191
v 0.604 -24.036 57.205
v 1.077 -23.995 58.759
v 1.847 -25.486 58.376
v 3.934 -25.838 58.676
v 5.505 -25.086 60.035
v 6.569 -24.908 57.913
v 7.473 -24.250 58.766
v 1.317 -24.516 56.190
v 0.220 -22.837 55.586
v 2.875 -25.283 56.803
v 5.189 -24.785 56.119
v 8.628 -23.828 57.399
v 7.908 -24.227 56.196
v 9.462 -23.721 56.155
v 1.111 -23.567 54.789
v 2.841 -24.133 54.910
v 1.829 -22.855 53.944
v 7.129 -23.476 54.679
v 4.933 -23.700 54.343
v 9.176 -23.438 55.340
v 3.709 -22.384 53.527
v 6.316 -17.924 28.327
v 6.377 -17.791 28.539
v 6.593 -18.111 28.177
v 6.772 -18.013 28.243
v 6.657 -18.182 27.999
v 6.602 -18.058 28.015
v 6.893 -18.160 27.993
v 6.889 -18.115 27.889
v 2.412 -23.281 60.216
v 3.550 -23.994 61.302
v 4.338 -24.641 61.439
v 4.958 -24.970 61.159
v 5.550 -23.875 60.797
v 0.108 -22.149 57.078
v 0.963 -22.022 58.575
v 7.298 -23.195 59.423
v 8.333 -23.455 58.436
v 8.841 -22.201 57.702
v -0.218 -21.387 55.733
v 9.842 -23.067 56.404
v 10.110 -23.303 55.722
v 10.250 -22.876 55.763
v 0.751 -22.327 54.269
v 0.249 -20.710 54.615
v 5.772 -22.662 53.650
v 7.098 -22.128 53.788
v 8.656 -22.230 54.670
v 9.920 -22.848 55.361
v 1.827 -20.988 53.514
v 3.658 -20.512 53.063
v 5.596 -21.013 53.308
v 5.812 -17.465 28.899
v 6.029 -17.430 28.887
v 5.987 -17.634 28.726
v 6.458 -17.474 28.758
v 6.795 -17.705 28.479
v 7.052 -17.917 28.162
v 7.062 -17.599 28.387
v 6.006 -17.525 28.710
v 6.437 -17.748 28.276
v 7.099 -18.014 27.952
v 7.165 -17.711 28.155
v 6.773 -17.914 27.994
v 7.040 -17.836 27.994
v 3.574 -22.954 60.978
v 4.544 -23.109 61.072
v 0.464 -20.507 57.536
v 2.043 -20.028 58.545
v 3.977 -21.314 60.052
v 6.115 -21.700 59.945
v 7.788 -21.444 58.946
v 8.188 -20.430 57.992
v -0.007 -19.687 55.965
v 0.676 -19.026 57.090
v 9.547 -21.994 55.854
v 8.521 -20.291 56.581
v 0.255 -18.813 54.624
v 7.412 -20.962 53.920
v 8.248 -20.456 54.969
v 1.141 -18.990 53.816
v 2.830 -19.035 53.304
v 4.560 -19.355 53.244
v 6.325 -19.227 54.044
v 5.838 -17.380 28.934
v 6.091 -17.282 28.878
v 6.397 -17.233 28.870
v 6.790 -17.368 28.666
v 7.017 -17.377 28.462
v 6.773 -17.589 28.227
v 6.384 -17.373 28.593
v 7.045 -17.519 28.238
v 6.775 -17.283 28.521
v 3.770 -19.439 58.967
v 5.444 -19.355 58.784
v 7.164 -20.166 58.788
v 0.540 -18.037 56.178
v 1.656 -17.870 56.911
v 3.670 -17.990 57.674
v 5.479 -17.760 57.372
v 5.943 -17.431 56.127
v 7.100 -18.884 57.391
v 0.480 -17.794 55.185
v 1.215 -17.153 55.761
v 7.243 -18.724 55.582
v 5.790 -17.664 54.851
v 0.890 -17.761 54.302
v 2.145 -17.597 53.925
v 4.188 -17.778 53.958
v 6.455 -17.170 28.784
v 6.722 -17.184 28.720
v 2.807 -16.837 55.895
v 4.542 -16.963 56.472
v 1.589 -16.971 54.824
v 2.987 -16.825 54.618
v 4.442 -16.849 55.224
v 4.136 -8.194 45.132
v 4.132 -8.194 45.127
v 4.134 -8.193 45.129
v 4.132 -8.192 45.125
v 4.133 -8.193 45.126
v 4.131 -8.193 45.123
v 4.136 -8.194 45.131
v 4.139 -8.195 45.132
v 4.135 -8.194 45.127
v 4.137 -8.193 45.129
v 4.140 -8.194 45.132
v 4.135 -8.195 45.129
v 4.132 -8.194 45.127
v 4.138 -8.194 45.130

# Normal Array
vn 0.270 -0.904 -0.333
vn -0.182 -0.880 -0.438
vn 0.165 -0.977 0.136
vn -0.301 -0.953 0.029
vn 0.526 0.378 -0.762
vn 0.801 -0.212 -0.559
vn -0.487 -0.154 -0.860
vn -0.803 0.394 -0.446
vn 0.818 0.179 0.547
vn 0.503 -0.425 0.752
vn -0.814 -0.371 0.447
vn -0.521 0.134 0.843
vn 0.178 0.980 -0.087
vn -0.246 0.969 0.005
vn 0.261 0.923 0.283
vn -0.157 0.915 0.373
vn -0.367 -0.279 0.887
vn 0.452 -0.270 0.850
vn -0.223 -0.855 -0.468
vn 0.483 -0.760 -0.434
vn -0.666 0.241 0.706
vn -0.683 0.223 0.695
vn 0.456 -0.291 0.841
vn -0.054 -0.464 0.884
vn -0.827 -0.496 0.265
vn -0.069 -0.852 -0.518
vn -0.875 -0.483 0.030
vn -0.807 -0.361 -0.468
vn -0.884 -0.466 0.034
vn 0.571 -0.759 0.314
vn 0.500 -0.860 -0.102
vn 0.357 -0.929 0.101
vn 0.360 -0.920 -0.154
vn 0.474 -0.865 0.165
vn -0.689 -0.710 -0.148
vn -0.764 -0.592 -0.257
vn -0.133 -0.968 -0.212
vn -0.314 -0.894 -0.320
vn 0.254 -0.932 -0.259
vn 0.102 -0.937 -0.335
vn 0.488 -0.861 0.146
vn 0.467 -0.884 0.014
vn 0.202 -0.954 -0.221
vn 0.310 -0.942 0.127
vn -0.749 -0.594 -0.293
vn -0.171 -0.677 -0.716
vn -0.232 -0.821 -0.522
vn -0.214 -0.837 -0.504
vn 0.166 -0.831 -0.531
vn 0.034 -0.851 -0.525
vn 0.030 -0.854 -0.519
vn 0.187 -0.839 -0.511
vn 0.180 -0.842 -0.509
vn 0.274 -0.875 -0.400
vn -0.021 -0.614 -0.789
vn -0.096 -0.588 -0.803
vn -0.231 -0.794 0.562
vn 0.128 -0.705 0.697
vn -0.490 -0.856 0.163
vn -0.765 -0.265 -0.588
vn 0.221 -0.790 0.571
vn 0.095 -0.912 0.399
vn -0.412 -0.068 -0.909
vn 0.076 -0.915 -0.397
vn -0.646 0.118 0.754
vn -0.655 0.112 0.747
vn 0.270 -0.276 0.922
vn -0.035 -0.262 0.964
vn -0.194 -0.029 0.981
vn 0.437 0.060 0.897
vn -0.868 -0.004 0.496
vn -0.930 -0.225 0.289
vn -0.761 0.121 0.638
vn -0.742 0.019 0.670
vn 0.602 -0.709 0.367
vn 0.600 -0.349 0.720
vn 0.608 -0.345 0.715
vn 0.656 -0.419 0.627
vn 0.842 -0.309 0.442
vn 0.701 0.126 0.702
vn -0.967 -0.251 0.043
vn -0.953 -0.295 0.064
vn 0.699 -0.586 0.410
vn 0.678 -0.571 0.463
vn 0.704 -0.571 0.422
vn 0.696 -0.219 0.683
vn 0.926 -0.183 0.329
vn 0.840 -0.318 0.439
vn -0.772 -0.423 -0.475
vn -0.885 -0.183 -0.428
vn -0.851 -0.209 -0.482
vn -0.454 -0.453 -0.767
vn 0.179 -0.643 -0.745
vn 0.294 -0.522 -0.801
vn 0.402 -0.498 -0.768
vn 0.292 -0.365 -0.884
vn 0.291 -0.868 -0.403
vn 0.392 -0.467 -0.792
vn 0.307 -0.357 -0.882
vn 0.753 -0.189 -0.631
vn -0.573 -0.002 -0.820
vn -0.375 -0.208 -0.903
vn -0.158 -0.222 -0.962
vn -0.173 -0.241 -0.955
vn -0.023 -0.543 -0.840
vn 0.032 -0.199 -0.979
vn 0.061 -0.238 -0.969
vn 0.174 -0.182 -0.968
vn 0.145 -0.632 0.761
vn -0.077 -0.836 0.544
vn 0.113 -0.631 0.768
vn 0.179 -0.588 0.789
vn 0.405 -0.575 0.711
vn 0.234 -0.602 0.763
vn 0.233 -0.590 0.773
vn 0.458 -0.523 0.719
vn -0.697 0.012 -0.717
vn -0.760 0.033 -0.649
vn -0.633 0.220 -0.742
vn -0.659 0.247 -0.710
vn 0.575 -0.686 0.447
vn 0.411 -0.685 0.601
vn 0.750 -0.398 0.528
vn 0.813 -0.437 0.386
vn -0.451 0.422 -0.786
vn -0.339 0.273 -0.900
vn 0.491 -0.793 -0.361
vn 0.153 0.273 -0.950
vn -0.118 0.404 -0.907
vn 0.576 0.364 -0.732
vn -0.579 0.255 0.774
vn 0.020 0.230 0.973
vn -0.045 0.299 0.953
vn 0.377 0.168 0.911
vn -0.869 0.051 0.492
vn -0.577 0.324 0.749
vn -0.573 0.322 0.753
vn -0.395 0.384 0.835
vn -0.568 0.506 0.649
vn -0.006 0.493 0.870
vn 0.136 0.522 0.842
vn 0.419 0.235 0.877
vn 0.568 0.168 0.806
vn 0.500 0.095 0.861
vn 0.753 -0.032 0.657
vn 0.805 0.206 0.556
vn -0.886 0.245 0.394
vn -0.935 0.109 0.337
vn -0.957 0.081 0.278
vn -0.577 0.310 0.756
vn 0.833 0.416 0.365
vn 0.857 0.360 0.368
vn 0.922 0.300 0.247
vn 0.671 0.476 0.568
vn -0.941 0.158 -0.298
vn -0.982 0.004 -0.190
vn 0.491 -0.033 -0.871
vn 0.802 0.566 -0.194
vn 0.742 0.274 -0.612
vn 0.590 0.582 -0.560
vn 0.685 0.271 -0.676
vn 0.653 0.572 -0.495
vn -0.673 0.006 -0.740
vn -0.580 -0.076 -0.811
vn -0.244 0.021 -0.969
vn -0.289 0.045 -0.956
vn 0.138 0.047 -0.989
vn -0.005 0.158 -0.987
vn 0.319 0.022 -0.948
vn 0.302 0.255 -0.919
vn 0.391 0.209 -0.896
vn 0.598 0.423 -0.681
vn 0.116 -0.401 0.909
vn 0.228 -0.032 0.973
vn 0.016 0.059 0.998
vn 0.236 -0.361 0.902
vn 0.368 -0.445 0.816
vn 0.347 -0.323 0.881
vn 0.444 -0.428 0.787
vn 0.660 -0.119 0.742
vn -0.549 0.452 -0.703
vn -0.374 0.567 -0.734
vn -0.440 0.543 -0.716
vn -0.447 0.610 -0.654
vn -0.390 0.613 -0.688
vn -0.148 0.685 -0.713
vn -0.280 0.666 -0.692
vn 0.202 0.838 -0.506
vn 0.753 0.594 -0.283
vn 0.921 0.054 0.385
vn -0.366 0.543 -0.756
vn -0.168 0.575 -0.801
vn -0.124 0.607 -0.785
vn 0.386 0.559 -0.734
vn -0.352 0.439 0.827
vn 0.128 0.470 0.874
vn 0.069 0.505 0.860
vn 0.448 0.322 0.834
vn 0.226 0.484 0.846
vn 0.626 0.389 0.676
vn -0.886 0.243 0.395
vn -0.516 0.541 0.664
vn -0.440 0.491 0.752
vn -0.267 0.551 0.791
vn -0.377 0.602 0.704
vn 0.048 0.667 0.743
vn 0.041 0.662 0.749
vn 0.520 0.757 0.394
vn 0.408 0.600 0.688
vn 0.330 0.703 0.630
vn 0.749 0.619 0.238
vn 0.577 0.615 0.538
vn -0.729 0.653 0.203
vn -0.946 0.297 0.129
vn -0.971 0.235 -0.037
vn -0.483 0.648 0.589
vn 0.725 0.679 0.117
vn 0.643 0.736 -0.212
vn 0.817 0.543 -0.194
vn 0.732 0.671 0.117
vn -0.840 0.392 -0.375
vn -0.647 0.162 -0.745
vn -0.273 0.269 -0.924
vn -0.310 0.294 -0.904
vn 0.046 0.421 -0.906
vn 0.052 0.417 -0.908
vn 0.654 0.512 -0.558
vn 0.386 0.524 -0.759
vn 0.341 0.453 -0.824
vn 0.621 0.556 -0.553
vn -0.119 0.834 0.538
vn 0.430 -0.106 0.897
vn 0.198 0.718 0.667
vn 0.668 0.027 0.744
vn -0.373 0.702 -0.607
vn -0.282 0.708 -0.647
vn -0.065 0.886 -0.460
vn 0.254 0.890 -0.378
vn -0.179 0.784 0.595
vn 0.013 0.755 0.655
vn -0.136 0.800 0.585
vn 0.374 0.852 0.365
vn -0.613 0.785 -0.092
vn -0.206 0.793 0.573
vn -0.203 0.973 0.108
vn -0.105 0.994 -0.006
vn 0.043 0.995 0.088
vn 0.012 1.000 0.011
vn 0.462 0.861 -0.213
vn 0.329 0.942 0.060
vn -0.629 0.731 -0.265
vn -0.289 0.693 -0.661
vn -0.172 0.756 -0.632
vn 0.068 0.625 -0.778
vn 0.264 0.752 -0.604
vn 0.284 0.745 -0.603
vn -0.513 0.634 0.579
vn 0.239 0.970 -0.042
vn -0.456 0.819 0.348
vn 0.524 0.730 -0.438
vn 0.039 0.924 0.380
vn 0.229 0.856 0.463
vn 0.648 0.332 -0.685
vn 0.066 0.983 0.173
vn 0.504 0.856 -0.115
vn 0.679 0.524 -0.514
vn -0.223 0.067 0.973
vn 0.019 0.985 0.170
vn -0.478 -0.791 0.382
vn -0.347 -0.862 -0.369
vn -0.243 -0.954 -0.175
vn -0.955 -0.234 0.182
vn 0.209 -0.893 -0.399
vn -0.222 -0.925 0.310
vn 0.730 -0.151 -0.667
vn -0.017 -0.977 -0.215
vn 0.269 -0.726 -0.633
vn -0.015 -0.985 -0.170
vn 0.548 -0.564 -0.619
vn 0.588 -0.359 -0.725

# Facets
f 1//1 3//1 2//1
f 4//2 2//2 3//2
f 5//3 3//3 1//3
f 5//4 4//4 3//4
f 6//5 2//5 7//5
f 6//6 1//6 2//6
f 4//7 7//7 2//7
f 4//8 8//8 7//8
f 9//9 1//9 6//9
f 9//10 5//10 1//10
f 5//11 8//11 4//11
f 5//12 9//12 8//12
f 6//13 7//13 10//13
f 10//14 7//14 8//14
f 9//15 6//15 10//15
f 10//16 8//16 9//16
f 11//17 13//17 12//17
f 14//18 12//18 13//18
f 15//19 13//19 11//19
f 15//20 14//20 13//20
f 16//21 12//21 17//21
f 16//22 11//22 12//22
f 14//23 17//23 12//23
f 14//24 18//24 17//24
f 19//25 21//25 20//25
f 22//26 15//26 21//26
f 21//27 15//27 16//27
f 16//28 15//28 11//28
f 16//29 20//29 21//29
f 14//30 23//30 18//30
f 22//31 23//31 14//31
f 24//32 23//32 22//32
f 15//33 22//33 14//33
f 25//34 23//34 24//34
f 19//35 26//35 21//35
f 19//36 27//36 26//36
f 28//37 22//37 21//37
f 26//38 28//38 21//38
f 29//39 24//39 22//39
f 28//40 29//40 22//40
f 24//41 30//41 25//41
f 31//42 30//42 24//42
f 29//43 31//43 24//43
f 32//44 30//44 31//44
f 33//45 26//45 27//45
f 34//46 33//46 35//46
f 26//47 33//47 34//47
f 28//48 26//48 34//48
f 29//49 37//49 36//49
f 34//50 37//50 29//50
f 28//51 34//51 29//51
f 36//52 31//52 29//52
f 36//53 38//53 31//53
f 38//54 32//54 31//54
f 39//55 34//55 35//55
f 39//56 37//56 34//56
f 40//57 42//57 41//57
f 43//58 41//58 42//58
f 40//59 44//59 42//59
f 40//60 45//60 44//60
f 42//61 46//61 43//61
f 42//62 44//62 46//62
f 47//63 44//63 45//63
f 47//64 46//64 44//64
f 48//65 17//65 49//65
f 48//66 16//66 17//66
f 50//67 18//67 51//67
f 17//68 18//68 50//68
f 49//69 17//69 50//69
f 52//70 50//70 51//70
f 53//71 20//71 54//71
f 53//72 19//72 20//72
f 16//73 48//73 20//73
f 48//74 54//74 20//74
f 51//75 18//75 23//75
f 55//76 25//76 56//76
f 55//77 23//77 25//77
f 52//78 23//78 55//78
f 51//79 23//79 52//79
f 57//80 55//80 56//80
f 27//81 19//81 53//81
f 27//82 53//82 58//82
f 56//83 25//83 30//83
f 59//84 32//84 60//84
f 59//85 30//85 32//85
f 57//86 30//86 59//86
f 56//87 30//87 57//87
f 61//88 59//88 60//88
f 27//89 62//89 33//89
f 63//90 62//90 27//90
f 58//91 63//91 27//91
f 35//92 33//92 62//92
f 64//93 36//93 37//93
f 64//94 65//94 36//94
f 36//95 65//95 66//95
f 36//96 66//96 38//96
f 38//97 60//97 32//97
f 67//98 60//98 38//98
f 66//99 67//99 38//99
f 67//100 61//100 60//100
f 68//101 62//101 63//101
f 68//102 35//102 62//102
f 39//103 35//103 68//103
f 69//104 39//104 68//104
f 39//105 64//105 37//105
f 70//106 64//106 39//106
f 69//107 70//107 39//107
f 70//108 65//108 64//108
f 71//109 73//109 72//109
f 41//110 73//110 40//110
f 72//111 73//111 41//111
f 74//112 72//112 41//112
f 75//113 43//113 76//113
f 41//114 43//114 75//114
f 74//115 41//115 75//115
f 77//116 75//116 76//116
f 78//117 73//117 71//117
f 73//118 78//118 40//118
f 40//119 78//119 79//119
f 40//120 79//120 45//120
f 80//121 76//121 46//121
f 76//122 43//122 46//122
f 76//123 81//123 77//123
f 76//124 80//124 81//124
f 82//125 45//125 79//125
f 82//126 47//126 45//126
f 47//127 80//127 46//127
f 83//128 80//128 47//128
f 82//129 83//129 47//129
f 83//130 81//130 80//130
f 48//131 49//131 84//131
f 85//132 49//132 50//132
f 85//133 84//133 49//133
f 85//134 50//134 52//134
f 53//135 54//135 86//135
f 86//136 54//136 87//136
f 54//137 48//137 87//137
f 87//138 48//138 88//138
f 88//139 48//139 84//139
f 84//140 85//140 88//140
f 85//141 89//141 88//141
f 85//142 52//142 89//142
f 89//143 52//143 55//143
f 89//144 55//144 90//144
f 57//145 90//145 55//145
f 57//146 91//146 90//146
f 92//147 86//147 93//147
f 53//148 86//148 92//148
f 58//149 53//149 92//149
f 86//150 87//150 93//150
f 59//151 94//151 57//151
f 57//152 94//152 95//152
f 57//153 95//153 91//153
f 94//154 59//154 61//154
f 63//155 58//155 92//155
f 63//156 92//156 96//156
f 97//157 66//157 65//157
f 95//158 94//158 98//158
f 98//159 94//159 66//159
f 66//160 94//160 67//160
f 66//161 97//161 98//161
f 94//162 61//162 67//162
f 99//163 63//163 96//163
f 99//164 68//164 63//164
f 100//165 69//165 68//165
f 100//166 68//166 99//166
f 101//167 70//167 69//167
f 101//168 69//168 100//168
f 70//169 97//169 65//169
f 102//170 97//170 70//170
f 101//171 102//171 70//171
f 102//172 98//172 97//172
f 71//173 72//173 103//173
f 72//174 104//174 103//174
f 105//175 104//175 72//175
f 74//176 105//176 72//176
f 74//177 75//177 106//177
f 105//178 74//178 106//178
f 77//179 106//179 75//179
f 77//180 107//180 106//180
f 78//181 71//181 103//181
f 108//182 79//182 109//182
f 79//183 78//183 109//183
f 109//184 78//184 104//184
f 104//185 78//185 103//185
f 110//186 108//186 111//186
f 108//187 109//187 111//187
f 107//188 110//188 111//188
f 81//189 110//189 107//189
f 77//190 81//190 107//190
f 82//191 79//191 108//191
f 108//192 83//192 82//192
f 108//193 110//193 83//193
f 110//194 81//194 83//194
f 87//195 88//195 112//195
f 113//196 88//196 89//196
f 113//197 112//197 88//197
f 114//198 89//198 90//198
f 114//199 113//199 89//199
f 114//200 90//200 91//200
f 92//201 93//201 115//201
f 115//202 93//202 116//202
f 93//203 87//203 116//203
f 116//204 87//204 117//204
f 117//205 87//205 112//205
f 112//206 113//206 117//206
f 113//207 118//207 117//207
f 119//208 118//208 120//208
f 120//209 118//209 113//209
f 120//210 113//210 114//210
f 120//211 91//211 95//211
f 120//212 114//212 91//212
f 121//213 115//213 122//213
f 92//214 115//214 121//214
f 96//215 92//215 121//215
f 115//216 116//216 122//216
f 120//217 123//217 119//217
f 123//218 124//218 119//218
f 123//219 95//219 98//219
f 123//220 120//220 95//220
f 125//221 96//221 121//221
f 125//222 99//222 96//222
f 126//223 100//223 99//223
f 126//224 99//224 125//224
f 127//225 101//225 100//225
f 127//226 100//226 126//226
f 102//227 124//227 123//227
f 127//228 124//228 102//228
f 101//229 127//229 102//229
f 123//230 98//230 102//230
f 104//231 105//231 128//231
f 129//232 105//232 106//232
f 129//233 128//233 105//233
f 129//234 106//234 107//234
f 109//235 104//235 128//235
f 128//236 111//236 109//236
f 128//237 129//237 111//237
f 129//238 107//238 111//238
f 116//239 117//239 130//239
f 131//240 117//240 118//240
f 131//241 130//241 117//241
f 131//242 118//242 119//242
f 121//243 122//243 132//243
f 130//244 122//244 116//244
f 132//245 122//245 130//245
f 133//246 132//246 130//246
f 130//247 131//247 134//247
f 130//248 134//248 133//248
f 134//249 119//249 124//249
f 134//250 131//250 119//250
f 125//251 121//251 132//251
f 132//252 126//252 125//252
f 132//253 133//253 126//253
f 133//254 127//254 126//254
f 133//255 134//255 127//255
f 134//256 124//256 127//256
f 135//257 137//257 136//257
f 138//258 137//258 139//258
f 138//259 136//259 137//259
f 140//260 138//260 139//260
f 135//261 141//261 137//261
f 135//262 142//262 141//262
f 139//263 144//263 143//263
f 141//264 144//264 139//264
f 137//265 141//265 139//265
f 143//266 140//266 139//266
f 145//267 141//267 142//267
f 145//268 144//268 141//268
f 135//269 136//269 146//269
f 147//270 136//270 138//270
f 147//271 146//271 136//271
f 147//272 138//272 140//272
f 142//273 146//273 148//273
f 142//274 135//274 146//274
f 148//275 143//275 144//275
f 147//276 143//276 148//276
f 146//277 147//277 148//277
f 147//278 140//278 143//278
f 145//279 142//279 148//279
f 148//280 144//280 145//280

# Thankyou for using Spin3D

