# Created using Spin3D

# Vertex Array
v 5.758 -34.594 29.690
v 5.756 -34.594 29.687
v 5.756 -34.595 29.689
v 5.754 -34.594 29.689
v 5.755 -34.594 29.691
v 5.758 -34.592 29.689
v 5.755 -34.592 29.688
v 5.754 -34.592 29.690
v 5.756 -34.593 29.691
v 5.756 -34.592 29.690
v 2.724 -27.124 61.061
v 3.031 -26.868 61.347
v 2.957 -27.375 61.200
v 3.468 -27.079 61.098
v 3.051 -26.843 60.265
v 2.388 -25.878 60.424
v 3.282 -25.404 61.321
v 4.005 -26.240 61.309
v 4.685 -26.216 60.101
v 5.259 -25.329 60.865
v 0.679 -24.041 57.187
v 1.208 -24.002 58.785
v 2.008 -25.567 58.319
v 3.934 -26.038 58.287
v 6.233 -25.261 58.017
v 6.797 -24.551 59.527
v 1.361 -24.543 56.133
v 0.237 -22.822 55.571
v 2.898 -25.378 56.662
v 5.113 -24.918 56.040
v 8.434 -23.924 57.623
v 7.783 -24.347 56.251
v 9.390 -23.765 56.242
v 1.117 -23.566 54.753
v 2.833 -24.173 54.847
v 1.822 -22.853 53.914
v 7.094 -23.524 54.663
v 4.906 -23.747 54.297
v 9.145 -23.468 55.370
v 3.698 -22.392 53.497
v 7.032 -18.221 28.065
v 7.098 -18.050 28.168
v 7.045 -18.353 28.034
v 7.121 -18.188 28.108
v 7.036 -18.326 27.998
v 7.066 -18.015 28.084
v 7.102 -18.272 28.024
v 7.108 -18.087 28.033
v 2.557 -23.265 60.275
v 3.723 -24.002 61.344
v 4.514 -24.801 61.410
v 6.001 -23.765 60.654
v 0.144 -22.128 57.087
v 1.031 -21.999 58.605
v 8.200 -23.416 58.739
v 7.603 -22.786 59.474
v 8.887 -22.093 57.808
v -0.217 -21.362 55.735
v 9.818 -23.057 56.495
v 10.098 -23.305 55.773
v 10.261 -22.856 55.809
v 0.747 -22.311 54.252
v 0.238 -20.690 54.612
v 5.759 -22.681 53.623
v 7.095 -22.135 53.771
v 8.663 -22.226 54.674
v 9.930 -22.836 55.388
v 1.815 -20.976 53.502
v 3.649 -20.507 53.049
v 5.594 -21.012 53.291
v 7.105 -17.780 28.224
v 7.204 -17.496 28.368
v 7.213 -17.770 28.273
v 7.211 -17.947 28.160
v 7.300 -17.523 28.323
v 7.159 -17.497 28.259
v 7.189 -17.978 28.087
v 7.287 -17.580 28.239
v 7.147 -17.733 28.135
v 7.221 -17.667 28.159
v 3.746 -22.928 61.007
v 4.774 -23.079 61.058
v 0.482 -20.481 57.555
v 2.091 -20.000 58.567
v 4.116 -21.261 60.072
v 6.344 -21.550 59.943
v 7.962 -21.251 58.992
v 8.288 -20.316 58.034
v -0.019 -19.667 55.972
v 0.670 -19.007 57.103
v 9.573 -21.953 55.895
v 8.572 -20.225 56.613
v 0.232 -18.799 54.626
v 7.422 -20.952 53.910
v 8.273 -20.428 54.975
v 1.121 -18.979 53.814
v 2.815 -19.029 53.298
v 4.553 -19.351 53.234
v 6.331 -19.216 54.036
v 7.219 -17.225 28.416
v 7.294 -17.052 28.510
v 7.307 -17.251 28.446
v 7.347 -17.167 28.417
v 7.244 -17.307 28.291
v 7.259 -17.078 28.417
v 7.311 -17.270 28.319
v 7.328 -16.986 28.450
v 3.839 -19.399 58.981
v 5.540 -19.288 58.793
v 7.300 -20.046 58.808
v 0.516 -18.026 56.184
v 1.646 -17.859 56.917
v 3.692 -17.969 57.679
v 5.511 -17.730 57.373
v 5.955 -17.413 56.123
v 7.163 -18.822 57.403
v 0.451 -17.787 55.187
v 1.187 -17.151 55.761
v 7.268 -18.694 55.584
v 5.789 -17.656 54.844
v 0.863 -17.757 54.302
v 2.121 -17.597 53.921
v 4.175 -17.778 53.950
v 7.306 -16.917 28.518
v 7.346 -16.940 28.524
v 2.789 -16.838 55.891
v 4.542 -16.956 56.468
v 1.560 -16.974 54.821
v 2.962 -16.831 54.611
v 4.430 -16.851 55.216
v 4.136 -8.194 45.132
v 4.132 -8.194 45.127
v 4.134 -8.193 45.129
v 4.132 -8.192 45.125
v 4.133 -8.193 45.126
v 4.131 -8.193 45.123
v 4.136 -8.194 45.131
v 4.139 -8.195 45.132
v 4.135 -8.194 45.127
v 4.137 -8.193 45.129
v 4.140 -8.194 45.132
v 4.135 -8.195 45.129
v 4.132 -8.194 45.127
v 4.138 -8.194 45.130

# Normal Array
vn 0.270 -0.904 -0.333
vn -0.182 -0.880 -0.438
vn 0.165 -0.977 0.136
vn -0.301 -0.953 0.029
vn 0.526 0.378 -0.762
vn 0.801 -0.212 -0.559
vn -0.487 -0.154 -0.860
vn -0.803 0.394 -0.446
vn 0.818 0.179 0.547
vn 0.503 -0.425 0.752
vn -0.814 -0.371 0.447
vn -0.521 0.134 0.843
vn 0.178 0.980 -0.087
vn -0.246 0.969 0.005
vn 0.261 0.923 0.283
vn -0.157 0.915 0.373
vn -0.612 -0.136 0.779
vn 0.356 -0.308 0.883
vn -0.506 -0.727 -0.465
vn 0.388 -0.817 -0.426
vn -0.737 0.138 0.661
vn -0.735 0.141 0.663
vn 0.725 -0.564 0.396
vn 0.297 -0.408 0.864
vn 0.031 0.012 0.999
vn 0.629 -0.699 0.340
vn -0.817 -0.502 0.283
vn -0.219 -0.866 -0.450
vn -0.818 -0.572 0.063
vn -0.761 -0.446 -0.471
vn -0.876 -0.474 0.088
vn 0.295 -0.870 -0.394
vn 0.329 -0.917 -0.226
vn 0.291 -0.933 -0.212
vn 0.638 -0.696 0.329
vn 0.635 -0.763 0.122
vn -0.703 -0.701 -0.121
vn -0.780 -0.584 -0.227
vn -0.234 -0.944 -0.234
vn -0.373 -0.878 -0.301
vn 0.272 -0.911 -0.311
vn 0.072 -0.907 -0.414
vn 0.534 -0.824 0.188
vn 0.521 -0.853 0.016
vn 0.222 -0.932 -0.287
vn 0.339 -0.932 0.127
vn -0.758 -0.588 -0.282
vn -0.194 -0.661 -0.725
vn -0.257 -0.810 -0.528
vn -0.258 -0.809 -0.528
vn 0.176 -0.807 -0.564
vn 0.022 -0.828 -0.560
vn 0.017 -0.833 -0.554
vn 0.218 -0.825 -0.522
vn 0.202 -0.831 -0.518
vn 0.313 -0.869 -0.384
vn -0.033 -0.594 -0.804
vn -0.099 -0.570 -0.815
vn -0.577 -0.244 0.780
vn -0.019 -0.403 0.915
vn -0.980 -0.132 0.150
vn -0.924 0.184 -0.335
vn 0.785 -0.515 0.344
vn 0.645 -0.518 -0.561
vn -0.503 0.276 -0.819
vn 0.348 0.034 -0.937
vn -0.602 0.177 0.779
vn -0.728 0.086 0.680
vn -0.045 -0.054 0.998
vn -0.076 0.008 0.997
vn 0.467 -0.225 0.855
vn 0.522 -0.134 0.842
vn -0.862 -0.031 0.506
vn -0.920 -0.241 0.310
vn -0.759 0.086 0.645
vn -0.740 -0.005 0.672
vn 0.625 -0.263 0.735
vn 0.676 -0.288 0.678
vn 0.704 -0.244 0.667
vn 0.786 0.026 0.617
vn -0.962 -0.266 0.063
vn -0.949 -0.304 0.081
vn 0.702 -0.581 0.412
vn 0.678 -0.574 0.459
vn 0.702 -0.575 0.420
vn 0.700 -0.241 0.673
vn 0.915 -0.258 0.309
vn 0.833 -0.337 0.438
vn -0.782 -0.416 -0.464
vn -0.890 -0.187 -0.416
vn -0.855 -0.212 -0.474
vn -0.465 -0.443 -0.767
vn 0.190 -0.629 -0.754
vn 0.300 -0.516 -0.803
vn 0.413 -0.492 -0.766
vn 0.312 -0.369 -0.875
vn 0.311 -0.869 -0.384
vn 0.410 -0.487 -0.771
vn 0.316 -0.368 -0.875
vn 0.760 -0.228 -0.608
vn -0.576 0.001 -0.818
vn -0.384 -0.199 -0.901
vn -0.162 -0.212 -0.964
vn -0.177 -0.232 -0.957
vn -0.021 -0.522 -0.852
vn 0.033 -0.191 -0.981
vn 0.061 -0.229 -0.971
vn 0.179 -0.175 -0.968
vn -0.676 -0.133 0.725
vn -0.730 -0.121 0.673
vn 0.697 -0.391 0.600
vn 0.099 -0.385 0.918
vn -0.062 -0.329 0.942
vn 0.730 -0.374 0.572
vn -0.986 0.164 -0.002
vn -0.980 0.191 -0.048
vn 0.953 -0.246 -0.176
vn 0.908 -0.379 0.180
vn 0.979 -0.201 -0.013
vn 0.964 -0.154 -0.217
vn -0.780 0.320 -0.537
vn -0.488 0.289 -0.824
vn 0.532 0.023 -0.847
vn 0.374 0.171 -0.912
vn 0.073 0.267 -0.961
vn 0.727 0.082 -0.682
vn -0.559 0.259 0.788
vn 0.104 0.184 0.977
vn -0.003 0.299 0.954
vn 0.375 0.131 0.918
vn -0.864 0.035 0.502
vn -0.571 0.317 0.757
vn -0.569 0.316 0.759
vn -0.384 0.384 0.839
vn -0.553 0.498 0.668
vn 0.028 0.484 0.874
vn 0.115 0.505 0.855
vn 0.413 0.220 0.884
vn 0.503 0.193 0.842
vn 0.478 0.159 0.864
vn 0.790 0.007 0.612
vn 0.838 0.219 0.499
vn -0.885 0.236 0.401
vn -0.934 0.094 0.344
vn -0.953 0.070 0.294
vn -0.571 0.306 0.762
vn 0.864 0.375 0.337
vn 0.868 0.363 0.338
vn 0.935 0.289 0.206
vn 0.678 0.461 0.573
vn -0.944 0.151 -0.292
vn -0.983 -0.002 -0.184
vn 0.497 -0.035 -0.867
vn 0.803 0.555 -0.216
vn 0.744 0.265 -0.614
vn 0.594 0.567 -0.570
vn 0.687 0.263 -0.678
vn 0.667 0.555 -0.498
vn -0.674 0.003 -0.739
vn -0.583 -0.076 -0.809
vn -0.245 0.024 -0.969
vn -0.290 0.049 -0.956
vn 0.136 0.051 -0.989
vn -0.006 0.162 -0.987
vn 0.320 0.023 -0.947
vn 0.302 0.257 -0.918
vn 0.389 0.212 -0.897
vn 0.595 0.423 -0.683
vn -0.693 -0.088 0.715
vn -0.747 -0.076 0.661
vn 0.061 -0.325 0.944
vn 0.011 -0.307 0.952
vn 0.569 -0.352 0.744
vn 0.851 -0.235 0.469
vn -0.642 0.400 -0.654
vn -0.963 0.258 -0.076
vn -0.982 0.176 0.075
vn 0.152 0.407 -0.901
vn -0.221 0.480 -0.849
vn 0.848 0.180 -0.498
vn 0.932 0.020 -0.361
vn 0.991 -0.111 -0.076
vn -0.612 0.391 -0.688
vn -0.003 0.344 -0.939
vn 0.207 0.325 -0.923
vn 0.697 0.127 -0.706
vn -0.347 0.435 0.831
vn 0.113 0.482 0.869
vn 0.062 0.511 0.857
vn 0.423 0.359 0.832
vn 0.208 0.501 0.840
vn 0.625 0.442 0.643
vn -0.885 0.236 0.401
vn -0.512 0.543 0.666
vn -0.434 0.492 0.755
vn -0.264 0.554 0.790
vn -0.374 0.603 0.704
vn 0.038 0.675 0.737
vn 0.035 0.673 0.738
vn 0.506 0.776 0.376
vn 0.399 0.622 0.674
vn 0.310 0.732 0.607
vn 0.744 0.640 0.190
vn 0.573 0.645 0.506
vn -0.727 0.656 0.204
vn -0.948 0.292 0.131
vn -0.973 0.229 -0.033
vn -0.478 0.651 0.589
vn 0.714 0.694 0.090
vn 0.632 0.742 -0.223
vn 0.810 0.545 -0.216
vn 0.728 0.680 0.090
vn -0.840 0.391 -0.376
vn -0.648 0.160 -0.745
vn -0.274 0.269 -0.923
vn -0.311 0.295 -0.904
vn 0.045 0.423 -0.905
vn 0.050 0.419 -0.907
vn 0.645 0.516 -0.564
vn 0.381 0.526 -0.760
vn 0.337 0.456 -0.823
vn 0.616 0.554 -0.560
vn -0.815 0.040 0.578
vn 0.343 -0.268 0.900
vn -0.183 -0.039 0.982
vn 0.844 -0.226 0.486
vn -0.965 0.259 0.044
vn -0.405 0.571 -0.714
vn 0.488 0.684 -0.543
vn 0.936 0.155 -0.316
vn -0.177 0.789 0.589
vn 0.008 0.764 0.645
vn -0.136 0.805 0.578
vn 0.364 0.864 0.348
vn -0.609 0.788 -0.093
vn -0.202 0.797 0.569
vn -0.199 0.974 0.105
vn -0.102 0.995 -0.009
vn 0.041 0.996 0.080
vn 0.010 1.000 0.006
vn 0.451 0.864 -0.223
vn 0.319 0.946 0.051
vn -0.626 0.733 -0.265
vn -0.288 0.694 -0.660
vn -0.171 0.757 -0.631
vn 0.066 0.627 -0.776
vn 0.259 0.754 -0.604
vn 0.278 0.747 -0.603
vn -0.513 0.634 0.579
vn 0.239 0.970 -0.042
vn -0.456 0.819 0.348
vn 0.524 0.730 -0.438
vn 0.039 0.924 0.380
vn 0.229 0.856 0.463
vn 0.648 0.332 -0.685
vn 0.066 0.983 0.173
vn 0.504 0.856 -0.115
vn 0.679 0.524 -0.514
vn -0.223 0.067 0.973
vn 0.019 0.985 0.170
vn -0.478 -0.791 0.382
vn -0.347 -0.862 -0.369
vn -0.243 -0.954 -0.175
vn -0.955 -0.234 0.182
vn 0.209 -0.893 -0.399
vn -0.222 -0.925 0.310
vn 0.730 -0.151 -0.667
vn -0.017 -0.977 -0.215
vn 0.269 -0.726 -0.633
vn -0.015 -0.985 -0.170
vn 0.548 -0.564 -0.619
vn 0.588 -0.359 -0.725

# Facets
f 1//1 3//1 2//1
f 4//2 2//2 3//2
f 5//3 3//3 1//3
f 5//4 4//4 3//4
f 6//5 2//5 7//5
f 6//6 1//6 2//6
f 4//7 7//7 2//7
f 4//8 8//8 7//8
f 9//9 1//9 6//9
f 9//10 5//10 1//10
f 5//11 8//11 4//11
f 5//12 9//12 8//12
f 6//13 7//13 10//13
f 10//14 7//14 8//14
f 9//15 6//15 10//15
f 10//16 8//16 9//16
f 11//17 13//17 12//17
f 14//18 12//18 13//18
f 15//19 13//19 11//19
f 15//20 14//20 13//20
f 16//21 12//21 17//21
f 16//22 11//22 12//22
f 18//23 14//23 19//23
f 12//24 14//24 18//24
f 17//25 12//25 18//25
f 20//26 18//26 19//26
f 21//27 23//27 22//27
f 24//28 15//28 23//28
f 23//29 15//29 16//29
f 16//30 15//30 11//30
f 16//31 22//31 23//31
f 14//32 15//32 19//32
f 19//33 15//33 24//33
f 19//34 24//34 25//34
f 19//35 26//35 20//35
f 19//36 25//36 26//36
f 21//37 27//37 23//37
f 21//38 28//38 27//38
f 29//39 24//39 23//39
f 27//40 29//40 23//40
f 30//41 25//41 24//41
f 29//42 30//42 24//42
f 25//43 31//43 26//43
f 32//44 31//44 25//44
f 30//45 32//45 25//45
f 33//46 31//46 32//46
f 34//47 27//47 28//47
f 35//48 34//48 36//48
f 27//49 34//49 35//49
f 29//50 27//50 35//50
f 30//51 38//51 37//51
f 35//52 38//52 30//52
f 29//53 35//53 30//53
f 37//54 32//54 30//54
f 37//55 39//55 32//55
f 39//56 33//56 32//56
f 40//57 35//57 36//57
f 40//58 38//58 35//58
f 41//59 43//59 42//59
f 44//60 42//60 43//60
f 41//61 45//61 43//61
f 41//62 46//62 45//62
f 43//63 47//63 44//63
f 43//64 45//64 47//64
f 48//65 45//65 46//65
f 48//66 47//66 45//66
f 49//67 17//67 50//67
f 49//68 16//68 17//68
f 17//69 18//69 51//69
f 50//70 17//70 51//70
f 20//71 51//71 18//71
f 20//72 52//72 51//72
f 53//73 22//73 54//73
f 53//74 21//74 22//74
f 16//75 49//75 22//75
f 49//76 54//76 22//76
f 55//77 56//77 26//77
f 26//78 56//78 52//78
f 26//79 52//79 20//79
f 57//80 56//80 55//80
f 28//81 21//81 53//81
f 28//82 53//82 58//82
f 55//83 26//83 31//83
f 59//84 33//84 60//84
f 59//85 31//85 33//85
f 57//86 31//86 59//86
f 55//87 31//87 57//87
f 61//88 59//88 60//88
f 28//89 62//89 34//89
f 63//90 62//90 28//90
f 58//91 63//91 28//91
f 36//92 34//92 62//92
f 64//93 37//93 38//93
f 64//94 65//94 37//94
f 37//95 65//95 66//95
f 37//96 66//96 39//96
f 39//97 60//97 33//97
f 67//98 60//98 39//98
f 66//99 67//99 39//99
f 67//100 61//100 60//100
f 68//101 62//101 63//101
f 68//102 36//102 62//102
f 40//103 36//103 68//103
f 69//104 40//104 68//104
f 40//105 64//105 38//105
f 70//106 64//106 40//106
f 69//107 70//107 40//107
f 70//108 65//108 64//108
f 71//109 42//109 72//109
f 71//110 41//110 42//110
f 73//111 44//111 74//111
f 42//112 44//112 73//112
f 72//113 42//113 73//113
f 75//114 73//114 74//114
f 46//115 41//115 71//115
f 46//116 71//116 76//116
f 77//117 74//117 47//117
f 74//118 44//118 47//118
f 74//119 78//119 75//119
f 74//120 77//120 78//120
f 79//121 46//121 76//121
f 79//122 48//122 46//122
f 48//123 77//123 47//123
f 80//124 77//124 48//124
f 79//125 80//125 48//125
f 80//126 78//126 77//126
f 49//127 50//127 81//127
f 82//128 50//128 51//128
f 82//129 81//129 50//129
f 82//130 51//130 52//130
f 53//131 54//131 83//131
f 83//132 54//132 84//132
f 54//133 49//133 84//133
f 84//134 49//134 85//134
f 85//135 49//135 81//135
f 81//136 82//136 85//136
f 82//137 86//137 85//137
f 82//138 52//138 86//138
f 86//139 52//139 56//139
f 86//140 56//140 87//140
f 57//141 87//141 56//141
f 57//142 88//142 87//142
f 89//143 83//143 90//143
f 53//144 83//144 89//144
f 58//145 53//145 89//145
f 83//146 84//146 90//146
f 59//147 91//147 57//147
f 57//148 91//148 92//148
f 57//149 92//149 88//149
f 91//150 59//150 61//150
f 63//151 58//151 89//151
f 63//152 89//152 93//152
f 94//153 66//153 65//153
f 92//154 91//154 95//154
f 95//155 91//155 66//155
f 66//156 91//156 67//156
f 66//157 94//157 95//157
f 91//158 61//158 67//158
f 96//159 63//159 93//159
f 96//160 68//160 63//160
f 97//161 69//161 68//161
f 97//162 68//162 96//162
f 98//163 70//163 69//163
f 98//164 69//164 97//164
f 70//165 94//165 65//165
f 99//166 94//166 70//166
f 98//167 99//167 70//167
f 99//168 95//168 94//168
f 100//169 72//169 101//169
f 100//170 71//170 72//170
f 72//171 73//171 102//171
f 101//172 72//172 102//172
f 75//173 102//173 73//173
f 75//174 103//174 102//174
f 76//175 105//175 104//175
f 100//176 105//176 76//176
f 71//177 100//177 76//177
f 106//178 104//178 107//178
f 104//179 105//179 107//179
f 103//180 106//180 107//180
f 78//181 106//181 103//181
f 75//182 78//182 103//182
f 79//183 76//183 104//183
f 104//184 80//184 79//184
f 104//185 106//185 80//185
f 106//186 78//186 80//186
f 84//187 85//187 108//187
f 109//188 85//188 86//188
f 109//189 108//189 85//189
f 110//190 86//190 87//190
f 110//191 109//191 86//191
f 110//192 87//192 88//192
f 89//193 90//193 111//193
f 111//194 90//194 112//194
f 90//195 84//195 112//195
f 112//196 84//196 113//196
f 113//197 84//197 108//197
f 108//198 109//198 113//198
f 109//199 114//199 113//199
f 115//200 114//200 116//200
f 116//201 114//201 109//201
f 116//202 109//202 110//202
f 116//203 88//203 92//203
f 116//204 110//204 88//204
f 117//205 111//205 118//205
f 89//206 111//206 117//206
f 93//207 89//207 117//207
f 111//208 112//208 118//208
f 116//209 119//209 115//209
f 119//210 120//210 115//210
f 119//211 92//211 95//211
f 119//212 116//212 92//212
f 121//213 93//213 117//213
f 121//214 96//214 93//214
f 122//215 97//215 96//215
f 122//216 96//216 121//216
f 123//217 98//217 97//217
f 123//218 97//218 122//218
f 99//219 120//219 119//219
f 123//220 120//220 99//220
f 98//221 123//221 99//221
f 119//222 95//222 99//222
f 100//223 101//223 124//223
f 125//224 101//224 102//224
f 125//225 124//225 101//225
f 125//226 102//226 103//226
f 105//227 100//227 124//227
f 124//228 107//228 105//228
f 124//229 125//229 107//229
f 125//230 103//230 107//230
f 112//231 113//231 126//231
f 127//232 113//232 114//232
f 127//233 126//233 113//233
f 127//234 114//234 115//234
f 117//235 118//235 128//235
f 126//236 118//236 112//236
f 128//237 118//237 126//237
f 129//238 128//238 126//238
f 126//239 127//239 130//239
f 126//240 130//240 129//240
f 130//241 115//241 120//241
f 130//242 127//242 115//242
f 121//243 117//243 128//243
f 128//244 122//244 121//244
f 128//245 129//245 122//245
f 129//246 123//246 122//246
f 129//247 130//247 123//247
f 130//248 120//248 123//248
f 131//249 133//249 132//249
f 134//250 133//250 135//250
f 134//251 132//251 133//251
f 136//252 134//252 135//252
f 131//253 137//253 133//253
f 131//254 138//254 137//254
f 135//255 140//255 139//255
f 137//256 140//256 135//256
f 133//257 137//257 135//257
f 139//258 136//258 135//258
f 141//259 137//259 138//259
f 141//260 140//260 137//260
f 131//261 132//261 142//261
f 143//262 132//262 134//262
f 143//263 142//263 132//263
f 143//264 134//264 136//264
f 138//265 142//265 144//265
f 138//266 131//266 142//266
f 144//267 139//267 140//267
f 143//268 139//268 144//268
f 142//269 143//269 144//269
f 143//270 136//270 139//270
f 141//271 138//271 144//271
f 144//272 140//272 141//272

# Thankyou for using Spin3D

