# Created using Spin3D

# Vertex Array
v 5.734 -36.075 29.445
v 5.735 -36.075 29.446
v 5.735 -36.076 29.445
v 5.736 -36.075 29.445
v 5.735 -36.075 29.444
v 5.735 -36.074 29.445
v 2.036 -27.052 60.770
v 2.266 -26.779 60.911
v 2.320 -27.123 60.823
v 3.189 -26.296 60.461
v 2.352 -26.698 60.069
v 1.849 -25.945 60.211
v 2.654 -25.548 60.875
v 3.981 -24.793 60.762
v 0.559 -24.114 57.217
v 0.962 -24.139 58.732
v 1.747 -25.564 58.337
v 3.850 -25.834 58.519
v 5.495 -24.878 59.486
v 6.544 -24.921 57.722
v 7.467 -24.322 58.470
v 1.298 -24.555 56.208
v 0.224 -22.868 55.619
v 2.838 -25.314 56.777
v 5.175 -24.805 56.079
v 8.594 -23.925 57.290
v 7.897 -24.275 56.155
v 9.445 -23.791 56.144
v 1.126 -23.576 54.824
v 2.848 -24.143 54.929
v 1.854 -22.849 53.980
v 7.137 -23.495 54.697
v 4.947 -23.705 54.364
v 9.173 -23.482 55.362
v 3.733 -22.375 53.561
v 6.918 -17.947 28.493
v 6.900 -17.836 28.525
v 6.931 -17.855 28.497
v 6.948 -17.900 28.465
v 6.968 -17.923 28.446
v 2.199 -23.524 60.102
v 3.140 -24.295 61.011
v 3.979 -23.500 60.854
v 0.079 -22.236 57.094
v 0.882 -22.184 58.556
v 5.552 -23.036 60.078
v 7.362 -23.396 59.001
v 8.310 -23.607 58.216
v 8.734 -22.342 57.632
v -0.210 -21.423 55.765
v 9.805 -23.156 56.397
v 10.096 -23.364 55.748
v 10.229 -22.943 55.793
v 0.775 -22.326 54.307
v 0.272 -20.715 54.648
v 5.792 -22.660 53.684
v 7.113 -22.132 53.826
v 8.655 -22.259 54.708
v 9.909 -22.899 55.398
v 1.856 -20.973 53.548
v 3.684 -20.494 53.096
v 5.616 -21.004 53.345
v 6.888 -17.646 28.557
v 6.891 -17.708 28.552
v 7.049 -17.799 28.378
v 6.964 -17.699 28.470
v 7.078 -17.647 28.364
v 7.030 -17.796 28.405
v 6.971 -17.632 28.487
v 7.119 -17.720 28.323
v 7.136 -17.670 28.308
v 7.085 -17.650 28.371
v 7.138 -17.611 28.319
v 3.269 -23.316 60.812
v 0.442 -20.618 57.543
v 2.008 -20.189 58.521
v 4.015 -21.631 59.970
v 6.001 -21.036 59.549
v 7.336 -21.673 59.031
v 7.990 -20.521 57.996
v 0.003 -19.729 55.989
v 0.674 -19.110 57.101
v 9.507 -22.063 55.874
v 8.435 -20.358 56.590
v 0.281 -18.811 54.651
v 7.419 -20.969 53.960
v 8.226 -20.487 55.002
v 1.169 -18.973 53.845
v 2.855 -19.015 53.333
v 4.581 -19.340 53.275
v 6.329 -19.228 54.077
v 6.921 -17.489 28.542
v 6.896 -17.516 28.569
v 7.022 -17.517 28.438
v 6.962 -17.408 28.517
v 6.945 -17.437 28.532
v 7.049 -17.508 28.421
v 7.116 -17.567 28.342
v 3.755 -19.586 58.923
v 5.382 -19.336 58.701
v 6.969 -20.100 58.720
v 0.555 -18.076 56.197
v 1.658 -17.935 56.917
v 3.652 -18.053 57.660
v 5.439 -17.781 57.361
v 5.916 -17.446 56.140
v 7.006 -18.906 57.383
v 0.504 -17.801 55.208
v 1.234 -17.174 55.778
v 7.207 -18.746 55.605
v 5.786 -17.667 54.876
v 0.917 -17.748 54.326
v 2.169 -17.579 53.949
v 4.204 -17.767 53.984
v 6.910 -17.399 28.568
v 2.817 -16.857 55.908
v 4.532 -16.987 56.480
v 1.612 -16.967 54.844
v 3.005 -16.819 54.638
v 4.447 -16.854 55.243
v 4.136 -8.194 45.132
v 4.132 -8.194 45.127
v 4.134 -8.193 45.129
v 4.132 -8.192 45.125
v 4.133 -8.193 45.126
v 4.131 -8.193 45.123
v 4.136 -8.194 45.131
v 4.139 -8.195 45.132
v 4.135 -8.194 45.127
v 4.137 -8.193 45.129
v 4.140 -8.194 45.132
v 4.135 -8.195 45.129
v 4.132 -8.194 45.127
v 4.138 -8.194 45.130

# Normal Array
vn -0.590 -0.655 0.472
vn 0.584 -0.663 0.469
vn -0.588 -0.464 -0.662
vn 0.585 -0.477 -0.656
vn -0.586 0.476 0.655
vn 0.590 0.464 0.661
vn -0.585 0.662 -0.469
vn 0.591 0.654 -0.471
vn -0.242 -0.276 0.930
vn 0.494 -0.144 0.858
vn -0.126 -0.862 -0.491
vn 0.541 -0.742 -0.395
vn -0.685 0.236 0.689
vn -0.691 0.230 0.685
vn 0.488 -0.129 0.863
vn 0.259 -0.319 0.911
vn -0.830 -0.516 0.212
vn -0.062 -0.845 -0.531
vn -0.836 -0.545 -0.065
vn -0.746 -0.396 -0.535
vn -0.880 -0.472 -0.048
vn 0.565 -0.438 0.699
vn 0.515 -0.857 -0.029
vn 0.375 -0.894 0.245
vn 0.454 -0.889 -0.057
vn 0.379 -0.892 0.247
vn -0.682 -0.706 -0.191
vn -0.755 -0.585 -0.297
vn -0.104 -0.968 -0.228
vn -0.304 -0.884 -0.355
vn 0.238 -0.934 -0.265
vn 0.103 -0.935 -0.339
vn 0.457 -0.878 0.141
vn 0.438 -0.899 0.008
vn 0.192 -0.955 -0.228
vn 0.297 -0.948 0.110
vn -0.744 -0.586 -0.322
vn -0.175 -0.666 -0.725
vn -0.233 -0.808 -0.542
vn -0.213 -0.825 -0.524
vn 0.162 -0.821 -0.548
vn 0.029 -0.840 -0.542
vn 0.024 -0.845 -0.535
vn 0.176 -0.827 -0.534
vn 0.180 -0.825 -0.535
vn 0.266 -0.861 -0.433
vn -0.025 -0.604 -0.797
vn -0.098 -0.578 -0.810
vn 0.626 -0.114 0.771
vn -0.735 0.069 -0.675
vn 0.716 -0.123 0.687
vn -0.697 0.020 -0.717
vn -0.617 0.156 0.771
vn -0.669 0.130 0.732
vn 0.182 -0.175 0.968
vn 0.245 -0.069 0.967
vn -0.877 0.007 0.481
vn -0.943 -0.225 0.247
vn -0.765 0.139 0.629
vn -0.748 0.029 0.663
vn 0.457 -0.063 0.887
vn 0.614 -0.259 0.746
vn 0.541 -0.371 0.754
vn 0.506 -0.385 0.772
vn 0.447 -0.286 0.847
vn 0.649 0.129 0.750
vn -0.969 -0.247 0.011
vn -0.957 -0.290 0.030
vn 0.657 -0.627 0.417
vn 0.666 -0.569 0.482
vn 0.691 -0.569 0.446
vn 0.664 -0.214 0.716
vn 0.928 -0.155 0.338
vn 0.826 -0.310 0.470
vn -0.763 -0.418 -0.493
vn -0.878 -0.180 -0.443
vn -0.845 -0.204 -0.494
vn -0.451 -0.446 -0.773
vn 0.176 -0.633 -0.754
vn 0.291 -0.512 -0.808
vn 0.403 -0.488 -0.774
vn 0.293 -0.351 -0.889
vn 0.291 -0.851 -0.438
vn 0.393 -0.446 -0.804
vn 0.314 -0.341 -0.886
vn 0.756 -0.171 -0.632
vn -0.571 -0.004 -0.821
vn -0.375 -0.207 -0.904
vn -0.159 -0.221 -0.962
vn -0.173 -0.240 -0.955
vn -0.023 -0.532 -0.846
vn 0.031 -0.197 -0.980
vn 0.062 -0.238 -0.969
vn 0.176 -0.179 -0.968
vn -0.997 -0.054 -0.058
vn 0.622 -0.124 0.773
vn -0.694 0.073 -0.716
vn -0.731 0.075 -0.678
vn -0.727 0.071 -0.683
vn -0.697 0.068 -0.713
vn 0.712 -0.129 0.691
vn 0.704 -0.095 0.704
vn 0.681 -0.090 0.726
vn -0.680 0.046 -0.731
vn 0.792 -0.205 0.575
vn 0.771 -0.285 0.570
vn -0.680 0.063 -0.730
vn -0.584 -0.045 -0.811
vn 0.701 -0.097 0.706
vn 0.725 -0.112 0.680
vn 0.735 -0.101 0.670
vn 0.833 -0.123 0.540
vn -0.569 0.235 0.788
vn -0.007 0.200 0.980
vn -0.876 0.063 0.479
vn -0.563 0.331 0.757
vn -0.559 0.329 0.761
vn -0.341 0.387 0.857
vn -0.532 0.555 0.639
vn 0.057 0.426 0.903
vn 0.307 0.402 0.863
vn 0.137 0.225 0.965
vn 0.510 -0.007 0.860
vn 0.417 0.144 0.898
vn 0.707 -0.002 0.707
vn 0.736 0.170 0.655
vn -0.884 0.252 0.394
vn -0.936 0.118 0.332
vn -0.961 0.086 0.262
vn -0.563 0.311 0.766
vn 0.804 0.420 0.420
vn 0.836 0.348 0.423
vn 0.898 0.303 0.319
vn 0.638 0.467 0.612
vn -0.939 0.159 -0.305
vn -0.980 0.005 -0.200
vn 0.495 -0.030 -0.869
vn 0.806 0.571 -0.153
vn 0.752 0.281 -0.597
vn 0.599 0.594 -0.537
vn 0.693 0.278 -0.665
vn 0.661 0.585 -0.470
vn -0.672 0.004 -0.741
vn -0.577 -0.078 -0.813
vn -0.245 0.018 -0.969
vn -0.289 0.042 -0.956
vn 0.139 0.045 -0.989
vn -0.004 0.156 -0.988
vn 0.322 0.024 -0.946
vn 0.308 0.254 -0.917
vn 0.397 0.209 -0.894
vn 0.609 0.427 -0.668
vn -0.775 0.101 -0.624
vn 0.030 -0.087 0.996
vn -0.692 0.132 -0.710
vn -0.700 0.096 -0.708
vn -0.722 0.084 -0.687
vn -0.703 0.097 -0.705
vn 0.709 -0.071 0.702
vn 0.671 -0.084 0.736
vn 0.676 -0.079 0.733
vn 0.720 -0.040 0.693
vn -0.585 0.238 -0.775
vn -0.592 0.315 -0.742
vn -0.667 0.111 -0.736
vn -0.678 0.119 -0.725
vn 0.706 -0.067 0.705
vn 0.722 -0.058 0.689
vn 0.787 0.074 0.613
vn -0.541 0.166 -0.824
vn -0.334 0.395 0.856
vn 0.050 0.460 0.887
vn 0.050 0.460 0.887
vn 0.458 0.274 0.845
vn 0.231 0.500 0.835
vn 0.630 0.289 0.720
vn -0.884 0.245 0.397
vn -0.510 0.532 0.676
vn -0.429 0.479 0.766
vn -0.268 0.530 0.804
vn -0.367 0.577 0.729
vn 0.008 0.637 0.771
vn 0.027 0.652 0.758
vn 0.528 0.744 0.411
vn 0.411 0.587 0.698
vn 0.329 0.700 0.634
vn 0.757 0.577 0.306
vn 0.617 0.578 0.534
vn -0.729 0.649 0.218
vn -0.945 0.299 0.132
vn -0.971 0.236 -0.039
vn -0.476 0.639 0.604
vn 0.731 0.667 0.142
vn 0.655 0.730 -0.196
vn 0.829 0.538 -0.153
vn 0.743 0.653 0.143
vn -0.842 0.391 -0.371
vn -0.647 0.159 -0.745
vn -0.274 0.266 -0.924
vn -0.312 0.291 -0.905
vn 0.049 0.420 -0.906
vn 0.054 0.415 -0.908
vn 0.666 0.510 -0.544
vn 0.393 0.524 -0.756
vn 0.348 0.453 -0.821
vn 0.632 0.557 -0.539
vn -0.771 0.093 -0.630
vn -0.687 0.128 -0.716
vn 0.667 -0.079 0.741
vn 0.702 -0.019 0.712
vn -0.182 0.769 0.612
vn -0.001 0.742 0.670
vn -0.142 0.785 0.604
vn 0.374 0.847 0.379
vn -0.615 0.785 -0.075
vn -0.204 0.777 0.595
vn -0.205 0.970 0.132
vn -0.103 0.995 0.015
vn 0.040 0.994 0.104
vn 0.011 0.999 0.032
vn 0.468 0.861 -0.199
vn 0.331 0.940 0.078
vn -0.633 0.731 -0.253
vn -0.291 0.695 -0.657
vn -0.173 0.759 -0.627
vn 0.071 0.626 -0.776
vn 0.269 0.754 -0.599
vn 0.290 0.747 -0.598
vn -0.513 0.634 0.579
vn 0.239 0.970 -0.042
vn -0.456 0.819 0.348
vn 0.524 0.730 -0.438
vn 0.039 0.924 0.380
vn 0.229 0.856 0.463
vn 0.648 0.332 -0.685
vn 0.066 0.983 0.173
vn 0.504 0.856 -0.115
vn 0.679 0.524 -0.514
vn -0.223 0.067 0.973
vn 0.019 0.985 0.170
vn -0.478 -0.791 0.382
vn -0.347 -0.862 -0.369
vn -0.243 -0.954 -0.175
vn -0.955 -0.234 0.182
vn 0.209 -0.893 -0.399
vn -0.222 -0.925 0.310
vn 0.730 -0.151 -0.667
vn -0.017 -0.977 -0.215
vn 0.269 -0.726 -0.633
vn -0.015 -0.985 -0.170
vn 0.548 -0.564 -0.619
vn 0.588 -0.359 -0.725

# Facets
f 1//1 3//1 2//1
f 4//2 2//2 3//2
f 5//3 3//3 1//3
f 5//4 4//4 3//4
f 1//5 2//5 6//5
f 6//6 2//6 4//6
f 5//7 1//7 6//7
f 6//8 4//8 5//8
f 7//9 9//9 8//9
f 10//10 8//10 9//10
f 11//11 9//11 7//11
f 11//12 10//12 9//12
f 12//13 8//13 13//13
f 12//14 7//14 8//14
f 10//15 13//15 8//15
f 10//16 14//16 13//16
f 15//17 17//17 16//17
f 18//18 11//18 17//18
f 17//19 11//19 12//19
f 12//20 11//20 7//20
f 12//21 16//21 17//21
f 10//22 19//22 14//22
f 18//23 19//23 10//23
f 20//24 19//24 18//24
f 11//25 18//25 10//25
f 21//26 19//26 20//26
f 15//27 22//27 17//27
f 15//28 23//28 22//28
f 24//29 18//29 17//29
f 22//30 24//30 17//30
f 25//31 20//31 18//31
f 24//32 25//32 18//32
f 20//33 26//33 21//33
f 27//34 26//34 20//34
f 25//35 27//35 20//35
f 28//36 26//36 27//36
f 29//37 22//37 23//37
f 30//38 29//38 31//38
f 22//39 29//39 30//39
f 24//40 22//40 30//40
f 25//41 33//41 32//41
f 30//42 33//42 25//42
f 24//43 30//43 25//43
f 32//44 27//44 25//44
f 32//45 34//45 27//45
f 34//46 28//46 27//46
f 35//47 30//47 31//47
f 35//48 33//48 30//48
f 36//49 38//49 37//49
f 37//50 39//50 36//50
f 36//51 40//51 38//51
f 39//52 40//52 36//52
f 41//53 13//53 42//53
f 41//54 12//54 13//54
f 14//55 42//55 13//55
f 14//56 43//56 42//56
f 44//57 16//57 45//57
f 44//58 15//58 16//58
f 12//59 41//59 16//59
f 41//60 45//60 16//60
f 43//61 14//61 46//61
f 14//62 19//62 46//62
f 47//63 21//63 48//63
f 19//64 21//64 47//64
f 46//65 19//65 47//65
f 49//66 47//66 48//66
f 23//67 15//67 44//67
f 23//68 44//68 50//68
f 48//69 21//69 26//69
f 51//70 28//70 52//70
f 51//71 26//71 28//71
f 49//72 26//72 51//72
f 48//73 26//73 49//73
f 53//74 51//74 52//74
f 23//75 54//75 29//75
f 55//76 54//76 23//76
f 50//77 55//77 23//77
f 31//78 29//78 54//78
f 56//79 32//79 33//79
f 56//80 57//80 32//80
f 32//81 57//81 58//81
f 32//82 58//82 34//82
f 34//83 52//83 28//83
f 59//84 52//84 34//84
f 58//85 59//85 34//85
f 59//86 53//86 52//86
f 60//87 54//87 55//87
f 60//88 31//88 54//88
f 35//89 31//89 60//89
f 61//90 35//90 60//90
f 35//91 56//91 33//91
f 62//92 56//92 35//92
f 61//93 62//93 35//93
f 62//94 57//94 56//94
f 37//95 64//95 63//95
f 38//96 64//96 37//96
f 39//97 66//97 65//97
f 39//98 37//98 66//98
f 37//99 63//99 66//99
f 66//100 67//100 65//100
f 68//101 38//101 40//101
f 68//102 69//102 38//102
f 69//103 64//103 38//103
f 40//104 39//104 65//104
f 40//105 65//105 68//105
f 68//106 65//106 70//106
f 71//107 65//107 67//107
f 70//108 65//108 71//108
f 68//109 72//109 69//109
f 70//110 72//110 68//110
f 73//111 72//111 70//111
f 71//112 73//112 70//112
f 41//113 42//113 74//113
f 74//114 42//114 43//114
f 44//115 45//115 75//115
f 75//116 45//116 76//116
f 45//117 41//117 76//117
f 76//118 41//118 77//118
f 77//119 41//119 74//119
f 74//120 43//120 77//120
f 77//121 43//121 46//121
f 77//122 46//122 78//122
f 46//123 47//123 79//123
f 78//124 46//124 79//124
f 49//125 79//125 47//125
f 49//126 80//126 79//126
f 81//127 75//127 82//127
f 44//128 75//128 81//128
f 50//129 44//129 81//129
f 75//130 76//130 82//130
f 51//131 83//131 49//131
f 49//132 83//132 84//132
f 49//133 84//133 80//133
f 83//134 51//134 53//134
f 55//135 50//135 81//135
f 55//136 81//136 85//136
f 86//137 58//137 57//137
f 84//138 83//138 87//138
f 87//139 83//139 58//139
f 58//140 83//140 59//140
f 58//141 86//141 87//141
f 83//142 53//142 59//142
f 88//143 55//143 85//143
f 88//144 60//144 55//144
f 89//145 61//145 60//145
f 89//146 60//146 88//146
f 90//147 62//147 61//147
f 90//148 61//148 89//148
f 62//149 86//149 57//149
f 91//150 86//150 62//150
f 90//151 91//151 62//151
f 91//152 87//152 86//152
f 63//153 93//153 92//153
f 64//154 93//154 63//154
f 94//155 92//155 95//155
f 94//156 66//156 92//156
f 66//157 63//157 92//157
f 66//158 94//158 67//158
f 96//159 69//159 97//159
f 96//160 93//160 69//160
f 93//161 64//161 69//161
f 95//162 96//162 97//162
f 95//163 97//163 94//163
f 94//164 97//164 98//164
f 67//165 98//165 71//165
f 94//166 98//166 67//166
f 69//167 72//167 97//167
f 73//168 97//168 72//168
f 98//169 97//169 73//169
f 71//170 98//170 73//170
f 76//171 77//171 99//171
f 100//172 77//172 78//172
f 100//173 99//173 77//173
f 101//174 78//174 79//174
f 101//175 100//175 78//175
f 101//176 79//176 80//176
f 81//177 82//177 102//177
f 102//178 82//178 103//178
f 82//179 76//179 103//179
f 103//180 76//180 104//180
f 104//181 76//181 99//181
f 99//182 100//182 104//182
f 100//183 105//183 104//183
f 106//184 105//184 107//184
f 107//185 105//185 100//185
f 107//186 100//186 101//186
f 107//187 80//187 84//187
f 107//188 101//188 80//188
f 108//189 102//189 109//189
f 81//190 102//190 108//190
f 85//191 81//191 108//191
f 102//192 103//192 109//192
f 107//193 110//193 106//193
f 110//194 111//194 106//194
f 110//195 84//195 87//195
f 110//196 107//196 84//196
f 112//197 85//197 108//197
f 112//198 88//198 85//198
f 113//199 89//199 88//199
f 113//200 88//200 112//200
f 114//201 90//201 89//201
f 114//202 89//202 113//202
f 91//203 111//203 110//203
f 114//204 111//204 91//204
f 90//205 114//205 91//205
f 110//206 87//206 91//206
f 92//207 93//207 115//207
f 92//208 115//208 95//208
f 93//209 96//209 115//209
f 95//210 115//210 96//210
f 103//211 104//211 116//211
f 117//212 104//212 105//212
f 117//213 116//213 104//213
f 117//214 105//214 106//214
f 108//215 109//215 118//215
f 116//216 109//216 103//216
f 118//217 109//217 116//217
f 119//218 118//218 116//218
f 116//219 117//219 120//219
f 116//220 120//220 119//220
f 120//221 106//221 111//221
f 120//222 117//222 106//222
f 112//223 108//223 118//223
f 118//224 113//224 112//224
f 118//225 119//225 113//225
f 119//226 114//226 113//226
f 119//227 120//227 114//227
f 120//228 111//228 114//228
f 121//229 123//229 122//229
f 124//230 123//230 125//230
f 124//231 122//231 123//231
f 126//232 124//232 125//232
f 121//233 127//233 123//233
f 121//234 128//234 127//234
f 125//235 130//235 129//235
f 127//236 130//236 125//236
f 123//237 127//237 125//237
f 129//238 126//238 125//238
f 131//239 127//239 128//239
f 131//240 130//240 127//240
f 121//241 122//241 132//241
f 133//242 122//242 124//242
f 133//243 132//243 122//243
f 133//244 124//244 126//244
f 128//245 132//245 134//245
f 128//246 121//246 132//246
f 134//247 129//247 130//247
f 133//248 129//248 134//248
f 132//249 133//249 134//249
f 133//250 126//250 129//250
f 131//251 128//251 134//251
f 134//252 130//252 131//252

# Thankyou for using Spin3D

