# Created using Spin3D

# Vertex Array
v 5.734 -36.075 29.445
v 5.735 -36.075 29.446
v 5.735 -36.076 29.445
v 5.736 -36.075 29.445
v 5.735 -36.075 29.444
v 5.735 -36.074 29.445
v 2.279 -26.956 60.900
v 2.564 -26.701 61.096
v 2.563 -27.067 60.975
v 3.426 -26.388 60.738
v 2.541 -26.656 60.217
v 2.086 -25.844 60.365
v 3.144 -25.458 61.225
v 4.268 -25.554 61.226
v 0.601 -24.162 57.276
v 1.076 -24.097 58.832
v 1.842 -25.560 58.447
v 3.936 -25.877 58.732
v 5.512 -25.107 60.077
v 6.578 -24.944 57.967
v 7.483 -24.282 58.814
v 1.307 -24.632 56.261
v 0.219 -22.984 55.605
v 2.870 -25.361 56.875
v 5.193 -24.850 56.181
v 8.641 -23.871 57.454
v 7.922 -24.280 56.256
v 9.480 -23.772 56.216
v 1.094 -23.693 54.827
v 2.829 -24.222 54.958
v 1.799 -22.927 53.926
v 7.139 -23.543 54.726
v 4.931 -23.767 54.382
v 9.194 -23.500 55.398
v 3.682 -22.386 53.476
v 6.318 -17.737 28.254
v 6.422 -17.705 28.474
v 6.655 -17.979 28.153
v 6.888 -17.894 28.211
v 6.729 -17.951 27.960
v 6.662 -17.708 27.931
v 7.030 -17.952 27.960
v 7.042 -17.751 27.812
v 2.411 -23.352 60.281
v 3.546 -24.034 61.362
v 4.338 -24.663 61.483
v 4.963 -24.985 61.195
v 5.552 -23.907 60.844
v 0.129 -22.293 57.108
v 0.976 -22.144 58.634
v 7.303 -23.239 59.473
v 8.342 -23.496 58.486
v 8.848 -22.260 57.749
v -0.187 -21.538 55.693
v 9.859 -23.123 56.462
v 10.129 -23.361 55.784
v 10.269 -22.939 55.820
v 0.730 -22.429 54.228
v 0.267 -20.809 54.447
v 5.771 -22.704 53.651
v 7.106 -22.170 53.784
v 8.671 -22.292 54.694
v 9.939 -22.913 55.415
v 1.761 -20.899 53.311
v 3.581 -20.241 52.815
v 5.579 -20.939 53.187
v 5.758 -17.376 28.767
v 6.038 -17.333 28.746
v 5.953 -17.540 28.626
v 6.566 -17.357 28.626
v 6.953 -17.570 28.391
v 7.256 -17.706 28.090
v 7.316 -17.353 28.248
v 5.967 -17.333 28.555
v 6.436 -17.364 28.125
v 7.324 -17.690 27.865
v 7.461 -17.349 27.999
v 6.912 -17.364 27.861
v 7.314 -17.355 27.828
v 3.568 -23.011 61.047
v 4.540 -23.155 61.132
v 0.509 -20.637 57.540
v 2.067 -20.112 58.555
v 3.974 -21.389 60.110
v 6.112 -21.762 60.000
v 7.787 -21.512 58.999
v 8.182 -20.503 58.024
v 0.093 -19.764 55.812
v 0.755 -19.107 57.015
v 9.560 -22.058 55.890
v 8.518 -20.347 56.575
v 0.429 -18.750 54.171
v 7.418 -20.967 53.857
v 8.251 -20.479 54.917
v 1.058 -19.055 53.360
v 2.594 -18.100 52.718
v 4.502 -18.969 52.869
v 6.312 -19.067 53.791
v 5.799 -17.261 28.774
v 6.122 -17.066 28.653
v 6.536 -17.022 28.642
v 7.009 -17.146 28.481
v 7.337 -17.006 28.226
v 6.735 -17.031 28.032
v 6.395 -16.991 28.333
v 6.830 -16.800 28.162
v 7.401 -17.021 27.988
v 7.126 -16.977 27.945
v 3.770 -19.511 58.988
v 5.431 -19.418 58.795
v 7.155 -20.241 58.826
v 0.690 -18.007 55.949
v 1.740 -17.824 56.748
v 3.673 -17.968 57.577
v 5.439 -17.749 57.267
v 5.862 -17.305 55.878
v 7.075 -18.923 57.350
v 0.743 -17.564 54.687
v 1.404 -16.900 55.370
v 7.216 -18.686 55.435
v 5.723 -17.404 54.458
v 1.387 -17.176 53.276
v 2.055 -15.926 52.887
v 2.157 -16.357 52.526
v 2.813 -16.332 52.577
v 4.201 -17.155 53.235
v 2.416 -15.766 52.537
v 6.660 -16.802 28.436
v 6.991 -16.842 28.434
v 7.137 -16.785 28.186
v 2.849 -16.464 55.524
v 4.475 -16.788 56.200
v 1.915 -16.184 54.040
v 2.930 -15.815 54.227
v 4.194 -16.312 54.582
v 2.900 -15.850 53.234
v 4.136 -8.194 45.132
v 4.132 -8.194 45.127
v 4.134 -8.193 45.129
v 4.132 -8.192 45.125
v 4.133 -8.193 45.126
v 4.131 -8.193 45.123
v 4.136 -8.194 45.131
v 4.139 -8.195 45.132
v 4.135 -8.194 45.127
v 4.137 -8.193 45.129
v 4.140 -8.194 45.132
v 4.135 -8.195 45.129
v 4.132 -8.194 45.127
v 4.138 -8.194 45.130

# Normal Array
vn -0.590 -0.655 0.472
vn 0.584 -0.663 0.469
vn -0.588 -0.464 -0.662
vn 0.585 -0.477 -0.656
vn -0.586 0.476 0.655
vn 0.590 0.464 0.661
vn -0.585 0.662 -0.469
vn 0.591 0.654 -0.471
vn -0.349 -0.294 0.890
vn 0.453 -0.280 0.847
vn -0.216 -0.861 -0.460
vn 0.483 -0.764 -0.428
vn -0.663 0.236 0.710
vn -0.679 0.219 0.701
vn 0.456 -0.300 0.838
vn -0.041 -0.473 0.880
vn -0.821 -0.502 0.272
vn -0.061 -0.859 -0.508
vn -0.869 -0.493 0.037
vn -0.805 -0.365 -0.468
vn -0.881 -0.472 0.042
vn 0.568 -0.759 0.319
vn 0.500 -0.861 -0.092
vn 0.359 -0.927 0.110
vn 0.363 -0.921 -0.142
vn 0.472 -0.865 0.172
vn -0.680 -0.720 -0.139
vn -0.759 -0.601 -0.250
vn -0.120 -0.972 -0.201
vn -0.299 -0.903 -0.310
vn 0.257 -0.934 -0.249
vn 0.110 -0.940 -0.324
vn 0.486 -0.860 0.154
vn 0.466 -0.885 0.022
vn 0.205 -0.956 -0.210
vn 0.310 -0.941 0.135
vn -0.743 -0.605 -0.286
vn -0.157 -0.689 -0.708
vn -0.215 -0.831 -0.513
vn -0.198 -0.844 -0.498
vn 0.166 -0.834 -0.526
vn 0.042 -0.853 -0.519
vn 0.036 -0.859 -0.511
vn 0.190 -0.843 -0.503
vn 0.181 -0.847 -0.500
vn 0.276 -0.879 -0.389
vn -0.006 -0.626 -0.779
vn -0.088 -0.601 -0.795
vn -0.480 -0.808 0.340
vn 0.093 -0.724 0.684
vn -0.614 -0.712 -0.341
vn -0.648 -0.265 -0.714
vn 0.244 -0.905 0.348
vn -0.004 -0.989 -0.146
vn -0.314 -0.199 -0.929
vn -0.002 -0.593 -0.805
vn -0.649 0.111 0.752
vn -0.651 0.110 0.751
vn 0.275 -0.287 0.918
vn -0.025 -0.276 0.961
vn -0.184 -0.042 0.982
vn 0.440 0.052 0.896
vn -0.875 0.004 0.484
vn -0.933 -0.209 0.294
vn -0.760 0.121 0.638
vn -0.743 0.029 0.669
vn 0.598 -0.710 0.371
vn 0.597 -0.352 0.721
vn 0.605 -0.348 0.716
vn 0.653 -0.423 0.628
vn 0.839 -0.313 0.446
vn 0.700 0.133 0.702
vn -0.969 -0.240 0.053
vn -0.960 -0.273 0.068
vn 0.695 -0.587 0.415
vn 0.673 -0.571 0.469
vn 0.700 -0.571 0.428
vn 0.693 -0.215 0.688
vn 0.926 -0.180 0.333
vn 0.838 -0.315 0.445
vn -0.769 -0.441 -0.463
vn -0.890 -0.199 -0.410
vn -0.870 -0.217 -0.444
vn -0.439 -0.485 -0.756
vn 0.181 -0.650 -0.738
vn 0.293 -0.536 -0.792
vn 0.402 -0.511 -0.760
vn 0.295 -0.383 -0.876
vn 0.291 -0.873 -0.392
vn 0.395 -0.479 -0.784
vn 0.314 -0.373 -0.873
vn 0.755 -0.196 -0.626
vn -0.607 -0.066 -0.792
vn -0.378 -0.275 -0.884
vn -0.143 -0.290 -0.946
vn -0.149 -0.298 -0.943
vn -0.015 -0.558 -0.830
vn 0.043 -0.250 -0.967
vn 0.076 -0.291 -0.954
vn 0.187 -0.231 -0.955
vn 0.149 -0.540 0.829
vn -0.249 -0.936 0.249
vn 0.088 -0.525 0.846
vn 0.178 -0.453 0.874
vn 0.489 -0.497 0.717
vn 0.258 -0.508 0.821
vn 0.252 -0.471 0.845
vn 0.539 -0.418 0.731
vn -0.680 -0.197 -0.706
vn -0.747 -0.171 -0.642
vn -0.677 -0.041 -0.735
vn -0.682 -0.038 -0.730
vn 0.684 -0.712 0.156
vn 0.519 -0.720 0.460
vn 0.813 -0.347 0.468
vn 0.868 -0.439 0.231
vn -0.477 0.172 -0.862
vn -0.297 0.023 -0.955
vn 0.272 -0.582 -0.767
vn 0.207 -0.101 -0.973
vn -0.083 0.099 -0.992
vn 0.758 -0.050 -0.650
vn -0.584 0.251 0.772
vn 0.028 0.223 0.974
vn -0.040 0.295 0.955
vn 0.380 0.161 0.911
vn -0.875 0.076 0.478
vn -0.591 0.346 0.728
vn -0.573 0.337 0.747
vn -0.407 0.395 0.824
vn -0.574 0.512 0.639
vn -0.002 0.500 0.866
vn 0.136 0.528 0.838
vn 0.423 0.234 0.875
vn 0.567 0.169 0.806
vn 0.500 0.096 0.861
vn 0.753 -0.031 0.657
vn 0.805 0.218 0.552
vn -0.899 0.265 0.350
vn -0.945 0.139 0.297
vn -0.950 0.131 0.282
vn -0.591 0.345 0.729
vn 0.828 0.427 0.363
vn 0.852 0.372 0.367
vn 0.919 0.309 0.246
vn 0.664 0.490 0.565
vn -0.954 0.167 -0.250
vn -0.984 0.055 -0.167
vn 0.497 -0.076 -0.864
vn 0.808 0.562 -0.175
vn 0.753 0.249 -0.609
vn 0.599 0.575 -0.558
vn 0.704 0.245 -0.667
vn 0.656 0.567 -0.498
vn -0.794 -0.019 -0.608
vn -0.600 -0.208 -0.772
vn -0.212 -0.141 -0.967
vn -0.329 -0.101 -0.939
vn 0.158 -0.072 -0.985
vn 0.074 -0.011 -0.997
vn 0.342 -0.031 -0.939
vn 0.340 0.166 -0.926
vn 0.456 0.107 -0.884
vn 0.649 0.354 -0.674
vn 0.090 -0.085 0.992
vn 0.191 0.270 0.944
vn -0.011 0.334 0.943
vn 0.220 -0.026 0.975
vn 0.404 -0.240 0.883
vn 0.318 -0.016 0.948
vn 0.478 -0.241 0.845
vn 0.609 0.012 0.793
vn -0.713 0.288 -0.639
vn -0.601 0.339 -0.723
vn -0.627 0.327 -0.707
vn -0.687 0.568 -0.454
vn -0.564 0.554 -0.612
vn -0.505 0.572 -0.646
vn 0.864 -0.022 0.502
vn 0.953 0.181 0.244
vn -0.475 0.188 -0.860
vn -0.253 0.551 -0.795
vn -0.248 0.334 -0.909
vn -0.085 0.255 -0.963
vn 0.751 0.116 -0.650
vn 0.202 0.379 -0.903
vn -0.365 0.448 0.816
vn 0.129 0.482 0.866
vn 0.070 0.517 0.853
vn 0.446 0.335 0.830
vn 0.222 0.496 0.840
vn 0.625 0.402 0.669
vn -0.898 0.278 0.342
vn -0.562 0.558 0.611
vn -0.464 0.508 0.726
vn -0.289 0.568 0.771
vn -0.390 0.608 0.692
vn 0.047 0.676 0.736
vn 0.046 0.675 0.737
vn 0.521 0.754 0.400
vn 0.408 0.616 0.674
vn 0.330 0.713 0.619
vn 0.744 0.624 0.239
vn 0.572 0.627 0.529
vn -0.782 0.597 0.177
vn -0.946 0.316 0.071
vn -0.963 0.268 -0.031
vn -0.534 0.636 0.557
vn 0.729 0.671 0.137
vn 0.690 0.714 -0.118
vn 0.830 0.530 -0.175
vn 0.732 0.668 0.136
vn -0.881 0.365 -0.302
vn -0.766 0.106 -0.634
vn -0.801 0.261 -0.538
vn -0.545 -0.226 -0.807
vn -0.400 0.029 -0.916
vn 0.081 -0.089 -0.993
vn 0.367 -0.119 -0.923
vn 0.177 0.223 -0.959
vn 0.728 0.461 -0.507
vn 0.598 0.472 -0.648
vn 0.450 0.248 -0.858
vn 0.680 0.537 -0.498
vn -0.728 0.330 -0.600
vn 0.078 -0.015 -0.997
vn -0.057 0.701 0.711
vn 0.356 0.163 0.920
vn 0.084 0.657 0.749
vn 0.561 0.158 0.812
vn -0.503 0.832 -0.234
vn -0.478 0.828 -0.291
vn -0.047 0.999 -0.021
vn 0.117 0.951 0.288
vn 0.718 0.680 0.150
vn 0.595 0.632 0.497
vn 0.011 0.782 -0.623
vn 0.217 0.759 -0.614
vn -0.216 0.745 0.632
vn 0.022 0.753 0.658
vn -0.099 0.784 0.613
vn 0.399 0.831 0.387
vn -0.743 0.665 0.073
vn -0.291 0.760 0.581
vn -0.304 0.883 0.358
vn -0.378 0.837 0.396
vn 0.080 0.960 0.269
vn 0.216 0.867 0.448
vn 0.571 0.813 -0.113
vn 0.382 0.902 0.199
vn -0.791 0.577 -0.202
vn -0.882 0.471 -0.001
vn -0.168 0.966 0.196
vn -0.339 0.941 -0.023
vn 0.604 0.602 -0.522
vn 0.649 0.646 -0.401
vn 0.377 0.925 -0.044
vn 0.491 0.740 -0.460
vn -0.186 0.952 0.244
vn 0.743 0.488 -0.458
vn -0.513 0.634 0.579
vn 0.239 0.970 -0.042
vn -0.456 0.819 0.348
vn 0.524 0.730 -0.438
vn 0.039 0.924 0.380
vn 0.229 0.856 0.463
vn 0.648 0.332 -0.685
vn 0.066 0.983 0.173
vn 0.504 0.856 -0.115
vn 0.679 0.524 -0.514
vn -0.223 0.067 0.973
vn 0.019 0.985 0.170
vn -0.478 -0.791 0.382
vn -0.347 -0.862 -0.369
vn -0.243 -0.954 -0.175
vn -0.955 -0.234 0.182
vn 0.209 -0.893 -0.399
vn -0.222 -0.925 0.310
vn 0.730 -0.151 -0.667
vn -0.017 -0.977 -0.215
vn 0.269 -0.726 -0.633
vn -0.015 -0.985 -0.170
vn 0.548 -0.564 -0.619
vn 0.588 -0.359 -0.725

# Facets
f 1//1 3//1 2//1
f 4//2 2//2 3//2
f 5//3 3//3 1//3
f 5//4 4//4 3//4
f 1//5 2//5 6//5
f 6//6 2//6 4//6
f 5//7 1//7 6//7
f 6//8 4//8 5//8
f 7//9 9//9 8//9
f 10//10 8//10 9//10
f 11//11 9//11 7//11
f 11//12 10//12 9//12
f 12//13 8//13 13//13
f 12//14 7//14 8//14
f 10//15 13//15 8//15
f 10//16 14//16 13//16
f 15//17 17//17 16//17
f 18//18 11//18 17//18
f 17//19 11//19 12//19
f 12//20 11//20 7//20
f 12//21 16//21 17//21
f 10//22 19//22 14//22
f 18//23 19//23 10//23
f 20//24 19//24 18//24
f 11//25 18//25 10//25
f 21//26 19//26 20//26
f 15//27 22//27 17//27
f 15//28 23//28 22//28
f 24//29 18//29 17//29
f 22//30 24//30 17//30
f 25//31 20//31 18//31
f 24//32 25//32 18//32
f 20//33 26//33 21//33
f 27//34 26//34 20//34
f 25//35 27//35 20//35
f 28//36 26//36 27//36
f 29//37 22//37 23//37
f 30//38 29//38 31//38
f 22//39 29//39 30//39
f 24//40 22//40 30//40
f 25//41 33//41 32//41
f 30//42 33//42 25//42
f 24//43 30//43 25//43
f 32//44 27//44 25//44
f 32//45 34//45 27//45
f 34//46 28//46 27//46
f 35//47 30//47 31//47
f 35//48 33//48 30//48
f 36//49 38//49 37//49
f 39//50 37//50 38//50
f 36//51 40//51 38//51
f 36//52 41//52 40//52
f 38//53 42//53 39//53
f 38//54 40//54 42//54
f 43//55 40//55 41//55
f 43//56 42//56 40//56
f 44//57 13//57 45//57
f 44//58 12//58 13//58
f 46//59 14//59 47//59
f 13//60 14//60 46//60
f 45//61 13//61 46//61
f 48//62 46//62 47//62
f 49//63 16//63 50//63
f 49//64 15//64 16//64
f 12//65 44//65 16//65
f 44//66 50//66 16//66
f 47//67 14//67 19//67
f 51//68 21//68 52//68
f 51//69 19//69 21//69
f 48//70 19//70 51//70
f 47//71 19//71 48//71
f 53//72 51//72 52//72
f 23//73 15//73 49//73
f 23//74 49//74 54//74
f 52//75 21//75 26//75
f 55//76 28//76 56//76
f 55//77 26//77 28//77
f 53//78 26//78 55//78
f 52//79 26//79 53//79
f 57//80 55//80 56//80
f 23//81 58//81 29//81
f 59//82 58//82 23//82
f 54//83 59//83 23//83
f 31//84 29//84 58//84
f 60//85 32//85 33//85
f 60//86 61//86 32//86
f 32//87 61//87 62//87
f 32//88 62//88 34//88
f 34//89 56//89 28//89
f 63//90 56//90 34//90
f 62//91 63//91 34//91
f 63//92 57//92 56//92
f 64//93 58//93 59//93
f 64//94 31//94 58//94
f 35//95 31//95 64//95
f 65//96 35//96 64//96
f 35//97 60//97 33//97
f 66//98 60//98 35//98
f 65//99 66//99 35//99
f 66//100 61//100 60//100
f 67//101 69//101 68//101
f 37//102 69//102 36//102
f 68//103 69//103 37//103
f 70//104 68//104 37//104
f 71//105 39//105 72//105
f 37//106 39//106 71//106
f 70//107 37//107 71//107
f 73//108 71//108 72//108
f 74//109 69//109 67//109
f 69//110 74//110 36//110
f 36//111 74//111 75//111
f 36//112 75//112 41//112
f 76//113 72//113 42//113
f 72//114 39//114 42//114
f 72//115 77//115 73//115
f 72//116 76//116 77//116
f 78//117 41//117 75//117
f 78//118 43//118 41//118
f 43//119 76//119 42//119
f 79//120 76//120 43//120
f 78//121 79//121 43//121
f 79//122 77//122 76//122
f 44//123 45//123 80//123
f 81//124 45//124 46//124
f 81//125 80//125 45//125
f 81//126 46//126 48//126
f 49//127 50//127 82//127
f 82//128 50//128 83//128
f 50//129 44//129 83//129
f 83//130 44//130 84//130
f 84//131 44//131 80//131
f 80//132 81//132 84//132
f 81//133 85//133 84//133
f 81//134 48//134 85//134
f 85//135 48//135 51//135
f 85//136 51//136 86//136
f 53//137 86//137 51//137
f 53//138 87//138 86//138
f 88//139 82//139 89//139
f 49//140 82//140 88//140
f 54//141 49//141 88//141
f 82//142 83//142 89//142
f 55//143 90//143 53//143
f 53//144 90//144 91//144
f 53//145 91//145 87//145
f 90//146 55//146 57//146
f 59//147 54//147 88//147
f 59//148 88//148 92//148
f 93//149 62//149 61//149
f 91//150 90//150 94//150
f 94//151 90//151 62//151
f 62//152 90//152 63//152
f 62//153 93//153 94//153
f 90//154 57//154 63//154
f 95//155 59//155 92//155
f 95//156 64//156 59//156
f 96//157 65//157 64//157
f 96//158 64//158 95//158
f 97//159 66//159 65//159
f 97//160 65//160 96//160
f 66//161 93//161 61//161
f 98//162 93//162 66//162
f 97//163 98//163 66//163
f 98//164 94//164 93//164
f 67//165 68//165 99//165
f 68//166 100//166 99//166
f 101//167 100//167 68//167
f 70//168 101//168 68//168
f 70//169 71//169 102//169
f 101//170 70//170 102//170
f 73//171 102//171 71//171
f 73//172 103//172 102//172
f 74//173 67//173 99//173
f 104//174 75//174 105//174
f 75//175 74//175 105//175
f 105//176 74//176 100//176
f 100//177 74//177 99//177
f 104//178 105//178 106//178
f 103//179 73//179 77//179
f 107//180 103//180 77//180
f 78//181 75//181 104//181
f 108//182 104//182 106//182
f 78//183 104//183 108//183
f 79//184 78//184 108//184
f 79//185 107//185 77//185
f 79//186 108//186 107//186
f 83//187 84//187 109//187
f 110//188 84//188 85//188
f 110//189 109//189 84//189
f 111//190 85//190 86//190
f 111//191 110//191 85//191
f 111//192 86//192 87//192
f 88//193 89//193 112//193
f 112//194 89//194 113//194
f 89//195 83//195 113//195
f 113//196 83//196 114//196
f 114//197 83//197 109//197
f 109//198 110//198 114//198
f 110//199 115//199 114//199
f 116//200 115//200 117//200
f 117//201 115//201 110//201
f 117//202 110//202 111//202
f 117//203 87//203 91//203
f 117//204 111//204 87//204
f 118//205 112//205 119//205
f 88//206 112//206 118//206
f 92//207 88//207 118//207
f 112//208 113//208 119//208
f 117//209 120//209 116//209
f 120//210 121//210 116//210
f 120//211 91//211 94//211
f 120//212 117//212 91//212
f 122//213 92//213 118//213
f 122//214 95//214 92//214
f 123//215 124//215 122//215
f 122//216 124//216 96//216
f 122//217 96//217 95//217
f 124//218 125//218 96//218
f 96//219 125//219 126//219
f 96//220 126//220 97//220
f 98//221 121//221 120//221
f 126//222 121//222 98//222
f 97//223 126//223 98//223
f 120//224 94//224 98//224
f 127//225 124//225 123//225
f 127//226 125//226 124//226
f 100//227 101//227 128//227
f 129//228 101//228 102//228
f 129//229 128//229 101//229
f 129//230 102//230 103//230
f 105//231 100//231 128//231
f 128//232 106//232 105//232
f 130//233 106//233 128//233
f 129//234 130//234 128//234
f 130//235 103//235 107//235
f 130//236 129//236 103//236
f 108//237 106//237 130//237
f 130//238 107//238 108//238
f 113//239 114//239 131//239
f 132//240 114//240 115//240
f 132//241 131//241 114//241
f 132//242 115//242 116//242
f 118//243 119//243 133//243
f 131//244 119//244 113//244
f 133//245 119//245 131//245
f 134//246 133//246 131//246
f 131//247 132//247 135//247
f 131//248 135//248 134//248
f 135//249 116//249 121//249
f 135//250 132//250 116//250
f 122//251 118//251 133//251
f 133//252 123//252 122//252
f 136//253 123//253 133//253
f 134//254 136//254 133//254
f 136//255 126//255 125//255
f 135//256 126//256 136//256
f 134//257 135//257 136//257
f 135//258 121//258 126//258
f 127//259 123//259 136//259
f 136//260 125//260 127//260
f 137//261 139//261 138//261
f 140//262 139//262 141//262
f 140//263 138//263 139//263
f 142//264 140//264 141//264
f 137//265 143//265 139//265
f 137//266 144//266 143//266
f 141//267 146//267 145//267
f 143//268 146//268 141//268
f 139//269 143//269 141//269
f 145//270 142//270 141//270
f 147//271 143//271 144//271
f 147//272 146//272 143//272
f 137//273 138//273 148//273
f 149//274 138//274 140//274
f 149//275 148//275 138//275
f 149//276 140//276 142//276
f 144//277 148//277 150//277
f 144//278 137//278 148//278
f 150//279 145//279 146//279
f 149//280 145//280 150//280
f 148//281 149//281 150//281
f 149//282 142//282 145//282
f 147//283 144//283 150//283
f 150//284 146//284 147//284

# Thankyou for using Spin3D

