# Created using Spin3D

# Vertex Array
v 5.734 -36.075 29.445
v 5.735 -36.075 29.446
v 5.735 -36.076 29.445
v 5.736 -36.075 29.445
v 5.735 -36.075 29.444
v 5.735 -36.074 29.445
v 2.270 -26.853 60.950
v 2.561 -26.611 61.140
v 2.556 -26.972 61.015
v 3.417 -26.312 60.757
v 2.508 -26.550 60.254
v 2.066 -25.737 60.432
v 3.148 -25.395 61.261
v 4.271 -25.516 61.237
v 0.440 -23.942 57.276
v 1.060 -23.944 58.972
v 1.720 -25.440 58.512
v 3.883 -25.766 58.701
v 5.508 -25.069 60.071
v 6.586 -24.885 57.943
v 7.483 -24.263 58.806
v 1.038 -24.792 56.696
v 2.600 -25.147 56.644
v 1.437 -24.156 55.348
v 5.259 -24.732 56.110
v 8.643 -23.858 57.446
v 7.951 -24.230 56.236
v 9.485 -23.761 56.212
v 3.275 -24.083 54.834
v 2.058 -22.968 54.146
v 7.218 -23.474 54.709
v 5.129 -23.656 54.347
v 9.213 -23.479 55.395
v 3.893 -22.297 53.517
v 6.101 -17.989 29.027
v 6.189 -17.866 29.017
v 6.154 -17.992 29.003
v 6.337 -17.836 28.904
v 6.313 -17.799 28.871
v 2.426 -23.270 60.355
v 3.557 -23.995 61.392
v 4.346 -24.641 61.495
v 4.966 -24.966 61.198
v 5.554 -23.899 60.843
v 0.248 -22.137 57.514
v 1.031 -22.015 58.817
v 7.299 -23.241 59.467
v 8.338 -23.497 58.479
v 8.837 -22.276 57.743
v 0.423 -23.769 55.903
v 0.089 -22.212 55.907
v 9.851 -23.132 56.461
v 10.126 -23.366 55.786
v 10.259 -22.953 55.823
v 0.773 -22.552 54.700
v 0.494 -20.457 54.441
v 5.904 -22.620 53.656
v 7.176 -22.117 53.789
v 8.694 -22.273 54.696
v 9.939 -22.917 55.418
v 1.919 -20.795 53.437
v 3.699 -20.156 52.863
v 5.669 -20.877 53.207
v 6.129 -17.679 29.000
v 6.201 -17.629 29.008
v 6.126 -17.826 29.007
v 6.398 -17.559 28.947
v 6.535 -17.590 28.840
v 6.733 -17.477 28.635
v 6.881 -17.277 28.620
v 6.389 -17.505 28.807
v 6.841 -17.172 28.484
v 6.749 -17.376 28.547
v 7.045 -17.177 28.374
v 7.105 -17.097 28.408
v 7.059 -17.087 28.334
v 7.201 -16.981 28.284
v 3.581 -22.974 61.079
v 4.547 -23.141 61.145
v 0.602 -20.527 57.720
v 2.106 -20.043 58.628
v 3.985 -21.361 60.136
v 6.109 -21.768 59.998
v 7.776 -21.533 58.991
v 8.165 -20.531 58.014
v 0.235 -19.713 55.934
v 0.834 -19.032 57.102
v 9.552 -22.071 55.891
v 8.501 -20.371 56.568
v 0.561 -18.584 54.203
v 7.452 -20.941 53.864
v 8.251 -20.483 54.917
v 1.191 -18.880 53.394
v 2.659 -18.019 52.743
v 4.557 -18.916 52.888
v 6.327 -19.053 53.794
v 6.196 -17.565 28.966
v 6.420 -17.349 28.856
v 6.535 -17.298 28.862
v 6.728 -17.276 28.761
v 7.036 -17.026 28.526
v 7.087 -16.958 28.360
v 6.760 -17.111 28.601
v 7.189 -16.917 28.351
v 7.006 -16.938 28.504
v 3.778 -19.487 59.007
v 5.423 -19.424 58.792
v 7.141 -20.264 58.816
v 0.762 -17.944 55.997
v 1.774 -17.777 56.776
v 3.673 -17.955 57.581
v 5.419 -17.766 57.252
v 5.837 -17.327 55.858
v 7.054 -18.949 57.337
v 0.817 -17.483 54.714
v 1.437 -16.852 55.377
v 7.199 -18.705 55.426
v 5.706 -17.414 54.444
v 1.446 -17.082 53.281
v 2.058 -15.885 52.869
v 2.173 -16.304 52.517
v 2.816 -16.298 52.567
v 4.205 -17.135 53.229
v 2.408 -15.737 52.517
v 6.724 -17.083 28.709
v 6.845 -17.054 28.675
v 2.845 -16.450 55.511
v 4.455 -16.799 56.180
v 1.927 -16.145 54.027
v 2.914 -15.807 54.203
v 4.172 -16.318 54.559
v 2.887 -15.834 53.212
v 4.136 -8.194 45.132
v 4.132 -8.194 45.127
v 4.134 -8.193 45.129
v 4.132 -8.192 45.125
v 4.133 -8.193 45.126
v 4.131 -8.193 45.123
v 4.136 -8.194 45.131
v 4.139 -8.195 45.132
v 4.135 -8.194 45.127
v 4.137 -8.193 45.129
v 4.140 -8.194 45.132
v 4.135 -8.195 45.129
v 4.132 -8.194 45.127
v 4.138 -8.194 45.130

# Normal Array
vn -0.590 -0.655 0.472
vn 0.584 -0.663 0.469
vn -0.588 -0.464 -0.662
vn 0.585 -0.477 -0.656
vn -0.586 0.476 0.655
vn 0.590 0.464 0.661
vn -0.585 0.662 -0.469
vn 0.591 0.654 -0.471
vn -0.329 -0.306 0.893
vn 0.474 -0.295 0.829
vn -0.251 -0.853 -0.457
vn 0.452 -0.768 -0.454
vn -0.637 0.235 0.734
vn -0.654 0.218 0.725
vn 0.477 -0.312 0.822
vn -0.035 -0.489 0.872
vn -0.833 -0.461 0.304
vn -0.085 -0.857 -0.508
vn -0.868 -0.489 0.081
vn -0.827 -0.354 -0.436
vn -0.899 -0.427 0.096
vn 0.558 -0.776 0.294
vn 0.477 -0.870 -0.123
vn 0.331 -0.940 0.086
vn 0.336 -0.926 -0.170
vn 0.457 -0.876 0.156
vn -0.789 -0.609 0.079
vn -0.210 -0.858 -0.468
vn -0.222 -0.942 -0.252
vn -0.128 -0.969 -0.212
vn 0.236 -0.939 -0.249
vn 0.080 -0.940 -0.333
vn 0.469 -0.872 0.141
vn 0.450 -0.893 0.018
vn 0.189 -0.958 -0.216
vn 0.292 -0.948 0.125
vn -0.117 -0.837 -0.535
vn -0.180 -0.651 -0.737
vn 0.163 -0.837 -0.523
vn 0.058 -0.850 -0.524
vn 0.035 -0.867 -0.496
vn 0.181 -0.844 -0.505
vn 0.170 -0.848 -0.502
vn 0.264 -0.882 -0.392
vn -0.068 -0.577 -0.814
vn -0.082 -0.573 -0.815
vn 0.386 -0.210 0.898
vn 0.619 -0.258 0.742
vn -0.403 -0.268 -0.875
vn 0.103 -0.620 -0.778
vn -0.631 0.112 0.767
vn -0.627 0.115 0.771
vn 0.284 -0.293 0.913
vn -0.010 -0.282 0.959
vn -0.165 -0.044 0.985
vn 0.451 0.048 0.891
vn -0.858 0.028 0.513
vn -0.930 -0.144 0.340
vn -0.736 0.128 0.665
vn -0.721 0.045 0.691
vn 0.593 -0.725 0.351
vn 0.595 -0.358 0.720
vn 0.603 -0.354 0.715
vn 0.653 -0.435 0.620
vn 0.842 -0.320 0.434
vn 0.700 0.137 0.701
vn -0.835 -0.547 -0.059
vn -0.978 -0.210 -0.015
vn -0.988 -0.118 0.103
vn -0.531 -0.695 -0.485
vn 0.690 -0.596 0.411
vn 0.668 -0.576 0.471
vn 0.696 -0.576 0.430
vn 0.691 -0.215 0.690
vn 0.926 -0.177 0.335
vn 0.838 -0.312 0.448
vn -0.876 -0.187 -0.444
vn -0.877 -0.172 -0.448
vn -0.474 -0.491 -0.731
vn -0.555 -0.499 -0.666
vn 0.185 -0.637 -0.748
vn 0.293 -0.530 -0.796
vn 0.404 -0.505 -0.763
vn 0.300 -0.378 -0.876
vn 0.278 -0.876 -0.394
vn 0.396 -0.478 -0.784
vn 0.315 -0.371 -0.874
vn 0.762 -0.190 -0.620
vn -0.594 -0.176 -0.785
vn -0.458 -0.302 -0.836
vn -0.202 -0.315 -0.927
vn -0.192 -0.302 -0.934
vn -0.028 -0.540 -0.841
vn 0.028 -0.246 -0.969
vn 0.062 -0.286 -0.956
vn 0.188 -0.221 -0.957
vn -0.155 0.050 0.987
vn -0.085 0.135 0.987
vn -0.142 0.045 0.989
vn 0.293 0.021 0.956
vn 0.748 -0.481 0.457
vn 0.617 -0.306 0.725
vn 0.573 -0.208 0.793
vn 0.740 -0.517 0.430
vn -0.585 -0.024 -0.811
vn -0.587 0.012 -0.809
vn -0.578 -0.028 -0.816
vn -0.584 -0.026 -0.812
vn -0.585 -0.011 -0.811
vn 0.058 -0.639 -0.767
vn 0.087 -0.661 -0.745
vn -0.003 -0.655 -0.756
vn 0.765 -0.542 0.347
vn 0.754 -0.633 0.176
vn -0.563 -0.004 -0.826
vn -0.294 -0.341 -0.893
vn -0.039 -0.393 -0.919
vn 0.793 -0.607 0.048
vn -0.560 0.255 0.788
vn 0.053 0.221 0.974
vn -0.014 0.293 0.956
vn 0.391 0.159 0.906
vn -0.856 0.124 0.503
vn -0.565 0.378 0.734
vn -0.526 0.360 0.771
vn -0.381 0.406 0.830
vn -0.546 0.521 0.657
vn 0.028 0.499 0.866
vn 0.155 0.524 0.838
vn 0.435 0.232 0.870
vn 0.570 0.171 0.804
vn 0.504 0.098 0.858
vn 0.753 -0.027 0.657
vn 0.804 0.224 0.551
vn -0.912 0.270 0.310
vn -0.946 0.173 0.273
vn -0.994 0.057 0.096
vn -0.565 0.388 0.728
vn 0.826 0.429 0.366
vn 0.849 0.378 0.370
vn 0.916 0.315 0.248
vn 0.665 0.490 0.564
vn -0.978 0.059 -0.199
vn -0.984 0.013 -0.177
vn 0.507 -0.064 -0.860
vn 0.809 0.565 -0.161
vn 0.762 0.262 -0.592
vn 0.612 0.580 -0.538
vn 0.713 0.257 -0.653
vn 0.667 0.571 -0.478
vn -0.797 -0.048 -0.603
vn -0.596 -0.244 -0.765
vn -0.245 -0.173 -0.954
vn -0.328 -0.146 -0.933
vn 0.143 -0.080 -0.987
vn 0.064 -0.025 -0.998
vn 0.345 -0.021 -0.938
vn 0.346 0.172 -0.922
vn 0.460 0.117 -0.880
vn 0.657 0.367 -0.658
vn -0.424 0.476 0.771
vn -0.114 0.543 0.832
vn -0.325 0.636 0.700
vn 0.234 0.185 0.954
vn 0.585 -0.161 0.795
vn 0.459 0.045 0.887
vn 0.659 -0.226 0.717
vn 0.670 -0.142 0.728
vn -0.656 0.163 -0.737
vn -0.658 0.379 -0.651
vn -0.695 0.318 -0.645
vn -0.704 0.337 -0.625
vn -0.658 0.342 -0.671
vn -0.373 0.868 -0.329
vn -0.626 0.645 -0.439
vn 0.572 0.374 0.730
vn 0.796 -0.190 0.575
vn 0.765 -0.251 0.593
vn -0.614 0.277 -0.739
vn -0.498 0.269 -0.824
vn -0.322 0.659 -0.680
vn 0.868 -0.277 0.411
vn -0.339 0.458 0.822
vn 0.149 0.486 0.861
vn 0.091 0.521 0.849
vn 0.451 0.339 0.826
vn 0.232 0.498 0.836
vn 0.627 0.405 0.666
vn -0.912 0.260 0.316
vn -0.557 0.573 0.601
vn -0.450 0.525 0.723
vn -0.269 0.586 0.765
vn -0.364 0.621 0.694
vn 0.069 0.682 0.728
vn 0.064 0.679 0.731
vn 0.525 0.754 0.395
vn 0.414 0.620 0.666
vn 0.340 0.713 0.614
vn 0.742 0.625 0.242
vn 0.574 0.628 0.525
vn -0.788 0.589 0.177
vn -0.957 0.283 0.060
vn -0.971 0.239 -0.027
vn -0.531 0.643 0.553
vn 0.726 0.673 0.141
vn 0.690 0.716 -0.108
vn 0.828 0.536 -0.162
vn 0.731 0.668 0.141
vn -0.891 0.344 -0.295
vn -0.774 0.070 -0.629
vn -0.811 0.230 -0.538
vn -0.552 -0.261 -0.792
vn -0.405 0.000 -0.914
vn 0.078 -0.109 -0.991
vn 0.363 -0.128 -0.923
vn 0.176 0.219 -0.960
vn 0.732 0.472 -0.492
vn 0.604 0.481 -0.636
vn 0.456 0.254 -0.853
vn 0.686 0.544 -0.483
vn -0.737 0.305 -0.603
vn 0.077 -0.032 -0.996
vn -0.360 0.731 0.580
vn 0.452 0.105 0.886
vn 0.123 0.501 0.856
vn 0.616 -0.019 0.788
vn -0.706 0.594 -0.387
vn -0.627 0.678 -0.383
vn -0.053 0.848 0.528
vn 0.537 0.369 0.759
vn -0.195 0.755 0.626
vn 0.040 0.760 0.649
vn -0.081 0.791 0.607
vn 0.406 0.830 0.383
vn -0.749 0.659 0.074
vn -0.275 0.770 0.575
vn -0.288 0.887 0.360
vn -0.361 0.844 0.396
vn 0.096 0.959 0.268
vn 0.229 0.869 0.440
vn 0.573 0.813 -0.103
vn 0.390 0.899 0.199
vn -0.802 0.566 -0.194
vn -0.890 0.456 0.002
vn -0.144 0.969 0.202
vn -0.322 0.947 -0.017
vn 0.609 0.611 -0.506
vn 0.651 0.654 -0.386
vn 0.385 0.922 -0.036
vn 0.498 0.744 -0.445
vn -0.160 0.957 0.244
vn 0.743 0.502 -0.443
vn -0.513 0.634 0.579
vn 0.239 0.970 -0.042
vn -0.456 0.819 0.348
vn 0.524 0.730 -0.438
vn 0.039 0.924 0.380
vn 0.229 0.856 0.463
vn 0.648 0.332 -0.685
vn 0.066 0.983 0.173
vn 0.504 0.856 -0.115
vn 0.679 0.524 -0.514
vn -0.223 0.067 0.973
vn 0.019 0.985 0.170
vn -0.478 -0.791 0.382
vn -0.347 -0.862 -0.369
vn -0.243 -0.954 -0.175
vn -0.955 -0.234 0.182
vn 0.209 -0.893 -0.399
vn -0.222 -0.925 0.310
vn 0.730 -0.151 -0.667
vn -0.017 -0.977 -0.215
vn 0.269 -0.726 -0.633
vn -0.015 -0.985 -0.170
vn 0.548 -0.564 -0.619
vn 0.588 -0.359 -0.725

# Facets
f 1//1 3//1 2//1
f 4//2 2//2 3//2
f 5//3 3//3 1//3
f 5//4 4//4 3//4
f 1//5 2//5 6//5
f 6//6 2//6 4//6
f 5//7 1//7 6//7
f 6//8 4//8 5//8
f 7//9 9//9 8//9
f 10//10 8//10 9//10
f 11//11 9//11 7//11
f 11//12 10//12 9//12
f 12//13 8//13 13//13
f 12//14 7//14 8//14
f 10//15 13//15 8//15
f 10//16 14//16 13//16
f 15//17 17//17 16//17
f 18//18 11//18 17//18
f 17//19 11//19 12//19
f 12//20 11//20 7//20
f 12//21 16//21 17//21
f 10//22 19//22 14//22
f 18//23 19//23 10//23
f 20//24 19//24 18//24
f 11//25 18//25 10//25
f 21//26 19//26 20//26
f 22//27 17//27 15//27
f 23//28 22//28 24//28
f 17//29 22//29 23//29
f 18//30 17//30 23//30
f 25//31 20//31 18//31
f 23//32 25//32 18//32
f 20//33 26//33 21//33
f 27//34 26//34 20//34
f 25//35 27//35 20//35
f 28//36 26//36 27//36
f 24//37 29//37 23//37
f 24//38 30//38 29//38
f 25//39 32//39 31//39
f 29//40 32//40 25//40
f 23//41 29//41 25//41
f 31//42 27//42 25//42
f 31//43 33//43 27//43
f 33//44 28//44 27//44
f 34//45 29//45 30//45
f 34//46 32//46 29//46
f 35//47 37//47 36//47
f 38//48 36//48 37//48
f 39//49 37//49 35//49
f 39//50 38//50 37//50
f 40//51 13//51 41//51
f 40//52 12//52 13//52
f 42//53 14//53 43//53
f 13//54 14//54 42//54
f 41//55 13//55 42//55
f 44//56 42//56 43//56
f 45//57 16//57 46//57
f 45//58 15//58 16//58
f 12//59 40//59 16//59
f 40//60 46//60 16//60
f 43//61 14//61 19//61
f 47//62 21//62 48//62
f 47//63 19//63 21//63
f 44//64 19//64 47//64
f 43//65 19//65 44//65
f 49//66 47//66 48//66
f 15//67 50//67 22//67
f 51//68 50//68 15//68
f 45//69 51//69 15//69
f 24//70 22//70 50//70
f 48//71 21//71 26//71
f 52//72 28//72 53//72
f 52//73 26//73 28//73
f 49//74 26//74 52//74
f 48//75 26//75 49//75
f 54//76 52//76 53//76
f 51//77 55//77 50//77
f 51//78 56//78 55//78
f 30//79 24//79 55//79
f 24//80 50//80 55//80
f 57//81 31//81 32//81
f 57//82 58//82 31//82
f 31//83 58//83 59//83
f 31//84 59//84 33//84
f 33//85 53//85 28//85
f 60//86 53//86 33//86
f 59//87 60//87 33//87
f 60//88 54//88 53//88
f 61//89 55//89 56//89
f 61//90 30//90 55//90
f 34//91 30//91 61//91
f 62//92 34//92 61//92
f 34//93 57//93 32//93
f 63//94 57//94 34//94
f 62//95 63//95 34//95
f 63//96 58//96 57//96
f 64//97 66//97 65//97
f 36//98 66//98 35//98
f 65//99 66//99 36//99
f 67//100 65//100 36//100
f 68//101 38//101 69//101
f 36//102 38//102 68//102
f 67//103 36//103 68//103
f 70//104 68//104 69//104
f 71//105 66//105 64//105
f 72//106 73//106 71//106
f 73//107 39//107 71//107
f 71//108 39//108 66//108
f 66//109 39//109 35//109
f 38//110 39//110 69//110
f 69//111 39//111 73//111
f 69//112 73//112 74//112
f 69//113 75//113 70//113
f 69//114 74//114 75//114
f 76//115 73//115 72//115
f 76//116 74//116 73//116
f 76//117 77//117 74//117
f 77//118 75//118 74//118
f 40//119 41//119 78//119
f 79//120 41//120 42//120
f 79//121 78//121 41//121
f 79//122 42//122 44//122
f 45//123 46//123 80//123
f 80//124 46//124 81//124
f 46//125 40//125 81//125
f 81//126 40//126 82//126
f 82//127 40//127 78//127
f 78//128 79//128 82//128
f 79//129 83//129 82//129
f 79//130 44//130 83//130
f 83//131 44//131 47//131
f 83//132 47//132 84//132
f 49//133 84//133 47//133
f 49//134 85//134 84//134
f 86//135 80//135 87//135
f 45//136 80//136 86//136
f 51//137 45//137 86//137
f 80//138 81//138 87//138
f 52//139 88//139 49//139
f 49//140 88//140 89//140
f 49//141 89//141 85//141
f 88//142 52//142 54//142
f 56//143 51//143 86//143
f 56//144 86//144 90//144
f 91//145 59//145 58//145
f 89//146 88//146 92//146
f 92//147 88//147 59//147
f 59//148 88//148 60//148
f 59//149 91//149 92//149
f 88//150 54//150 60//150
f 93//151 56//151 90//151
f 93//152 61//152 56//152
f 94//153 62//153 61//153
f 94//154 61//154 93//154
f 95//155 63//155 62//155
f 95//156 62//156 94//156
f 63//157 91//157 58//157
f 96//158 91//158 63//158
f 95//159 96//159 63//159
f 96//160 92//160 91//160
f 64//161 65//161 97//161
f 65//162 98//162 97//162
f 99//163 98//163 65//163
f 67//164 99//164 65//164
f 67//165 68//165 100//165
f 99//166 67//166 100//166
f 70//167 100//167 68//167
f 70//168 101//168 100//168
f 71//169 64//169 97//169
f 102//170 72//170 103//170
f 72//171 71//171 103//171
f 103//172 71//172 98//172
f 98//173 71//173 97//173
f 104//174 102//174 105//174
f 102//175 103//175 105//175
f 101//176 104//176 105//176
f 75//177 104//177 101//177
f 70//178 75//178 101//178
f 76//179 72//179 102//179
f 102//180 77//180 76//180
f 102//181 104//181 77//181
f 104//182 75//182 77//182
f 81//183 82//183 106//183
f 107//184 82//184 83//184
f 107//185 106//185 82//185
f 108//186 83//186 84//186
f 108//187 107//187 83//187
f 108//188 84//188 85//188
f 86//189 87//189 109//189
f 109//190 87//190 110//190
f 87//191 81//191 110//191
f 110//192 81//192 111//192
f 111//193 81//193 106//193
f 106//194 107//194 111//194
f 107//195 112//195 111//195
f 113//196 112//196 114//196
f 114//197 112//197 107//197
f 114//198 107//198 108//198
f 114//199 85//199 89//199
f 114//200 108//200 85//200
f 115//201 109//201 116//201
f 86//202 109//202 115//202
f 90//203 86//203 115//203
f 109//204 110//204 116//204
f 114//205 117//205 113//205
f 117//206 118//206 113//206
f 117//207 89//207 92//207
f 117//208 114//208 89//208
f 119//209 90//209 115//209
f 119//210 93//210 90//210
f 120//211 121//211 119//211
f 119//212 121//212 94//212
f 119//213 94//213 93//213
f 121//214 122//214 94//214
f 94//215 122//215 123//215
f 94//216 123//216 95//216
f 96//217 118//217 117//217
f 123//218 118//218 96//218
f 95//219 123//219 96//219
f 117//220 92//220 96//220
f 124//221 121//221 120//221
f 124//222 122//222 121//222
f 98//223 99//223 125//223
f 126//224 99//224 100//224
f 126//225 125//225 99//225
f 126//226 100//226 101//226
f 103//227 98//227 125//227
f 125//228 105//228 103//228
f 125//229 126//229 105//229
f 126//230 101//230 105//230
f 110//231 111//231 127//231
f 128//232 111//232 112//232
f 128//233 127//233 111//233
f 128//234 112//234 113//234
f 115//235 116//235 129//235
f 127//236 116//236 110//236
f 129//237 116//237 127//237
f 130//238 129//238 127//238
f 127//239 128//239 131//239
f 127//240 131//240 130//240
f 131//241 113//241 118//241
f 131//242 128//242 113//242
f 119//243 115//243 129//243
f 129//244 120//244 119//244
f 132//245 120//245 129//245
f 130//246 132//246 129//246
f 132//247 123//247 122//247
f 131//248 123//248 132//248
f 130//249 131//249 132//249
f 131//250 118//250 123//250
f 124//251 120//251 132//251
f 132//252 122//252 124//252
f 133//253 135//253 134//253
f 136//254 135//254 137//254
f 136//255 134//255 135//255
f 138//256 136//256 137//256
f 133//257 139//257 135//257
f 133//258 140//258 139//258
f 137//259 142//259 141//259
f 139//260 142//260 137//260
f 135//261 139//261 137//261
f 141//262 138//262 137//262
f 143//263 139//263 140//263
f 143//264 142//264 139//264
f 133//265 134//265 144//265
f 145//266 134//266 136//266
f 145//267 144//267 134//267
f 145//268 136//268 138//268
f 140//269 144//269 146//269
f 140//270 133//270 144//270
f 146//271 141//271 142//271
f 145//272 141//272 146//272
f 144//273 145//273 146//273
f 145//274 138//274 141//274
f 143//275 140//275 146//275
f 146//276 142//276 143//276

# Thankyou for using Spin3D

