# Created using Spin3D

# Vertex Array
v 5.734 -36.075 29.445
v 5.735 -36.075 29.446
v 5.735 -36.076 29.445
v 5.736 -36.075 29.445
v 5.735 -36.075 29.444
v 5.735 -36.074 29.445
v 2.631 -26.507 59.979
v 2.649 -26.573 60.609
v 2.808 -26.962 60.537
v 3.454 -26.267 60.390
v 3.074 -26.804 60.147
v 2.284 -25.694 60.113
v 2.830 -25.482 60.672
v 4.035 -24.818 60.655
v 3.917 -25.819 58.782
v 2.020 -24.792 58.396
v 5.531 -24.902 59.523
v 6.591 -24.914 57.815
v 7.453 -24.352 58.521
v 3.233 -24.908 56.859
v 1.923 -23.771 56.023
v 5.418 -24.685 56.189
v 8.571 -23.947 57.326
v 7.945 -24.258 56.196
v 9.420 -23.807 56.154
v 3.586 -23.900 55.112
v 2.333 -22.697 54.530
v 7.244 -23.457 54.729
v 5.261 -23.589 54.464
v 9.169 -23.489 55.361
v 4.044 -22.244 53.740
v 6.101 -17.989 29.027
v 6.189 -17.866 29.017
v 6.154 -17.992 29.003
v 6.337 -17.836 28.904
v 6.313 -17.799 28.871
v 2.199 -23.474 59.705
v 3.153 -24.315 60.787
v 3.953 -23.552 60.704
v 0.246 -21.413 57.112
v 0.907 -21.653 58.296
v 0.941 -22.990 58.163
v 5.522 -23.090 60.029
v 7.325 -23.443 59.023
v 8.268 -23.646 58.253
v 8.679 -22.387 57.647
v 0.749 -22.858 56.756
v 0.203 -21.173 55.847
v 9.754 -23.187 56.399
v 10.051 -23.389 55.739
v 10.173 -22.974 55.779
v 1.019 -21.993 55.114
v 0.560 -20.030 54.699
v 5.961 -22.602 53.741
v 7.173 -22.122 53.834
v 8.648 -22.274 54.697
v 9.867 -22.924 55.382
v 2.094 -20.722 53.809
v 3.828 -20.397 53.200
v 5.707 -20.975 53.384
v 6.129 -17.679 29.000
v 6.201 -17.629 29.008
v 6.126 -17.826 29.007
v 6.398 -17.559 28.947
v 6.535 -17.590 28.840
v 6.733 -17.477 28.635
v 6.881 -17.277 28.620
v 6.389 -17.505 28.807
v 6.841 -17.172 28.484
v 6.749 -17.376 28.547
v 7.045 -17.177 28.374
v 7.105 -17.097 28.408
v 7.059 -17.087 28.334
v 7.201 -16.981 28.284
v 3.236 -23.349 60.576
v 0.510 -20.194 57.428
v 1.998 -20.044 58.352
v 3.972 -21.654 59.819
v 5.946 -21.095 59.503
v 7.282 -21.731 59.029
v 7.928 -20.580 58.002
v 0.155 -19.347 55.954
v 0.720 -18.886 56.997
v 9.455 -22.099 55.866
v 8.375 -20.412 56.590
v 0.418 -18.486 54.637
v 7.423 -20.985 53.952
v 8.185 -20.526 54.990
v 1.305 -18.715 53.889
v 2.942 -18.913 53.395
v 4.626 -19.316 53.303
v 6.315 -19.257 54.072
v 6.196 -17.565 28.966
v 6.420 -17.349 28.856
v 6.535 -17.298 28.862
v 6.728 -17.276 28.761
v 7.036 -17.026 28.526
v 7.087 -16.958 28.360
v 6.760 -17.111 28.601
v 7.189 -16.917 28.351
v 7.006 -16.938 28.504
v 3.710 -19.587 58.814
v 5.324 -19.389 58.647
v 6.909 -20.164 58.709
v 0.603 -17.912 56.119
v 1.656 -17.860 56.822
v 3.610 -18.066 57.585
v 5.380 -17.846 57.330
v 5.857 -17.516 56.123
v 6.943 -18.972 57.375
v 0.569 -17.629 55.154
v 1.245 -17.108 55.708
v 7.151 -18.806 55.596
v 5.739 -17.724 54.862
v 0.986 -17.590 54.300
v 2.204 -17.507 53.939
v 4.197 -17.777 53.978
v 6.724 -17.083 28.709
v 6.845 -17.054 28.675
v 2.789 -16.872 55.853
v 4.480 -17.046 56.443
v 1.625 -16.917 54.798
v 2.987 -16.832 54.606
v 4.403 -16.908 55.216
v 4.136 -8.194 45.132
v 4.132 -8.194 45.127
v 4.134 -8.193 45.129
v 4.132 -8.192 45.125
v 4.133 -8.193 45.126
v 4.131 -8.193 45.123
v 4.136 -8.194 45.131
v 4.139 -8.195 45.132
v 4.135 -8.194 45.127
v 4.137 -8.193 45.129
v 4.140 -8.194 45.132
v 4.135 -8.195 45.129
v 4.132 -8.194 45.127
v 4.138 -8.194 45.130

# Normal Array
vn -0.590 -0.655 0.472
vn 0.584 -0.663 0.469
vn -0.588 -0.464 -0.662
vn 0.585 -0.477 -0.656
vn -0.586 0.476 0.655
vn 0.590 0.464 0.661
vn -0.585 0.662 -0.469
vn 0.591 0.654 -0.471
vn -0.926 -0.377 -0.013
vn 0.283 -0.060 0.957
vn -0.321 -0.782 -0.535
vn 0.735 -0.631 0.248
vn -0.728 0.082 0.680
vn -0.921 -0.390 -0.015
vn 0.298 -0.104 0.949
vn 0.141 -0.233 0.962
vn -0.230 -0.716 -0.659
vn -0.245 -0.703 -0.667
vn -0.922 -0.383 -0.060
vn 0.551 -0.359 0.754
vn 0.522 -0.849 -0.086
vn 0.390 -0.887 0.248
vn 0.801 -0.595 0.065
vn 0.382 -0.891 0.244
vn -0.417 -0.870 -0.263
vn -0.492 -0.807 -0.327
vn 0.213 -0.934 -0.286
vn -0.035 -0.908 -0.418
vn 0.461 -0.877 0.135
vn 0.439 -0.898 0.004
vn 0.162 -0.954 -0.251
vn 0.294 -0.951 0.099
vn -0.345 -0.781 -0.521
vn -0.386 -0.695 -0.606
vn 0.127 -0.832 -0.540
vn -0.049 -0.845 -0.532
vn -0.068 -0.858 -0.509
vn 0.143 -0.838 -0.526
vn 0.161 -0.832 -0.531
vn 0.253 -0.868 -0.428
vn -0.204 -0.591 -0.781
vn -0.192 -0.594 -0.781
vn 0.386 -0.210 0.898
vn 0.619 -0.258 0.742
vn -0.403 -0.268 -0.875
vn 0.103 -0.620 -0.778
vn -0.695 0.122 0.708
vn -0.730 0.096 0.677
vn 0.079 -0.120 0.990
vn 0.131 -0.030 0.991
vn -0.877 -0.069 0.476
vn -0.785 -0.081 0.615
vn -0.769 -0.395 0.503
vn -0.989 -0.011 0.146
vn 0.398 -0.009 0.917
vn 0.582 -0.216 0.784
vn 0.549 -0.344 0.762
vn 0.510 -0.360 0.781
vn 0.437 -0.240 0.867
vn 0.645 0.150 0.750
vn -0.933 -0.348 0.095
vn -0.946 -0.322 -0.030
vn -0.689 -0.675 -0.262
vn -0.860 -0.506 0.070
vn 0.669 -0.614 0.419
vn 0.681 -0.556 0.477
vn 0.704 -0.555 0.443
vn 0.679 -0.193 0.708
vn 0.928 -0.136 0.348
vn 0.836 -0.292 0.465
vn -0.803 -0.463 -0.376
vn -0.786 -0.298 -0.541
vn -0.570 -0.585 -0.577
vn -0.706 -0.572 -0.417
vn 0.143 -0.649 -0.747
vn 0.270 -0.526 -0.806
vn 0.400 -0.495 -0.771
vn 0.286 -0.362 -0.887
vn 0.282 -0.856 -0.433
vn 0.393 -0.456 -0.798
vn 0.310 -0.350 -0.884
vn 0.770 -0.167 -0.616
vn -0.575 -0.296 -0.763
vn -0.529 -0.347 -0.774
vn -0.312 -0.359 -0.880
vn -0.266 -0.299 -0.917
vn -0.100 -0.541 -0.835
vn -0.040 -0.220 -0.975
vn 0.008 -0.280 -0.960
vn 0.149 -0.189 -0.970
vn -0.155 0.050 0.987
vn -0.085 0.135 0.987
vn -0.142 0.045 0.989
vn 0.293 0.021 0.956
vn 0.748 -0.481 0.457
vn 0.617 -0.306 0.725
vn 0.573 -0.208 0.793
vn 0.740 -0.517 0.430
vn -0.585 -0.024 -0.811
vn -0.587 0.012 -0.809
vn -0.578 -0.028 -0.816
vn -0.584 -0.026 -0.812
vn -0.585 -0.011 -0.811
vn 0.058 -0.639 -0.767
vn 0.087 -0.661 -0.745
vn -0.003 -0.655 -0.756
vn 0.765 -0.542 0.347
vn 0.754 -0.633 0.176
vn -0.563 -0.004 -0.826
vn -0.294 -0.341 -0.893
vn -0.039 -0.393 -0.919
vn 0.793 -0.607 0.048
vn -0.643 0.216 0.735
vn -0.110 0.222 0.969
vn -0.866 0.059 0.496
vn -0.522 0.326 0.788
vn -0.481 0.297 0.825
vn -0.383 0.319 0.867
vn -0.582 0.529 0.618
vn -0.042 0.423 0.905
vn 0.258 0.407 0.877
vn 0.088 0.236 0.968
vn 0.489 0.009 0.872
vn 0.395 0.154 0.905
vn 0.707 0.016 0.707
vn 0.732 0.175 0.658
vn -0.892 0.264 0.367
vn -0.945 0.127 0.301
vn -0.999 -0.028 0.028
vn -0.520 0.342 0.783
vn 0.803 0.426 0.418
vn 0.835 0.354 0.421
vn 0.895 0.309 0.320
vn 0.647 0.472 0.599
vn -0.953 -0.007 -0.303
vn -0.961 -0.099 -0.257
vn 0.504 -0.021 -0.864
vn 0.807 0.575 -0.137
vn 0.764 0.298 -0.572
vn 0.610 0.605 -0.512
vn 0.704 0.295 -0.646
vn 0.671 0.594 -0.443
vn -0.656 -0.090 -0.750
vn -0.554 -0.186 -0.811
vn -0.320 -0.067 -0.945
vn -0.297 -0.079 -0.952
vn 0.103 0.019 -0.994
vn -0.027 0.114 -0.993
vn 0.314 0.030 -0.949
vn 0.305 0.259 -0.916
vn 0.399 0.216 -0.891
vn 0.619 0.442 -0.649
vn -0.424 0.476 0.771
vn -0.114 0.543 0.832
vn -0.325 0.636 0.700
vn 0.234 0.185 0.954
vn 0.585 -0.161 0.795
vn 0.459 0.045 0.887
vn 0.659 -0.226 0.717
vn 0.670 -0.142 0.728
vn -0.656 0.163 -0.737
vn -0.658 0.379 -0.651
vn -0.695 0.318 -0.645
vn -0.704 0.337 -0.625
vn -0.658 0.342 -0.671
vn -0.373 0.868 -0.329
vn -0.626 0.645 -0.439
vn 0.572 0.374 0.730
vn 0.796 -0.190 0.575
vn 0.765 -0.251 0.593
vn -0.614 0.277 -0.739
vn -0.498 0.269 -0.824
vn -0.322 0.659 -0.680
vn 0.868 -0.277 0.411
vn -0.334 0.377 0.864
vn 0.014 0.453 0.892
vn 0.039 0.441 0.897
vn 0.437 0.278 0.856
vn 0.211 0.499 0.841
vn 0.623 0.296 0.724
vn -0.894 0.236 0.380
vn -0.481 0.554 0.679
vn -0.388 0.487 0.782
vn -0.260 0.526 0.810
vn -0.353 0.574 0.739
vn 0.003 0.629 0.777
vn 0.029 0.648 0.761
vn 0.525 0.745 0.411
vn 0.402 0.586 0.703
vn 0.319 0.703 0.636
vn 0.753 0.581 0.307
vn 0.610 0.583 0.536
vn -0.703 0.675 0.223
vn -0.952 0.284 0.117
vn -0.976 0.207 -0.060
vn -0.439 0.661 0.608
vn 0.728 0.670 0.148
vn 0.656 0.733 -0.182
vn 0.827 0.545 -0.137
vn 0.740 0.656 0.148
vn -0.837 0.383 -0.391
vn -0.625 0.105 -0.773
vn -0.256 0.229 -0.939
vn -0.290 0.254 -0.923
vn 0.049 0.413 -0.910
vn 0.071 0.392 -0.917
vn 0.673 0.522 -0.524
vn 0.406 0.534 -0.741
vn 0.356 0.457 -0.815
vn 0.640 0.567 -0.519
vn -0.360 0.731 0.580
vn 0.452 0.105 0.886
vn 0.123 0.501 0.856
vn 0.616 -0.019 0.788
vn -0.706 0.594 -0.387
vn -0.627 0.678 -0.383
vn -0.053 0.848 0.528
vn 0.537 0.369 0.759
vn -0.156 0.777 0.610
vn 0.003 0.744 0.668
vn -0.130 0.786 0.604
vn 0.377 0.845 0.380
vn -0.574 0.816 -0.068
vn -0.176 0.785 0.594
vn -0.162 0.977 0.138
vn -0.059 0.998 0.023
vn 0.064 0.992 0.108
vn 0.037 0.999 0.038
vn 0.476 0.860 -0.186
vn 0.339 0.937 0.084
vn -0.599 0.758 -0.257
vn -0.242 0.715 -0.656
vn -0.136 0.771 -0.622
vn 0.101 0.637 -0.764
vn 0.291 0.760 -0.582
vn 0.307 0.754 -0.581
vn -0.513 0.634 0.579
vn 0.239 0.970 -0.042
vn -0.456 0.819 0.348
vn 0.524 0.730 -0.438
vn 0.039 0.924 0.380
vn 0.229 0.856 0.463
vn 0.648 0.332 -0.685
vn 0.066 0.983 0.173
vn 0.504 0.856 -0.115
vn 0.679 0.524 -0.514
vn -0.223 0.067 0.973
vn 0.019 0.985 0.170
vn -0.478 -0.791 0.382
vn -0.347 -0.862 -0.369
vn -0.243 -0.954 -0.175
vn -0.955 -0.234 0.182
vn 0.209 -0.893 -0.399
vn -0.222 -0.925 0.310
vn 0.730 -0.151 -0.667
vn -0.017 -0.977 -0.215
vn 0.269 -0.726 -0.633
vn -0.015 -0.985 -0.170
vn 0.548 -0.564 -0.619
vn 0.588 -0.359 -0.725

# Facets
f 1//1 3//1 2//1
f 4//2 2//2 3//2
f 5//3 3//3 1//3
f 5//4 4//4 3//4
f 1//5 2//5 6//5
f 6//6 2//6 4//6
f 5//7 1//7 6//7
f 6//8 4//8 5//8
f 7//9 9//9 8//9
f 10//10 8//10 9//10
f 11//11 9//11 7//11
f 11//12 10//12 9//12
f 12//13 8//13 13//13
f 12//14 7//14 8//14
f 10//15 13//15 8//15
f 10//16 14//16 13//16
f 7//17 15//17 11//17
f 16//18 15//18 7//18
f 12//19 16//19 7//19
f 10//20 17//20 14//20
f 15//21 17//21 10//21
f 18//22 17//22 15//22
f 11//23 15//23 10//23
f 19//24 17//24 18//24
f 16//25 20//25 15//25
f 16//26 21//26 20//26
f 22//27 18//27 15//27
f 20//28 22//28 15//28
f 18//29 23//29 19//29
f 24//30 23//30 18//30
f 22//31 24//31 18//31
f 25//32 23//32 24//32
f 21//33 26//33 20//33
f 21//34 27//34 26//34
f 22//35 29//35 28//35
f 26//36 29//36 22//36
f 20//37 26//37 22//37
f 28//38 24//38 22//38
f 28//39 30//39 24//39
f 30//40 25//40 24//40
f 31//41 26//41 27//41
f 31//42 29//42 26//42
f 32//43 34//43 33//43
f 35//44 33//44 34//44
f 36//45 34//45 32//45
f 36//46 35//46 34//46
f 37//47 13//47 38//47
f 37//48 12//48 13//48
f 14//49 38//49 13//49
f 14//50 39//50 38//50
f 40//51 42//51 41//51
f 41//52 42//52 37//52
f 37//53 42//53 16//53
f 37//54 16//54 12//54
f 39//55 14//55 43//55
f 14//56 17//56 43//56
f 44//57 19//57 45//57
f 17//58 19//58 44//58
f 43//59 17//59 44//59
f 46//60 44//60 45//60
f 40//61 47//61 42//61
f 40//62 48//62 47//62
f 21//63 16//63 47//63
f 16//64 42//64 47//64
f 45//65 19//65 23//65
f 49//66 25//66 50//66
f 49//67 23//67 25//67
f 46//68 23//68 49//68
f 45//69 23//69 46//69
f 51//70 49//70 50//70
f 48//71 52//71 47//71
f 48//72 53//72 52//72
f 27//73 21//73 52//73
f 21//74 47//74 52//74
f 54//75 28//75 29//75
f 54//76 55//76 28//76
f 28//77 55//77 56//77
f 28//78 56//78 30//78
f 30//79 50//79 25//79
f 57//80 50//80 30//80
f 56//81 57//81 30//81
f 57//82 51//82 50//82
f 58//83 52//83 53//83
f 58//84 27//84 52//84
f 31//85 27//85 58//85
f 59//86 31//86 58//86
f 31//87 54//87 29//87
f 60//88 54//88 31//88
f 59//89 60//89 31//89
f 60//90 55//90 54//90
f 61//91 63//91 62//91
f 33//92 63//92 32//92
f 62//93 63//93 33//93
f 64//94 62//94 33//94
f 65//95 35//95 66//95
f 33//96 35//96 65//96
f 64//97 33//97 65//97
f 67//98 65//98 66//98
f 68//99 63//99 61//99
f 69//100 70//100 68//100
f 70//101 36//101 68//101
f 68//102 36//102 63//102
f 63//103 36//103 32//103
f 35//104 36//104 66//104
f 66//105 36//105 70//105
f 66//106 70//106 71//106
f 66//107 72//107 67//107
f 66//108 71//108 72//108
f 73//109 70//109 69//109
f 73//110 71//110 70//110
f 73//111 74//111 71//111
f 74//112 72//112 71//112
f 37//113 38//113 75//113
f 75//114 38//114 39//114
f 40//115 41//115 76//115
f 76//116 41//116 77//116
f 41//117 37//117 77//117
f 77//118 37//118 78//118
f 78//119 37//119 75//119
f 75//120 39//120 78//120
f 78//121 39//121 43//121
f 78//122 43//122 79//122
f 43//123 44//123 80//123
f 79//124 43//124 80//124
f 46//125 80//125 44//125
f 46//126 81//126 80//126
f 82//127 76//127 83//127
f 40//128 76//128 82//128
f 48//129 40//129 82//129
f 76//130 77//130 83//130
f 49//131 84//131 46//131
f 46//132 84//132 85//132
f 46//133 85//133 81//133
f 84//134 49//134 51//134
f 53//135 48//135 82//135
f 53//136 82//136 86//136
f 87//137 56//137 55//137
f 85//138 84//138 88//138
f 88//139 84//139 56//139
f 56//140 84//140 57//140
f 56//141 87//141 88//141
f 84//142 51//142 57//142
f 89//143 53//143 86//143
f 89//144 58//144 53//144
f 90//145 59//145 58//145
f 90//146 58//146 89//146
f 91//147 60//147 59//147
f 91//148 59//148 90//148
f 60//149 87//149 55//149
f 92//150 87//150 60//150
f 91//151 92//151 60//151
f 92//152 88//152 87//152
f 61//153 62//153 93//153
f 62//154 94//154 93//154
f 95//155 94//155 62//155
f 64//156 95//156 62//156
f 64//157 65//157 96//157
f 95//158 64//158 96//158
f 67//159 96//159 65//159
f 67//160 97//160 96//160
f 68//161 61//161 93//161
f 98//162 69//162 99//162
f 69//163 68//163 99//163
f 99//164 68//164 94//164
f 94//165 68//165 93//165
f 100//166 98//166 101//166
f 98//167 99//167 101//167
f 97//168 100//168 101//168
f 72//169 100//169 97//169
f 67//170 72//170 97//170
f 73//171 69//171 98//171
f 98//172 74//172 73//172
f 98//173 100//173 74//173
f 100//174 72//174 74//174
f 77//175 78//175 102//175
f 103//176 78//176 79//176
f 103//177 102//177 78//177
f 104//178 79//178 80//178
f 104//179 103//179 79//179
f 104//180 80//180 81//180
f 82//181 83//181 105//181
f 105//182 83//182 106//182
f 83//183 77//183 106//183
f 106//184 77//184 107//184
f 107//185 77//185 102//185
f 102//186 103//186 107//186
f 103//187 108//187 107//187
f 109//188 108//188 110//188
f 110//189 108//189 103//189
f 110//190 103//190 104//190
f 110//191 81//191 85//191
f 110//192 104//192 81//192
f 111//193 105//193 112//193
f 82//194 105//194 111//194
f 86//195 82//195 111//195
f 105//196 106//196 112//196
f 110//197 113//197 109//197
f 113//198 114//198 109//198
f 113//199 85//199 88//199
f 113//200 110//200 85//200
f 115//201 86//201 111//201
f 115//202 89//202 86//202
f 116//203 90//203 89//203
f 116//204 89//204 115//204
f 117//205 91//205 90//205
f 117//206 90//206 116//206
f 92//207 114//207 113//207
f 117//208 114//208 92//208
f 91//209 117//209 92//209
f 113//210 88//210 92//210
f 94//211 95//211 118//211
f 119//212 95//212 96//212
f 119//213 118//213 95//213
f 119//214 96//214 97//214
f 99//215 94//215 118//215
f 118//216 101//216 99//216
f 118//217 119//217 101//217
f 119//218 97//218 101//218
f 106//219 107//219 120//219
f 121//220 107//220 108//220
f 121//221 120//221 107//221
f 121//222 108//222 109//222
f 111//223 112//223 122//223
f 120//224 112//224 106//224
f 122//225 112//225 120//225
f 123//226 122//226 120//226
f 120//227 121//227 124//227
f 120//228 124//228 123//228
f 124//229 109//229 114//229
f 124//230 121//230 109//230
f 115//231 111//231 122//231
f 122//232 116//232 115//232
f 122//233 123//233 116//233
f 123//234 117//234 116//234
f 123//235 124//235 117//235
f 124//236 114//236 117//236
f 125//237 127//237 126//237
f 128//238 127//238 129//238
f 128//239 126//239 127//239
f 130//240 128//240 129//240
f 125//241 131//241 127//241
f 125//242 132//242 131//242
f 129//243 134//243 133//243
f 131//244 134//244 129//244
f 127//245 131//245 129//245
f 133//246 130//246 129//246
f 135//247 131//247 132//247
f 135//248 134//248 131//248
f 125//249 126//249 136//249
f 137//250 126//250 128//250
f 137//251 136//251 126//251
f 137//252 128//252 130//252
f 132//253 136//253 138//253
f 132//254 125//254 136//254
f 138//255 133//255 134//255
f 137//256 133//256 138//256
f 136//257 137//257 138//257
f 137//258 130//258 133//258
f 135//259 132//259 138//259
f 138//260 134//260 135//260

# Thankyou for using Spin3D

