# Created using Spin3D

# Vertex Array
v 5.758 -34.594 29.690
v 5.756 -34.594 29.687
v 5.756 -34.595 29.689
v 5.754 -34.594 29.689
v 5.755 -34.594 29.691
v 5.758 -34.592 29.689
v 5.755 -34.592 29.688
v 5.754 -34.592 29.690
v 5.756 -34.593 29.691
v 5.756 -34.592 29.690
v 2.724 -27.124 61.061
v 3.031 -26.868 61.347
v 2.957 -27.375 61.200
v 3.468 -27.079 61.098
v 3.051 -26.843 60.265
v 2.388 -25.878 60.424
v 3.282 -25.404 61.321
v 4.005 -26.240 61.309
v 4.685 -26.216 60.101
v 5.259 -25.329 60.865
v 0.679 -24.041 57.187
v 1.208 -24.002 58.785
v 2.008 -25.567 58.319
v 3.934 -26.038 58.287
v 6.233 -25.261 58.017
v 6.797 -24.551 59.527
v 1.361 -24.543 56.133
v 0.237 -22.822 55.571
v 2.898 -25.378 56.662
v 5.113 -24.918 56.040
v 8.434 -23.924 57.623
v 7.783 -24.347 56.251
v 9.390 -23.765 56.242
v 1.117 -23.566 54.753
v 2.833 -24.173 54.847
v 1.822 -22.853 53.914
v 7.094 -23.524 54.663
v 4.906 -23.747 54.297
v 9.145 -23.468 55.370
v 3.698 -22.392 53.497
v 6.909 -18.386 27.953
v 6.865 -18.157 28.063
v 6.861 -18.278 28.021
v 6.948 -18.284 27.971
v 6.920 -18.382 27.951
v 6.881 -18.154 28.060
v 6.987 -18.383 27.913
v 6.979 -18.265 27.964
v 2.557 -23.265 60.275
v 3.723 -24.002 61.344
v 4.514 -24.801 61.410
v 6.001 -23.765 60.654
v 0.144 -22.128 57.087
v 1.031 -21.999 58.605
v 8.200 -23.416 58.739
v 7.603 -22.786 59.474
v 8.887 -22.093 57.808
v -0.217 -21.362 55.735
v 2.809 -22.160 56.072
v 2.808 -22.158 56.072
v 2.809 -22.159 56.073
v 2.811 -22.158 56.072
v 9.818 -23.057 56.495
v 10.098 -23.305 55.773
v 10.261 -22.856 55.809
v 0.747 -22.311 54.252
v 0.238 -20.690 54.612
v 2.809 -22.158 56.071
v 5.759 -22.681 53.623
v 7.095 -22.135 53.771
v 8.663 -22.226 54.674
v 9.930 -22.836 55.388
v 1.815 -20.976 53.502
v 3.649 -20.507 53.049
v 5.594 -21.012 53.291
v 6.824 -17.824 28.208
v 6.818 -17.969 28.160
v 7.030 -18.203 27.959
v 6.926 -17.954 28.105
v 7.027 -17.960 28.049
v 6.843 -17.785 28.216
v 7.051 -18.256 27.929
v 7.071 -18.089 27.979
v 6.936 -17.997 28.088
v 7.026 -18.048 28.021
v 3.746 -22.928 61.007
v 4.774 -23.079 61.058
v 0.482 -20.481 57.555
v 2.091 -20.000 58.567
v 4.116 -21.261 60.072
v 6.344 -21.550 59.943
v 7.962 -21.251 58.992
v 8.288 -20.316 58.034
v -0.019 -19.667 55.972
v 0.670 -19.007 57.103
v 2.809 -22.157 56.072
v 9.573 -21.953 55.895
v 8.572 -20.225 56.613
v 0.232 -18.799 54.626
v 7.422 -20.952 53.910
v 8.273 -20.428 54.975
v 1.121 -18.979 53.814
v 2.815 -19.029 53.298
v 4.553 -19.351 53.234
v 6.331 -19.216 54.036
v 6.837 -17.583 28.292
v 6.793 -17.605 28.307
v 6.940 -17.702 28.192
v 6.850 -17.480 28.326
v 6.820 -17.502 28.334
v 6.924 -17.714 28.199
v 7.027 -17.879 28.081
v 3.839 -19.399 58.981
v 5.540 -19.288 58.793
v 7.300 -20.046 58.808
v 0.516 -18.026 56.184
v 1.646 -17.859 56.917
v 3.692 -17.969 57.679
v 5.511 -17.730 57.373
v 5.955 -17.413 56.123
v 7.163 -18.822 57.403
v 0.451 -17.787 55.187
v 1.187 -17.151 55.761
v 7.268 -18.694 55.584
v 5.789 -17.656 54.844
v 0.863 -17.757 54.302
v 2.121 -17.597 53.921
v 4.175 -17.778 53.950
v 6.799 -17.428 28.372
v 2.789 -16.838 55.891
v 4.542 -16.956 56.468
v 1.560 -16.974 54.821
v 2.962 -16.831 54.611
v 4.430 -16.851 55.216
v 4.136 -8.194 45.132
v 4.132 -8.194 45.127
v 4.134 -8.193 45.129
v 4.132 -8.192 45.125
v 4.133 -8.193 45.126
v 4.131 -8.193 45.123
v 4.136 -8.194 45.131
v 4.139 -8.195 45.132
v 4.135 -8.194 45.127
v 4.137 -8.193 45.129
v 4.140 -8.194 45.132
v 4.135 -8.195 45.129
v 4.132 -8.194 45.127
v 4.138 -8.194 45.130

# Normal Array
vn 0.270 -0.904 -0.333
vn -0.182 -0.880 -0.438
vn 0.165 -0.977 0.136
vn -0.301 -0.953 0.029
vn 0.526 0.378 -0.762
vn 0.801 -0.212 -0.559
vn -0.487 -0.154 -0.860
vn -0.803 0.394 -0.446
vn 0.818 0.179 0.547
vn 0.503 -0.425 0.752
vn -0.814 -0.371 0.447
vn -0.521 0.134 0.843
vn 0.178 0.980 -0.087
vn -0.246 0.969 0.005
vn 0.261 0.923 0.283
vn -0.157 0.915 0.373
vn -0.612 -0.136 0.779
vn 0.356 -0.308 0.883
vn -0.506 -0.727 -0.465
vn 0.388 -0.817 -0.426
vn -0.737 0.138 0.661
vn -0.735 0.141 0.663
vn 0.725 -0.564 0.396
vn 0.297 -0.408 0.864
vn 0.031 0.012 0.999
vn 0.629 -0.699 0.340
vn -0.817 -0.502 0.283
vn -0.219 -0.866 -0.450
vn -0.818 -0.572 0.063
vn -0.761 -0.446 -0.471
vn -0.876 -0.474 0.088
vn 0.295 -0.870 -0.394
vn 0.329 -0.917 -0.226
vn 0.291 -0.933 -0.212
vn 0.638 -0.696 0.329
vn 0.635 -0.763 0.122
vn -0.703 -0.701 -0.121
vn -0.780 -0.584 -0.227
vn -0.234 -0.944 -0.234
vn -0.373 -0.878 -0.301
vn 0.272 -0.911 -0.311
vn 0.072 -0.907 -0.414
vn 0.534 -0.824 0.188
vn 0.521 -0.853 0.016
vn 0.222 -0.932 -0.287
vn 0.339 -0.932 0.127
vn -0.758 -0.588 -0.282
vn -0.194 -0.661 -0.725
vn -0.257 -0.810 -0.528
vn -0.258 -0.809 -0.528
vn 0.176 -0.807 -0.564
vn 0.022 -0.828 -0.560
vn 0.017 -0.833 -0.554
vn 0.218 -0.825 -0.522
vn 0.202 -0.831 -0.518
vn 0.313 -0.869 -0.384
vn -0.033 -0.594 -0.804
vn -0.099 -0.570 -0.815
vn -0.486 0.301 -0.821
vn -0.442 0.318 -0.839
vn 0.321 -0.398 0.859
vn 0.419 -0.333 0.845
vn -0.438 0.316 -0.841
vn 0.380 -0.597 0.706
vn 0.450 -0.322 0.833
vn 0.456 -0.324 0.829
vn -0.602 0.177 0.779
vn -0.728 0.086 0.680
vn -0.045 -0.054 0.998
vn -0.076 0.008 0.997
vn 0.467 -0.225 0.855
vn 0.522 -0.134 0.842
vn -0.862 -0.031 0.506
vn -0.920 -0.241 0.310
vn -0.759 0.086 0.645
vn -0.740 -0.005 0.672
vn 0.625 -0.263 0.735
vn 0.676 -0.288 0.678
vn 0.704 -0.244 0.667
vn 0.786 0.026 0.617
vn -0.962 -0.266 0.063
vn -0.949 -0.304 0.081
vn -0.576 -0.646 0.501
vn 0.535 -0.672 0.512
vn 0.702 -0.581 0.412
vn 0.678 -0.574 0.459
vn 0.702 -0.575 0.420
vn 0.700 -0.241 0.673
vn 0.915 -0.258 0.309
vn 0.833 -0.337 0.438
vn -0.782 -0.416 -0.464
vn -0.890 -0.187 -0.416
vn -0.855 -0.212 -0.474
vn -0.603 -0.480 -0.637
vn -0.465 -0.443 -0.767
vn 0.190 -0.629 -0.754
vn 0.575 -0.504 -0.644
vn 0.300 -0.516 -0.803
vn 0.413 -0.492 -0.766
vn 0.312 -0.369 -0.875
vn 0.311 -0.869 -0.384
vn 0.410 -0.487 -0.771
vn 0.316 -0.368 -0.875
vn 0.760 -0.228 -0.608
vn -0.576 0.001 -0.818
vn -0.384 -0.199 -0.901
vn -0.162 -0.212 -0.964
vn -0.177 -0.232 -0.957
vn -0.021 -0.522 -0.852
vn 0.033 -0.191 -0.981
vn 0.061 -0.229 -0.971
vn 0.179 -0.175 -0.968
vn -0.506 0.292 -0.811
vn -0.490 0.300 -0.818
vn -0.437 0.313 -0.843
vn -0.452 0.309 -0.837
vn -0.454 0.309 -0.836
vn -0.449 0.306 -0.840
vn 0.390 -0.332 0.859
vn 0.420 -0.317 0.850
vn -0.420 0.314 -0.851
vn -0.440 0.316 -0.841
vn -0.435 0.308 -0.846
vn -0.432 0.307 -0.848
vn 0.449 -0.309 0.839
vn 0.460 -0.312 0.832
vn 0.450 -0.326 0.832
vn 0.450 -0.315 0.836
vn 0.450 -0.315 0.836
vn 0.481 -0.305 0.822
vn -0.559 0.259 0.788
vn 0.104 0.184 0.977
vn -0.003 0.299 0.954
vn 0.375 0.131 0.918
vn -0.864 0.035 0.502
vn -0.571 0.317 0.757
vn -0.569 0.316 0.759
vn -0.384 0.384 0.839
vn -0.553 0.498 0.668
vn 0.028 0.484 0.874
vn 0.115 0.505 0.855
vn 0.413 0.220 0.884
vn 0.503 0.193 0.842
vn 0.478 0.159 0.864
vn 0.790 0.007 0.612
vn 0.838 0.219 0.499
vn -0.885 0.236 0.401
vn -0.934 0.094 0.344
vn -0.953 0.070 0.294
vn -0.553 0.480 0.681
vn -0.571 0.306 0.762
vn 0.585 0.455 0.671
vn 0.864 0.375 0.337
vn 0.868 0.363 0.338
vn 0.935 0.289 0.206
vn 0.678 0.461 0.573
vn -0.944 0.151 -0.292
vn -0.983 -0.002 -0.184
vn -0.547 0.683 -0.484
vn 0.594 0.652 -0.470
vn 0.497 -0.035 -0.867
vn 0.803 0.555 -0.216
vn 0.744 0.265 -0.614
vn 0.594 0.567 -0.570
vn 0.687 0.263 -0.678
vn 0.667 0.555 -0.498
vn -0.674 0.003 -0.739
vn -0.583 -0.076 -0.809
vn -0.245 0.024 -0.969
vn -0.290 0.049 -0.956
vn 0.136 0.051 -0.989
vn -0.006 0.162 -0.987
vn 0.320 0.023 -0.947
vn 0.302 0.257 -0.918
vn 0.389 0.212 -0.897
vn 0.595 0.423 -0.683
vn -0.457 0.312 -0.833
vn -0.520 0.290 -0.804
vn -0.431 0.331 -0.840
vn -0.448 0.314 -0.837
vn -0.450 0.313 -0.837
vn -0.447 0.314 -0.838
vn 0.453 -0.310 0.836
vn 0.402 -0.323 0.857
vn 0.415 -0.317 0.853
vn 0.452 -0.310 0.836
vn 0.534 -0.267 0.802
vn 0.526 -0.249 0.813
vn -0.351 0.349 -0.869
vn -0.387 0.344 -0.855
vn 0.451 -0.307 0.838
vn 0.455 -0.307 0.836
vn 0.465 -0.302 0.832
vn 0.487 -0.298 0.821
vn -0.347 0.435 0.831
vn 0.113 0.482 0.869
vn 0.062 0.511 0.857
vn 0.423 0.359 0.832
vn 0.208 0.501 0.840
vn 0.625 0.442 0.643
vn -0.885 0.236 0.401
vn -0.512 0.543 0.666
vn -0.434 0.492 0.755
vn -0.264 0.554 0.790
vn -0.374 0.603 0.704
vn 0.038 0.675 0.737
vn 0.035 0.673 0.738
vn 0.506 0.776 0.376
vn 0.399 0.622 0.674
vn 0.310 0.732 0.607
vn 0.744 0.640 0.190
vn 0.573 0.645 0.506
vn -0.727 0.656 0.204
vn -0.948 0.292 0.131
vn -0.973 0.229 -0.033
vn -0.478 0.651 0.589
vn 0.714 0.694 0.090
vn 0.632 0.742 -0.223
vn 0.810 0.545 -0.216
vn 0.728 0.680 0.090
vn -0.840 0.391 -0.376
vn -0.648 0.160 -0.745
vn -0.274 0.269 -0.923
vn -0.311 0.295 -0.904
vn 0.045 0.423 -0.905
vn 0.050 0.419 -0.907
vn 0.645 0.516 -0.564
vn 0.381 0.526 -0.760
vn 0.337 0.456 -0.823
vn 0.616 0.554 -0.560
vn -0.459 0.317 -0.830
vn -0.426 0.331 -0.842
vn 0.410 -0.324 0.853
vn 0.450 -0.306 0.839
vn -0.177 0.789 0.589
vn 0.008 0.764 0.645
vn -0.136 0.805 0.578
vn 0.364 0.864 0.348
vn -0.609 0.788 -0.093
vn -0.202 0.797 0.569
vn -0.199 0.974 0.105
vn -0.102 0.995 -0.009
vn 0.041 0.996 0.080
vn 0.010 1.000 0.006
vn 0.451 0.864 -0.223
vn 0.319 0.946 0.051
vn -0.626 0.733 -0.265
vn -0.288 0.694 -0.660
vn -0.171 0.757 -0.631
vn 0.066 0.627 -0.776
vn 0.259 0.754 -0.604
vn 0.278 0.747 -0.603
vn -0.513 0.634 0.579
vn 0.239 0.970 -0.042
vn -0.456 0.819 0.348
vn 0.524 0.730 -0.438
vn 0.039 0.924 0.380
vn 0.229 0.856 0.463
vn 0.648 0.332 -0.685
vn 0.066 0.983 0.173
vn 0.504 0.856 -0.115
vn 0.679 0.524 -0.514
vn -0.223 0.067 0.973
vn 0.019 0.985 0.170
vn -0.478 -0.791 0.382
vn -0.347 -0.862 -0.369
vn -0.243 -0.954 -0.175
vn -0.955 -0.234 0.182
vn 0.209 -0.893 -0.399
vn -0.222 -0.925 0.310
vn 0.730 -0.151 -0.667
vn -0.017 -0.977 -0.215
vn 0.269 -0.726 -0.633
vn -0.015 -0.985 -0.170
vn 0.548 -0.564 -0.619
vn 0.588 -0.359 -0.725

# Facets
f 1//1 3//1 2//1
f 4//2 2//2 3//2
f 5//3 3//3 1//3
f 5//4 4//4 3//4
f 6//5 2//5 7//5
f 6//6 1//6 2//6
f 4//7 7//7 2//7
f 4//8 8//8 7//8
f 9//9 1//9 6//9
f 9//10 5//10 1//10
f 5//11 8//11 4//11
f 5//12 9//12 8//12
f 6//13 7//13 10//13
f 10//14 7//14 8//14
f 9//15 6//15 10//15
f 10//16 8//16 9//16
f 11//17 13//17 12//17
f 14//18 12//18 13//18
f 15//19 13//19 11//19
f 15//20 14//20 13//20
f 16//21 12//21 17//21
f 16//22 11//22 12//22
f 18//23 14//23 19//23
f 12//24 14//24 18//24
f 17//25 12//25 18//25
f 20//26 18//26 19//26
f 21//27 23//27 22//27
f 24//28 15//28 23//28
f 23//29 15//29 16//29
f 16//30 15//30 11//30
f 16//31 22//31 23//31
f 14//32 15//32 19//32
f 19//33 15//33 24//33
f 19//34 24//34 25//34
f 19//35 26//35 20//35
f 19//36 25//36 26//36
f 21//37 27//37 23//37
f 21//38 28//38 27//38
f 29//39 24//39 23//39
f 27//40 29//40 23//40
f 30//41 25//41 24//41
f 29//42 30//42 24//42
f 25//43 31//43 26//43
f 32//44 31//44 25//44
f 30//45 32//45 25//45
f 33//46 31//46 32//46
f 34//47 27//47 28//47
f 35//48 34//48 36//48
f 27//49 34//49 35//49
f 29//50 27//50 35//50
f 30//51 38//51 37//51
f 35//52 38//52 30//52
f 29//53 35//53 30//53
f 37//54 32//54 30//54
f 37//55 39//55 32//55
f 39//56 33//56 32//56
f 40//57 35//57 36//57
f 40//58 38//58 35//58
f 41//59 43//59 42//59
f 42//60 44//60 41//60
f 45//61 43//61 41//61
f 46//62 43//62 45//62
f 47//63 41//63 44//63
f 45//64 41//64 47//64
f 45//65 48//65 46//65
f 47//66 48//66 45//66
f 49//67 17//67 50//67
f 49//68 16//68 17//68
f 17//69 18//69 51//69
f 50//70 17//70 51//70
f 20//71 51//71 18//71
f 20//72 52//72 51//72
f 53//73 22//73 54//73
f 53//74 21//74 22//74
f 16//75 49//75 22//75
f 49//76 54//76 22//76
f 55//77 56//77 26//77
f 26//78 56//78 52//78
f 26//79 52//79 20//79
f 57//80 56//80 55//80
f 28//81 21//81 53//81
f 28//82 53//82 58//82
f 59//83 61//83 60//83
f 61//84 59//84 62//84
f 55//85 26//85 31//85
f 63//86 33//86 64//86
f 63//87 31//87 33//87
f 57//88 31//88 63//88
f 55//89 31//89 57//89
f 65//90 63//90 64//90
f 28//91 66//91 34//91
f 67//92 66//92 28//92
f 58//93 67//93 28//93
f 59//94 60//94 68//94
f 66//95 36//95 34//95
f 69//96 37//96 38//96
f 59//97 68//97 62//97
f 69//98 70//98 37//98
f 37//99 70//99 71//99
f 37//100 71//100 39//100
f 39//101 64//101 33//101
f 72//102 64//102 39//102
f 71//103 72//103 39//103
f 72//104 65//104 64//104
f 73//105 66//105 67//105
f 73//106 36//106 66//106
f 40//107 36//107 73//107
f 74//108 40//108 73//108
f 40//109 69//109 38//109
f 75//110 69//110 40//110
f 74//111 75//111 40//111
f 75//112 70//112 69//112
f 42//113 77//113 76//113
f 43//114 77//114 42//114
f 44//115 79//115 78//115
f 44//116 42//116 79//116
f 42//117 76//117 79//117
f 79//118 80//118 78//118
f 43//119 46//119 77//119
f 77//120 46//120 81//120
f 78//121 82//121 47//121
f 44//122 78//122 47//122
f 83//123 78//123 80//123
f 82//124 78//124 83//124
f 46//125 84//125 81//125
f 48//126 84//126 46//126
f 82//127 48//127 47//127
f 82//128 85//128 48//128
f 85//129 84//129 48//129
f 83//130 85//130 82//130
f 49//131 50//131 86//131
f 87//132 50//132 51//132
f 87//133 86//133 50//133
f 87//134 51//134 52//134
f 53//135 54//135 88//135
f 88//136 54//136 89//136
f 54//137 49//137 89//137
f 89//138 49//138 90//138
f 90//139 49//139 86//139
f 86//140 87//140 90//140
f 87//141 91//141 90//141
f 87//142 52//142 91//142
f 91//143 52//143 56//143
f 91//144 56//144 92//144
f 57//145 92//145 56//145
f 57//146 93//146 92//146
f 94//147 88//147 95//147
f 53//148 88//148 94//148
f 58//149 53//149 94//149
f 61//150 96//150 60//150
f 95//151 88//151 89//151
f 61//152 62//152 96//152
f 63//153 97//153 57//153
f 57//154 97//154 98//154
f 57//155 98//155 93//155
f 97//156 63//156 65//156
f 67//157 58//157 94//157
f 67//158 94//158 99//158
f 60//159 96//159 68//159
f 62//160 68//160 96//160
f 100//161 71//161 70//161
f 98//162 97//162 101//162
f 101//163 97//163 71//163
f 71//164 97//164 72//164
f 71//165 100//165 101//165
f 97//166 65//166 72//166
f 102//167 67//167 99//167
f 102//168 73//168 67//168
f 103//169 74//169 73//169
f 103//170 73//170 102//170
f 104//171 75//171 74//171
f 104//172 74//172 103//172
f 75//173 100//173 70//173
f 105//174 100//174 75//174
f 104//175 105//175 75//175
f 105//176 101//176 100//176
f 76//177 107//177 106//177
f 77//178 107//178 76//178
f 108//179 106//179 109//179
f 108//180 79//180 106//180
f 79//181 76//181 106//181
f 79//182 108//182 80//182
f 110//183 81//183 111//183
f 110//184 107//184 81//184
f 107//185 77//185 81//185
f 109//186 110//186 111//186
f 109//187 111//187 108//187
f 108//188 111//188 112//188
f 80//189 112//189 83//189
f 108//190 112//190 80//190
f 81//191 84//191 111//191
f 85//192 111//192 84//192
f 112//193 111//193 85//193
f 83//194 112//194 85//194
f 89//195 90//195 113//195
f 114//196 90//196 91//196
f 114//197 113//197 90//197
f 115//198 91//198 92//198
f 115//199 114//199 91//199
f 115//200 92//200 93//200
f 94//201 95//201 116//201
f 116//202 95//202 117//202
f 95//203 89//203 117//203
f 117//204 89//204 118//204
f 118//205 89//205 113//205
f 113//206 114//206 118//206
f 114//207 119//207 118//207
f 120//208 119//208 121//208
f 121//209 119//209 114//209
f 121//210 114//210 115//210
f 121//211 93//211 98//211
f 121//212 115//212 93//212
f 122//213 116//213 123//213
f 94//214 116//214 122//214
f 99//215 94//215 122//215
f 116//216 117//216 123//216
f 121//217 124//217 120//217
f 124//218 125//218 120//218
f 124//219 98//219 101//219
f 124//220 121//220 98//220
f 126//221 99//221 122//221
f 126//222 102//222 99//222
f 127//223 103//223 102//223
f 127//224 102//224 126//224
f 128//225 104//225 103//225
f 128//226 103//226 127//226
f 105//227 125//227 124//227
f 128//228 125//228 105//228
f 104//229 128//229 105//229
f 124//230 101//230 105//230
f 106//231 107//231 129//231
f 106//232 129//232 109//232
f 107//233 110//233 129//233
f 109//234 129//234 110//234
f 117//235 118//235 130//235
f 131//236 118//236 119//236
f 131//237 130//237 118//237
f 131//238 119//238 120//238
f 122//239 123//239 132//239
f 130//240 123//240 117//240
f 132//241 123//241 130//241
f 133//242 132//242 130//242
f 130//243 131//243 134//243
f 130//244 134//244 133//244
f 134//245 120//245 125//245
f 134//246 131//246 120//246
f 126//247 122//247 132//247
f 132//248 127//248 126//248
f 132//249 133//249 127//249
f 133//250 128//250 127//250
f 133//251 134//251 128//251
f 134//252 125//252 128//252
f 135//253 137//253 136//253
f 138//254 137//254 139//254
f 138//255 136//255 137//255
f 140//256 138//256 139//256
f 135//257 141//257 137//257
f 135//258 142//258 141//258
f 139//259 144//259 143//259
f 141//260 144//260 139//260
f 137//261 141//261 139//261
f 143//262 140//262 139//262
f 145//263 141//263 142//263
f 145//264 144//264 141//264
f 135//265 136//265 146//265
f 147//266 136//266 138//266
f 147//267 146//267 136//267
f 147//268 138//268 140//268
f 142//269 146//269 148//269
f 142//270 135//270 146//270
f 148//271 143//271 144//271
f 147//272 143//272 148//272
f 146//273 147//273 148//273
f 147//274 140//274 143//274
f 145//275 142//275 148//275
f 148//276 144//276 145//276

# Thankyou for using Spin3D

