# Created using Spin3D

# Vertex Array
v 5.734 -36.075 29.445
v 5.735 -36.075 29.446
v 5.735 -36.076 29.445
v 5.736 -36.075 29.445
v 5.735 -36.075 29.444
v 5.735 -36.074 29.445
v 2.036 -27.052 60.770
v 2.266 -26.779 60.911
v 2.320 -27.123 60.823
v 3.189 -26.296 60.461
v 2.352 -26.698 60.069
v 1.849 -25.945 60.211
v 2.654 -25.548 60.875
v 3.981 -24.793 60.762
v 0.559 -24.114 57.217
v 0.962 -24.139 58.732
v 1.747 -25.564 58.337
v 3.850 -25.834 58.519
v 5.495 -24.878 59.486
v 6.544 -24.921 57.722
v 7.467 -24.322 58.470
v 1.298 -24.555 56.208
v 0.224 -22.868 55.619
v 2.838 -25.314 56.777
v 5.175 -24.805 56.079
v 8.594 -23.925 57.290
v 7.897 -24.275 56.155
v 9.445 -23.791 56.144
v 1.126 -23.576 54.824
v 2.848 -24.143 54.929
v 1.854 -22.849 53.980
v 7.137 -23.495 54.697
v 4.947 -23.705 54.364
v 9.173 -23.482 55.362
v 3.733 -22.375 53.561
v 6.316 -17.924 28.327
v 6.377 -17.791 28.539
v 6.593 -18.111 28.177
v 6.772 -18.013 28.243
v 6.657 -18.182 27.999
v 6.602 -18.058 28.015
v 6.893 -18.160 27.993
v 6.889 -18.115 27.889
v 2.199 -23.524 60.102
v 3.140 -24.295 61.011
v 3.979 -23.500 60.854
v 0.079 -22.236 57.094
v 0.882 -22.184 58.556
v 5.552 -23.036 60.078
v 7.362 -23.396 59.001
v 8.310 -23.607 58.216
v 8.734 -22.342 57.632
v -0.210 -21.423 55.765
v 2.809 -22.160 56.072
v 2.808 -22.158 56.072
v 2.809 -22.159 56.073
v 2.811 -22.158 56.072
v 9.805 -23.156 56.397
v 10.096 -23.364 55.748
v 10.229 -22.943 55.793
v 0.775 -22.326 54.307
v 0.272 -20.715 54.648
v 2.809 -22.158 56.071
v 5.792 -22.660 53.684
v 7.113 -22.132 53.826
v 8.655 -22.259 54.708
v 9.909 -22.899 55.398
v 1.856 -20.973 53.548
v 3.684 -20.494 53.096
v 5.616 -21.004 53.345
v 5.812 -17.465 28.899
v 6.029 -17.430 28.887
v 5.987 -17.634 28.726
v 6.458 -17.474 28.758
v 6.795 -17.705 28.479
v 7.052 -17.917 28.162
v 7.062 -17.599 28.387
v 6.006 -17.525 28.710
v 6.437 -17.748 28.276
v 7.099 -18.014 27.952
v 7.165 -17.711 28.155
v 6.773 -17.914 27.994
v 7.040 -17.836 27.994
v 3.269 -23.316 60.812
v 0.442 -20.618 57.543
v 2.008 -20.189 58.521
v 4.015 -21.631 59.970
v 6.001 -21.036 59.549
v 7.336 -21.673 59.031
v 7.990 -20.521 57.996
v 0.003 -19.729 55.989
v 0.674 -19.110 57.101
v 2.809 -22.157 56.072
v 9.507 -22.063 55.874
v 8.435 -20.358 56.590
v 0.281 -18.811 54.651
v 7.419 -20.969 53.960
v 8.226 -20.487 55.002
v 1.169 -18.973 53.845
v 2.855 -19.015 53.333
v 4.581 -19.340 53.275
v 6.329 -19.228 54.077
v 5.838 -17.380 28.934
v 6.091 -17.282 28.878
v 6.397 -17.233 28.870
v 6.790 -17.368 28.666
v 7.017 -17.377 28.462
v 6.773 -17.589 28.227
v 6.384 -17.373 28.593
v 7.045 -17.519 28.238
v 6.775 -17.283 28.521
v 3.755 -19.586 58.923
v 5.382 -19.336 58.701
v 6.969 -20.100 58.720
v 0.555 -18.076 56.197
v 1.658 -17.935 56.917
v 3.652 -18.053 57.660
v 5.439 -17.781 57.361
v 5.916 -17.446 56.140
v 7.006 -18.906 57.383
v 0.504 -17.801 55.208
v 1.234 -17.174 55.778
v 7.207 -18.746 55.605
v 5.786 -17.667 54.876
v 0.917 -17.748 54.326
v 2.169 -17.579 53.949
v 4.204 -17.767 53.984
v 6.455 -17.170 28.784
v 6.722 -17.184 28.720
v 2.817 -16.857 55.908
v 4.532 -16.987 56.480
v 1.612 -16.967 54.844
v 3.005 -16.819 54.638
v 4.447 -16.854 55.243
v 4.136 -8.194 45.132
v 4.132 -8.194 45.127
v 4.134 -8.193 45.129
v 4.132 -8.192 45.125
v 4.133 -8.193 45.126
v 4.131 -8.193 45.123
v 4.136 -8.194 45.131
v 4.139 -8.195 45.132
v 4.135 -8.194 45.127
v 4.137 -8.193 45.129
v 4.140 -8.194 45.132
v 4.135 -8.195 45.129
v 4.132 -8.194 45.127
v 4.138 -8.194 45.130

# Normal Array
vn -0.590 -0.655 0.472
vn 0.584 -0.663 0.469
vn -0.588 -0.464 -0.662
vn 0.585 -0.477 -0.656
vn -0.586 0.476 0.655
vn 0.590 0.464 0.661
vn -0.585 0.662 -0.469
vn 0.591 0.654 -0.471
vn -0.242 -0.276 0.930
vn 0.494 -0.144 0.858
vn -0.126 -0.862 -0.491
vn 0.541 -0.742 -0.395
vn -0.685 0.236 0.689
vn -0.691 0.230 0.685
vn 0.488 -0.129 0.863
vn 0.259 -0.319 0.911
vn -0.830 -0.516 0.212
vn -0.062 -0.845 -0.531
vn -0.836 -0.545 -0.065
vn -0.746 -0.396 -0.535
vn -0.880 -0.472 -0.048
vn 0.565 -0.438 0.699
vn 0.515 -0.857 -0.029
vn 0.375 -0.894 0.245
vn 0.454 -0.889 -0.057
vn 0.379 -0.892 0.247
vn -0.682 -0.706 -0.191
vn -0.755 -0.585 -0.297
vn -0.104 -0.968 -0.228
vn -0.304 -0.884 -0.355
vn 0.238 -0.934 -0.265
vn 0.103 -0.935 -0.339
vn 0.457 -0.878 0.141
vn 0.438 -0.899 0.008
vn 0.192 -0.955 -0.228
vn 0.297 -0.948 0.110
vn -0.744 -0.586 -0.322
vn -0.175 -0.666 -0.725
vn -0.233 -0.808 -0.542
vn -0.213 -0.825 -0.524
vn 0.162 -0.821 -0.548
vn 0.029 -0.840 -0.542
vn 0.024 -0.845 -0.535
vn 0.176 -0.827 -0.534
vn 0.180 -0.825 -0.535
vn 0.266 -0.861 -0.433
vn -0.025 -0.604 -0.797
vn -0.098 -0.578 -0.810
vn -0.231 -0.794 0.562
vn 0.128 -0.705 0.697
vn -0.490 -0.856 0.163
vn -0.765 -0.265 -0.588
vn 0.221 -0.790 0.571
vn 0.095 -0.912 0.399
vn -0.412 -0.068 -0.909
vn 0.076 -0.915 -0.397
vn -0.617 0.156 0.771
vn -0.669 0.130 0.732
vn 0.182 -0.175 0.968
vn 0.245 -0.069 0.967
vn -0.877 0.007 0.481
vn -0.943 -0.225 0.247
vn -0.765 0.139 0.629
vn -0.748 0.029 0.663
vn 0.457 -0.063 0.887
vn 0.614 -0.259 0.746
vn 0.541 -0.371 0.754
vn 0.506 -0.385 0.772
vn 0.447 -0.286 0.847
vn 0.649 0.129 0.750
vn -0.969 -0.247 0.011
vn -0.957 -0.290 0.030
vn -0.576 -0.646 0.501
vn 0.535 -0.672 0.512
vn 0.657 -0.627 0.417
vn 0.666 -0.569 0.482
vn 0.691 -0.569 0.446
vn 0.664 -0.214 0.716
vn 0.928 -0.155 0.338
vn 0.826 -0.310 0.470
vn -0.763 -0.418 -0.493
vn -0.878 -0.180 -0.443
vn -0.845 -0.204 -0.494
vn -0.603 -0.480 -0.637
vn -0.451 -0.446 -0.773
vn 0.176 -0.633 -0.754
vn 0.575 -0.504 -0.644
vn 0.291 -0.512 -0.808
vn 0.403 -0.488 -0.774
vn 0.293 -0.351 -0.889
vn 0.291 -0.851 -0.438
vn 0.393 -0.446 -0.804
vn 0.314 -0.341 -0.886
vn 0.756 -0.171 -0.632
vn -0.571 -0.004 -0.821
vn -0.375 -0.207 -0.904
vn -0.159 -0.221 -0.962
vn -0.173 -0.240 -0.955
vn -0.023 -0.532 -0.846
vn 0.031 -0.197 -0.980
vn 0.062 -0.238 -0.969
vn 0.176 -0.179 -0.968
vn 0.145 -0.632 0.761
vn -0.077 -0.836 0.544
vn 0.113 -0.631 0.768
vn 0.179 -0.588 0.789
vn 0.405 -0.575 0.711
vn 0.234 -0.602 0.763
vn 0.233 -0.590 0.773
vn 0.458 -0.523 0.719
vn -0.697 0.012 -0.717
vn -0.760 0.033 -0.649
vn -0.633 0.220 -0.742
vn -0.659 0.247 -0.710
vn 0.575 -0.686 0.447
vn 0.411 -0.685 0.601
vn 0.750 -0.398 0.528
vn 0.813 -0.437 0.386
vn -0.451 0.422 -0.786
vn -0.339 0.273 -0.900
vn 0.491 -0.793 -0.361
vn 0.153 0.273 -0.950
vn -0.118 0.404 -0.907
vn 0.576 0.364 -0.732
vn -0.569 0.235 0.788
vn -0.007 0.200 0.980
vn -0.876 0.063 0.479
vn -0.563 0.331 0.757
vn -0.559 0.329 0.761
vn -0.341 0.387 0.857
vn -0.532 0.555 0.639
vn 0.057 0.426 0.903
vn 0.307 0.402 0.863
vn 0.137 0.225 0.965
vn 0.510 -0.007 0.860
vn 0.417 0.144 0.898
vn 0.707 -0.002 0.707
vn 0.736 0.170 0.655
vn -0.884 0.252 0.394
vn -0.936 0.118 0.332
vn -0.961 0.086 0.262
vn -0.553 0.480 0.681
vn -0.563 0.311 0.766
vn 0.585 0.455 0.671
vn 0.804 0.420 0.420
vn 0.836 0.348 0.423
vn 0.898 0.303 0.319
vn 0.638 0.467 0.612
vn -0.939 0.159 -0.305
vn -0.980 0.005 -0.200
vn -0.547 0.683 -0.484
vn 0.594 0.652 -0.470
vn 0.495 -0.030 -0.869
vn 0.806 0.571 -0.153
vn 0.752 0.281 -0.597
vn 0.599 0.594 -0.537
vn 0.693 0.278 -0.665
vn 0.661 0.585 -0.470
vn -0.672 0.004 -0.741
vn -0.577 -0.078 -0.813
vn -0.245 0.018 -0.969
vn -0.289 0.042 -0.956
vn 0.139 0.045 -0.989
vn -0.004 0.156 -0.988
vn 0.322 0.024 -0.946
vn 0.308 0.254 -0.917
vn 0.397 0.209 -0.894
vn 0.609 0.427 -0.668
vn 0.116 -0.401 0.909
vn 0.228 -0.032 0.973
vn 0.016 0.059 0.998
vn 0.236 -0.361 0.902
vn 0.368 -0.445 0.816
vn 0.347 -0.323 0.881
vn 0.444 -0.428 0.787
vn 0.660 -0.119 0.742
vn -0.549 0.452 -0.703
vn -0.374 0.567 -0.734
vn -0.440 0.543 -0.716
vn -0.447 0.610 -0.654
vn -0.390 0.613 -0.688
vn -0.148 0.685 -0.713
vn -0.280 0.666 -0.692
vn 0.202 0.838 -0.506
vn 0.753 0.594 -0.283
vn 0.921 0.054 0.385
vn -0.366 0.543 -0.756
vn -0.168 0.575 -0.801
vn -0.124 0.607 -0.785
vn 0.386 0.559 -0.734
vn -0.334 0.395 0.856
vn 0.050 0.460 0.887
vn 0.050 0.460 0.887
vn 0.458 0.274 0.845
vn 0.231 0.500 0.835
vn 0.630 0.289 0.720
vn -0.884 0.245 0.397
vn -0.510 0.532 0.676
vn -0.429 0.479 0.766
vn -0.268 0.530 0.804
vn -0.367 0.577 0.729
vn 0.008 0.637 0.771
vn 0.027 0.652 0.758
vn 0.528 0.744 0.411
vn 0.411 0.587 0.698
vn 0.329 0.700 0.634
vn 0.757 0.577 0.306
vn 0.617 0.578 0.534
vn -0.729 0.649 0.218
vn -0.945 0.299 0.132
vn -0.971 0.236 -0.039
vn -0.476 0.639 0.604
vn 0.731 0.667 0.142
vn 0.655 0.730 -0.196
vn 0.829 0.538 -0.153
vn 0.743 0.653 0.143
vn -0.842 0.391 -0.371
vn -0.647 0.159 -0.745
vn -0.274 0.266 -0.924
vn -0.312 0.291 -0.905
vn 0.049 0.420 -0.906
vn 0.054 0.415 -0.908
vn 0.666 0.510 -0.544
vn 0.393 0.524 -0.756
vn 0.348 0.453 -0.821
vn 0.632 0.557 -0.539
vn -0.119 0.834 0.538
vn 0.430 -0.106 0.897
vn 0.198 0.718 0.667
vn 0.668 0.027 0.744
vn -0.373 0.702 -0.607
vn -0.282 0.708 -0.647
vn -0.065 0.886 -0.460
vn 0.254 0.890 -0.378
vn -0.182 0.769 0.612
vn -0.001 0.742 0.670
vn -0.142 0.785 0.604
vn 0.374 0.847 0.379
vn -0.615 0.785 -0.075
vn -0.204 0.777 0.595
vn -0.205 0.970 0.132
vn -0.103 0.995 0.015
vn 0.040 0.994 0.104
vn 0.011 0.999 0.032
vn 0.468 0.861 -0.199
vn 0.331 0.940 0.078
vn -0.633 0.731 -0.253
vn -0.291 0.695 -0.657
vn -0.173 0.759 -0.627
vn 0.071 0.626 -0.776
vn 0.269 0.754 -0.599
vn 0.290 0.747 -0.598
vn -0.513 0.634 0.579
vn 0.239 0.970 -0.042
vn -0.456 0.819 0.348
vn 0.524 0.730 -0.438
vn 0.039 0.924 0.380
vn 0.229 0.856 0.463
vn 0.648 0.332 -0.685
vn 0.066 0.983 0.173
vn 0.504 0.856 -0.115
vn 0.679 0.524 -0.514
vn -0.223 0.067 0.973
vn 0.019 0.985 0.170
vn -0.478 -0.791 0.382
vn -0.347 -0.862 -0.369
vn -0.243 -0.954 -0.175
vn -0.955 -0.234 0.182
vn 0.209 -0.893 -0.399
vn -0.222 -0.925 0.310
vn 0.730 -0.151 -0.667
vn -0.017 -0.977 -0.215
vn 0.269 -0.726 -0.633
vn -0.015 -0.985 -0.170
vn 0.548 -0.564 -0.619
vn 0.588 -0.359 -0.725

# Facets
f 1//1 3//1 2//1
f 4//2 2//2 3//2
f 5//3 3//3 1//3
f 5//4 4//4 3//4
f 1//5 2//5 6//5
f 6//6 2//6 4//6
f 5//7 1//7 6//7
f 6//8 4//8 5//8
f 7//9 9//9 8//9
f 10//10 8//10 9//10
f 11//11 9//11 7//11
f 11//12 10//12 9//12
f 12//13 8//13 13//13
f 12//14 7//14 8//14
f 10//15 13//15 8//15
f 10//16 14//16 13//16
f 15//17 17//17 16//17
f 18//18 11//18 17//18
f 17//19 11//19 12//19
f 12//20 11//20 7//20
f 12//21 16//21 17//21
f 10//22 19//22 14//22
f 18//23 19//23 10//23
f 20//24 19//24 18//24
f 11//25 18//25 10//25
f 21//26 19//26 20//26
f 15//27 22//27 17//27
f 15//28 23//28 22//28
f 24//29 18//29 17//29
f 22//30 24//30 17//30
f 25//31 20//31 18//31
f 24//32 25//32 18//32
f 20//33 26//33 21//33
f 27//34 26//34 20//34
f 25//35 27//35 20//35
f 28//36 26//36 27//36
f 29//37 22//37 23//37
f 30//38 29//38 31//38
f 22//39 29//39 30//39
f 24//40 22//40 30//40
f 25//41 33//41 32//41
f 30//42 33//42 25//42
f 24//43 30//43 25//43
f 32//44 27//44 25//44
f 32//45 34//45 27//45
f 34//46 28//46 27//46
f 35//47 30//47 31//47
f 35//48 33//48 30//48
f 36//49 38//49 37//49
f 39//50 37//50 38//50
f 36//51 40//51 38//51
f 36//52 41//52 40//52
f 38//53 42//53 39//53
f 38//54 40//54 42//54
f 43//55 40//55 41//55
f 43//56 42//56 40//56
f 44//57 13//57 45//57
f 44//58 12//58 13//58
f 14//59 45//59 13//59
f 14//60 46//60 45//60
f 47//61 16//61 48//61
f 47//62 15//62 16//62
f 12//63 44//63 16//63
f 44//64 48//64 16//64
f 46//65 14//65 49//65
f 14//66 19//66 49//66
f 50//67 21//67 51//67
f 19//68 21//68 50//68
f 49//69 19//69 50//69
f 52//70 50//70 51//70
f 23//71 15//71 47//71
f 23//72 47//72 53//72
f 54//73 56//73 55//73
f 56//74 54//74 57//74
f 51//75 21//75 26//75
f 58//76 28//76 59//76
f 58//77 26//77 28//77
f 52//78 26//78 58//78
f 51//79 26//79 52//79
f 60//80 58//80 59//80
f 23//81 61//81 29//81
f 62//82 61//82 23//82
f 53//83 62//83 23//83
f 54//84 55//84 63//84
f 61//85 31//85 29//85
f 64//86 32//86 33//86
f 54//87 63//87 57//87
f 64//88 65//88 32//88
f 32//89 65//89 66//89
f 32//90 66//90 34//90
f 34//91 59//91 28//91
f 67//92 59//92 34//92
f 66//93 67//93 34//93
f 67//94 60//94 59//94
f 68//95 61//95 62//95
f 68//96 31//96 61//96
f 35//97 31//97 68//97
f 69//98 35//98 68//98
f 35//99 64//99 33//99
f 70//100 64//100 35//100
f 69//101 70//101 35//101
f 70//102 65//102 64//102
f 71//103 73//103 72//103
f 37//104 73//104 36//104
f 72//105 73//105 37//105
f 74//106 72//106 37//106
f 75//107 39//107 76//107
f 37//108 39//108 75//108
f 74//109 37//109 75//109
f 77//110 75//110 76//110
f 78//111 73//111 71//111
f 73//112 78//112 36//112
f 36//113 78//113 79//113
f 36//114 79//114 41//114
f 80//115 76//115 42//115
f 76//116 39//116 42//116
f 76//117 81//117 77//117
f 76//118 80//118 81//118
f 82//119 41//119 79//119
f 82//120 43//120 41//120
f 43//121 80//121 42//121
f 83//122 80//122 43//122
f 82//123 83//123 43//123
f 83//124 81//124 80//124
f 44//125 45//125 84//125
f 84//126 45//126 46//126
f 47//127 48//127 85//127
f 85//128 48//128 86//128
f 48//129 44//129 86//129
f 86//130 44//130 87//130
f 87//131 44//131 84//131
f 84//132 46//132 87//132
f 87//133 46//133 49//133
f 87//134 49//134 88//134
f 49//135 50//135 89//135
f 88//136 49//136 89//136
f 52//137 89//137 50//137
f 52//138 90//138 89//138
f 91//139 85//139 92//139
f 47//140 85//140 91//140
f 53//141 47//141 91//141
f 56//142 93//142 55//142
f 92//143 85//143 86//143
f 56//144 57//144 93//144
f 58//145 94//145 52//145
f 52//146 94//146 95//146
f 52//147 95//147 90//147
f 94//148 58//148 60//148
f 62//149 53//149 91//149
f 62//150 91//150 96//150
f 55//151 93//151 63//151
f 57//152 63//152 93//152
f 97//153 66//153 65//153
f 95//154 94//154 98//154
f 98//155 94//155 66//155
f 66//156 94//156 67//156
f 66//157 97//157 98//157
f 94//158 60//158 67//158
f 99//159 62//159 96//159
f 99//160 68//160 62//160
f 100//161 69//161 68//161
f 100//162 68//162 99//162
f 101//163 70//163 69//163
f 101//164 69//164 100//164
f 70//165 97//165 65//165
f 102//166 97//166 70//166
f 101//167 102//167 70//167
f 102//168 98//168 97//168
f 71//169 72//169 103//169
f 72//170 104//170 103//170
f 105//171 104//171 72//171
f 74//172 105//172 72//172
f 74//173 75//173 106//173
f 105//174 74//174 106//174
f 77//175 106//175 75//175
f 77//176 107//176 106//176
f 78//177 71//177 103//177
f 108//178 79//178 109//178
f 79//179 78//179 109//179
f 109//180 78//180 104//180
f 104//181 78//181 103//181
f 110//182 108//182 111//182
f 108//183 109//183 111//183
f 107//184 110//184 111//184
f 81//185 110//185 107//185
f 77//186 81//186 107//186
f 82//187 79//187 108//187
f 108//188 83//188 82//188
f 108//189 110//189 83//189
f 110//190 81//190 83//190
f 86//191 87//191 112//191
f 113//192 87//192 88//192
f 113//193 112//193 87//193
f 114//194 88//194 89//194
f 114//195 113//195 88//195
f 114//196 89//196 90//196
f 91//197 92//197 115//197
f 115//198 92//198 116//198
f 92//199 86//199 116//199
f 116//200 86//200 117//200
f 117//201 86//201 112//201
f 112//202 113//202 117//202
f 113//203 118//203 117//203
f 119//204 118//204 120//204
f 120//205 118//205 113//205
f 120//206 113//206 114//206
f 120//207 90//207 95//207
f 120//208 114//208 90//208
f 121//209 115//209 122//209
f 91//210 115//210 121//210
f 96//211 91//211 121//211
f 115//212 116//212 122//212
f 120//213 123//213 119//213
f 123//214 124//214 119//214
f 123//215 95//215 98//215
f 123//216 120//216 95//216
f 125//217 96//217 121//217
f 125//218 99//218 96//218
f 126//219 100//219 99//219
f 126//220 99//220 125//220
f 127//221 101//221 100//221
f 127//222 100//222 126//222
f 102//223 124//223 123//223
f 127//224 124//224 102//224
f 101//225 127//225 102//225
f 123//226 98//226 102//226
f 104//227 105//227 128//227
f 129//228 105//228 106//228
f 129//229 128//229 105//229
f 129//230 106//230 107//230
f 109//231 104//231 128//231
f 128//232 111//232 109//232
f 128//233 129//233 111//233
f 129//234 107//234 111//234
f 116//235 117//235 130//235
f 131//236 117//236 118//236
f 131//237 130//237 117//237
f 131//238 118//238 119//238
f 121//239 122//239 132//239
f 130//240 122//240 116//240
f 132//241 122//241 130//241
f 133//242 132//242 130//242
f 130//243 131//243 134//243
f 130//244 134//244 133//244
f 134//245 119//245 124//245
f 134//246 131//246 119//246
f 125//247 121//247 132//247
f 132//248 126//248 125//248
f 132//249 133//249 126//249
f 133//250 127//250 126//250
f 133//251 134//251 127//251
f 134//252 124//252 127//252
f 135//253 137//253 136//253
f 138//254 137//254 139//254
f 138//255 136//255 137//255
f 140//256 138//256 139//256
f 135//257 141//257 137//257
f 135//258 142//258 141//258
f 139//259 144//259 143//259
f 141//260 144//260 139//260
f 137//261 141//261 139//261
f 143//262 140//262 139//262
f 145//263 141//263 142//263
f 145//264 144//264 141//264
f 135//265 136//265 146//265
f 147//266 136//266 138//266
f 147//267 146//267 136//267
f 147//268 138//268 140//268
f 142//269 146//269 148//269
f 142//270 135//270 146//270
f 148//271 143//271 144//271
f 147//272 143//272 148//272
f 146//273 147//273 148//273
f 147//274 140//274 143//274
f 145//275 142//275 148//275
f 148//276 144//276 145//276

# Thankyou for using Spin3D

