# Created using Spin3D

# Vertex Array
v 5.734 -36.075 29.445
v 5.735 -36.075 29.446
v 5.735 -36.076 29.445
v 5.736 -36.075 29.445
v 5.735 -36.075 29.444
v 5.735 -36.074 29.445
v 2.583 -27.245 60.983
v 2.890 -26.969 61.222
v 2.820 -27.468 61.112
v 3.361 -27.139 60.988
v 2.932 -26.967 60.215
v 2.265 -26.068 60.361
v 3.011 -25.695 61.110
v 4.017 -26.108 61.117
v 4.574 -26.375 60.015
v 5.196 -25.700 60.601
v 0.642 -24.225 57.242
v 1.164 -24.224 58.800
v 1.933 -25.725 58.347
v 3.849 -26.176 58.298
v 6.118 -25.450 58.036
v 6.544 -24.917 59.543
v 1.328 -24.683 56.202
v 0.227 -22.983 55.597
v 2.852 -25.500 56.722
v 5.080 -25.032 56.090
v 8.280 -24.147 57.688
v 7.737 -24.485 56.303
v 9.342 -23.904 56.304
v 1.102 -23.683 54.805
v 2.820 -24.261 54.902
v 1.807 -22.902 53.911
v 7.109 -23.606 54.707
v 4.916 -23.811 54.338
v 9.148 -23.570 55.424
v 3.696 -22.371 53.456
v 7.106 -17.907 28.615
v 7.144 -17.725 28.648
v 7.163 -17.739 28.602
v 7.133 -17.827 28.606
v 7.145 -17.842 28.573
v 2.570 -23.553 60.217
v 3.892 -24.530 61.168
v 4.742 -23.250 60.985
v 5.450 -24.443 60.769
v 0.150 -22.334 57.102
v 1.041 -22.240 58.612
v 6.037 -22.395 60.375
v 7.214 -23.252 59.671
v 7.925 -23.751 58.843
v 8.640 -22.310 57.940
v -0.191 -21.534 55.701
v 9.734 -23.211 56.569
v 10.083 -23.419 55.835
v 10.235 -22.973 55.872
v 0.734 -22.396 54.228
v 0.260 -20.785 54.459
v 5.786 -22.708 53.627
v 7.128 -22.169 53.767
v 8.676 -22.302 54.700
v 9.929 -22.938 55.444
v 1.768 -20.864 53.313
v 3.600 -20.213 52.810
v 5.605 -20.919 53.173
v 7.235 -17.344 28.682
v 7.209 -17.493 28.653
v 7.236 -17.584 28.539
v 7.207 -17.529 28.628
v 7.304 -17.289 28.572
v 7.245 -17.592 28.521
v 7.294 -17.335 28.575
v 7.330 -17.390 28.465
v 7.364 -17.216 28.493
v 7.350 -17.306 28.478
v 7.400 -17.163 28.455
v 3.847 -23.244 60.934
v 0.530 -20.686 57.535
v 2.161 -20.168 58.533
v 4.379 -21.424 60.092
v 6.242 -20.724 59.736
v 7.444 -21.406 59.330
v 8.019 -20.394 58.157
v 0.081 -19.773 55.821
v 0.759 -19.142 57.012
v 9.509 -22.073 55.950
v 8.433 -20.312 56.642
v 0.412 -18.735 54.186
v 7.441 -20.952 53.848
v 8.240 -20.463 54.931
v 1.052 -19.027 53.373
v 2.599 -18.079 52.724
v 4.518 -18.948 52.864
v 6.320 -19.049 53.785
v 7.327 -17.016 28.690
v 7.304 -17.139 28.667
v 7.308 -17.140 28.650
v 7.387 -17.002 28.573
v 7.377 -16.990 28.605
v 7.402 -17.055 28.514
v 7.420 -16.878 28.584
v 7.425 -16.996 28.501
v 3.916 -19.479 58.957
v 5.507 -19.187 58.748
v 7.073 -19.909 58.862
v 0.668 -18.028 55.952
v 1.739 -17.849 56.736
v 3.703 -17.939 57.550
v 5.433 -17.672 57.245
v 5.835 -17.271 55.866
v 7.023 -18.804 57.370
v 0.719 -17.568 54.696
v 1.379 -16.918 55.368
v 7.186 -18.651 55.442
v 5.709 -17.392 54.448
v 1.375 -17.166 53.286
v 2.047 -15.926 52.893
v 2.156 -16.349 52.534
v 2.813 -16.327 52.580
v 4.200 -17.149 53.230
v 2.414 -15.765 52.542
v 7.379 -16.893 28.660
v 7.382 -16.895 28.649
v 2.832 -16.476 55.510
v 4.460 -16.773 56.178
v 1.895 -16.194 54.040
v 2.910 -15.828 54.218
v 4.176 -16.315 54.568
v 2.890 -15.855 53.231
v 4.136 -8.194 45.132
v 4.132 -8.194 45.127
v 4.134 -8.193 45.129
v 4.132 -8.192 45.125
v 4.133 -8.193 45.126
v 4.131 -8.193 45.123
v 4.136 -8.194 45.131
v 4.139 -8.195 45.132
v 4.135 -8.194 45.127
v 4.137 -8.193 45.129
v 4.140 -8.194 45.132
v 4.135 -8.195 45.129
v 4.132 -8.194 45.127
v 4.138 -8.194 45.130

# Normal Array
vn -0.590 -0.655 0.472
vn 0.584 -0.663 0.469
vn -0.588 -0.464 -0.662
vn 0.585 -0.477 -0.656
vn -0.586 0.476 0.655
vn 0.590 0.464 0.661
vn -0.585 0.662 -0.469
vn 0.591 0.654 -0.471
vn -0.551 -0.106 0.828
vn 0.357 -0.250 0.900
vn -0.450 -0.755 -0.478
vn 0.405 -0.819 -0.407
vn -0.734 0.129 0.667
vn -0.699 0.177 0.693
vn 0.710 -0.512 0.483
vn 0.327 -0.319 0.890
vn 0.028 0.085 0.996
vn 0.456 -0.785 0.420
vn -0.820 -0.503 0.275
vn -0.215 -0.862 -0.458
vn -0.800 -0.599 0.030
vn -0.732 -0.462 -0.500
vn -0.880 -0.470 0.065
vn 0.279 -0.893 -0.353
vn 0.304 -0.923 -0.235
vn 0.274 -0.935 -0.224
vn 0.614 -0.758 0.222
vn 0.608 -0.787 0.106
vn -0.694 -0.705 -0.147
vn -0.770 -0.587 -0.249
vn -0.228 -0.939 -0.258
vn -0.359 -0.875 -0.324
vn 0.253 -0.909 -0.330
vn 0.068 -0.901 -0.429
vn 0.528 -0.837 0.146
vn 0.517 -0.856 0.006
vn 0.216 -0.925 -0.313
vn 0.338 -0.936 0.095
vn -0.748 -0.591 -0.302
vn -0.183 -0.664 -0.725
vn -0.241 -0.807 -0.539
vn -0.246 -0.803 -0.543
vn 0.171 -0.801 -0.574
vn 0.022 -0.819 -0.573
vn 0.014 -0.826 -0.563
vn 0.212 -0.819 -0.534
vn 0.202 -0.822 -0.532
vn 0.312 -0.863 -0.397
vn -0.024 -0.600 -0.799
vn -0.094 -0.577 -0.811
vn 0.862 -0.258 0.437
vn -0.885 0.254 -0.391
vn 0.876 -0.265 0.404
vn -0.869 0.245 -0.429
vn -0.420 0.274 0.865
vn -0.733 0.127 0.668
vn 0.249 -0.028 0.968
vn 0.249 -0.012 0.969
vn -0.021 -0.034 0.999
vn 0.451 -0.207 0.868
vn -0.861 -0.006 0.509
vn -0.925 -0.218 0.310
vn -0.734 0.127 0.667
vn -0.715 0.021 0.699
vn 0.390 0.065 0.919
vn 0.680 -0.231 0.696
vn 0.645 -0.313 0.697
vn 0.521 0.015 0.853
vn 0.624 -0.306 0.719
vn 0.766 0.023 0.643
vn -0.967 -0.248 0.057
vn -0.957 -0.281 0.072
vn 0.701 -0.581 0.415
vn 0.673 -0.563 0.479
vn 0.700 -0.563 0.439
vn 0.682 -0.229 0.695
vn 0.906 -0.226 0.356
vn 0.818 -0.318 0.479
vn -0.771 -0.431 -0.470
vn -0.887 -0.201 -0.415
vn -0.867 -0.219 -0.447
vn -0.446 -0.469 -0.762
vn 0.185 -0.632 -0.753
vn 0.294 -0.526 -0.798
vn 0.414 -0.502 -0.759
vn 0.313 -0.381 -0.870
vn 0.314 -0.862 -0.397
vn 0.416 -0.490 -0.766
vn 0.325 -0.375 -0.868
vn 0.785 -0.220 -0.579
vn -0.606 -0.065 -0.793
vn -0.386 -0.266 -0.883
vn -0.150 -0.281 -0.948
vn -0.157 -0.290 -0.944
vn -0.017 -0.533 -0.846
vn 0.040 -0.242 -0.969
vn 0.074 -0.283 -0.956
vn 0.190 -0.223 -0.956
vn 0.831 -0.245 0.500
vn 0.864 -0.252 0.436
vn -0.866 0.249 -0.433
vn -0.889 0.251 -0.383
vn -0.884 0.248 -0.397
vn -0.868 0.246 -0.431
vn 0.873 -0.266 0.408
vn 0.868 -0.252 0.427
vn 0.867 -0.252 0.430
vn -0.867 0.250 -0.431
vn -0.827 0.225 -0.516
vn -0.835 0.205 -0.511
vn -0.866 0.246 -0.436
vn -0.861 0.244 -0.446
vn 0.868 -0.252 0.427
vn 0.892 -0.271 0.363
vn 0.907 -0.268 0.324
vn -0.850 0.245 -0.467
vn -0.510 0.137 0.849
vn -0.055 0.177 0.983
vn -0.861 0.066 0.504
vn -0.567 0.335 0.753
vn -0.540 0.322 0.778
vn -0.382 0.374 0.845
vn -0.515 0.479 0.711
vn -0.049 0.431 0.901
vn 0.116 0.455 0.883
vn 0.046 0.352 0.935
vn 0.556 0.084 0.827
vn 0.443 0.273 0.854
vn 0.766 0.024 0.643
vn 0.803 0.196 0.563
vn -0.892 0.258 0.371
vn -0.939 0.134 0.317
vn -0.945 0.125 0.302
vn -0.567 0.339 0.751
vn 0.828 0.386 0.407
vn 0.841 0.353 0.409
vn 0.925 0.269 0.267
vn 0.639 0.462 0.616
vn -0.955 0.164 -0.248
vn -0.985 0.051 -0.167
vn 0.510 -0.074 -0.857
vn 0.819 0.556 -0.141
vn 0.782 0.257 -0.568
vn 0.611 0.599 -0.517
vn 0.721 0.252 -0.646
vn 0.681 0.587 -0.438
vn -0.790 -0.023 -0.613
vn -0.599 -0.208 -0.774
vn -0.216 -0.140 -0.966
vn -0.333 -0.099 -0.938
vn 0.154 -0.070 -0.986
vn 0.069 -0.008 -0.998
vn 0.345 -0.026 -0.938
vn 0.343 0.171 -0.924
vn 0.457 0.114 -0.882
vn 0.661 0.368 -0.654
vn 0.846 -0.248 0.472
vn 0.838 -0.244 0.488
vn -0.882 0.249 -0.401
vn -0.893 0.258 -0.368
vn -0.869 0.247 -0.429
vn -0.862 0.253 -0.439
vn 0.874 -0.249 0.417
vn 0.867 -0.248 0.432
vn 0.866 -0.249 0.434
vn 0.883 -0.246 0.400
vn 0.872 -0.252 0.419
vn -0.865 0.265 -0.427
vn -0.867 0.254 -0.429
vn -0.867 0.254 -0.429
vn 0.869 -0.244 0.430
vn 0.877 -0.243 0.415
vn 0.879 -0.242 0.412
vn -0.852 0.251 -0.460
vn -0.362 0.404 0.840
vn -0.036 0.528 0.848
vn 0.020 0.508 0.861
vn 0.478 0.368 0.798
vn 0.221 0.600 0.769
vn 0.669 0.368 0.645
vn -0.891 0.272 0.363
vn -0.551 0.551 0.627
vn -0.445 0.496 0.745
vn -0.298 0.550 0.780
vn -0.401 0.587 0.703
vn -0.026 0.672 0.740
vn 0.016 0.704 0.710
vn 0.518 0.769 0.375
vn 0.414 0.651 0.636
vn 0.313 0.768 0.558
vn 0.764 0.598 0.241
vn 0.647 0.623 0.440
vn -0.779 0.598 0.187
vn -0.947 0.313 0.076
vn -0.964 0.265 -0.027
vn -0.523 0.635 0.569
vn 0.727 0.677 0.115
vn 0.690 0.713 -0.122
vn 0.838 0.527 -0.141
vn 0.753 0.648 0.115
vn -0.880 0.365 -0.306
vn -0.763 0.103 -0.638
vn -0.797 0.258 -0.547
vn -0.542 -0.227 -0.809
vn -0.401 0.027 -0.916
vn 0.072 -0.090 -0.993
vn 0.362 -0.120 -0.925
vn 0.172 0.225 -0.959
vn 0.732 0.468 -0.495
vn 0.597 0.478 -0.644
vn 0.451 0.254 -0.856
vn 0.687 0.538 -0.488
vn -0.724 0.328 -0.607
vn 0.070 -0.018 -0.997
vn 0.849 -0.247 0.467
vn -0.879 0.265 -0.396
vn -0.905 0.313 -0.289
vn -0.865 0.261 -0.428
vn 0.870 -0.255 0.421
vn 0.873 -0.253 0.418
vn -0.781 0.540 -0.314
vn -0.861 0.265 -0.434
vn -0.227 0.743 0.630
vn -0.004 0.763 0.646
vn -0.106 0.786 0.609
vn 0.389 0.848 0.360
vn -0.739 0.669 0.079
vn -0.288 0.755 0.589
vn -0.304 0.881 0.363
vn -0.372 0.839 0.398
vn 0.068 0.963 0.262
vn 0.210 0.869 0.448
vn 0.564 0.817 -0.120
vn 0.372 0.908 0.193
vn -0.790 0.579 -0.203
vn -0.880 0.475 -0.006
vn -0.162 0.965 0.204
vn -0.336 0.942 -0.019
vn 0.602 0.611 -0.514
vn 0.645 0.654 -0.396
vn 0.367 0.930 -0.033
vn 0.488 0.745 -0.455
vn -0.179 0.952 0.249
vn 0.743 0.497 -0.449
vn -0.513 0.634 0.579
vn 0.239 0.970 -0.042
vn -0.456 0.819 0.348
vn 0.524 0.730 -0.438
vn 0.039 0.924 0.380
vn 0.229 0.856 0.463
vn 0.648 0.332 -0.685
vn 0.066 0.983 0.173
vn 0.504 0.856 -0.115
vn 0.679 0.524 -0.514
vn -0.223 0.067 0.973
vn 0.019 0.985 0.170
vn -0.478 -0.791 0.382
vn -0.347 -0.862 -0.369
vn -0.243 -0.954 -0.175
vn -0.955 -0.234 0.182
vn 0.209 -0.893 -0.399
vn -0.222 -0.925 0.310
vn 0.730 -0.151 -0.667
vn -0.017 -0.977 -0.215
vn 0.269 -0.726 -0.633
vn -0.015 -0.985 -0.170
vn 0.548 -0.564 -0.619
vn 0.588 -0.359 -0.725

# Facets
f 1//1 3//1 2//1
f 4//2 2//2 3//2
f 5//3 3//3 1//3
f 5//4 4//4 3//4
f 1//5 2//5 6//5
f 6//6 2//6 4//6
f 5//7 1//7 6//7
f 6//8 4//8 5//8
f 7//9 9//9 8//9
f 10//10 8//10 9//10
f 11//11 9//11 7//11
f 11//12 10//12 9//12
f 12//13 8//13 13//13
f 12//14 7//14 8//14
f 14//15 10//15 15//15
f 8//16 10//16 14//16
f 13//17 8//17 14//17
f 16//18 14//18 15//18
f 17//19 19//19 18//19
f 20//20 11//20 19//20
f 19//21 11//21 12//21
f 12//22 11//22 7//22
f 12//23 18//23 19//23
f 10//24 11//24 15//24
f 15//25 11//25 20//25
f 15//26 20//26 21//26
f 15//27 22//27 16//27
f 15//28 21//28 22//28
f 17//29 23//29 19//29
f 17//30 24//30 23//30
f 25//31 20//31 19//31
f 23//32 25//32 19//32
f 26//33 21//33 20//33
f 25//34 26//34 20//34
f 21//35 27//35 22//35
f 28//36 27//36 21//36
f 26//37 28//37 21//37
f 29//38 27//38 28//38
f 30//39 23//39 24//39
f 31//40 30//40 32//40
f 23//41 30//41 31//41
f 25//42 23//42 31//42
f 26//43 34//43 33//43
f 31//44 34//44 26//44
f 25//45 31//45 26//45
f 33//46 28//46 26//46
f 33//47 35//47 28//47
f 35//48 29//48 28//48
f 36//49 31//49 32//49
f 36//50 34//50 31//50
f 37//51 39//51 38//51
f 38//52 40//52 37//52
f 37//53 41//53 39//53
f 40//54 41//54 37//54
f 42//55 13//55 43//55
f 42//56 12//56 13//56
f 43//57 45//57 44//57
f 14//58 45//58 43//58
f 13//59 14//59 43//59
f 45//60 14//60 16//60
f 46//61 18//61 47//61
f 46//62 17//62 18//62
f 12//63 42//63 18//63
f 42//64 47//64 18//64
f 44//65 45//65 48//65
f 22//66 45//66 16//66
f 49//67 45//67 22//67
f 48//68 45//68 49//68
f 22//69 50//69 49//69
f 51//70 49//70 50//70
f 24//71 17//71 46//71
f 24//72 46//72 52//72
f 50//73 22//73 27//73
f 53//74 29//74 54//74
f 53//75 27//75 29//75
f 51//76 27//76 53//76
f 50//77 27//77 51//77
f 55//78 53//78 54//78
f 24//79 56//79 30//79
f 57//80 56//80 24//80
f 52//81 57//81 24//81
f 32//82 30//82 56//82
f 58//83 33//83 34//83
f 58//84 59//84 33//84
f 33//85 59//85 60//85
f 33//86 60//86 35//86
f 35//87 54//87 29//87
f 61//88 54//88 35//88
f 60//89 61//89 35//89
f 61//90 55//90 54//90
f 62//91 56//91 57//91
f 62//92 32//92 56//92
f 36//93 32//93 62//93
f 63//94 36//94 62//94
f 36//95 58//95 34//95
f 64//96 58//96 36//96
f 63//97 64//97 36//97
f 64//98 59//98 58//98
f 38//99 66//99 65//99
f 39//100 66//100 38//100
f 40//101 68//101 67//101
f 40//102 38//102 68//102
f 38//103 65//103 68//103
f 68//104 69//104 67//104
f 70//105 39//105 41//105
f 70//106 71//106 39//106
f 71//107 66//107 39//107
f 41//108 40//108 67//108
f 41//109 67//109 70//109
f 70//110 67//110 72//110
f 73//111 67//111 69//111
f 72//112 67//112 73//112
f 70//113 74//113 71//113
f 72//114 74//114 70//114
f 75//115 74//115 72//115
f 73//116 75//116 72//116
f 42//117 43//117 76//117
f 76//118 43//118 44//118
f 46//119 47//119 77//119
f 77//120 47//120 78//120
f 47//121 42//121 78//121
f 78//122 42//122 79//122
f 79//123 42//123 76//123
f 76//124 44//124 79//124
f 79//125 44//125 48//125
f 79//126 48//126 80//126
f 48//127 49//127 81//127
f 80//128 48//128 81//128
f 51//129 81//129 49//129
f 51//130 82//130 81//130
f 83//131 77//131 84//131
f 46//132 77//132 83//132
f 52//133 46//133 83//133
f 77//134 78//134 84//134
f 53//135 85//135 51//135
f 51//136 85//136 86//136
f 51//137 86//137 82//137
f 85//138 53//138 55//138
f 57//139 52//139 83//139
f 57//140 83//140 87//140
f 88//141 60//141 59//141
f 86//142 85//142 89//142
f 89//143 85//143 60//143
f 60//144 85//144 61//144
f 60//145 88//145 89//145
f 85//146 55//146 61//146
f 90//147 57//147 87//147
f 90//148 62//148 57//148
f 91//149 63//149 62//149
f 91//150 62//150 90//150
f 92//151 64//151 63//151
f 92//152 63//152 91//152
f 64//153 88//153 59//153
f 93//154 88//154 64//154
f 92//155 93//155 64//155
f 93//156 89//156 88//156
f 65//157 95//157 94//157
f 66//158 95//158 65//158
f 68//159 65//159 96//159
f 65//160 94//160 96//160
f 96//161 69//161 68//161
f 97//162 69//162 96//162
f 98//163 71//163 99//163
f 98//164 95//164 71//164
f 95//165 66//165 71//165
f 99//166 101//166 100//166
f 98//167 99//167 100//167
f 101//168 97//168 100//168
f 101//169 73//169 97//169
f 73//170 69//170 97//170
f 71//171 74//171 99//171
f 75//172 99//172 74//172
f 101//173 99//173 75//173
f 73//174 101//174 75//174
f 78//175 79//175 102//175
f 103//176 79//176 80//176
f 103//177 102//177 79//177
f 104//178 80//178 81//178
f 104//179 103//179 80//179
f 104//180 81//180 82//180
f 83//181 84//181 105//181
f 105//182 84//182 106//182
f 84//183 78//183 106//183
f 106//184 78//184 107//184
f 107//185 78//185 102//185
f 102//186 103//186 107//186
f 103//187 108//187 107//187
f 109//188 108//188 110//188
f 110//189 108//189 103//189
f 110//190 103//190 104//190
f 110//191 82//191 86//191
f 110//192 104//192 82//192
f 111//193 105//193 112//193
f 83//194 105//194 111//194
f 87//195 83//195 111//195
f 105//196 106//196 112//196
f 110//197 113//197 109//197
f 113//198 114//198 109//198
f 113//199 86//199 89//199
f 113//200 110//200 86//200
f 115//201 87//201 111//201
f 115//202 90//202 87//202
f 116//203 117//203 115//203
f 115//204 117//204 91//204
f 115//205 91//205 90//205
f 117//206 118//206 91//206
f 91//207 118//207 119//207
f 91//208 119//208 92//208
f 93//209 114//209 113//209
f 119//210 114//210 93//210
f 92//211 119//211 93//211
f 113//212 89//212 93//212
f 120//213 117//213 116//213
f 120//214 118//214 117//214
f 94//215 95//215 121//215
f 94//216 122//216 96//216
f 121//217 122//217 94//217
f 96//218 122//218 97//218
f 95//219 98//219 121//219
f 100//220 121//220 98//220
f 122//221 121//221 100//221
f 97//222 122//222 100//222
f 106//223 107//223 123//223
f 124//224 107//224 108//224
f 124//225 123//225 107//225
f 124//226 108//226 109//226
f 111//227 112//227 125//227
f 123//228 112//228 106//228
f 125//229 112//229 123//229
f 126//230 125//230 123//230
f 123//231 124//231 127//231
f 123//232 127//232 126//232
f 127//233 109//233 114//233
f 127//234 124//234 109//234
f 115//235 111//235 125//235
f 125//236 116//236 115//236
f 128//237 116//237 125//237
f 126//238 128//238 125//238
f 128//239 119//239 118//239
f 127//240 119//240 128//240
f 126//241 127//241 128//241
f 127//242 114//242 119//242
f 120//243 116//243 128//243
f 128//244 118//244 120//244
f 129//245 131//245 130//245
f 132//246 131//246 133//246
f 132//247 130//247 131//247
f 134//248 132//248 133//248
f 129//249 135//249 131//249
f 129//250 136//250 135//250
f 133//251 138//251 137//251
f 135//252 138//252 133//252
f 131//253 135//253 133//253
f 137//254 134//254 133//254
f 139//255 135//255 136//255
f 139//256 138//256 135//256
f 129//257 130//257 140//257
f 141//258 130//258 132//258
f 141//259 140//259 130//259
f 141//260 132//260 134//260
f 136//261 140//261 142//261
f 136//262 129//262 140//262
f 142//263 137//263 138//263
f 141//264 137//264 142//264
f 140//265 141//265 142//265
f 141//266 134//266 137//266
f 139//267 136//267 142//267
f 142//268 138//268 139//268

# Thankyou for using Spin3D

