# Created using Spin3D

# Vertex Array
v 5.758 -34.594 29.690
v 5.756 -34.594 29.687
v 5.756 -34.595 29.689
v 5.754 -34.594 29.689
v 5.755 -34.594 29.691
v 5.758 -34.592 29.689
v 5.755 -34.592 29.688
v 5.754 -34.592 29.690
v 5.756 -34.593 29.691
v 5.756 -34.592 29.690
v 2.724 -27.136 61.095
v 3.032 -26.878 61.378
v 2.959 -27.379 61.227
v 3.472 -27.083 61.124
v 3.052 -26.864 60.307
v 2.386 -25.919 60.479
v 3.281 -25.431 61.369
v 4.009 -26.249 61.340
v 4.691 -26.231 60.139
v 5.265 -25.344 60.901
v 0.676 -24.167 57.258
v 1.207 -24.104 58.858
v 2.003 -25.642 58.391
v 3.936 -26.082 58.347
v 6.242 -25.297 58.071
v 6.805 -24.579 59.572
v 1.352 -24.659 56.204
v 0.235 -22.969 55.590
v 2.893 -25.457 56.736
v 5.117 -24.983 56.103
v 8.447 -23.967 57.678
v 7.797 -24.400 56.312
v 9.408 -23.816 56.304
v 1.100 -23.692 54.792
v 2.821 -24.261 54.896
v 1.792 -22.924 53.896
v 7.105 -23.591 54.710
v 4.903 -23.814 54.336
v 9.163 -23.530 55.428
v 3.671 -22.394 53.447
v 6.316 -17.924 28.327
v 6.377 -17.791 28.539
v 6.593 -18.111 28.177
v 6.772 -18.013 28.243
v 6.657 -18.182 27.999
v 6.602 -18.058 28.015
v 6.893 -18.160 27.993
v 6.889 -18.115 27.889
v 2.556 -23.337 60.340
v 3.719 -24.043 61.405
v 4.515 -24.824 61.455
v 6.004 -23.798 60.703
v 0.165 -22.272 57.118
v 1.044 -22.121 58.665
v 8.210 -23.457 58.790
v 7.608 -22.834 59.527
v 8.895 -22.154 57.856
v -0.185 -21.513 55.695
v 9.835 -23.113 56.552
v 10.117 -23.363 55.835
v 10.280 -22.918 55.866
v 0.725 -22.413 54.211
v 0.256 -20.788 54.445
v 5.757 -22.723 53.624
v 7.103 -22.177 53.767
v 8.678 -22.287 54.698
v 9.949 -22.902 55.443
v 1.749 -20.887 53.299
v 3.573 -20.236 52.801
v 5.577 -20.937 53.170
v 5.812 -17.465 28.899
v 6.029 -17.430 28.887
v 5.987 -17.634 28.726
v 6.458 -17.474 28.758
v 6.795 -17.705 28.479
v 7.052 -17.917 28.162
v 7.062 -17.599 28.387
v 6.006 -17.525 28.710
v 6.437 -17.748 28.276
v 7.099 -18.014 27.952
v 7.165 -17.711 28.155
v 6.773 -17.914 27.994
v 7.040 -17.836 27.994
v 3.740 -22.986 61.077
v 4.770 -23.126 61.119
v 0.527 -20.611 57.558
v 2.115 -20.085 58.578
v 4.114 -21.336 60.131
v 6.340 -21.614 60.000
v 7.962 -21.321 59.047
v 8.283 -20.390 58.068
v 0.082 -19.743 55.820
v 0.750 -19.088 57.028
v 9.587 -22.017 55.931
v 8.570 -20.281 56.608
v 0.408 -18.734 54.174
v 7.428 -20.958 53.847
v 8.276 -20.451 54.923
v 1.042 -19.041 53.359
v 2.582 -18.094 52.714
v 4.497 -18.964 52.860
v 6.319 -19.056 53.783
v 5.838 -17.380 28.934
v 6.091 -17.282 28.878
v 6.397 -17.233 28.870
v 6.790 -17.368 28.666
v 7.017 -17.377 28.462
v 6.773 -17.589 28.227
v 6.384 -17.373 28.593
v 7.045 -17.519 28.238
v 6.775 -17.283 28.521
v 3.839 -19.471 59.002
v 5.527 -19.351 58.805
v 7.292 -20.122 58.848
v 0.666 -17.996 55.956
v 1.731 -17.813 56.754
v 3.696 -17.946 57.582
v 5.472 -17.719 57.269
v 5.876 -17.287 55.875
v 7.139 -18.861 57.363
v 0.717 -17.556 54.690
v 1.377 -16.898 55.371
v 7.242 -18.656 55.438
v 5.725 -17.396 54.450
v 1.367 -17.171 53.276
v 2.038 -15.929 52.886
v 2.144 -16.357 52.525
v 2.801 -16.334 52.574
v 4.193 -17.155 53.228
v 2.403 -15.770 52.535
v 6.455 -17.170 28.784
v 6.722 -17.184 28.720
v 2.832 -16.465 55.520
v 4.476 -16.780 56.196
v 1.890 -16.188 54.037
v 2.908 -15.822 54.220
v 4.182 -16.314 54.574
v 2.883 -15.856 53.228
v 4.136 -8.194 45.132
v 4.132 -8.194 45.127
v 4.134 -8.193 45.129
v 4.132 -8.192 45.125
v 4.133 -8.193 45.126
v 4.131 -8.193 45.123
v 4.136 -8.194 45.131
v 4.139 -8.195 45.132
v 4.135 -8.194 45.127
v 4.137 -8.193 45.129
v 4.140 -8.194 45.132
v 4.135 -8.195 45.129
v 4.132 -8.194 45.127
v 4.138 -8.194 45.130

# Normal Array
vn 0.270 -0.904 -0.333
vn -0.182 -0.880 -0.438
vn 0.165 -0.977 0.136
vn -0.301 -0.953 0.029
vn 0.526 0.378 -0.762
vn 0.801 -0.212 -0.559
vn -0.487 -0.154 -0.860
vn -0.803 0.394 -0.446
vn 0.818 0.179 0.547
vn 0.503 -0.425 0.752
vn -0.814 -0.371 0.447
vn -0.521 0.134 0.843
vn 0.178 0.980 -0.087
vn -0.246 0.969 0.005
vn 0.261 0.923 0.283
vn -0.157 0.915 0.373
vn -0.598 -0.150 0.788
vn 0.359 -0.318 0.878
vn -0.501 -0.732 -0.461
vn 0.389 -0.820 -0.420
vn -0.734 0.130 0.667
vn -0.730 0.136 0.670
vn 0.720 -0.567 0.400
vn 0.302 -0.416 0.858
vn 0.039 -0.000 0.999
vn 0.625 -0.701 0.344
vn -0.811 -0.508 0.290
vn -0.209 -0.872 -0.442
vn -0.809 -0.583 0.071
vn -0.759 -0.450 -0.471
vn -0.872 -0.480 0.096
vn 0.297 -0.873 -0.387
vn 0.332 -0.918 -0.216
vn 0.294 -0.934 -0.202
vn 0.634 -0.697 0.334
vn 0.632 -0.764 0.128
vn -0.694 -0.711 -0.113
vn -0.775 -0.592 -0.221
vn -0.221 -0.949 -0.225
vn -0.358 -0.887 -0.292
vn 0.275 -0.913 -0.302
vn 0.079 -0.911 -0.405
vn 0.532 -0.824 0.195
vn 0.519 -0.854 0.024
vn 0.225 -0.934 -0.277
vn 0.338 -0.931 0.134
vn -0.753 -0.598 -0.275
vn -0.180 -0.674 -0.716
vn -0.240 -0.820 -0.519
vn -0.243 -0.818 -0.522
vn 0.177 -0.811 -0.558
vn 0.030 -0.832 -0.554
vn 0.023 -0.838 -0.546
vn 0.220 -0.829 -0.514
vn 0.203 -0.836 -0.510
vn 0.314 -0.873 -0.374
vn -0.018 -0.608 -0.794
vn -0.091 -0.584 -0.806
vn -0.231 -0.794 0.562
vn 0.128 -0.705 0.697
vn -0.490 -0.856 0.163
vn -0.765 -0.265 -0.588
vn 0.221 -0.790 0.571
vn 0.095 -0.912 0.399
vn -0.412 -0.068 -0.909
vn 0.076 -0.915 -0.397
vn -0.607 0.171 0.776
vn -0.725 0.084 0.683
vn -0.037 -0.068 0.997
vn -0.068 -0.005 0.998
vn 0.467 -0.235 0.853
vn 0.523 -0.142 0.841
vn -0.868 -0.023 0.495
vn -0.922 -0.225 0.315
vn -0.758 0.085 0.646
vn -0.741 0.004 0.672
vn 0.623 -0.267 0.735
vn 0.674 -0.292 0.679
vn 0.701 -0.249 0.669
vn 0.786 0.030 0.618
vn -0.964 -0.254 0.072
vn -0.956 -0.282 0.085
vn 0.697 -0.583 0.416
vn 0.674 -0.574 0.465
vn 0.699 -0.575 0.425
vn 0.696 -0.238 0.677
vn 0.915 -0.256 0.313
vn 0.831 -0.335 0.444
vn -0.779 -0.434 -0.452
vn -0.895 -0.201 -0.399
vn -0.873 -0.221 -0.436
vn -0.451 -0.475 -0.755
vn 0.191 -0.637 -0.747
vn 0.299 -0.529 -0.794
vn 0.413 -0.505 -0.758
vn 0.314 -0.387 -0.867
vn 0.312 -0.874 -0.373
vn 0.412 -0.498 -0.763
vn 0.322 -0.383 -0.866
vn 0.762 -0.235 -0.603
vn -0.610 -0.063 -0.790
vn -0.389 -0.267 -0.882
vn -0.147 -0.281 -0.948
vn -0.154 -0.290 -0.945
vn -0.013 -0.539 -0.842
vn 0.044 -0.242 -0.969
vn 0.077 -0.282 -0.956
vn 0.192 -0.224 -0.955
vn 0.145 -0.632 0.761
vn -0.077 -0.836 0.544
vn 0.113 -0.631 0.768
vn 0.179 -0.588 0.789
vn 0.405 -0.575 0.711
vn 0.234 -0.602 0.763
vn 0.233 -0.590 0.773
vn 0.458 -0.523 0.719
vn -0.697 0.012 -0.717
vn -0.760 0.033 -0.649
vn -0.633 0.220 -0.742
vn -0.659 0.247 -0.710
vn 0.575 -0.686 0.447
vn 0.411 -0.685 0.601
vn 0.750 -0.398 0.528
vn 0.813 -0.437 0.386
vn -0.451 0.422 -0.786
vn -0.339 0.273 -0.900
vn 0.491 -0.793 -0.361
vn 0.153 0.273 -0.950
vn -0.118 0.404 -0.907
vn 0.576 0.364 -0.732
vn -0.564 0.255 0.785
vn 0.111 0.177 0.978
vn 0.001 0.296 0.955
vn 0.377 0.125 0.918
vn -0.871 0.060 0.488
vn -0.585 0.339 0.737
vn -0.568 0.331 0.753
vn -0.396 0.395 0.829
vn -0.559 0.504 0.658
vn 0.031 0.492 0.870
vn 0.114 0.512 0.851
vn 0.417 0.220 0.882
vn 0.502 0.194 0.843
vn 0.478 0.162 0.863
vn 0.790 0.009 0.613
vn 0.838 0.231 0.495
vn -0.898 0.256 0.357
vn -0.945 0.125 0.304
vn -0.947 0.122 0.298
vn -0.585 0.342 0.735
vn 0.860 0.385 0.336
vn 0.864 0.375 0.337
vn 0.932 0.299 0.205
vn 0.671 0.475 0.570
vn -0.956 0.162 -0.244
vn -0.985 0.051 -0.164
vn 0.503 -0.078 -0.861
vn 0.811 0.552 -0.197
vn 0.756 0.240 -0.609
vn 0.603 0.560 -0.567
vn 0.706 0.236 -0.668
vn 0.669 0.550 -0.500
vn -0.794 -0.021 -0.608
vn -0.604 -0.207 -0.769
vn -0.214 -0.138 -0.967
vn -0.333 -0.097 -0.938
vn 0.157 -0.069 -0.985
vn 0.073 -0.007 -0.997
vn 0.343 -0.030 -0.939
vn 0.341 0.167 -0.925
vn 0.454 0.109 -0.884
vn 0.646 0.354 -0.676
vn 0.116 -0.401 0.909
vn 0.228 -0.032 0.973
vn 0.016 0.059 0.998
vn 0.236 -0.361 0.902
vn 0.368 -0.445 0.816
vn 0.347 -0.323 0.881
vn 0.444 -0.428 0.787
vn 0.660 -0.119 0.742
vn -0.549 0.452 -0.703
vn -0.374 0.567 -0.734
vn -0.440 0.543 -0.716
vn -0.447 0.610 -0.654
vn -0.390 0.613 -0.688
vn -0.148 0.685 -0.713
vn -0.280 0.666 -0.692
vn 0.202 0.838 -0.506
vn 0.753 0.594 -0.283
vn 0.921 0.054 0.385
vn -0.366 0.543 -0.756
vn -0.168 0.575 -0.801
vn -0.124 0.607 -0.785
vn 0.386 0.559 -0.734
vn -0.360 0.443 0.821
vn 0.112 0.495 0.862
vn 0.062 0.523 0.850
vn 0.419 0.372 0.828
vn 0.204 0.513 0.834
vn 0.624 0.454 0.637
vn -0.897 0.273 0.348
vn -0.557 0.560 0.613
vn -0.457 0.508 0.730
vn -0.286 0.570 0.770
vn -0.387 0.609 0.693
vn 0.037 0.683 0.730
vn 0.040 0.686 0.727
vn 0.507 0.771 0.386
vn 0.399 0.636 0.661
vn 0.309 0.740 0.597
vn 0.741 0.644 0.193
vn 0.569 0.655 0.498
vn -0.780 0.600 0.177
vn -0.948 0.311 0.070
vn -0.964 0.265 -0.028
vn -0.529 0.639 0.558
vn 0.721 0.684 0.111
vn 0.682 0.721 -0.128
vn 0.824 0.532 -0.197
vn 0.729 0.676 0.111
vn -0.880 0.364 -0.306
vn -0.766 0.105 -0.634
vn -0.798 0.260 -0.544
vn -0.545 -0.225 -0.808
vn -0.401 0.029 -0.916
vn 0.077 -0.089 -0.993
vn 0.364 -0.119 -0.924
vn 0.175 0.225 -0.959
vn 0.721 0.465 -0.514
vn 0.594 0.474 -0.650
vn 0.448 0.250 -0.858
vn 0.676 0.535 -0.506
vn -0.725 0.330 -0.605
vn 0.075 -0.016 -0.997
vn -0.119 0.834 0.538
vn 0.430 -0.106 0.897
vn 0.198 0.718 0.667
vn 0.668 0.027 0.744
vn -0.373 0.702 -0.607
vn -0.282 0.708 -0.647
vn -0.065 0.886 -0.460
vn 0.254 0.890 -0.378
vn -0.214 0.749 0.627
vn 0.017 0.761 0.649
vn -0.098 0.788 0.607
vn 0.390 0.841 0.374
vn -0.740 0.669 0.071
vn -0.287 0.764 0.578
vn -0.300 0.885 0.356
vn -0.373 0.840 0.393
vn 0.077 0.962 0.263
vn 0.213 0.871 0.443
vn 0.563 0.817 -0.122
vn 0.373 0.908 0.193
vn -0.789 0.579 -0.205
vn -0.881 0.473 -0.006
vn -0.164 0.967 0.196
vn -0.335 0.942 -0.024
vn 0.602 0.607 -0.520
vn 0.645 0.650 -0.401
vn 0.370 0.928 -0.041
vn 0.485 0.744 -0.461
vn -0.182 0.953 0.244
vn 0.743 0.493 -0.454
vn -0.513 0.634 0.579
vn 0.239 0.970 -0.042
vn -0.456 0.819 0.348
vn 0.524 0.730 -0.438
vn 0.039 0.924 0.380
vn 0.229 0.856 0.463
vn 0.648 0.332 -0.685
vn 0.066 0.983 0.173
vn 0.504 0.856 -0.115
vn 0.679 0.524 -0.514
vn -0.223 0.067 0.973
vn 0.019 0.985 0.170
vn -0.478 -0.791 0.382
vn -0.347 -0.862 -0.369
vn -0.243 -0.954 -0.175
vn -0.955 -0.234 0.182
vn 0.209 -0.893 -0.399
vn -0.222 -0.925 0.310
vn 0.730 -0.151 -0.667
vn -0.017 -0.977 -0.215
vn 0.269 -0.726 -0.633
vn -0.015 -0.985 -0.170
vn 0.548 -0.564 -0.619
vn 0.588 -0.359 -0.725

# Facets
f 1//1 3//1 2//1
f 4//2 2//2 3//2
f 5//3 3//3 1//3
f 5//4 4//4 3//4
f 6//5 2//5 7//5
f 6//6 1//6 2//6
f 4//7 7//7 2//7
f 4//8 8//8 7//8
f 9//9 1//9 6//9
f 9//10 5//10 1//10
f 5//11 8//11 4//11
f 5//12 9//12 8//12
f 6//13 7//13 10//13
f 10//14 7//14 8//14
f 9//15 6//15 10//15
f 10//16 8//16 9//16
f 11//17 13//17 12//17
f 14//18 12//18 13//18
f 15//19 13//19 11//19
f 15//20 14//20 13//20
f 16//21 12//21 17//21
f 16//22 11//22 12//22
f 18//23 14//23 19//23
f 12//24 14//24 18//24
f 17//25 12//25 18//25
f 20//26 18//26 19//26
f 21//27 23//27 22//27
f 24//28 15//28 23//28
f 23//29 15//29 16//29
f 16//30 15//30 11//30
f 16//31 22//31 23//31
f 14//32 15//32 19//32
f 19//33 15//33 24//33
f 19//34 24//34 25//34
f 19//35 26//35 20//35
f 19//36 25//36 26//36
f 21//37 27//37 23//37
f 21//38 28//38 27//38
f 29//39 24//39 23//39
f 27//40 29//40 23//40
f 30//41 25//41 24//41
f 29//42 30//42 24//42
f 25//43 31//43 26//43
f 32//44 31//44 25//44
f 30//45 32//45 25//45
f 33//46 31//46 32//46
f 34//47 27//47 28//47
f 35//48 34//48 36//48
f 27//49 34//49 35//49
f 29//50 27//50 35//50
f 30//51 38//51 37//51
f 35//52 38//52 30//52
f 29//53 35//53 30//53
f 37//54 32//54 30//54
f 37//55 39//55 32//55
f 39//56 33//56 32//56
f 40//57 35//57 36//57
f 40//58 38//58 35//58
f 41//59 43//59 42//59
f 44//60 42//60 43//60
f 41//61 45//61 43//61
f 41//62 46//62 45//62
f 43//63 47//63 44//63
f 43//64 45//64 47//64
f 48//65 45//65 46//65
f 48//66 47//66 45//66
f 49//67 17//67 50//67
f 49//68 16//68 17//68
f 17//69 18//69 51//69
f 50//70 17//70 51//70
f 20//71 51//71 18//71
f 20//72 52//72 51//72
f 53//73 22//73 54//73
f 53//74 21//74 22//74
f 16//75 49//75 22//75
f 49//76 54//76 22//76
f 55//77 56//77 26//77
f 26//78 56//78 52//78
f 26//79 52//79 20//79
f 57//80 56//80 55//80
f 28//81 21//81 53//81
f 28//82 53//82 58//82
f 55//83 26//83 31//83
f 59//84 33//84 60//84
f 59//85 31//85 33//85
f 57//86 31//86 59//86
f 55//87 31//87 57//87
f 61//88 59//88 60//88
f 28//89 62//89 34//89
f 63//90 62//90 28//90
f 58//91 63//91 28//91
f 36//92 34//92 62//92
f 64//93 37//93 38//93
f 64//94 65//94 37//94
f 37//95 65//95 66//95
f 37//96 66//96 39//96
f 39//97 60//97 33//97
f 67//98 60//98 39//98
f 66//99 67//99 39//99
f 67//100 61//100 60//100
f 68//101 62//101 63//101
f 68//102 36//102 62//102
f 40//103 36//103 68//103
f 69//104 40//104 68//104
f 40//105 64//105 38//105
f 70//106 64//106 40//106
f 69//107 70//107 40//107
f 70//108 65//108 64//108
f 71//109 73//109 72//109
f 42//110 73//110 41//110
f 72//111 73//111 42//111
f 74//112 72//112 42//112
f 75//113 44//113 76//113
f 42//114 44//114 75//114
f 74//115 42//115 75//115
f 77//116 75//116 76//116
f 78//117 73//117 71//117
f 73//118 78//118 41//118
f 41//119 78//119 79//119
f 41//120 79//120 46//120
f 80//121 76//121 47//121
f 76//122 44//122 47//122
f 76//123 81//123 77//123
f 76//124 80//124 81//124
f 82//125 46//125 79//125
f 82//126 48//126 46//126
f 48//127 80//127 47//127
f 83//128 80//128 48//128
f 82//129 83//129 48//129
f 83//130 81//130 80//130
f 49//131 50//131 84//131
f 85//132 50//132 51//132
f 85//133 84//133 50//133
f 85//134 51//134 52//134
f 53//135 54//135 86//135
f 86//136 54//136 87//136
f 54//137 49//137 87//137
f 87//138 49//138 88//138
f 88//139 49//139 84//139
f 84//140 85//140 88//140
f 85//141 89//141 88//141
f 85//142 52//142 89//142
f 89//143 52//143 56//143
f 89//144 56//144 90//144
f 57//145 90//145 56//145
f 57//146 91//146 90//146
f 92//147 86//147 93//147
f 53//148 86//148 92//148
f 58//149 53//149 92//149
f 86//150 87//150 93//150
f 59//151 94//151 57//151
f 57//152 94//152 95//152
f 57//153 95//153 91//153
f 94//154 59//154 61//154
f 63//155 58//155 92//155
f 63//156 92//156 96//156
f 97//157 66//157 65//157
f 95//158 94//158 98//158
f 98//159 94//159 66//159
f 66//160 94//160 67//160
f 66//161 97//161 98//161
f 94//162 61//162 67//162
f 99//163 63//163 96//163
f 99//164 68//164 63//164
f 100//165 69//165 68//165
f 100//166 68//166 99//166
f 101//167 70//167 69//167
f 101//168 69//168 100//168
f 70//169 97//169 65//169
f 102//170 97//170 70//170
f 101//171 102//171 70//171
f 102//172 98//172 97//172
f 71//173 72//173 103//173
f 72//174 104//174 103//174
f 105//175 104//175 72//175
f 74//176 105//176 72//176
f 74//177 75//177 106//177
f 105//178 74//178 106//178
f 77//179 106//179 75//179
f 77//180 107//180 106//180
f 78//181 71//181 103//181
f 108//182 79//182 109//182
f 79//183 78//183 109//183
f 109//184 78//184 104//184
f 104//185 78//185 103//185
f 110//186 108//186 111//186
f 108//187 109//187 111//187
f 107//188 110//188 111//188
f 81//189 110//189 107//189
f 77//190 81//190 107//190
f 82//191 79//191 108//191
f 108//192 83//192 82//192
f 108//193 110//193 83//193
f 110//194 81//194 83//194
f 87//195 88//195 112//195
f 113//196 88//196 89//196
f 113//197 112//197 88//197
f 114//198 89//198 90//198
f 114//199 113//199 89//199
f 114//200 90//200 91//200
f 92//201 93//201 115//201
f 115//202 93//202 116//202
f 93//203 87//203 116//203
f 116//204 87//204 117//204
f 117//205 87//205 112//205
f 112//206 113//206 117//206
f 113//207 118//207 117//207
f 119//208 118//208 120//208
f 120//209 118//209 113//209
f 120//210 113//210 114//210
f 120//211 91//211 95//211
f 120//212 114//212 91//212
f 121//213 115//213 122//213
f 92//214 115//214 121//214
f 96//215 92//215 121//215
f 115//216 116//216 122//216
f 120//217 123//217 119//217
f 123//218 124//218 119//218
f 123//219 95//219 98//219
f 123//220 120//220 95//220
f 125//221 96//221 121//221
f 125//222 99//222 96//222
f 126//223 127//223 125//223
f 125//224 127//224 100//224
f 125//225 100//225 99//225
f 127//226 128//226 100//226
f 100//227 128//227 129//227
f 100//228 129//228 101//228
f 102//229 124//229 123//229
f 129//230 124//230 102//230
f 101//231 129//231 102//231
f 123//232 98//232 102//232
f 130//233 127//233 126//233
f 130//234 128//234 127//234
f 104//235 105//235 131//235
f 132//236 105//236 106//236
f 132//237 131//237 105//237
f 132//238 106//238 107//238
f 109//239 104//239 131//239
f 131//240 111//240 109//240
f 131//241 132//241 111//241
f 132//242 107//242 111//242
f 116//243 117//243 133//243
f 134//244 117//244 118//244
f 134//245 133//245 117//245
f 134//246 118//246 119//246
f 121//247 122//247 135//247
f 133//248 122//248 116//248
f 135//249 122//249 133//249
f 136//250 135//250 133//250
f 133//251 134//251 137//251
f 133//252 137//252 136//252
f 137//253 119//253 124//253
f 137//254 134//254 119//254
f 125//255 121//255 135//255
f 135//256 126//256 125//256
f 138//257 126//257 135//257
f 136//258 138//258 135//258
f 138//259 129//259 128//259
f 137//260 129//260 138//260
f 136//261 137//261 138//261
f 137//262 124//262 129//262
f 130//263 126//263 138//263
f 138//264 128//264 130//264
f 139//265 141//265 140//265
f 142//266 141//266 143//266
f 142//267 140//267 141//267
f 144//268 142//268 143//268
f 139//269 145//269 141//269
f 139//270 146//270 145//270
f 143//271 148//271 147//271
f 145//272 148//272 143//272
f 141//273 145//273 143//273
f 147//274 144//274 143//274
f 149//275 145//275 146//275
f 149//276 148//276 145//276
f 139//277 140//277 150//277
f 151//278 140//278 142//278
f 151//279 150//279 140//279
f 151//280 142//280 144//280
f 146//281 150//281 152//281
f 146//282 139//282 150//282
f 152//283 147//283 148//283
f 151//284 147//284 152//284
f 150//285 151//285 152//285
f 151//286 144//286 147//286
f 149//287 146//287 152//287
f 152//288 148//288 149//288

# Thankyou for using Spin3D

