# Created using Spin3D

# Vertex Array
v 5.734 -36.075 29.445
v 5.735 -36.075 29.446
v 5.735 -36.076 29.445
v 5.736 -36.075 29.445
v 5.735 -36.075 29.444
v 5.735 -36.074 29.445
v 2.920 -27.128 61.033
v 3.266 -26.830 61.322
v 3.195 -27.368 61.142
v 3.796 -27.050 60.991
v 3.267 -26.893 60.191
v 2.513 -25.907 60.453
v 3.461 -25.342 61.380
v 4.377 -26.122 61.247
v 5.240 -26.214 59.817
v 5.899 -24.991 60.760
v 0.678 -24.191 57.246
v 1.235 -24.105 58.859
v 2.051 -25.706 58.339
v 3.982 -26.265 58.205
v 5.886 -25.844 57.824
v 7.036 -24.939 59.640
v 7.376 -25.177 58.334
v 8.299 -24.041 58.642
v 1.341 -24.718 56.181
v 0.221 -22.978 55.584
v 2.871 -25.593 56.684
v 4.986 -25.229 56.089
v 7.452 -24.800 56.586
v 9.146 -23.852 57.102
v 1.079 -23.726 54.782
v 2.780 -24.355 54.882
v 1.772 -22.952 53.888
v 7.027 -23.728 54.814
v 4.845 -23.931 54.354
v 9.101 -23.600 55.725
v 3.653 -22.432 53.447
v 6.316 -17.924 28.327
v 6.377 -17.791 28.539
v 6.593 -18.111 28.177
v 6.772 -18.013 28.243
v 6.657 -18.182 27.999
v 6.602 -18.058 28.015
v 6.893 -18.160 27.993
v 6.889 -18.115 27.889
v 2.608 -23.294 60.385
v 3.823 -23.943 61.487
v 4.735 -24.650 61.516
v 5.961 -23.600 60.997
v 0.155 -22.266 57.121
v 1.045 -22.104 58.685
v 7.456 -23.344 59.796
v 9.091 -22.288 57.801
v -0.201 -21.503 55.694
v 2.809 -22.160 56.072
v 2.808 -22.158 56.072
v 2.809 -22.159 56.073
v 2.811 -22.158 56.072
v 10.205 -23.286 56.123
v 10.157 -22.887 56.563
v 10.488 -22.798 55.990
v 0.710 -22.418 54.205
v 0.244 -20.777 54.442
v 2.809 -22.158 56.071
v 5.734 -22.786 53.655
v 7.113 -22.215 53.813
v 8.737 -22.298 54.793
v 10.066 -22.854 55.611
v 1.740 -20.884 53.292
v 3.574 -20.232 52.794
v 5.592 -20.945 53.174
v 5.812 -17.465 28.899
v 6.029 -17.430 28.887
v 5.987 -17.634 28.726
v 6.458 -17.474 28.758
v 6.795 -17.705 28.479
v 7.052 -17.917 28.162
v 7.062 -17.599 28.387
v 6.006 -17.525 28.710
v 6.437 -17.748 28.276
v 7.099 -18.014 27.952
v 7.165 -17.711 28.155
v 6.773 -17.914 27.994
v 7.040 -17.836 27.994
v 3.787 -22.918 61.176
v 4.821 -23.036 61.260
v 0.511 -20.596 57.572
v 2.109 -20.068 58.607
v 4.128 -21.317 60.215
v 6.331 -21.690 60.145
v 8.001 -21.515 59.128
v 8.388 -20.489 58.074
v 0.065 -19.729 55.821
v 0.731 -19.074 57.037
v 2.809 -22.157 56.072
v 9.772 -21.972 55.971
v 8.703 -20.313 56.595
v 0.396 -18.718 54.171
v 7.481 -20.955 53.869
v 8.378 -20.439 54.934
v 1.034 -19.025 53.353
v 2.581 -18.079 52.704
v 4.512 -18.949 52.848
v 6.365 -19.042 53.772
v 5.838 -17.380 28.934
v 6.091 -17.282 28.878
v 6.397 -17.233 28.870
v 6.790 -17.368 28.666
v 7.017 -17.377 28.462
v 6.773 -17.589 28.227
v 6.384 -17.373 28.593
v 7.045 -17.519 28.238
v 6.775 -17.283 28.521
v 3.839 -19.467 59.047
v 5.543 -19.377 58.854
v 7.337 -20.210 58.902
v 0.646 -17.985 55.954
v 1.714 -17.804 56.758
v 3.693 -17.945 57.596
v 5.493 -17.729 57.272
v 5.909 -17.288 55.859
v 7.203 -18.897 57.367
v 0.701 -17.544 54.684
v 1.360 -16.889 55.365
v 7.314 -18.656 55.422
v 5.759 -17.384 54.430
v 1.357 -17.157 53.268
v 2.027 -15.917 52.875
v 2.136 -16.343 52.516
v 2.797 -16.319 52.562
v 4.205 -17.138 53.211
v 2.394 -15.757 52.524
v 6.455 -17.170 28.784
v 6.722 -17.184 28.720
v 2.823 -16.458 55.512
v 4.483 -16.778 56.186
v 1.878 -16.178 54.026
v 2.901 -15.813 54.205
v 4.189 -16.304 54.556
v 2.878 -15.844 53.214
v 4.136 -8.194 45.132
v 4.132 -8.194 45.127
v 4.134 -8.193 45.129
v 4.132 -8.192 45.125
v 4.133 -8.193 45.126
v 4.131 -8.193 45.123
v 4.136 -8.194 45.131
v 4.139 -8.195 45.132
v 4.135 -8.194 45.127
v 4.137 -8.193 45.129
v 4.140 -8.194 45.132
v 4.135 -8.195 45.129
v 4.132 -8.194 45.127
v 4.138 -8.194 45.130

# Normal Array
vn -0.590 -0.655 0.472
vn 0.584 -0.663 0.469
vn -0.588 -0.464 -0.662
vn 0.585 -0.477 -0.656
vn -0.586 0.476 0.655
vn 0.590 0.464 0.661
vn -0.585 0.662 -0.469
vn 0.591 0.654 -0.471
vn -0.513 -0.211 0.832
vn 0.394 -0.339 0.854
vn -0.496 -0.761 -0.418
vn 0.350 -0.849 -0.397
vn -0.718 0.067 0.693
vn -0.691 0.109 0.715
vn 0.693 -0.560 0.454
vn 0.337 -0.441 0.832
vn 0.100 -0.052 0.994
vn 0.624 -0.660 0.419
vn -0.805 -0.509 0.305
vn -0.282 -0.881 -0.380
vn -0.775 -0.622 0.110
vn -0.764 -0.466 -0.446
vn -0.862 -0.486 0.142
vn 0.247 -0.907 -0.341
vn 0.286 -0.938 -0.194
vn 0.192 -0.974 -0.119
vn 0.532 -0.678 0.508
vn 0.573 -0.767 0.289
vn 0.418 -0.908 -0.033
vn 0.699 -0.649 0.300
vn -0.705 -0.704 -0.090
vn -0.790 -0.578 -0.205
vn -0.285 -0.936 -0.205
vn -0.412 -0.872 -0.263
vn 0.125 -0.913 -0.388
vn 0.036 -0.904 -0.426
vn 0.450 -0.877 -0.169
vn 0.238 -0.870 -0.432
vn 0.697 -0.649 0.304
vn 0.519 -0.840 -0.158
vn -0.764 -0.585 -0.272
vn -0.201 -0.658 -0.726
vn -0.268 -0.809 -0.523
vn -0.281 -0.798 -0.534
vn 0.198 -0.777 -0.598
vn 0.011 -0.800 -0.600
vn -0.017 -0.825 -0.566
vn 0.249 -0.801 -0.545
vn 0.288 -0.787 -0.545
vn 0.520 -0.837 -0.170
vn -0.026 -0.590 -0.807
vn -0.092 -0.568 -0.818
vn -0.231 -0.794 0.562
vn 0.128 -0.705 0.697
vn -0.490 -0.856 0.163
vn -0.765 -0.265 -0.588
vn 0.221 -0.790 0.571
vn 0.095 -0.912 0.399
vn -0.412 -0.068 -0.909
vn 0.076 -0.915 -0.397
vn -0.636 0.106 0.764
vn -0.712 0.044 0.701
vn -0.008 -0.178 0.984
vn -0.076 -0.057 0.996
vn 0.468 -0.268 0.842
vn 0.502 -0.166 0.849
vn -0.867 -0.039 0.497
vn -0.917 -0.228 0.329
vn -0.754 0.045 0.655
vn -0.740 -0.012 0.672
vn 0.634 -0.157 0.757
vn 0.686 -0.248 0.684
vn 0.704 -0.251 0.665
vn 0.788 -0.062 0.613
vn -0.963 -0.257 0.078
vn -0.956 -0.280 0.089
vn -0.576 -0.646 0.501
vn 0.535 -0.672 0.512
vn 0.721 -0.472 0.507
vn 0.651 -0.291 0.701
vn 0.872 -0.174 0.458
vn 0.829 -0.366 0.422
vn -0.788 -0.421 -0.450
vn -0.896 -0.197 -0.398
vn -0.873 -0.217 -0.436
vn -0.603 -0.480 -0.637
vn -0.459 -0.464 -0.758
vn 0.216 -0.626 -0.749
vn 0.575 -0.504 -0.644
vn 0.312 -0.537 -0.784
vn 0.423 -0.517 -0.744
vn 0.380 -0.466 -0.799
vn 0.329 -0.927 -0.180
vn 0.415 -0.636 -0.650
vn 0.292 -0.502 -0.814
vn 0.609 -0.517 -0.601
vn -0.611 -0.060 -0.790
vn -0.394 -0.260 -0.882
vn -0.147 -0.276 -0.950
vn -0.155 -0.286 -0.945
vn -0.003 -0.520 -0.854
vn 0.054 -0.248 -0.967
vn 0.081 -0.281 -0.956
vn 0.205 -0.232 -0.951
vn 0.145 -0.632 0.761
vn -0.077 -0.836 0.544
vn 0.113 -0.631 0.768
vn 0.179 -0.588 0.789
vn 0.405 -0.575 0.711
vn 0.234 -0.602 0.763
vn 0.233 -0.590 0.773
vn 0.458 -0.523 0.719
vn -0.697 0.012 -0.717
vn -0.760 0.033 -0.649
vn -0.633 0.220 -0.742
vn -0.659 0.247 -0.710
vn 0.575 -0.686 0.447
vn 0.411 -0.685 0.601
vn 0.750 -0.398 0.528
vn 0.813 -0.437 0.386
vn -0.451 0.422 -0.786
vn -0.339 0.273 -0.900
vn 0.491 -0.793 -0.361
vn 0.153 0.273 -0.950
vn -0.118 0.404 -0.907
vn 0.576 0.364 -0.732
vn -0.590 0.216 0.778
vn 0.087 0.152 0.985
vn -0.044 0.289 0.956
vn 0.286 0.136 0.949
vn -0.870 0.053 0.490
vn -0.588 0.335 0.736
vn -0.570 0.327 0.753
vn -0.414 0.389 0.823
vn -0.586 0.505 0.633
vn -0.010 0.516 0.856
vn 0.119 0.550 0.826
vn 0.360 0.321 0.876
vn 0.584 0.233 0.777
vn 0.501 0.161 0.850
vn 0.773 0.001 0.634
vn 0.814 0.238 0.530
vn -0.899 0.255 0.355
vn -0.946 0.120 0.301
vn -0.946 0.120 0.300
vn -0.553 0.480 0.681
vn -0.588 0.342 0.733
vn 0.585 0.455 0.671
vn 0.744 0.554 0.373
vn 0.836 0.396 0.380
vn 0.917 0.323 0.234
vn 0.661 0.583 0.472
vn -0.956 0.161 -0.246
vn -0.985 0.051 -0.166
vn -0.547 0.683 -0.484
vn 0.594 0.652 -0.470
vn 0.509 -0.111 -0.853
vn 0.788 0.583 -0.198
vn 0.711 0.189 -0.677
vn 0.597 0.466 -0.653
vn 0.704 0.188 -0.685
vn 0.556 0.466 -0.688
vn -0.792 -0.022 -0.610
vn -0.605 -0.205 -0.769
vn -0.214 -0.139 -0.967
vn -0.334 -0.096 -0.938
vn 0.159 -0.075 -0.984
vn 0.070 -0.009 -0.998
vn 0.344 -0.059 -0.937
vn 0.342 0.153 -0.927
vn 0.448 0.097 -0.889
vn 0.634 0.335 -0.697
vn 0.116 -0.401 0.909
vn 0.228 -0.032 0.973
vn 0.016 0.059 0.998
vn 0.236 -0.361 0.902
vn 0.368 -0.445 0.816
vn 0.347 -0.323 0.881
vn 0.444 -0.428 0.787
vn 0.660 -0.119 0.742
vn -0.549 0.452 -0.703
vn -0.374 0.567 -0.734
vn -0.440 0.543 -0.716
vn -0.447 0.610 -0.654
vn -0.390 0.613 -0.688
vn -0.148 0.685 -0.713
vn -0.280 0.666 -0.692
vn 0.202 0.838 -0.506
vn 0.753 0.594 -0.283
vn 0.921 0.054 0.385
vn -0.366 0.543 -0.756
vn -0.168 0.575 -0.801
vn -0.124 0.607 -0.785
vn 0.386 0.559 -0.734
vn -0.365 0.456 0.812
vn 0.114 0.514 0.851
vn 0.066 0.540 0.839
vn 0.454 0.372 0.810
vn 0.225 0.532 0.816
vn 0.626 0.431 0.649
vn -0.898 0.273 0.345
vn -0.555 0.564 0.611
vn -0.457 0.513 0.726
vn -0.283 0.576 0.766
vn -0.388 0.616 0.685
vn 0.045 0.692 0.721
vn 0.046 0.693 0.720
vn 0.504 0.771 0.390
vn 0.401 0.641 0.655
vn 0.324 0.733 0.598
vn 0.728 0.645 0.232
vn 0.570 0.648 0.505
vn -0.779 0.602 0.176
vn -0.948 0.311 0.067
vn -0.964 0.264 -0.032
vn -0.527 0.643 0.556
vn 0.712 0.691 0.126
vn 0.673 0.730 -0.120
vn 0.816 0.542 -0.200
vn 0.715 0.688 0.126
vn -0.879 0.363 -0.309
vn -0.765 0.104 -0.636
vn -0.797 0.258 -0.546
vn -0.544 -0.227 -0.808
vn -0.401 0.028 -0.916
vn 0.072 -0.089 -0.993
vn 0.358 -0.119 -0.926
vn 0.171 0.222 -0.960
vn 0.714 0.468 -0.521
vn 0.588 0.475 -0.655
vn 0.443 0.248 -0.862
vn 0.669 0.539 -0.511
vn -0.724 0.328 -0.607
vn 0.070 -0.016 -0.997
vn -0.119 0.834 0.538
vn 0.430 -0.106 0.897
vn 0.198 0.718 0.667
vn 0.668 0.027 0.744
vn -0.373 0.702 -0.607
vn -0.282 0.708 -0.647
vn -0.065 0.886 -0.460
vn 0.254 0.890 -0.378
vn -0.211 0.752 0.625
vn 0.025 0.763 0.646
vn -0.093 0.792 0.604
vn 0.387 0.841 0.377
vn -0.738 0.671 0.071
vn -0.284 0.767 0.576
vn -0.297 0.886 0.356
vn -0.369 0.842 0.394
vn 0.077 0.961 0.265
vn 0.212 0.871 0.443
vn 0.557 0.823 -0.114
vn 0.370 0.908 0.197
vn -0.788 0.580 -0.207
vn -0.881 0.474 -0.007
vn -0.163 0.967 0.198
vn -0.333 0.943 -0.021
vn 0.596 0.612 -0.520
vn 0.640 0.657 -0.400
vn 0.365 0.930 -0.037
vn 0.478 0.749 -0.459
vn -0.181 0.952 0.246
vn 0.738 0.499 -0.455
vn -0.513 0.634 0.579
vn 0.239 0.970 -0.042
vn -0.456 0.819 0.348
vn 0.524 0.730 -0.438
vn 0.039 0.924 0.380
vn 0.229 0.856 0.463
vn 0.648 0.332 -0.685
vn 0.066 0.983 0.173
vn 0.504 0.856 -0.115
vn 0.679 0.524 -0.514
vn -0.223 0.067 0.973
vn 0.019 0.985 0.170
vn -0.478 -0.791 0.382
vn -0.347 -0.862 -0.369
vn -0.243 -0.954 -0.175
vn -0.955 -0.234 0.182
vn 0.209 -0.893 -0.399
vn -0.222 -0.925 0.310
vn 0.730 -0.151 -0.667
vn -0.017 -0.977 -0.215
vn 0.269 -0.726 -0.633
vn -0.015 -0.985 -0.170
vn 0.548 -0.564 -0.619
vn 0.588 -0.359 -0.725

# Facets
f 1//1 3//1 2//1
f 4//2 2//2 3//2
f 5//3 3//3 1//3
f 5//4 4//4 3//4
f 1//5 2//5 6//5
f 6//6 2//6 4//6
f 5//7 1//7 6//7
f 6//8 4//8 5//8
f 7//9 9//9 8//9
f 10//10 8//10 9//10
f 11//11 9//11 7//11
f 11//12 10//12 9//12
f 12//13 8//13 13//13
f 12//14 7//14 8//14
f 14//15 10//15 15//15
f 8//16 10//16 14//16
f 13//17 8//17 14//17
f 16//18 14//18 15//18
f 17//19 19//19 18//19
f 20//20 11//20 19//20
f 19//21 11//21 12//21
f 12//22 11//22 7//22
f 12//23 18//23 19//23
f 10//24 11//24 15//24
f 15//25 11//25 20//25
f 15//26 20//26 21//26
f 15//27 22//27 16//27
f 23//28 22//28 15//28
f 21//29 23//29 15//29
f 24//30 22//30 23//30
f 17//31 25//31 19//31
f 17//32 26//32 25//32
f 27//33 20//33 19//33
f 25//34 27//34 19//34
f 28//35 21//35 20//35
f 27//36 28//36 20//36
f 29//37 23//37 21//37
f 28//38 29//38 21//38
f 23//39 30//39 24//39
f 23//40 29//40 30//40
f 31//41 25//41 26//41
f 32//42 31//42 33//42
f 25//43 31//43 32//43
f 27//44 25//44 32//44
f 28//45 35//45 34//45
f 32//46 35//46 28//46
f 27//47 32//47 28//47
f 34//48 29//48 28//48
f 34//49 36//49 29//49
f 36//50 30//50 29//50
f 37//51 32//51 33//51
f 37//52 35//52 32//52
f 38//53 40//53 39//53
f 41//54 39//54 40//54
f 38//55 42//55 40//55
f 38//56 43//56 42//56
f 40//57 44//57 41//57
f 40//58 42//58 44//58
f 45//59 42//59 43//59
f 45//60 44//60 42//60
f 46//61 13//61 47//61
f 46//62 12//62 13//62
f 13//63 14//63 48//63
f 47//64 13//64 48//64
f 16//65 48//65 14//65
f 16//66 49//66 48//66
f 50//67 18//67 51//67
f 50//68 17//68 18//68
f 12//69 46//69 18//69
f 46//70 51//70 18//70
f 49//71 16//71 52//71
f 16//72 22//72 52//72
f 24//73 52//73 22//73
f 24//74 53//74 52//74
f 26//75 17//75 50//75
f 26//76 50//76 54//76
f 55//77 57//77 56//77
f 57//78 55//78 58//78
f 59//79 60//79 30//79
f 30//80 60//80 53//80
f 30//81 53//81 24//81
f 61//82 60//82 59//82
f 26//83 62//83 31//83
f 63//84 62//84 26//84
f 54//85 63//85 26//85
f 55//86 56//86 64//86
f 62//87 33//87 31//87
f 65//88 34//88 35//88
f 55//89 64//89 58//89
f 65//90 66//90 34//90
f 34//91 66//91 67//91
f 34//92 67//92 36//92
f 36//93 59//93 30//93
f 68//94 59//94 36//94
f 67//95 68//95 36//95
f 68//96 61//96 59//96
f 69//97 62//97 63//97
f 69//98 33//98 62//98
f 37//99 33//99 69//99
f 70//100 37//100 69//100
f 37//101 65//101 35//101
f 71//102 65//102 37//102
f 70//103 71//103 37//103
f 71//104 66//104 65//104
f 72//105 74//105 73//105
f 39//106 74//106 38//106
f 73//107 74//107 39//107
f 75//108 73//108 39//108
f 76//109 41//109 77//109
f 39//110 41//110 76//110
f 75//111 39//111 76//111
f 78//112 76//112 77//112
f 79//113 74//113 72//113
f 74//114 79//114 38//114
f 38//115 79//115 80//115
f 38//116 80//116 43//116
f 81//117 77//117 44//117
f 77//118 41//118 44//118
f 77//119 82//119 78//119
f 77//120 81//120 82//120
f 83//121 43//121 80//121
f 83//122 45//122 43//122
f 45//123 81//123 44//123
f 84//124 81//124 45//124
f 83//125 84//125 45//125
f 84//126 82//126 81//126
f 46//127 47//127 85//127
f 86//128 47//128 48//128
f 86//129 85//129 47//129
f 86//130 48//130 49//130
f 50//131 51//131 87//131
f 87//132 51//132 88//132
f 51//133 46//133 88//133
f 88//134 46//134 89//134
f 89//135 46//135 85//135
f 85//136 86//136 89//136
f 86//137 90//137 89//137
f 86//138 49//138 90//138
f 90//139 49//139 52//139
f 90//140 52//140 91//140
f 53//141 91//141 52//141
f 53//142 92//142 91//142
f 93//143 87//143 94//143
f 50//144 87//144 93//144
f 54//145 50//145 93//145
f 57//146 95//146 56//146
f 94//147 87//147 88//147
f 57//148 58//148 95//148
f 60//149 96//149 53//149
f 53//150 96//150 97//150
f 53//151 97//151 92//151
f 96//152 60//152 61//152
f 63//153 54//153 93//153
f 63//154 93//154 98//154
f 56//155 95//155 64//155
f 58//156 64//156 95//156
f 99//157 67//157 66//157
f 97//158 96//158 100//158
f 100//159 96//159 67//159
f 67//160 96//160 68//160
f 67//161 99//161 100//161
f 96//162 61//162 68//162
f 101//163 63//163 98//163
f 101//164 69//164 63//164
f 102//165 70//165 69//165
f 102//166 69//166 101//166
f 103//167 71//167 70//167
f 103//168 70//168 102//168
f 71//169 99//169 66//169
f 104//170 99//170 71//170
f 103//171 104//171 71//171
f 104//172 100//172 99//172
f 72//173 73//173 105//173
f 73//174 106//174 105//174
f 107//175 106//175 73//175
f 75//176 107//176 73//176
f 75//177 76//177 108//177
f 107//178 75//178 108//178
f 78//179 108//179 76//179
f 78//180 109//180 108//180
f 79//181 72//181 105//181
f 110//182 80//182 111//182
f 80//183 79//183 111//183
f 111//184 79//184 106//184
f 106//185 79//185 105//185
f 112//186 110//186 113//186
f 110//187 111//187 113//187
f 109//188 112//188 113//188
f 82//189 112//189 109//189
f 78//190 82//190 109//190
f 83//191 80//191 110//191
f 110//192 84//192 83//192
f 110//193 112//193 84//193
f 112//194 82//194 84//194
f 88//195 89//195 114//195
f 115//196 89//196 90//196
f 115//197 114//197 89//197
f 116//198 90//198 91//198
f 116//199 115//199 90//199
f 116//200 91//200 92//200
f 93//201 94//201 117//201
f 117//202 94//202 118//202
f 94//203 88//203 118//203
f 118//204 88//204 119//204
f 119//205 88//205 114//205
f 114//206 115//206 119//206
f 115//207 120//207 119//207
f 121//208 120//208 122//208
f 122//209 120//209 115//209
f 122//210 115//210 116//210
f 122//211 92//211 97//211
f 122//212 116//212 92//212
f 123//213 117//213 124//213
f 93//214 117//214 123//214
f 98//215 93//215 123//215
f 117//216 118//216 124//216
f 122//217 125//217 121//217
f 125//218 126//218 121//218
f 125//219 97//219 100//219
f 125//220 122//220 97//220
f 127//221 98//221 123//221
f 127//222 101//222 98//222
f 128//223 129//223 127//223
f 127//224 129//224 102//224
f 127//225 102//225 101//225
f 129//226 130//226 102//226
f 102//227 130//227 131//227
f 102//228 131//228 103//228
f 104//229 126//229 125//229
f 131//230 126//230 104//230
f 103//231 131//231 104//231
f 125//232 100//232 104//232
f 132//233 129//233 128//233
f 132//234 130//234 129//234
f 106//235 107//235 133//235
f 134//236 107//236 108//236
f 134//237 133//237 107//237
f 134//238 108//238 109//238
f 111//239 106//239 133//239
f 133//240 113//240 111//240
f 133//241 134//241 113//241
f 134//242 109//242 113//242
f 118//243 119//243 135//243
f 136//244 119//244 120//244
f 136//245 135//245 119//245
f 136//246 120//246 121//246
f 123//247 124//247 137//247
f 135//248 124//248 118//248
f 137//249 124//249 135//249
f 138//250 137//250 135//250
f 135//251 136//251 139//251
f 135//252 139//252 138//252
f 139//253 121//253 126//253
f 139//254 136//254 121//254
f 127//255 123//255 137//255
f 137//256 128//256 127//256
f 140//257 128//257 137//257
f 138//258 140//258 137//258
f 140//259 131//259 130//259
f 139//260 131//260 140//260
f 138//261 139//261 140//261
f 139//262 126//262 131//262
f 132//263 128//263 140//263
f 140//264 130//264 132//264
f 141//265 143//265 142//265
f 144//266 143//266 145//266
f 144//267 142//267 143//267
f 146//268 144//268 145//268
f 141//269 147//269 143//269
f 141//270 148//270 147//270
f 145//271 150//271 149//271
f 147//272 150//272 145//272
f 143//273 147//273 145//273
f 149//274 146//274 145//274
f 151//275 147//275 148//275
f 151//276 150//276 147//276
f 141//277 142//277 152//277
f 153//278 142//278 144//278
f 153//279 152//279 142//279
f 153//280 144//280 146//280
f 148//281 152//281 154//281
f 148//282 141//282 152//282
f 154//283 149//283 150//283
f 153//284 149//284 154//284
f 152//285 153//285 154//285
f 153//286 146//286 149//286
f 151//287 148//287 154//287
f 154//288 150//288 151//288

# Thankyou for using Spin3D

