# Created using Spin3D

# Vertex Array
v 5.758 -34.594 29.690
v 5.756 -34.594 29.687
v 5.756 -34.595 29.689
v 5.754 -34.594 29.689
v 5.755 -34.594 29.691
v 5.758 -34.592 29.689
v 5.755 -34.592 29.688
v 5.754 -34.592 29.690
v 5.756 -34.593 29.691
v 5.756 -34.592 29.690
v 2.631 -26.536 60.028
v 2.650 -26.590 60.653
v 2.811 -26.973 60.574
v 3.457 -26.284 60.433
v 3.078 -26.821 60.188
v 2.282 -25.737 60.172
v 2.830 -25.512 60.727
v 4.036 -24.846 60.710
v 3.920 -25.860 58.838
v 2.015 -24.875 58.466
v 5.537 -24.931 59.574
v 6.600 -24.954 57.872
v 7.463 -24.385 58.572
v 3.229 -24.989 56.925
v 1.912 -23.878 56.071
v 5.422 -24.750 56.250
v 8.585 -23.990 57.382
v 7.959 -24.313 56.258
v 9.438 -23.859 56.215
v 3.578 -23.978 55.154
v 2.311 -22.760 54.513
v 7.257 -23.524 54.777
v 5.261 -23.654 54.502
v 9.187 -23.551 55.421
v 4.021 -22.242 53.688
v 6.101 -17.989 29.027
v 6.189 -17.866 29.017
v 6.154 -17.992 29.003
v 6.337 -17.836 28.904
v 6.313 -17.799 28.871
v 2.198 -23.551 59.777
v 3.150 -24.357 60.854
v 3.951 -23.597 60.771
v 0.273 -21.561 57.142
v 0.922 -21.783 58.361
v 0.942 -23.116 58.239
v 5.522 -23.138 60.089
v 7.332 -23.485 59.076
v 8.279 -23.686 58.304
v 8.688 -22.444 57.694
v 0.749 -22.995 56.805
v 0.232 -21.314 55.814
v 9.771 -23.242 56.456
v 10.071 -23.447 55.801
v 10.192 -23.035 55.837
v 1.011 -22.094 55.079
v 0.592 -20.107 54.499
v 5.963 -22.642 53.744
v 7.184 -22.162 53.832
v 8.665 -22.334 54.723
v 9.886 -22.989 55.438
v 2.034 -20.627 53.599
v 3.749 -20.131 52.946
v 5.692 -20.900 53.263
v 6.129 -17.679 29.000
v 6.201 -17.629 29.008
v 6.126 -17.826 29.007
v 6.398 -17.559 28.947
v 6.535 -17.590 28.840
v 6.733 -17.477 28.635
v 6.881 -17.277 28.620
v 6.389 -17.505 28.807
v 6.841 -17.172 28.484
v 6.749 -17.376 28.547
v 7.045 -17.177 28.374
v 7.105 -17.097 28.408
v 7.059 -17.087 28.334
v 7.201 -16.981 28.284
v 3.232 -23.406 60.649
v 0.559 -20.324 57.437
v 2.026 -20.126 58.368
v 3.971 -21.725 59.881
v 5.942 -21.166 59.563
v 7.281 -21.796 59.085
v 7.925 -20.649 58.036
v 0.262 -19.420 55.803
v 0.806 -18.963 56.928
v 9.470 -22.160 55.902
v 8.375 -20.463 56.585
v 0.597 -18.423 54.184
v 7.432 -20.988 53.891
v 8.191 -20.545 54.939
v 1.242 -18.749 53.437
v 2.679 -18.006 52.785
v 4.561 -18.939 52.925
v 6.301 -19.098 53.821
v 6.196 -17.565 28.966
v 6.420 -17.349 28.856
v 6.535 -17.298 28.862
v 6.728 -17.276 28.761
v 7.036 -17.026 28.526
v 7.087 -16.958 28.360
v 6.760 -17.111 28.601
v 7.189 -16.917 28.351
v 7.006 -16.938 28.504
v 3.714 -19.653 58.839
v 5.315 -19.447 58.662
v 6.901 -20.237 58.750
v 0.758 -17.881 55.897
v 1.745 -17.811 56.667
v 3.618 -18.039 57.493
v 5.346 -17.828 57.229
v 5.781 -17.386 55.878
v 6.923 -19.006 57.336
v 0.828 -17.413 54.664
v 1.432 -16.864 55.327
v 7.128 -18.763 55.451
v 5.672 -17.466 54.471
v 1.458 -17.056 53.283
v 2.053 -15.925 52.877
v 2.169 -16.337 52.532
v 2.808 -16.342 52.586
v 4.193 -17.178 53.254
v 2.397 -15.791 52.531
v 6.724 -17.083 28.709
v 6.845 -17.054 28.675
v 2.828 -16.508 55.488
v 4.418 -16.867 56.175
v 1.926 -16.174 54.018
v 2.907 -15.863 54.210
v 4.152 -16.377 54.577
v 2.878 -15.888 53.225
v 4.136 -8.194 45.132
v 4.132 -8.194 45.127
v 4.134 -8.193 45.129
v 4.132 -8.192 45.125
v 4.133 -8.193 45.126
v 4.131 -8.193 45.123
v 4.136 -8.194 45.131
v 4.139 -8.195 45.132
v 4.135 -8.194 45.127
v 4.137 -8.193 45.129
v 4.140 -8.194 45.132
v 4.135 -8.195 45.129
v 4.132 -8.194 45.127
v 4.138 -8.194 45.130

# Normal Array
vn 0.270 -0.904 -0.333
vn -0.182 -0.880 -0.438
vn 0.165 -0.977 0.136
vn -0.301 -0.953 0.029
vn 0.526 0.378 -0.762
vn 0.801 -0.212 -0.559
vn -0.487 -0.154 -0.860
vn -0.803 0.394 -0.446
vn 0.818 0.179 0.547
vn 0.503 -0.425 0.752
vn -0.814 -0.371 0.447
vn -0.521 0.134 0.843
vn 0.178 0.980 -0.087
vn -0.246 0.969 0.005
vn 0.261 0.923 0.283
vn -0.157 0.915 0.373
vn -0.922 -0.387 -0.006
vn 0.288 -0.074 0.955
vn -0.314 -0.789 -0.527
vn 0.731 -0.633 0.255
vn -0.724 0.073 0.686
vn -0.917 -0.400 -0.007
vn 0.302 -0.115 0.946
vn 0.148 -0.245 0.958
vn -0.226 -0.722 -0.654
vn -0.238 -0.711 -0.662
vn -0.918 -0.392 -0.055
vn 0.549 -0.366 0.752
vn 0.522 -0.850 -0.074
vn 0.391 -0.884 0.256
vn 0.798 -0.598 0.073
vn 0.383 -0.889 0.251
vn -0.405 -0.878 -0.254
vn -0.482 -0.816 -0.319
vn 0.217 -0.936 -0.276
vn -0.026 -0.913 -0.407
vn 0.461 -0.876 0.144
vn 0.439 -0.898 0.013
vn 0.166 -0.956 -0.241
vn 0.295 -0.950 0.108
vn -0.332 -0.790 -0.516
vn -0.374 -0.706 -0.602
vn 0.128 -0.835 -0.535
vn -0.041 -0.848 -0.528
vn -0.061 -0.862 -0.504
vn 0.147 -0.842 -0.518
vn 0.162 -0.837 -0.523
vn 0.256 -0.872 -0.418
vn -0.190 -0.605 -0.773
vn -0.183 -0.607 -0.774
vn 0.386 -0.210 0.898
vn 0.619 -0.258 0.742
vn -0.403 -0.268 -0.875
vn 0.103 -0.620 -0.778
vn -0.699 0.117 0.705
vn -0.727 0.095 0.680
vn 0.087 -0.133 0.987
vn 0.139 -0.038 0.990
vn -0.885 -0.055 0.462
vn -0.782 -0.068 0.620
vn -0.762 -0.399 0.510
vn -0.989 -0.011 0.149
vn 0.402 -0.017 0.916
vn 0.581 -0.221 0.783
vn 0.547 -0.346 0.762
vn 0.509 -0.363 0.781
vn 0.438 -0.245 0.865
vn 0.644 0.156 0.749
vn -0.937 -0.334 0.098
vn -0.951 -0.309 -0.028
vn -0.682 -0.685 -0.256
vn -0.856 -0.513 0.072
vn 0.666 -0.614 0.424
vn 0.677 -0.555 0.484
vn 0.701 -0.554 0.449
vn 0.676 -0.189 0.713
vn 0.927 -0.133 0.352
vn 0.834 -0.288 0.472
vn -0.808 -0.463 -0.365
vn -0.799 -0.318 -0.510
vn -0.557 -0.601 -0.573
vn -0.701 -0.583 -0.411
vn 0.145 -0.656 -0.741
vn 0.270 -0.539 -0.798
vn 0.400 -0.508 -0.763
vn 0.288 -0.380 -0.879
vn 0.283 -0.861 -0.422
vn 0.395 -0.467 -0.791
vn 0.316 -0.366 -0.875
vn 0.772 -0.174 -0.612
vn -0.583 -0.339 -0.739
vn -0.529 -0.391 -0.753
vn -0.293 -0.408 -0.864
vn -0.244 -0.349 -0.905
vn -0.091 -0.556 -0.826
vn -0.028 -0.270 -0.963
vn 0.024 -0.329 -0.944
vn 0.163 -0.239 -0.957
vn -0.155 0.050 0.987
vn -0.085 0.135 0.987
vn -0.142 0.045 0.989
vn 0.293 0.021 0.956
vn 0.748 -0.481 0.457
vn 0.617 -0.306 0.725
vn 0.573 -0.208 0.793
vn 0.740 -0.517 0.430
vn -0.585 -0.024 -0.811
vn -0.587 0.012 -0.809
vn -0.578 -0.028 -0.816
vn -0.584 -0.026 -0.812
vn -0.585 -0.011 -0.811
vn 0.058 -0.639 -0.767
vn 0.087 -0.661 -0.745
vn -0.003 -0.655 -0.756
vn 0.765 -0.542 0.347
vn 0.754 -0.633 0.176
vn -0.563 -0.004 -0.826
vn -0.294 -0.341 -0.893
vn -0.039 -0.393 -0.919
vn 0.793 -0.607 0.048
vn -0.647 0.213 0.732
vn -0.106 0.218 0.970
vn -0.873 0.087 0.481
vn -0.535 0.353 0.768
vn -0.477 0.314 0.821
vn -0.393 0.333 0.857
vn -0.587 0.536 0.607
vn -0.038 0.429 0.902
vn 0.258 0.413 0.874
vn 0.088 0.240 0.967
vn 0.490 0.010 0.872
vn 0.396 0.157 0.905
vn 0.707 0.017 0.707
vn 0.733 0.187 0.654
vn -0.903 0.284 0.322
vn -0.952 0.158 0.261
vn -0.999 0.016 0.034
vn -0.532 0.379 0.757
vn 0.798 0.436 0.417
vn 0.830 0.366 0.420
vn 0.893 0.319 0.318
vn 0.640 0.484 0.597
vn -0.968 0.014 -0.252
vn -0.973 -0.039 -0.226
vn 0.509 -0.064 -0.858
vn 0.812 0.572 -0.119
vn 0.775 0.274 -0.570
vn 0.619 0.597 -0.510
vn 0.723 0.269 -0.637
vn 0.673 0.589 -0.447
vn -0.776 -0.113 -0.621
vn -0.581 -0.310 -0.753
vn -0.292 -0.218 -0.931
vn -0.311 -0.211 -0.927
vn 0.122 -0.100 -0.988
vn 0.049 -0.051 -0.998
vn 0.338 -0.024 -0.941
vn 0.342 0.170 -0.924
vn 0.463 0.115 -0.879
vn 0.668 0.376 -0.642
vn -0.424 0.476 0.771
vn -0.114 0.543 0.832
vn -0.325 0.636 0.700
vn 0.234 0.185 0.954
vn 0.585 -0.161 0.795
vn 0.459 0.045 0.887
vn 0.659 -0.226 0.717
vn 0.670 -0.142 0.728
vn -0.656 0.163 -0.737
vn -0.658 0.379 -0.651
vn -0.695 0.318 -0.645
vn -0.704 0.337 -0.625
vn -0.658 0.342 -0.671
vn -0.373 0.868 -0.329
vn -0.626 0.645 -0.439
vn 0.572 0.374 0.730
vn 0.796 -0.190 0.575
vn 0.765 -0.251 0.593
vn -0.614 0.277 -0.739
vn -0.498 0.269 -0.824
vn -0.322 0.659 -0.680
vn 0.868 -0.277 0.411
vn -0.346 0.387 0.855
vn 0.010 0.467 0.884
vn 0.040 0.453 0.891
vn 0.439 0.290 0.850
vn 0.209 0.512 0.833
vn 0.624 0.307 0.718
vn -0.905 0.272 0.327
vn -0.529 0.573 0.626
vn -0.411 0.507 0.758
vn -0.281 0.546 0.789
vn -0.365 0.583 0.726
vn 0.002 0.640 0.768
vn 0.034 0.662 0.749
vn 0.527 0.743 0.413
vn 0.403 0.602 0.689
vn 0.320 0.712 0.625
vn 0.749 0.588 0.307
vn 0.607 0.595 0.527
vn -0.766 0.614 0.190
vn -0.951 0.303 0.061
vn -0.968 0.245 -0.050
vn -0.495 0.651 0.575
vn 0.730 0.663 0.165
vn 0.697 0.711 -0.094
vn 0.837 0.534 -0.120
vn 0.740 0.652 0.165
vn -0.883 0.350 -0.313
vn -0.749 0.035 -0.662
vn -0.807 0.229 -0.545
vn -0.544 -0.286 -0.789
vn -0.399 -0.033 -0.916
vn 0.083 -0.125 -0.989
vn 0.361 -0.138 -0.922
vn 0.179 0.217 -0.960
vn 0.742 0.475 -0.474
vn 0.610 0.485 -0.627
vn 0.461 0.255 -0.850
vn 0.695 0.548 -0.465
vn -0.732 0.304 -0.610
vn 0.084 -0.037 -0.996
vn -0.360 0.731 0.580
vn 0.452 0.105 0.886
vn 0.123 0.501 0.856
vn 0.616 -0.019 0.788
vn -0.706 0.594 -0.387
vn -0.627 0.678 -0.383
vn -0.053 0.848 0.528
vn 0.537 0.369 0.759
vn -0.193 0.742 0.642
vn 0.011 0.744 0.668
vn -0.097 0.772 0.628
vn 0.401 0.825 0.399
vn -0.722 0.687 0.090
vn -0.262 0.758 0.597
vn -0.269 0.890 0.368
vn -0.347 0.846 0.406
vn 0.096 0.956 0.277
vn 0.224 0.864 0.450
vn 0.576 0.812 -0.091
vn 0.387 0.897 0.211
vn -0.783 0.587 -0.206
vn -0.885 0.466 0.003
vn -0.128 0.972 0.198
vn -0.299 0.954 -0.015
vn 0.611 0.612 -0.502
vn 0.653 0.657 -0.378
vn 0.390 0.920 -0.035
vn 0.504 0.746 -0.436
vn -0.142 0.962 0.233
vn 0.740 0.507 -0.441
vn -0.513 0.634 0.579
vn 0.239 0.970 -0.042
vn -0.456 0.819 0.348
vn 0.524 0.730 -0.438
vn 0.039 0.924 0.380
vn 0.229 0.856 0.463
vn 0.648 0.332 -0.685
vn 0.066 0.983 0.173
vn 0.504 0.856 -0.115
vn 0.679 0.524 -0.514
vn -0.223 0.067 0.973
vn 0.019 0.985 0.170
vn -0.478 -0.791 0.382
vn -0.347 -0.862 -0.369
vn -0.243 -0.954 -0.175
vn -0.955 -0.234 0.182
vn 0.209 -0.893 -0.399
vn -0.222 -0.925 0.310
vn 0.730 -0.151 -0.667
vn -0.017 -0.977 -0.215
vn 0.269 -0.726 -0.633
vn -0.015 -0.985 -0.170
vn 0.548 -0.564 -0.619
vn 0.588 -0.359 -0.725

# Facets
f 1//1 3//1 2//1
f 4//2 2//2 3//2
f 5//3 3//3 1//3
f 5//4 4//4 3//4
f 6//5 2//5 7//5
f 6//6 1//6 2//6
f 4//7 7//7 2//7
f 4//8 8//8 7//8
f 9//9 1//9 6//9
f 9//10 5//10 1//10
f 5//11 8//11 4//11
f 5//12 9//12 8//12
f 6//13 7//13 10//13
f 10//14 7//14 8//14
f 9//15 6//15 10//15
f 10//16 8//16 9//16
f 11//17 13//17 12//17
f 14//18 12//18 13//18
f 15//19 13//19 11//19
f 15//20 14//20 13//20
f 16//21 12//21 17//21
f 16//22 11//22 12//22
f 14//23 17//23 12//23
f 14//24 18//24 17//24
f 11//25 19//25 15//25
f 20//26 19//26 11//26
f 16//27 20//27 11//27
f 14//28 21//28 18//28
f 19//29 21//29 14//29
f 22//30 21//30 19//30
f 15//31 19//31 14//31
f 23//32 21//32 22//32
f 20//33 24//33 19//33
f 20//34 25//34 24//34
f 26//35 22//35 19//35
f 24//36 26//36 19//36
f 22//37 27//37 23//37
f 28//38 27//38 22//38
f 26//39 28//39 22//39
f 29//40 27//40 28//40
f 25//41 30//41 24//41
f 25//42 31//42 30//42
f 26//43 33//43 32//43
f 30//44 33//44 26//44
f 24//45 30//45 26//45
f 32//46 28//46 26//46
f 32//47 34//47 28//47
f 34//48 29//48 28//48
f 35//49 30//49 31//49
f 35//50 33//50 30//50
f 36//51 38//51 37//51
f 39//52 37//52 38//52
f 40//53 38//53 36//53
f 40//54 39//54 38//54
f 41//55 17//55 42//55
f 41//56 16//56 17//56
f 18//57 42//57 17//57
f 18//58 43//58 42//58
f 44//59 46//59 45//59
f 45//60 46//60 41//60
f 41//61 46//61 20//61
f 41//62 20//62 16//62
f 43//63 18//63 47//63
f 18//64 21//64 47//64
f 48//65 23//65 49//65
f 21//66 23//66 48//66
f 47//67 21//67 48//67
f 50//68 48//68 49//68
f 44//69 51//69 46//69
f 44//70 52//70 51//70
f 25//71 20//71 51//71
f 20//72 46//72 51//72
f 49//73 23//73 27//73
f 53//74 29//74 54//74
f 53//75 27//75 29//75
f 50//76 27//76 53//76
f 49//77 27//77 50//77
f 55//78 53//78 54//78
f 52//79 56//79 51//79
f 52//80 57//80 56//80
f 31//81 25//81 56//81
f 25//82 51//82 56//82
f 58//83 32//83 33//83
f 58//84 59//84 32//84
f 32//85 59//85 60//85
f 32//86 60//86 34//86
f 34//87 54//87 29//87
f 61//88 54//88 34//88
f 60//89 61//89 34//89
f 61//90 55//90 54//90
f 62//91 56//91 57//91
f 62//92 31//92 56//92
f 35//93 31//93 62//93
f 63//94 35//94 62//94
f 35//95 58//95 33//95
f 64//96 58//96 35//96
f 63//97 64//97 35//97
f 64//98 59//98 58//98
f 65//99 67//99 66//99
f 37//100 67//100 36//100
f 66//101 67//101 37//101
f 68//102 66//102 37//102
f 69//103 39//103 70//103
f 37//104 39//104 69//104
f 68//105 37//105 69//105
f 71//106 69//106 70//106
f 72//107 67//107 65//107
f 73//108 74//108 72//108
f 74//109 40//109 72//109
f 72//110 40//110 67//110
f 67//111 40//111 36//111
f 39//112 40//112 70//112
f 70//113 40//113 74//113
f 70//114 74//114 75//114
f 70//115 76//115 71//115
f 70//116 75//116 76//116
f 77//117 74//117 73//117
f 77//118 75//118 74//118
f 77//119 78//119 75//119
f 78//120 76//120 75//120
f 41//121 42//121 79//121
f 79//122 42//122 43//122
f 44//123 45//123 80//123
f 80//124 45//124 81//124
f 45//125 41//125 81//125
f 81//126 41//126 82//126
f 82//127 41//127 79//127
f 79//128 43//128 82//128
f 82//129 43//129 47//129
f 82//130 47//130 83//130
f 47//131 48//131 84//131
f 83//132 47//132 84//132
f 50//133 84//133 48//133
f 50//134 85//134 84//134
f 86//135 80//135 87//135
f 44//136 80//136 86//136
f 52//137 44//137 86//137
f 80//138 81//138 87//138
f 53//139 88//139 50//139
f 50//140 88//140 89//140
f 50//141 89//141 85//141
f 88//142 53//142 55//142
f 57//143 52//143 86//143
f 57//144 86//144 90//144
f 91//145 60//145 59//145
f 89//146 88//146 92//146
f 92//147 88//147 60//147
f 60//148 88//148 61//148
f 60//149 91//149 92//149
f 88//150 55//150 61//150
f 93//151 57//151 90//151
f 93//152 62//152 57//152
f 94//153 63//153 62//153
f 94//154 62//154 93//154
f 95//155 64//155 63//155
f 95//156 63//156 94//156
f 64//157 91//157 59//157
f 96//158 91//158 64//158
f 95//159 96//159 64//159
f 96//160 92//160 91//160
f 65//161 66//161 97//161
f 66//162 98//162 97//162
f 99//163 98//163 66//163
f 68//164 99//164 66//164
f 68//165 69//165 100//165
f 99//166 68//166 100//166
f 71//167 100//167 69//167
f 71//168 101//168 100//168
f 72//169 65//169 97//169
f 102//170 73//170 103//170
f 73//171 72//171 103//171
f 103//172 72//172 98//172
f 98//173 72//173 97//173
f 104//174 102//174 105//174
f 102//175 103//175 105//175
f 101//176 104//176 105//176
f 76//177 104//177 101//177
f 71//178 76//178 101//178
f 77//179 73//179 102//179
f 102//180 78//180 77//180
f 102//181 104//181 78//181
f 104//182 76//182 78//182
f 81//183 82//183 106//183
f 107//184 82//184 83//184
f 107//185 106//185 82//185
f 108//186 83//186 84//186
f 108//187 107//187 83//187
f 108//188 84//188 85//188
f 86//189 87//189 109//189
f 109//190 87//190 110//190
f 87//191 81//191 110//191
f 110//192 81//192 111//192
f 111//193 81//193 106//193
f 106//194 107//194 111//194
f 107//195 112//195 111//195
f 113//196 112//196 114//196
f 114//197 112//197 107//197
f 114//198 107//198 108//198
f 114//199 85//199 89//199
f 114//200 108//200 85//200
f 115//201 109//201 116//201
f 86//202 109//202 115//202
f 90//203 86//203 115//203
f 109//204 110//204 116//204
f 114//205 117//205 113//205
f 117//206 118//206 113//206
f 117//207 89//207 92//207
f 117//208 114//208 89//208
f 119//209 90//209 115//209
f 119//210 93//210 90//210
f 120//211 121//211 119//211
f 119//212 121//212 94//212
f 119//213 94//213 93//213
f 121//214 122//214 94//214
f 94//215 122//215 123//215
f 94//216 123//216 95//216
f 96//217 118//217 117//217
f 123//218 118//218 96//218
f 95//219 123//219 96//219
f 117//220 92//220 96//220
f 124//221 121//221 120//221
f 124//222 122//222 121//222
f 98//223 99//223 125//223
f 126//224 99//224 100//224
f 126//225 125//225 99//225
f 126//226 100//226 101//226
f 103//227 98//227 125//227
f 125//228 105//228 103//228
f 125//229 126//229 105//229
f 126//230 101//230 105//230
f 110//231 111//231 127//231
f 128//232 111//232 112//232
f 128//233 127//233 111//233
f 128//234 112//234 113//234
f 115//235 116//235 129//235
f 127//236 116//236 110//236
f 129//237 116//237 127//237
f 130//238 129//238 127//238
f 127//239 128//239 131//239
f 127//240 131//240 130//240
f 131//241 113//241 118//241
f 131//242 128//242 113//242
f 119//243 115//243 129//243
f 129//244 120//244 119//244
f 132//245 120//245 129//245
f 130//246 132//246 129//246
f 132//247 123//247 122//247
f 131//248 123//248 132//248
f 130//249 131//249 132//249
f 131//250 118//250 123//250
f 124//251 120//251 132//251
f 132//252 122//252 124//252
f 133//253 135//253 134//253
f 136//254 135//254 137//254
f 136//255 134//255 135//255
f 138//256 136//256 137//256
f 133//257 139//257 135//257
f 133//258 140//258 139//258
f 137//259 142//259 141//259
f 139//260 142//260 137//260
f 135//261 139//261 137//261
f 141//262 138//262 137//262
f 143//263 139//263 140//263
f 143//264 142//264 139//264
f 133//265 134//265 144//265
f 145//266 134//266 136//266
f 145//267 144//267 134//267
f 145//268 136//268 138//268
f 140//269 144//269 146//269
f 140//270 133//270 144//270
f 146//271 141//271 142//271
f 145//272 141//272 146//272
f 144//273 145//273 146//273
f 145//274 138//274 141//274
f 143//275 140//275 146//275
f 146//276 142//276 143//276

# Thankyou for using Spin3D

