# Created using Spin3D

# Vertex Array
v 5.758 -34.594 29.690
v 5.756 -34.594 29.687
v 5.756 -34.595 29.689
v 5.754 -34.594 29.689
v 5.755 -34.594 29.691
v 5.758 -34.592 29.689
v 5.755 -34.592 29.688
v 5.754 -34.592 29.690
v 5.756 -34.593 29.691
v 5.756 -34.592 29.690
v 2.724 -27.124 61.061
v 3.031 -26.868 61.347
v 2.957 -27.375 61.200
v 3.468 -27.079 61.098
v 3.051 -26.843 60.265
v 2.388 -25.878 60.424
v 3.282 -25.404 61.321
v 4.005 -26.240 61.309
v 4.685 -26.216 60.101
v 5.259 -25.329 60.865
v 0.679 -24.041 57.187
v 1.208 -24.002 58.785
v 2.008 -25.567 58.319
v 3.934 -26.038 58.287
v 6.233 -25.261 58.017
v 6.797 -24.551 59.527
v 1.361 -24.543 56.133
v 0.237 -22.822 55.571
v 2.898 -25.378 56.662
v 5.113 -24.918 56.040
v 8.434 -23.924 57.623
v 7.783 -24.347 56.251
v 9.390 -23.765 56.242
v 1.117 -23.566 54.753
v 2.833 -24.173 54.847
v 1.822 -22.853 53.914
v 7.094 -23.524 54.663
v 4.906 -23.747 54.297
v 9.145 -23.468 55.370
v 3.698 -22.392 53.497
v 6.101 -17.989 29.027
v 6.189 -17.866 29.017
v 6.154 -17.992 29.003
v 6.337 -17.836 28.904
v 6.313 -17.799 28.871
v 2.557 -23.265 60.275
v 3.723 -24.002 61.344
v 4.514 -24.801 61.410
v 6.001 -23.765 60.654
v 0.144 -22.128 57.087
v 1.031 -21.999 58.605
v 8.200 -23.416 58.739
v 7.603 -22.786 59.474
v 8.887 -22.093 57.808
v -0.217 -21.362 55.735
v 9.818 -23.057 56.495
v 10.098 -23.305 55.773
v 10.261 -22.856 55.809
v 0.747 -22.311 54.252
v 0.238 -20.690 54.612
v 5.759 -22.681 53.623
v 7.095 -22.135 53.771
v 8.663 -22.226 54.674
v 9.930 -22.836 55.388
v 1.815 -20.976 53.502
v 3.649 -20.507 53.049
v 5.594 -21.012 53.291
v 6.129 -17.679 29.000
v 6.201 -17.629 29.008
v 6.126 -17.826 29.007
v 6.398 -17.559 28.947
v 6.535 -17.590 28.840
v 6.733 -17.477 28.635
v 6.881 -17.277 28.620
v 6.389 -17.505 28.807
v 6.841 -17.172 28.484
v 6.749 -17.376 28.547
v 7.045 -17.177 28.374
v 7.105 -17.097 28.408
v 7.059 -17.087 28.334
v 7.201 -16.981 28.284
v 3.746 -22.928 61.007
v 4.774 -23.079 61.058
v 0.482 -20.481 57.555
v 2.091 -20.000 58.567
v 4.116 -21.261 60.072
v 6.344 -21.550 59.943
v 7.962 -21.251 58.992
v 8.288 -20.316 58.034
v -0.019 -19.667 55.972
v 0.670 -19.007 57.103
v 9.573 -21.953 55.895
v 8.572 -20.225 56.613
v 0.232 -18.799 54.626
v 7.422 -20.952 53.910
v 8.273 -20.428 54.975
v 1.121 -18.979 53.814
v 2.815 -19.029 53.298
v 4.553 -19.351 53.234
v 6.331 -19.216 54.036
v 6.196 -17.565 28.966
v 6.420 -17.349 28.856
v 6.535 -17.298 28.862
v 6.728 -17.276 28.761
v 7.036 -17.026 28.526
v 7.087 -16.958 28.360
v 6.760 -17.111 28.601
v 7.189 -16.917 28.351
v 7.006 -16.938 28.504
v 3.839 -19.399 58.981
v 5.540 -19.288 58.793
v 7.300 -20.046 58.808
v 0.516 -18.026 56.184
v 1.646 -17.859 56.917
v 3.692 -17.969 57.679
v 5.511 -17.730 57.373
v 5.955 -17.413 56.123
v 7.163 -18.822 57.403
v 0.451 -17.787 55.187
v 1.187 -17.151 55.761
v 7.268 -18.694 55.584
v 5.789 -17.656 54.844
v 0.863 -17.757 54.302
v 2.121 -17.597 53.921
v 4.175 -17.778 53.950
v 6.724 -17.083 28.709
v 6.845 -17.054 28.675
v 2.789 -16.838 55.891
v 4.542 -16.956 56.468
v 1.560 -16.974 54.821
v 2.962 -16.831 54.611
v 4.430 -16.851 55.216
v 4.136 -8.194 45.132
v 4.132 -8.194 45.127
v 4.134 -8.193 45.129
v 4.132 -8.192 45.125
v 4.133 -8.193 45.126
v 4.131 -8.193 45.123
v 4.136 -8.194 45.131
v 4.139 -8.195 45.132
v 4.135 -8.194 45.127
v 4.137 -8.193 45.129
v 4.140 -8.194 45.132
v 4.135 -8.195 45.129
v 4.132 -8.194 45.127
v 4.138 -8.194 45.130

# Normal Array
vn 0.270 -0.904 -0.333
vn -0.182 -0.880 -0.438
vn 0.165 -0.977 0.136
vn -0.301 -0.953 0.029
vn 0.526 0.378 -0.762
vn 0.801 -0.212 -0.559
vn -0.487 -0.154 -0.860
vn -0.803 0.394 -0.446
vn 0.818 0.179 0.547
vn 0.503 -0.425 0.752
vn -0.814 -0.371 0.447
vn -0.521 0.134 0.843
vn 0.178 0.980 -0.087
vn -0.246 0.969 0.005
vn 0.261 0.923 0.283
vn -0.157 0.915 0.373
vn -0.612 -0.136 0.779
vn 0.356 -0.308 0.883
vn -0.506 -0.727 -0.465
vn 0.388 -0.817 -0.426
vn -0.737 0.138 0.661
vn -0.735 0.141 0.663
vn 0.725 -0.564 0.396
vn 0.297 -0.408 0.864
vn 0.031 0.012 0.999
vn 0.629 -0.699 0.340
vn -0.817 -0.502 0.283
vn -0.219 -0.866 -0.450
vn -0.818 -0.572 0.063
vn -0.761 -0.446 -0.471
vn -0.876 -0.474 0.088
vn 0.295 -0.870 -0.394
vn 0.329 -0.917 -0.226
vn 0.291 -0.933 -0.212
vn 0.638 -0.696 0.329
vn 0.635 -0.763 0.122
vn -0.703 -0.701 -0.121
vn -0.780 -0.584 -0.227
vn -0.234 -0.944 -0.234
vn -0.373 -0.878 -0.301
vn 0.272 -0.911 -0.311
vn 0.072 -0.907 -0.414
vn 0.534 -0.824 0.188
vn 0.521 -0.853 0.016
vn 0.222 -0.932 -0.287
vn 0.339 -0.932 0.127
vn -0.758 -0.588 -0.282
vn -0.194 -0.661 -0.725
vn -0.257 -0.810 -0.528
vn -0.258 -0.809 -0.528
vn 0.176 -0.807 -0.564
vn 0.022 -0.828 -0.560
vn 0.017 -0.833 -0.554
vn 0.218 -0.825 -0.522
vn 0.202 -0.831 -0.518
vn 0.313 -0.869 -0.384
vn -0.033 -0.594 -0.804
vn -0.099 -0.570 -0.815
vn 0.386 -0.210 0.898
vn 0.619 -0.258 0.742
vn -0.403 -0.268 -0.875
vn 0.103 -0.620 -0.778
vn -0.602 0.177 0.779
vn -0.728 0.086 0.680
vn -0.045 -0.054 0.998
vn -0.076 0.008 0.997
vn 0.467 -0.225 0.855
vn 0.522 -0.134 0.842
vn -0.862 -0.031 0.506
vn -0.920 -0.241 0.310
vn -0.759 0.086 0.645
vn -0.740 -0.005 0.672
vn 0.625 -0.263 0.735
vn 0.676 -0.288 0.678
vn 0.704 -0.244 0.667
vn 0.786 0.026 0.617
vn -0.962 -0.266 0.063
vn -0.949 -0.304 0.081
vn 0.702 -0.581 0.412
vn 0.678 -0.574 0.459
vn 0.702 -0.575 0.420
vn 0.700 -0.241 0.673
vn 0.915 -0.258 0.309
vn 0.833 -0.337 0.438
vn -0.782 -0.416 -0.464
vn -0.890 -0.187 -0.416
vn -0.855 -0.212 -0.474
vn -0.465 -0.443 -0.767
vn 0.190 -0.629 -0.754
vn 0.300 -0.516 -0.803
vn 0.413 -0.492 -0.766
vn 0.312 -0.369 -0.875
vn 0.311 -0.869 -0.384
vn 0.410 -0.487 -0.771
vn 0.316 -0.368 -0.875
vn 0.760 -0.228 -0.608
vn -0.576 0.001 -0.818
vn -0.384 -0.199 -0.901
vn -0.162 -0.212 -0.964
vn -0.177 -0.232 -0.957
vn -0.021 -0.522 -0.852
vn 0.033 -0.191 -0.981
vn 0.061 -0.229 -0.971
vn 0.179 -0.175 -0.968
vn -0.155 0.050 0.987
vn -0.085 0.135 0.987
vn -0.142 0.045 0.989
vn 0.293 0.021 0.956
vn 0.748 -0.481 0.457
vn 0.617 -0.306 0.725
vn 0.573 -0.208 0.793
vn 0.740 -0.517 0.430
vn -0.585 -0.024 -0.811
vn -0.587 0.012 -0.809
vn -0.578 -0.028 -0.816
vn -0.584 -0.026 -0.812
vn -0.585 -0.011 -0.811
vn 0.058 -0.639 -0.767
vn 0.087 -0.661 -0.745
vn -0.003 -0.655 -0.756
vn 0.765 -0.542 0.347
vn 0.754 -0.633 0.176
vn -0.563 -0.004 -0.826
vn -0.294 -0.341 -0.893
vn -0.039 -0.393 -0.919
vn 0.793 -0.607 0.048
vn -0.559 0.259 0.788
vn 0.104 0.184 0.977
vn -0.003 0.299 0.954
vn 0.375 0.131 0.918
vn -0.864 0.035 0.502
vn -0.571 0.317 0.757
vn -0.569 0.316 0.759
vn -0.384 0.384 0.839
vn -0.553 0.498 0.668
vn 0.028 0.484 0.874
vn 0.115 0.505 0.855
vn 0.413 0.220 0.884
vn 0.503 0.193 0.842
vn 0.478 0.159 0.864
vn 0.790 0.007 0.612
vn 0.838 0.219 0.499
vn -0.885 0.236 0.401
vn -0.934 0.094 0.344
vn -0.953 0.070 0.294
vn -0.571 0.306 0.762
vn 0.864 0.375 0.337
vn 0.868 0.363 0.338
vn 0.935 0.289 0.206
vn 0.678 0.461 0.573
vn -0.944 0.151 -0.292
vn -0.983 -0.002 -0.184
vn 0.497 -0.035 -0.867
vn 0.803 0.555 -0.216
vn 0.744 0.265 -0.614
vn 0.594 0.567 -0.570
vn 0.687 0.263 -0.678
vn 0.667 0.555 -0.498
vn -0.674 0.003 -0.739
vn -0.583 -0.076 -0.809
vn -0.245 0.024 -0.969
vn -0.290 0.049 -0.956
vn 0.136 0.051 -0.989
vn -0.006 0.162 -0.987
vn 0.320 0.023 -0.947
vn 0.302 0.257 -0.918
vn 0.389 0.212 -0.897
vn 0.595 0.423 -0.683
vn -0.424 0.476 0.771
vn -0.114 0.543 0.832
vn -0.325 0.636 0.700
vn 0.234 0.185 0.954
vn 0.585 -0.161 0.795
vn 0.459 0.045 0.887
vn 0.659 -0.226 0.717
vn 0.670 -0.142 0.728
vn -0.656 0.163 -0.737
vn -0.658 0.379 -0.651
vn -0.695 0.318 -0.645
vn -0.704 0.337 -0.625
vn -0.658 0.342 -0.671
vn -0.373 0.868 -0.329
vn -0.626 0.645 -0.439
vn 0.572 0.374 0.730
vn 0.796 -0.190 0.575
vn 0.765 -0.251 0.593
vn -0.614 0.277 -0.739
vn -0.498 0.269 -0.824
vn -0.322 0.659 -0.680
vn 0.868 -0.277 0.411
vn -0.347 0.435 0.831
vn 0.113 0.482 0.869
vn 0.062 0.511 0.857
vn 0.423 0.359 0.832
vn 0.208 0.501 0.840
vn 0.625 0.442 0.643
vn -0.885 0.236 0.401
vn -0.512 0.543 0.666
vn -0.434 0.492 0.755
vn -0.264 0.554 0.790
vn -0.374 0.603 0.704
vn 0.038 0.675 0.737
vn 0.035 0.673 0.738
vn 0.506 0.776 0.376
vn 0.399 0.622 0.674
vn 0.310 0.732 0.607
vn 0.744 0.640 0.190
vn 0.573 0.645 0.506
vn -0.727 0.656 0.204
vn -0.948 0.292 0.131
vn -0.973 0.229 -0.033
vn -0.478 0.651 0.589
vn 0.714 0.694 0.090
vn 0.632 0.742 -0.223
vn 0.810 0.545 -0.216
vn 0.728 0.680 0.090
vn -0.840 0.391 -0.376
vn -0.648 0.160 -0.745
vn -0.274 0.269 -0.923
vn -0.311 0.295 -0.904
vn 0.045 0.423 -0.905
vn 0.050 0.419 -0.907
vn 0.645 0.516 -0.564
vn 0.381 0.526 -0.760
vn 0.337 0.456 -0.823
vn 0.616 0.554 -0.560
vn -0.360 0.731 0.580
vn 0.452 0.105 0.886
vn 0.123 0.501 0.856
vn 0.616 -0.019 0.788
vn -0.706 0.594 -0.387
vn -0.627 0.678 -0.383
vn -0.053 0.848 0.528
vn 0.537 0.369 0.759
vn -0.177 0.789 0.589
vn 0.008 0.764 0.645
vn -0.136 0.805 0.578
vn 0.364 0.864 0.348
vn -0.609 0.788 -0.093
vn -0.202 0.797 0.569
vn -0.199 0.974 0.105
vn -0.102 0.995 -0.009
vn 0.041 0.996 0.080
vn 0.010 1.000 0.006
vn 0.451 0.864 -0.223
vn 0.319 0.946 0.051
vn -0.626 0.733 -0.265
vn -0.288 0.694 -0.660
vn -0.171 0.757 -0.631
vn 0.066 0.627 -0.776
vn 0.259 0.754 -0.604
vn 0.278 0.747 -0.603
vn -0.513 0.634 0.579
vn 0.239 0.970 -0.042
vn -0.456 0.819 0.348
vn 0.524 0.730 -0.438
vn 0.039 0.924 0.380
vn 0.229 0.856 0.463
vn 0.648 0.332 -0.685
vn 0.066 0.983 0.173
vn 0.504 0.856 -0.115
vn 0.679 0.524 -0.514
vn -0.223 0.067 0.973
vn 0.019 0.985 0.170
vn -0.478 -0.791 0.382
vn -0.347 -0.862 -0.369
vn -0.243 -0.954 -0.175
vn -0.955 -0.234 0.182
vn 0.209 -0.893 -0.399
vn -0.222 -0.925 0.310
vn 0.730 -0.151 -0.667
vn -0.017 -0.977 -0.215
vn 0.269 -0.726 -0.633
vn -0.015 -0.985 -0.170
vn 0.548 -0.564 -0.619
vn 0.588 -0.359 -0.725

# Facets
f 1//1 3//1 2//1
f 4//2 2//2 3//2
f 5//3 3//3 1//3
f 5//4 4//4 3//4
f 6//5 2//5 7//5
f 6//6 1//6 2//6
f 4//7 7//7 2//7
f 4//8 8//8 7//8
f 9//9 1//9 6//9
f 9//10 5//10 1//10
f 5//11 8//11 4//11
f 5//12 9//12 8//12
f 6//13 7//13 10//13
f 10//14 7//14 8//14
f 9//15 6//15 10//15
f 10//16 8//16 9//16
f 11//17 13//17 12//17
f 14//18 12//18 13//18
f 15//19 13//19 11//19
f 15//20 14//20 13//20
f 16//21 12//21 17//21
f 16//22 11//22 12//22
f 18//23 14//23 19//23
f 12//24 14//24 18//24
f 17//25 12//25 18//25
f 20//26 18//26 19//26
f 21//27 23//27 22//27
f 24//28 15//28 23//28
f 23//29 15//29 16//29
f 16//30 15//30 11//30
f 16//31 22//31 23//31
f 14//32 15//32 19//32
f 19//33 15//33 24//33
f 19//34 24//34 25//34
f 19//35 26//35 20//35
f 19//36 25//36 26//36
f 21//37 27//37 23//37
f 21//38 28//38 27//38
f 29//39 24//39 23//39
f 27//40 29//40 23//40
f 30//41 25//41 24//41
f 29//42 30//42 24//42
f 25//43 31//43 26//43
f 32//44 31//44 25//44
f 30//45 32//45 25//45
f 33//46 31//46 32//46
f 34//47 27//47 28//47
f 35//48 34//48 36//48
f 27//49 34//49 35//49
f 29//50 27//50 35//50
f 30//51 38//51 37//51
f 35//52 38//52 30//52
f 29//53 35//53 30//53
f 37//54 32//54 30//54
f 37//55 39//55 32//55
f 39//56 33//56 32//56
f 40//57 35//57 36//57
f 40//58 38//58 35//58
f 41//59 43//59 42//59
f 44//60 42//60 43//60
f 45//61 43//61 41//61
f 45//62 44//62 43//62
f 46//63 17//63 47//63
f 46//64 16//64 17//64
f 17//65 18//65 48//65
f 47//66 17//66 48//66
f 20//67 48//67 18//67
f 20//68 49//68 48//68
f 50//69 22//69 51//69
f 50//70 21//70 22//70
f 16//71 46//71 22//71
f 46//72 51//72 22//72
f 52//73 53//73 26//73
f 26//74 53//74 49//74
f 26//75 49//75 20//75
f 54//76 53//76 52//76
f 28//77 21//77 50//77
f 28//78 50//78 55//78
f 52//79 26//79 31//79
f 56//80 33//80 57//80
f 56//81 31//81 33//81
f 54//82 31//82 56//82
f 52//83 31//83 54//83
f 58//84 56//84 57//84
f 28//85 59//85 34//85
f 60//86 59//86 28//86
f 55//87 60//87 28//87
f 36//88 34//88 59//88
f 61//89 37//89 38//89
f 61//90 62//90 37//90
f 37//91 62//91 63//91
f 37//92 63//92 39//92
f 39//93 57//93 33//93
f 64//94 57//94 39//94
f 63//95 64//95 39//95
f 64//96 58//96 57//96
f 65//97 59//97 60//97
f 65//98 36//98 59//98
f 40//99 36//99 65//99
f 66//100 40//100 65//100
f 40//101 61//101 38//101
f 67//102 61//102 40//102
f 66//103 67//103 40//103
f 67//104 62//104 61//104
f 68//105 70//105 69//105
f 42//106 70//106 41//106
f 69//107 70//107 42//107
f 71//108 69//108 42//108
f 72//109 44//109 73//109
f 42//110 44//110 72//110
f 71//111 42//111 72//111
f 74//112 72//112 73//112
f 75//113 70//113 68//113
f 76//114 77//114 75//114
f 77//115 45//115 75//115
f 75//116 45//116 70//116
f 70//117 45//117 41//117
f 44//118 45//118 73//118
f 73//119 45//119 77//119
f 73//120 77//120 78//120
f 73//121 79//121 74//121
f 73//122 78//122 79//122
f 80//123 77//123 76//123
f 80//124 78//124 77//124
f 80//125 81//125 78//125
f 81//126 79//126 78//126
f 46//127 47//127 82//127
f 83//128 47//128 48//128
f 83//129 82//129 47//129
f 83//130 48//130 49//130
f 50//131 51//131 84//131
f 84//132 51//132 85//132
f 51//133 46//133 85//133
f 85//134 46//134 86//134
f 86//135 46//135 82//135
f 82//136 83//136 86//136
f 83//137 87//137 86//137
f 83//138 49//138 87//138
f 87//139 49//139 53//139
f 87//140 53//140 88//140
f 54//141 88//141 53//141
f 54//142 89//142 88//142
f 90//143 84//143 91//143
f 50//144 84//144 90//144
f 55//145 50//145 90//145
f 84//146 85//146 91//146
f 56//147 92//147 54//147
f 54//148 92//148 93//148
f 54//149 93//149 89//149
f 92//150 56//150 58//150
f 60//151 55//151 90//151
f 60//152 90//152 94//152
f 95//153 63//153 62//153
f 93//154 92//154 96//154
f 96//155 92//155 63//155
f 63//156 92//156 64//156
f 63//157 95//157 96//157
f 92//158 58//158 64//158
f 97//159 60//159 94//159
f 97//160 65//160 60//160
f 98//161 66//161 65//161
f 98//162 65//162 97//162
f 99//163 67//163 66//163
f 99//164 66//164 98//164
f 67//165 95//165 62//165
f 100//166 95//166 67//166
f 99//167 100//167 67//167
f 100//168 96//168 95//168
f 68//169 69//169 101//169
f 69//170 102//170 101//170
f 103//171 102//171 69//171
f 71//172 103//172 69//172
f 71//173 72//173 104//173
f 103//174 71//174 104//174
f 74//175 104//175 72//175
f 74//176 105//176 104//176
f 75//177 68//177 101//177
f 106//178 76//178 107//178
f 76//179 75//179 107//179
f 107//180 75//180 102//180
f 102//181 75//181 101//181
f 108//182 106//182 109//182
f 106//183 107//183 109//183
f 105//184 108//184 109//184
f 79//185 108//185 105//185
f 74//186 79//186 105//186
f 80//187 76//187 106//187
f 106//188 81//188 80//188
f 106//189 108//189 81//189
f 108//190 79//190 81//190
f 85//191 86//191 110//191
f 111//192 86//192 87//192
f 111//193 110//193 86//193
f 112//194 87//194 88//194
f 112//195 111//195 87//195
f 112//196 88//196 89//196
f 90//197 91//197 113//197
f 113//198 91//198 114//198
f 91//199 85//199 114//199
f 114//200 85//200 115//200
f 115//201 85//201 110//201
f 110//202 111//202 115//202
f 111//203 116//203 115//203
f 117//204 116//204 118//204
f 118//205 116//205 111//205
f 118//206 111//206 112//206
f 118//207 89//207 93//207
f 118//208 112//208 89//208
f 119//209 113//209 120//209
f 90//210 113//210 119//210
f 94//211 90//211 119//211
f 113//212 114//212 120//212
f 118//213 121//213 117//213
f 121//214 122//214 117//214
f 121//215 93//215 96//215
f 121//216 118//216 93//216
f 123//217 94//217 119//217
f 123//218 97//218 94//218
f 124//219 98//219 97//219
f 124//220 97//220 123//220
f 125//221 99//221 98//221
f 125//222 98//222 124//222
f 100//223 122//223 121//223
f 125//224 122//224 100//224
f 99//225 125//225 100//225
f 121//226 96//226 100//226
f 102//227 103//227 126//227
f 127//228 103//228 104//228
f 127//229 126//229 103//229
f 127//230 104//230 105//230
f 107//231 102//231 126//231
f 126//232 109//232 107//232
f 126//233 127//233 109//233
f 127//234 105//234 109//234
f 114//235 115//235 128//235
f 129//236 115//236 116//236
f 129//237 128//237 115//237
f 129//238 116//238 117//238
f 119//239 120//239 130//239
f 128//240 120//240 114//240
f 130//241 120//241 128//241
f 131//242 130//242 128//242
f 128//243 129//243 132//243
f 128//244 132//244 131//244
f 132//245 117//245 122//245
f 132//246 129//246 117//246
f 123//247 119//247 130//247
f 130//248 124//248 123//248
f 130//249 131//249 124//249
f 131//250 125//250 124//250
f 131//251 132//251 125//251
f 132//252 122//252 125//252
f 133//253 135//253 134//253
f 136//254 135//254 137//254
f 136//255 134//255 135//255
f 138//256 136//256 137//256
f 133//257 139//257 135//257
f 133//258 140//258 139//258
f 137//259 142//259 141//259
f 139//260 142//260 137//260
f 135//261 139//261 137//261
f 141//262 138//262 137//262
f 143//263 139//263 140//263
f 143//264 142//264 139//264
f 133//265 134//265 144//265
f 145//266 134//266 136//266
f 145//267 144//267 134//267
f 145//268 136//268 138//268
f 140//269 144//269 146//269
f 140//270 133//270 144//270
f 146//271 141//271 142//271
f 145//272 141//272 146//272
f 144//273 145//273 146//273
f 145//274 138//274 141//274
f 143//275 140//275 146//275
f 146//276 142//276 143//276

# Thankyou for using Spin3D

