# Created using Spin3D

# Vertex Array
v 5.734 -36.075 29.445
v 5.735 -36.075 29.446
v 5.735 -36.076 29.445
v 5.736 -36.075 29.445
v 5.735 -36.075 29.444
v 5.735 -36.074 29.445
v 2.282 -26.959 60.881
v 2.564 -26.706 61.069
v 2.546 -27.076 60.947
v 3.341 -26.386 60.649
v 2.478 -26.647 60.161
v 2.094 -25.820 60.324
v 3.145 -25.453 61.167
v 4.199 -25.545 61.097
v 0.604 -24.036 57.197
v 1.099 -24.006 58.770
v 1.764 -25.497 58.359
v 3.621 -25.853 58.592
v 5.293 -25.038 59.791
v 5.684 -24.946 57.763
v 7.122 -24.060 58.036
v 1.224 -24.528 56.166
v 0.234 -22.834 55.567
v 2.609 -25.305 56.762
v 4.570 -24.800 56.086
v 7.360 -23.665 56.173
v 1.041 -23.586 54.764
v 2.568 -24.195 54.902
v 1.725 -22.908 53.940
v 5.787 -23.773 54.802
v 4.326 -23.874 54.410
v 3.477 -22.523 53.614
v 6.918 -17.947 28.493
v 6.900 -17.836 28.525
v 6.931 -17.855 28.497
v 6.948 -17.900 28.465
v 6.968 -17.923 28.446
v 2.446 -23.305 60.229
v 3.577 -24.016 61.293
v 4.331 -24.645 61.370
v 4.890 -24.956 61.018
v 5.536 -23.811 60.617
v 0.152 -22.150 57.078
v 1.006 -22.040 58.591
v 7.377 -22.904 58.985
v 8.930 -22.854 57.145
v 9.094 -21.438 57.570
v -0.169 -21.379 55.719
v 9.177 -22.848 56.210
v 10.083 -22.038 56.690
v 10.057 -22.368 56.257
v 10.486 -21.984 56.263
v 0.741 -22.344 54.248
v 0.285 -20.714 54.593
v 5.269 -22.934 53.900
v 6.926 -22.553 54.515
v 9.028 -22.070 55.535
v 10.264 -21.991 56.010
v 1.797 -21.043 53.522
v 3.597 -20.628 53.157
v 5.487 -21.203 53.597
v 6.888 -17.646 28.557
v 6.891 -17.708 28.552
v 7.049 -17.799 28.378
v 6.964 -17.699 28.470
v 7.078 -17.647 28.364
v 7.030 -17.796 28.405
v 6.971 -17.632 28.487
v 7.119 -17.720 28.323
v 7.136 -17.670 28.308
v 7.085 -17.650 28.371
v 7.138 -17.611 28.319
v 3.612 -22.974 60.974
v 4.573 -23.101 61.014
v 0.508 -20.522 57.542
v 2.076 -20.054 58.548
v 4.017 -21.317 60.030
v 6.178 -21.586 59.807
v 7.927 -21.114 58.776
v 8.355 -20.089 57.950
v 0.037 -19.690 55.950
v 0.707 -19.046 57.086
v 9.840 -21.377 56.265
v 8.722 -19.947 56.722
v 0.299 -18.815 54.593
v 7.500 -21.051 54.441
v 8.454 -20.290 55.371
v 1.172 -19.013 53.793
v 2.840 -19.101 53.330
v 4.557 -19.460 53.371
v 6.390 -19.274 54.276
v 6.921 -17.489 28.542
v 6.896 -17.516 28.569
v 7.022 -17.517 28.438
v 6.962 -17.408 28.517
v 6.945 -17.437 28.532
v 7.049 -17.508 28.421
v 7.116 -17.567 28.342
v 3.803 -19.457 58.957
v 5.499 -19.318 58.754
v 7.270 -19.992 58.717
v 0.566 -18.053 56.159
v 1.676 -17.901 56.898
v 3.696 -18.017 57.663
v 5.525 -17.754 57.374
v 6.004 -17.428 56.167
v 7.206 -18.758 57.417
v 0.513 -17.804 55.153
v 1.235 -17.177 55.733
v 7.363 -18.644 55.736
v 5.852 -17.691 54.940
v 0.927 -17.775 54.266
v 2.175 -17.634 53.909
v 4.223 -17.837 54.012
v 6.910 -17.399 28.568
v 2.826 -16.875 55.877
v 4.570 -16.996 56.471
v 1.614 -16.997 54.792
v 3.013 -16.869 54.607
v 4.476 -16.892 55.239
v 4.136 -8.194 45.132
v 4.132 -8.194 45.127
v 4.134 -8.193 45.129
v 4.132 -8.192 45.125
v 4.133 -8.193 45.126
v 4.131 -8.193 45.123
v 4.136 -8.194 45.131
v 4.139 -8.195 45.132
v 4.135 -8.194 45.127
v 4.137 -8.193 45.129
v 4.140 -8.194 45.132
v 4.135 -8.195 45.129
v 4.132 -8.194 45.127
v 4.138 -8.194 45.130

# Normal Array
vn -0.590 -0.655 0.472
vn 0.584 -0.663 0.469
vn -0.588 -0.464 -0.662
vn 0.585 -0.477 -0.656
vn -0.586 0.476 0.655
vn 0.590 0.464 0.661
vn -0.585 0.662 -0.469
vn 0.591 0.654 -0.471
vn -0.347 -0.278 0.896
vn 0.544 -0.286 0.789
vn -0.265 -0.856 -0.443
vn 0.482 -0.751 -0.451
vn -0.658 0.249 0.711
vn -0.674 0.232 0.702
vn 0.548 -0.315 0.775
vn 0.017 -0.483 0.875
vn -0.847 -0.454 0.275
vn -0.101 -0.856 -0.507
vn -0.898 -0.433 0.080
vn -0.866 -0.327 -0.378
vn -0.902 -0.425 0.081
vn 0.619 -0.752 0.226
vn 0.517 -0.843 -0.148
vn 0.415 -0.909 0.038
vn 0.378 -0.907 -0.184
vn 0.515 -0.855 0.060
vn -0.730 -0.673 -0.118
vn -0.805 -0.549 -0.222
vn -0.160 -0.966 -0.201
vn -0.366 -0.881 -0.299
vn 0.293 -0.916 -0.274
vn 0.121 -0.931 -0.345
vn 0.536 -0.837 -0.109
vn 0.366 -0.874 -0.319
vn -0.787 -0.555 -0.270
vn -0.202 -0.668 -0.717
vn -0.279 -0.814 -0.510
vn -0.256 -0.833 -0.491
vn 0.191 -0.847 -0.496
vn 0.024 -0.873 -0.486
vn 0.044 -0.857 -0.513
vn 0.363 -0.865 -0.348
vn -0.015 -0.605 -0.796
vn -0.126 -0.561 -0.818
vn 0.626 -0.114 0.771
vn -0.735 0.069 -0.675
vn 0.716 -0.123 0.687
vn -0.697 0.020 -0.717
vn -0.637 0.125 0.761
vn -0.646 0.119 0.754
vn 0.372 -0.319 0.872
vn 0.038 -0.296 0.955
vn -0.138 -0.045 0.989
vn 0.532 -0.003 0.847
vn -0.871 0.004 0.491
vn -0.933 -0.205 0.298
vn -0.759 0.130 0.638
vn -0.741 0.026 0.671
vn 0.644 -0.719 0.260
vn 0.636 -0.568 0.522
vn 0.717 -0.529 0.453
vn 0.701 -0.488 0.520
vn 0.870 -0.382 0.312
vn 0.739 -0.271 0.617
vn -0.972 -0.230 0.051
vn -0.959 -0.273 0.072
vn 0.406 -0.908 0.102
vn 0.511 -0.852 -0.115
vn 0.526 -0.300 0.796
vn 0.627 -0.637 0.448
vn 0.471 -0.874 0.120
vn 0.586 -0.661 0.468
vn -0.806 -0.382 -0.452
vn -0.898 -0.166 -0.407
vn -0.866 -0.192 -0.462
vn -0.486 -0.432 -0.759
vn 0.240 -0.638 -0.732
vn 0.399 -0.546 -0.737
vn 0.534 -0.631 -0.563
vn 0.438 -0.689 -0.577
vn 0.283 -0.597 -0.751
vn 0.353 -0.573 -0.739
vn 0.312 -0.634 -0.707
vn 0.583 -0.644 -0.495
vn -0.577 0.011 -0.817
vn -0.390 -0.187 -0.902
vn -0.134 -0.212 -0.968
vn -0.144 -0.223 -0.964
vn 0.025 -0.496 -0.868
vn 0.114 -0.185 -0.976
vn 0.150 -0.240 -0.959
vn 0.382 -0.206 -0.901
vn -0.997 -0.054 -0.058
vn 0.622 -0.124 0.773
vn -0.694 0.073 -0.716
vn -0.731 0.075 -0.678
vn -0.727 0.071 -0.683
vn -0.697 0.068 -0.713
vn 0.712 -0.129 0.691
vn 0.704 -0.095 0.704
vn 0.681 -0.090 0.726
vn -0.680 0.046 -0.731
vn 0.792 -0.205 0.575
vn 0.771 -0.285 0.570
vn -0.680 0.063 -0.730
vn -0.584 -0.045 -0.811
vn 0.701 -0.097 0.706
vn 0.725 -0.112 0.680
vn 0.735 -0.101 0.670
vn 0.833 -0.123 0.540
vn -0.571 0.258 0.779
vn 0.078 0.212 0.974
vn -0.002 0.293 0.956
vn 0.459 0.131 0.879
vn -0.871 0.052 0.488
vn -0.578 0.327 0.748
vn -0.572 0.324 0.753
vn -0.386 0.389 0.837
vn -0.561 0.509 0.653
vn 0.028 0.490 0.872
vn 0.151 0.513 0.845
vn 0.482 0.173 0.859
vn 0.633 0.097 0.768
vn 0.519 -0.060 0.853
vn 0.695 -0.131 0.707
vn 0.730 0.218 0.648
vn -0.890 0.240 0.389
vn -0.936 0.109 0.334
vn -0.959 0.080 0.272
vn -0.577 0.311 0.755
vn 0.717 0.544 0.435
vn 0.765 0.452 0.458
vn 0.869 0.390 0.305
vn 0.551 0.585 0.594
vn -0.945 0.155 -0.289
vn -0.983 0.007 -0.185
vn 0.466 -0.220 -0.857
vn 0.701 0.645 -0.303
vn 0.604 0.122 -0.788
vn 0.276 0.525 -0.805
vn 0.634 0.135 -0.761
vn 0.580 0.620 -0.528
vn -0.674 0.005 -0.738
vn -0.587 -0.073 -0.806
vn -0.201 0.011 -0.980
vn -0.265 0.047 -0.963
vn 0.225 -0.007 -0.974
vn 0.052 0.138 -0.989
vn 0.392 -0.194 -0.899
vn 0.373 0.148 -0.916
vn 0.431 0.113 -0.895
vn 0.552 0.272 -0.788
vn -0.775 0.101 -0.624
vn 0.030 -0.087 0.996
vn -0.692 0.132 -0.710
vn -0.700 0.096 -0.708
vn -0.722 0.084 -0.687
vn -0.703 0.097 -0.705
vn 0.709 -0.071 0.702
vn 0.671 -0.084 0.736
vn 0.676 -0.079 0.733
vn 0.720 -0.040 0.693
vn -0.585 0.238 -0.775
vn -0.592 0.315 -0.742
vn -0.667 0.111 -0.736
vn -0.678 0.119 -0.725
vn 0.706 -0.067 0.705
vn 0.722 -0.058 0.689
vn 0.787 0.074 0.613
vn -0.541 0.166 -0.824
vn -0.348 0.438 0.829
vn 0.147 0.452 0.880
vn 0.062 0.504 0.861
vn 0.425 0.294 0.856
vn 0.193 0.460 0.866
vn 0.559 0.367 0.744
vn -0.890 0.238 0.390
vn -0.515 0.544 0.662
vn -0.438 0.494 0.751
vn -0.267 0.554 0.788
vn -0.375 0.604 0.703
vn 0.034 0.669 0.742
vn 0.024 0.661 0.750
vn 0.463 0.792 0.398
vn 0.350 0.617 0.705
vn 0.281 0.703 0.653
vn 0.669 0.689 0.280
vn 0.477 0.649 0.593
vn -0.729 0.654 0.201
vn -0.949 0.291 0.122
vn -0.973 0.228 -0.040
vn -0.480 0.652 0.587
vn 0.682 0.722 0.113
vn 0.605 0.760 -0.238
vn 0.764 0.573 -0.297
vn 0.644 0.757 0.111
vn -0.840 0.388 -0.379
vn -0.647 0.156 -0.746
vn -0.246 0.257 -0.935
vn -0.293 0.289 -0.911
vn 0.102 0.383 -0.918
vn 0.086 0.399 -0.913
vn 0.625 0.473 -0.621
vn 0.406 0.468 -0.785
vn 0.371 0.406 -0.835
vn 0.586 0.525 -0.617
vn -0.771 0.093 -0.630
vn -0.687 0.128 -0.716
vn 0.667 -0.079 0.741
vn 0.702 -0.019 0.712
vn -0.178 0.787 0.590
vn -0.007 0.762 0.648
vn -0.143 0.801 0.581
vn 0.339 0.866 0.368
vn -0.608 0.788 -0.095
vn -0.203 0.796 0.571
vn -0.195 0.975 0.108
vn -0.092 0.996 -0.009
vn 0.041 0.996 0.081
vn 0.013 1.000 0.006
vn 0.448 0.861 -0.240
vn 0.299 0.952 0.057
vn -0.625 0.734 -0.267
vn -0.270 0.692 -0.670
vn -0.154 0.753 -0.640
vn 0.100 0.609 -0.787
vn 0.280 0.732 -0.621
vn 0.289 0.729 -0.621
vn -0.513 0.634 0.579
vn 0.239 0.970 -0.042
vn -0.456 0.819 0.348
vn 0.524 0.730 -0.438
vn 0.039 0.924 0.380
vn 0.229 0.856 0.463
vn 0.648 0.332 -0.685
vn 0.066 0.983 0.173
vn 0.504 0.856 -0.115
vn 0.679 0.524 -0.514
vn -0.223 0.067 0.973
vn 0.019 0.985 0.170
vn -0.478 -0.791 0.382
vn -0.347 -0.862 -0.369
vn -0.243 -0.954 -0.175
vn -0.955 -0.234 0.182
vn 0.209 -0.893 -0.399
vn -0.222 -0.925 0.310
vn 0.730 -0.151 -0.667
vn -0.017 -0.977 -0.215
vn 0.269 -0.726 -0.633
vn -0.015 -0.985 -0.170
vn 0.548 -0.564 -0.619
vn 0.588 -0.359 -0.725

# Facets
f 1//1 3//1 2//1
f 4//2 2//2 3//2
f 5//3 3//3 1//3
f 5//4 4//4 3//4
f 1//5 2//5 6//5
f 6//6 2//6 4//6
f 5//7 1//7 6//7
f 6//8 4//8 5//8
f 7//9 9//9 8//9
f 10//10 8//10 9//10
f 11//11 9//11 7//11
f 11//12 10//12 9//12
f 12//13 8//13 13//13
f 12//14 7//14 8//14
f 10//15 13//15 8//15
f 10//16 14//16 13//16
f 15//17 17//17 16//17
f 18//18 11//18 17//18
f 17//19 11//19 12//19
f 12//20 11//20 7//20
f 12//21 16//21 17//21
f 10//22 19//22 14//22
f 18//23 19//23 10//23
f 20//24 19//24 18//24
f 11//25 18//25 10//25
f 21//26 19//26 20//26
f 15//27 22//27 17//27
f 15//28 23//28 22//28
f 24//29 18//29 17//29
f 22//30 24//30 17//30
f 25//31 20//31 18//31
f 24//32 25//32 18//32
f 20//33 26//33 21//33
f 20//34 25//34 26//34
f 27//35 22//35 23//35
f 28//36 27//36 29//36
f 22//37 27//37 28//37
f 24//38 22//38 28//38
f 25//39 31//39 30//39
f 28//40 31//40 25//40
f 24//41 28//41 25//41
f 30//42 26//42 25//42
f 32//43 28//43 29//43
f 32//44 31//44 28//44
f 33//45 35//45 34//45
f 34//46 36//46 33//46
f 33//47 37//47 35//47
f 36//48 37//48 33//48
f 38//49 13//49 39//49
f 38//50 12//50 13//50
f 40//51 14//51 41//51
f 13//52 14//52 40//52
f 39//53 13//53 40//53
f 42//54 40//54 41//54
f 43//55 16//55 44//55
f 43//56 15//56 16//56
f 12//57 38//57 16//57
f 38//58 44//58 16//58
f 41//59 14//59 19//59
f 45//60 21//60 46//60
f 45//61 19//61 21//61
f 42//62 19//62 45//62
f 41//63 19//63 42//63
f 47//64 45//64 46//64
f 23//65 15//65 43//65
f 23//66 43//66 48//66
f 49//67 46//67 26//67
f 46//68 21//68 26//68
f 46//69 50//69 47//69
f 51//70 50//70 46//70
f 49//71 51//71 46//71
f 52//72 50//72 51//72
f 23//73 53//73 27//73
f 54//74 53//74 23//74
f 48//75 54//75 23//75
f 29//76 27//76 53//76
f 55//77 30//77 31//77
f 56//78 30//78 55//78
f 56//79 26//79 30//79
f 57//80 26//80 56//80
f 49//81 26//81 57//81
f 57//82 51//82 49//82
f 57//83 58//83 51//83
f 58//84 52//84 51//84
f 59//85 53//85 54//85
f 59//86 29//86 53//86
f 32//87 29//87 59//87
f 60//88 32//88 59//88
f 32//89 55//89 31//89
f 61//90 55//90 32//90
f 60//91 61//91 32//91
f 61//92 56//92 55//92
f 34//93 63//93 62//93
f 35//94 63//94 34//94
f 36//95 65//95 64//95
f 36//96 34//96 65//96
f 34//97 62//97 65//97
f 65//98 66//98 64//98
f 67//99 35//99 37//99
f 67//100 68//100 35//100
f 68//101 63//101 35//101
f 37//102 36//102 64//102
f 37//103 64//103 67//103
f 67//104 64//104 69//104
f 70//105 64//105 66//105
f 69//106 64//106 70//106
f 67//107 71//107 68//107
f 69//108 71//108 67//108
f 72//109 71//109 69//109
f 70//110 72//110 69//110
f 38//111 39//111 73//111
f 74//112 39//112 40//112
f 74//113 73//113 39//113
f 74//114 40//114 42//114
f 43//115 44//115 75//115
f 75//116 44//116 76//116
f 44//117 38//117 76//117
f 76//118 38//118 77//118
f 77//119 38//119 73//119
f 73//120 74//120 77//120
f 74//121 78//121 77//121
f 74//122 42//122 78//122
f 78//123 42//123 45//123
f 78//124 45//124 79//124
f 47//125 79//125 45//125
f 47//126 80//126 79//126
f 81//127 75//127 82//127
f 43//128 75//128 81//128
f 48//129 43//129 81//129
f 75//130 76//130 82//130
f 50//131 83//131 47//131
f 47//132 83//132 84//132
f 47//133 84//133 80//133
f 83//134 50//134 52//134
f 54//135 48//135 81//135
f 54//136 81//136 85//136
f 86//137 57//137 56//137
f 84//138 83//138 87//138
f 87//139 83//139 57//139
f 57//140 83//140 58//140
f 57//141 86//141 87//141
f 83//142 52//142 58//142
f 88//143 54//143 85//143
f 88//144 59//144 54//144
f 89//145 60//145 59//145
f 89//146 59//146 88//146
f 90//147 61//147 60//147
f 90//148 60//148 89//148
f 61//149 86//149 56//149
f 91//150 86//150 61//150
f 90//151 91//151 61//151
f 91//152 87//152 86//152
f 62//153 93//153 92//153
f 63//154 93//154 62//154
f 94//155 92//155 95//155
f 94//156 65//156 92//156
f 65//157 62//157 92//157
f 65//158 94//158 66//158
f 96//159 68//159 97//159
f 96//160 93//160 68//160
f 93//161 63//161 68//161
f 95//162 96//162 97//162
f 95//163 97//163 94//163
f 94//164 97//164 98//164
f 66//165 98//165 70//165
f 94//166 98//166 66//166
f 68//167 71//167 97//167
f 72//168 97//168 71//168
f 98//169 97//169 72//169
f 70//170 98//170 72//170
f 76//171 77//171 99//171
f 100//172 77//172 78//172
f 100//173 99//173 77//173
f 101//174 78//174 79//174
f 101//175 100//175 78//175
f 101//176 79//176 80//176
f 81//177 82//177 102//177
f 102//178 82//178 103//178
f 82//179 76//179 103//179
f 103//180 76//180 104//180
f 104//181 76//181 99//181
f 99//182 100//182 104//182
f 100//183 105//183 104//183
f 106//184 105//184 107//184
f 107//185 105//185 100//185
f 107//186 100//186 101//186
f 107//187 80//187 84//187
f 107//188 101//188 80//188
f 108//189 102//189 109//189
f 81//190 102//190 108//190
f 85//191 81//191 108//191
f 102//192 103//192 109//192
f 107//193 110//193 106//193
f 110//194 111//194 106//194
f 110//195 84//195 87//195
f 110//196 107//196 84//196
f 112//197 85//197 108//197
f 112//198 88//198 85//198
f 113//199 89//199 88//199
f 113//200 88//200 112//200
f 114//201 90//201 89//201
f 114//202 89//202 113//202
f 91//203 111//203 110//203
f 114//204 111//204 91//204
f 90//205 114//205 91//205
f 110//206 87//206 91//206
f 92//207 93//207 115//207
f 92//208 115//208 95//208
f 93//209 96//209 115//209
f 95//210 115//210 96//210
f 103//211 104//211 116//211
f 117//212 104//212 105//212
f 117//213 116//213 104//213
f 117//214 105//214 106//214
f 108//215 109//215 118//215
f 116//216 109//216 103//216
f 118//217 109//217 116//217
f 119//218 118//218 116//218
f 116//219 117//219 120//219
f 116//220 120//220 119//220
f 120//221 106//221 111//221
f 120//222 117//222 106//222
f 112//223 108//223 118//223
f 118//224 113//224 112//224
f 118//225 119//225 113//225
f 119//226 114//226 113//226
f 119//227 120//227 114//227
f 120//228 111//228 114//228
f 121//229 123//229 122//229
f 124//230 123//230 125//230
f 124//231 122//231 123//231
f 126//232 124//232 125//232
f 121//233 127//233 123//233
f 121//234 128//234 127//234
f 125//235 130//235 129//235
f 127//236 130//236 125//236
f 123//237 127//237 125//237
f 129//238 126//238 125//238
f 131//239 127//239 128//239
f 131//240 130//240 127//240
f 121//241 122//241 132//241
f 133//242 122//242 124//242
f 133//243 132//243 122//243
f 133//244 124//244 126//244
f 128//245 132//245 134//245
f 128//246 121//246 132//246
f 134//247 129//247 130//247
f 133//248 129//248 134//248
f 132//249 133//249 134//249
f 133//250 126//250 129//250
f 131//251 128//251 134//251
f 134//252 130//252 131//252

# Thankyou for using Spin3D

