# Created using Spin3D

# Vertex Array
v 5.734 -36.075 29.445
v 5.735 -36.075 29.446
v 5.735 -36.076 29.445
v 5.736 -36.075 29.445
v 5.735 -36.075 29.444
v 5.735 -36.074 29.445
v 2.036 -27.052 60.770
v 2.266 -26.779 60.911
v 2.320 -27.123 60.823
v 3.189 -26.296 60.461
v 2.352 -26.698 60.069
v 1.849 -25.945 60.211
v 2.654 -25.548 60.875
v 3.981 -24.793 60.762
v 0.559 -24.114 57.217
v 0.962 -24.139 58.732
v 1.747 -25.564 58.337
v 3.850 -25.834 58.519
v 5.495 -24.878 59.486
v 6.544 -24.921 57.722
v 7.467 -24.322 58.470
v 1.298 -24.555 56.208
v 0.224 -22.868 55.619
v 2.838 -25.314 56.777
v 5.175 -24.805 56.079
v 8.594 -23.925 57.290
v 7.897 -24.275 56.155
v 9.445 -23.791 56.144
v 1.126 -23.576 54.824
v 2.848 -24.143 54.929
v 1.854 -22.849 53.980
v 7.137 -23.495 54.697
v 4.947 -23.705 54.364
v 9.173 -23.482 55.362
v 3.733 -22.375 53.561
v 7.106 -17.907 28.615
v 7.144 -17.725 28.648
v 7.163 -17.739 28.602
v 7.133 -17.827 28.606
v 7.145 -17.842 28.573
v 2.199 -23.524 60.102
v 3.140 -24.295 61.011
v 3.979 -23.500 60.854
v 0.079 -22.236 57.094
v 0.882 -22.184 58.556
v 5.552 -23.036 60.078
v 7.362 -23.396 59.001
v 8.310 -23.607 58.216
v 8.734 -22.342 57.632
v -0.210 -21.423 55.765
v 9.805 -23.156 56.397
v 10.096 -23.364 55.748
v 10.229 -22.943 55.793
v 0.775 -22.326 54.307
v 0.272 -20.715 54.648
v 5.792 -22.660 53.684
v 7.113 -22.132 53.826
v 8.655 -22.259 54.708
v 9.909 -22.899 55.398
v 1.856 -20.973 53.548
v 3.684 -20.494 53.096
v 5.616 -21.004 53.345
v 7.235 -17.344 28.682
v 7.209 -17.493 28.653
v 7.236 -17.584 28.539
v 7.207 -17.529 28.628
v 7.304 -17.289 28.572
v 7.245 -17.592 28.521
v 7.294 -17.335 28.575
v 7.330 -17.390 28.465
v 7.364 -17.216 28.493
v 7.350 -17.306 28.478
v 7.400 -17.163 28.455
v 3.269 -23.316 60.812
v 0.442 -20.618 57.543
v 2.008 -20.189 58.521
v 4.015 -21.631 59.970
v 6.001 -21.036 59.549
v 7.336 -21.673 59.031
v 7.990 -20.521 57.996
v 0.003 -19.729 55.989
v 0.674 -19.110 57.101
v 9.507 -22.063 55.874
v 8.435 -20.358 56.590
v 0.281 -18.811 54.651
v 7.419 -20.969 53.960
v 8.226 -20.487 55.002
v 1.169 -18.973 53.845
v 2.855 -19.015 53.333
v 4.581 -19.340 53.275
v 6.329 -19.228 54.077
v 7.327 -17.016 28.690
v 7.304 -17.139 28.667
v 7.308 -17.140 28.650
v 7.387 -17.002 28.573
v 7.377 -16.990 28.605
v 7.402 -17.055 28.514
v 7.420 -16.878 28.584
v 7.425 -16.996 28.501
v 3.755 -19.586 58.923
v 5.382 -19.336 58.701
v 6.969 -20.100 58.720
v 0.555 -18.076 56.197
v 1.658 -17.935 56.917
v 3.652 -18.053 57.660
v 5.439 -17.781 57.361
v 5.916 -17.446 56.140
v 7.006 -18.906 57.383
v 0.504 -17.801 55.208
v 1.234 -17.174 55.778
v 7.207 -18.746 55.605
v 5.786 -17.667 54.876
v 0.917 -17.748 54.326
v 2.169 -17.579 53.949
v 4.204 -17.767 53.984
v 7.379 -16.893 28.660
v 7.382 -16.895 28.649
v 2.817 -16.857 55.908
v 4.532 -16.987 56.480
v 1.612 -16.967 54.844
v 3.005 -16.819 54.638
v 4.447 -16.854 55.243
v 4.136 -8.194 45.132
v 4.132 -8.194 45.127
v 4.134 -8.193 45.129
v 4.132 -8.192 45.125
v 4.133 -8.193 45.126
v 4.131 -8.193 45.123
v 4.136 -8.194 45.131
v 4.139 -8.195 45.132
v 4.135 -8.194 45.127
v 4.137 -8.193 45.129
v 4.140 -8.194 45.132
v 4.135 -8.195 45.129
v 4.132 -8.194 45.127
v 4.138 -8.194 45.130

# Normal Array
vn -0.590 -0.655 0.472
vn 0.584 -0.663 0.469
vn -0.588 -0.464 -0.662
vn 0.585 -0.477 -0.656
vn -0.586 0.476 0.655
vn 0.590 0.464 0.661
vn -0.585 0.662 -0.469
vn 0.591 0.654 -0.471
vn -0.242 -0.276 0.930
vn 0.494 -0.144 0.858
vn -0.126 -0.862 -0.491
vn 0.541 -0.742 -0.395
vn -0.685 0.236 0.689
vn -0.691 0.230 0.685
vn 0.488 -0.129 0.863
vn 0.259 -0.319 0.911
vn -0.830 -0.516 0.212
vn -0.062 -0.845 -0.531
vn -0.836 -0.545 -0.065
vn -0.746 -0.396 -0.535
vn -0.880 -0.472 -0.048
vn 0.565 -0.438 0.699
vn 0.515 -0.857 -0.029
vn 0.375 -0.894 0.245
vn 0.454 -0.889 -0.057
vn 0.379 -0.892 0.247
vn -0.682 -0.706 -0.191
vn -0.755 -0.585 -0.297
vn -0.104 -0.968 -0.228
vn -0.304 -0.884 -0.355
vn 0.238 -0.934 -0.265
vn 0.103 -0.935 -0.339
vn 0.457 -0.878 0.141
vn 0.438 -0.899 0.008
vn 0.192 -0.955 -0.228
vn 0.297 -0.948 0.110
vn -0.744 -0.586 -0.322
vn -0.175 -0.666 -0.725
vn -0.233 -0.808 -0.542
vn -0.213 -0.825 -0.524
vn 0.162 -0.821 -0.548
vn 0.029 -0.840 -0.542
vn 0.024 -0.845 -0.535
vn 0.176 -0.827 -0.534
vn 0.180 -0.825 -0.535
vn 0.266 -0.861 -0.433
vn -0.025 -0.604 -0.797
vn -0.098 -0.578 -0.810
vn 0.862 -0.258 0.437
vn -0.885 0.254 -0.391
vn 0.876 -0.265 0.404
vn -0.869 0.245 -0.429
vn -0.617 0.156 0.771
vn -0.669 0.130 0.732
vn 0.182 -0.175 0.968
vn 0.245 -0.069 0.967
vn -0.877 0.007 0.481
vn -0.943 -0.225 0.247
vn -0.765 0.139 0.629
vn -0.748 0.029 0.663
vn 0.457 -0.063 0.887
vn 0.614 -0.259 0.746
vn 0.541 -0.371 0.754
vn 0.506 -0.385 0.772
vn 0.447 -0.286 0.847
vn 0.649 0.129 0.750
vn -0.969 -0.247 0.011
vn -0.957 -0.290 0.030
vn 0.657 -0.627 0.417
vn 0.666 -0.569 0.482
vn 0.691 -0.569 0.446
vn 0.664 -0.214 0.716
vn 0.928 -0.155 0.338
vn 0.826 -0.310 0.470
vn -0.763 -0.418 -0.493
vn -0.878 -0.180 -0.443
vn -0.845 -0.204 -0.494
vn -0.451 -0.446 -0.773
vn 0.176 -0.633 -0.754
vn 0.291 -0.512 -0.808
vn 0.403 -0.488 -0.774
vn 0.293 -0.351 -0.889
vn 0.291 -0.851 -0.438
vn 0.393 -0.446 -0.804
vn 0.314 -0.341 -0.886
vn 0.756 -0.171 -0.632
vn -0.571 -0.004 -0.821
vn -0.375 -0.207 -0.904
vn -0.159 -0.221 -0.962
vn -0.173 -0.240 -0.955
vn -0.023 -0.532 -0.846
vn 0.031 -0.197 -0.980
vn 0.062 -0.238 -0.969
vn 0.176 -0.179 -0.968
vn 0.831 -0.245 0.500
vn 0.864 -0.252 0.436
vn -0.866 0.249 -0.433
vn -0.889 0.251 -0.383
vn -0.884 0.248 -0.397
vn -0.868 0.246 -0.431
vn 0.873 -0.266 0.408
vn 0.868 -0.252 0.427
vn 0.867 -0.252 0.430
vn -0.867 0.250 -0.431
vn -0.827 0.225 -0.516
vn -0.835 0.205 -0.511
vn -0.866 0.246 -0.436
vn -0.861 0.244 -0.446
vn 0.868 -0.252 0.427
vn 0.892 -0.271 0.363
vn 0.907 -0.268 0.324
vn -0.850 0.245 -0.467
vn -0.569 0.235 0.788
vn -0.007 0.200 0.980
vn -0.876 0.063 0.479
vn -0.563 0.331 0.757
vn -0.559 0.329 0.761
vn -0.341 0.387 0.857
vn -0.532 0.555 0.639
vn 0.057 0.426 0.903
vn 0.307 0.402 0.863
vn 0.137 0.225 0.965
vn 0.510 -0.007 0.860
vn 0.417 0.144 0.898
vn 0.707 -0.002 0.707
vn 0.736 0.170 0.655
vn -0.884 0.252 0.394
vn -0.936 0.118 0.332
vn -0.961 0.086 0.262
vn -0.563 0.311 0.766
vn 0.804 0.420 0.420
vn 0.836 0.348 0.423
vn 0.898 0.303 0.319
vn 0.638 0.467 0.612
vn -0.939 0.159 -0.305
vn -0.980 0.005 -0.200
vn 0.495 -0.030 -0.869
vn 0.806 0.571 -0.153
vn 0.752 0.281 -0.597
vn 0.599 0.594 -0.537
vn 0.693 0.278 -0.665
vn 0.661 0.585 -0.470
vn -0.672 0.004 -0.741
vn -0.577 -0.078 -0.813
vn -0.245 0.018 -0.969
vn -0.289 0.042 -0.956
vn 0.139 0.045 -0.989
vn -0.004 0.156 -0.988
vn 0.322 0.024 -0.946
vn 0.308 0.254 -0.917
vn 0.397 0.209 -0.894
vn 0.609 0.427 -0.668
vn 0.846 -0.248 0.472
vn 0.838 -0.244 0.488
vn -0.882 0.249 -0.401
vn -0.893 0.258 -0.368
vn -0.869 0.247 -0.429
vn -0.862 0.253 -0.439
vn 0.874 -0.249 0.417
vn 0.867 -0.248 0.432
vn 0.866 -0.249 0.434
vn 0.883 -0.246 0.400
vn 0.872 -0.252 0.419
vn -0.865 0.265 -0.427
vn -0.867 0.254 -0.429
vn -0.867 0.254 -0.429
vn 0.869 -0.244 0.430
vn 0.877 -0.243 0.415
vn 0.879 -0.242 0.412
vn -0.852 0.251 -0.460
vn -0.334 0.395 0.856
vn 0.050 0.460 0.887
vn 0.050 0.460 0.887
vn 0.458 0.274 0.845
vn 0.231 0.500 0.835
vn 0.630 0.289 0.720
vn -0.884 0.245 0.397
vn -0.510 0.532 0.676
vn -0.429 0.479 0.766
vn -0.268 0.530 0.804
vn -0.367 0.577 0.729
vn 0.008 0.637 0.771
vn 0.027 0.652 0.758
vn 0.528 0.744 0.411
vn 0.411 0.587 0.698
vn 0.329 0.700 0.634
vn 0.757 0.577 0.306
vn 0.617 0.578 0.534
vn -0.729 0.649 0.218
vn -0.945 0.299 0.132
vn -0.971 0.236 -0.039
vn -0.476 0.639 0.604
vn 0.731 0.667 0.142
vn 0.655 0.730 -0.196
vn 0.829 0.538 -0.153
vn 0.743 0.653 0.143
vn -0.842 0.391 -0.371
vn -0.647 0.159 -0.745
vn -0.274 0.266 -0.924
vn -0.312 0.291 -0.905
vn 0.049 0.420 -0.906
vn 0.054 0.415 -0.908
vn 0.666 0.510 -0.544
vn 0.393 0.524 -0.756
vn 0.348 0.453 -0.821
vn 0.632 0.557 -0.539
vn 0.849 -0.247 0.467
vn -0.879 0.265 -0.396
vn -0.905 0.313 -0.289
vn -0.865 0.261 -0.428
vn 0.870 -0.255 0.421
vn 0.873 -0.253 0.418
vn -0.781 0.540 -0.314
vn -0.861 0.265 -0.434
vn -0.182 0.769 0.612
vn -0.001 0.742 0.670
vn -0.142 0.785 0.604
vn 0.374 0.847 0.379
vn -0.615 0.785 -0.075
vn -0.204 0.777 0.595
vn -0.205 0.970 0.132
vn -0.103 0.995 0.015
vn 0.040 0.994 0.104
vn 0.011 0.999 0.032
vn 0.468 0.861 -0.199
vn 0.331 0.940 0.078
vn -0.633 0.731 -0.253
vn -0.291 0.695 -0.657
vn -0.173 0.759 -0.627
vn 0.071 0.626 -0.776
vn 0.269 0.754 -0.599
vn 0.290 0.747 -0.598
vn -0.513 0.634 0.579
vn 0.239 0.970 -0.042
vn -0.456 0.819 0.348
vn 0.524 0.730 -0.438
vn 0.039 0.924 0.380
vn 0.229 0.856 0.463
vn 0.648 0.332 -0.685
vn 0.066 0.983 0.173
vn 0.504 0.856 -0.115
vn 0.679 0.524 -0.514
vn -0.223 0.067 0.973
vn 0.019 0.985 0.170
vn -0.478 -0.791 0.382
vn -0.347 -0.862 -0.369
vn -0.243 -0.954 -0.175
vn -0.955 -0.234 0.182
vn 0.209 -0.893 -0.399
vn -0.222 -0.925 0.310
vn 0.730 -0.151 -0.667
vn -0.017 -0.977 -0.215
vn 0.269 -0.726 -0.633
vn -0.015 -0.985 -0.170
vn 0.548 -0.564 -0.619
vn 0.588 -0.359 -0.725

# Facets
f 1//1 3//1 2//1
f 4//2 2//2 3//2
f 5//3 3//3 1//3
f 5//4 4//4 3//4
f 1//5 2//5 6//5
f 6//6 2//6 4//6
f 5//7 1//7 6//7
f 6//8 4//8 5//8
f 7//9 9//9 8//9
f 10//10 8//10 9//10
f 11//11 9//11 7//11
f 11//12 10//12 9//12
f 12//13 8//13 13//13
f 12//14 7//14 8//14
f 10//15 13//15 8//15
f 10//16 14//16 13//16
f 15//17 17//17 16//17
f 18//18 11//18 17//18
f 17//19 11//19 12//19
f 12//20 11//20 7//20
f 12//21 16//21 17//21
f 10//22 19//22 14//22
f 18//23 19//23 10//23
f 20//24 19//24 18//24
f 11//25 18//25 10//25
f 21//26 19//26 20//26
f 15//27 22//27 17//27
f 15//28 23//28 22//28
f 24//29 18//29 17//29
f 22//30 24//30 17//30
f 25//31 20//31 18//31
f 24//32 25//32 18//32
f 20//33 26//33 21//33
f 27//34 26//34 20//34
f 25//35 27//35 20//35
f 28//36 26//36 27//36
f 29//37 22//37 23//37
f 30//38 29//38 31//38
f 22//39 29//39 30//39
f 24//40 22//40 30//40
f 25//41 33//41 32//41
f 30//42 33//42 25//42
f 24//43 30//43 25//43
f 32//44 27//44 25//44
f 32//45 34//45 27//45
f 34//46 28//46 27//46
f 35//47 30//47 31//47
f 35//48 33//48 30//48
f 36//49 38//49 37//49
f 37//50 39//50 36//50
f 36//51 40//51 38//51
f 39//52 40//52 36//52
f 41//53 13//53 42//53
f 41//54 12//54 13//54
f 14//55 42//55 13//55
f 14//56 43//56 42//56
f 44//57 16//57 45//57
f 44//58 15//58 16//58
f 12//59 41//59 16//59
f 41//60 45//60 16//60
f 43//61 14//61 46//61
f 14//62 19//62 46//62
f 47//63 21//63 48//63
f 19//64 21//64 47//64
f 46//65 19//65 47//65
f 49//66 47//66 48//66
f 23//67 15//67 44//67
f 23//68 44//68 50//68
f 48//69 21//69 26//69
f 51//70 28//70 52//70
f 51//71 26//71 28//71
f 49//72 26//72 51//72
f 48//73 26//73 49//73
f 53//74 51//74 52//74
f 23//75 54//75 29//75
f 55//76 54//76 23//76
f 50//77 55//77 23//77
f 31//78 29//78 54//78
f 56//79 32//79 33//79
f 56//80 57//80 32//80
f 32//81 57//81 58//81
f 32//82 58//82 34//82
f 34//83 52//83 28//83
f 59//84 52//84 34//84
f 58//85 59//85 34//85
f 59//86 53//86 52//86
f 60//87 54//87 55//87
f 60//88 31//88 54//88
f 35//89 31//89 60//89
f 61//90 35//90 60//90
f 35//91 56//91 33//91
f 62//92 56//92 35//92
f 61//93 62//93 35//93
f 62//94 57//94 56//94
f 37//95 64//95 63//95
f 38//96 64//96 37//96
f 39//97 66//97 65//97
f 39//98 37//98 66//98
f 37//99 63//99 66//99
f 66//100 67//100 65//100
f 68//101 38//101 40//101
f 68//102 69//102 38//102
f 69//103 64//103 38//103
f 40//104 39//104 65//104
f 40//105 65//105 68//105
f 68//106 65//106 70//106
f 71//107 65//107 67//107
f 70//108 65//108 71//108
f 68//109 72//109 69//109
f 70//110 72//110 68//110
f 73//111 72//111 70//111
f 71//112 73//112 70//112
f 41//113 42//113 74//113
f 74//114 42//114 43//114
f 44//115 45//115 75//115
f 75//116 45//116 76//116
f 45//117 41//117 76//117
f 76//118 41//118 77//118
f 77//119 41//119 74//119
f 74//120 43//120 77//120
f 77//121 43//121 46//121
f 77//122 46//122 78//122
f 46//123 47//123 79//123
f 78//124 46//124 79//124
f 49//125 79//125 47//125
f 49//126 80//126 79//126
f 81//127 75//127 82//127
f 44//128 75//128 81//128
f 50//129 44//129 81//129
f 75//130 76//130 82//130
f 51//131 83//131 49//131
f 49//132 83//132 84//132
f 49//133 84//133 80//133
f 83//134 51//134 53//134
f 55//135 50//135 81//135
f 55//136 81//136 85//136
f 86//137 58//137 57//137
f 84//138 83//138 87//138
f 87//139 83//139 58//139
f 58//140 83//140 59//140
f 58//141 86//141 87//141
f 83//142 53//142 59//142
f 88//143 55//143 85//143
f 88//144 60//144 55//144
f 89//145 61//145 60//145
f 89//146 60//146 88//146
f 90//147 62//147 61//147
f 90//148 61//148 89//148
f 62//149 86//149 57//149
f 91//150 86//150 62//150
f 90//151 91//151 62//151
f 91//152 87//152 86//152
f 63//153 93//153 92//153
f 64//154 93//154 63//154
f 66//155 63//155 94//155
f 63//156 92//156 94//156
f 94//157 67//157 66//157
f 95//158 67//158 94//158
f 96//159 69//159 97//159
f 96//160 93//160 69//160
f 93//161 64//161 69//161
f 97//162 99//162 98//162
f 96//163 97//163 98//163
f 99//164 95//164 98//164
f 99//165 71//165 95//165
f 71//166 67//166 95//166
f 69//167 72//167 97//167
f 73//168 97//168 72//168
f 99//169 97//169 73//169
f 71//170 99//170 73//170
f 76//171 77//171 100//171
f 101//172 77//172 78//172
f 101//173 100//173 77//173
f 102//174 78//174 79//174
f 102//175 101//175 78//175
f 102//176 79//176 80//176
f 81//177 82//177 103//177
f 103//178 82//178 104//178
f 82//179 76//179 104//179
f 104//180 76//180 105//180
f 105//181 76//181 100//181
f 100//182 101//182 105//182
f 101//183 106//183 105//183
f 107//184 106//184 108//184
f 108//185 106//185 101//185
f 108//186 101//186 102//186
f 108//187 80//187 84//187
f 108//188 102//188 80//188
f 109//189 103//189 110//189
f 81//190 103//190 109//190
f 85//191 81//191 109//191
f 103//192 104//192 110//192
f 108//193 111//193 107//193
f 111//194 112//194 107//194
f 111//195 84//195 87//195
f 111//196 108//196 84//196
f 113//197 85//197 109//197
f 113//198 88//198 85//198
f 114//199 89//199 88//199
f 114//200 88//200 113//200
f 115//201 90//201 89//201
f 115//202 89//202 114//202
f 91//203 112//203 111//203
f 115//204 112//204 91//204
f 90//205 115//205 91//205
f 111//206 87//206 91//206
f 92//207 93//207 116//207
f 92//208 117//208 94//208
f 116//209 117//209 92//209
f 94//210 117//210 95//210
f 93//211 96//211 116//211
f 98//212 116//212 96//212
f 117//213 116//213 98//213
f 95//214 117//214 98//214
f 104//215 105//215 118//215
f 119//216 105//216 106//216
f 119//217 118//217 105//217
f 119//218 106//218 107//218
f 109//219 110//219 120//219
f 118//220 110//220 104//220
f 120//221 110//221 118//221
f 121//222 120//222 118//222
f 118//223 119//223 122//223
f 118//224 122//224 121//224
f 122//225 107//225 112//225
f 122//226 119//226 107//226
f 113//227 109//227 120//227
f 120//228 114//228 113//228
f 120//229 121//229 114//229
f 121//230 115//230 114//230
f 121//231 122//231 115//231
f 122//232 112//232 115//232
f 123//233 125//233 124//233
f 126//234 125//234 127//234
f 126//235 124//235 125//235
f 128//236 126//236 127//236
f 123//237 129//237 125//237
f 123//238 130//238 129//238
f 127//239 132//239 131//239
f 129//240 132//240 127//240
f 125//241 129//241 127//241
f 131//242 128//242 127//242
f 133//243 129//243 130//243
f 133//244 132//244 129//244
f 123//245 124//245 134//245
f 135//246 124//246 126//246
f 135//247 134//247 124//247
f 135//248 126//248 128//248
f 130//249 134//249 136//249
f 130//250 123//250 134//250
f 136//251 131//251 132//251
f 135//252 131//252 136//252
f 134//253 135//253 136//253
f 135//254 128//254 131//254
f 133//255 130//255 136//255
f 136//256 132//256 133//256

# Thankyou for using Spin3D

