# Created using Spin3D

# Vertex Array
v 5.734 -36.075 29.445
v 5.735 -36.075 29.446
v 5.735 -36.076 29.445
v 5.736 -36.075 29.445
v 5.735 -36.075 29.444
v 5.735 -36.074 29.445
v 2.279 -26.944 60.863
v 2.563 -26.690 61.061
v 2.561 -27.061 60.943
v 3.423 -26.377 60.702
v 2.541 -26.633 60.171
v 2.088 -25.804 60.310
v 3.144 -25.434 61.180
v 4.263 -25.542 61.191
v 0.604 -24.036 57.205
v 1.077 -23.995 58.759
v 1.847 -25.486 58.376
v 3.934 -25.838 58.676
v 5.505 -25.086 60.035
v 6.569 -24.908 57.913
v 7.473 -24.250 58.766
v 1.317 -24.516 56.190
v 0.220 -22.837 55.586
v 2.875 -25.283 56.803
v 5.189 -24.785 56.119
v 8.628 -23.828 57.399
v 7.908 -24.227 56.196
v 9.462 -23.721 56.155
v 1.111 -23.567 54.789
v 2.841 -24.133 54.910
v 1.829 -22.855 53.944
v 7.129 -23.476 54.679
v 4.933 -23.700 54.343
v 9.176 -23.438 55.340
v 3.709 -22.384 53.527
v 6.316 -17.924 28.327
v 6.377 -17.791 28.539
v 6.593 -18.111 28.177
v 6.772 -18.013 28.243
v 6.657 -18.182 27.999
v 6.602 -18.058 28.015
v 6.893 -18.160 27.993
v 6.889 -18.115 27.889
v 2.412 -23.281 60.216
v 3.550 -23.994 61.302
v 4.338 -24.641 61.439
v 4.958 -24.970 61.159
v 5.550 -23.875 60.797
v 0.108 -22.149 57.078
v 0.963 -22.022 58.575
v 7.298 -23.195 59.423
v 8.333 -23.455 58.436
v 8.841 -22.201 57.702
v -0.218 -21.387 55.733
v 2.809 -22.160 56.072
v 2.808 -22.158 56.072
v 2.809 -22.159 56.073
v 2.811 -22.158 56.072
v 9.842 -23.067 56.404
v 10.110 -23.303 55.722
v 10.250 -22.876 55.763
v 0.751 -22.327 54.269
v 0.249 -20.710 54.615
v 2.809 -22.158 56.071
v 5.772 -22.662 53.650
v 7.098 -22.128 53.788
v 8.656 -22.230 54.670
v 9.920 -22.848 55.361
v 1.827 -20.988 53.514
v 3.658 -20.512 53.063
v 5.596 -21.013 53.308
v 5.812 -17.465 28.899
v 6.029 -17.430 28.887
v 5.987 -17.634 28.726
v 6.458 -17.474 28.758
v 6.795 -17.705 28.479
v 7.052 -17.917 28.162
v 7.062 -17.599 28.387
v 6.006 -17.525 28.710
v 6.437 -17.748 28.276
v 7.099 -18.014 27.952
v 7.165 -17.711 28.155
v 6.773 -17.914 27.994
v 7.040 -17.836 27.994
v 3.574 -22.954 60.978
v 4.544 -23.109 61.072
v 0.464 -20.507 57.536
v 2.043 -20.028 58.545
v 3.977 -21.314 60.052
v 6.115 -21.700 59.945
v 7.788 -21.444 58.946
v 8.188 -20.430 57.992
v -0.007 -19.687 55.965
v 0.676 -19.026 57.090
v 2.809 -22.157 56.072
v 9.547 -21.994 55.854
v 8.521 -20.291 56.581
v 0.255 -18.813 54.624
v 7.412 -20.962 53.920
v 8.248 -20.456 54.969
v 1.141 -18.990 53.816
v 2.830 -19.035 53.304
v 4.560 -19.355 53.244
v 6.325 -19.227 54.044
v 5.838 -17.380 28.934
v 6.091 -17.282 28.878
v 6.397 -17.233 28.870
v 6.790 -17.368 28.666
v 7.017 -17.377 28.462
v 6.773 -17.589 28.227
v 6.384 -17.373 28.593
v 7.045 -17.519 28.238
v 6.775 -17.283 28.521
v 3.770 -19.439 58.967
v 5.444 -19.355 58.784
v 7.164 -20.166 58.788
v 0.540 -18.037 56.178
v 1.656 -17.870 56.911
v 3.670 -17.990 57.674
v 5.479 -17.760 57.372
v 5.943 -17.431 56.127
v 7.100 -18.884 57.391
v 0.480 -17.794 55.185
v 1.215 -17.153 55.761
v 7.243 -18.724 55.582
v 5.790 -17.664 54.851
v 0.890 -17.761 54.302
v 2.145 -17.597 53.925
v 4.188 -17.778 53.958
v 6.455 -17.170 28.784
v 6.722 -17.184 28.720
v 2.807 -16.837 55.895
v 4.542 -16.963 56.472
v 1.589 -16.971 54.824
v 2.987 -16.825 54.618
v 4.442 -16.849 55.224
v 4.136 -8.194 45.132
v 4.132 -8.194 45.127
v 4.134 -8.193 45.129
v 4.132 -8.192 45.125
v 4.133 -8.193 45.126
v 4.131 -8.193 45.123
v 4.136 -8.194 45.131
v 4.139 -8.195 45.132
v 4.135 -8.194 45.127
v 4.137 -8.193 45.129
v 4.140 -8.194 45.132
v 4.135 -8.195 45.129
v 4.132 -8.194 45.127
v 4.138 -8.194 45.130

# Normal Array
vn -0.590 -0.655 0.472
vn 0.584 -0.663 0.469
vn -0.588 -0.464 -0.662
vn 0.585 -0.477 -0.656
vn -0.586 0.476 0.655
vn 0.590 0.464 0.661
vn -0.585 0.662 -0.469
vn 0.591 0.654 -0.471
vn -0.367 -0.279 0.887
vn 0.452 -0.270 0.850
vn -0.223 -0.855 -0.468
vn 0.483 -0.760 -0.434
vn -0.666 0.241 0.706
vn -0.683 0.223 0.695
vn 0.456 -0.291 0.841
vn -0.054 -0.464 0.884
vn -0.827 -0.496 0.265
vn -0.069 -0.852 -0.518
vn -0.875 -0.483 0.030
vn -0.807 -0.361 -0.468
vn -0.884 -0.466 0.034
vn 0.571 -0.759 0.314
vn 0.500 -0.860 -0.102
vn 0.357 -0.929 0.101
vn 0.360 -0.920 -0.154
vn 0.474 -0.865 0.165
vn -0.689 -0.710 -0.148
vn -0.764 -0.592 -0.257
vn -0.133 -0.968 -0.212
vn -0.314 -0.894 -0.320
vn 0.254 -0.932 -0.259
vn 0.102 -0.937 -0.335
vn 0.488 -0.861 0.146
vn 0.467 -0.884 0.014
vn 0.202 -0.954 -0.221
vn 0.310 -0.942 0.127
vn -0.749 -0.594 -0.293
vn -0.171 -0.677 -0.716
vn -0.232 -0.821 -0.522
vn -0.214 -0.837 -0.504
vn 0.166 -0.831 -0.531
vn 0.034 -0.851 -0.525
vn 0.030 -0.854 -0.519
vn 0.187 -0.839 -0.511
vn 0.180 -0.842 -0.509
vn 0.274 -0.875 -0.400
vn -0.021 -0.614 -0.789
vn -0.096 -0.588 -0.803
vn -0.231 -0.794 0.562
vn 0.128 -0.705 0.697
vn -0.490 -0.856 0.163
vn -0.765 -0.265 -0.588
vn 0.221 -0.790 0.571
vn 0.095 -0.912 0.399
vn -0.412 -0.068 -0.909
vn 0.076 -0.915 -0.397
vn -0.646 0.118 0.754
vn -0.655 0.112 0.747
vn 0.270 -0.276 0.922
vn -0.035 -0.262 0.964
vn -0.194 -0.029 0.981
vn 0.437 0.060 0.897
vn -0.868 -0.004 0.496
vn -0.930 -0.225 0.289
vn -0.761 0.121 0.638
vn -0.742 0.019 0.670
vn 0.602 -0.709 0.367
vn 0.600 -0.349 0.720
vn 0.608 -0.345 0.715
vn 0.656 -0.419 0.627
vn 0.842 -0.309 0.442
vn 0.701 0.126 0.702
vn -0.967 -0.251 0.043
vn -0.953 -0.295 0.064
vn -0.576 -0.646 0.501
vn 0.535 -0.672 0.512
vn 0.699 -0.586 0.410
vn 0.678 -0.571 0.463
vn 0.704 -0.571 0.422
vn 0.696 -0.219 0.683
vn 0.926 -0.183 0.329
vn 0.840 -0.318 0.439
vn -0.772 -0.423 -0.475
vn -0.885 -0.183 -0.428
vn -0.851 -0.209 -0.482
vn -0.603 -0.480 -0.637
vn -0.454 -0.453 -0.767
vn 0.179 -0.643 -0.745
vn 0.575 -0.504 -0.644
vn 0.294 -0.522 -0.801
vn 0.402 -0.498 -0.768
vn 0.292 -0.365 -0.884
vn 0.291 -0.868 -0.403
vn 0.392 -0.467 -0.792
vn 0.307 -0.357 -0.882
vn 0.753 -0.189 -0.631
vn -0.573 -0.002 -0.820
vn -0.375 -0.208 -0.903
vn -0.158 -0.222 -0.962
vn -0.173 -0.241 -0.955
vn -0.023 -0.543 -0.840
vn 0.032 -0.199 -0.979
vn 0.061 -0.238 -0.969
vn 0.174 -0.182 -0.968
vn 0.145 -0.632 0.761
vn -0.077 -0.836 0.544
vn 0.113 -0.631 0.768
vn 0.179 -0.588 0.789
vn 0.405 -0.575 0.711
vn 0.234 -0.602 0.763
vn 0.233 -0.590 0.773
vn 0.458 -0.523 0.719
vn -0.697 0.012 -0.717
vn -0.760 0.033 -0.649
vn -0.633 0.220 -0.742
vn -0.659 0.247 -0.710
vn 0.575 -0.686 0.447
vn 0.411 -0.685 0.601
vn 0.750 -0.398 0.528
vn 0.813 -0.437 0.386
vn -0.451 0.422 -0.786
vn -0.339 0.273 -0.900
vn 0.491 -0.793 -0.361
vn 0.153 0.273 -0.950
vn -0.118 0.404 -0.907
vn 0.576 0.364 -0.732
vn -0.579 0.255 0.774
vn 0.020 0.230 0.973
vn -0.045 0.299 0.953
vn 0.377 0.168 0.911
vn -0.869 0.051 0.492
vn -0.577 0.324 0.749
vn -0.573 0.322 0.753
vn -0.395 0.384 0.835
vn -0.568 0.506 0.649
vn -0.006 0.493 0.870
vn 0.136 0.522 0.842
vn 0.419 0.235 0.877
vn 0.568 0.168 0.806
vn 0.500 0.095 0.861
vn 0.753 -0.032 0.657
vn 0.805 0.206 0.556
vn -0.886 0.245 0.394
vn -0.935 0.109 0.337
vn -0.957 0.081 0.278
vn -0.553 0.480 0.681
vn -0.577 0.310 0.756
vn 0.585 0.455 0.671
vn 0.833 0.416 0.365
vn 0.857 0.360 0.368
vn 0.922 0.300 0.247
vn 0.671 0.476 0.568
vn -0.941 0.158 -0.298
vn -0.982 0.004 -0.190
vn -0.547 0.683 -0.484
vn 0.594 0.652 -0.470
vn 0.491 -0.033 -0.871
vn 0.802 0.566 -0.194
vn 0.742 0.274 -0.612
vn 0.590 0.582 -0.560
vn 0.685 0.271 -0.676
vn 0.653 0.572 -0.495
vn -0.673 0.006 -0.740
vn -0.580 -0.076 -0.811
vn -0.244 0.021 -0.969
vn -0.289 0.045 -0.956
vn 0.138 0.047 -0.989
vn -0.005 0.158 -0.987
vn 0.319 0.022 -0.948
vn 0.302 0.255 -0.919
vn 0.391 0.209 -0.896
vn 0.598 0.423 -0.681
vn 0.116 -0.401 0.909
vn 0.228 -0.032 0.973
vn 0.016 0.059 0.998
vn 0.236 -0.361 0.902
vn 0.368 -0.445 0.816
vn 0.347 -0.323 0.881
vn 0.444 -0.428 0.787
vn 0.660 -0.119 0.742
vn -0.549 0.452 -0.703
vn -0.374 0.567 -0.734
vn -0.440 0.543 -0.716
vn -0.447 0.610 -0.654
vn -0.390 0.613 -0.688
vn -0.148 0.685 -0.713
vn -0.280 0.666 -0.692
vn 0.202 0.838 -0.506
vn 0.753 0.594 -0.283
vn 0.921 0.054 0.385
vn -0.366 0.543 -0.756
vn -0.168 0.575 -0.801
vn -0.124 0.607 -0.785
vn 0.386 0.559 -0.734
vn -0.352 0.439 0.827
vn 0.128 0.470 0.874
vn 0.069 0.505 0.860
vn 0.448 0.322 0.834
vn 0.226 0.484 0.846
vn 0.626 0.389 0.676
vn -0.886 0.243 0.395
vn -0.516 0.541 0.664
vn -0.440 0.491 0.752
vn -0.267 0.551 0.791
vn -0.377 0.602 0.704
vn 0.048 0.667 0.743
vn 0.041 0.662 0.749
vn 0.520 0.757 0.394
vn 0.408 0.600 0.688
vn 0.330 0.703 0.630
vn 0.749 0.619 0.238
vn 0.577 0.615 0.538
vn -0.729 0.653 0.203
vn -0.946 0.297 0.129
vn -0.971 0.235 -0.037
vn -0.483 0.648 0.589
vn 0.725 0.679 0.117
vn 0.643 0.736 -0.212
vn 0.817 0.543 -0.194
vn 0.732 0.671 0.117
vn -0.840 0.392 -0.375
vn -0.647 0.162 -0.745
vn -0.273 0.269 -0.924
vn -0.310 0.294 -0.904
vn 0.046 0.421 -0.906
vn 0.052 0.417 -0.908
vn 0.654 0.512 -0.558
vn 0.386 0.524 -0.759
vn 0.341 0.453 -0.824
vn 0.621 0.556 -0.553
vn -0.119 0.834 0.538
vn 0.430 -0.106 0.897
vn 0.198 0.718 0.667
vn 0.668 0.027 0.744
vn -0.373 0.702 -0.607
vn -0.282 0.708 -0.647
vn -0.065 0.886 -0.460
vn 0.254 0.890 -0.378
vn -0.179 0.784 0.595
vn 0.013 0.755 0.655
vn -0.136 0.800 0.585
vn 0.374 0.852 0.365
vn -0.613 0.785 -0.092
vn -0.206 0.793 0.573
vn -0.203 0.973 0.108
vn -0.105 0.994 -0.006
vn 0.043 0.995 0.088
vn 0.012 1.000 0.011
vn 0.462 0.861 -0.213
vn 0.329 0.942 0.060
vn -0.629 0.731 -0.265
vn -0.289 0.693 -0.661
vn -0.172 0.756 -0.632
vn 0.068 0.625 -0.778
vn 0.264 0.752 -0.604
vn 0.284 0.745 -0.603
vn -0.513 0.634 0.579
vn 0.239 0.970 -0.042
vn -0.456 0.819 0.348
vn 0.524 0.730 -0.438
vn 0.039 0.924 0.380
vn 0.229 0.856 0.463
vn 0.648 0.332 -0.685
vn 0.066 0.983 0.173
vn 0.504 0.856 -0.115
vn 0.679 0.524 -0.514
vn -0.223 0.067 0.973
vn 0.019 0.985 0.170
vn -0.478 -0.791 0.382
vn -0.347 -0.862 -0.369
vn -0.243 -0.954 -0.175
vn -0.955 -0.234 0.182
vn 0.209 -0.893 -0.399
vn -0.222 -0.925 0.310
vn 0.730 -0.151 -0.667
vn -0.017 -0.977 -0.215
vn 0.269 -0.726 -0.633
vn -0.015 -0.985 -0.170
vn 0.548 -0.564 -0.619
vn 0.588 -0.359 -0.725

# Facets
f 1//1 3//1 2//1
f 4//2 2//2 3//2
f 5//3 3//3 1//3
f 5//4 4//4 3//4
f 1//5 2//5 6//5
f 6//6 2//6 4//6
f 5//7 1//7 6//7
f 6//8 4//8 5//8
f 7//9 9//9 8//9
f 10//10 8//10 9//10
f 11//11 9//11 7//11
f 11//12 10//12 9//12
f 12//13 8//13 13//13
f 12//14 7//14 8//14
f 10//15 13//15 8//15
f 10//16 14//16 13//16
f 15//17 17//17 16//17
f 18//18 11//18 17//18
f 17//19 11//19 12//19
f 12//20 11//20 7//20
f 12//21 16//21 17//21
f 10//22 19//22 14//22
f 18//23 19//23 10//23
f 20//24 19//24 18//24
f 11//25 18//25 10//25
f 21//26 19//26 20//26
f 15//27 22//27 17//27
f 15//28 23//28 22//28
f 24//29 18//29 17//29
f 22//30 24//30 17//30
f 25//31 20//31 18//31
f 24//32 25//32 18//32
f 20//33 26//33 21//33
f 27//34 26//34 20//34
f 25//35 27//35 20//35
f 28//36 26//36 27//36
f 29//37 22//37 23//37
f 30//38 29//38 31//38
f 22//39 29//39 30//39
f 24//40 22//40 30//40
f 25//41 33//41 32//41
f 30//42 33//42 25//42
f 24//43 30//43 25//43
f 32//44 27//44 25//44
f 32//45 34//45 27//45
f 34//46 28//46 27//46
f 35//47 30//47 31//47
f 35//48 33//48 30//48
f 36//49 38//49 37//49
f 39//50 37//50 38//50
f 36//51 40//51 38//51
f 36//52 41//52 40//52
f 38//53 42//53 39//53
f 38//54 40//54 42//54
f 43//55 40//55 41//55
f 43//56 42//56 40//56
f 44//57 13//57 45//57
f 44//58 12//58 13//58
f 46//59 14//59 47//59
f 13//60 14//60 46//60
f 45//61 13//61 46//61
f 48//62 46//62 47//62
f 49//63 16//63 50//63
f 49//64 15//64 16//64
f 12//65 44//65 16//65
f 44//66 50//66 16//66
f 47//67 14//67 19//67
f 51//68 21//68 52//68
f 51//69 19//69 21//69
f 48//70 19//70 51//70
f 47//71 19//71 48//71
f 53//72 51//72 52//72
f 23//73 15//73 49//73
f 23//74 49//74 54//74
f 55//75 57//75 56//75
f 57//76 55//76 58//76
f 52//77 21//77 26//77
f 59//78 28//78 60//78
f 59//79 26//79 28//79
f 53//80 26//80 59//80
f 52//81 26//81 53//81
f 61//82 59//82 60//82
f 23//83 62//83 29//83
f 63//84 62//84 23//84
f 54//85 63//85 23//85
f 55//86 56//86 64//86
f 62//87 31//87 29//87
f 65//88 32//88 33//88
f 55//89 64//89 58//89
f 65//90 66//90 32//90
f 32//91 66//91 67//91
f 32//92 67//92 34//92
f 34//93 60//93 28//93
f 68//94 60//94 34//94
f 67//95 68//95 34//95
f 68//96 61//96 60//96
f 69//97 62//97 63//97
f 69//98 31//98 62//98
f 35//99 31//99 69//99
f 70//100 35//100 69//100
f 35//101 65//101 33//101
f 71//102 65//102 35//102
f 70//103 71//103 35//103
f 71//104 66//104 65//104
f 72//105 74//105 73//105
f 37//106 74//106 36//106
f 73//107 74//107 37//107
f 75//108 73//108 37//108
f 76//109 39//109 77//109
f 37//110 39//110 76//110
f 75//111 37//111 76//111
f 78//112 76//112 77//112
f 79//113 74//113 72//113
f 74//114 79//114 36//114
f 36//115 79//115 80//115
f 36//116 80//116 41//116
f 81//117 77//117 42//117
f 77//118 39//118 42//118
f 77//119 82//119 78//119
f 77//120 81//120 82//120
f 83//121 41//121 80//121
f 83//122 43//122 41//122
f 43//123 81//123 42//123
f 84//124 81//124 43//124
f 83//125 84//125 43//125
f 84//126 82//126 81//126
f 44//127 45//127 85//127
f 86//128 45//128 46//128
f 86//129 85//129 45//129
f 86//130 46//130 48//130
f 49//131 50//131 87//131
f 87//132 50//132 88//132
f 50//133 44//133 88//133
f 88//134 44//134 89//134
f 89//135 44//135 85//135
f 85//136 86//136 89//136
f 86//137 90//137 89//137
f 86//138 48//138 90//138
f 90//139 48//139 51//139
f 90//140 51//140 91//140
f 53//141 91//141 51//141
f 53//142 92//142 91//142
f 93//143 87//143 94//143
f 49//144 87//144 93//144
f 54//145 49//145 93//145
f 57//146 95//146 56//146
f 94//147 87//147 88//147
f 57//148 58//148 95//148
f 59//149 96//149 53//149
f 53//150 96//150 97//150
f 53//151 97//151 92//151
f 96//152 59//152 61//152
f 63//153 54//153 93//153
f 63//154 93//154 98//154
f 56//155 95//155 64//155
f 58//156 64//156 95//156
f 99//157 67//157 66//157
f 97//158 96//158 100//158
f 100//159 96//159 67//159
f 67//160 96//160 68//160
f 67//161 99//161 100//161
f 96//162 61//162 68//162
f 101//163 63//163 98//163
f 101//164 69//164 63//164
f 102//165 70//165 69//165
f 102//166 69//166 101//166
f 103//167 71//167 70//167
f 103//168 70//168 102//168
f 71//169 99//169 66//169
f 104//170 99//170 71//170
f 103//171 104//171 71//171
f 104//172 100//172 99//172
f 72//173 73//173 105//173
f 73//174 106//174 105//174
f 107//175 106//175 73//175
f 75//176 107//176 73//176
f 75//177 76//177 108//177
f 107//178 75//178 108//178
f 78//179 108//179 76//179
f 78//180 109//180 108//180
f 79//181 72//181 105//181
f 110//182 80//182 111//182
f 80//183 79//183 111//183
f 111//184 79//184 106//184
f 106//185 79//185 105//185
f 112//186 110//186 113//186
f 110//187 111//187 113//187
f 109//188 112//188 113//188
f 82//189 112//189 109//189
f 78//190 82//190 109//190
f 83//191 80//191 110//191
f 110//192 84//192 83//192
f 110//193 112//193 84//193
f 112//194 82//194 84//194
f 88//195 89//195 114//195
f 115//196 89//196 90//196
f 115//197 114//197 89//197
f 116//198 90//198 91//198
f 116//199 115//199 90//199
f 116//200 91//200 92//200
f 93//201 94//201 117//201
f 117//202 94//202 118//202
f 94//203 88//203 118//203
f 118//204 88//204 119//204
f 119//205 88//205 114//205
f 114//206 115//206 119//206
f 115//207 120//207 119//207
f 121//208 120//208 122//208
f 122//209 120//209 115//209
f 122//210 115//210 116//210
f 122//211 92//211 97//211
f 122//212 116//212 92//212
f 123//213 117//213 124//213
f 93//214 117//214 123//214
f 98//215 93//215 123//215
f 117//216 118//216 124//216
f 122//217 125//217 121//217
f 125//218 126//218 121//218
f 125//219 97//219 100//219
f 125//220 122//220 97//220
f 127//221 98//221 123//221
f 127//222 101//222 98//222
f 128//223 102//223 101//223
f 128//224 101//224 127//224
f 129//225 103//225 102//225
f 129//226 102//226 128//226
f 104//227 126//227 125//227
f 129//228 126//228 104//228
f 103//229 129//229 104//229
f 125//230 100//230 104//230
f 106//231 107//231 130//231
f 131//232 107//232 108//232
f 131//233 130//233 107//233
f 131//234 108//234 109//234
f 111//235 106//235 130//235
f 130//236 113//236 111//236
f 130//237 131//237 113//237
f 131//238 109//238 113//238
f 118//239 119//239 132//239
f 133//240 119//240 120//240
f 133//241 132//241 119//241
f 133//242 120//242 121//242
f 123//243 124//243 134//243
f 132//244 124//244 118//244
f 134//245 124//245 132//245
f 135//246 134//246 132//246
f 132//247 133//247 136//247
f 132//248 136//248 135//248
f 136//249 121//249 126//249
f 136//250 133//250 121//250
f 127//251 123//251 134//251
f 134//252 128//252 127//252
f 134//253 135//253 128//253
f 135//254 129//254 128//254
f 135//255 136//255 129//255
f 136//256 126//256 129//256
f 137//257 139//257 138//257
f 140//258 139//258 141//258
f 140//259 138//259 139//259
f 142//260 140//260 141//260
f 137//261 143//261 139//261
f 137//262 144//262 143//262
f 141//263 146//263 145//263
f 143//264 146//264 141//264
f 139//265 143//265 141//265
f 145//266 142//266 141//266
f 147//267 143//267 144//267
f 147//268 146//268 143//268
f 137//269 138//269 148//269
f 149//270 138//270 140//270
f 149//271 148//271 138//271
f 149//272 140//272 142//272
f 144//273 148//273 150//273
f 144//274 137//274 148//274
f 150//275 145//275 146//275
f 149//276 145//276 150//276
f 148//277 149//277 150//277
f 149//278 142//278 145//278
f 147//279 144//279 150//279
f 150//280 146//280 147//280

# Thankyou for using Spin3D

