# Created using Spin3D

# Vertex Array
v 5.758 -34.594 29.690
v 5.756 -34.594 29.687
v 5.756 -34.595 29.689
v 5.754 -34.594 29.689
v 5.755 -34.594 29.691
v 5.758 -34.592 29.689
v 5.755 -34.592 29.688
v 5.754 -34.592 29.690
v 5.756 -34.593 29.691
v 5.756 -34.592 29.690
v 2.920 -27.128 61.033
v 3.266 -26.830 61.322
v 3.195 -27.368 61.142
v 3.796 -27.050 60.991
v 3.267 -26.893 60.191
v 2.513 -25.907 60.453
v 3.461 -25.342 61.380
v 4.377 -26.122 61.247
v 5.240 -26.214 59.817
v 5.899 -24.991 60.760
v 0.678 -24.191 57.246
v 1.235 -24.105 58.859
v 2.051 -25.706 58.339
v 3.982 -26.265 58.205
v 5.886 -25.844 57.824
v 7.036 -24.939 59.640
v 7.376 -25.177 58.334
v 8.299 -24.041 58.642
v 1.341 -24.718 56.181
v 0.221 -22.978 55.584
v 2.871 -25.593 56.684
v 4.986 -25.229 56.089
v 7.452 -24.800 56.586
v 9.146 -23.852 57.102
v 1.079 -23.726 54.782
v 2.780 -24.355 54.882
v 1.772 -22.952 53.888
v 7.027 -23.728 54.814
v 4.845 -23.931 54.354
v 9.101 -23.600 55.725
v 3.653 -22.432 53.447
v 6.318 -17.737 28.254
v 6.422 -17.705 28.474
v 6.655 -17.979 28.153
v 6.888 -17.894 28.211
v 6.729 -17.951 27.960
v 6.662 -17.708 27.931
v 7.030 -17.952 27.960
v 7.042 -17.751 27.812
v 2.608 -23.294 60.385
v 3.823 -23.943 61.487
v 4.735 -24.650 61.516
v 5.961 -23.600 60.997
v 0.155 -22.266 57.121
v 1.045 -22.104 58.685
v 7.456 -23.344 59.796
v 9.091 -22.288 57.801
v -0.201 -21.503 55.694
v 2.809 -22.160 56.072
v 2.808 -22.158 56.072
v 2.809 -22.159 56.073
v 2.811 -22.158 56.072
v 10.205 -23.286 56.123
v 10.157 -22.887 56.563
v 10.488 -22.798 55.990
v 0.710 -22.418 54.205
v 0.244 -20.777 54.442
v 2.809 -22.158 56.071
v 5.734 -22.786 53.655
v 7.113 -22.215 53.813
v 8.737 -22.298 54.793
v 10.066 -22.854 55.611
v 1.740 -20.884 53.292
v 3.574 -20.232 52.794
v 5.592 -20.945 53.174
v 5.758 -17.376 28.767
v 6.038 -17.333 28.746
v 5.953 -17.540 28.626
v 6.566 -17.357 28.626
v 6.953 -17.570 28.391
v 7.256 -17.706 28.090
v 7.316 -17.353 28.248
v 5.967 -17.333 28.555
v 6.436 -17.364 28.125
v 7.324 -17.690 27.865
v 7.461 -17.349 27.999
v 6.912 -17.364 27.861
v 7.314 -17.355 27.828
v 3.787 -22.918 61.176
v 4.821 -23.036 61.260
v 0.511 -20.596 57.572
v 2.109 -20.068 58.607
v 4.128 -21.317 60.215
v 6.331 -21.690 60.145
v 8.001 -21.515 59.128
v 8.388 -20.489 58.074
v 0.065 -19.729 55.821
v 0.731 -19.074 57.037
v 2.809 -22.157 56.072
v 9.772 -21.972 55.971
v 8.703 -20.313 56.595
v 0.396 -18.718 54.171
v 7.481 -20.955 53.869
v 8.378 -20.439 54.934
v 1.034 -19.025 53.353
v 2.581 -18.079 52.704
v 4.512 -18.949 52.848
v 6.365 -19.042 53.772
v 5.799 -17.261 28.774
v 6.122 -17.066 28.653
v 6.536 -17.022 28.642
v 7.009 -17.146 28.481
v 7.337 -17.006 28.226
v 6.735 -17.031 28.032
v 6.395 -16.991 28.333
v 6.830 -16.800 28.162
v 7.401 -17.021 27.988
v 7.126 -16.977 27.945
v 3.839 -19.467 59.047
v 5.543 -19.377 58.854
v 7.337 -20.210 58.902
v 0.646 -17.985 55.954
v 1.714 -17.804 56.758
v 3.693 -17.945 57.596
v 5.493 -17.729 57.272
v 5.909 -17.288 55.859
v 7.203 -18.897 57.367
v 0.701 -17.544 54.684
v 1.360 -16.889 55.365
v 7.314 -18.656 55.422
v 5.759 -17.384 54.430
v 1.357 -17.157 53.268
v 2.027 -15.917 52.875
v 2.136 -16.343 52.516
v 2.797 -16.319 52.562
v 4.205 -17.138 53.211
v 2.394 -15.757 52.524
v 6.660 -16.802 28.436
v 6.991 -16.842 28.434
v 7.137 -16.785 28.186
v 2.823 -16.458 55.512
v 4.483 -16.778 56.186
v 1.878 -16.178 54.026
v 2.901 -15.813 54.205
v 4.189 -16.304 54.556
v 2.878 -15.844 53.214
v 4.136 -8.194 45.132
v 4.132 -8.194 45.127
v 4.134 -8.193 45.129
v 4.132 -8.192 45.125
v 4.133 -8.193 45.126
v 4.131 -8.193 45.123
v 4.136 -8.194 45.131
v 4.139 -8.195 45.132
v 4.135 -8.194 45.127
v 4.137 -8.193 45.129
v 4.140 -8.194 45.132
v 4.135 -8.195 45.129
v 4.132 -8.194 45.127
v 4.138 -8.194 45.130

# Normal Array
vn 0.270 -0.904 -0.333
vn -0.182 -0.880 -0.438
vn 0.165 -0.977 0.136
vn -0.301 -0.953 0.029
vn 0.526 0.378 -0.762
vn 0.801 -0.212 -0.559
vn -0.487 -0.154 -0.860
vn -0.803 0.394 -0.446
vn 0.818 0.179 0.547
vn 0.503 -0.425 0.752
vn -0.814 -0.371 0.447
vn -0.521 0.134 0.843
vn 0.178 0.980 -0.087
vn -0.246 0.969 0.005
vn 0.261 0.923 0.283
vn -0.157 0.915 0.373
vn -0.513 -0.211 0.832
vn 0.394 -0.339 0.854
vn -0.496 -0.761 -0.418
vn 0.350 -0.849 -0.397
vn -0.718 0.067 0.693
vn -0.691 0.109 0.715
vn 0.693 -0.560 0.454
vn 0.337 -0.441 0.832
vn 0.100 -0.052 0.994
vn 0.624 -0.660 0.419
vn -0.805 -0.509 0.305
vn -0.282 -0.881 -0.380
vn -0.775 -0.622 0.110
vn -0.764 -0.466 -0.446
vn -0.862 -0.486 0.142
vn 0.247 -0.907 -0.341
vn 0.286 -0.938 -0.194
vn 0.192 -0.974 -0.119
vn 0.532 -0.678 0.508
vn 0.573 -0.767 0.289
vn 0.418 -0.908 -0.033
vn 0.699 -0.649 0.300
vn -0.705 -0.704 -0.090
vn -0.790 -0.578 -0.205
vn -0.285 -0.936 -0.205
vn -0.412 -0.872 -0.263
vn 0.125 -0.913 -0.388
vn 0.036 -0.904 -0.426
vn 0.450 -0.877 -0.169
vn 0.238 -0.870 -0.432
vn 0.697 -0.649 0.304
vn 0.519 -0.840 -0.158
vn -0.764 -0.585 -0.272
vn -0.201 -0.658 -0.726
vn -0.268 -0.809 -0.523
vn -0.281 -0.798 -0.534
vn 0.198 -0.777 -0.598
vn 0.011 -0.800 -0.600
vn -0.017 -0.825 -0.566
vn 0.249 -0.801 -0.545
vn 0.288 -0.787 -0.545
vn 0.520 -0.837 -0.170
vn -0.026 -0.590 -0.807
vn -0.092 -0.568 -0.818
vn -0.480 -0.808 0.340
vn 0.093 -0.724 0.684
vn -0.614 -0.712 -0.341
vn -0.648 -0.265 -0.714
vn 0.244 -0.905 0.348
vn -0.004 -0.989 -0.146
vn -0.314 -0.199 -0.929
vn -0.002 -0.593 -0.805
vn -0.636 0.106 0.764
vn -0.712 0.044 0.701
vn -0.008 -0.178 0.984
vn -0.076 -0.057 0.996
vn 0.468 -0.268 0.842
vn 0.502 -0.166 0.849
vn -0.867 -0.039 0.497
vn -0.917 -0.228 0.329
vn -0.754 0.045 0.655
vn -0.740 -0.012 0.672
vn 0.634 -0.157 0.757
vn 0.686 -0.248 0.684
vn 0.704 -0.251 0.665
vn 0.788 -0.062 0.613
vn -0.963 -0.257 0.078
vn -0.956 -0.280 0.089
vn -0.576 -0.646 0.501
vn 0.535 -0.672 0.512
vn 0.721 -0.472 0.507
vn 0.651 -0.291 0.701
vn 0.872 -0.174 0.458
vn 0.829 -0.366 0.422
vn -0.788 -0.421 -0.450
vn -0.896 -0.197 -0.398
vn -0.873 -0.217 -0.436
vn -0.603 -0.480 -0.637
vn -0.459 -0.464 -0.758
vn 0.216 -0.626 -0.749
vn 0.575 -0.504 -0.644
vn 0.312 -0.537 -0.784
vn 0.423 -0.517 -0.744
vn 0.380 -0.466 -0.799
vn 0.329 -0.927 -0.180
vn 0.415 -0.636 -0.650
vn 0.292 -0.502 -0.814
vn 0.609 -0.517 -0.601
vn -0.611 -0.060 -0.790
vn -0.394 -0.260 -0.882
vn -0.147 -0.276 -0.950
vn -0.155 -0.286 -0.945
vn -0.003 -0.520 -0.854
vn 0.054 -0.248 -0.967
vn 0.081 -0.281 -0.956
vn 0.205 -0.232 -0.951
vn 0.149 -0.540 0.829
vn -0.249 -0.936 0.249
vn 0.088 -0.525 0.846
vn 0.178 -0.453 0.874
vn 0.489 -0.497 0.717
vn 0.258 -0.508 0.821
vn 0.252 -0.471 0.845
vn 0.539 -0.418 0.731
vn -0.680 -0.197 -0.706
vn -0.747 -0.171 -0.642
vn -0.677 -0.041 -0.735
vn -0.682 -0.038 -0.730
vn 0.684 -0.712 0.156
vn 0.519 -0.720 0.460
vn 0.813 -0.347 0.468
vn 0.868 -0.439 0.231
vn -0.477 0.172 -0.862
vn -0.297 0.023 -0.955
vn 0.272 -0.582 -0.767
vn 0.207 -0.101 -0.973
vn -0.083 0.099 -0.992
vn 0.758 -0.050 -0.650
vn -0.590 0.216 0.778
vn 0.087 0.152 0.985
vn -0.044 0.289 0.956
vn 0.286 0.136 0.949
vn -0.870 0.053 0.490
vn -0.588 0.335 0.736
vn -0.570 0.327 0.753
vn -0.414 0.389 0.823
vn -0.586 0.505 0.633
vn -0.010 0.516 0.856
vn 0.119 0.550 0.826
vn 0.360 0.321 0.876
vn 0.584 0.233 0.777
vn 0.501 0.161 0.850
vn 0.773 0.001 0.634
vn 0.814 0.238 0.530
vn -0.899 0.255 0.355
vn -0.946 0.120 0.301
vn -0.946 0.120 0.300
vn -0.553 0.480 0.681
vn -0.588 0.342 0.733
vn 0.585 0.455 0.671
vn 0.744 0.554 0.373
vn 0.836 0.396 0.380
vn 0.917 0.323 0.234
vn 0.661 0.583 0.472
vn -0.956 0.161 -0.246
vn -0.985 0.051 -0.166
vn -0.547 0.683 -0.484
vn 0.594 0.652 -0.470
vn 0.509 -0.111 -0.853
vn 0.788 0.583 -0.198
vn 0.711 0.189 -0.677
vn 0.597 0.466 -0.653
vn 0.704 0.188 -0.685
vn 0.556 0.466 -0.688
vn -0.792 -0.022 -0.610
vn -0.605 -0.205 -0.769
vn -0.214 -0.139 -0.967
vn -0.334 -0.096 -0.938
vn 0.159 -0.075 -0.984
vn 0.070 -0.009 -0.998
vn 0.344 -0.059 -0.937
vn 0.342 0.153 -0.927
vn 0.448 0.097 -0.889
vn 0.634 0.335 -0.697
vn 0.090 -0.085 0.992
vn 0.191 0.270 0.944
vn -0.011 0.334 0.943
vn 0.220 -0.026 0.975
vn 0.404 -0.240 0.883
vn 0.318 -0.016 0.948
vn 0.478 -0.241 0.845
vn 0.609 0.012 0.793
vn -0.713 0.288 -0.639
vn -0.601 0.339 -0.723
vn -0.627 0.327 -0.707
vn -0.687 0.568 -0.454
vn -0.564 0.554 -0.612
vn -0.505 0.572 -0.646
vn 0.864 -0.022 0.502
vn 0.953 0.181 0.244
vn -0.475 0.188 -0.860
vn -0.253 0.551 -0.795
vn -0.248 0.334 -0.909
vn -0.085 0.255 -0.963
vn 0.751 0.116 -0.650
vn 0.202 0.379 -0.903
vn -0.365 0.456 0.812
vn 0.114 0.514 0.851
vn 0.066 0.540 0.839
vn 0.454 0.372 0.810
vn 0.225 0.532 0.816
vn 0.626 0.431 0.649
vn -0.898 0.273 0.345
vn -0.555 0.564 0.611
vn -0.457 0.513 0.726
vn -0.283 0.576 0.766
vn -0.388 0.616 0.685
vn 0.045 0.692 0.721
vn 0.046 0.693 0.720
vn 0.504 0.771 0.390
vn 0.401 0.641 0.655
vn 0.324 0.733 0.598
vn 0.728 0.645 0.232
vn 0.570 0.648 0.505
vn -0.779 0.602 0.176
vn -0.948 0.311 0.067
vn -0.964 0.264 -0.032
vn -0.527 0.643 0.556
vn 0.712 0.691 0.126
vn 0.673 0.730 -0.120
vn 0.816 0.542 -0.200
vn 0.715 0.688 0.126
vn -0.879 0.363 -0.309
vn -0.765 0.104 -0.636
vn -0.797 0.258 -0.546
vn -0.544 -0.227 -0.808
vn -0.401 0.028 -0.916
vn 0.072 -0.089 -0.993
vn 0.358 -0.119 -0.926
vn 0.171 0.222 -0.960
vn 0.714 0.468 -0.521
vn 0.588 0.475 -0.655
vn 0.443 0.248 -0.862
vn 0.669 0.539 -0.511
vn -0.724 0.328 -0.607
vn 0.070 -0.016 -0.997
vn -0.057 0.701 0.711
vn 0.356 0.163 0.920
vn 0.084 0.657 0.749
vn 0.561 0.158 0.812
vn -0.503 0.832 -0.234
vn -0.478 0.828 -0.291
vn -0.047 0.999 -0.021
vn 0.117 0.951 0.288
vn 0.718 0.680 0.150
vn 0.595 0.632 0.497
vn 0.011 0.782 -0.623
vn 0.217 0.759 -0.614
vn -0.211 0.752 0.625
vn 0.025 0.763 0.646
vn -0.093 0.792 0.604
vn 0.387 0.841 0.377
vn -0.738 0.671 0.071
vn -0.284 0.767 0.576
vn -0.297 0.886 0.356
vn -0.369 0.842 0.394
vn 0.077 0.961 0.265
vn 0.212 0.871 0.443
vn 0.557 0.823 -0.114
vn 0.370 0.908 0.197
vn -0.788 0.580 -0.207
vn -0.881 0.474 -0.007
vn -0.163 0.967 0.198
vn -0.333 0.943 -0.021
vn 0.596 0.612 -0.520
vn 0.640 0.657 -0.400
vn 0.365 0.930 -0.037
vn 0.478 0.749 -0.459
vn -0.181 0.952 0.246
vn 0.738 0.499 -0.455
vn -0.513 0.634 0.579
vn 0.239 0.970 -0.042
vn -0.456 0.819 0.348
vn 0.524 0.730 -0.438
vn 0.039 0.924 0.380
vn 0.229 0.856 0.463
vn 0.648 0.332 -0.685
vn 0.066 0.983 0.173
vn 0.504 0.856 -0.115
vn 0.679 0.524 -0.514
vn -0.223 0.067 0.973
vn 0.019 0.985 0.170
vn -0.478 -0.791 0.382
vn -0.347 -0.862 -0.369
vn -0.243 -0.954 -0.175
vn -0.955 -0.234 0.182
vn 0.209 -0.893 -0.399
vn -0.222 -0.925 0.310
vn 0.730 -0.151 -0.667
vn -0.017 -0.977 -0.215
vn 0.269 -0.726 -0.633
vn -0.015 -0.985 -0.170
vn 0.548 -0.564 -0.619
vn 0.588 -0.359 -0.725

# Facets
f 1//1 3//1 2//1
f 4//2 2//2 3//2
f 5//3 3//3 1//3
f 5//4 4//4 3//4
f 6//5 2//5 7//5
f 6//6 1//6 2//6
f 4//7 7//7 2//7
f 4//8 8//8 7//8
f 9//9 1//9 6//9
f 9//10 5//10 1//10
f 5//11 8//11 4//11
f 5//12 9//12 8//12
f 6//13 7//13 10//13
f 10//14 7//14 8//14
f 9//15 6//15 10//15
f 10//16 8//16 9//16
f 11//17 13//17 12//17
f 14//18 12//18 13//18
f 15//19 13//19 11//19
f 15//20 14//20 13//20
f 16//21 12//21 17//21
f 16//22 11//22 12//22
f 18//23 14//23 19//23
f 12//24 14//24 18//24
f 17//25 12//25 18//25
f 20//26 18//26 19//26
f 21//27 23//27 22//27
f 24//28 15//28 23//28
f 23//29 15//29 16//29
f 16//30 15//30 11//30
f 16//31 22//31 23//31
f 14//32 15//32 19//32
f 19//33 15//33 24//33
f 19//34 24//34 25//34
f 19//35 26//35 20//35
f 27//36 26//36 19//36
f 25//37 27//37 19//37
f 28//38 26//38 27//38
f 21//39 29//39 23//39
f 21//40 30//40 29//40
f 31//41 24//41 23//41
f 29//42 31//42 23//42
f 32//43 25//43 24//43
f 31//44 32//44 24//44
f 33//45 27//45 25//45
f 32//46 33//46 25//46
f 27//47 34//47 28//47
f 27//48 33//48 34//48
f 35//49 29//49 30//49
f 36//50 35//50 37//50
f 29//51 35//51 36//51
f 31//52 29//52 36//52
f 32//53 39//53 38//53
f 36//54 39//54 32//54
f 31//55 36//55 32//55
f 38//56 33//56 32//56
f 38//57 40//57 33//57
f 40//58 34//58 33//58
f 41//59 36//59 37//59
f 41//60 39//60 36//60
f 42//61 44//61 43//61
f 45//62 43//62 44//62
f 42//63 46//63 44//63
f 42//64 47//64 46//64
f 44//65 48//65 45//65
f 44//66 46//66 48//66
f 49//67 46//67 47//67
f 49//68 48//68 46//68
f 50//69 17//69 51//69
f 50//70 16//70 17//70
f 17//71 18//71 52//71
f 51//72 17//72 52//72
f 20//73 52//73 18//73
f 20//74 53//74 52//74
f 54//75 22//75 55//75
f 54//76 21//76 22//76
f 16//77 50//77 22//77
f 50//78 55//78 22//78
f 53//79 20//79 56//79
f 20//80 26//80 56//80
f 28//81 56//81 26//81
f 28//82 57//82 56//82
f 30//83 21//83 54//83
f 30//84 54//84 58//84
f 59//85 61//85 60//85
f 61//86 59//86 62//86
f 63//87 64//87 34//87
f 34//88 64//88 57//88
f 34//89 57//89 28//89
f 65//90 64//90 63//90
f 30//91 66//91 35//91
f 67//92 66//92 30//92
f 58//93 67//93 30//93
f 59//94 60//94 68//94
f 66//95 37//95 35//95
f 69//96 38//96 39//96
f 59//97 68//97 62//97
f 69//98 70//98 38//98
f 38//99 70//99 71//99
f 38//100 71//100 40//100
f 40//101 63//101 34//101
f 72//102 63//102 40//102
f 71//103 72//103 40//103
f 72//104 65//104 63//104
f 73//105 66//105 67//105
f 73//106 37//106 66//106
f 41//107 37//107 73//107
f 74//108 41//108 73//108
f 41//109 69//109 39//109
f 75//110 69//110 41//110
f 74//111 75//111 41//111
f 75//112 70//112 69//112
f 76//113 78//113 77//113
f 43//114 78//114 42//114
f 77//115 78//115 43//115
f 79//116 77//116 43//116
f 80//117 45//117 81//117
f 43//118 45//118 80//118
f 79//119 43//119 80//119
f 82//120 80//120 81//120
f 83//121 78//121 76//121
f 78//122 83//122 42//122
f 42//123 83//123 84//123
f 42//124 84//124 47//124
f 85//125 81//125 48//125
f 81//126 45//126 48//126
f 81//127 86//127 82//127
f 81//128 85//128 86//128
f 87//129 47//129 84//129
f 87//130 49//130 47//130
f 49//131 85//131 48//131
f 88//132 85//132 49//132
f 87//133 88//133 49//133
f 88//134 86//134 85//134
f 50//135 51//135 89//135
f 90//136 51//136 52//136
f 90//137 89//137 51//137
f 90//138 52//138 53//138
f 54//139 55//139 91//139
f 91//140 55//140 92//140
f 55//141 50//141 92//141
f 92//142 50//142 93//142
f 93//143 50//143 89//143
f 89//144 90//144 93//144
f 90//145 94//145 93//145
f 90//146 53//146 94//146
f 94//147 53//147 56//147
f 94//148 56//148 95//148
f 57//149 95//149 56//149
f 57//150 96//150 95//150
f 97//151 91//151 98//151
f 54//152 91//152 97//152
f 58//153 54//153 97//153
f 61//154 99//154 60//154
f 98//155 91//155 92//155
f 61//156 62//156 99//156
f 64//157 100//157 57//157
f 57//158 100//158 101//158
f 57//159 101//159 96//159
f 100//160 64//160 65//160
f 67//161 58//161 97//161
f 67//162 97//162 102//162
f 60//163 99//163 68//163
f 62//164 68//164 99//164
f 103//165 71//165 70//165
f 101//166 100//166 104//166
f 104//167 100//167 71//167
f 71//168 100//168 72//168
f 71//169 103//169 104//169
f 100//170 65//170 72//170
f 105//171 67//171 102//171
f 105//172 73//172 67//172
f 106//173 74//173 73//173
f 106//174 73//174 105//174
f 107//175 75//175 74//175
f 107//176 74//176 106//176
f 75//177 103//177 70//177
f 108//178 103//178 75//178
f 107//179 108//179 75//179
f 108//180 104//180 103//180
f 76//181 77//181 109//181
f 77//182 110//182 109//182
f 111//183 110//183 77//183
f 79//184 111//184 77//184
f 79//185 80//185 112//185
f 111//186 79//186 112//186
f 82//187 112//187 80//187
f 82//188 113//188 112//188
f 83//189 76//189 109//189
f 114//190 84//190 115//190
f 84//191 83//191 115//191
f 115//192 83//192 110//192
f 110//193 83//193 109//193
f 114//194 115//194 116//194
f 113//195 82//195 86//195
f 117//196 113//196 86//196
f 87//197 84//197 114//197
f 118//198 114//198 116//198
f 87//199 114//199 118//199
f 88//200 87//200 118//200
f 88//201 117//201 86//201
f 88//202 118//202 117//202
f 92//203 93//203 119//203
f 120//204 93//204 94//204
f 120//205 119//205 93//205
f 121//206 94//206 95//206
f 121//207 120//207 94//207
f 121//208 95//208 96//208
f 97//209 98//209 122//209
f 122//210 98//210 123//210
f 98//211 92//211 123//211
f 123//212 92//212 124//212
f 124//213 92//213 119//213
f 119//214 120//214 124//214
f 120//215 125//215 124//215
f 126//216 125//216 127//216
f 127//217 125//217 120//217
f 127//218 120//218 121//218
f 127//219 96//219 101//219
f 127//220 121//220 96//220
f 128//221 122//221 129//221
f 97//222 122//222 128//222
f 102//223 97//223 128//223
f 122//224 123//224 129//224
f 127//225 130//225 126//225
f 130//226 131//226 126//226
f 130//227 101//227 104//227
f 130//228 127//228 101//228
f 132//229 102//229 128//229
f 132//230 105//230 102//230
f 133//231 134//231 132//231
f 132//232 134//232 106//232
f 132//233 106//233 105//233
f 134//234 135//234 106//234
f 106//235 135//235 136//235
f 106//236 136//236 107//236
f 108//237 131//237 130//237
f 136//238 131//238 108//238
f 107//239 136//239 108//239
f 130//240 104//240 108//240
f 137//241 134//241 133//241
f 137//242 135//242 134//242
f 110//243 111//243 138//243
f 139//244 111//244 112//244
f 139//245 138//245 111//245
f 139//246 112//246 113//246
f 115//247 110//247 138//247
f 138//248 116//248 115//248
f 140//249 116//249 138//249
f 139//250 140//250 138//250
f 140//251 113//251 117//251
f 140//252 139//252 113//252
f 118//253 116//253 140//253
f 140//254 117//254 118//254
f 123//255 124//255 141//255
f 142//256 124//256 125//256
f 142//257 141//257 124//257
f 142//258 125//258 126//258
f 128//259 129//259 143//259
f 141//260 129//260 123//260
f 143//261 129//261 141//261
f 144//262 143//262 141//262
f 141//263 142//263 145//263
f 141//264 145//264 144//264
f 145//265 126//265 131//265
f 145//266 142//266 126//266
f 132//267 128//267 143//267
f 143//268 133//268 132//268
f 146//269 133//269 143//269
f 144//270 146//270 143//270
f 146//271 136//271 135//271
f 145//272 136//272 146//272
f 144//273 145//273 146//273
f 145//274 131//274 136//274
f 137//275 133//275 146//275
f 146//276 135//276 137//276
f 147//277 149//277 148//277
f 150//278 149//278 151//278
f 150//279 148//279 149//279
f 152//280 150//280 151//280
f 147//281 153//281 149//281
f 147//282 154//282 153//282
f 151//283 156//283 155//283
f 153//284 156//284 151//284
f 149//285 153//285 151//285
f 155//286 152//286 151//286
f 157//287 153//287 154//287
f 157//288 156//288 153//288
f 147//289 148//289 158//289
f 159//290 148//290 150//290
f 159//291 158//291 148//291
f 159//292 150//292 152//292
f 154//293 158//293 160//293
f 154//294 147//294 158//294
f 160//295 155//295 156//295
f 159//296 155//296 160//296
f 158//297 159//297 160//297
f 159//298 152//298 155//298
f 157//299 154//299 160//299
f 160//300 156//300 157//300

# Thankyou for using Spin3D

