# Created using Spin3D

# Vertex Array
v 5.734 -36.075 29.445
v 5.735 -36.075 29.446
v 5.735 -36.076 29.445
v 5.736 -36.075 29.445
v 5.735 -36.075 29.444
v 5.735 -36.074 29.445
v 1.479 -28.632 61.823
v 1.785 -27.989 61.652
v 1.742 -28.563 61.848
v 2.457 -27.821 61.710
v 2.211 -28.327 61.576
v 3.147 -27.628 61.219
v 1.732 -28.351 61.486
v 2.741 -27.606 60.674
v 1.506 -28.247 61.524
v 1.876 -26.695 60.386
v 2.787 -26.127 61.389
v 3.870 -26.527 61.283
v 4.863 -26.371 59.918
v 5.674 -25.046 60.693
v 1.462 -25.488 57.890
v 0.424 -24.053 56.998
v 0.905 -24.164 58.618
v 3.324 -26.379 58.543
v 5.611 -25.803 57.909
v 6.907 -24.889 59.604
v 7.255 -25.103 58.336
v 8.286 -23.938 58.599
v 1.114 -24.541 55.998
v 0.152 -22.850 55.463
v 2.518 -25.453 56.609
v 4.782 -25.133 56.128
v 7.379 -24.701 56.597
v 9.169 -23.756 57.081
v 1.020 -23.586 54.695
v 2.673 -24.220 54.831
v 1.772 -22.846 53.852
v 7.018 -23.646 54.818
v 4.805 -23.831 54.352
v 9.137 -23.522 55.716
v 3.670 -22.356 53.438
v 6.114 -17.806 28.245
v 6.313 -17.776 28.378
v 6.505 -18.017 28.161
v 6.787 -17.907 28.191
v 6.550 -17.937 28.022
v 6.456 -17.629 28.010
v 6.901 -17.917 28.004
v 6.889 -17.641 27.889
v 2.322 -23.499 60.223
v 3.518 -24.164 61.328
v 4.422 -24.851 61.399
v 5.846 -23.588 60.872
v 0.054 -22.186 56.971
v 0.902 -22.100 58.521
v 7.431 -23.263 59.719
v 9.152 -22.201 57.764
v -0.213 -21.408 55.608
v 2.809 -22.160 56.072
v 2.808 -22.158 56.072
v 2.809 -22.159 56.073
v 2.811 -22.158 56.072
v 10.275 -23.216 56.105
v 10.233 -22.815 56.540
v 10.572 -22.740 55.971
v 0.718 -22.313 54.153
v 0.273 -20.700 54.402
v 2.809 -22.158 56.071
v 5.759 -22.720 53.656
v 7.156 -22.168 53.813
v 8.793 -22.249 54.785
v 10.140 -22.797 55.596
v 1.782 -20.823 53.281
v 3.622 -20.199 52.796
v 5.639 -20.912 53.175
v 5.632 -17.574 28.538
v 5.993 -17.402 28.513
v 5.794 -17.715 28.478
v 6.535 -17.350 28.457
v 6.898 -17.548 28.307
v 7.180 -17.641 28.083
v 7.280 -17.245 28.181
v 5.725 -17.598 28.428
v 6.177 -17.236 28.199
v 7.222 -17.575 27.909
v 7.403 -17.191 27.988
v 6.757 -17.166 27.923
v 7.217 -17.157 27.865
v 3.607 -22.993 60.999
v 4.680 -23.067 61.103
v 0.479 -20.536 57.468
v 2.072 -20.043 58.510
v 4.063 -21.306 60.085
v 6.330 -21.622 60.046
v 8.060 -21.420 59.069
v 8.468 -20.410 58.041
v 0.086 -19.662 55.770
v 0.752 -19.017 56.984
v 2.809 -22.157 56.072
v 9.850 -21.918 55.953
v 8.778 -20.259 56.577
v 0.446 -18.674 54.162
v 7.535 -20.928 53.866
v 8.442 -20.407 54.926
v 1.086 -18.987 53.351
v 2.625 -18.065 52.711
v 4.558 -18.937 52.853
v 6.413 -19.028 53.772
v 5.780 -17.367 28.462
v 6.196 -16.962 28.374
v 6.561 -16.920 28.424
v 7.004 -17.041 28.340
v 7.326 -16.816 28.138
v 6.479 -16.680 28.172
v 7.359 -16.783 27.959
v 6.658 -16.750 28.015
v 7.066 -16.698 27.929
v 3.849 -19.415 58.967
v 5.584 -19.313 58.795
v 7.404 -20.128 58.852
v 0.691 -17.935 55.936
v 1.750 -17.758 56.731
v 3.729 -17.896 57.560
v 5.547 -17.679 57.253
v 5.959 -17.257 55.856
v 7.272 -18.840 57.345
v 0.750 -17.507 54.682
v 1.408 -16.854 55.365
v 7.372 -18.627 55.415
v 5.800 -17.370 54.431
v 1.403 -17.140 53.277
v 2.059 -15.916 52.887
v 2.169 -16.344 52.526
v 2.826 -16.322 52.570
v 4.240 -17.134 53.217
v 2.419 -15.762 52.534
v 6.715 -16.558 28.248
v 7.016 -16.645 28.274
v 6.841 -16.484 28.062
v 7.142 -16.515 28.084
v 2.864 -16.428 55.511
v 4.527 -16.742 56.181
v 1.918 -16.162 54.036
v 2.934 -15.800 54.214
v 4.225 -16.289 54.561
v 2.906 -15.842 53.223
v 4.136 -8.194 45.132
v 4.132 -8.194 45.127
v 4.134 -8.193 45.129
v 4.132 -8.192 45.125
v 4.133 -8.193 45.126
v 4.131 -8.193 45.123
v 4.136 -8.194 45.131
v 4.139 -8.195 45.132
v 4.135 -8.194 45.127
v 4.137 -8.193 45.129
v 4.140 -8.194 45.132
v 4.135 -8.195 45.129
v 4.132 -8.194 45.127
v 4.138 -8.194 45.130

# Normal Array
vn -0.590 -0.655 0.472
vn 0.584 -0.663 0.469
vn -0.588 -0.464 -0.662
vn 0.585 -0.477 -0.656
vn -0.586 0.476 0.655
vn 0.590 0.464 0.661
vn -0.585 0.662 -0.469
vn 0.591 0.654 -0.471
vn -0.172 0.329 0.929
vn 0.608 -0.467 0.642
vn -0.162 0.329 0.930
vn 0.596 -0.464 0.655
vn 0.261 -0.828 -0.496
vn 0.138 -0.852 -0.506
vn 0.147 -0.813 -0.563
vn 0.460 -0.806 -0.373
vn -0.690 0.475 0.547
vn -0.704 0.521 0.483
vn -0.768 0.474 0.430
vn -0.136 0.210 0.968
vn 0.725 -0.504 0.469
vn 0.600 -0.434 0.672
vn 0.152 0.156 0.976
vn 0.656 -0.638 0.404
vn -0.376 -0.553 -0.744
vn -0.850 -0.479 0.219
vn -0.273 -0.516 -0.812
vn -0.358 -0.495 -0.792
vn -0.526 -0.666 -0.528
vn -0.927 -0.375 -0.028
vn -0.289 -0.880 -0.378
vn 0.388 -0.863 -0.322
vn 0.355 -0.849 -0.392
vn 0.186 -0.961 -0.202
vn 0.550 -0.646 0.529
vn 0.591 -0.753 0.290
vn 0.412 -0.905 -0.103
vn 0.680 -0.669 0.300
vn -0.736 -0.650 -0.190
vn -0.793 -0.540 -0.283
vn -0.327 -0.898 -0.294
vn -0.398 -0.848 -0.351
vn 0.119 -0.910 -0.397
vn 0.033 -0.896 -0.443
vn 0.424 -0.889 -0.175
vn 0.223 -0.874 -0.432
vn 0.675 -0.668 0.313
vn 0.494 -0.854 -0.162
vn -0.765 -0.544 -0.344
vn -0.189 -0.649 -0.737
vn -0.257 -0.788 -0.560
vn -0.262 -0.782 -0.565
vn 0.189 -0.793 -0.579
vn 0.014 -0.807 -0.591
vn -0.005 -0.822 -0.570
vn 0.231 -0.815 -0.531
vn 0.272 -0.802 -0.531
vn 0.494 -0.855 -0.158
vn -0.024 -0.590 -0.807
vn -0.080 -0.569 -0.818
vn -0.281 -0.757 0.590
vn 0.146 -0.595 0.790
vn -0.485 -0.682 -0.547
vn -0.491 -0.182 -0.852
vn 0.327 -0.912 0.247
vn 0.023 -0.870 -0.492
vn -0.271 -0.119 -0.955
vn -0.025 -0.386 -0.922
vn -0.583 0.241 0.776
vn -0.771 0.139 0.622
vn 0.064 -0.090 0.994
vn -0.042 0.046 0.998
vn 0.455 -0.209 0.865
vn 0.465 -0.162 0.870
vn -0.878 0.021 0.479
vn -0.946 -0.183 0.268
vn -0.770 0.139 0.622
vn -0.755 0.030 0.655
vn 0.602 -0.167 0.781
vn 0.658 -0.262 0.706
vn 0.681 -0.268 0.682
vn 0.769 -0.078 0.635
vn -0.981 -0.194 0.022
vn -0.967 -0.249 0.047
vn -0.576 -0.646 0.501
vn 0.535 -0.672 0.512
vn 0.699 -0.490 0.521
vn 0.633 -0.305 0.711
vn 0.857 -0.199 0.475
vn 0.814 -0.385 0.435
vn -0.773 -0.395 -0.496
vn -0.876 -0.173 -0.450
vn -0.873 -0.175 -0.454
vn -0.603 -0.480 -0.637
vn -0.445 -0.438 -0.781
vn 0.209 -0.642 -0.738
vn 0.575 -0.504 -0.644
vn 0.306 -0.555 -0.774
vn 0.410 -0.539 -0.736
vn 0.365 -0.483 -0.796
vn 0.309 -0.936 -0.168
vn 0.396 -0.654 -0.644
vn 0.277 -0.517 -0.810
vn 0.592 -0.538 -0.600
vn -0.598 -0.041 -0.801
vn -0.381 -0.249 -0.890
vn -0.139 -0.268 -0.953
vn -0.153 -0.285 -0.946
vn -0.003 -0.529 -0.849
vn 0.057 -0.253 -0.966
vn 0.080 -0.282 -0.956
vn 0.201 -0.239 -0.950
vn 0.172 -0.217 0.961
vn -0.055 -0.954 0.295
vn 0.161 -0.210 0.964
vn 0.123 -0.242 0.962
vn 0.485 -0.400 0.778
vn 0.251 -0.366 0.896
vn 0.226 -0.290 0.930
vn 0.519 -0.327 0.790
vn -0.677 -0.588 -0.442
vn -0.579 -0.584 -0.569
vn -0.436 -0.024 -0.900
vn -0.565 -0.004 -0.825
vn 0.713 -0.695 -0.094
vn 0.587 -0.707 0.394
vn 0.837 -0.321 0.443
vn 0.899 -0.435 0.049
vn -0.439 0.118 -0.891
vn -0.270 -0.005 -0.963
vn 0.131 -0.377 -0.917
vn 0.080 -0.103 -0.991
vn -0.126 0.037 -0.991
vn 0.538 -0.082 -0.839
vn -0.572 0.262 0.777
vn 0.043 0.157 0.987
vn -0.074 0.275 0.959
vn 0.246 0.124 0.961
vn -0.876 0.083 0.475
vn -0.586 0.337 0.737
vn -0.573 0.330 0.750
vn -0.413 0.380 0.827
vn -0.583 0.503 0.638
vn -0.051 0.486 0.872
vn 0.087 0.521 0.849
vn 0.313 0.301 0.901
vn 0.548 0.206 0.811
vn 0.474 0.145 0.869
vn 0.758 -0.029 0.652
vn 0.809 0.225 0.543
vn -0.897 0.272 0.348
vn -0.942 0.153 0.297
vn -0.954 0.138 0.266
vn -0.553 0.480 0.681
vn -0.586 0.340 0.735
vn 0.585 0.455 0.671
vn 0.740 0.559 0.373
vn 0.835 0.395 0.384
vn 0.921 0.317 0.228
vn 0.659 0.588 0.469
vn -0.944 0.187 -0.271
vn -0.981 0.062 -0.181
vn -0.547 0.683 -0.484
vn 0.594 0.652 -0.470
vn 0.503 -0.117 -0.856
vn 0.782 0.586 -0.212
vn 0.702 0.186 -0.688
vn 0.588 0.464 -0.663
vn 0.700 0.186 -0.690
vn 0.546 0.464 -0.698
vn -0.786 -0.006 -0.618
vn -0.595 -0.196 -0.780
vn -0.209 -0.136 -0.968
vn -0.335 -0.091 -0.938
vn 0.159 -0.074 -0.985
vn 0.070 -0.007 -0.998
vn 0.341 -0.064 -0.938
vn 0.339 0.154 -0.928
vn 0.446 0.098 -0.890
vn 0.628 0.336 -0.702
vn -0.143 0.430 0.891
vn -0.160 0.365 0.917
vn -0.168 0.368 0.914
vn 0.096 0.071 0.993
vn 0.319 -0.128 0.939
vn 0.203 0.063 0.977
vn 0.410 -0.144 0.901
vn 0.514 0.031 0.857
vn -0.709 0.264 -0.654
vn -0.591 0.253 -0.766
vn -0.591 0.462 -0.662
vn -0.758 0.386 -0.525
vn 0.848 -0.037 0.528
vn 0.972 0.118 0.203
vn -0.574 0.274 -0.772
vn -0.437 0.093 -0.895
vn -0.126 0.095 -0.987
vn -0.223 0.159 -0.962
vn 0.551 0.000 -0.835
vn 0.153 0.185 -0.971
vn -0.367 0.442 0.818
vn 0.084 0.496 0.864
vn 0.055 0.513 0.857
vn 0.428 0.357 0.831
vn 0.205 0.517 0.831
vn 0.617 0.424 0.662
vn -0.896 0.281 0.343
vn -0.554 0.562 0.613
vn -0.454 0.507 0.733
vn -0.286 0.563 0.775
vn -0.392 0.608 0.690
vn 0.033 0.680 0.732
vn 0.041 0.686 0.726
vn 0.502 0.776 0.383
vn 0.392 0.636 0.665
vn 0.311 0.736 0.602
vn 0.726 0.651 0.221
vn 0.561 0.653 0.509
vn -0.778 0.605 0.170
vn -0.944 0.324 0.067
vn -0.961 0.272 -0.048
vn -0.526 0.643 0.557
vn 0.710 0.695 0.114
vn 0.668 0.732 -0.133
vn 0.810 0.546 -0.214
vn 0.711 0.694 0.113
vn -0.876 0.367 -0.312
vn -0.760 0.105 -0.641
vn -0.799 0.254 -0.545
vn -0.548 -0.232 -0.804
vn -0.400 0.032 -0.916
vn 0.070 -0.088 -0.994
vn 0.357 -0.116 -0.927
vn 0.172 0.224 -0.959
vn 0.707 0.471 -0.528
vn 0.584 0.477 -0.657
vn 0.440 0.252 -0.862
vn 0.662 0.541 -0.519
vn -0.729 0.322 -0.604
vn 0.068 -0.016 -0.998
vn -0.174 0.488 0.855
vn 0.224 0.153 0.962
vn 0.044 0.421 0.906
vn 0.458 0.132 0.879
vn -0.467 0.884 0.034
vn -0.517 0.776 0.362
vn 0.165 0.759 0.629
vn 0.063 0.912 0.405
vn 0.805 0.539 0.249
vn 0.558 0.466 0.687
vn -0.478 0.462 -0.747
vn -0.234 0.323 -0.917
vn 0.122 0.613 -0.781
vn 0.244 0.568 -0.786
vn -0.210 0.751 0.626
vn 0.019 0.762 0.648
vn -0.095 0.790 0.606
vn 0.387 0.844 0.370
vn -0.737 0.672 0.067
vn -0.282 0.766 0.578
vn -0.295 0.889 0.350
vn -0.369 0.844 0.389
vn 0.080 0.964 0.255
vn 0.214 0.875 0.435
vn 0.554 0.823 -0.127
vn 0.369 0.911 0.186
vn -0.786 0.580 -0.214
vn -0.883 0.470 -0.008
vn -0.160 0.969 0.188
vn -0.331 0.943 -0.030
vn 0.592 0.613 -0.523
vn 0.635 0.657 -0.406
vn 0.366 0.929 -0.050
vn 0.475 0.747 -0.465
vn -0.178 0.955 0.236
vn 0.733 0.503 -0.459
vn -0.513 0.634 0.579
vn 0.239 0.970 -0.042
vn -0.456 0.819 0.348
vn 0.524 0.730 -0.438
vn 0.039 0.924 0.380
vn 0.229 0.856 0.463
vn 0.648 0.332 -0.685
vn 0.066 0.983 0.173
vn 0.504 0.856 -0.115
vn 0.679 0.524 -0.514
vn -0.223 0.067 0.973
vn 0.019 0.985 0.170
vn -0.478 -0.791 0.382
vn -0.347 -0.862 -0.369
vn -0.243 -0.954 -0.175
vn -0.955 -0.234 0.182
vn 0.209 -0.893 -0.399
vn -0.222 -0.925 0.310
vn 0.730 -0.151 -0.667
vn -0.017 -0.977 -0.215
vn 0.269 -0.726 -0.633
vn -0.015 -0.985 -0.170
vn 0.548 -0.564 -0.619
vn 0.588 -0.359 -0.725

# Facets
f 1//1 3//1 2//1
f 4//2 2//2 3//2
f 5//3 3//3 1//3
f 5//4 4//4 3//4
f 1//5 2//5 6//5
f 6//6 2//6 4//6
f 5//7 1//7 6//7
f 6//8 4//8 5//8
f 7//9 9//9 8//9
f 10//10 9//10 11//10
f 10//11 8//11 9//11
f 12//12 10//12 11//12
f 13//13 9//13 7//13
f 13//14 11//14 9//14
f 13//15 14//15 11//15
f 14//16 12//16 11//16
f 7//17 8//17 15//17
f 8//18 16//18 15//18
f 17//19 16//19 8//19
f 10//20 17//20 8//20
f 18//21 12//21 19//21
f 10//22 12//22 18//22
f 17//23 10//23 18//23
f 20//24 18//24 19//24
f 7//25 15//25 13//25
f 21//26 23//26 22//26
f 14//27 13//27 16//27
f 16//28 13//28 15//28
f 24//29 14//29 16//29
f 16//30 23//30 21//30
f 21//31 24//31 16//31
f 12//32 14//32 19//32
f 19//33 14//33 24//33
f 19//34 24//34 25//34
f 19//35 26//35 20//35
f 27//36 26//36 19//36
f 25//37 27//37 19//37
f 28//38 26//38 27//38
f 22//39 29//39 21//39
f 22//40 30//40 29//40
f 31//41 24//41 21//41
f 29//42 31//42 21//42
f 32//43 25//43 24//43
f 31//44 32//44 24//44
f 33//45 27//45 25//45
f 32//46 33//46 25//46
f 27//47 34//47 28//47
f 27//48 33//48 34//48
f 35//49 29//49 30//49
f 36//50 35//50 37//50
f 29//51 35//51 36//51
f 31//52 29//52 36//52
f 32//53 39//53 38//53
f 36//54 39//54 32//54
f 31//55 36//55 32//55
f 38//56 33//56 32//56
f 38//57 40//57 33//57
f 40//58 34//58 33//58
f 41//59 36//59 37//59
f 41//60 39//60 36//60
f 42//61 44//61 43//61
f 45//62 43//62 44//62
f 42//63 46//63 44//63
f 42//64 47//64 46//64
f 44//65 48//65 45//65
f 44//66 46//66 48//66
f 49//67 46//67 47//67
f 49//68 48//68 46//68
f 50//69 17//69 51//69
f 50//70 16//70 17//70
f 17//71 18//71 52//71
f 51//72 17//72 52//72
f 20//73 52//73 18//73
f 20//74 53//74 52//74
f 54//75 23//75 55//75
f 54//76 22//76 23//76
f 16//77 50//77 23//77
f 50//78 55//78 23//78
f 53//79 20//79 56//79
f 20//80 26//80 56//80
f 28//81 56//81 26//81
f 28//82 57//82 56//82
f 30//83 22//83 54//83
f 30//84 54//84 58//84
f 59//85 61//85 60//85
f 61//86 59//86 62//86
f 63//87 64//87 34//87
f 34//88 64//88 57//88
f 34//89 57//89 28//89
f 65//90 64//90 63//90
f 30//91 66//91 35//91
f 67//92 66//92 30//92
f 58//93 67//93 30//93
f 59//94 60//94 68//94
f 66//95 37//95 35//95
f 69//96 38//96 39//96
f 59//97 68//97 62//97
f 69//98 70//98 38//98
f 38//99 70//99 71//99
f 38//100 71//100 40//100
f 40//101 63//101 34//101
f 72//102 63//102 40//102
f 71//103 72//103 40//103
f 72//104 65//104 63//104
f 73//105 66//105 67//105
f 73//106 37//106 66//106
f 41//107 37//107 73//107
f 74//108 41//108 73//108
f 41//109 69//109 39//109
f 75//110 69//110 41//110
f 74//111 75//111 41//111
f 75//112 70//112 69//112
f 76//113 78//113 77//113
f 43//114 78//114 42//114
f 77//115 78//115 43//115
f 79//116 77//116 43//116
f 80//117 45//117 81//117
f 43//118 45//118 80//118
f 79//119 43//119 80//119
f 82//120 80//120 81//120
f 83//121 78//121 76//121
f 78//122 83//122 42//122
f 42//123 83//123 84//123
f 42//124 84//124 47//124
f 85//125 81//125 48//125
f 81//126 45//126 48//126
f 81//127 86//127 82//127
f 81//128 85//128 86//128
f 87//129 47//129 84//129
f 87//130 49//130 47//130
f 49//131 85//131 48//131
f 88//132 85//132 49//132
f 87//133 88//133 49//133
f 88//134 86//134 85//134
f 50//135 51//135 89//135
f 90//136 51//136 52//136
f 90//137 89//137 51//137
f 90//138 52//138 53//138
f 54//139 55//139 91//139
f 91//140 55//140 92//140
f 55//141 50//141 92//141
f 92//142 50//142 93//142
f 93//143 50//143 89//143
f 89//144 90//144 93//144
f 90//145 94//145 93//145
f 90//146 53//146 94//146
f 94//147 53//147 56//147
f 94//148 56//148 95//148
f 57//149 95//149 56//149
f 57//150 96//150 95//150
f 97//151 91//151 98//151
f 54//152 91//152 97//152
f 58//153 54//153 97//153
f 61//154 99//154 60//154
f 98//155 91//155 92//155
f 61//156 62//156 99//156
f 64//157 100//157 57//157
f 57//158 100//158 101//158
f 57//159 101//159 96//159
f 100//160 64//160 65//160
f 67//161 58//161 97//161
f 67//162 97//162 102//162
f 60//163 99//163 68//163
f 62//164 68//164 99//164
f 103//165 71//165 70//165
f 101//166 100//166 104//166
f 104//167 100//167 71//167
f 71//168 100//168 72//168
f 71//169 103//169 104//169
f 100//170 65//170 72//170
f 105//171 67//171 102//171
f 105//172 73//172 67//172
f 106//173 74//173 73//173
f 106//174 73//174 105//174
f 107//175 75//175 74//175
f 107//176 74//176 106//176
f 75//177 103//177 70//177
f 108//178 103//178 75//178
f 107//179 108//179 75//179
f 108//180 104//180 103//180
f 76//181 77//181 109//181
f 77//182 110//182 109//182
f 111//183 110//183 77//183
f 79//184 111//184 77//184
f 79//185 80//185 112//185
f 111//186 79//186 112//186
f 82//187 112//187 80//187
f 82//188 113//188 112//188
f 83//189 76//189 109//189
f 83//190 109//190 84//190
f 84//191 109//191 110//191
f 84//192 110//192 114//192
f 113//193 82//193 86//193
f 115//194 113//194 86//194
f 116//195 84//195 114//195
f 116//196 87//196 84//196
f 117//197 88//197 87//197
f 117//198 87//198 116//198
f 88//199 115//199 86//199
f 88//200 117//200 115//200
f 92//201 93//201 118//201
f 119//202 93//202 94//202
f 119//203 118//203 93//203
f 120//204 94//204 95//204
f 120//205 119//205 94//205
f 120//206 95//206 96//206
f 97//207 98//207 121//207
f 121//208 98//208 122//208
f 98//209 92//209 122//209
f 122//210 92//210 123//210
f 123//211 92//211 118//211
f 118//212 119//212 123//212
f 119//213 124//213 123//213
f 125//214 124//214 126//214
f 126//215 124//215 119//215
f 126//216 119//216 120//216
f 126//217 96//217 101//217
f 126//218 120//218 96//218
f 127//219 121//219 128//219
f 97//220 121//220 127//220
f 102//221 97//221 127//221
f 121//222 122//222 128//222
f 126//223 129//223 125//223
f 129//224 130//224 125//224
f 129//225 101//225 104//225
f 129//226 126//226 101//226
f 131//227 102//227 127//227
f 131//228 105//228 102//228
f 132//229 133//229 131//229
f 131//230 133//230 106//230
f 131//231 106//231 105//231
f 133//232 134//232 106//232
f 106//233 134//233 135//233
f 106//234 135//234 107//234
f 108//235 130//235 129//235
f 135//236 130//236 108//236
f 107//237 135//237 108//237
f 129//238 104//238 108//238
f 136//239 133//239 132//239
f 136//240 134//240 133//240
f 110//241 111//241 137//241
f 138//242 111//242 112//242
f 138//243 137//243 111//243
f 138//244 112//244 113//244
f 114//245 137//245 139//245
f 114//246 110//246 137//246
f 137//247 138//247 140//247
f 137//248 140//248 139//248
f 140//249 113//249 115//249
f 140//250 138//250 113//250
f 116//251 114//251 139//251
f 139//252 117//252 116//252
f 139//253 140//253 117//253
f 140//254 115//254 117//254
f 122//255 123//255 141//255
f 142//256 123//256 124//256
f 142//257 141//257 123//257
f 142//258 124//258 125//258
f 127//259 128//259 143//259
f 141//260 128//260 122//260
f 143//261 128//261 141//261
f 144//262 143//262 141//262
f 141//263 142//263 145//263
f 141//264 145//264 144//264
f 145//265 125//265 130//265
f 145//266 142//266 125//266
f 131//267 127//267 143//267
f 143//268 132//268 131//268
f 146//269 132//269 143//269
f 144//270 146//270 143//270
f 146//271 135//271 134//271
f 145//272 135//272 146//272
f 144//273 145//273 146//273
f 145//274 130//274 135//274
f 136//275 132//275 146//275
f 146//276 134//276 136//276
f 147//277 149//277 148//277
f 150//278 149//278 151//278
f 150//279 148//279 149//279
f 152//280 150//280 151//280
f 147//281 153//281 149//281
f 147//282 154//282 153//282
f 151//283 156//283 155//283
f 153//284 156//284 151//284
f 149//285 153//285 151//285
f 155//286 152//286 151//286
f 157//287 153//287 154//287
f 157//288 156//288 153//288
f 147//289 148//289 158//289
f 159//290 148//290 150//290
f 159//291 158//291 148//291
f 159//292 150//292 152//292
f 154//293 158//293 160//293
f 154//294 147//294 158//294
f 160//295 155//295 156//295
f 159//296 155//296 160//296
f 158//297 159//297 160//297
f 159//298 152//298 155//298
f 157//299 154//299 160//299
f 160//300 156//300 157//300

# Thankyou for using Spin3D

