# Created using Spin3D

# Vertex Array
v 5.758 -34.594 29.690
v 5.756 -34.594 29.687
v 5.756 -34.595 29.689
v 5.754 -34.594 29.689
v 5.755 -34.594 29.691
v 5.758 -34.592 29.689
v 5.755 -34.592 29.688
v 5.754 -34.592 29.690
v 5.756 -34.593 29.691
v 5.756 -34.592 29.690
v 2.251 -26.893 60.859
v 2.534 -26.639 61.056
v 2.532 -27.006 60.940
v 3.392 -26.325 60.699
v 2.512 -26.587 60.167
v 2.067 -25.780 60.303
v 3.119 -25.394 61.171
v 4.230 -25.492 61.187
v 0.590 -24.129 57.228
v 1.074 -24.069 58.757
v 1.822 -25.480 58.379
v 3.904 -25.794 58.672
v 5.472 -25.039 60.029
v 6.538 -24.866 57.903
v 7.439 -24.211 58.757
v 1.292 -24.546 56.215
v 0.221 -23.013 55.650
v 2.845 -25.255 56.807
v 5.158 -24.744 56.112
v 8.596 -23.794 57.386
v 7.878 -24.189 56.180
v 9.432 -23.689 56.138
v 1.092 -23.628 54.838
v 2.813 -24.125 54.930
v 1.817 -22.910 54.004
v 7.097 -23.437 54.665
v 4.904 -23.669 54.345
v 9.145 -23.404 55.321
v 3.697 -22.401 53.567
v 6.101 -17.989 29.027
v 6.189 -17.866 29.017
v 6.154 -17.992 29.003
v 6.337 -17.836 28.904
v 6.313 -17.799 28.871
v 2.425 -23.306 60.188
v 3.530 -23.960 61.286
v 4.307 -24.593 61.431
v 4.923 -24.920 61.155
v 5.519 -23.829 60.788
v 0.136 -22.424 57.105
v 1.013 -22.189 58.545
v 7.266 -23.154 59.412
v 8.298 -23.419 58.426
v 8.809 -22.165 57.690
v -0.183 -21.767 55.818
v 9.810 -23.038 56.389
v 10.078 -23.274 55.704
v 10.218 -22.849 55.746
v 0.755 -22.470 54.358
v 0.312 -21.061 54.763
v 5.746 -22.635 53.652
v 7.071 -22.097 53.782
v 8.627 -22.197 54.656
v 9.888 -22.818 55.342
v 1.864 -21.138 53.634
v 3.686 -20.582 53.151
v 5.594 -21.016 53.340
v 6.129 -17.679 29.000
v 6.201 -17.629 29.008
v 6.126 -17.826 29.007
v 6.398 -17.559 28.947
v 6.535 -17.590 28.840
v 6.733 -17.477 28.635
v 6.881 -17.277 28.620
v 6.389 -17.505 28.807
v 6.841 -17.172 28.484
v 6.749 -17.376 28.547
v 7.045 -17.177 28.374
v 7.105 -17.097 28.408
v 7.059 -17.087 28.334
v 7.201 -16.981 28.284
v 3.569 -22.932 60.953
v 4.527 -23.071 61.054
v 0.567 -20.859 57.496
v 2.198 -20.198 58.456
v 4.018 -21.324 60.012
v 6.108 -21.665 59.924
v 7.762 -21.403 58.931
v 8.172 -20.392 57.979
v 0.095 -20.419 56.062
v 0.897 -19.456 56.923
v 9.516 -21.964 55.841
v 8.511 -20.261 56.573
v 0.448 -19.375 54.916
v 7.398 -20.941 53.925
v 8.239 -20.434 54.970
v 1.293 -19.331 54.060
v 2.939 -19.205 53.471
v 4.621 -19.423 53.338
v 6.370 -19.246 54.091
v 6.196 -17.565 28.966
v 6.420 -17.349 28.856
v 6.535 -17.298 28.862
v 6.728 -17.276 28.761
v 7.036 -17.026 28.526
v 7.087 -16.958 28.360
v 6.760 -17.111 28.601
v 7.189 -16.917 28.351
v 7.006 -16.938 28.504
v 3.902 -19.498 58.910
v 5.529 -19.358 58.752
v 7.168 -20.131 58.769
v 0.870 -18.618 55.698
v 2.089 -18.177 56.690
v 3.952 -18.102 57.630
v 5.649 -17.787 57.365
v 6.105 -17.459 56.160
v 7.149 -18.865 57.383
v 1.187 -18.281 54.679
v 2.083 -17.507 55.259
v 7.292 -18.718 55.600
v 5.927 -17.710 54.919
v 2.411 -17.918 54.207
v 4.368 -17.910 54.103
v 6.724 -17.083 28.709
v 6.845 -17.054 28.675
v 3.482 -17.072 56.014
v 4.861 -17.051 56.510
v 3.375 -17.084 54.846
v 4.752 -16.966 55.329
v 4.136 -8.194 45.132
v 4.132 -8.194 45.127
v 4.134 -8.193 45.129
v 4.132 -8.192 45.125
v 4.133 -8.193 45.126
v 4.131 -8.193 45.123
v 4.136 -8.194 45.131
v 4.139 -8.195 45.132
v 4.135 -8.194 45.127
v 4.137 -8.193 45.129
v 4.140 -8.194 45.132
v 4.135 -8.195 45.129
v 4.132 -8.194 45.127
v 4.138 -8.194 45.130

# Normal Array
vn 0.270 -0.904 -0.333
vn -0.182 -0.880 -0.438
vn 0.165 -0.977 0.136
vn -0.301 -0.953 0.029
vn 0.526 0.378 -0.762
vn 0.801 -0.212 -0.559
vn -0.487 -0.154 -0.860
vn -0.803 0.394 -0.446
vn 0.818 0.179 0.547
vn 0.503 -0.425 0.752
vn -0.814 -0.371 0.447
vn -0.521 0.134 0.843
vn 0.178 0.980 -0.087
vn -0.246 0.969 0.005
vn 0.261 0.923 0.283
vn -0.157 0.915 0.373
vn -0.367 -0.278 0.887
vn 0.453 -0.272 0.849
vn -0.213 -0.861 -0.462
vn 0.485 -0.763 -0.427
vn -0.669 0.249 0.700
vn -0.686 0.231 0.690
vn 0.457 -0.292 0.840
vn -0.054 -0.464 0.884
vn -0.816 -0.507 0.278
vn -0.058 -0.859 -0.509
vn -0.873 -0.487 0.035
vn -0.805 -0.366 -0.467
vn -0.879 -0.476 0.038
vn 0.570 -0.759 0.315
vn 0.500 -0.860 -0.099
vn 0.357 -0.928 0.104
vn 0.364 -0.919 -0.149
vn 0.472 -0.866 0.166
vn -0.661 -0.734 -0.155
vn -0.744 -0.616 -0.261
vn -0.116 -0.970 -0.214
vn -0.291 -0.902 -0.318
vn 0.253 -0.932 -0.258
vn 0.107 -0.937 -0.332
vn 0.486 -0.862 0.147
vn 0.464 -0.885 0.013
vn 0.201 -0.955 -0.219
vn 0.307 -0.943 0.126
vn -0.723 -0.618 -0.307
vn -0.157 -0.677 -0.719
vn -0.211 -0.827 -0.521
vn -0.193 -0.842 -0.504
vn 0.165 -0.832 -0.530
vn 0.039 -0.851 -0.524
vn 0.034 -0.856 -0.516
vn 0.184 -0.839 -0.511
vn 0.177 -0.843 -0.509
vn 0.270 -0.876 -0.400
vn -0.017 -0.614 -0.789
vn -0.097 -0.586 -0.805
vn 0.386 -0.210 0.898
vn 0.619 -0.258 0.742
vn -0.403 -0.268 -0.875
vn 0.103 -0.620 -0.778
vn -0.660 0.130 0.740
vn -0.659 0.130 0.741
vn 0.269 -0.274 0.923
vn -0.037 -0.259 0.965
vn -0.200 -0.022 0.979
vn 0.436 0.064 0.897
vn -0.856 0.030 0.516
vn -0.926 -0.225 0.302
vn -0.756 0.139 0.640
vn -0.740 0.052 0.671
vn 0.602 -0.708 0.368
vn 0.599 -0.349 0.721
vn 0.608 -0.344 0.716
vn 0.656 -0.419 0.628
vn 0.841 -0.310 0.443
vn 0.702 0.125 0.701
vn -0.966 -0.254 0.047
vn -0.946 -0.316 0.073
vn 0.699 -0.586 0.411
vn 0.677 -0.573 0.462
vn 0.703 -0.572 0.422
vn 0.697 -0.219 0.683
vn 0.926 -0.183 0.331
vn 0.840 -0.319 0.438
vn -0.759 -0.425 -0.493
vn -0.888 -0.155 -0.433
vn -0.830 -0.198 -0.522
vn -0.444 -0.450 -0.774
vn 0.177 -0.643 -0.745
vn 0.291 -0.522 -0.802
vn 0.400 -0.499 -0.769
vn 0.290 -0.363 -0.885
vn 0.287 -0.869 -0.404
vn 0.391 -0.466 -0.794
vn 0.306 -0.355 -0.883
vn 0.754 -0.185 -0.630
vn -0.586 0.048 -0.809
vn -0.377 -0.180 -0.909
vn -0.171 -0.197 -0.965
vn -0.187 -0.220 -0.957
vn -0.027 -0.541 -0.841
vn 0.019 -0.187 -0.982
vn 0.046 -0.223 -0.974
vn 0.165 -0.172 -0.971
vn -0.155 0.050 0.987
vn -0.085 0.135 0.987
vn -0.142 0.045 0.989
vn 0.293 0.021 0.956
vn 0.748 -0.481 0.457
vn 0.617 -0.306 0.725
vn 0.573 -0.208 0.793
vn 0.740 -0.517 0.430
vn -0.585 -0.024 -0.811
vn -0.587 0.012 -0.809
vn -0.578 -0.028 -0.816
vn -0.584 -0.026 -0.812
vn -0.585 -0.011 -0.811
vn 0.058 -0.639 -0.767
vn 0.087 -0.661 -0.745
vn -0.003 -0.655 -0.756
vn 0.765 -0.542 0.347
vn 0.754 -0.633 0.176
vn -0.563 -0.004 -0.826
vn -0.294 -0.341 -0.893
vn -0.039 -0.393 -0.919
vn 0.793 -0.607 0.048
vn -0.595 0.269 0.758
vn 0.013 0.239 0.971
vn -0.055 0.310 0.949
vn 0.375 0.172 0.911
vn -0.857 0.110 0.504
vn -0.578 0.377 0.724
vn -0.566 0.369 0.737
vn -0.429 0.416 0.802
vn -0.585 0.525 0.618
vn -0.017 0.509 0.861
vn 0.122 0.534 0.836
vn 0.416 0.237 0.878
vn 0.570 0.166 0.805
vn 0.502 0.094 0.860
vn 0.754 -0.033 0.656
vn 0.806 0.198 0.558
vn -0.848 0.359 0.389
vn -0.921 0.165 0.354
vn -0.942 0.139 0.304
vn -0.581 0.421 0.697
vn 0.834 0.414 0.364
vn 0.861 0.350 0.368
vn 0.924 0.291 0.250
vn 0.675 0.474 0.566
vn -0.931 0.241 -0.275
vn -0.973 0.098 -0.211
vn 0.488 -0.030 -0.872
vn 0.805 0.560 -0.197
vn 0.743 0.272 -0.611
vn 0.591 0.583 -0.558
vn 0.681 0.271 -0.680
vn 0.656 0.572 -0.492
vn -0.710 0.120 -0.694
vn -0.588 0.005 -0.809
vn -0.276 0.073 -0.958
vn -0.343 0.112 -0.933
vn 0.114 0.068 -0.991
vn -0.052 0.199 -0.979
vn 0.307 0.031 -0.951
vn 0.287 0.265 -0.921
vn 0.367 0.223 -0.903
vn 0.592 0.426 -0.684
vn -0.424 0.476 0.771
vn -0.114 0.543 0.832
vn -0.325 0.636 0.700
vn 0.234 0.185 0.954
vn 0.585 -0.161 0.795
vn 0.459 0.045 0.887
vn 0.659 -0.226 0.717
vn 0.670 -0.142 0.728
vn -0.656 0.163 -0.737
vn -0.658 0.379 -0.651
vn -0.695 0.318 -0.645
vn -0.704 0.337 -0.625
vn -0.658 0.342 -0.671
vn -0.373 0.868 -0.329
vn -0.626 0.645 -0.439
vn 0.572 0.374 0.730
vn 0.796 -0.190 0.575
vn 0.765 -0.251 0.593
vn -0.614 0.277 -0.739
vn -0.498 0.269 -0.824
vn -0.322 0.659 -0.680
vn 0.868 -0.277 0.411
vn -0.399 0.455 0.796
vn 0.114 0.473 0.874
vn 0.038 0.518 0.855
vn 0.451 0.317 0.834
vn 0.220 0.485 0.846
vn 0.631 0.381 0.676
vn -0.848 0.428 0.311
vn -0.607 0.649 0.458
vn -0.474 0.565 0.675
vn -0.381 0.597 0.706
vn -0.429 0.619 0.658
vn 0.013 0.676 0.737
vn -0.006 0.662 0.749
vn 0.531 0.746 0.403
vn 0.412 0.585 0.698
vn 0.324 0.701 0.636
vn 0.761 0.603 0.240
vn 0.584 0.603 0.543
vn -0.834 0.546 -0.079
vn -0.907 0.410 0.093
vn -0.559 0.750 0.354
vn -0.668 0.743 0.038
vn 0.747 0.655 0.114
vn 0.651 0.721 -0.239
vn 0.826 0.528 -0.197
vn 0.743 0.659 0.114
vn -0.683 0.319 -0.657
vn -0.408 0.800 -0.440
vn -0.433 0.425 -0.795
vn -0.339 0.358 -0.870
vn -0.012 0.450 -0.893
vn -0.048 0.481 -0.876
vn 0.652 0.497 -0.573
vn 0.343 0.520 -0.782
vn 0.309 0.470 -0.827
vn 0.615 0.548 -0.568
vn -0.360 0.731 0.580
vn 0.452 0.105 0.886
vn 0.123 0.501 0.856
vn 0.616 -0.019 0.788
vn -0.706 0.594 -0.387
vn -0.627 0.678 -0.383
vn -0.053 0.848 0.528
vn 0.537 0.369 0.759
vn -0.320 0.754 0.574
vn -0.033 0.742 0.669
vn -0.217 0.794 0.569
vn 0.383 0.845 0.374
vn -0.305 0.952 0.018
vn -0.455 0.806 0.380
vn -0.042 0.996 0.076
vn -0.084 0.996 -0.003
vn 0.458 0.856 -0.239
vn 0.321 0.946 0.038
vn -0.403 0.803 -0.439
vn -0.043 0.639 -0.768
vn 0.157 0.758 -0.632
vn 0.240 0.732 -0.638
vn -0.513 0.634 0.579
vn 0.239 0.970 -0.042
vn -0.456 0.819 0.348
vn 0.524 0.730 -0.438
vn 0.039 0.924 0.380
vn 0.229 0.856 0.463
vn 0.648 0.332 -0.685
vn 0.066 0.983 0.173
vn 0.504 0.856 -0.115
vn 0.679 0.524 -0.514
vn -0.223 0.067 0.973
vn 0.019 0.985 0.170
vn -0.478 -0.791 0.382
vn -0.347 -0.862 -0.369
vn -0.243 -0.954 -0.175
vn -0.955 -0.234 0.182
vn 0.209 -0.893 -0.399
vn -0.222 -0.925 0.310
vn 0.730 -0.151 -0.667
vn -0.017 -0.977 -0.215
vn 0.269 -0.726 -0.633
vn -0.015 -0.985 -0.170
vn 0.548 -0.564 -0.619
vn 0.588 -0.359 -0.725

# Facets
f 1//1 3//1 2//1
f 4//2 2//2 3//2
f 5//3 3//3 1//3
f 5//4 4//4 3//4
f 6//5 2//5 7//5
f 6//6 1//6 2//6
f 4//7 7//7 2//7
f 4//8 8//8 7//8
f 9//9 1//9 6//9
f 9//10 5//10 1//10
f 5//11 8//11 4//11
f 5//12 9//12 8//12
f 6//13 7//13 10//13
f 10//14 7//14 8//14
f 9//15 6//15 10//15
f 10//16 8//16 9//16
f 11//17 13//17 12//17
f 14//18 12//18 13//18
f 15//19 13//19 11//19
f 15//20 14//20 13//20
f 16//21 12//21 17//21
f 16//22 11//22 12//22
f 14//23 17//23 12//23
f 14//24 18//24 17//24
f 19//25 21//25 20//25
f 22//26 15//26 21//26
f 21//27 15//27 16//27
f 16//28 15//28 11//28
f 16//29 20//29 21//29
f 14//30 23//30 18//30
f 22//31 23//31 14//31
f 24//32 23//32 22//32
f 15//33 22//33 14//33
f 25//34 23//34 24//34
f 19//35 26//35 21//35
f 19//36 27//36 26//36
f 28//37 22//37 21//37
f 26//38 28//38 21//38
f 29//39 24//39 22//39
f 28//40 29//40 22//40
f 24//41 30//41 25//41
f 31//42 30//42 24//42
f 29//43 31//43 24//43
f 32//44 30//44 31//44
f 33//45 26//45 27//45
f 34//46 33//46 35//46
f 26//47 33//47 34//47
f 28//48 26//48 34//48
f 29//49 37//49 36//49
f 34//50 37//50 29//50
f 28//51 34//51 29//51
f 36//52 31//52 29//52
f 36//53 38//53 31//53
f 38//54 32//54 31//54
f 39//55 34//55 35//55
f 39//56 37//56 34//56
f 40//57 42//57 41//57
f 43//58 41//58 42//58
f 44//59 42//59 40//59
f 44//60 43//60 42//60
f 45//61 17//61 46//61
f 45//62 16//62 17//62
f 47//63 18//63 48//63
f 17//64 18//64 47//64
f 46//65 17//65 47//65
f 49//66 47//66 48//66
f 50//67 20//67 51//67
f 50//68 19//68 20//68
f 16//69 45//69 20//69
f 45//70 51//70 20//70
f 48//71 18//71 23//71
f 52//72 25//72 53//72
f 52//73 23//73 25//73
f 49//74 23//74 52//74
f 48//75 23//75 49//75
f 54//76 52//76 53//76
f 27//77 19//77 50//77
f 27//78 50//78 55//78
f 53//79 25//79 30//79
f 56//80 32//80 57//80
f 56//81 30//81 32//81
f 54//82 30//82 56//82
f 53//83 30//83 54//83
f 58//84 56//84 57//84
f 27//85 59//85 33//85
f 60//86 59//86 27//86
f 55//87 60//87 27//87
f 35//88 33//88 59//88
f 61//89 36//89 37//89
f 61//90 62//90 36//90
f 36//91 62//91 63//91
f 36//92 63//92 38//92
f 38//93 57//93 32//93
f 64//94 57//94 38//94
f 63//95 64//95 38//95
f 64//96 58//96 57//96
f 65//97 59//97 60//97
f 65//98 35//98 59//98
f 39//99 35//99 65//99
f 66//100 39//100 65//100
f 39//101 61//101 37//101
f 67//102 61//102 39//102
f 66//103 67//103 39//103
f 67//104 62//104 61//104
f 68//105 70//105 69//105
f 41//106 70//106 40//106
f 69//107 70//107 41//107
f 71//108 69//108 41//108
f 72//109 43//109 73//109
f 41//110 43//110 72//110
f 71//111 41//111 72//111
f 74//112 72//112 73//112
f 75//113 70//113 68//113
f 76//114 77//114 75//114
f 77//115 44//115 75//115
f 75//116 44//116 70//116
f 70//117 44//117 40//117
f 43//118 44//118 73//118
f 73//119 44//119 77//119
f 73//120 77//120 78//120
f 73//121 79//121 74//121
f 73//122 78//122 79//122
f 80//123 77//123 76//123
f 80//124 78//124 77//124
f 80//125 81//125 78//125
f 81//126 79//126 78//126
f 45//127 46//127 82//127
f 83//128 46//128 47//128
f 83//129 82//129 46//129
f 83//130 47//130 49//130
f 50//131 51//131 84//131
f 84//132 51//132 85//132
f 51//133 45//133 85//133
f 85//134 45//134 86//134
f 86//135 45//135 82//135
f 82//136 83//136 86//136
f 83//137 87//137 86//137
f 83//138 49//138 87//138
f 87//139 49//139 52//139
f 87//140 52//140 88//140
f 54//141 88//141 52//141
f 54//142 89//142 88//142
f 90//143 84//143 91//143
f 50//144 84//144 90//144
f 55//145 50//145 90//145
f 84//146 85//146 91//146
f 56//147 92//147 54//147
f 54//148 92//148 93//148
f 54//149 93//149 89//149
f 92//150 56//150 58//150
f 60//151 55//151 90//151
f 60//152 90//152 94//152
f 95//153 63//153 62//153
f 93//154 92//154 96//154
f 96//155 92//155 63//155
f 63//156 92//156 64//156
f 63//157 95//157 96//157
f 92//158 58//158 64//158
f 97//159 60//159 94//159
f 97//160 65//160 60//160
f 98//161 66//161 65//161
f 98//162 65//162 97//162
f 99//163 67//163 66//163
f 99//164 66//164 98//164
f 67//165 95//165 62//165
f 100//166 95//166 67//166
f 99//167 100//167 67//167
f 100//168 96//168 95//168
f 68//169 69//169 101//169
f 69//170 102//170 101//170
f 103//171 102//171 69//171
f 71//172 103//172 69//172
f 71//173 72//173 104//173
f 103//174 71//174 104//174
f 74//175 104//175 72//175
f 74//176 105//176 104//176
f 75//177 68//177 101//177
f 106//178 76//178 107//178
f 76//179 75//179 107//179
f 107//180 75//180 102//180
f 102//181 75//181 101//181
f 108//182 106//182 109//182
f 106//183 107//183 109//183
f 105//184 108//184 109//184
f 79//185 108//185 105//185
f 74//186 79//186 105//186
f 80//187 76//187 106//187
f 106//188 81//188 80//188
f 106//189 108//189 81//189
f 108//190 79//190 81//190
f 85//191 86//191 110//191
f 111//192 86//192 87//192
f 111//193 110//193 86//193
f 112//194 87//194 88//194
f 112//195 111//195 87//195
f 112//196 88//196 89//196
f 90//197 91//197 113//197
f 113//198 91//198 114//198
f 91//199 85//199 114//199
f 114//200 85//200 115//200
f 115//201 85//201 110//201
f 110//202 111//202 115//202
f 111//203 116//203 115//203
f 117//204 116//204 118//204
f 118//205 116//205 111//205
f 118//206 111//206 112//206
f 118//207 89//207 93//207
f 118//208 112//208 89//208
f 94//209 113//209 119//209
f 94//210 90//210 113//210
f 114//211 120//211 113//211
f 120//212 119//212 113//212
f 118//213 121//213 117//213
f 121//214 122//214 117//214
f 121//215 93//215 96//215
f 121//216 118//216 93//216
f 97//217 94//217 119//217
f 123//218 119//218 120//218
f 97//219 119//219 123//219
f 98//220 97//220 123//220
f 124//221 99//221 98//221
f 124//222 98//222 123//222
f 100//223 122//223 121//223
f 124//224 122//224 100//224
f 99//225 124//225 100//225
f 121//226 96//226 100//226
f 102//227 103//227 125//227
f 126//228 103//228 104//228
f 126//229 125//229 103//229
f 126//230 104//230 105//230
f 107//231 102//231 125//231
f 125//232 109//232 107//232
f 125//233 126//233 109//233
f 126//234 105//234 109//234
f 114//235 115//235 127//235
f 128//236 115//236 116//236
f 128//237 127//237 115//237
f 128//238 116//238 117//238
f 120//239 127//239 129//239
f 120//240 114//240 127//240
f 127//241 128//241 130//241
f 127//242 130//242 129//242
f 130//243 117//243 122//243
f 130//244 128//244 117//244
f 123//245 120//245 129//245
f 129//246 124//246 123//246
f 129//247 130//247 124//247
f 130//248 122//248 124//248
f 131//249 133//249 132//249
f 134//250 133//250 135//250
f 134//251 132//251 133//251
f 136//252 134//252 135//252
f 131//253 137//253 133//253
f 131//254 138//254 137//254
f 135//255 140//255 139//255
f 137//256 140//256 135//256
f 133//257 137//257 135//257
f 139//258 136//258 135//258
f 141//259 137//259 138//259
f 141//260 140//260 137//260
f 131//261 132//261 142//261
f 143//262 132//262 134//262
f 143//263 142//263 132//263
f 143//264 134//264 136//264
f 138//265 142//265 144//265
f 138//266 131//266 142//266
f 144//267 139//267 140//267
f 143//268 139//268 144//268
f 142//269 143//269 144//269
f 143//270 136//270 139//270
f 141//271 138//271 144//271
f 144//272 140//272 141//272

# Thankyou for using Spin3D

