# Created using Spin3D

# Vertex Array
v 5.734 -36.075 29.445
v 5.735 -36.075 29.446
v 5.735 -36.076 29.445
v 5.736 -36.075 29.445
v 5.735 -36.075 29.444
v 5.735 -36.074 29.445
v 2.270 -26.840 60.912
v 2.561 -26.599 61.104
v 2.555 -26.965 60.982
v 3.414 -26.299 60.721
v 2.508 -26.525 60.207
v 2.069 -25.696 60.377
v 3.149 -25.371 61.216
v 4.267 -25.503 61.202
v 0.439 -23.819 57.210
v 1.059 -23.847 58.900
v 1.725 -25.367 58.440
v 3.881 -25.725 58.644
v 5.502 -25.047 60.029
v 6.577 -24.847 57.888
v 7.473 -24.231 58.756
v 1.045 -24.683 56.619
v 2.605 -25.064 56.573
v 1.448 -24.048 55.298
v 5.255 -24.668 56.048
v 8.630 -23.815 57.390
v 7.938 -24.177 56.175
v 9.467 -23.709 56.150
v 3.284 -24.006 54.792
v 2.081 -22.906 54.164
v 7.206 -23.408 54.662
v 5.130 -23.591 54.310
v 9.195 -23.417 55.336
v 3.917 -22.298 53.570
v 6.101 -17.989 29.027
v 6.189 -17.866 29.017
v 6.154 -17.992 29.003
v 6.337 -17.836 28.904
v 6.313 -17.799 28.871
v 2.426 -23.201 60.291
v 3.561 -23.954 61.333
v 4.345 -24.618 61.451
v 4.962 -24.950 61.161
v 5.553 -23.868 60.797
v 0.220 -22.007 57.485
v 1.015 -21.900 58.759
v 7.294 -23.198 59.417
v 8.328 -23.456 58.429
v 8.830 -22.218 57.696
v 0.428 -23.638 55.853
v 0.067 -22.079 55.923
v 9.834 -23.077 56.404
v 10.106 -23.308 55.724
v 10.240 -22.891 55.765
v 0.782 -22.454 54.734
v 0.465 -20.378 54.641
v 5.903 -22.578 53.655
v 7.166 -22.074 53.792
v 8.678 -22.212 54.670
v 9.919 -22.852 55.362
v 1.980 -20.887 53.647
v 3.777 -20.420 53.116
v 5.685 -20.948 53.329
v 6.129 -17.679 29.000
v 6.201 -17.629 29.008
v 6.126 -17.826 29.007
v 6.398 -17.559 28.947
v 6.535 -17.590 28.840
v 6.733 -17.477 28.635
v 6.881 -17.277 28.620
v 6.389 -17.505 28.807
v 6.841 -17.172 28.484
v 6.749 -17.376 28.547
v 7.045 -17.177 28.374
v 7.105 -17.097 28.408
v 7.059 -17.087 28.334
v 7.201 -16.981 28.284
v 3.586 -22.917 61.011
v 4.551 -23.095 61.085
v 0.552 -20.404 57.715
v 2.078 -19.962 58.616
v 3.986 -21.288 60.078
v 6.112 -21.707 59.943
v 7.776 -21.466 58.938
v 8.168 -20.460 57.981
v 0.130 -19.643 56.087
v 0.749 -18.954 57.174
v 9.538 -22.008 55.854
v 8.502 -20.317 56.573
v 0.383 -18.643 54.660
v 7.445 -20.934 53.925
v 8.246 -20.461 54.967
v 1.260 -18.821 53.852
v 2.912 -18.934 53.342
v 4.620 -19.289 53.264
v 6.341 -19.207 54.045
v 6.196 -17.565 28.966
v 6.420 -17.349 28.856
v 6.535 -17.298 28.862
v 6.728 -17.276 28.761
v 7.036 -17.026 28.526
v 7.087 -16.958 28.360
v 6.760 -17.111 28.601
v 7.189 -16.917 28.351
v 7.006 -16.938 28.504
v 3.775 -19.418 58.985
v 5.433 -19.364 58.778
v 7.148 -20.192 58.777
v 0.609 -17.969 56.222
v 1.687 -17.819 56.934
v 3.668 -17.976 57.674
v 5.455 -17.778 57.353
v 5.915 -17.450 56.103
v 7.076 -18.913 57.375
v 0.558 -17.698 55.210
v 1.251 -17.090 55.764
v 7.224 -18.742 55.570
v 5.774 -17.666 54.834
v 0.968 -17.633 54.310
v 2.194 -17.501 53.925
v 4.206 -17.734 53.953
v 6.724 -17.083 28.709
v 6.845 -17.054 28.675
v 2.808 -16.807 55.879
v 4.520 -16.969 56.449
v 1.622 -16.896 54.814
v 2.993 -16.780 54.599
v 4.426 -16.842 55.200
v 4.136 -8.194 45.132
v 4.132 -8.194 45.127
v 4.134 -8.193 45.129
v 4.132 -8.192 45.125
v 4.133 -8.193 45.126
v 4.131 -8.193 45.123
v 4.136 -8.194 45.131
v 4.139 -8.195 45.132
v 4.135 -8.194 45.127
v 4.137 -8.193 45.129
v 4.140 -8.194 45.132
v 4.135 -8.195 45.129
v 4.132 -8.194 45.127
v 4.138 -8.194 45.130

# Normal Array
vn -0.590 -0.655 0.472
vn 0.584 -0.663 0.469
vn -0.588 -0.464 -0.662
vn 0.585 -0.477 -0.656
vn -0.586 0.476 0.655
vn 0.590 0.464 0.661
vn -0.585 0.662 -0.469
vn 0.591 0.654 -0.471
vn -0.348 -0.292 0.891
vn 0.475 -0.286 0.833
vn -0.258 -0.847 -0.465
vn 0.452 -0.764 -0.460
vn -0.640 0.240 0.730
vn -0.658 0.221 0.720
vn 0.477 -0.303 0.825
vn -0.047 -0.480 0.876
vn -0.837 -0.458 0.299
vn -0.093 -0.851 -0.517
vn -0.875 -0.479 0.074
vn -0.829 -0.350 -0.436
vn -0.902 -0.422 0.089
vn 0.561 -0.776 0.288
vn 0.477 -0.869 -0.133
vn 0.328 -0.941 0.077
vn 0.334 -0.925 -0.181
vn 0.458 -0.876 0.148
vn -0.794 -0.605 0.069
vn -0.222 -0.851 -0.476
vn -0.237 -0.935 -0.263
vn -0.139 -0.965 -0.222
vn 0.233 -0.938 -0.258
vn 0.072 -0.937 -0.343
vn 0.471 -0.872 0.133
vn 0.451 -0.892 0.009
vn 0.186 -0.956 -0.226
vn 0.292 -0.949 0.117
vn -0.130 -0.830 -0.543
vn -0.191 -0.636 -0.748
vn 0.163 -0.833 -0.528
vn 0.053 -0.847 -0.529
vn 0.030 -0.864 -0.502
vn 0.178 -0.840 -0.513
vn 0.169 -0.843 -0.510
vn 0.261 -0.877 -0.402
vn -0.081 -0.560 -0.825
vn -0.090 -0.557 -0.826
vn 0.386 -0.210 0.898
vn 0.619 -0.258 0.742
vn -0.403 -0.268 -0.875
vn 0.103 -0.620 -0.778
vn -0.627 0.119 0.770
vn -0.631 0.117 0.767
vn 0.279 -0.283 0.918
vn -0.020 -0.269 0.963
vn -0.174 -0.031 0.984
vn 0.449 0.056 0.892
vn -0.849 0.019 0.528
vn -0.927 -0.163 0.337
vn -0.736 0.128 0.664
vn -0.720 0.034 0.693
vn 0.597 -0.724 0.346
vn 0.598 -0.356 0.719
vn 0.606 -0.351 0.714
vn 0.656 -0.431 0.619
vn 0.845 -0.316 0.430
vn 0.702 0.130 0.700
vn -0.837 -0.543 -0.066
vn -0.974 -0.225 -0.022
vn -0.986 -0.135 0.103
vn -0.542 -0.681 -0.492
vn 0.694 -0.594 0.406
vn 0.672 -0.577 0.464
vn 0.699 -0.576 0.423
vn 0.695 -0.218 0.685
vn 0.927 -0.179 0.331
vn 0.840 -0.315 0.442
vn -0.867 -0.180 -0.465
vn -0.867 -0.154 -0.474
vn -0.486 -0.465 -0.740
vn -0.560 -0.474 -0.679
vn 0.184 -0.629 -0.755
vn 0.293 -0.516 -0.805
vn 0.404 -0.492 -0.772
vn 0.298 -0.361 -0.884
vn 0.277 -0.871 -0.405
vn 0.393 -0.467 -0.792
vn 0.309 -0.355 -0.882
vn 0.760 -0.182 -0.624
vn -0.573 -0.124 -0.810
vn -0.459 -0.242 -0.855
vn -0.221 -0.252 -0.942
vn -0.216 -0.245 -0.945
vn -0.037 -0.523 -0.852
vn 0.014 -0.194 -0.981
vn 0.044 -0.232 -0.972
vn 0.173 -0.171 -0.970
vn -0.155 0.050 0.987
vn -0.085 0.135 0.987
vn -0.142 0.045 0.989
vn 0.293 0.021 0.956
vn 0.748 -0.481 0.457
vn 0.617 -0.306 0.725
vn 0.573 -0.208 0.793
vn 0.740 -0.517 0.430
vn -0.585 -0.024 -0.811
vn -0.587 0.012 -0.809
vn -0.578 -0.028 -0.816
vn -0.584 -0.026 -0.812
vn -0.585 -0.011 -0.811
vn 0.058 -0.639 -0.767
vn 0.087 -0.661 -0.745
vn -0.003 -0.655 -0.756
vn 0.765 -0.542 0.347
vn 0.754 -0.633 0.176
vn -0.563 -0.004 -0.826
vn -0.294 -0.341 -0.893
vn -0.039 -0.393 -0.919
vn 0.793 -0.607 0.048
vn -0.554 0.259 0.791
vn 0.046 0.228 0.973
vn -0.018 0.297 0.955
vn 0.389 0.166 0.906
vn -0.848 0.101 0.521
vn -0.549 0.357 0.756
vn -0.525 0.346 0.778
vn -0.370 0.395 0.841
vn -0.540 0.514 0.667
vn 0.024 0.492 0.870
vn 0.155 0.518 0.841
vn 0.431 0.233 0.872
vn 0.571 0.169 0.803
vn 0.504 0.097 0.858
vn 0.754 -0.028 0.657
vn 0.805 0.213 0.554
vn -0.901 0.254 0.352
vn -0.938 0.149 0.313
vn -0.995 0.019 0.097
vn -0.549 0.357 0.756
vn 0.830 0.419 0.367
vn 0.854 0.366 0.370
vn 0.919 0.305 0.249
vn 0.672 0.477 0.566
vn -0.968 0.042 -0.246
vn -0.978 -0.044 -0.204
vn 0.501 -0.021 -0.865
vn 0.803 0.568 -0.179
vn 0.751 0.286 -0.595
vn 0.604 0.587 -0.540
vn 0.694 0.284 -0.662
vn 0.665 0.577 -0.475
vn -0.680 -0.024 -0.732
vn -0.572 -0.119 -0.811
vn -0.280 -0.016 -0.960
vn -0.295 -0.008 -0.955
vn 0.121 0.039 -0.992
vn -0.016 0.141 -0.990
vn 0.321 0.033 -0.947
vn 0.308 0.260 -0.915
vn 0.394 0.218 -0.893
vn 0.608 0.434 -0.665
vn -0.424 0.476 0.771
vn -0.114 0.543 0.832
vn -0.325 0.636 0.700
vn 0.234 0.185 0.954
vn 0.585 -0.161 0.795
vn 0.459 0.045 0.887
vn 0.659 -0.226 0.717
vn 0.670 -0.142 0.728
vn -0.656 0.163 -0.737
vn -0.658 0.379 -0.651
vn -0.695 0.318 -0.645
vn -0.704 0.337 -0.625
vn -0.658 0.342 -0.671
vn -0.373 0.868 -0.329
vn -0.626 0.645 -0.439
vn 0.572 0.374 0.730
vn 0.796 -0.190 0.575
vn 0.765 -0.251 0.593
vn -0.614 0.277 -0.739
vn -0.498 0.269 -0.824
vn -0.322 0.659 -0.680
vn 0.868 -0.277 0.411
vn -0.325 0.450 0.832
vn 0.148 0.474 0.868
vn 0.090 0.510 0.855
vn 0.453 0.328 0.829
vn 0.235 0.486 0.841
vn 0.628 0.394 0.671
vn -0.901 0.228 0.369
vn -0.509 0.560 0.654
vn -0.425 0.510 0.748
vn -0.248 0.570 0.784
vn -0.351 0.615 0.706
vn 0.070 0.674 0.736
vn 0.060 0.667 0.743
vn 0.524 0.756 0.391
vn 0.414 0.605 0.680
vn 0.340 0.703 0.624
vn 0.746 0.621 0.240
vn 0.579 0.617 0.533
vn -0.734 0.646 0.210
vn -0.957 0.264 0.119
vn -0.979 0.200 -0.033
vn -0.478 0.655 0.586
vn 0.722 0.681 0.124
vn 0.647 0.737 -0.197
vn 0.817 0.548 -0.180
vn 0.731 0.671 0.123
vn -0.855 0.369 -0.363
vn -0.659 0.124 -0.742
vn -0.271 0.243 -0.931
vn -0.315 0.273 -0.909
vn 0.045 0.415 -0.909
vn 0.059 0.402 -0.914
vn 0.661 0.520 -0.541
vn 0.397 0.530 -0.749
vn 0.349 0.456 -0.818
vn 0.630 0.562 -0.536
vn -0.360 0.731 0.580
vn 0.452 0.105 0.886
vn 0.123 0.501 0.856
vn 0.616 -0.019 0.788
vn -0.706 0.594 -0.387
vn -0.627 0.678 -0.383
vn -0.053 0.848 0.528
vn 0.537 0.369 0.759
vn -0.158 0.791 0.591
vn 0.032 0.761 0.648
vn -0.117 0.806 0.581
vn 0.383 0.849 0.364
vn -0.619 0.781 -0.082
vn -0.188 0.801 0.569
vn -0.187 0.974 0.127
vn -0.083 0.997 0.009
vn 0.062 0.993 0.096
vn 0.032 0.999 0.026
vn 0.471 0.860 -0.198
vn 0.341 0.938 0.069
vn -0.640 0.731 -0.239
vn -0.282 0.699 -0.657
vn -0.162 0.764 -0.625
vn 0.084 0.629 -0.773
vn 0.281 0.756 -0.591
vn 0.298 0.751 -0.590
vn -0.513 0.634 0.579
vn 0.239 0.970 -0.042
vn -0.456 0.819 0.348
vn 0.524 0.730 -0.438
vn 0.039 0.924 0.380
vn 0.229 0.856 0.463
vn 0.648 0.332 -0.685
vn 0.066 0.983 0.173
vn 0.504 0.856 -0.115
vn 0.679 0.524 -0.514
vn -0.223 0.067 0.973
vn 0.019 0.985 0.170
vn -0.478 -0.791 0.382
vn -0.347 -0.862 -0.369
vn -0.243 -0.954 -0.175
vn -0.955 -0.234 0.182
vn 0.209 -0.893 -0.399
vn -0.222 -0.925 0.310
vn 0.730 -0.151 -0.667
vn -0.017 -0.977 -0.215
vn 0.269 -0.726 -0.633
vn -0.015 -0.985 -0.170
vn 0.548 -0.564 -0.619
vn 0.588 -0.359 -0.725

# Facets
f 1//1 3//1 2//1
f 4//2 2//2 3//2
f 5//3 3//3 1//3
f 5//4 4//4 3//4
f 1//5 2//5 6//5
f 6//6 2//6 4//6
f 5//7 1//7 6//7
f 6//8 4//8 5//8
f 7//9 9//9 8//9
f 10//10 8//10 9//10
f 11//11 9//11 7//11
f 11//12 10//12 9//12
f 12//13 8//13 13//13
f 12//14 7//14 8//14
f 10//15 13//15 8//15
f 10//16 14//16 13//16
f 15//17 17//17 16//17
f 18//18 11//18 17//18
f 17//19 11//19 12//19
f 12//20 11//20 7//20
f 12//21 16//21 17//21
f 10//22 19//22 14//22
f 18//23 19//23 10//23
f 20//24 19//24 18//24
f 11//25 18//25 10//25
f 21//26 19//26 20//26
f 22//27 17//27 15//27
f 23//28 22//28 24//28
f 17//29 22//29 23//29
f 18//30 17//30 23//30
f 25//31 20//31 18//31
f 23//32 25//32 18//32
f 20//33 26//33 21//33
f 27//34 26//34 20//34
f 25//35 27//35 20//35
f 28//36 26//36 27//36
f 24//37 29//37 23//37
f 24//38 30//38 29//38
f 25//39 32//39 31//39
f 29//40 32//40 25//40
f 23//41 29//41 25//41
f 31//42 27//42 25//42
f 31//43 33//43 27//43
f 33//44 28//44 27//44
f 34//45 29//45 30//45
f 34//46 32//46 29//46
f 35//47 37//47 36//47
f 38//48 36//48 37//48
f 39//49 37//49 35//49
f 39//50 38//50 37//50
f 40//51 13//51 41//51
f 40//52 12//52 13//52
f 42//53 14//53 43//53
f 13//54 14//54 42//54
f 41//55 13//55 42//55
f 44//56 42//56 43//56
f 45//57 16//57 46//57
f 45//58 15//58 16//58
f 12//59 40//59 16//59
f 40//60 46//60 16//60
f 43//61 14//61 19//61
f 47//62 21//62 48//62
f 47//63 19//63 21//63
f 44//64 19//64 47//64
f 43//65 19//65 44//65
f 49//66 47//66 48//66
f 15//67 50//67 22//67
f 51//68 50//68 15//68
f 45//69 51//69 15//69
f 24//70 22//70 50//70
f 48//71 21//71 26//71
f 52//72 28//72 53//72
f 52//73 26//73 28//73
f 49//74 26//74 52//74
f 48//75 26//75 49//75
f 54//76 52//76 53//76
f 51//77 55//77 50//77
f 51//78 56//78 55//78
f 30//79 24//79 55//79
f 24//80 50//80 55//80
f 57//81 31//81 32//81
f 57//82 58//82 31//82
f 31//83 58//83 59//83
f 31//84 59//84 33//84
f 33//85 53//85 28//85
f 60//86 53//86 33//86
f 59//87 60//87 33//87
f 60//88 54//88 53//88
f 61//89 55//89 56//89
f 61//90 30//90 55//90
f 34//91 30//91 61//91
f 62//92 34//92 61//92
f 34//93 57//93 32//93
f 63//94 57//94 34//94
f 62//95 63//95 34//95
f 63//96 58//96 57//96
f 64//97 66//97 65//97
f 36//98 66//98 35//98
f 65//99 66//99 36//99
f 67//100 65//100 36//100
f 68//101 38//101 69//101
f 36//102 38//102 68//102
f 67//103 36//103 68//103
f 70//104 68//104 69//104
f 71//105 66//105 64//105
f 72//106 73//106 71//106
f 73//107 39//107 71//107
f 71//108 39//108 66//108
f 66//109 39//109 35//109
f 38//110 39//110 69//110
f 69//111 39//111 73//111
f 69//112 73//112 74//112
f 69//113 75//113 70//113
f 69//114 74//114 75//114
f 76//115 73//115 72//115
f 76//116 74//116 73//116
f 76//117 77//117 74//117
f 77//118 75//118 74//118
f 40//119 41//119 78//119
f 79//120 41//120 42//120
f 79//121 78//121 41//121
f 79//122 42//122 44//122
f 45//123 46//123 80//123
f 80//124 46//124 81//124
f 46//125 40//125 81//125
f 81//126 40//126 82//126
f 82//127 40//127 78//127
f 78//128 79//128 82//128
f 79//129 83//129 82//129
f 79//130 44//130 83//130
f 83//131 44//131 47//131
f 83//132 47//132 84//132
f 49//133 84//133 47//133
f 49//134 85//134 84//134
f 86//135 80//135 87//135
f 45//136 80//136 86//136
f 51//137 45//137 86//137
f 80//138 81//138 87//138
f 52//139 88//139 49//139
f 49//140 88//140 89//140
f 49//141 89//141 85//141
f 88//142 52//142 54//142
f 56//143 51//143 86//143
f 56//144 86//144 90//144
f 91//145 59//145 58//145
f 89//146 88//146 92//146
f 92//147 88//147 59//147
f 59//148 88//148 60//148
f 59//149 91//149 92//149
f 88//150 54//150 60//150
f 93//151 56//151 90//151
f 93//152 61//152 56//152
f 94//153 62//153 61//153
f 94//154 61//154 93//154
f 95//155 63//155 62//155
f 95//156 62//156 94//156
f 63//157 91//157 58//157
f 96//158 91//158 63//158
f 95//159 96//159 63//159
f 96//160 92//160 91//160
f 64//161 65//161 97//161
f 65//162 98//162 97//162
f 99//163 98//163 65//163
f 67//164 99//164 65//164
f 67//165 68//165 100//165
f 99//166 67//166 100//166
f 70//167 100//167 68//167
f 70//168 101//168 100//168
f 71//169 64//169 97//169
f 102//170 72//170 103//170
f 72//171 71//171 103//171
f 103//172 71//172 98//172
f 98//173 71//173 97//173
f 104//174 102//174 105//174
f 102//175 103//175 105//175
f 101//176 104//176 105//176
f 75//177 104//177 101//177
f 70//178 75//178 101//178
f 76//179 72//179 102//179
f 102//180 77//180 76//180
f 102//181 104//181 77//181
f 104//182 75//182 77//182
f 81//183 82//183 106//183
f 107//184 82//184 83//184
f 107//185 106//185 82//185
f 108//186 83//186 84//186
f 108//187 107//187 83//187
f 108//188 84//188 85//188
f 86//189 87//189 109//189
f 109//190 87//190 110//190
f 87//191 81//191 110//191
f 110//192 81//192 111//192
f 111//193 81//193 106//193
f 106//194 107//194 111//194
f 107//195 112//195 111//195
f 113//196 112//196 114//196
f 114//197 112//197 107//197
f 114//198 107//198 108//198
f 114//199 85//199 89//199
f 114//200 108//200 85//200
f 115//201 109//201 116//201
f 86//202 109//202 115//202
f 90//203 86//203 115//203
f 109//204 110//204 116//204
f 114//205 117//205 113//205
f 117//206 118//206 113//206
f 117//207 89//207 92//207
f 117//208 114//208 89//208
f 119//209 90//209 115//209
f 119//210 93//210 90//210
f 120//211 94//211 93//211
f 120//212 93//212 119//212
f 121//213 95//213 94//213
f 121//214 94//214 120//214
f 96//215 118//215 117//215
f 121//216 118//216 96//216
f 95//217 121//217 96//217
f 117//218 92//218 96//218
f 98//219 99//219 122//219
f 123//220 99//220 100//220
f 123//221 122//221 99//221
f 123//222 100//222 101//222
f 103//223 98//223 122//223
f 122//224 105//224 103//224
f 122//225 123//225 105//225
f 123//226 101//226 105//226
f 110//227 111//227 124//227
f 125//228 111//228 112//228
f 125//229 124//229 111//229
f 125//230 112//230 113//230
f 115//231 116//231 126//231
f 124//232 116//232 110//232
f 126//233 116//233 124//233
f 127//234 126//234 124//234
f 124//235 125//235 128//235
f 124//236 128//236 127//236
f 128//237 113//237 118//237
f 128//238 125//238 113//238
f 119//239 115//239 126//239
f 126//240 120//240 119//240
f 126//241 127//241 120//241
f 127//242 121//242 120//242
f 127//243 128//243 121//243
f 128//244 118//244 121//244
f 129//245 131//245 130//245
f 132//246 131//246 133//246
f 132//247 130//247 131//247
f 134//248 132//248 133//248
f 129//249 135//249 131//249
f 129//250 136//250 135//250
f 133//251 138//251 137//251
f 135//252 138//252 133//252
f 131//253 135//253 133//253
f 137//254 134//254 133//254
f 139//255 135//255 136//255
f 139//256 138//256 135//256
f 129//257 130//257 140//257
f 141//258 130//258 132//258
f 141//259 140//259 130//259
f 141//260 132//260 134//260
f 136//261 140//261 142//261
f 136//262 129//262 140//262
f 142//263 137//263 138//263
f 141//264 137//264 142//264
f 140//265 141//265 142//265
f 141//266 134//266 137//266
f 139//267 136//267 142//267
f 142//268 138//268 139//268

# Thankyou for using Spin3D

