# Created using Spin3D

# Vertex Array
v 5.734 -36.075 29.445
v 5.735 -36.075 29.446
v 5.735 -36.076 29.445
v 5.736 -36.075 29.445
v 5.735 -36.075 29.444
v 5.735 -36.074 29.445
v 2.689 -26.992 61.101
v 3.004 -26.751 61.382
v 2.925 -27.246 61.234
v 3.437 -26.961 61.121
v 2.994 -26.704 60.293
v 2.347 -25.760 60.482
v 3.265 -25.311 61.350
v 3.980 -26.145 61.324
v 4.646 -26.103 60.099
v 5.230 -25.255 60.865
v 0.494 -23.928 57.220
v 1.185 -23.932 58.924
v 1.856 -25.443 58.388
v 3.840 -25.868 58.247
v 6.207 -25.146 57.985
v 6.763 -24.488 59.513
v 1.070 -24.729 56.581
v 2.590 -25.115 56.453
v 1.433 -24.091 55.277
v 5.144 -24.752 55.963
v 8.403 -23.873 57.602
v 7.781 -24.253 56.216
v 9.365 -23.720 56.221
v 3.239 -24.033 54.744
v 2.061 -22.961 54.185
v 7.139 -23.414 54.633
v 5.070 -23.605 54.265
v 9.133 -23.411 55.346
v 3.892 -22.327 53.579
v 6.101 -17.989 29.027
v 6.189 -17.866 29.017
v 6.154 -17.992 29.003
v 6.337 -17.836 28.904
v 6.313 -17.799 28.871
v 2.583 -23.213 60.320
v 3.713 -23.932 61.358
v 4.491 -24.731 61.416
v 5.972 -23.716 60.644
v 0.299 -22.258 57.523
v 1.137 -22.042 58.760
v 8.159 -23.381 58.722
v 7.563 -22.755 59.455
v 8.842 -22.076 57.788
v 0.437 -23.731 55.870
v 0.105 -22.336 55.995
v 9.778 -23.037 56.478
v 10.063 -23.280 55.755
v 10.219 -22.843 55.793
v 0.788 -22.591 54.796
v 0.534 -20.725 54.805
v 5.863 -22.572 53.630
v 7.137 -22.052 53.771
v 8.656 -22.175 54.660
v 9.897 -22.810 55.371
v 2.008 -21.036 53.756
v 3.796 -20.492 53.190
v 5.681 -20.955 53.343
v 6.129 -17.679 29.000
v 6.201 -17.629 29.008
v 6.126 -17.826 29.007
v 6.398 -17.559 28.947
v 6.535 -17.590 28.840
v 6.733 -17.477 28.635
v 6.881 -17.277 28.620
v 6.389 -17.505 28.807
v 6.841 -17.172 28.484
v 6.749 -17.376 28.547
v 7.045 -17.177 28.374
v 7.105 -17.097 28.408
v 7.059 -17.087 28.334
v 7.201 -16.981 28.284
v 3.750 -22.871 61.014
v 4.762 -23.028 61.050
v 0.684 -20.719 57.701
v 2.283 -20.099 58.550
v 4.164 -21.244 60.055
v 6.330 -21.524 59.918
v 7.921 -21.234 58.966
v 8.251 -20.309 58.008
v 0.246 -20.336 56.214
v 0.978 -19.345 57.027
v 9.534 -21.937 55.880
v 8.542 -20.221 56.596
v 0.567 -19.189 54.975
v 7.441 -20.907 53.921
v 8.261 -20.411 54.974
v 1.397 -19.158 54.104
v 3.008 -19.107 53.505
v 4.673 -19.359 53.348
v 6.390 -19.218 54.083
v 6.196 -17.565 28.966
v 6.420 -17.349 28.856
v 6.535 -17.298 28.862
v 6.728 -17.276 28.761
v 7.036 -17.026 28.526
v 7.087 -16.958 28.360
v 6.760 -17.111 28.601
v 7.189 -16.917 28.351
v 7.006 -16.938 28.504
v 3.975 -19.433 58.940
v 5.611 -19.298 58.754
v 7.285 -20.037 58.776
v 0.936 -18.501 55.753
v 2.116 -18.100 56.722
v 3.970 -18.062 57.634
v 5.655 -17.773 57.345
v 6.087 -17.462 56.131
v 7.186 -18.832 57.377
v 1.244 -18.146 54.703
v 2.092 -17.429 55.261
v 7.296 -18.707 55.588
v 5.909 -17.706 54.894
v 2.437 -17.824 54.210
v 4.370 -17.870 54.091
v 6.724 -17.083 28.709
v 6.845 -17.054 28.675
v 3.462 -17.044 55.996
v 4.837 -17.049 56.481
v 3.356 -17.046 54.824
v 4.720 -16.962 55.297
v 4.136 -8.194 45.132
v 4.132 -8.194 45.127
v 4.134 -8.193 45.129
v 4.132 -8.192 45.125
v 4.133 -8.193 45.126
v 4.131 -8.193 45.123
v 4.136 -8.194 45.131
v 4.139 -8.195 45.132
v 4.135 -8.194 45.127
v 4.137 -8.193 45.129
v 4.140 -8.194 45.132
v 4.135 -8.195 45.129
v 4.132 -8.194 45.127
v 4.138 -8.194 45.130

# Normal Array
vn -0.590 -0.655 0.472
vn 0.584 -0.663 0.469
vn -0.588 -0.464 -0.662
vn 0.585 -0.477 -0.656
vn -0.586 0.476 0.655
vn 0.590 0.464 0.661
vn -0.585 0.662 -0.469
vn 0.591 0.654 -0.471
vn -0.596 -0.140 0.791
vn 0.371 -0.320 0.872
vn -0.524 -0.721 -0.453
vn 0.358 -0.820 -0.446
vn -0.716 0.144 0.683
vn -0.717 0.144 0.682
vn 0.726 -0.577 0.375
vn 0.311 -0.420 0.852
vn 0.051 0.013 0.999
vn 0.625 -0.714 0.315
vn -0.814 -0.478 0.329
vn -0.218 -0.869 -0.445
vn -0.811 -0.576 0.103
vn -0.777 -0.442 -0.449
vn -0.885 -0.443 0.141
vn 0.268 -0.870 -0.413
vn 0.305 -0.919 -0.249
vn 0.260 -0.937 -0.232
vn 0.630 -0.713 0.309
vn 0.622 -0.776 0.108
vn -0.774 -0.627 0.089
vn -0.254 -0.839 -0.481
vn -0.258 -0.932 -0.256
vn -0.220 -0.945 -0.243
vn 0.246 -0.919 -0.309
vn 0.050 -0.908 -0.416
vn 0.516 -0.839 0.173
vn 0.503 -0.864 0.012
vn 0.204 -0.935 -0.290
vn 0.317 -0.941 0.117
vn -0.141 -0.811 -0.567
vn -0.204 -0.619 -0.758
vn 0.174 -0.813 -0.556
vn 0.047 -0.827 -0.560
vn 0.019 -0.848 -0.530
vn 0.206 -0.827 -0.522
vn 0.187 -0.835 -0.518
vn 0.295 -0.873 -0.387
vn -0.091 -0.537 -0.838
vn -0.094 -0.536 -0.839
vn 0.386 -0.210 0.898
vn 0.619 -0.258 0.742
vn -0.403 -0.268 -0.875
vn 0.103 -0.620 -0.778
vn -0.596 0.189 0.780
vn -0.711 0.110 0.695
vn -0.028 -0.055 0.998
vn -0.060 0.014 0.998
vn 0.474 -0.227 0.851
vn 0.529 -0.135 0.838
vn -0.830 0.027 0.557
vn -0.913 -0.173 0.370
vn -0.730 0.111 0.674
vn -0.717 0.042 0.696
vn 0.626 -0.264 0.734
vn 0.679 -0.291 0.674
vn 0.707 -0.246 0.663
vn 0.787 0.029 0.616
vn -0.828 -0.558 -0.047
vn -0.973 -0.232 0.007
vn -0.982 -0.138 0.132
vn -0.539 -0.688 -0.486
vn 0.698 -0.587 0.410
vn 0.672 -0.580 0.460
vn 0.697 -0.580 0.421
vn 0.698 -0.241 0.675
vn 0.915 -0.256 0.311
vn 0.832 -0.335 0.441
vn -0.872 -0.166 -0.461
vn -0.874 -0.116 -0.473
vn -0.489 -0.450 -0.747
vn -0.571 -0.463 -0.678
vn 0.193 -0.617 -0.763
vn 0.297 -0.510 -0.807
vn 0.412 -0.487 -0.770
vn 0.314 -0.365 -0.876
vn 0.293 -0.874 -0.387
vn 0.408 -0.487 -0.772
vn 0.315 -0.365 -0.876
vn 0.767 -0.221 -0.602
vn -0.589 -0.076 -0.805
vn -0.471 -0.204 -0.858
vn -0.238 -0.217 -0.947
vn -0.235 -0.213 -0.948
vn -0.040 -0.500 -0.865
vn 0.004 -0.174 -0.985
vn 0.029 -0.206 -0.978
vn 0.170 -0.154 -0.973
vn -0.155 0.050 0.987
vn -0.085 0.135 0.987
vn -0.142 0.045 0.989
vn 0.293 0.021 0.956
vn 0.748 -0.481 0.457
vn 0.617 -0.306 0.725
vn 0.573 -0.208 0.793
vn 0.740 -0.517 0.430
vn -0.585 -0.024 -0.811
vn -0.587 0.012 -0.809
vn -0.578 -0.028 -0.816
vn -0.584 -0.026 -0.812
vn -0.585 -0.011 -0.811
vn 0.058 -0.639 -0.767
vn 0.087 -0.661 -0.745
vn -0.003 -0.655 -0.756
vn 0.765 -0.542 0.347
vn 0.754 -0.633 0.176
vn -0.563 -0.004 -0.826
vn -0.294 -0.341 -0.893
vn -0.039 -0.393 -0.919
vn 0.793 -0.607 0.048
vn -0.550 0.275 0.789
vn 0.122 0.190 0.974
vn 0.013 0.308 0.951
vn 0.384 0.135 0.913
vn -0.831 0.145 0.537
vn -0.547 0.401 0.735
vn -0.514 0.386 0.766
vn -0.393 0.425 0.815
vn -0.543 0.525 0.655
vn 0.046 0.499 0.866
vn 0.120 0.514 0.849
vn 0.422 0.222 0.879
vn 0.509 0.194 0.838
vn 0.485 0.162 0.859
vn 0.791 0.010 0.611
vn 0.838 0.218 0.500
vn -0.868 0.356 0.347
vn -0.926 0.194 0.323
vn -0.991 0.056 0.123
vn -0.549 0.460 0.698
vn 0.862 0.376 0.340
vn 0.869 0.359 0.341
vn 0.935 0.286 0.211
vn 0.681 0.460 0.569
vn -0.970 0.093 -0.224
vn -0.976 0.044 -0.212
vn 0.504 -0.020 -0.863
vn 0.808 0.552 -0.205
vn 0.754 0.275 -0.596
vn 0.608 0.573 -0.549
vn 0.692 0.274 -0.668
vn 0.680 0.559 -0.475
vn -0.722 0.091 -0.686
vn -0.585 -0.040 -0.810
vn -0.312 0.038 -0.949
vn -0.350 0.059 -0.935
vn 0.096 0.064 -0.993
vn -0.064 0.186 -0.980
vn 0.311 0.042 -0.950
vn 0.294 0.271 -0.917
vn 0.366 0.234 -0.901
vn 0.598 0.437 -0.672
vn -0.424 0.476 0.771
vn -0.114 0.543 0.832
vn -0.325 0.636 0.700
vn 0.234 0.185 0.954
vn 0.585 -0.161 0.795
vn 0.459 0.045 0.887
vn 0.659 -0.226 0.717
vn 0.670 -0.142 0.728
vn -0.656 0.163 -0.737
vn -0.658 0.379 -0.651
vn -0.695 0.318 -0.645
vn -0.704 0.337 -0.625
vn -0.658 0.342 -0.671
vn -0.373 0.868 -0.329
vn -0.626 0.645 -0.439
vn 0.572 0.374 0.730
vn 0.796 -0.190 0.575
vn 0.765 -0.251 0.593
vn -0.614 0.277 -0.739
vn -0.498 0.269 -0.824
vn -0.322 0.659 -0.680
vn 0.868 -0.277 0.411
vn -0.367 0.460 0.809
vn 0.118 0.490 0.864
vn 0.053 0.527 0.848
vn 0.430 0.360 0.828
vn 0.212 0.506 0.836
vn 0.632 0.437 0.640
vn -0.868 0.400 0.294
vn -0.598 0.659 0.456
vn -0.454 0.581 0.676
vn -0.359 0.614 0.703
vn -0.401 0.631 0.664
vn 0.026 0.690 0.724
vn 0.010 0.678 0.735
vn 0.520 0.764 0.381
vn 0.409 0.613 0.676
vn 0.314 0.730 0.607
vn 0.754 0.627 0.195
vn 0.582 0.636 0.507
vn -0.845 0.531 -0.068
vn -0.921 0.373 0.107
vn -0.549 0.756 0.356
vn -0.666 0.744 0.056
vn 0.734 0.673 0.092
vn 0.643 0.728 -0.236
vn 0.818 0.537 -0.205
vn 0.738 0.669 0.092
vn -0.699 0.283 -0.657
vn -0.398 0.808 -0.435
vn -0.440 0.407 -0.800
vn -0.338 0.334 -0.880
vn -0.017 0.444 -0.896
vn -0.044 0.467 -0.883
vn 0.650 0.509 -0.564
vn 0.348 0.527 -0.775
vn 0.313 0.474 -0.823
vn 0.618 0.552 -0.560
vn -0.360 0.731 0.580
vn 0.452 0.105 0.886
vn 0.123 0.501 0.856
vn 0.616 -0.019 0.788
vn -0.706 0.594 -0.387
vn -0.627 0.678 -0.383
vn -0.053 0.848 0.528
vn 0.537 0.369 0.759
vn -0.296 0.768 0.569
vn -0.018 0.758 0.652
vn -0.195 0.805 0.561
vn 0.381 0.854 0.355
vn -0.282 0.959 0.024
vn -0.434 0.816 0.382
vn -0.023 0.997 0.075
vn -0.062 0.998 0.004
vn 0.457 0.858 -0.235
vn 0.323 0.946 0.037
vn -0.395 0.809 -0.435
vn -0.032 0.642 -0.766
vn 0.170 0.763 -0.624
vn 0.249 0.738 -0.627
vn -0.513 0.634 0.579
vn 0.239 0.970 -0.042
vn -0.456 0.819 0.348
vn 0.524 0.730 -0.438
vn 0.039 0.924 0.380
vn 0.229 0.856 0.463
vn 0.648 0.332 -0.685
vn 0.066 0.983 0.173
vn 0.504 0.856 -0.115
vn 0.679 0.524 -0.514
vn -0.223 0.067 0.973
vn 0.019 0.985 0.170
vn -0.478 -0.791 0.382
vn -0.347 -0.862 -0.369
vn -0.243 -0.954 -0.175
vn -0.955 -0.234 0.182
vn 0.209 -0.893 -0.399
vn -0.222 -0.925 0.310
vn 0.730 -0.151 -0.667
vn -0.017 -0.977 -0.215
vn 0.269 -0.726 -0.633
vn -0.015 -0.985 -0.170
vn 0.548 -0.564 -0.619
vn 0.588 -0.359 -0.725

# Facets
f 1//1 3//1 2//1
f 4//2 2//2 3//2
f 5//3 3//3 1//3
f 5//4 4//4 3//4
f 1//5 2//5 6//5
f 6//6 2//6 4//6
f 5//7 1//7 6//7
f 6//8 4//8 5//8
f 7//9 9//9 8//9
f 10//10 8//10 9//10
f 11//11 9//11 7//11
f 11//12 10//12 9//12
f 12//13 8//13 13//13
f 12//14 7//14 8//14
f 14//15 10//15 15//15
f 8//16 10//16 14//16
f 13//17 8//17 14//17
f 16//18 14//18 15//18
f 17//19 19//19 18//19
f 20//20 11//20 19//20
f 19//21 11//21 12//21
f 12//22 11//22 7//22
f 12//23 18//23 19//23
f 10//24 11//24 15//24
f 15//25 11//25 20//25
f 15//26 20//26 21//26
f 15//27 22//27 16//27
f 15//28 21//28 22//28
f 23//29 19//29 17//29
f 24//30 23//30 25//30
f 19//31 23//31 24//31
f 20//32 19//32 24//32
f 26//33 21//33 20//33
f 24//34 26//34 20//34
f 21//35 27//35 22//35
f 28//36 27//36 21//36
f 26//37 28//37 21//37
f 29//38 27//38 28//38
f 25//39 30//39 24//39
f 25//40 31//40 30//40
f 26//41 33//41 32//41
f 30//42 33//42 26//42
f 24//43 30//43 26//43
f 32//44 28//44 26//44
f 32//45 34//45 28//45
f 34//46 29//46 28//46
f 35//47 30//47 31//47
f 35//48 33//48 30//48
f 36//49 38//49 37//49
f 39//50 37//50 38//50
f 40//51 38//51 36//51
f 40//52 39//52 38//52
f 41//53 13//53 42//53
f 41//54 12//54 13//54
f 13//55 14//55 43//55
f 42//56 13//56 43//56
f 16//57 43//57 14//57
f 16//58 44//58 43//58
f 45//59 18//59 46//59
f 45//60 17//60 18//60
f 12//61 41//61 18//61
f 41//62 46//62 18//62
f 47//63 48//63 22//63
f 22//64 48//64 44//64
f 22//65 44//65 16//65
f 49//66 48//66 47//66
f 17//67 50//67 23//67
f 51//68 50//68 17//68
f 45//69 51//69 17//69
f 25//70 23//70 50//70
f 47//71 22//71 27//71
f 52//72 29//72 53//72
f 52//73 27//73 29//73
f 49//74 27//74 52//74
f 47//75 27//75 49//75
f 54//76 52//76 53//76
f 51//77 55//77 50//77
f 51//78 56//78 55//78
f 31//79 25//79 55//79
f 25//80 50//80 55//80
f 57//81 32//81 33//81
f 57//82 58//82 32//82
f 32//83 58//83 59//83
f 32//84 59//84 34//84
f 34//85 53//85 29//85
f 60//86 53//86 34//86
f 59//87 60//87 34//87
f 60//88 54//88 53//88
f 61//89 55//89 56//89
f 61//90 31//90 55//90
f 35//91 31//91 61//91
f 62//92 35//92 61//92
f 35//93 57//93 33//93
f 63//94 57//94 35//94
f 62//95 63//95 35//95
f 63//96 58//96 57//96
f 64//97 66//97 65//97
f 37//98 66//98 36//98
f 65//99 66//99 37//99
f 67//100 65//100 37//100
f 68//101 39//101 69//101
f 37//102 39//102 68//102
f 67//103 37//103 68//103
f 70//104 68//104 69//104
f 71//105 66//105 64//105
f 72//106 73//106 71//106
f 73//107 40//107 71//107
f 71//108 40//108 66//108
f 66//109 40//109 36//109
f 39//110 40//110 69//110
f 69//111 40//111 73//111
f 69//112 73//112 74//112
f 69//113 75//113 70//113
f 69//114 74//114 75//114
f 76//115 73//115 72//115
f 76//116 74//116 73//116
f 76//117 77//117 74//117
f 77//118 75//118 74//118
f 41//119 42//119 78//119
f 79//120 42//120 43//120
f 79//121 78//121 42//121
f 79//122 43//122 44//122
f 45//123 46//123 80//123
f 80//124 46//124 81//124
f 46//125 41//125 81//125
f 81//126 41//126 82//126
f 82//127 41//127 78//127
f 78//128 79//128 82//128
f 79//129 83//129 82//129
f 79//130 44//130 83//130
f 83//131 44//131 48//131
f 83//132 48//132 84//132
f 49//133 84//133 48//133
f 49//134 85//134 84//134
f 86//135 80//135 87//135
f 45//136 80//136 86//136
f 51//137 45//137 86//137
f 80//138 81//138 87//138
f 52//139 88//139 49//139
f 49//140 88//140 89//140
f 49//141 89//141 85//141
f 88//142 52//142 54//142
f 56//143 51//143 86//143
f 56//144 86//144 90//144
f 91//145 59//145 58//145
f 89//146 88//146 92//146
f 92//147 88//147 59//147
f 59//148 88//148 60//148
f 59//149 91//149 92//149
f 88//150 54//150 60//150
f 93//151 56//151 90//151
f 93//152 61//152 56//152
f 94//153 62//153 61//153
f 94//154 61//154 93//154
f 95//155 63//155 62//155
f 95//156 62//156 94//156
f 63//157 91//157 58//157
f 96//158 91//158 63//158
f 95//159 96//159 63//159
f 96//160 92//160 91//160
f 64//161 65//161 97//161
f 65//162 98//162 97//162
f 99//163 98//163 65//163
f 67//164 99//164 65//164
f 67//165 68//165 100//165
f 99//166 67//166 100//166
f 70//167 100//167 68//167
f 70//168 101//168 100//168
f 71//169 64//169 97//169
f 102//170 72//170 103//170
f 72//171 71//171 103//171
f 103//172 71//172 98//172
f 98//173 71//173 97//173
f 104//174 102//174 105//174
f 102//175 103//175 105//175
f 101//176 104//176 105//176
f 75//177 104//177 101//177
f 70//178 75//178 101//178
f 76//179 72//179 102//179
f 102//180 77//180 76//180
f 102//181 104//181 77//181
f 104//182 75//182 77//182
f 81//183 82//183 106//183
f 107//184 82//184 83//184
f 107//185 106//185 82//185
f 108//186 83//186 84//186
f 108//187 107//187 83//187
f 108//188 84//188 85//188
f 86//189 87//189 109//189
f 109//190 87//190 110//190
f 87//191 81//191 110//191
f 110//192 81//192 111//192
f 111//193 81//193 106//193
f 106//194 107//194 111//194
f 107//195 112//195 111//195
f 113//196 112//196 114//196
f 114//197 112//197 107//197
f 114//198 107//198 108//198
f 114//199 85//199 89//199
f 114//200 108//200 85//200
f 90//201 109//201 115//201
f 90//202 86//202 109//202
f 110//203 116//203 109//203
f 116//204 115//204 109//204
f 114//205 117//205 113//205
f 117//206 118//206 113//206
f 117//207 89//207 92//207
f 117//208 114//208 89//208
f 93//209 90//209 115//209
f 119//210 115//210 116//210
f 93//211 115//211 119//211
f 94//212 93//212 119//212
f 120//213 95//213 94//213
f 120//214 94//214 119//214
f 96//215 118//215 117//215
f 120//216 118//216 96//216
f 95//217 120//217 96//217
f 117//218 92//218 96//218
f 98//219 99//219 121//219
f 122//220 99//220 100//220
f 122//221 121//221 99//221
f 122//222 100//222 101//222
f 103//223 98//223 121//223
f 121//224 105//224 103//224
f 121//225 122//225 105//225
f 122//226 101//226 105//226
f 110//227 111//227 123//227
f 124//228 111//228 112//228
f 124//229 123//229 111//229
f 124//230 112//230 113//230
f 116//231 123//231 125//231
f 116//232 110//232 123//232
f 123//233 124//233 126//233
f 123//234 126//234 125//234
f 126//235 113//235 118//235
f 126//236 124//236 113//236
f 119//237 116//237 125//237
f 125//238 120//238 119//238
f 125//239 126//239 120//239
f 126//240 118//240 120//240
f 127//241 129//241 128//241
f 130//242 129//242 131//242
f 130//243 128//243 129//243
f 132//244 130//244 131//244
f 127//245 133//245 129//245
f 127//246 134//246 133//246
f 131//247 136//247 135//247
f 133//248 136//248 131//248
f 129//249 133//249 131//249
f 135//250 132//250 131//250
f 137//251 133//251 134//251
f 137//252 136//252 133//252
f 127//253 128//253 138//253
f 139//254 128//254 130//254
f 139//255 138//255 128//255
f 139//256 130//256 132//256
f 134//257 138//257 140//257
f 134//258 127//258 138//258
f 140//259 135//259 136//259
f 139//260 135//260 140//260
f 138//261 139//261 140//261
f 139//262 132//262 135//262
f 137//263 134//263 140//263
f 140//264 136//264 137//264

# Thankyou for using Spin3D

