# Created using Spin3D

# Vertex Array
v 6.814 -35.045 29.623
v 6.813 -35.042 29.622
v 6.810 -35.040 29.623
v 6.811 -35.040 29.623
v 6.810 -35.037 29.625
v 6.810 -35.036 29.624
v 6.813 -35.042 29.624
v 6.812 -35.039 29.624
v 6.818 -35.045 29.622
v 6.816 -35.043 29.622
v 6.815 -35.042 29.624
v 6.813 -35.040 29.623
v 6.815 -35.044 29.623
v 6.819 -35.045 29.623
v 2.037 -27.064 60.809
v 2.268 -26.791 60.950
v 2.322 -27.129 60.857
v 3.192 -26.311 60.504
v 2.352 -26.722 60.116
v 1.847 -25.986 60.267
v 2.653 -25.575 60.926
v 3.981 -24.820 60.815
v 0.555 -24.239 57.288
v 0.962 -24.239 58.804
v 1.743 -25.638 58.409
v 3.852 -25.874 58.578
v 5.501 -24.906 59.537
v 6.553 -24.959 57.778
v 7.477 -24.353 58.521
v 1.289 -24.670 56.278
v 0.222 -23.016 55.638
v 2.834 -25.392 56.849
v 5.179 -24.869 56.141
v 8.608 -23.967 57.345
v 7.911 -24.327 56.215
v 9.463 -23.842 56.204
v 1.109 -23.702 54.862
v 2.836 -24.232 54.977
v 1.824 -22.921 53.962
v 7.147 -23.562 54.744
v 4.945 -23.772 54.402
v 9.191 -23.544 55.419
v 3.706 -22.377 53.510
v 6.316 -17.924 28.327
v 6.377 -17.791 28.539
v 6.593 -18.111 28.177
v 6.772 -18.013 28.243
v 6.657 -18.182 27.999
v 6.602 -18.058 28.015
v 6.893 -18.160 27.993
v 6.889 -18.115 27.889
v 2.199 -23.594 60.167
v 3.136 -24.334 61.073
v 3.975 -23.545 60.919
v 0.101 -22.380 57.123
v 0.895 -22.304 58.613
v 5.551 -23.085 60.138
v 7.368 -23.438 59.053
v 8.321 -23.646 58.267
v 8.741 -22.400 57.679
v -0.178 -21.574 55.724
v 2.809 -22.160 56.072
v 2.808 -22.158 56.072
v 2.809 -22.159 56.073
v 2.811 -22.158 56.072
v 9.821 -23.211 56.453
v 10.115 -23.423 55.809
v 10.247 -23.005 55.850
v 0.753 -22.429 54.266
v 0.289 -20.816 54.480
v 2.809 -22.158 56.071
v 5.791 -22.702 53.685
v 7.120 -22.175 53.822
v 8.669 -22.320 54.732
v 9.927 -22.964 55.452
v 1.788 -20.885 53.344
v 3.605 -20.225 52.846
v 5.598 -20.931 53.223
v 5.812 -17.465 28.899
v 6.029 -17.430 28.887
v 5.987 -17.634 28.726
v 6.458 -17.474 28.758
v 6.795 -17.705 28.479
v 7.052 -17.917 28.162
v 7.062 -17.599 28.387
v 6.006 -17.525 28.710
v 6.437 -17.748 28.276
v 7.099 -18.014 27.952
v 7.165 -17.711 28.155
v 6.773 -17.914 27.994
v 7.040 -17.836 27.994
v 3.265 -23.371 60.881
v 0.487 -20.747 57.546
v 2.032 -20.272 58.530
v 4.013 -21.703 60.029
v 5.995 -21.111 59.607
v 7.335 -21.740 59.087
v 7.984 -20.594 58.029
v 0.103 -19.806 55.835
v 0.754 -19.191 57.025
v 2.809 -22.157 56.072
v 9.520 -22.126 55.909
v 8.432 -20.414 56.584
v 0.452 -18.751 54.197
v 7.424 -20.975 53.896
v 8.228 -20.510 54.949
v 1.083 -19.042 53.386
v 2.615 -18.082 52.742
v 4.520 -18.956 52.898
v 6.314 -19.069 53.822
v 5.838 -17.380 28.934
v 6.091 -17.282 28.878
v 6.397 -17.233 28.870
v 6.790 -17.368 28.666
v 7.017 -17.377 28.462
v 6.773 -17.589 28.227
v 6.384 -17.373 28.593
v 7.045 -17.519 28.238
v 6.775 -17.283 28.521
v 3.755 -19.657 58.944
v 5.368 -19.401 58.715
v 6.959 -20.178 58.761
v 0.704 -18.048 55.966
v 1.741 -17.889 56.753
v 3.654 -18.032 57.562
v 5.398 -17.772 57.256
v 5.834 -17.321 55.890
v 6.980 -18.946 57.343
v 0.764 -17.573 54.707
v 1.421 -16.923 55.385
v 7.178 -18.709 55.457
v 5.717 -17.409 54.480
v 1.409 -17.164 53.295
v 2.073 -15.911 52.903
v 2.175 -16.339 52.543
v 2.829 -16.316 52.594
v 4.213 -17.147 53.257
v 2.432 -15.749 52.552
v 6.455 -17.170 28.784
v 6.722 -17.184 28.720
v 2.856 -16.487 55.534
v 4.464 -16.813 56.206
v 1.933 -16.182 54.056
v 2.944 -15.814 54.242
v 4.198 -16.316 54.598
v 2.915 -15.839 53.249
v 4.136 -8.194 45.132
v 4.132 -8.194 45.127
v 4.134 -8.193 45.129
v 4.132 -8.192 45.125
v 4.133 -8.193 45.126
v 4.131 -8.193 45.123
v 4.136 -8.194 45.131
v 4.139 -8.195 45.132
v 4.135 -8.194 45.127
v 4.137 -8.193 45.129
v 4.140 -8.194 45.132
v 4.135 -8.195 45.129
v 4.132 -8.194 45.127
v 4.138 -8.194 45.130

# Normal Array
vn -0.485 -0.406 -0.774
vn -0.284 0.384 -0.879
vn -0.209 0.206 -0.956
vn -0.955 -0.169 -0.246
vn -0.527 -0.574 0.628
vn -0.474 -0.347 0.810
vn 0.280 0.071 0.957
vn 0.528 0.418 0.739
vn 0.204 0.371 -0.906
vn -0.228 -0.338 -0.913
vn 0.751 0.658 -0.048
vn -0.016 0.200 -0.980
vn 0.258 0.620 -0.741
vn -0.014 0.174 -0.985
vn 0.210 -0.497 0.842
vn -0.006 -0.389 0.921
vn 0.649 0.658 0.382
vn 0.038 -0.167 0.985
vn 0.507 0.128 0.852
vn 0.668 0.489 0.561
vn 0.570 0.597 -0.565
vn 0.621 0.737 -0.268
vn -0.224 -0.973 0.060
vn 0.013 -0.166 0.986
vn -0.224 -0.291 0.930
vn 0.493 -0.155 0.856
vn -0.118 -0.868 -0.482
vn 0.543 -0.745 -0.388
vn -0.684 0.230 0.693
vn -0.688 0.226 0.690
vn 0.488 -0.138 0.862
vn 0.263 -0.329 0.907
vn -0.824 -0.522 0.220
vn -0.053 -0.852 -0.522
vn -0.829 -0.556 -0.057
vn -0.744 -0.400 -0.536
vn -0.877 -0.479 -0.040
vn 0.562 -0.443 0.698
vn 0.514 -0.857 -0.018
vn 0.377 -0.891 0.252
vn 0.456 -0.889 -0.045
vn 0.379 -0.890 0.254
vn -0.673 -0.717 -0.182
vn -0.750 -0.595 -0.290
vn -0.091 -0.972 -0.217
vn -0.290 -0.893 -0.344
vn 0.242 -0.936 -0.254
vn 0.111 -0.939 -0.327
vn 0.455 -0.878 0.149
vn 0.437 -0.899 0.017
vn 0.196 -0.956 -0.217
vn 0.297 -0.947 0.119
vn -0.738 -0.597 -0.315
vn -0.160 -0.679 -0.717
vn -0.215 -0.819 -0.533
vn -0.198 -0.833 -0.517
vn 0.163 -0.824 -0.542
vn 0.037 -0.843 -0.537
vn 0.031 -0.849 -0.527
vn 0.179 -0.832 -0.526
vn 0.181 -0.831 -0.527
vn 0.268 -0.866 -0.422
vn -0.010 -0.617 -0.787
vn -0.090 -0.592 -0.801
vn -0.231 -0.794 0.562
vn 0.128 -0.705 0.697
vn -0.490 -0.856 0.163
vn -0.765 -0.265 -0.588
vn 0.221 -0.790 0.571
vn 0.095 -0.912 0.399
vn -0.412 -0.068 -0.909
vn 0.076 -0.915 -0.397
vn -0.623 0.152 0.768
vn -0.666 0.129 0.734
vn 0.187 -0.187 0.964
vn 0.250 -0.077 0.965
vn -0.883 0.016 0.470
vn -0.945 -0.209 0.253
vn -0.765 0.139 0.629
vn -0.749 0.039 0.661
vn 0.459 -0.070 0.886
vn 0.612 -0.263 0.745
vn 0.540 -0.374 0.754
vn 0.505 -0.388 0.771
vn 0.448 -0.292 0.845
vn 0.648 0.135 0.750
vn -0.972 -0.236 0.021
vn -0.962 -0.270 0.037
vn -0.576 -0.646 0.501
vn 0.535 -0.672 0.512
vn 0.654 -0.628 0.422
vn 0.661 -0.569 0.489
vn 0.687 -0.569 0.452
vn 0.661 -0.210 0.721
vn 0.927 -0.152 0.342
vn 0.824 -0.306 0.477
vn -0.760 -0.438 -0.481
vn -0.883 -0.198 -0.426
vn -0.865 -0.213 -0.455
vn -0.603 -0.480 -0.637
vn -0.436 -0.479 -0.762
vn 0.177 -0.641 -0.747
vn 0.575 -0.504 -0.644
vn 0.291 -0.526 -0.799
vn 0.403 -0.501 -0.766
vn 0.295 -0.370 -0.881
vn 0.292 -0.856 -0.426
vn 0.396 -0.458 -0.796
vn 0.320 -0.357 -0.878
vn 0.758 -0.178 -0.628
vn -0.605 -0.069 -0.793
vn -0.378 -0.275 -0.884
vn -0.143 -0.290 -0.946
vn -0.150 -0.298 -0.943
vn -0.015 -0.548 -0.836
vn 0.043 -0.248 -0.968
vn 0.077 -0.291 -0.954
vn 0.189 -0.229 -0.955
vn 0.145 -0.632 0.761
vn -0.077 -0.836 0.544
vn 0.113 -0.631 0.768
vn 0.179 -0.588 0.789
vn 0.405 -0.575 0.711
vn 0.234 -0.602 0.763
vn 0.233 -0.590 0.773
vn 0.458 -0.523 0.719
vn -0.697 0.012 -0.717
vn -0.760 0.033 -0.649
vn -0.633 0.220 -0.742
vn -0.659 0.247 -0.710
vn 0.575 -0.686 0.447
vn 0.411 -0.685 0.601
vn 0.750 -0.398 0.528
vn 0.813 -0.437 0.386
vn -0.451 0.422 -0.786
vn -0.339 0.273 -0.900
vn 0.491 -0.793 -0.361
vn 0.153 0.273 -0.950
vn -0.118 0.404 -0.907
vn 0.576 0.364 -0.732
vn -0.575 0.233 0.785
vn -0.004 0.196 0.981
vn -0.881 0.088 0.465
vn -0.577 0.353 0.736
vn -0.559 0.344 0.755
vn -0.352 0.399 0.847
vn -0.539 0.562 0.627
vn 0.059 0.433 0.899
vn 0.306 0.409 0.860
vn 0.137 0.228 0.964
vn 0.512 -0.007 0.859
vn 0.417 0.147 0.897
vn 0.707 -0.000 0.707
vn 0.737 0.183 0.651
vn -0.897 0.271 0.350
vn -0.945 0.147 0.293
vn -0.954 0.135 0.268
vn -0.553 0.480 0.681
vn -0.577 0.347 0.739
vn 0.585 0.455 0.671
vn 0.799 0.432 0.418
vn 0.831 0.362 0.422
vn 0.895 0.314 0.316
vn 0.631 0.481 0.609
vn -0.952 0.168 -0.255
vn -0.983 0.054 -0.175
vn -0.547 0.683 -0.484
vn 0.594 0.652 -0.470
vn 0.500 -0.073 -0.863
vn 0.811 0.569 -0.134
vn 0.763 0.257 -0.594
vn 0.607 0.587 -0.535
vn 0.712 0.252 -0.655
vn 0.663 0.580 -0.473
vn -0.792 -0.021 -0.610
vn -0.597 -0.210 -0.774
vn -0.212 -0.145 -0.966
vn -0.329 -0.104 -0.938
vn 0.160 -0.075 -0.984
vn 0.075 -0.014 -0.997
vn 0.345 -0.029 -0.938
vn 0.345 0.165 -0.924
vn 0.461 0.107 -0.881
vn 0.659 0.358 -0.661
vn 0.116 -0.401 0.909
vn 0.228 -0.032 0.973
vn 0.016 0.059 0.998
vn 0.236 -0.361 0.902
vn 0.368 -0.445 0.816
vn 0.347 -0.323 0.881
vn 0.444 -0.428 0.787
vn 0.660 -0.119 0.742
vn -0.549 0.452 -0.703
vn -0.374 0.567 -0.734
vn -0.440 0.543 -0.716
vn -0.447 0.610 -0.654
vn -0.390 0.613 -0.688
vn -0.148 0.685 -0.713
vn -0.280 0.666 -0.692
vn 0.202 0.838 -0.506
vn 0.753 0.594 -0.283
vn 0.921 0.054 0.385
vn -0.366 0.543 -0.756
vn -0.168 0.575 -0.801
vn -0.124 0.607 -0.785
vn 0.386 0.559 -0.734
vn -0.348 0.405 0.846
vn 0.045 0.475 0.879
vn 0.050 0.473 0.880
vn 0.461 0.286 0.840
vn 0.228 0.515 0.826
vn 0.632 0.301 0.714
vn -0.896 0.280 0.345
vn -0.556 0.552 0.622
vn -0.452 0.497 0.741
vn -0.291 0.549 0.784
vn -0.381 0.585 0.716
vn 0.005 0.648 0.762
vn 0.031 0.666 0.745
vn 0.528 0.742 0.413
vn 0.411 0.604 0.683
vn 0.329 0.710 0.622
vn 0.751 0.585 0.305
vn 0.613 0.592 0.523
vn -0.782 0.595 0.187
vn -0.945 0.317 0.075
vn -0.963 0.269 -0.032
vn -0.528 0.630 0.569
vn 0.734 0.660 0.160
vn 0.699 0.708 -0.102
vn 0.839 0.527 -0.135
vn 0.742 0.651 0.160
vn -0.883 0.363 -0.298
vn -0.766 0.102 -0.634
vn -0.804 0.258 -0.536
vn -0.545 -0.230 -0.807
vn -0.401 0.025 -0.916
vn 0.081 -0.093 -0.992
vn 0.368 -0.122 -0.922
vn 0.180 0.221 -0.959
vn 0.739 0.461 -0.492
vn 0.605 0.472 -0.642
vn 0.456 0.247 -0.855
vn 0.690 0.539 -0.483
vn -0.731 0.328 -0.598
vn 0.079 -0.019 -0.997
vn -0.119 0.834 0.538
vn 0.430 -0.106 0.897
vn 0.198 0.718 0.667
vn 0.668 0.027 0.744
vn -0.373 0.702 -0.607
vn -0.282 0.708 -0.647
vn -0.065 0.886 -0.460
vn 0.254 0.890 -0.378
vn -0.218 0.733 0.644
vn 0.007 0.742 0.671
vn -0.107 0.770 0.629
vn 0.398 0.826 0.400
vn -0.743 0.664 0.083
vn -0.289 0.748 0.597
vn -0.305 0.877 0.371
vn -0.378 0.832 0.407
vn 0.076 0.956 0.282
vn 0.214 0.861 0.462
vn 0.576 0.812 -0.099
vn 0.383 0.899 0.214
vn -0.794 0.576 -0.196
vn -0.883 0.469 0.004
vn -0.167 0.964 0.207
vn -0.340 0.940 -0.014
vn 0.609 0.601 -0.518
vn 0.654 0.647 -0.393
vn 0.380 0.924 -0.034
vn 0.497 0.740 -0.452
vn -0.184 0.951 0.250
vn 0.746 0.488 -0.453
vn -0.513 0.634 0.579
vn 0.239 0.970 -0.042
vn -0.456 0.819 0.348
vn 0.524 0.730 -0.438
vn 0.039 0.924 0.380
vn 0.229 0.856 0.463
vn 0.648 0.332 -0.685
vn 0.066 0.983 0.173
vn 0.504 0.856 -0.115
vn 0.679 0.524 -0.514
vn -0.223 0.067 0.973
vn 0.019 0.985 0.170
vn -0.478 -0.791 0.382
vn -0.347 -0.862 -0.369
vn -0.243 -0.954 -0.175
vn -0.955 -0.234 0.182
vn 0.209 -0.893 -0.399
vn -0.222 -0.925 0.310
vn 0.730 -0.151 -0.667
vn -0.017 -0.977 -0.215
vn 0.269 -0.726 -0.633
vn -0.015 -0.985 -0.170
vn 0.548 -0.564 -0.619
vn 0.588 -0.359 -0.725

# Facets
f 1//1 3//1 2//1
f 4//2 3//2 5//2
f 4//3 2//3 3//3
f 6//4 4//4 5//4
f 7//5 3//5 1//5
f 7//6 5//6 3//6
f 7//7 8//7 5//7
f 8//8 6//8 5//8
f 9//9 2//9 10//9
f 9//10 1//10 2//10
f 10//11 12//11 11//11
f 4//12 12//12 10//12
f 2//13 4//13 10//13
f 12//14 4//14 6//14
f 13//15 1//15 9//15
f 13//16 7//16 1//16
f 8//17 11//17 12//17
f 13//18 11//18 8//18
f 7//19 13//19 8//19
f 12//20 6//20 8//20
f 9//21 10//21 14//21
f 14//22 10//22 11//22
f 13//23 9//23 14//23
f 14//24 11//24 13//24
f 15//25 17//25 16//25
f 18//26 16//26 17//26
f 19//27 17//27 15//27
f 19//28 18//28 17//28
f 20//29 16//29 21//29
f 20//30 15//30 16//30
f 18//31 21//31 16//31
f 18//32 22//32 21//32
f 23//33 25//33 24//33
f 26//34 19//34 25//34
f 25//35 19//35 20//35
f 20//36 19//36 15//36
f 20//37 24//37 25//37
f 18//38 27//38 22//38
f 26//39 27//39 18//39
f 28//40 27//40 26//40
f 19//41 26//41 18//41
f 29//42 27//42 28//42
f 23//43 30//43 25//43
f 23//44 31//44 30//44
f 32//45 26//45 25//45
f 30//46 32//46 25//46
f 33//47 28//47 26//47
f 32//48 33//48 26//48
f 28//49 34//49 29//49
f 35//50 34//50 28//50
f 33//51 35//51 28//51
f 36//52 34//52 35//52
f 37//53 30//53 31//53
f 38//54 37//54 39//54
f 30//55 37//55 38//55
f 32//56 30//56 38//56
f 33//57 41//57 40//57
f 38//58 41//58 33//58
f 32//59 38//59 33//59
f 40//60 35//60 33//60
f 40//61 42//61 35//61
f 42//62 36//62 35//62
f 43//63 38//63 39//63
f 43//64 41//64 38//64
f 44//65 46//65 45//65
f 47//66 45//66 46//66
f 44//67 48//67 46//67
f 44//68 49//68 48//68
f 46//69 50//69 47//69
f 46//70 48//70 50//70
f 51//71 48//71 49//71
f 51//72 50//72 48//72
f 52//73 21//73 53//73
f 52//74 20//74 21//74
f 22//75 53//75 21//75
f 22//76 54//76 53//76
f 55//77 24//77 56//77
f 55//78 23//78 24//78
f 20//79 52//79 24//79
f 52//80 56//80 24//80
f 54//81 22//81 57//81
f 22//82 27//82 57//82
f 58//83 29//83 59//83
f 27//84 29//84 58//84
f 57//85 27//85 58//85
f 60//86 58//86 59//86
f 31//87 23//87 55//87
f 31//88 55//88 61//88
f 62//89 64//89 63//89
f 64//90 62//90 65//90
f 59//91 29//91 34//91
f 66//92 36//92 67//92
f 66//93 34//93 36//93
f 60//94 34//94 66//94
f 59//95 34//95 60//95
f 68//96 66//96 67//96
f 31//97 69//97 37//97
f 70//98 69//98 31//98
f 61//99 70//99 31//99
f 62//100 63//100 71//100
f 69//101 39//101 37//101
f 72//102 40//102 41//102
f 62//103 71//103 65//103
f 72//104 73//104 40//104
f 40//105 73//105 74//105
f 40//106 74//106 42//106
f 42//107 67//107 36//107
f 75//108 67//108 42//108
f 74//109 75//109 42//109
f 75//110 68//110 67//110
f 76//111 69//111 70//111
f 76//112 39//112 69//112
f 43//113 39//113 76//113
f 77//114 43//114 76//114
f 43//115 72//115 41//115
f 78//116 72//116 43//116
f 77//117 78//117 43//117
f 78//118 73//118 72//118
f 79//119 81//119 80//119
f 45//120 81//120 44//120
f 80//121 81//121 45//121
f 82//122 80//122 45//122
f 83//123 47//123 84//123
f 45//124 47//124 83//124
f 82//125 45//125 83//125
f 85//126 83//126 84//126
f 86//127 81//127 79//127
f 81//128 86//128 44//128
f 44//129 86//129 87//129
f 44//130 87//130 49//130
f 88//131 84//131 50//131
f 84//132 47//132 50//132
f 84//133 89//133 85//133
f 84//134 88//134 89//134
f 90//135 49//135 87//135
f 90//136 51//136 49//136
f 51//137 88//137 50//137
f 91//138 88//138 51//138
f 90//139 91//139 51//139
f 91//140 89//140 88//140
f 52//141 53//141 92//141
f 92//142 53//142 54//142
f 55//143 56//143 93//143
f 93//144 56//144 94//144
f 56//145 52//145 94//145
f 94//146 52//146 95//146
f 95//147 52//147 92//147
f 92//148 54//148 95//148
f 95//149 54//149 57//149
f 95//150 57//150 96//150
f 57//151 58//151 97//151
f 96//152 57//152 97//152
f 60//153 97//153 58//153
f 60//154 98//154 97//154
f 99//155 93//155 100//155
f 55//156 93//156 99//156
f 61//157 55//157 99//157
f 64//158 101//158 63//158
f 100//159 93//159 94//159
f 64//160 65//160 101//160
f 66//161 102//161 60//161
f 60//162 102//162 103//162
f 60//163 103//163 98//163
f 102//164 66//164 68//164
f 70//165 61//165 99//165
f 70//166 99//166 104//166
f 63//167 101//167 71//167
f 65//168 71//168 101//168
f 105//169 74//169 73//169
f 103//170 102//170 106//170
f 106//171 102//171 74//171
f 74//172 102//172 75//172
f 74//173 105//173 106//173
f 102//174 68//174 75//174
f 107//175 70//175 104//175
f 107//176 76//176 70//176
f 108//177 77//177 76//177
f 108//178 76//178 107//178
f 109//179 78//179 77//179
f 109//180 77//180 108//180
f 78//181 105//181 73//181
f 110//182 105//182 78//182
f 109//183 110//183 78//183
f 110//184 106//184 105//184
f 79//185 80//185 111//185
f 80//186 112//186 111//186
f 113//187 112//187 80//187
f 82//188 113//188 80//188
f 82//189 83//189 114//189
f 113//190 82//190 114//190
f 85//191 114//191 83//191
f 85//192 115//192 114//192
f 86//193 79//193 111//193
f 116//194 87//194 117//194
f 87//195 86//195 117//195
f 117//196 86//196 112//196
f 112//197 86//197 111//197
f 118//198 116//198 119//198
f 116//199 117//199 119//199
f 115//200 118//200 119//200
f 89//201 118//201 115//201
f 85//202 89//202 115//202
f 90//203 87//203 116//203
f 116//204 91//204 90//204
f 116//205 118//205 91//205
f 118//206 89//206 91//206
f 94//207 95//207 120//207
f 121//208 95//208 96//208
f 121//209 120//209 95//209
f 122//210 96//210 97//210
f 122//211 121//211 96//211
f 122//212 97//212 98//212
f 99//213 100//213 123//213
f 123//214 100//214 124//214
f 100//215 94//215 124//215
f 124//216 94//216 125//216
f 125//217 94//217 120//217
f 120//218 121//218 125//218
f 121//219 126//219 125//219
f 127//220 126//220 128//220
f 128//221 126//221 121//221
f 128//222 121//222 122//222
f 128//223 98//223 103//223
f 128//224 122//224 98//224
f 129//225 123//225 130//225
f 99//226 123//226 129//226
f 104//227 99//227 129//227
f 123//228 124//228 130//228
f 128//229 131//229 127//229
f 131//230 132//230 127//230
f 131//231 103//231 106//231
f 131//232 128//232 103//232
f 133//233 104//233 129//233
f 133//234 107//234 104//234
f 134//235 135//235 133//235
f 133//236 135//236 108//236
f 133//237 108//237 107//237
f 135//238 136//238 108//238
f 108//239 136//239 137//239
f 108//240 137//240 109//240
f 110//241 132//241 131//241
f 137//242 132//242 110//242
f 109//243 137//243 110//243
f 131//244 106//244 110//244
f 138//245 135//245 134//245
f 138//246 136//246 135//246
f 112//247 113//247 139//247
f 140//248 113//248 114//248
f 140//249 139//249 113//249
f 140//250 114//250 115//250
f 117//251 112//251 139//251
f 139//252 119//252 117//252
f 139//253 140//253 119//253
f 140//254 115//254 119//254
f 124//255 125//255 141//255
f 142//256 125//256 126//256
f 142//257 141//257 125//257
f 142//258 126//258 127//258
f 129//259 130//259 143//259
f 141//260 130//260 124//260
f 143//261 130//261 141//261
f 144//262 143//262 141//262
f 141//263 142//263 145//263
f 141//264 145//264 144//264
f 145//265 127//265 132//265
f 145//266 142//266 127//266
f 133//267 129//267 143//267
f 143//268 134//268 133//268
f 146//269 134//269 143//269
f 144//270 146//270 143//270
f 146//271 137//271 136//271
f 145//272 137//272 146//272
f 144//273 145//273 146//273
f 145//274 132//274 137//274
f 138//275 134//275 146//275
f 146//276 136//276 138//276
f 147//277 149//277 148//277
f 150//278 149//278 151//278
f 150//279 148//279 149//279
f 152//280 150//280 151//280
f 147//281 153//281 149//281
f 147//282 154//282 153//282
f 151//283 156//283 155//283
f 153//284 156//284 151//284
f 149//285 153//285 151//285
f 155//286 152//286 151//286
f 157//287 153//287 154//287
f 157//288 156//288 153//288
f 147//289 148//289 158//289
f 159//290 148//290 150//290
f 159//291 158//291 148//291
f 159//292 150//292 152//292
f 154//293 158//293 160//293
f 154//294 147//294 158//294
f 160//295 155//295 156//295
f 159//296 155//296 160//296
f 158//297 159//297 160//297
f 159//298 152//298 155//298
f 157//299 154//299 160//299
f 160//300 156//300 157//300

# Thankyou for using Spin3D

