# Created using Spin3D

# Vertex Array
v 5.734 -36.075 29.445
v 5.735 -36.075 29.446
v 5.735 -36.076 29.445
v 5.736 -36.075 29.445
v 5.735 -36.075 29.444
v 5.735 -36.074 29.445
v 2.698 -27.079 61.057
v 3.005 -26.822 61.343
v 2.930 -27.326 61.197
v 3.441 -27.029 61.095
v 3.025 -26.800 60.262
v 2.368 -25.857 60.417
v 3.259 -25.368 61.312
v 3.976 -26.192 61.305
v 4.655 -26.168 60.096
v 5.226 -25.281 60.860
v 0.665 -24.134 57.209
v 1.204 -24.076 58.782
v 1.983 -25.562 58.321
v 3.905 -25.996 58.282
v 6.202 -25.217 58.007
v 6.762 -24.508 59.519
v 1.336 -24.573 56.157
v 0.236 -22.997 55.634
v 2.868 -25.350 56.665
v 5.083 -24.876 56.032
v 8.401 -23.888 57.611
v 7.753 -24.308 56.235
v 9.359 -23.733 56.225
v 1.097 -23.626 54.802
v 2.805 -24.164 54.867
v 1.809 -22.908 53.974
v 7.062 -23.484 54.648
v 4.876 -23.715 54.298
v 9.114 -23.433 55.350
v 3.685 -22.409 53.537
v 6.008 -18.175 28.935
v 6.164 -17.947 28.874
v 6.077 -18.170 28.930
v 6.299 -17.907 28.816
v 6.202 -17.882 28.782
v 2.570 -23.290 60.246
v 3.703 -23.969 61.328
v 4.484 -24.754 61.402
v 5.970 -23.719 60.644
v 0.171 -22.401 57.115
v 1.080 -22.165 58.575
v 8.164 -23.377 58.729
v 7.569 -22.744 59.462
v 8.854 -22.057 57.796
v -0.182 -21.741 55.820
v 9.785 -23.027 56.480
v 10.066 -23.276 55.755
v 10.228 -22.829 55.792
v 0.750 -22.454 54.340
v 0.299 -21.040 54.760
v 5.732 -22.654 53.625
v 7.068 -22.104 53.765
v 8.634 -22.193 54.660
v 9.897 -22.806 55.369
v 1.850 -21.127 53.622
v 3.676 -20.577 53.137
v 5.591 -21.015 53.323
v 6.051 -17.661 28.747
v 6.230 -17.484 28.713
v 6.026 -17.929 28.847
v 6.484 -17.399 28.696
v 6.590 -17.483 28.679
v 6.723 -17.294 28.520
v 6.995 -16.940 28.425
v 6.195 -17.531 28.649
v 6.613 -16.781 28.324
v 6.616 -17.138 28.425
v 7.032 -16.720 28.222
v 7.204 -16.586 28.209
v 7.020 -16.449 28.120
v 7.282 -16.293 28.049
v 3.740 -22.906 60.983
v 4.756 -23.041 61.040
v 0.584 -20.831 57.515
v 2.244 -20.171 58.478
v 4.156 -21.271 60.032
v 6.335 -21.514 59.923
v 7.934 -21.209 58.977
v 8.271 -20.277 58.021
v 0.085 -20.395 56.071
v 0.891 -19.435 56.936
v 9.542 -21.923 55.882
v 8.562 -20.194 56.606
v 0.423 -19.358 54.920
v 7.408 -20.932 53.915
v 8.263 -20.405 54.976
v 1.269 -19.320 54.058
v 2.921 -19.200 53.464
v 4.612 -19.419 53.327
v 6.375 -19.236 54.083
v 6.234 -17.293 28.592
v 6.559 -16.797 28.414
v 6.695 -16.858 28.483
v 6.887 -16.911 28.482
v 7.233 -16.437 28.227
v 6.864 -16.307 28.167
v 7.370 -16.169 28.047
v 7.016 -16.198 28.063
v 7.271 -16.061 27.990
v 3.970 -19.457 58.924
v 5.623 -19.290 58.761
v 7.303 -20.010 58.789
v 0.845 -18.606 55.704
v 2.079 -18.167 56.697
v 3.973 -18.080 57.634
v 5.680 -17.757 57.366
v 6.116 -17.442 56.156
v 7.212 -18.803 57.395
v 1.156 -18.275 54.681
v 2.053 -17.507 55.258
v 7.316 -18.688 55.602
v 5.925 -17.703 54.911
v 2.383 -17.918 54.203
v 4.352 -17.910 54.094
v 6.964 -16.302 28.215
v 7.072 -16.427 28.282
v 7.133 -16.036 28.040
v 7.266 -16.094 28.080
v 3.464 -17.073 56.010
v 4.860 -17.044 56.505
v 3.349 -17.090 54.839
v 4.737 -16.969 55.321
v 4.136 -8.194 45.132
v 4.132 -8.194 45.127
v 4.134 -8.193 45.129
v 4.132 -8.192 45.125
v 4.133 -8.193 45.126
v 4.131 -8.193 45.123
v 4.136 -8.194 45.131
v 4.139 -8.195 45.132
v 4.135 -8.194 45.127
v 4.137 -8.193 45.129
v 4.140 -8.194 45.132
v 4.135 -8.195 45.129
v 4.132 -8.194 45.127
v 4.138 -8.194 45.130

# Normal Array
vn -0.590 -0.655 0.472
vn 0.584 -0.663 0.469
vn -0.588 -0.464 -0.662
vn 0.585 -0.477 -0.656
vn -0.586 0.476 0.655
vn 0.590 0.464 0.661
vn -0.585 0.662 -0.469
vn 0.591 0.654 -0.471
vn -0.613 -0.135 0.778
vn 0.357 -0.308 0.882
vn -0.500 -0.733 -0.462
vn 0.391 -0.819 -0.421
vn -0.739 0.144 0.658
vn -0.738 0.146 0.659
vn 0.725 -0.563 0.396
vn 0.299 -0.408 0.863
vn 0.029 0.016 0.999
vn 0.630 -0.698 0.340
vn -0.806 -0.514 0.295
vn -0.206 -0.871 -0.445
vn -0.813 -0.578 0.068
vn -0.759 -0.451 -0.470
vn -0.870 -0.484 0.092
vn 0.298 -0.872 -0.389
vn 0.332 -0.916 -0.224
vn 0.292 -0.933 -0.209
vn 0.638 -0.695 0.330
vn 0.635 -0.763 0.123
vn -0.677 -0.725 -0.129
vn -0.760 -0.607 -0.231
vn -0.218 -0.946 -0.238
vn -0.350 -0.887 -0.301
vn 0.272 -0.911 -0.311
vn 0.076 -0.908 -0.412
vn 0.533 -0.825 0.189
vn 0.519 -0.854 0.016
vn 0.220 -0.933 -0.286
vn 0.335 -0.934 0.127
vn -0.734 -0.611 -0.297
vn -0.180 -0.661 -0.729
vn -0.237 -0.816 -0.528
vn -0.238 -0.815 -0.529
vn 0.175 -0.808 -0.562
vn 0.027 -0.829 -0.559
vn 0.021 -0.834 -0.551
vn 0.216 -0.825 -0.522
vn 0.198 -0.832 -0.518
vn 0.309 -0.870 -0.384
vn -0.029 -0.594 -0.804
vn -0.101 -0.568 -0.817
vn 0.059 0.220 0.974
vn 0.369 0.087 0.925
vn -0.039 -0.442 -0.896
vn 0.168 -0.507 -0.846
vn -0.617 0.187 0.764
vn -0.732 0.102 0.673
vn -0.048 -0.051 0.998
vn -0.081 0.014 0.997
vn 0.467 -0.223 0.856
vn 0.522 -0.132 0.843
vn -0.849 0.002 0.528
vn -0.915 -0.243 0.323
vn -0.754 0.103 0.648
vn -0.738 0.025 0.675
vn 0.626 -0.262 0.735
vn 0.677 -0.287 0.678
vn 0.704 -0.243 0.667
vn 0.787 0.025 0.617
vn -0.960 -0.270 0.067
vn -0.941 -0.326 0.090
vn 0.701 -0.580 0.414
vn 0.677 -0.575 0.459
vn 0.701 -0.576 0.421
vn 0.699 -0.241 0.673
vn 0.915 -0.258 0.312
vn 0.833 -0.338 0.438
vn -0.771 -0.418 -0.481
vn -0.893 -0.159 -0.421
vn -0.835 -0.202 -0.512
vn -0.456 -0.440 -0.774
vn 0.187 -0.629 -0.754
vn 0.296 -0.516 -0.804
vn 0.411 -0.493 -0.767
vn 0.309 -0.368 -0.877
vn 0.307 -0.871 -0.384
vn 0.409 -0.487 -0.772
vn 0.314 -0.366 -0.876
vn 0.761 -0.226 -0.608
vn -0.589 0.052 -0.806
vn -0.386 -0.171 -0.906
vn -0.175 -0.187 -0.967
vn -0.191 -0.210 -0.959
vn -0.026 -0.521 -0.853
vn 0.021 -0.179 -0.984
vn 0.046 -0.213 -0.976
vn 0.170 -0.164 -0.972
vn -0.179 0.358 0.917
vn -0.139 0.343 0.929
vn -0.139 0.343 0.929
vn -0.050 0.335 0.941
vn 0.829 -0.559 0.028
vn 0.383 0.037 0.923
vn 0.272 0.150 0.951
vn 0.777 -0.623 -0.092
vn -0.341 -0.300 -0.891
vn -0.248 -0.265 -0.932
vn -0.159 -0.354 -0.922
vn -0.241 -0.349 -0.905
vn -0.255 -0.309 -0.916
vn 0.163 -0.519 -0.839
vn 0.090 -0.471 -0.877
vn 0.063 -0.486 -0.872
vn 0.689 -0.628 -0.362
vn 0.396 -0.581 -0.711
vn -0.252 -0.265 -0.931
vn -0.096 -0.356 -0.930
vn -0.042 -0.355 -0.934
vn 0.341 -0.518 -0.784
vn -0.575 0.271 0.772
vn 0.099 0.191 0.977
vn -0.012 0.309 0.951
vn 0.374 0.135 0.917
vn -0.852 0.093 0.515
vn -0.572 0.369 0.733
vn -0.560 0.363 0.744
vn -0.418 0.415 0.808
vn -0.571 0.517 0.638
vn 0.018 0.499 0.866
vn 0.100 0.518 0.850
vn 0.412 0.221 0.884
vn 0.505 0.192 0.841
vn 0.480 0.159 0.863
vn 0.791 0.005 0.612
vn 0.839 0.211 0.502
vn -0.847 0.352 0.399
vn -0.920 0.150 0.363
vn -0.939 0.127 0.321
vn -0.574 0.419 0.703
vn 0.865 0.373 0.337
vn 0.872 0.353 0.338
vn 0.937 0.280 0.209
vn 0.681 0.459 0.571
vn -0.934 0.235 -0.268
vn -0.975 0.091 -0.204
vn 0.494 -0.032 -0.869
vn 0.807 0.549 -0.219
vn 0.745 0.263 -0.613
vn 0.595 0.568 -0.568
vn 0.684 0.262 -0.681
vn 0.669 0.555 -0.494
vn -0.711 0.118 -0.693
vn -0.591 0.005 -0.806
vn -0.277 0.075 -0.958
vn -0.344 0.115 -0.932
vn 0.113 0.072 -0.991
vn -0.053 0.203 -0.978
vn 0.308 0.032 -0.951
vn 0.288 0.266 -0.920
vn 0.364 0.226 -0.904
vn 0.589 0.427 -0.686
vn -0.352 0.507 0.787
vn -0.342 0.508 0.790
vn -0.223 0.478 0.850
vn -0.070 0.389 0.919
vn 0.290 0.174 0.941
vn 0.097 0.332 0.938
vn 0.478 0.053 0.877
vn 0.488 0.111 0.866
vn -0.480 -0.127 -0.868
vn -0.441 -0.138 -0.887
vn -0.821 0.386 -0.421
vn -0.842 0.296 -0.451
vn 0.858 -0.223 0.463
vn 0.906 -0.220 0.363
vn -0.576 0.034 -0.816
vn -0.293 -0.214 -0.932
vn -0.114 -0.247 -0.962
vn -0.157 -0.219 -0.963
vn 0.670 -0.485 -0.563
vn 0.290 -0.221 -0.931
vn -0.393 0.450 0.802
vn 0.098 0.485 0.869
vn 0.031 0.523 0.852
vn 0.425 0.354 0.833
vn 0.202 0.503 0.840
vn 0.630 0.433 0.644
vn -0.847 0.425 0.318
vn -0.603 0.651 0.461
vn -0.467 0.566 0.680
vn -0.377 0.598 0.707
vn -0.426 0.619 0.660
vn 0.003 0.684 0.730
vn -0.011 0.673 0.739
vn 0.515 0.766 0.385
vn 0.402 0.608 0.685
vn 0.303 0.730 0.612
vn 0.756 0.625 0.192
vn 0.580 0.634 0.511
vn -0.833 0.547 -0.076
vn -0.908 0.406 0.099
vn -0.554 0.753 0.355
vn -0.664 0.746 0.039
vn 0.736 0.671 0.086
vn 0.639 0.727 -0.250
vn 0.818 0.531 -0.219
vn 0.739 0.668 0.086
vn -0.684 0.317 -0.657
vn -0.404 0.802 -0.439
vn -0.433 0.426 -0.794
vn -0.339 0.359 -0.870
vn -0.014 0.451 -0.892
vn -0.050 0.483 -0.874
vn 0.643 0.502 -0.579
vn 0.338 0.522 -0.783
vn 0.305 0.473 -0.826
vn 0.610 0.546 -0.575
vn -0.206 0.504 0.839
vn 0.101 0.347 0.932
vn -0.034 0.447 0.894
vn 0.329 0.251 0.910
vn -0.354 0.662 0.661
vn -0.376 0.592 0.712
vn 0.044 0.500 0.865
vn -0.008 0.554 0.832
vn 0.480 0.306 0.822
vn 0.325 0.346 0.880
vn -0.693 0.412 -0.592
vn -0.320 0.094 -0.943
vn 0.286 0.893 0.348
vn 0.618 0.724 0.305
vn -0.317 0.759 0.570
vn -0.039 0.751 0.659
vn -0.216 0.798 0.563
vn 0.371 0.857 0.357
vn -0.302 0.953 0.016
vn -0.451 0.808 0.379
vn -0.045 0.997 0.068
vn -0.085 0.996 -0.006
vn 0.446 0.860 -0.249
vn 0.309 0.951 0.029
vn -0.401 0.804 -0.439
vn -0.045 0.641 -0.766
vn 0.152 0.760 -0.632
vn 0.234 0.734 -0.637
vn -0.513 0.634 0.579
vn 0.239 0.970 -0.042
vn -0.456 0.819 0.348
vn 0.524 0.730 -0.438
vn 0.039 0.924 0.380
vn 0.229 0.856 0.463
vn 0.648 0.332 -0.685
vn 0.066 0.983 0.173
vn 0.504 0.856 -0.115
vn 0.679 0.524 -0.514
vn -0.223 0.067 0.973
vn 0.019 0.985 0.170
vn -0.478 -0.791 0.382
vn -0.347 -0.862 -0.369
vn -0.243 -0.954 -0.175
vn -0.955 -0.234 0.182
vn 0.209 -0.893 -0.399
vn -0.222 -0.925 0.310
vn 0.730 -0.151 -0.667
vn -0.017 -0.977 -0.215
vn 0.269 -0.726 -0.633
vn -0.015 -0.985 -0.170
vn 0.548 -0.564 -0.619
vn 0.588 -0.359 -0.725

# Facets
f 1//1 3//1 2//1
f 4//2 2//2 3//2
f 5//3 3//3 1//3
f 5//4 4//4 3//4
f 1//5 2//5 6//5
f 6//6 2//6 4//6
f 5//7 1//7 6//7
f 6//8 4//8 5//8
f 7//9 9//9 8//9
f 10//10 8//10 9//10
f 11//11 9//11 7//11
f 11//12 10//12 9//12
f 12//13 8//13 13//13
f 12//14 7//14 8//14
f 14//15 10//15 15//15
f 8//16 10//16 14//16
f 13//17 8//17 14//17
f 16//18 14//18 15//18
f 17//19 19//19 18//19
f 20//20 11//20 19//20
f 19//21 11//21 12//21
f 12//22 11//22 7//22
f 12//23 18//23 19//23
f 10//24 11//24 15//24
f 15//25 11//25 20//25
f 15//26 20//26 21//26
f 15//27 22//27 16//27
f 15//28 21//28 22//28
f 17//29 23//29 19//29
f 17//30 24//30 23//30
f 25//31 20//31 19//31
f 23//32 25//32 19//32
f 26//33 21//33 20//33
f 25//34 26//34 20//34
f 21//35 27//35 22//35
f 28//36 27//36 21//36
f 26//37 28//37 21//37
f 29//38 27//38 28//38
f 30//39 23//39 24//39
f 31//40 30//40 32//40
f 23//41 30//41 31//41
f 25//42 23//42 31//42
f 26//43 34//43 33//43
f 31//44 34//44 26//44
f 25//45 31//45 26//45
f 33//46 28//46 26//46
f 33//47 35//47 28//47
f 35//48 29//48 28//48
f 36//49 31//49 32//49
f 36//50 34//50 31//50
f 37//51 39//51 38//51
f 40//52 38//52 39//52
f 41//53 39//53 37//53
f 41//54 40//54 39//54
f 42//55 13//55 43//55
f 42//56 12//56 13//56
f 13//57 14//57 44//57
f 43//58 13//58 44//58
f 16//59 44//59 14//59
f 16//60 45//60 44//60
f 46//61 18//61 47//61
f 46//62 17//62 18//62
f 12//63 42//63 18//63
f 42//64 47//64 18//64
f 48//65 49//65 22//65
f 22//66 49//66 45//66
f 22//67 45//67 16//67
f 50//68 49//68 48//68
f 24//69 17//69 46//69
f 24//70 46//70 51//70
f 48//71 22//71 27//71
f 52//72 29//72 53//72
f 52//73 27//73 29//73
f 50//74 27//74 52//74
f 48//75 27//75 50//75
f 54//76 52//76 53//76
f 24//77 55//77 30//77
f 56//78 55//78 24//78
f 51//79 56//79 24//79
f 32//80 30//80 55//80
f 57//81 33//81 34//81
f 57//82 58//82 33//82
f 33//83 58//83 59//83
f 33//84 59//84 35//84
f 35//85 53//85 29//85
f 60//86 53//86 35//86
f 59//87 60//87 35//87
f 60//88 54//88 53//88
f 61//89 55//89 56//89
f 61//90 32//90 55//90
f 36//91 32//91 61//91
f 62//92 36//92 61//92
f 36//93 57//93 34//93
f 63//94 57//94 36//94
f 62//95 63//95 36//95
f 63//96 58//96 57//96
f 64//97 66//97 65//97
f 38//98 66//98 37//98
f 65//99 66//99 38//99
f 67//100 65//100 38//100
f 68//101 40//101 69//101
f 38//102 40//102 68//102
f 67//103 38//103 68//103
f 70//104 68//104 69//104
f 71//105 66//105 64//105
f 72//106 73//106 71//106
f 73//107 41//107 71//107
f 71//108 41//108 66//108
f 66//109 41//109 37//109
f 40//110 41//110 69//110
f 69//111 41//111 73//111
f 69//112 73//112 74//112
f 69//113 75//113 70//113
f 69//114 74//114 75//114
f 76//115 73//115 72//115
f 76//116 74//116 73//116
f 76//117 77//117 74//117
f 77//118 75//118 74//118
f 42//119 43//119 78//119
f 79//120 43//120 44//120
f 79//121 78//121 43//121
f 79//122 44//122 45//122
f 46//123 47//123 80//123
f 80//124 47//124 81//124
f 47//125 42//125 81//125
f 81//126 42//126 82//126
f 82//127 42//127 78//127
f 78//128 79//128 82//128
f 79//129 83//129 82//129
f 79//130 45//130 83//130
f 83//131 45//131 49//131
f 83//132 49//132 84//132
f 50//133 84//133 49//133
f 50//134 85//134 84//134
f 86//135 80//135 87//135
f 46//136 80//136 86//136
f 51//137 46//137 86//137
f 80//138 81//138 87//138
f 52//139 88//139 50//139
f 50//140 88//140 89//140
f 50//141 89//141 85//141
f 88//142 52//142 54//142
f 56//143 51//143 86//143
f 56//144 86//144 90//144
f 91//145 59//145 58//145
f 89//146 88//146 92//146
f 92//147 88//147 59//147
f 59//148 88//148 60//148
f 59//149 91//149 92//149
f 88//150 54//150 60//150
f 93//151 56//151 90//151
f 93//152 61//152 56//152
f 94//153 62//153 61//153
f 94//154 61//154 93//154
f 95//155 63//155 62//155
f 95//156 62//156 94//156
f 63//157 91//157 58//157
f 96//158 91//158 63//158
f 95//159 96//159 63//159
f 96//160 92//160 91//160
f 64//161 65//161 97//161
f 65//162 98//162 97//162
f 99//163 98//163 65//163
f 67//164 99//164 65//164
f 67//165 68//165 100//165
f 99//166 67//166 100//166
f 70//167 100//167 68//167
f 70//168 101//168 100//168
f 71//169 64//169 97//169
f 71//170 97//170 72//170
f 72//171 97//171 98//171
f 72//172 98//172 102//172
f 101//173 70//173 75//173
f 103//174 101//174 75//174
f 104//175 72//175 102//175
f 104//176 76//176 72//176
f 105//177 77//177 76//177
f 105//178 76//178 104//178
f 77//179 103//179 75//179
f 77//180 105//180 103//180
f 81//181 82//181 106//181
f 107//182 82//182 83//182
f 107//183 106//183 82//183
f 108//184 83//184 84//184
f 108//185 107//185 83//185
f 108//186 84//186 85//186
f 86//187 87//187 109//187
f 109//188 87//188 110//188
f 87//189 81//189 110//189
f 110//190 81//190 111//190
f 111//191 81//191 106//191
f 106//192 107//192 111//192
f 107//193 112//193 111//193
f 113//194 112//194 114//194
f 114//195 112//195 107//195
f 114//196 107//196 108//196
f 114//197 85//197 89//197
f 114//198 108//198 85//198
f 90//199 109//199 115//199
f 90//200 86//200 109//200
f 110//201 116//201 109//201
f 116//202 115//202 109//202
f 114//203 117//203 113//203
f 117//204 118//204 113//204
f 117//205 89//205 92//205
f 117//206 114//206 89//206
f 93//207 90//207 115//207
f 119//208 115//208 116//208
f 93//209 115//209 119//209
f 94//210 93//210 119//210
f 120//211 95//211 94//211
f 120//212 94//212 119//212
f 96//213 118//213 117//213
f 120//214 118//214 96//214
f 95//215 120//215 96//215
f 117//216 92//216 96//216
f 98//217 99//217 121//217
f 122//218 99//218 100//218
f 122//219 121//219 99//219
f 122//220 100//220 101//220
f 102//221 121//221 123//221
f 102//222 98//222 121//222
f 121//223 122//223 124//223
f 121//224 124//224 123//224
f 124//225 101//225 103//225
f 124//226 122//226 101//226
f 104//227 102//227 123//227
f 123//228 105//228 104//228
f 123//229 124//229 105//229
f 124//230 103//230 105//230
f 110//231 111//231 125//231
f 126//232 111//232 112//232
f 126//233 125//233 111//233
f 126//234 112//234 113//234
f 116//235 125//235 127//235
f 116//236 110//236 125//236
f 125//237 126//237 128//237
f 125//238 128//238 127//238
f 128//239 113//239 118//239
f 128//240 126//240 113//240
f 119//241 116//241 127//241
f 127//242 120//242 119//242
f 127//243 128//243 120//243
f 128//244 118//244 120//244
f 129//245 131//245 130//245
f 132//246 131//246 133//246
f 132//247 130//247 131//247
f 134//248 132//248 133//248
f 129//249 135//249 131//249
f 129//250 136//250 135//250
f 133//251 138//251 137//251
f 135//252 138//252 133//252
f 131//253 135//253 133//253
f 137//254 134//254 133//254
f 139//255 135//255 136//255
f 139//256 138//256 135//256
f 129//257 130//257 140//257
f 141//258 130//258 132//258
f 141//259 140//259 130//259
f 141//260 132//260 134//260
f 136//261 140//261 142//261
f 136//262 129//262 140//262
f 142//263 137//263 138//263
f 141//264 137//264 142//264
f 140//265 141//265 142//265
f 141//266 134//266 137//266
f 139//267 136//267 142//267
f 142//268 138//268 139//268

# Thankyou for using Spin3D

