# Created using Spin3D

# Vertex Array
v 5.734 -36.075 29.445
v 5.735 -36.075 29.446
v 5.735 -36.076 29.445
v 5.736 -36.075 29.445
v 5.735 -36.075 29.444
v 5.735 -36.074 29.445
v 3.134 -27.025 60.738
v 3.496 -26.841 61.047
v 3.431 -27.278 60.879
v 4.010 -27.010 60.750
v 3.446 -26.792 59.916
v 2.595 -25.802 60.108
v 3.690 -25.761 61.168
v 4.563 -26.253 60.985
v 5.363 -26.188 59.628
v 5.957 -25.102 60.474
v 0.755 -24.275 56.742
v 1.114 -24.278 58.209
v 2.153 -25.653 57.945
v 4.095 -26.163 58.000
v 5.957 -25.759 57.723
v 7.066 -24.948 59.456
v 7.415 -25.136 58.243
v 8.287 -24.026 58.505
v 1.448 -24.651 55.859
v 0.341 -23.037 55.256
v 2.966 -25.476 56.454
v 5.039 -25.106 56.000
v 7.474 -24.719 56.551
v 9.140 -23.811 57.056
v 1.178 -23.637 54.578
v 2.844 -24.230 54.761
v 1.844 -22.873 53.842
v 7.025 -23.628 54.827
v 4.863 -23.808 54.344
v 9.093 -23.537 55.731
v 3.679 -22.393 53.523
v 6.101 -17.989 29.027
v 6.189 -17.866 29.017
v 6.154 -17.992 29.003
v 6.337 -17.836 28.904
v 6.313 -17.799 28.871
v 2.977 -24.626 60.789
v 3.912 -24.674 61.244
v 4.814 -25.009 61.169
v 5.861 -23.773 60.577
v 0.181 -22.640 56.625
v 0.632 -22.799 58.031
v 1.779 -23.318 59.492
v 2.799 -23.522 60.458
v 0.906 -21.830 58.409
v 3.202 -22.067 59.878
v 7.372 -23.347 59.495
v 9.046 -22.247 57.656
v -0.052 -21.732 55.400
v 1.259 -22.033 59.078
v 1.190 -21.287 58.690
v 1.780 -22.039 59.400
v 10.191 -23.246 56.122
v 10.134 -22.853 56.533
v 10.468 -22.762 55.990
v 0.816 -22.395 54.096
v 0.379 -20.901 54.416
v 1.383 -21.609 59.098
v 5.723 -22.702 53.723
v 7.085 -22.154 53.900
v 8.712 -22.242 54.838
v 10.048 -22.808 55.624
v 1.843 -21.006 53.456
v 3.624 -20.484 53.094
v 5.573 -20.996 53.374
v 6.129 -17.679 29.000
v 6.201 -17.629 29.008
v 6.126 -17.826 29.007
v 6.398 -17.559 28.947
v 6.535 -17.590 28.840
v 6.733 -17.477 28.635
v 6.881 -17.277 28.620
v 6.389 -17.505 28.807
v 6.841 -17.172 28.484
v 6.749 -17.376 28.547
v 7.045 -17.177 28.374
v 7.105 -17.097 28.408
v 7.059 -17.087 28.334
v 7.201 -16.981 28.284
v 3.480 -23.763 60.879
v 4.588 -23.523 60.819
v 0.405 -21.489 57.286
v 2.680 -20.198 58.800
v 3.133 -18.699 58.009
v 4.199 -19.763 58.938
v 5.908 -21.507 59.603
v 7.867 -21.414 58.775
v 8.344 -20.375 57.815
v 0.264 -20.190 55.782
v 1.351 -19.990 57.661
v 1.822 -21.141 58.997
v 9.744 -21.932 55.959
v 8.686 -20.252 56.515
v 0.433 -19.040 54.462
v 7.443 -20.950 54.008
v 8.349 -20.429 55.014
v 1.209 -19.071 53.728
v 2.819 -19.027 53.302
v 4.531 -19.324 53.286
v 6.345 -19.200 54.069
v 6.196 -17.565 28.966
v 6.420 -17.349 28.856
v 6.535 -17.298 28.862
v 6.728 -17.276 28.761
v 7.036 -17.026 28.526
v 7.087 -16.958 28.360
v 6.760 -17.111 28.601
v 7.189 -16.917 28.351
v 7.006 -16.938 28.504
v 4.346 -18.406 58.216
v 5.698 -18.789 58.215
v 7.264 -19.981 58.464
v 1.031 -18.425 56.100
v 2.287 -17.807 56.706
v 4.187 -17.476 57.206
v 5.749 -17.467 56.996
v 6.088 -17.320 55.930
v 7.270 -18.718 57.129
v 0.766 -18.049 55.016
v 1.612 -17.288 55.568
v 7.341 -18.671 55.505
v 5.845 -17.625 54.785
v 1.032 -17.893 54.179
v 2.206 -17.636 53.860
v 4.206 -17.761 53.935
v 6.724 -17.083 28.709
v 6.845 -17.054 28.675
v 3.126 -16.764 55.658
v 4.807 -16.773 56.179
v 1.793 -17.059 54.674
v 3.104 -16.828 54.506
v 4.569 -16.794 55.080
v 4.136 -8.194 45.132
v 4.132 -8.194 45.127
v 4.134 -8.193 45.129
v 4.132 -8.192 45.125
v 4.133 -8.193 45.126
v 4.131 -8.193 45.123
v 4.136 -8.194 45.131
v 4.139 -8.195 45.132
v 4.135 -8.194 45.127
v 4.137 -8.193 45.129
v 4.140 -8.194 45.132
v 4.135 -8.195 45.129
v 4.132 -8.194 45.127
v 4.138 -8.194 45.130

# Normal Array
vn -0.590 -0.655 0.472
vn 0.584 -0.663 0.469
vn -0.588 -0.464 -0.662
vn 0.585 -0.477 -0.656
vn -0.586 0.476 0.655
vn 0.590 0.464 0.661
vn -0.585 0.662 -0.469
vn 0.591 0.654 -0.471
vn -0.566 -0.220 0.795
vn 0.366 -0.380 0.850
vn -0.474 -0.783 -0.403
vn 0.300 -0.853 -0.426
vn -0.696 0.044 0.717
vn -0.671 0.084 0.737
vn 0.688 -0.620 0.376
vn 0.314 -0.483 0.817
vn 0.131 -0.134 0.982
vn 0.669 -0.649 0.363
vn -0.766 -0.615 0.186
vn -0.226 -0.900 -0.372
vn -0.743 -0.660 0.106
vn -0.724 -0.540 -0.428
vn -0.781 -0.613 0.117
vn 0.224 -0.895 -0.385
vn 0.263 -0.940 -0.219
vn 0.186 -0.969 -0.160
vn 0.545 -0.680 0.490
vn 0.583 -0.761 0.286
vn 0.414 -0.907 -0.075
vn 0.713 -0.632 0.303
vn -0.620 -0.768 -0.160
vn -0.727 -0.614 -0.309
vn -0.240 -0.940 -0.242
vn -0.361 -0.882 -0.302
vn 0.134 -0.901 -0.413
vn 0.063 -0.894 -0.443
vn 0.444 -0.873 -0.200
vn 0.239 -0.859 -0.453
vn 0.706 -0.631 0.322
vn 0.513 -0.837 -0.188
vn -0.713 -0.615 -0.336
vn -0.137 -0.623 -0.770
vn -0.217 -0.787 -0.577
vn -0.209 -0.795 -0.570
vn 0.202 -0.761 -0.617
vn 0.036 -0.785 -0.619
vn 0.014 -0.805 -0.593
vn 0.253 -0.787 -0.563
vn 0.281 -0.776 -0.564
vn 0.514 -0.836 -0.191
vn 0.003 -0.559 -0.829
vn -0.061 -0.538 -0.841
vn 0.386 -0.210 0.898
vn 0.619 -0.258 0.742
vn -0.403 -0.268 -0.875
vn 0.103 -0.620 -0.778
vn -0.436 0.027 0.899
vn -0.679 -0.190 0.709
vn 0.111 -0.168 0.980
vn 0.053 -0.080 0.995
vn 0.493 -0.224 0.841
vn 0.518 -0.029 0.855
vn -0.926 -0.270 0.266
vn -0.924 -0.308 0.225
vn -0.780 -0.103 0.617
vn -0.672 0.111 0.733
vn -0.832 -0.140 0.536
vn -0.789 -0.016 0.614
vn -0.804 -0.194 0.562
vn -0.571 0.436 0.695
vn 0.586 -0.021 0.810
vn 0.680 -0.148 0.718
vn 0.674 -0.147 0.724
vn 0.737 0.008 0.676
vn -0.943 -0.332 -0.014
vn -0.958 -0.285 -0.029
vn -0.888 -0.231 0.398
vn -0.846 0.182 0.501
vn -0.317 0.068 0.946
vn -0.523 0.062 0.850
vn 0.716 -0.452 0.532
vn 0.626 -0.246 0.740
vn 0.863 -0.135 0.488
vn 0.823 -0.349 0.448
vn -0.734 -0.420 -0.534
vn -0.879 -0.161 -0.449
vn -0.830 -0.192 -0.524
vn -0.809 0.211 0.549
vn -0.400 -0.430 -0.809
vn 0.222 -0.603 -0.767
vn -0.521 0.112 0.846
vn 0.311 -0.515 -0.799
vn 0.413 -0.497 -0.763
vn 0.375 -0.449 -0.811
vn 0.317 -0.926 -0.203
vn 0.403 -0.627 -0.667
vn 0.279 -0.488 -0.827
vn 0.596 -0.510 -0.620
vn -0.548 0.019 -0.837
vn -0.319 -0.192 -0.928
vn -0.116 -0.201 -0.973
vn -0.131 -0.221 -0.966
vn 0.010 -0.495 -0.869
vn 0.066 -0.195 -0.979
vn 0.083 -0.216 -0.973
vn 0.198 -0.180 -0.964
vn -0.155 0.050 0.987
vn -0.085 0.135 0.987
vn -0.142 0.045 0.989
vn 0.293 0.021 0.956
vn 0.748 -0.481 0.457
vn 0.617 -0.306 0.725
vn 0.573 -0.208 0.793
vn 0.740 -0.517 0.430
vn -0.585 -0.024 -0.811
vn -0.587 0.012 -0.809
vn -0.578 -0.028 -0.816
vn -0.584 -0.026 -0.812
vn -0.585 -0.011 -0.811
vn 0.058 -0.639 -0.767
vn 0.087 -0.661 -0.745
vn -0.003 -0.655 -0.756
vn 0.765 -0.542 0.347
vn 0.754 -0.633 0.176
vn -0.563 -0.004 -0.826
vn -0.294 -0.341 -0.893
vn -0.039 -0.393 -0.919
vn 0.793 -0.607 0.048
vn -0.426 0.156 0.891
vn 0.172 0.251 0.953
vn -0.028 0.361 0.932
vn 0.229 0.256 0.939
vn -0.952 0.009 0.306
vn -0.469 0.183 0.864
vn -0.899 0.087 0.428
vn -0.220 0.507 0.834
vn 0.017 0.371 0.928
vn -0.206 0.445 0.872
vn -0.023 0.527 0.849
vn -0.360 0.430 0.828
vn -0.062 0.500 0.864
vn 0.244 0.379 0.893
vn 0.483 0.337 0.808
vn 0.368 0.240 0.898
vn 0.714 0.076 0.696
vn 0.750 0.229 0.620
vn -0.810 0.405 0.425
vn -0.981 0.092 0.171
vn -0.953 0.127 0.275
vn -0.479 0.574 0.664
vn -0.509 0.517 0.688
vn -0.458 0.587 0.668
vn -0.794 0.384 0.471
vn -0.903 0.330 0.274
vn -0.284 0.404 0.870
vn -0.268 0.424 0.865
vn 0.726 0.558 0.402
vn 0.826 0.385 0.412
vn 0.909 0.318 0.269
vn 0.646 0.582 0.494
vn -0.947 0.245 -0.207
vn -0.995 0.032 -0.100
vn -0.460 0.578 0.674
vn -0.230 0.408 0.884
vn 0.496 -0.070 -0.866
vn 0.782 0.573 -0.243
vn 0.691 0.206 -0.693
vn 0.587 0.459 -0.667
vn 0.673 0.204 -0.711
vn 0.555 0.458 -0.694
vn -0.686 0.038 -0.727
vn -0.551 -0.063 -0.832
vn -0.206 0.026 -0.978
vn -0.257 0.052 -0.965
vn 0.153 0.044 -0.987
vn 0.017 0.151 -0.988
vn 0.321 -0.011 -0.947
vn 0.308 0.226 -0.924
vn 0.378 0.188 -0.906
vn 0.577 0.387 -0.719
vn -0.424 0.476 0.771
vn -0.114 0.543 0.832
vn -0.325 0.636 0.700
vn 0.234 0.185 0.954
vn 0.585 -0.161 0.795
vn 0.459 0.045 0.887
vn 0.659 -0.226 0.717
vn 0.670 -0.142 0.728
vn -0.656 0.163 -0.737
vn -0.658 0.379 -0.651
vn -0.695 0.318 -0.645
vn -0.704 0.337 -0.625
vn -0.658 0.342 -0.671
vn -0.373 0.868 -0.329
vn -0.626 0.645 -0.439
vn 0.572 0.374 0.730
vn 0.796 -0.190 0.575
vn 0.765 -0.251 0.593
vn -0.614 0.277 -0.739
vn -0.498 0.269 -0.824
vn -0.322 0.659 -0.680
vn 0.868 -0.277 0.411
vn -0.258 0.475 0.841
vn 0.126 0.459 0.880
vn 0.129 0.455 0.881
vn 0.353 0.338 0.873
vn 0.211 0.457 0.864
vn 0.575 0.397 0.715
vn -0.843 0.284 0.457
vn -0.565 0.522 0.639
vn -0.510 0.519 0.686
vn -0.294 0.689 0.663
vn -0.280 0.684 0.674
vn 0.209 0.736 0.644
vn 0.095 0.673 0.733
vn 0.592 0.751 0.292
vn 0.436 0.601 0.670
vn 0.405 0.663 0.629
vn 0.759 0.598 0.256
vn 0.562 0.600 0.570
vn -0.743 0.555 0.374
vn -0.886 0.326 0.330
vn -0.959 0.263 0.106
vn -0.567 0.569 0.596
vn 0.740 0.670 0.052
vn 0.642 0.696 -0.322
vn 0.810 0.533 -0.245
vn 0.744 0.666 0.052
vn -0.887 0.413 -0.206
vn -0.673 0.174 -0.719
vn -0.253 0.261 -0.931
vn -0.311 0.299 -0.902
vn 0.059 0.393 -0.918
vn 0.059 0.394 -0.917
vn 0.629 0.478 -0.613
vn 0.373 0.479 -0.795
vn 0.335 0.420 -0.843
vn 0.603 0.516 -0.608
vn -0.360 0.731 0.580
vn 0.452 0.105 0.886
vn 0.123 0.501 0.856
vn 0.616 -0.019 0.788
vn -0.706 0.594 -0.387
vn -0.627 0.678 -0.383
vn -0.053 0.848 0.528
vn 0.537 0.369 0.759
vn -0.282 0.783 0.554
vn 0.075 0.801 0.594
vn -0.149 0.856 0.496
vn 0.422 0.870 0.254
vn -0.685 0.727 0.048
vn -0.304 0.786 0.539
vn -0.331 0.928 0.170
vn -0.180 0.982 -0.051
vn 0.012 1.000 -0.022
vn -0.002 0.998 -0.055
vn 0.464 0.826 -0.319
vn 0.375 0.922 -0.099
vn -0.707 0.701 -0.095
vn -0.327 0.685 -0.651
vn -0.212 0.743 -0.634
vn 0.067 0.577 -0.814
vn 0.246 0.701 -0.669
vn 0.291 0.684 -0.669
vn -0.513 0.634 0.579
vn 0.239 0.970 -0.042
vn -0.456 0.819 0.348
vn 0.524 0.730 -0.438
vn 0.039 0.924 0.380
vn 0.229 0.856 0.463
vn 0.648 0.332 -0.685
vn 0.066 0.983 0.173
vn 0.504 0.856 -0.115
vn 0.679 0.524 -0.514
vn -0.223 0.067 0.973
vn 0.019 0.985 0.170
vn -0.478 -0.791 0.382
vn -0.347 -0.862 -0.369
vn -0.243 -0.954 -0.175
vn -0.955 -0.234 0.182
vn 0.209 -0.893 -0.399
vn -0.222 -0.925 0.310
vn 0.730 -0.151 -0.667
vn -0.017 -0.977 -0.215
vn 0.269 -0.726 -0.633
vn -0.015 -0.985 -0.170
vn 0.548 -0.564 -0.619
vn 0.588 -0.359 -0.725

# Facets
f 1//1 3//1 2//1
f 4//2 2//2 3//2
f 5//3 3//3 1//3
f 5//4 4//4 3//4
f 1//5 2//5 6//5
f 6//6 2//6 4//6
f 5//7 1//7 6//7
f 6//8 4//8 5//8
f 7//9 9//9 8//9
f 10//10 8//10 9//10
f 11//11 9//11 7//11
f 11//12 10//12 9//12
f 12//13 8//13 13//13
f 12//14 7//14 8//14
f 14//15 10//15 15//15
f 8//16 10//16 14//16
f 13//17 8//17 14//17
f 16//18 14//18 15//18
f 17//19 19//19 18//19
f 20//20 11//20 19//20
f 19//21 11//21 12//21
f 12//22 11//22 7//22
f 12//23 18//23 19//23
f 10//24 11//24 15//24
f 15//25 11//25 20//25
f 15//26 20//26 21//26
f 15//27 22//27 16//27
f 23//28 22//28 15//28
f 21//29 23//29 15//29
f 24//30 22//30 23//30
f 17//31 25//31 19//31
f 17//32 26//32 25//32
f 27//33 20//33 19//33
f 25//34 27//34 19//34
f 28//35 21//35 20//35
f 27//36 28//36 20//36
f 29//37 23//37 21//37
f 28//38 29//38 21//38
f 23//39 30//39 24//39
f 23//40 29//40 30//40
f 31//41 25//41 26//41
f 32//42 31//42 33//42
f 25//43 31//43 32//43
f 27//44 25//44 32//44
f 28//45 35//45 34//45
f 32//46 35//46 28//46
f 27//47 32//47 28//47
f 34//48 29//48 28//48
f 34//49 36//49 29//49
f 36//50 30//50 29//50
f 37//51 32//51 33//51
f 37//52 35//52 32//52
f 38//53 40//53 39//53
f 41//54 39//54 40//54
f 42//55 40//55 38//55
f 42//56 41//56 40//56
f 43//57 13//57 44//57
f 43//58 12//58 13//58
f 13//59 14//59 45//59
f 44//60 13//60 45//60
f 16//61 45//61 14//61
f 16//62 46//62 45//62
f 47//63 18//63 48//63
f 47//64 17//64 18//64
f 12//65 43//65 49//65
f 49//66 43//66 50//66
f 18//67 12//67 49//67
f 49//68 51//68 48//68
f 48//69 18//69 49//69
f 49//70 50//70 52//70
f 46//71 16//71 53//71
f 16//72 22//72 53//72
f 24//73 53//73 22//73
f 24//74 54//74 53//74
f 26//75 17//75 47//75
f 26//76 47//76 55//76
f 49//77 56//77 51//77
f 56//78 57//78 51//78
f 52//79 58//79 49//79
f 58//80 56//80 49//80
f 59//81 60//81 30//81
f 30//82 60//82 54//82
f 30//83 54//83 24//83
f 61//84 60//84 59//84
f 26//85 62//85 31//85
f 63//86 62//86 26//86
f 55//87 63//87 26//87
f 57//88 56//88 64//88
f 62//89 33//89 31//89
f 65//90 34//90 35//90
f 64//91 56//91 58//91
f 65//92 66//92 34//92
f 34//93 66//93 67//93
f 34//94 67//94 36//94
f 36//95 59//95 30//95
f 68//96 59//96 36//96
f 67//97 68//97 36//97
f 68//98 61//98 59//98
f 69//99 62//99 63//99
f 69//100 33//100 62//100
f 37//101 33//101 69//101
f 70//102 37//102 69//102
f 37//103 65//103 35//103
f 71//104 65//104 37//104
f 70//105 71//105 37//105
f 71//106 66//106 65//106
f 72//107 74//107 73//107
f 39//108 74//108 38//108
f 73//109 74//109 39//109
f 75//110 73//110 39//110
f 76//111 41//111 77//111
f 39//112 41//112 76//112
f 75//113 39//113 76//113
f 78//114 76//114 77//114
f 79//115 74//115 72//115
f 80//116 81//116 79//116
f 81//117 42//117 79//117
f 79//118 42//118 74//118
f 74//119 42//119 38//119
f 41//120 42//120 77//120
f 77//121 42//121 81//121
f 77//122 81//122 82//122
f 77//123 83//123 78//123
f 77//124 82//124 83//124
f 84//125 81//125 80//125
f 84//126 82//126 81//126
f 84//127 85//127 82//127
f 85//128 83//128 82//128
f 43//129 44//129 86//129
f 87//130 44//130 45//130
f 87//131 86//131 44//131
f 87//132 45//132 46//132
f 47//133 48//133 88//133
f 50//134 43//134 86//134
f 48//135 51//135 88//135
f 89//136 91//136 90//136
f 92//137 91//137 52//137
f 52//138 91//138 89//138
f 87//139 92//139 52//139
f 52//140 50//140 86//140
f 86//141 87//141 52//141
f 87//142 46//142 92//142
f 92//143 46//143 53//143
f 92//144 53//144 93//144
f 54//145 93//145 53//145
f 54//146 94//146 93//146
f 95//147 88//147 96//147
f 47//148 88//148 95//148
f 55//149 47//149 95//149
f 97//150 89//150 96//150
f 96//151 89//151 90//151
f 57//152 97//152 96//152
f 96//153 88//153 51//153
f 51//154 57//154 96//154
f 58//155 52//155 97//155
f 52//156 89//156 97//156
f 60//157 98//157 54//157
f 54//158 98//158 99//158
f 54//159 99//159 94//159
f 98//160 60//160 61//160
f 63//161 55//161 95//161
f 63//162 95//162 100//162
f 97//163 57//163 64//163
f 64//164 58//164 97//164
f 101//165 67//165 66//165
f 99//166 98//166 102//166
f 102//167 98//167 67//167
f 67//168 98//168 68//168
f 67//169 101//169 102//169
f 98//170 61//170 68//170
f 103//171 63//171 100//171
f 103//172 69//172 63//172
f 104//173 70//173 69//173
f 104//174 69//174 103//174
f 105//175 71//175 70//175
f 105//176 70//176 104//176
f 71//177 101//177 66//177
f 106//178 101//178 71//178
f 105//179 106//179 71//179
f 106//180 102//180 101//180
f 72//181 73//181 107//181
f 73//182 108//182 107//182
f 109//183 108//183 73//183
f 75//184 109//184 73//184
f 75//185 76//185 110//185
f 109//186 75//186 110//186
f 78//187 110//187 76//187
f 78//188 111//188 110//188
f 79//189 72//189 107//189
f 112//190 80//190 113//190
f 80//191 79//191 113//191
f 113//192 79//192 108//192
f 108//193 79//193 107//193
f 114//194 112//194 115//194
f 112//195 113//195 115//195
f 111//196 114//196 115//196
f 83//197 114//197 111//197
f 78//198 83//198 111//198
f 84//199 80//199 112//199
f 112//200 85//200 84//200
f 112//201 114//201 85//201
f 114//202 83//202 85//202
f 90//203 91//203 116//203
f 117//204 91//204 92//204
f 117//205 116//205 91//205
f 118//206 92//206 93//206
f 118//207 117//207 92//207
f 118//208 93//208 94//208
f 95//209 96//209 119//209
f 119//210 96//210 120//210
f 96//211 90//211 120//211
f 120//212 90//212 121//212
f 121//213 90//213 116//213
f 116//214 117//214 121//214
f 117//215 122//215 121//215
f 123//216 122//216 124//216
f 124//217 122//217 117//217
f 124//218 117//218 118//218
f 124//219 94//219 99//219
f 124//220 118//220 94//220
f 125//221 119//221 126//221
f 95//222 119//222 125//222
f 100//223 95//223 125//223
f 119//224 120//224 126//224
f 124//225 127//225 123//225
f 127//226 128//226 123//226
f 127//227 99//227 102//227
f 127//228 124//228 99//228
f 129//229 100//229 125//229
f 129//230 103//230 100//230
f 130//231 104//231 103//231
f 130//232 103//232 129//232
f 131//233 105//233 104//233
f 131//234 104//234 130//234
f 106//235 128//235 127//235
f 131//236 128//236 106//236
f 105//237 131//237 106//237
f 127//238 102//238 106//238
f 108//239 109//239 132//239
f 133//240 109//240 110//240
f 133//241 132//241 109//241
f 133//242 110//242 111//242
f 113//243 108//243 132//243
f 132//244 115//244 113//244
f 132//245 133//245 115//245
f 133//246 111//246 115//246
f 120//247 121//247 134//247
f 135//248 121//248 122//248
f 135//249 134//249 121//249
f 135//250 122//250 123//250
f 125//251 126//251 136//251
f 134//252 126//252 120//252
f 136//253 126//253 134//253
f 137//254 136//254 134//254
f 134//255 135//255 138//255
f 134//256 138//256 137//256
f 138//257 123//257 128//257
f 138//258 135//258 123//258
f 129//259 125//259 136//259
f 136//260 130//260 129//260
f 136//261 137//261 130//261
f 137//262 131//262 130//262
f 137//263 138//263 131//263
f 138//264 128//264 131//264
f 139//265 141//265 140//265
f 142//266 141//266 143//266
f 142//267 140//267 141//267
f 144//268 142//268 143//268
f 139//269 145//269 141//269
f 139//270 146//270 145//270
f 143//271 148//271 147//271
f 145//272 148//272 143//272
f 141//273 145//273 143//273
f 147//274 144//274 143//274
f 149//275 145//275 146//275
f 149//276 148//276 145//276
f 139//277 140//277 150//277
f 151//278 140//278 142//278
f 151//279 150//279 140//279
f 151//280 142//280 144//280
f 146//281 150//281 152//281
f 146//282 139//282 150//282
f 152//283 147//283 148//283
f 151//284 147//284 152//284
f 150//285 151//285 152//285
f 151//286 144//286 147//286
f 149//287 146//287 152//287
f 152//288 148//288 149//288

# Thankyou for using Spin3D

