# Created using Spin3D

# Vertex Array
v 5.758 -34.594 29.690
v 5.756 -34.594 29.687
v 5.756 -34.595 29.689
v 5.754 -34.594 29.689
v 5.755 -34.594 29.691
v 5.758 -34.592 29.689
v 5.755 -34.592 29.688
v 5.754 -34.592 29.690
v 5.756 -34.593 29.691
v 5.756 -34.592 29.690
v 2.251 -26.893 60.859
v 2.534 -26.639 61.056
v 2.532 -27.006 60.940
v 3.392 -26.325 60.699
v 2.512 -26.587 60.167
v 2.067 -25.780 60.303
v 3.119 -25.394 61.171
v 4.230 -25.492 61.187
v 0.590 -24.129 57.228
v 1.074 -24.069 58.757
v 1.822 -25.480 58.379
v 3.904 -25.794 58.672
v 5.472 -25.039 60.029
v 6.538 -24.866 57.903
v 7.439 -24.211 58.757
v 1.292 -24.546 56.215
v 0.221 -23.013 55.650
v 2.845 -25.255 56.807
v 5.158 -24.744 56.112
v 8.596 -23.794 57.386
v 7.878 -24.189 56.180
v 9.432 -23.689 56.138
v 1.092 -23.628 54.838
v 2.813 -24.125 54.930
v 1.817 -22.910 54.004
v 7.097 -23.437 54.665
v 4.904 -23.669 54.345
v 9.145 -23.404 55.321
v 3.697 -22.401 53.567
v 6.101 -17.989 29.027
v 6.189 -17.866 29.017
v 6.154 -17.992 29.003
v 6.337 -17.836 28.904
v 6.313 -17.799 28.871
v 2.425 -23.306 60.188
v 3.530 -23.960 61.286
v 4.307 -24.593 61.431
v 4.923 -24.920 61.155
v 5.519 -23.829 60.788
v 0.136 -22.424 57.105
v 1.013 -22.189 58.545
v 7.266 -23.154 59.412
v 8.298 -23.419 58.426
v 8.809 -22.165 57.690
v -0.183 -21.767 55.818
v 2.809 -22.160 56.072
v 2.808 -22.158 56.072
v 2.809 -22.159 56.073
v 2.811 -22.158 56.072
v 9.810 -23.038 56.389
v 10.078 -23.274 55.704
v 10.218 -22.849 55.746
v 0.755 -22.470 54.358
v 0.312 -21.061 54.763
v 2.809 -22.158 56.071
v 5.746 -22.635 53.652
v 7.071 -22.097 53.782
v 8.627 -22.197 54.656
v 9.888 -22.818 55.342
v 1.864 -21.138 53.634
v 3.686 -20.582 53.151
v 5.594 -21.016 53.340
v 6.129 -17.679 29.000
v 6.201 -17.629 29.008
v 6.126 -17.826 29.007
v 6.398 -17.559 28.947
v 6.535 -17.590 28.840
v 6.733 -17.477 28.635
v 6.881 -17.277 28.620
v 6.389 -17.505 28.807
v 6.841 -17.172 28.484
v 6.749 -17.376 28.547
v 7.045 -17.177 28.374
v 7.105 -17.097 28.408
v 7.059 -17.087 28.334
v 7.201 -16.981 28.284
v 3.569 -22.932 60.953
v 4.527 -23.071 61.054
v 0.567 -20.859 57.496
v 2.198 -20.198 58.456
v 4.018 -21.324 60.012
v 6.108 -21.665 59.924
v 7.762 -21.403 58.931
v 8.172 -20.392 57.979
v 0.095 -20.419 56.062
v 0.897 -19.456 56.923
v 2.809 -22.157 56.072
v 9.516 -21.964 55.841
v 8.511 -20.261 56.573
v 0.448 -19.375 54.916
v 7.398 -20.941 53.925
v 8.239 -20.434 54.970
v 1.293 -19.331 54.060
v 2.939 -19.205 53.471
v 4.621 -19.423 53.338
v 6.370 -19.246 54.091
v 6.196 -17.565 28.966
v 6.420 -17.349 28.856
v 6.535 -17.298 28.862
v 6.728 -17.276 28.761
v 7.036 -17.026 28.526
v 7.087 -16.958 28.360
v 6.760 -17.111 28.601
v 7.189 -16.917 28.351
v 7.006 -16.938 28.504
v 3.902 -19.498 58.910
v 5.529 -19.358 58.752
v 7.168 -20.131 58.769
v 0.870 -18.618 55.698
v 2.089 -18.177 56.690
v 3.952 -18.102 57.630
v 5.649 -17.787 57.365
v 6.105 -17.459 56.160
v 7.149 -18.865 57.383
v 1.187 -18.281 54.679
v 2.083 -17.507 55.259
v 7.292 -18.718 55.600
v 5.927 -17.710 54.919
v 2.411 -17.918 54.207
v 4.368 -17.910 54.103
v 6.724 -17.083 28.709
v 6.845 -17.054 28.675
v 3.482 -17.072 56.014
v 4.861 -17.051 56.510
v 3.375 -17.084 54.846
v 4.752 -16.966 55.329
v 4.564 -8.373 46.180
v 4.564 -8.373 46.178
v 4.564 -8.371 46.180
v 4.566 -8.372 46.178
v 4.566 -8.371 46.181
v 4.567 -8.373 46.180
v 4.564 -8.373 46.182
v 4.566 -8.374 46.182
v 4.564 -8.375 46.180
v 4.566 -8.375 46.180

# Normal Array
vn 0.270 -0.904 -0.333
vn -0.182 -0.880 -0.438
vn 0.165 -0.977 0.136
vn -0.301 -0.953 0.029
vn 0.526 0.378 -0.762
vn 0.801 -0.212 -0.559
vn -0.487 -0.154 -0.860
vn -0.803 0.394 -0.446
vn 0.818 0.179 0.547
vn 0.503 -0.425 0.752
vn -0.814 -0.371 0.447
vn -0.521 0.134 0.843
vn 0.178 0.980 -0.087
vn -0.246 0.969 0.005
vn 0.261 0.923 0.283
vn -0.157 0.915 0.373
vn -0.367 -0.278 0.887
vn 0.453 -0.272 0.849
vn -0.213 -0.861 -0.462
vn 0.485 -0.763 -0.427
vn -0.669 0.249 0.700
vn -0.686 0.231 0.690
vn 0.457 -0.292 0.840
vn -0.054 -0.464 0.884
vn -0.816 -0.507 0.278
vn -0.058 -0.859 -0.509
vn -0.873 -0.487 0.035
vn -0.805 -0.366 -0.467
vn -0.879 -0.476 0.038
vn 0.570 -0.759 0.315
vn 0.500 -0.860 -0.099
vn 0.357 -0.928 0.104
vn 0.364 -0.919 -0.149
vn 0.472 -0.866 0.166
vn -0.661 -0.734 -0.155
vn -0.744 -0.616 -0.261
vn -0.116 -0.970 -0.214
vn -0.291 -0.902 -0.318
vn 0.253 -0.932 -0.258
vn 0.107 -0.937 -0.332
vn 0.486 -0.862 0.147
vn 0.464 -0.885 0.013
vn 0.201 -0.955 -0.219
vn 0.307 -0.943 0.126
vn -0.723 -0.618 -0.307
vn -0.157 -0.677 -0.719
vn -0.211 -0.827 -0.521
vn -0.193 -0.842 -0.504
vn 0.165 -0.832 -0.530
vn 0.039 -0.851 -0.524
vn 0.034 -0.856 -0.516
vn 0.184 -0.839 -0.511
vn 0.177 -0.843 -0.509
vn 0.270 -0.876 -0.400
vn -0.017 -0.614 -0.789
vn -0.097 -0.586 -0.805
vn 0.386 -0.210 0.898
vn 0.619 -0.258 0.742
vn -0.403 -0.268 -0.875
vn 0.103 -0.620 -0.778
vn -0.660 0.130 0.740
vn -0.659 0.130 0.741
vn 0.269 -0.274 0.923
vn -0.037 -0.259 0.965
vn -0.200 -0.022 0.979
vn 0.436 0.064 0.897
vn -0.856 0.030 0.516
vn -0.926 -0.225 0.302
vn -0.756 0.139 0.640
vn -0.740 0.052 0.671
vn 0.602 -0.708 0.368
vn 0.599 -0.349 0.721
vn 0.608 -0.344 0.716
vn 0.656 -0.419 0.628
vn 0.841 -0.310 0.443
vn 0.702 0.125 0.701
vn -0.966 -0.254 0.047
vn -0.946 -0.316 0.073
vn -0.576 -0.646 0.501
vn 0.535 -0.672 0.512
vn 0.699 -0.586 0.411
vn 0.677 -0.573 0.462
vn 0.703 -0.572 0.422
vn 0.697 -0.219 0.683
vn 0.926 -0.183 0.331
vn 0.840 -0.319 0.438
vn -0.759 -0.425 -0.493
vn -0.888 -0.155 -0.433
vn -0.830 -0.198 -0.522
vn -0.603 -0.480 -0.637
vn -0.444 -0.450 -0.774
vn 0.177 -0.643 -0.745
vn 0.575 -0.504 -0.644
vn 0.291 -0.522 -0.802
vn 0.400 -0.499 -0.769
vn 0.290 -0.363 -0.885
vn 0.287 -0.869 -0.404
vn 0.391 -0.466 -0.794
vn 0.306 -0.355 -0.883
vn 0.754 -0.185 -0.630
vn -0.586 0.048 -0.809
vn -0.377 -0.180 -0.909
vn -0.171 -0.197 -0.965
vn -0.187 -0.220 -0.957
vn -0.027 -0.541 -0.841
vn 0.019 -0.187 -0.982
vn 0.046 -0.223 -0.974
vn 0.165 -0.172 -0.971
vn -0.155 0.050 0.987
vn -0.085 0.135 0.987
vn -0.142 0.045 0.989
vn 0.293 0.021 0.956
vn 0.748 -0.481 0.457
vn 0.617 -0.306 0.725
vn 0.573 -0.208 0.793
vn 0.740 -0.517 0.430
vn -0.585 -0.024 -0.811
vn -0.587 0.012 -0.809
vn -0.578 -0.028 -0.816
vn -0.584 -0.026 -0.812
vn -0.585 -0.011 -0.811
vn 0.058 -0.639 -0.767
vn 0.087 -0.661 -0.745
vn -0.003 -0.655 -0.756
vn 0.765 -0.542 0.347
vn 0.754 -0.633 0.176
vn -0.563 -0.004 -0.826
vn -0.294 -0.341 -0.893
vn -0.039 -0.393 -0.919
vn 0.793 -0.607 0.048
vn -0.595 0.269 0.758
vn 0.013 0.239 0.971
vn -0.055 0.310 0.949
vn 0.375 0.172 0.911
vn -0.857 0.110 0.504
vn -0.578 0.377 0.724
vn -0.566 0.369 0.737
vn -0.429 0.416 0.802
vn -0.585 0.525 0.618
vn -0.017 0.509 0.861
vn 0.122 0.534 0.836
vn 0.416 0.237 0.878
vn 0.570 0.166 0.805
vn 0.502 0.094 0.860
vn 0.754 -0.033 0.656
vn 0.806 0.198 0.558
vn -0.848 0.359 0.389
vn -0.921 0.165 0.354
vn -0.942 0.139 0.304
vn -0.553 0.480 0.681
vn -0.581 0.421 0.697
vn 0.585 0.455 0.671
vn 0.834 0.414 0.364
vn 0.861 0.350 0.368
vn 0.924 0.291 0.250
vn 0.675 0.474 0.566
vn -0.931 0.241 -0.275
vn -0.973 0.098 -0.211
vn -0.547 0.683 -0.484
vn 0.594 0.652 -0.470
vn 0.488 -0.030 -0.872
vn 0.805 0.560 -0.197
vn 0.743 0.272 -0.611
vn 0.591 0.583 -0.558
vn 0.681 0.271 -0.680
vn 0.656 0.572 -0.492
vn -0.710 0.120 -0.694
vn -0.588 0.005 -0.809
vn -0.276 0.073 -0.958
vn -0.343 0.112 -0.933
vn 0.114 0.068 -0.991
vn -0.052 0.199 -0.979
vn 0.307 0.031 -0.951
vn 0.287 0.265 -0.921
vn 0.367 0.223 -0.903
vn 0.592 0.426 -0.684
vn -0.424 0.476 0.771
vn -0.114 0.543 0.832
vn -0.325 0.636 0.700
vn 0.234 0.185 0.954
vn 0.585 -0.161 0.795
vn 0.459 0.045 0.887
vn 0.659 -0.226 0.717
vn 0.670 -0.142 0.728
vn -0.656 0.163 -0.737
vn -0.658 0.379 -0.651
vn -0.695 0.318 -0.645
vn -0.704 0.337 -0.625
vn -0.658 0.342 -0.671
vn -0.373 0.868 -0.329
vn -0.626 0.645 -0.439
vn 0.572 0.374 0.730
vn 0.796 -0.190 0.575
vn 0.765 -0.251 0.593
vn -0.614 0.277 -0.739
vn -0.498 0.269 -0.824
vn -0.322 0.659 -0.680
vn 0.868 -0.277 0.411
vn -0.399 0.455 0.796
vn 0.114 0.473 0.874
vn 0.038 0.518 0.855
vn 0.451 0.317 0.834
vn 0.220 0.485 0.846
vn 0.631 0.381 0.676
vn -0.848 0.428 0.311
vn -0.607 0.649 0.458
vn -0.474 0.565 0.675
vn -0.381 0.597 0.706
vn -0.429 0.619 0.658
vn 0.013 0.676 0.737
vn -0.006 0.662 0.749
vn 0.531 0.746 0.403
vn 0.412 0.585 0.698
vn 0.324 0.701 0.636
vn 0.761 0.603 0.240
vn 0.584 0.603 0.543
vn -0.834 0.546 -0.079
vn -0.907 0.410 0.093
vn -0.559 0.750 0.354
vn -0.668 0.743 0.038
vn 0.747 0.655 0.114
vn 0.651 0.721 -0.239
vn 0.826 0.528 -0.197
vn 0.743 0.659 0.114
vn -0.683 0.319 -0.657
vn -0.408 0.800 -0.440
vn -0.433 0.425 -0.795
vn -0.339 0.358 -0.870
vn -0.012 0.450 -0.893
vn -0.048 0.481 -0.876
vn 0.652 0.497 -0.573
vn 0.343 0.520 -0.782
vn 0.309 0.470 -0.827
vn 0.615 0.548 -0.568
vn -0.360 0.731 0.580
vn 0.452 0.105 0.886
vn 0.123 0.501 0.856
vn 0.616 -0.019 0.788
vn -0.706 0.594 -0.387
vn -0.627 0.678 -0.383
vn -0.053 0.848 0.528
vn 0.537 0.369 0.759
vn -0.320 0.754 0.574
vn -0.033 0.742 0.669
vn -0.217 0.794 0.569
vn 0.383 0.845 0.374
vn -0.305 0.952 0.018
vn -0.455 0.806 0.380
vn -0.042 0.996 0.076
vn -0.084 0.996 -0.003
vn 0.458 0.856 -0.239
vn 0.321 0.946 0.038
vn -0.403 0.803 -0.439
vn -0.043 0.639 -0.768
vn 0.157 0.758 -0.632
vn 0.240 0.732 -0.638
vn -0.947 0.220 -0.236
vn 0.302 0.878 -0.371
vn -0.252 0.647 -0.720
vn 0.959 0.262 -0.111
vn -0.951 0.242 0.190
vn -0.272 0.734 0.622
vn 0.315 0.364 0.876
vn 0.950 0.109 0.293
vn -0.951 -0.226 -0.210
vn 0.304 -0.376 -0.875
vn -0.295 -0.724 -0.624
vn 0.954 -0.132 -0.269
vn -0.959 -0.184 0.216
vn -0.270 -0.641 0.718
vn 0.275 -0.886 0.374
vn 0.946 -0.301 0.124

# Facets
f 1//1 3//1 2//1
f 4//2 2//2 3//2
f 5//3 3//3 1//3
f 5//4 4//4 3//4
f 6//5 2//5 7//5
f 6//6 1//6 2//6
f 4//7 7//7 2//7
f 4//8 8//8 7//8
f 9//9 1//9 6//9
f 9//10 5//10 1//10
f 5//11 8//11 4//11
f 5//12 9//12 8//12
f 6//13 7//13 10//13
f 10//14 7//14 8//14
f 9//15 6//15 10//15
f 10//16 8//16 9//16
f 11//17 13//17 12//17
f 14//18 12//18 13//18
f 15//19 13//19 11//19
f 15//20 14//20 13//20
f 16//21 12//21 17//21
f 16//22 11//22 12//22
f 14//23 17//23 12//23
f 14//24 18//24 17//24
f 19//25 21//25 20//25
f 22//26 15//26 21//26
f 21//27 15//27 16//27
f 16//28 15//28 11//28
f 16//29 20//29 21//29
f 14//30 23//30 18//30
f 22//31 23//31 14//31
f 24//32 23//32 22//32
f 15//33 22//33 14//33
f 25//34 23//34 24//34
f 19//35 26//35 21//35
f 19//36 27//36 26//36
f 28//37 22//37 21//37
f 26//38 28//38 21//38
f 29//39 24//39 22//39
f 28//40 29//40 22//40
f 24//41 30//41 25//41
f 31//42 30//42 24//42
f 29//43 31//43 24//43
f 32//44 30//44 31//44
f 33//45 26//45 27//45
f 34//46 33//46 35//46
f 26//47 33//47 34//47
f 28//48 26//48 34//48
f 29//49 37//49 36//49
f 34//50 37//50 29//50
f 28//51 34//51 29//51
f 36//52 31//52 29//52
f 36//53 38//53 31//53
f 38//54 32//54 31//54
f 39//55 34//55 35//55
f 39//56 37//56 34//56
f 40//57 42//57 41//57
f 43//58 41//58 42//58
f 44//59 42//59 40//59
f 44//60 43//60 42//60
f 45//61 17//61 46//61
f 45//62 16//62 17//62
f 47//63 18//63 48//63
f 17//64 18//64 47//64
f 46//65 17//65 47//65
f 49//66 47//66 48//66
f 50//67 20//67 51//67
f 50//68 19//68 20//68
f 16//69 45//69 20//69
f 45//70 51//70 20//70
f 48//71 18//71 23//71
f 52//72 25//72 53//72
f 52//73 23//73 25//73
f 49//74 23//74 52//74
f 48//75 23//75 49//75
f 54//76 52//76 53//76
f 27//77 19//77 50//77
f 27//78 50//78 55//78
f 56//79 58//79 57//79
f 58//80 56//80 59//80
f 53//81 25//81 30//81
f 60//82 32//82 61//82
f 60//83 30//83 32//83
f 54//84 30//84 60//84
f 53//85 30//85 54//85
f 62//86 60//86 61//86
f 27//87 63//87 33//87
f 64//88 63//88 27//88
f 55//89 64//89 27//89
f 56//90 57//90 65//90
f 63//91 35//91 33//91
f 66//92 36//92 37//92
f 56//93 65//93 59//93
f 66//94 67//94 36//94
f 36//95 67//95 68//95
f 36//96 68//96 38//96
f 38//97 61//97 32//97
f 69//98 61//98 38//98
f 68//99 69//99 38//99
f 69//100 62//100 61//100
f 70//101 63//101 64//101
f 70//102 35//102 63//102
f 39//103 35//103 70//103
f 71//104 39//104 70//104
f 39//105 66//105 37//105
f 72//106 66//106 39//106
f 71//107 72//107 39//107
f 72//108 67//108 66//108
f 73//109 75//109 74//109
f 41//110 75//110 40//110
f 74//111 75//111 41//111
f 76//112 74//112 41//112
f 77//113 43//113 78//113
f 41//114 43//114 77//114
f 76//115 41//115 77//115
f 79//116 77//116 78//116
f 80//117 75//117 73//117
f 81//118 82//118 80//118
f 82//119 44//119 80//119
f 80//120 44//120 75//120
f 75//121 44//121 40//121
f 43//122 44//122 78//122
f 78//123 44//123 82//123
f 78//124 82//124 83//124
f 78//125 84//125 79//125
f 78//126 83//126 84//126
f 85//127 82//127 81//127
f 85//128 83//128 82//128
f 85//129 86//129 83//129
f 86//130 84//130 83//130
f 45//131 46//131 87//131
f 88//132 46//132 47//132
f 88//133 87//133 46//133
f 88//134 47//134 49//134
f 50//135 51//135 89//135
f 89//136 51//136 90//136
f 51//137 45//137 90//137
f 90//138 45//138 91//138
f 91//139 45//139 87//139
f 87//140 88//140 91//140
f 88//141 92//141 91//141
f 88//142 49//142 92//142
f 92//143 49//143 52//143
f 92//144 52//144 93//144
f 54//145 93//145 52//145
f 54//146 94//146 93//146
f 95//147 89//147 96//147
f 50//148 89//148 95//148
f 55//149 50//149 95//149
f 58//150 97//150 57//150
f 96//151 89//151 90//151
f 58//152 59//152 97//152
f 60//153 98//153 54//153
f 54//154 98//154 99//154
f 54//155 99//155 94//155
f 98//156 60//156 62//156
f 64//157 55//157 95//157
f 64//158 95//158 100//158
f 57//159 97//159 65//159
f 59//160 65//160 97//160
f 101//161 68//161 67//161
f 99//162 98//162 102//162
f 102//163 98//163 68//163
f 68//164 98//164 69//164
f 68//165 101//165 102//165
f 98//166 62//166 69//166
f 103//167 64//167 100//167
f 103//168 70//168 64//168
f 104//169 71//169 70//169
f 104//170 70//170 103//170
f 105//171 72//171 71//171
f 105//172 71//172 104//172
f 72//173 101//173 67//173
f 106//174 101//174 72//174
f 105//175 106//175 72//175
f 106//176 102//176 101//176
f 73//177 74//177 107//177
f 74//178 108//178 107//178
f 109//179 108//179 74//179
f 76//180 109//180 74//180
f 76//181 77//181 110//181
f 109//182 76//182 110//182
f 79//183 110//183 77//183
f 79//184 111//184 110//184
f 80//185 73//185 107//185
f 112//186 81//186 113//186
f 81//187 80//187 113//187
f 113//188 80//188 108//188
f 108//189 80//189 107//189
f 114//190 112//190 115//190
f 112//191 113//191 115//191
f 111//192 114//192 115//192
f 84//193 114//193 111//193
f 79//194 84//194 111//194
f 85//195 81//195 112//195
f 112//196 86//196 85//196
f 112//197 114//197 86//197
f 114//198 84//198 86//198
f 90//199 91//199 116//199
f 117//200 91//200 92//200
f 117//201 116//201 91//201
f 118//202 92//202 93//202
f 118//203 117//203 92//203
f 118//204 93//204 94//204
f 95//205 96//205 119//205
f 119//206 96//206 120//206
f 96//207 90//207 120//207
f 120//208 90//208 121//208
f 121//209 90//209 116//209
f 116//210 117//210 121//210
f 117//211 122//211 121//211
f 123//212 122//212 124//212
f 124//213 122//213 117//213
f 124//214 117//214 118//214
f 124//215 94//215 99//215
f 124//216 118//216 94//216
f 100//217 119//217 125//217
f 100//218 95//218 119//218
f 120//219 126//219 119//219
f 126//220 125//220 119//220
f 124//221 127//221 123//221
f 127//222 128//222 123//222
f 127//223 99//223 102//223
f 127//224 124//224 99//224
f 103//225 100//225 125//225
f 129//226 125//226 126//226
f 103//227 125//227 129//227
f 104//228 103//228 129//228
f 130//229 105//229 104//229
f 130//230 104//230 129//230
f 106//231 128//231 127//231
f 130//232 128//232 106//232
f 105//233 130//233 106//233
f 127//234 102//234 106//234
f 108//235 109//235 131//235
f 132//236 109//236 110//236
f 132//237 131//237 109//237
f 132//238 110//238 111//238
f 113//239 108//239 131//239
f 131//240 115//240 113//240
f 131//241 132//241 115//241
f 132//242 111//242 115//242
f 120//243 121//243 133//243
f 134//244 121//244 122//244
f 134//245 133//245 121//245
f 134//246 122//246 123//246
f 126//247 133//247 135//247
f 126//248 120//248 133//248
f 133//249 134//249 136//249
f 133//250 136//250 135//250
f 136//251 123//251 128//251
f 136//252 134//252 123//252
f 129//253 126//253 135//253
f 135//254 130//254 129//254
f 135//255 136//255 130//255
f 136//256 128//256 130//256
f 137//257 139//257 138//257
f 140//258 139//258 141//258
f 140//259 138//259 139//259
f 142//260 140//260 141//260
f 143//261 139//261 137//261
f 143//262 141//262 139//262
f 143//263 144//263 141//263
f 144//264 142//264 141//264
f 137//265 138//265 145//265
f 146//266 138//266 140//266
f 146//267 145//267 138//267
f 146//268 140//268 142//268
f 143//269 137//269 145//269
f 145//270 144//270 143//270
f 145//271 146//271 144//271
f 146//272 142//272 144//272

# Thankyou for using Spin3D

