# Created using Spin3D

# Vertex Array
v 5.758 -34.594 29.690
v 5.756 -34.594 29.687
v 5.756 -34.595 29.689
v 5.754 -34.594 29.689
v 5.755 -34.594 29.691
v 5.758 -34.592 29.689
v 5.755 -34.592 29.688
v 5.754 -34.592 29.690
v 5.756 -34.593 29.691
v 5.756 -34.592 29.690
v 2.279 -26.944 60.863
v 2.563 -26.690 61.061
v 2.561 -27.061 60.943
v 3.423 -26.377 60.702
v 2.541 -26.633 60.171
v 2.088 -25.804 60.310
v 3.144 -25.434 61.180
v 4.263 -25.542 61.191
v 0.604 -24.036 57.205
v 1.077 -23.995 58.759
v 1.847 -25.486 58.376
v 3.934 -25.838 58.676
v 5.505 -25.086 60.035
v 6.569 -24.908 57.913
v 7.473 -24.250 58.766
v 1.317 -24.516 56.190
v 0.220 -22.837 55.586
v 2.875 -25.283 56.803
v 5.189 -24.785 56.119
v 8.628 -23.828 57.399
v 7.908 -24.227 56.196
v 9.462 -23.721 56.155
v 1.111 -23.567 54.789
v 2.841 -24.133 54.910
v 1.829 -22.855 53.944
v 7.129 -23.476 54.679
v 4.933 -23.700 54.343
v 9.176 -23.438 55.340
v 3.709 -22.384 53.527
v 6.318 -17.737 28.254
v 6.422 -17.705 28.474
v 6.655 -17.979 28.153
v 6.888 -17.894 28.211
v 6.729 -17.951 27.960
v 6.662 -17.708 27.931
v 7.030 -17.952 27.960
v 7.042 -17.751 27.812
v 2.412 -23.281 60.216
v 3.550 -23.994 61.302
v 4.338 -24.641 61.439
v 4.958 -24.970 61.159
v 5.550 -23.875 60.797
v 0.108 -22.149 57.078
v 0.963 -22.022 58.575
v 7.298 -23.195 59.423
v 8.333 -23.455 58.436
v 8.841 -22.201 57.702
v -0.218 -21.387 55.733
v 9.842 -23.067 56.404
v 10.110 -23.303 55.722
v 10.250 -22.876 55.763
v 0.751 -22.327 54.269
v 0.249 -20.710 54.615
v 5.772 -22.662 53.650
v 7.098 -22.128 53.788
v 8.656 -22.230 54.670
v 9.920 -22.848 55.361
v 1.827 -20.988 53.514
v 3.658 -20.512 53.063
v 5.596 -21.013 53.308
v 5.758 -17.376 28.767
v 6.038 -17.333 28.746
v 5.953 -17.540 28.626
v 6.566 -17.357 28.626
v 6.953 -17.570 28.391
v 7.256 -17.706 28.090
v 7.316 -17.353 28.248
v 5.967 -17.333 28.555
v 6.436 -17.364 28.125
v 7.324 -17.690 27.865
v 7.461 -17.349 27.999
v 6.912 -17.364 27.861
v 7.314 -17.355 27.828
v 3.574 -22.954 60.978
v 4.544 -23.109 61.072
v 0.464 -20.507 57.536
v 2.043 -20.028 58.545
v 3.977 -21.314 60.052
v 6.115 -21.700 59.945
v 7.788 -21.444 58.946
v 8.188 -20.430 57.992
v -0.007 -19.687 55.965
v 0.676 -19.026 57.090
v 9.547 -21.994 55.854
v 8.521 -20.291 56.581
v 0.255 -18.813 54.624
v 7.412 -20.962 53.920
v 8.248 -20.456 54.969
v 1.141 -18.990 53.816
v 2.830 -19.035 53.304
v 4.560 -19.355 53.244
v 6.325 -19.227 54.044
v 5.799 -17.261 28.774
v 6.122 -17.066 28.653
v 6.536 -17.022 28.642
v 7.009 -17.146 28.481
v 7.337 -17.006 28.226
v 6.735 -17.031 28.032
v 6.395 -16.991 28.333
v 6.830 -16.800 28.162
v 7.401 -17.021 27.988
v 7.126 -16.977 27.945
v 3.770 -19.439 58.967
v 5.444 -19.355 58.784
v 7.164 -20.166 58.788
v 0.540 -18.037 56.178
v 1.656 -17.870 56.911
v 3.670 -17.990 57.674
v 5.479 -17.760 57.372
v 5.943 -17.431 56.127
v 7.100 -18.884 57.391
v 0.480 -17.794 55.185
v 1.215 -17.153 55.761
v 7.243 -18.724 55.582
v 5.790 -17.664 54.851
v 0.890 -17.761 54.302
v 2.145 -17.597 53.925
v 4.188 -17.778 53.958
v 6.660 -16.802 28.436
v 6.991 -16.842 28.434
v 7.137 -16.785 28.186
v 2.807 -16.837 55.895
v 4.542 -16.963 56.472
v 1.589 -16.971 54.824
v 2.987 -16.825 54.618
v 4.442 -16.849 55.224
v 4.136 -8.194 45.132
v 4.132 -8.194 45.127
v 4.134 -8.193 45.129
v 4.132 -8.192 45.125
v 4.133 -8.193 45.126
v 4.131 -8.193 45.123
v 4.136 -8.194 45.131
v 4.139 -8.195 45.132
v 4.135 -8.194 45.127
v 4.137 -8.193 45.129
v 4.140 -8.194 45.132
v 4.135 -8.195 45.129
v 4.132 -8.194 45.127
v 4.138 -8.194 45.130

# Normal Array
vn 0.270 -0.904 -0.333
vn -0.182 -0.880 -0.438
vn 0.165 -0.977 0.136
vn -0.301 -0.953 0.029
vn 0.526 0.378 -0.762
vn 0.801 -0.212 -0.559
vn -0.487 -0.154 -0.860
vn -0.803 0.394 -0.446
vn 0.818 0.179 0.547
vn 0.503 -0.425 0.752
vn -0.814 -0.371 0.447
vn -0.521 0.134 0.843
vn 0.178 0.980 -0.087
vn -0.246 0.969 0.005
vn 0.261 0.923 0.283
vn -0.157 0.915 0.373
vn -0.367 -0.279 0.887
vn 0.452 -0.270 0.850
vn -0.223 -0.855 -0.468
vn 0.483 -0.760 -0.434
vn -0.666 0.241 0.706
vn -0.683 0.223 0.695
vn 0.456 -0.291 0.841
vn -0.054 -0.464 0.884
vn -0.827 -0.496 0.265
vn -0.069 -0.852 -0.518
vn -0.875 -0.483 0.030
vn -0.807 -0.361 -0.468
vn -0.884 -0.466 0.034
vn 0.571 -0.759 0.314
vn 0.500 -0.860 -0.102
vn 0.357 -0.929 0.101
vn 0.360 -0.920 -0.154
vn 0.474 -0.865 0.165
vn -0.689 -0.710 -0.148
vn -0.764 -0.592 -0.257
vn -0.133 -0.968 -0.212
vn -0.314 -0.894 -0.320
vn 0.254 -0.932 -0.259
vn 0.102 -0.937 -0.335
vn 0.488 -0.861 0.146
vn 0.467 -0.884 0.014
vn 0.202 -0.954 -0.221
vn 0.310 -0.942 0.127
vn -0.749 -0.594 -0.293
vn -0.171 -0.677 -0.716
vn -0.232 -0.821 -0.522
vn -0.214 -0.837 -0.504
vn 0.166 -0.831 -0.531
vn 0.034 -0.851 -0.525
vn 0.030 -0.854 -0.519
vn 0.187 -0.839 -0.511
vn 0.180 -0.842 -0.509
vn 0.274 -0.875 -0.400
vn -0.021 -0.614 -0.789
vn -0.096 -0.588 -0.803
vn -0.480 -0.808 0.340
vn 0.093 -0.724 0.684
vn -0.614 -0.712 -0.341
vn -0.648 -0.265 -0.714
vn 0.244 -0.905 0.348
vn -0.004 -0.989 -0.146
vn -0.314 -0.199 -0.929
vn -0.002 -0.593 -0.805
vn -0.646 0.118 0.754
vn -0.655 0.112 0.747
vn 0.270 -0.276 0.922
vn -0.035 -0.262 0.964
vn -0.194 -0.029 0.981
vn 0.437 0.060 0.897
vn -0.868 -0.004 0.496
vn -0.930 -0.225 0.289
vn -0.761 0.121 0.638
vn -0.742 0.019 0.670
vn 0.602 -0.709 0.367
vn 0.600 -0.349 0.720
vn 0.608 -0.345 0.715
vn 0.656 -0.419 0.627
vn 0.842 -0.309 0.442
vn 0.701 0.126 0.702
vn -0.967 -0.251 0.043
vn -0.953 -0.295 0.064
vn 0.699 -0.586 0.410
vn 0.678 -0.571 0.463
vn 0.704 -0.571 0.422
vn 0.696 -0.219 0.683
vn 0.926 -0.183 0.329
vn 0.840 -0.318 0.439
vn -0.772 -0.423 -0.475
vn -0.885 -0.183 -0.428
vn -0.851 -0.209 -0.482
vn -0.454 -0.453 -0.767
vn 0.179 -0.643 -0.745
vn 0.294 -0.522 -0.801
vn 0.402 -0.498 -0.768
vn 0.292 -0.365 -0.884
vn 0.291 -0.868 -0.403
vn 0.392 -0.467 -0.792
vn 0.307 -0.357 -0.882
vn 0.753 -0.189 -0.631
vn -0.573 -0.002 -0.820
vn -0.375 -0.208 -0.903
vn -0.158 -0.222 -0.962
vn -0.173 -0.241 -0.955
vn -0.023 -0.543 -0.840
vn 0.032 -0.199 -0.979
vn 0.061 -0.238 -0.969
vn 0.174 -0.182 -0.968
vn 0.149 -0.540 0.829
vn -0.249 -0.936 0.249
vn 0.088 -0.525 0.846
vn 0.178 -0.453 0.874
vn 0.489 -0.497 0.717
vn 0.258 -0.508 0.821
vn 0.252 -0.471 0.845
vn 0.539 -0.418 0.731
vn -0.680 -0.197 -0.706
vn -0.747 -0.171 -0.642
vn -0.677 -0.041 -0.735
vn -0.682 -0.038 -0.730
vn 0.684 -0.712 0.156
vn 0.519 -0.720 0.460
vn 0.813 -0.347 0.468
vn 0.868 -0.439 0.231
vn -0.477 0.172 -0.862
vn -0.297 0.023 -0.955
vn 0.272 -0.582 -0.767
vn 0.207 -0.101 -0.973
vn -0.083 0.099 -0.992
vn 0.758 -0.050 -0.650
vn -0.579 0.255 0.774
vn 0.020 0.230 0.973
vn -0.045 0.299 0.953
vn 0.377 0.168 0.911
vn -0.869 0.051 0.492
vn -0.577 0.324 0.749
vn -0.573 0.322 0.753
vn -0.395 0.384 0.835
vn -0.568 0.506 0.649
vn -0.006 0.493 0.870
vn 0.136 0.522 0.842
vn 0.419 0.235 0.877
vn 0.568 0.168 0.806
vn 0.500 0.095 0.861
vn 0.753 -0.032 0.657
vn 0.805 0.206 0.556
vn -0.886 0.245 0.394
vn -0.935 0.109 0.337
vn -0.957 0.081 0.278
vn -0.577 0.310 0.756
vn 0.833 0.416 0.365
vn 0.857 0.360 0.368
vn 0.922 0.300 0.247
vn 0.671 0.476 0.568
vn -0.941 0.158 -0.298
vn -0.982 0.004 -0.190
vn 0.491 -0.033 -0.871
vn 0.802 0.566 -0.194
vn 0.742 0.274 -0.612
vn 0.590 0.582 -0.560
vn 0.685 0.271 -0.676
vn 0.653 0.572 -0.495
vn -0.673 0.006 -0.740
vn -0.580 -0.076 -0.811
vn -0.244 0.021 -0.969
vn -0.289 0.045 -0.956
vn 0.138 0.047 -0.989
vn -0.005 0.158 -0.987
vn 0.319 0.022 -0.948
vn 0.302 0.255 -0.919
vn 0.391 0.209 -0.896
vn 0.598 0.423 -0.681
vn 0.090 -0.085 0.992
vn 0.191 0.270 0.944
vn -0.011 0.334 0.943
vn 0.220 -0.026 0.975
vn 0.404 -0.240 0.883
vn 0.318 -0.016 0.948
vn 0.478 -0.241 0.845
vn 0.609 0.012 0.793
vn -0.713 0.288 -0.639
vn -0.601 0.339 -0.723
vn -0.627 0.327 -0.707
vn -0.687 0.568 -0.454
vn -0.564 0.554 -0.612
vn -0.505 0.572 -0.646
vn 0.864 -0.022 0.502
vn 0.953 0.181 0.244
vn -0.475 0.188 -0.860
vn -0.253 0.551 -0.795
vn -0.248 0.334 -0.909
vn -0.085 0.255 -0.963
vn 0.751 0.116 -0.650
vn 0.202 0.379 -0.903
vn -0.352 0.439 0.827
vn 0.128 0.470 0.874
vn 0.069 0.505 0.860
vn 0.448 0.322 0.834
vn 0.226 0.484 0.846
vn 0.626 0.389 0.676
vn -0.886 0.243 0.395
vn -0.516 0.541 0.664
vn -0.440 0.491 0.752
vn -0.267 0.551 0.791
vn -0.377 0.602 0.704
vn 0.048 0.667 0.743
vn 0.041 0.662 0.749
vn 0.520 0.757 0.394
vn 0.408 0.600 0.688
vn 0.330 0.703 0.630
vn 0.749 0.619 0.238
vn 0.577 0.615 0.538
vn -0.729 0.653 0.203
vn -0.946 0.297 0.129
vn -0.971 0.235 -0.037
vn -0.483 0.648 0.589
vn 0.725 0.679 0.117
vn 0.643 0.736 -0.212
vn 0.817 0.543 -0.194
vn 0.732 0.671 0.117
vn -0.840 0.392 -0.375
vn -0.647 0.162 -0.745
vn -0.273 0.269 -0.924
vn -0.310 0.294 -0.904
vn 0.046 0.421 -0.906
vn 0.052 0.417 -0.908
vn 0.654 0.512 -0.558
vn 0.386 0.524 -0.759
vn 0.341 0.453 -0.824
vn 0.621 0.556 -0.553
vn -0.057 0.701 0.711
vn 0.356 0.163 0.920
vn 0.084 0.657 0.749
vn 0.561 0.158 0.812
vn -0.503 0.832 -0.234
vn -0.478 0.828 -0.291
vn -0.047 0.999 -0.021
vn 0.117 0.951 0.288
vn 0.718 0.680 0.150
vn 0.595 0.632 0.497
vn 0.011 0.782 -0.623
vn 0.217 0.759 -0.614
vn -0.179 0.784 0.595
vn 0.013 0.755 0.655
vn -0.136 0.800 0.585
vn 0.374 0.852 0.365
vn -0.613 0.785 -0.092
vn -0.206 0.793 0.573
vn -0.203 0.973 0.108
vn -0.105 0.994 -0.006
vn 0.043 0.995 0.088
vn 0.012 1.000 0.011
vn 0.462 0.861 -0.213
vn 0.329 0.942 0.060
vn -0.629 0.731 -0.265
vn -0.289 0.693 -0.661
vn -0.172 0.756 -0.632
vn 0.068 0.625 -0.778
vn 0.264 0.752 -0.604
vn 0.284 0.745 -0.603
vn -0.513 0.634 0.579
vn 0.239 0.970 -0.042
vn -0.456 0.819 0.348
vn 0.524 0.730 -0.438
vn 0.039 0.924 0.380
vn 0.229 0.856 0.463
vn 0.648 0.332 -0.685
vn 0.066 0.983 0.173
vn 0.504 0.856 -0.115
vn 0.679 0.524 -0.514
vn -0.223 0.067 0.973
vn 0.019 0.985 0.170
vn -0.478 -0.791 0.382
vn -0.347 -0.862 -0.369
vn -0.243 -0.954 -0.175
vn -0.955 -0.234 0.182
vn 0.209 -0.893 -0.399
vn -0.222 -0.925 0.310
vn 0.730 -0.151 -0.667
vn -0.017 -0.977 -0.215
vn 0.269 -0.726 -0.633
vn -0.015 -0.985 -0.170
vn 0.548 -0.564 -0.619
vn 0.588 -0.359 -0.725

# Facets
f 1//1 3//1 2//1
f 4//2 2//2 3//2
f 5//3 3//3 1//3
f 5//4 4//4 3//4
f 6//5 2//5 7//5
f 6//6 1//6 2//6
f 4//7 7//7 2//7
f 4//8 8//8 7//8
f 9//9 1//9 6//9
f 9//10 5//10 1//10
f 5//11 8//11 4//11
f 5//12 9//12 8//12
f 6//13 7//13 10//13
f 10//14 7//14 8//14
f 9//15 6//15 10//15
f 10//16 8//16 9//16
f 11//17 13//17 12//17
f 14//18 12//18 13//18
f 15//19 13//19 11//19
f 15//20 14//20 13//20
f 16//21 12//21 17//21
f 16//22 11//22 12//22
f 14//23 17//23 12//23
f 14//24 18//24 17//24
f 19//25 21//25 20//25
f 22//26 15//26 21//26
f 21//27 15//27 16//27
f 16//28 15//28 11//28
f 16//29 20//29 21//29
f 14//30 23//30 18//30
f 22//31 23//31 14//31
f 24//32 23//32 22//32
f 15//33 22//33 14//33
f 25//34 23//34 24//34
f 19//35 26//35 21//35
f 19//36 27//36 26//36
f 28//37 22//37 21//37
f 26//38 28//38 21//38
f 29//39 24//39 22//39
f 28//40 29//40 22//40
f 24//41 30//41 25//41
f 31//42 30//42 24//42
f 29//43 31//43 24//43
f 32//44 30//44 31//44
f 33//45 26//45 27//45
f 34//46 33//46 35//46
f 26//47 33//47 34//47
f 28//48 26//48 34//48
f 29//49 37//49 36//49
f 34//50 37//50 29//50
f 28//51 34//51 29//51
f 36//52 31//52 29//52
f 36//53 38//53 31//53
f 38//54 32//54 31//54
f 39//55 34//55 35//55
f 39//56 37//56 34//56
f 40//57 42//57 41//57
f 43//58 41//58 42//58
f 40//59 44//59 42//59
f 40//60 45//60 44//60
f 42//61 46//61 43//61
f 42//62 44//62 46//62
f 47//63 44//63 45//63
f 47//64 46//64 44//64
f 48//65 17//65 49//65
f 48//66 16//66 17//66
f 50//67 18//67 51//67
f 17//68 18//68 50//68
f 49//69 17//69 50//69
f 52//70 50//70 51//70
f 53//71 20//71 54//71
f 53//72 19//72 20//72
f 16//73 48//73 20//73
f 48//74 54//74 20//74
f 51//75 18//75 23//75
f 55//76 25//76 56//76
f 55//77 23//77 25//77
f 52//78 23//78 55//78
f 51//79 23//79 52//79
f 57//80 55//80 56//80
f 27//81 19//81 53//81
f 27//82 53//82 58//82
f 56//83 25//83 30//83
f 59//84 32//84 60//84
f 59//85 30//85 32//85
f 57//86 30//86 59//86
f 56//87 30//87 57//87
f 61//88 59//88 60//88
f 27//89 62//89 33//89
f 63//90 62//90 27//90
f 58//91 63//91 27//91
f 35//92 33//92 62//92
f 64//93 36//93 37//93
f 64//94 65//94 36//94
f 36//95 65//95 66//95
f 36//96 66//96 38//96
f 38//97 60//97 32//97
f 67//98 60//98 38//98
f 66//99 67//99 38//99
f 67//100 61//100 60//100
f 68//101 62//101 63//101
f 68//102 35//102 62//102
f 39//103 35//103 68//103
f 69//104 39//104 68//104
f 39//105 64//105 37//105
f 70//106 64//106 39//106
f 69//107 70//107 39//107
f 70//108 65//108 64//108
f 71//109 73//109 72//109
f 41//110 73//110 40//110
f 72//111 73//111 41//111
f 74//112 72//112 41//112
f 75//113 43//113 76//113
f 41//114 43//114 75//114
f 74//115 41//115 75//115
f 77//116 75//116 76//116
f 78//117 73//117 71//117
f 73//118 78//118 40//118
f 40//119 78//119 79//119
f 40//120 79//120 45//120
f 80//121 76//121 46//121
f 76//122 43//122 46//122
f 76//123 81//123 77//123
f 76//124 80//124 81//124
f 82//125 45//125 79//125
f 82//126 47//126 45//126
f 47//127 80//127 46//127
f 83//128 80//128 47//128
f 82//129 83//129 47//129
f 83//130 81//130 80//130
f 48//131 49//131 84//131
f 85//132 49//132 50//132
f 85//133 84//133 49//133
f 85//134 50//134 52//134
f 53//135 54//135 86//135
f 86//136 54//136 87//136
f 54//137 48//137 87//137
f 87//138 48//138 88//138
f 88//139 48//139 84//139
f 84//140 85//140 88//140
f 85//141 89//141 88//141
f 85//142 52//142 89//142
f 89//143 52//143 55//143
f 89//144 55//144 90//144
f 57//145 90//145 55//145
f 57//146 91//146 90//146
f 92//147 86//147 93//147
f 53//148 86//148 92//148
f 58//149 53//149 92//149
f 86//150 87//150 93//150
f 59//151 94//151 57//151
f 57//152 94//152 95//152
f 57//153 95//153 91//153
f 94//154 59//154 61//154
f 63//155 58//155 92//155
f 63//156 92//156 96//156
f 97//157 66//157 65//157
f 95//158 94//158 98//158
f 98//159 94//159 66//159
f 66//160 94//160 67//160
f 66//161 97//161 98//161
f 94//162 61//162 67//162
f 99//163 63//163 96//163
f 99//164 68//164 63//164
f 100//165 69//165 68//165
f 100//166 68//166 99//166
f 101//167 70//167 69//167
f 101//168 69//168 100//168
f 70//169 97//169 65//169
f 102//170 97//170 70//170
f 101//171 102//171 70//171
f 102//172 98//172 97//172
f 71//173 72//173 103//173
f 72//174 104//174 103//174
f 105//175 104//175 72//175
f 74//176 105//176 72//176
f 74//177 75//177 106//177
f 105//178 74//178 106//178
f 77//179 106//179 75//179
f 77//180 107//180 106//180
f 78//181 71//181 103//181
f 108//182 79//182 109//182
f 79//183 78//183 109//183
f 109//184 78//184 104//184
f 104//185 78//185 103//185
f 108//186 109//186 110//186
f 107//187 77//187 81//187
f 111//188 107//188 81//188
f 82//189 79//189 108//189
f 112//190 108//190 110//190
f 82//191 108//191 112//191
f 83//192 82//192 112//192
f 83//193 111//193 81//193
f 83//194 112//194 111//194
f 87//195 88//195 113//195
f 114//196 88//196 89//196
f 114//197 113//197 88//197
f 115//198 89//198 90//198
f 115//199 114//199 89//199
f 115//200 90//200 91//200
f 92//201 93//201 116//201
f 116//202 93//202 117//202
f 93//203 87//203 117//203
f 117//204 87//204 118//204
f 118//205 87//205 113//205
f 113//206 114//206 118//206
f 114//207 119//207 118//207
f 120//208 119//208 121//208
f 121//209 119//209 114//209
f 121//210 114//210 115//210
f 121//211 91//211 95//211
f 121//212 115//212 91//212
f 122//213 116//213 123//213
f 92//214 116//214 122//214
f 96//215 92//215 122//215
f 116//216 117//216 123//216
f 121//217 124//217 120//217
f 124//218 125//218 120//218
f 124//219 95//219 98//219
f 124//220 121//220 95//220
f 126//221 96//221 122//221
f 126//222 99//222 96//222
f 127//223 100//223 99//223
f 127//224 99//224 126//224
f 128//225 101//225 100//225
f 128//226 100//226 127//226
f 102//227 125//227 124//227
f 128//228 125//228 102//228
f 101//229 128//229 102//229
f 124//230 98//230 102//230
f 104//231 105//231 129//231
f 130//232 105//232 106//232
f 130//233 129//233 105//233
f 130//234 106//234 107//234
f 109//235 104//235 129//235
f 129//236 110//236 109//236
f 131//237 110//237 129//237
f 130//238 131//238 129//238
f 131//239 107//239 111//239
f 131//240 130//240 107//240
f 112//241 110//241 131//241
f 131//242 111//242 112//242
f 117//243 118//243 132//243
f 133//244 118//244 119//244
f 133//245 132//245 118//245
f 133//246 119//246 120//246
f 122//247 123//247 134//247
f 132//248 123//248 117//248
f 134//249 123//249 132//249
f 135//250 134//250 132//250
f 132//251 133//251 136//251
f 132//252 136//252 135//252
f 136//253 120//253 125//253
f 136//254 133//254 120//254
f 126//255 122//255 134//255
f 134//256 127//256 126//256
f 134//257 135//257 127//257
f 135//258 128//258 127//258
f 135//259 136//259 128//259
f 136//260 125//260 128//260
f 137//261 139//261 138//261
f 140//262 139//262 141//262
f 140//263 138//263 139//263
f 142//264 140//264 141//264
f 137//265 143//265 139//265
f 137//266 144//266 143//266
f 141//267 146//267 145//267
f 143//268 146//268 141//268
f 139//269 143//269 141//269
f 145//270 142//270 141//270
f 147//271 143//271 144//271
f 147//272 146//272 143//272
f 137//273 138//273 148//273
f 149//274 138//274 140//274
f 149//275 148//275 138//275
f 149//276 140//276 142//276
f 144//277 148//277 150//277
f 144//278 137//278 148//278
f 150//279 145//279 146//279
f 149//280 145//280 150//280
f 148//281 149//281 150//281
f 149//282 142//282 145//282
f 147//283 144//283 150//283
f 150//284 146//284 147//284

# Thankyou for using Spin3D

