# Created using Spin3D

# Vertex Array
v 5.734 -36.075 29.445
v 5.735 -36.075 29.446
v 5.735 -36.076 29.445
v 5.736 -36.075 29.445
v 5.735 -36.075 29.444
v 5.735 -36.074 29.445
v 2.724 -27.124 61.061
v 3.031 -26.868 61.347
v 2.957 -27.375 61.200
v 3.468 -27.079 61.098
v 3.051 -26.843 60.265
v 2.388 -25.878 60.424
v 3.282 -25.404 61.321
v 4.005 -26.240 61.309
v 4.685 -26.216 60.101
v 5.259 -25.329 60.865
v 0.679 -24.041 57.187
v 1.208 -24.002 58.785
v 2.008 -25.567 58.319
v 3.934 -26.038 58.287
v 6.233 -25.261 58.017
v 6.797 -24.551 59.527
v 1.361 -24.543 56.133
v 0.237 -22.822 55.571
v 2.898 -25.378 56.662
v 5.113 -24.918 56.040
v 8.434 -23.924 57.623
v 7.783 -24.347 56.251
v 9.390 -23.765 56.242
v 1.117 -23.566 54.753
v 2.833 -24.173 54.847
v 1.822 -22.853 53.914
v 7.094 -23.524 54.663
v 4.906 -23.747 54.297
v 9.145 -23.468 55.370
v 3.698 -22.392 53.497
v 2.557 -23.265 60.275
v 3.723 -24.002 61.344
v 4.514 -24.801 61.410
v 6.001 -23.765 60.654
v 0.144 -22.128 57.087
v 1.031 -21.999 58.605
v 8.200 -23.416 58.739
v 7.603 -22.786 59.474
v 8.887 -22.093 57.808
v -0.217 -21.362 55.735
v 9.818 -23.057 56.495
v 10.098 -23.305 55.773
v 10.261 -22.856 55.809
v 0.747 -22.311 54.252
v 0.238 -20.690 54.612
v 5.759 -22.681 53.623
v 7.095 -22.135 53.771
v 8.663 -22.226 54.674
v 9.930 -22.836 55.388
v 1.815 -20.976 53.502
v 3.649 -20.507 53.049
v 5.594 -21.012 53.291
v 6.836 -16.876 28.750
v 6.835 -16.878 28.747
v 6.848 -16.891 28.745
v 6.849 -16.895 28.743
v 6.859 -16.903 28.743
v 6.857 -16.907 28.741
v 6.846 -16.888 28.748
v 6.831 -16.873 28.752
v 6.858 -16.906 28.743
v 6.849 -16.896 28.747
v 6.841 -16.884 28.753
v 3.746 -22.928 61.007
v 4.774 -23.079 61.058
v 0.482 -20.481 57.555
v 2.091 -20.000 58.567
v 4.116 -21.261 60.072
v 6.344 -21.550 59.943
v 7.962 -21.251 58.992
v 8.288 -20.316 58.034
v -0.019 -19.667 55.972
v 0.670 -19.007 57.103
v 9.573 -21.953 55.895
v 8.572 -20.225 56.613
v 0.232 -18.799 54.626
v 7.422 -20.952 53.910
v 8.273 -20.428 54.975
v 1.121 -18.979 53.814
v 2.815 -19.029 53.298
v 4.553 -19.351 53.234
v 6.331 -19.216 54.036
v 6.821 -16.865 28.750
v 6.827 -16.873 28.747
v 6.823 -16.871 28.750
v 6.844 -16.893 28.746
v 6.833 -16.879 28.751
v 6.819 -16.864 28.753
v 3.839 -19.399 58.981
v 5.540 -19.288 58.793
v 7.300 -20.046 58.808
v 0.516 -18.026 56.184
v 1.646 -17.859 56.917
v 3.692 -17.969 57.679
v 5.511 -17.730 57.373
v 5.955 -17.413 56.123
v 7.163 -18.822 57.403
v 0.451 -17.787 55.187
v 1.187 -17.151 55.761
v 7.268 -18.694 55.584
v 5.789 -17.656 54.844
v 0.863 -17.757 54.302
v 2.121 -17.597 53.921
v 4.175 -17.778 53.950
v 6.815 -16.862 28.751
v 2.789 -16.838 55.891
v 4.542 -16.956 56.468
v 1.560 -16.974 54.821
v 2.962 -16.831 54.611
v 4.430 -16.851 55.216
v 4.136 -8.194 45.132
v 4.132 -8.194 45.127
v 4.134 -8.193 45.129
v 4.132 -8.192 45.125
v 4.133 -8.193 45.126
v 4.131 -8.193 45.123
v 4.136 -8.194 45.131
v 4.139 -8.195 45.132
v 4.135 -8.194 45.127
v 4.137 -8.193 45.129
v 4.140 -8.194 45.132
v 4.135 -8.195 45.129
v 4.132 -8.194 45.127
v 4.138 -8.194 45.130

# Normal Array
vn -0.590 -0.655 0.472
vn 0.584 -0.663 0.469
vn -0.588 -0.464 -0.662
vn 0.585 -0.477 -0.656
vn -0.586 0.476 0.655
vn 0.590 0.464 0.661
vn -0.585 0.662 -0.469
vn 0.591 0.654 -0.471
vn -0.612 -0.136 0.779
vn 0.356 -0.308 0.883
vn -0.506 -0.727 -0.465
vn 0.388 -0.817 -0.426
vn -0.737 0.138 0.661
vn -0.735 0.141 0.663
vn 0.725 -0.564 0.396
vn 0.297 -0.408 0.864
vn 0.031 0.012 0.999
vn 0.629 -0.699 0.340
vn -0.817 -0.502 0.283
vn -0.219 -0.866 -0.450
vn -0.818 -0.572 0.063
vn -0.761 -0.446 -0.471
vn -0.876 -0.474 0.088
vn 0.295 -0.870 -0.394
vn 0.329 -0.917 -0.226
vn 0.291 -0.933 -0.212
vn 0.638 -0.696 0.329
vn 0.635 -0.763 0.122
vn -0.703 -0.701 -0.121
vn -0.780 -0.584 -0.227
vn -0.234 -0.944 -0.234
vn -0.373 -0.878 -0.301
vn 0.272 -0.911 -0.311
vn 0.072 -0.907 -0.414
vn 0.534 -0.824 0.188
vn 0.521 -0.853 0.016
vn 0.222 -0.932 -0.287
vn 0.339 -0.932 0.127
vn -0.758 -0.588 -0.282
vn -0.194 -0.661 -0.725
vn -0.257 -0.810 -0.528
vn -0.258 -0.809 -0.528
vn 0.176 -0.807 -0.564
vn 0.022 -0.828 -0.560
vn 0.017 -0.833 -0.554
vn 0.218 -0.825 -0.522
vn 0.202 -0.831 -0.518
vn 0.313 -0.869 -0.384
vn -0.033 -0.594 -0.804
vn -0.099 -0.570 -0.815
vn -0.602 0.177 0.779
vn -0.728 0.086 0.680
vn -0.045 -0.054 0.998
vn -0.076 0.008 0.997
vn 0.467 -0.225 0.855
vn 0.522 -0.134 0.842
vn -0.862 -0.031 0.506
vn -0.920 -0.241 0.310
vn -0.759 0.086 0.645
vn -0.740 -0.005 0.672
vn 0.625 -0.263 0.735
vn 0.676 -0.288 0.678
vn 0.704 -0.244 0.667
vn 0.786 0.026 0.617
vn -0.962 -0.266 0.063
vn -0.949 -0.304 0.081
vn 0.702 -0.581 0.412
vn 0.678 -0.574 0.459
vn 0.702 -0.575 0.420
vn 0.700 -0.241 0.673
vn 0.915 -0.258 0.309
vn 0.833 -0.337 0.438
vn -0.782 -0.416 -0.464
vn -0.890 -0.187 -0.416
vn -0.855 -0.212 -0.474
vn -0.465 -0.443 -0.767
vn 0.190 -0.629 -0.754
vn 0.300 -0.516 -0.803
vn 0.413 -0.492 -0.766
vn 0.312 -0.369 -0.875
vn 0.311 -0.869 -0.384
vn 0.410 -0.487 -0.771
vn 0.316 -0.368 -0.875
vn 0.760 -0.228 -0.608
vn -0.576 0.001 -0.818
vn -0.384 -0.199 -0.901
vn -0.162 -0.212 -0.964
vn -0.177 -0.232 -0.957
vn -0.021 -0.522 -0.852
vn 0.033 -0.191 -0.981
vn 0.061 -0.229 -0.971
vn 0.179 -0.175 -0.968
vn 0.591 0.655 -0.470
vn 0.433 0.478 -0.764
vn 0.397 0.485 -0.779
vn 0.343 0.367 -0.864
vn 0.741 0.668 -0.068
vn 0.674 0.548 0.495
vn 0.197 -0.225 0.954
vn 0.364 -0.005 0.931
vn 0.764 0.644 -0.034
vn 0.939 -0.343 0.010
vn 0.721 0.667 0.188
vn 0.693 0.164 0.702
vn -0.559 0.259 0.788
vn 0.104 0.184 0.977
vn -0.003 0.299 0.954
vn 0.375 0.131 0.918
vn -0.864 0.035 0.502
vn -0.571 0.317 0.757
vn -0.569 0.316 0.759
vn -0.384 0.384 0.839
vn -0.553 0.498 0.668
vn 0.028 0.484 0.874
vn 0.115 0.505 0.855
vn 0.413 0.220 0.884
vn 0.503 0.193 0.842
vn 0.478 0.159 0.864
vn 0.790 0.007 0.612
vn 0.838 0.219 0.499
vn -0.885 0.236 0.401
vn -0.934 0.094 0.344
vn -0.953 0.070 0.294
vn -0.571 0.306 0.762
vn 0.864 0.375 0.337
vn 0.868 0.363 0.338
vn 0.935 0.289 0.206
vn 0.678 0.461 0.573
vn -0.944 0.151 -0.292
vn -0.983 -0.002 -0.184
vn 0.497 -0.035 -0.867
vn 0.803 0.555 -0.216
vn 0.744 0.265 -0.614
vn 0.594 0.567 -0.570
vn 0.687 0.263 -0.678
vn 0.667 0.555 -0.498
vn -0.674 0.003 -0.739
vn -0.583 -0.076 -0.809
vn -0.245 0.024 -0.969
vn -0.290 0.049 -0.956
vn 0.136 0.051 -0.989
vn -0.006 0.162 -0.987
vn 0.320 0.023 -0.947
vn 0.302 0.257 -0.918
vn 0.389 0.212 -0.897
vn 0.595 0.423 -0.683
vn 0.259 0.487 -0.834
vn 0.540 0.685 -0.488
vn -0.696 -0.574 -0.432
vn -0.600 -0.479 -0.641
vn 0.145 0.316 -0.937
vn -0.598 -0.330 -0.731
vn -0.049 -0.193 0.980
vn 0.564 0.752 0.340
vn 0.631 0.771 0.087
vn -0.564 -0.614 0.553
vn -0.588 -0.647 0.486
vn -0.471 -0.607 0.640
vn -0.482 -0.649 0.589
vn -0.487 -0.652 0.581
vn -0.334 -0.254 0.908
vn -0.491 -0.620 0.612
vn -0.347 0.435 0.831
vn 0.113 0.482 0.869
vn 0.062 0.511 0.857
vn 0.423 0.359 0.832
vn 0.208 0.501 0.840
vn 0.625 0.442 0.643
vn -0.885 0.236 0.401
vn -0.512 0.543 0.666
vn -0.434 0.492 0.755
vn -0.264 0.554 0.790
vn -0.374 0.603 0.704
vn 0.038 0.675 0.737
vn 0.035 0.673 0.738
vn 0.506 0.776 0.376
vn 0.399 0.622 0.674
vn 0.310 0.732 0.607
vn 0.744 0.640 0.190
vn 0.573 0.645 0.506
vn -0.727 0.656 0.204
vn -0.948 0.292 0.131
vn -0.973 0.229 -0.033
vn -0.478 0.651 0.589
vn 0.714 0.694 0.090
vn 0.632 0.742 -0.223
vn 0.810 0.545 -0.216
vn 0.728 0.680 0.090
vn -0.840 0.391 -0.376
vn -0.648 0.160 -0.745
vn -0.274 0.269 -0.923
vn -0.311 0.295 -0.904
vn 0.045 0.423 -0.905
vn 0.050 0.419 -0.907
vn 0.645 0.516 -0.564
vn 0.381 0.526 -0.760
vn 0.337 0.456 -0.823
vn 0.616 0.554 -0.560
vn 0.009 0.359 -0.933
vn -0.685 -0.621 -0.382
vn 0.372 0.920 0.125
vn -0.590 -0.617 0.522
vn -0.177 0.789 0.589
vn 0.008 0.764 0.645
vn -0.136 0.805 0.578
vn 0.364 0.864 0.348
vn -0.609 0.788 -0.093
vn -0.202 0.797 0.569
vn -0.199 0.974 0.105
vn -0.102 0.995 -0.009
vn 0.041 0.996 0.080
vn 0.010 1.000 0.006
vn 0.451 0.864 -0.223
vn 0.319 0.946 0.051
vn -0.626 0.733 -0.265
vn -0.288 0.694 -0.660
vn -0.171 0.757 -0.631
vn 0.066 0.627 -0.776
vn 0.259 0.754 -0.604
vn 0.278 0.747 -0.603
vn -0.513 0.634 0.579
vn 0.239 0.970 -0.042
vn -0.456 0.819 0.348
vn 0.524 0.730 -0.438
vn 0.039 0.924 0.380
vn 0.229 0.856 0.463
vn 0.648 0.332 -0.685
vn 0.066 0.983 0.173
vn 0.504 0.856 -0.115
vn 0.679 0.524 -0.514
vn -0.223 0.067 0.973
vn 0.019 0.985 0.170
vn -0.478 -0.791 0.382
vn -0.347 -0.862 -0.369
vn -0.243 -0.954 -0.175
vn -0.955 -0.234 0.182
vn 0.209 -0.893 -0.399
vn -0.222 -0.925 0.310
vn 0.730 -0.151 -0.667
vn -0.017 -0.977 -0.215
vn 0.269 -0.726 -0.633
vn -0.015 -0.985 -0.170
vn 0.548 -0.564 -0.619
vn 0.588 -0.359 -0.725

# Facets
f 1//1 3//1 2//1
f 4//2 2//2 3//2
f 5//3 3//3 1//3
f 5//4 4//4 3//4
f 1//5 2//5 6//5
f 6//6 2//6 4//6
f 5//7 1//7 6//7
f 6//8 4//8 5//8
f 7//9 9//9 8//9
f 10//10 8//10 9//10
f 11//11 9//11 7//11
f 11//12 10//12 9//12
f 12//13 8//13 13//13
f 12//14 7//14 8//14
f 14//15 10//15 15//15
f 8//16 10//16 14//16
f 13//17 8//17 14//17
f 16//18 14//18 15//18
f 17//19 19//19 18//19
f 20//20 11//20 19//20
f 19//21 11//21 12//21
f 12//22 11//22 7//22
f 12//23 18//23 19//23
f 10//24 11//24 15//24
f 15//25 11//25 20//25
f 15//26 20//26 21//26
f 15//27 22//27 16//27
f 15//28 21//28 22//28
f 17//29 23//29 19//29
f 17//30 24//30 23//30
f 25//31 20//31 19//31
f 23//32 25//32 19//32
f 26//33 21//33 20//33
f 25//34 26//34 20//34
f 21//35 27//35 22//35
f 28//36 27//36 21//36
f 26//37 28//37 21//37
f 29//38 27//38 28//38
f 30//39 23//39 24//39
f 31//40 30//40 32//40
f 23//41 30//41 31//41
f 25//42 23//42 31//42
f 26//43 34//43 33//43
f 31//44 34//44 26//44
f 25//45 31//45 26//45
f 33//46 28//46 26//46
f 33//47 35//47 28//47
f 35//48 29//48 28//48
f 36//49 31//49 32//49
f 36//50 34//50 31//50
f 37//51 13//51 38//51
f 37//52 12//52 13//52
f 13//53 14//53 39//53
f 38//54 13//54 39//54
f 16//55 39//55 14//55
f 16//56 40//56 39//56
f 41//57 18//57 42//57
f 41//58 17//58 18//58
f 12//59 37//59 18//59
f 37//60 42//60 18//60
f 43//61 44//61 22//61
f 22//62 44//62 40//62
f 22//63 40//63 16//63
f 45//64 44//64 43//64
f 24//65 17//65 41//65
f 24//66 41//66 46//66
f 43//67 22//67 27//67
f 47//68 29//68 48//68
f 47//69 27//69 29//69
f 45//70 27//70 47//70
f 43//71 27//71 45//71
f 49//72 47//72 48//72
f 24//73 50//73 30//73
f 51//74 50//74 24//74
f 46//75 51//75 24//75
f 32//76 30//76 50//76
f 52//77 33//77 34//77
f 52//78 53//78 33//78
f 33//79 53//79 54//79
f 33//80 54//80 35//80
f 35//81 48//81 29//81
f 55//82 48//82 35//82
f 54//83 55//83 35//83
f 55//84 49//84 48//84
f 56//85 50//85 51//85
f 56//86 32//86 50//86
f 36//87 32//87 56//87
f 57//88 36//88 56//88
f 36//89 52//89 34//89
f 58//90 52//90 36//90
f 57//91 58//91 36//91
f 58//92 53//92 52//92
f 59//93 61//93 60//93
f 62//94 61//94 63//94
f 62//95 60//95 61//95
f 64//96 62//96 63//96
f 59//97 65//97 61//97
f 59//98 66//98 65//98
f 63//99 68//99 67//99
f 65//100 68//100 63//100
f 61//101 65//101 63//101
f 67//102 64//102 63//102
f 69//103 65//103 66//103
f 69//104 68//104 65//104
f 37//105 38//105 70//105
f 71//106 38//106 39//106
f 71//107 70//107 38//107
f 71//108 39//108 40//108
f 41//109 42//109 72//109
f 72//110 42//110 73//110
f 42//111 37//111 73//111
f 73//112 37//112 74//112
f 74//113 37//113 70//113
f 70//114 71//114 74//114
f 71//115 75//115 74//115
f 71//116 40//116 75//116
f 75//117 40//117 44//117
f 75//118 44//118 76//118
f 45//119 76//119 44//119
f 45//120 77//120 76//120
f 78//121 72//121 79//121
f 41//122 72//122 78//122
f 46//123 41//123 78//123
f 72//124 73//124 79//124
f 47//125 80//125 45//125
f 45//126 80//126 81//126
f 45//127 81//127 77//127
f 80//128 47//128 49//128
f 51//129 46//129 78//129
f 51//130 78//130 82//130
f 83//131 54//131 53//131
f 81//132 80//132 84//132
f 84//133 80//133 54//133
f 54//134 80//134 55//134
f 54//135 83//135 84//135
f 80//136 49//136 55//136
f 85//137 51//137 82//137
f 85//138 56//138 51//138
f 86//139 57//139 56//139
f 86//140 56//140 85//140
f 87//141 58//141 57//141
f 87//142 57//142 86//142
f 58//143 83//143 53//143
f 88//144 83//144 58//144
f 87//145 88//145 58//145
f 88//146 84//146 83//146
f 89//147 60//147 90//147
f 89//148 59//148 60//148
f 90//149 92//149 91//149
f 62//150 92//150 90//150
f 60//151 62//151 90//151
f 92//152 62//152 64//152
f 66//153 94//153 93//153
f 89//154 94//154 66//154
f 59//155 89//155 66//155
f 94//156 91//156 93//156
f 91//157 92//157 93//157
f 93//158 92//158 68//158
f 68//159 92//159 67//159
f 92//160 64//160 67//160
f 69//161 66//161 93//161
f 93//162 68//162 69//162
f 73//163 74//163 95//163
f 96//164 74//164 75//164
f 96//165 95//165 74//165
f 97//166 75//166 76//166
f 97//167 96//167 75//167
f 97//168 76//168 77//168
f 78//169 79//169 98//169
f 98//170 79//170 99//170
f 79//171 73//171 99//171
f 99//172 73//172 100//172
f 100//173 73//173 95//173
f 95//174 96//174 100//174
f 96//175 101//175 100//175
f 102//176 101//176 103//176
f 103//177 101//177 96//177
f 103//178 96//178 97//178
f 103//179 77//179 81//179
f 103//180 97//180 77//180
f 104//181 98//181 105//181
f 78//182 98//182 104//182
f 82//183 78//183 104//183
f 98//184 99//184 105//184
f 103//185 106//185 102//185
f 106//186 107//186 102//186
f 106//187 81//187 84//187
f 106//188 103//188 81//188
f 108//189 82//189 104//189
f 108//190 85//190 82//190
f 109//191 86//191 85//191
f 109//192 85//192 108//192
f 110//193 87//193 86//193
f 110//194 86//194 109//194
f 88//195 107//195 106//195
f 110//196 107//196 88//196
f 87//197 110//197 88//197
f 106//198 84//198 88//198
f 89//199 90//199 111//199
f 111//200 90//200 91//200
f 94//201 89//201 111//201
f 111//202 91//202 94//202
f 99//203 100//203 112//203
f 113//204 100//204 101//204
f 113//205 112//205 100//205
f 113//206 101//206 102//206
f 104//207 105//207 114//207
f 112//208 105//208 99//208
f 114//209 105//209 112//209
f 115//210 114//210 112//210
f 112//211 113//211 116//211
f 112//212 116//212 115//212
f 116//213 102//213 107//213
f 116//214 113//214 102//214
f 108//215 104//215 114//215
f 114//216 109//216 108//216
f 114//217 115//217 109//217
f 115//218 110//218 109//218
f 115//219 116//219 110//219
f 116//220 107//220 110//220
f 117//221 119//221 118//221
f 120//222 119//222 121//222
f 120//223 118//223 119//223
f 122//224 120//224 121//224
f 117//225 123//225 119//225
f 117//226 124//226 123//226
f 121//227 126//227 125//227
f 123//228 126//228 121//228
f 119//229 123//229 121//229
f 125//230 122//230 121//230
f 127//231 123//231 124//231
f 127//232 126//232 123//232
f 117//233 118//233 128//233
f 129//234 118//234 120//234
f 129//235 128//235 118//235
f 129//236 120//236 122//236
f 124//237 128//237 130//237
f 124//238 117//238 128//238
f 130//239 125//239 126//239
f 129//240 125//240 130//240
f 128//241 129//241 130//241
f 129//242 122//242 125//242
f 127//243 124//243 130//243
f 130//244 126//244 127//244

# Thankyou for using Spin3D

