# Created using Spin3D

# Vertex Array
v 5.734 -36.075 29.445
v 5.735 -36.075 29.446
v 5.735 -36.076 29.445
v 5.736 -36.075 29.445
v 5.735 -36.075 29.444
v 5.735 -36.074 29.445
v 2.724 -27.124 61.061
v 3.031 -26.868 61.347
v 2.957 -27.375 61.200
v 3.468 -27.079 61.098
v 3.051 -26.843 60.265
v 2.388 -25.878 60.424
v 3.282 -25.404 61.321
v 4.005 -26.240 61.309
v 4.685 -26.216 60.101
v 5.259 -25.329 60.865
v 0.679 -24.041 57.187
v 1.208 -24.002 58.785
v 2.008 -25.567 58.319
v 3.934 -26.038 58.287
v 6.233 -25.261 58.017
v 6.797 -24.551 59.527
v 1.361 -24.543 56.133
v 0.237 -22.822 55.571
v 2.898 -25.378 56.662
v 5.113 -24.918 56.040
v 8.434 -23.924 57.623
v 7.783 -24.347 56.251
v 9.390 -23.765 56.242
v 1.117 -23.566 54.753
v 2.833 -24.173 54.847
v 1.822 -22.853 53.914
v 7.094 -23.524 54.663
v 4.906 -23.747 54.297
v 9.145 -23.468 55.370
v 3.698 -22.392 53.497
v 2.557 -23.265 60.275
v 3.723 -24.002 61.344
v 4.514 -24.801 61.410
v 6.001 -23.765 60.654
v 0.144 -22.128 57.087
v 1.031 -21.999 58.605
v 8.200 -23.416 58.739
v 7.603 -22.786 59.474
v 8.887 -22.093 57.808
v -0.217 -21.362 55.735
v 9.818 -23.057 56.495
v 10.098 -23.305 55.773
v 10.261 -22.856 55.809
v 0.747 -22.311 54.252
v 0.238 -20.690 54.612
v 5.759 -22.681 53.623
v 7.095 -22.135 53.771
v 8.663 -22.226 54.674
v 9.930 -22.836 55.388
v 1.815 -20.976 53.502
v 3.649 -20.507 53.049
v 5.594 -21.012 53.291
v 7.169 -16.887 28.380
v 7.160 -16.885 28.381
v 7.216 -16.928 28.342
v 7.204 -16.924 28.344
v 7.259 -16.967 28.306
v 7.250 -16.964 28.310
v 7.213 -16.922 28.352
v 7.166 -16.890 28.385
v 7.258 -16.963 28.314
v 7.275 -16.981 28.295
v 7.225 -16.936 28.342
v 7.255 -16.966 28.315
v 3.746 -22.928 61.007
v 4.774 -23.079 61.058
v 0.482 -20.481 57.555
v 2.091 -20.000 58.567
v 4.116 -21.261 60.072
v 6.344 -21.550 59.943
v 7.962 -21.251 58.992
v 8.288 -20.316 58.034
v -0.019 -19.667 55.972
v 0.670 -19.007 57.103
v 9.573 -21.953 55.895
v 8.572 -20.225 56.613
v 0.232 -18.799 54.626
v 7.422 -20.952 53.910
v 8.273 -20.428 54.975
v 1.121 -18.979 53.814
v 2.815 -19.029 53.298
v 4.553 -19.351 53.234
v 6.331 -19.216 54.036
v 7.122 -16.857 28.412
v 7.135 -16.870 28.397
v 7.129 -16.870 28.403
v 7.192 -16.918 28.354
v 7.190 -16.915 28.364
v 7.120 -16.861 28.414
v 7.248 -16.962 28.317
v 3.839 -19.399 58.981
v 5.540 -19.288 58.793
v 7.300 -20.046 58.808
v 0.516 -18.026 56.184
v 1.646 -17.859 56.917
v 3.692 -17.969 57.679
v 5.511 -17.730 57.373
v 5.955 -17.413 56.123
v 7.163 -18.822 57.403
v 0.451 -17.787 55.187
v 1.187 -17.151 55.761
v 7.268 -18.694 55.584
v 5.789 -17.656 54.844
v 0.863 -17.757 54.302
v 2.121 -17.597 53.921
v 4.175 -17.778 53.950
v 7.102 -16.847 28.425
v 2.789 -16.838 55.891
v 4.542 -16.956 56.468
v 1.560 -16.974 54.821
v 2.962 -16.831 54.611
v 4.430 -16.851 55.216
v 4.136 -8.194 45.132
v 4.132 -8.194 45.127
v 4.134 -8.193 45.129
v 4.132 -8.192 45.125
v 4.133 -8.193 45.126
v 4.131 -8.193 45.123
v 4.136 -8.194 45.131
v 4.139 -8.195 45.132
v 4.135 -8.194 45.127
v 4.137 -8.193 45.129
v 4.140 -8.194 45.132
v 4.135 -8.195 45.129
v 4.132 -8.194 45.127
v 4.138 -8.194 45.130

# Normal Array
vn -0.590 -0.655 0.472
vn 0.584 -0.663 0.469
vn -0.588 -0.464 -0.662
vn 0.585 -0.477 -0.656
vn -0.586 0.476 0.655
vn 0.590 0.464 0.661
vn -0.585 0.662 -0.469
vn 0.591 0.654 -0.471
vn -0.612 -0.136 0.779
vn 0.356 -0.308 0.883
vn -0.506 -0.727 -0.465
vn 0.388 -0.817 -0.426
vn -0.737 0.138 0.661
vn -0.735 0.141 0.663
vn 0.725 -0.564 0.396
vn 0.297 -0.408 0.864
vn 0.031 0.012 0.999
vn 0.629 -0.699 0.340
vn -0.817 -0.502 0.283
vn -0.219 -0.866 -0.450
vn -0.818 -0.572 0.063
vn -0.761 -0.446 -0.471
vn -0.876 -0.474 0.088
vn 0.295 -0.870 -0.394
vn 0.329 -0.917 -0.226
vn 0.291 -0.933 -0.212
vn 0.638 -0.696 0.329
vn 0.635 -0.763 0.122
vn -0.703 -0.701 -0.121
vn -0.780 -0.584 -0.227
vn -0.234 -0.944 -0.234
vn -0.373 -0.878 -0.301
vn 0.272 -0.911 -0.311
vn 0.072 -0.907 -0.414
vn 0.534 -0.824 0.188
vn 0.521 -0.853 0.016
vn 0.222 -0.932 -0.287
vn 0.339 -0.932 0.127
vn -0.758 -0.588 -0.282
vn -0.194 -0.661 -0.725
vn -0.257 -0.810 -0.528
vn -0.258 -0.809 -0.528
vn 0.176 -0.807 -0.564
vn 0.022 -0.828 -0.560
vn 0.017 -0.833 -0.554
vn 0.218 -0.825 -0.522
vn 0.202 -0.831 -0.518
vn 0.313 -0.869 -0.384
vn -0.033 -0.594 -0.804
vn -0.099 -0.570 -0.815
vn -0.602 0.177 0.779
vn -0.728 0.086 0.680
vn -0.045 -0.054 0.998
vn -0.076 0.008 0.997
vn 0.467 -0.225 0.855
vn 0.522 -0.134 0.842
vn -0.862 -0.031 0.506
vn -0.920 -0.241 0.310
vn -0.759 0.086 0.645
vn -0.740 -0.005 0.672
vn 0.625 -0.263 0.735
vn 0.676 -0.288 0.678
vn 0.704 -0.244 0.667
vn 0.786 0.026 0.617
vn -0.962 -0.266 0.063
vn -0.949 -0.304 0.081
vn 0.702 -0.581 0.412
vn 0.678 -0.574 0.459
vn 0.702 -0.575 0.420
vn 0.700 -0.241 0.673
vn 0.915 -0.258 0.309
vn 0.833 -0.337 0.438
vn -0.782 -0.416 -0.464
vn -0.890 -0.187 -0.416
vn -0.855 -0.212 -0.474
vn -0.465 -0.443 -0.767
vn 0.190 -0.629 -0.754
vn 0.300 -0.516 -0.803
vn 0.413 -0.492 -0.766
vn 0.312 -0.369 -0.875
vn 0.311 -0.869 -0.384
vn 0.410 -0.487 -0.771
vn 0.316 -0.368 -0.875
vn 0.760 -0.228 -0.608
vn -0.576 0.001 -0.818
vn -0.384 -0.199 -0.901
vn -0.162 -0.212 -0.964
vn -0.177 -0.232 -0.957
vn -0.021 -0.522 -0.852
vn 0.033 -0.191 -0.981
vn 0.061 -0.229 -0.971
vn 0.179 -0.175 -0.968
vn 0.214 0.793 -0.571
vn 0.111 0.736 -0.668
vn 0.115 0.743 -0.660
vn -0.218 0.475 -0.852
vn 0.471 0.831 -0.296
vn 0.706 0.420 0.570
vn 0.476 0.820 -0.317
vn 0.500 0.820 -0.279
vn -0.255 0.381 -0.889
vn 0.540 0.791 -0.288
vn 0.517 -0.134 0.846
vn 0.721 0.172 0.671
vn 0.592 -0.121 0.797
vn 0.627 -0.166 0.761
vn -0.559 0.259 0.788
vn 0.104 0.184 0.977
vn -0.003 0.299 0.954
vn 0.375 0.131 0.918
vn -0.864 0.035 0.502
vn -0.571 0.317 0.757
vn -0.569 0.316 0.759
vn -0.384 0.384 0.839
vn -0.553 0.498 0.668
vn 0.028 0.484 0.874
vn 0.115 0.505 0.855
vn 0.413 0.220 0.884
vn 0.503 0.193 0.842
vn 0.478 0.159 0.864
vn 0.790 0.007 0.612
vn 0.838 0.219 0.499
vn -0.885 0.236 0.401
vn -0.934 0.094 0.344
vn -0.953 0.070 0.294
vn -0.571 0.306 0.762
vn 0.864 0.375 0.337
vn 0.868 0.363 0.338
vn 0.935 0.289 0.206
vn 0.678 0.461 0.573
vn -0.944 0.151 -0.292
vn -0.983 -0.002 -0.184
vn 0.497 -0.035 -0.867
vn 0.803 0.555 -0.216
vn 0.744 0.265 -0.614
vn 0.594 0.567 -0.570
vn 0.687 0.263 -0.678
vn 0.667 0.555 -0.498
vn -0.674 0.003 -0.739
vn -0.583 -0.076 -0.809
vn -0.245 0.024 -0.969
vn -0.290 0.049 -0.956
vn 0.136 0.051 -0.989
vn -0.006 0.162 -0.987
vn 0.320 0.023 -0.947
vn 0.302 0.257 -0.918
vn 0.389 0.212 -0.897
vn 0.595 0.423 -0.683
vn -0.090 0.686 -0.722
vn 0.232 0.847 -0.478
vn -0.711 -0.255 -0.655
vn -0.657 -0.110 -0.746
vn -0.336 0.407 -0.849
vn -0.657 -0.112 -0.745
vn 0.166 -0.550 0.818
vn 0.583 0.142 0.800
vn 0.682 0.454 0.574
vn -0.450 -0.848 0.279
vn -0.479 -0.846 0.232
vn -0.503 -0.835 0.224
vn -0.512 -0.852 0.111
vn -0.581 -0.810 0.076
vn 0.178 -0.541 0.822
vn 0.144 -0.579 0.802
vn -0.292 -0.828 0.478
vn -0.359 -0.875 0.324
vn -0.347 0.435 0.831
vn 0.113 0.482 0.869
vn 0.062 0.511 0.857
vn 0.423 0.359 0.832
vn 0.208 0.501 0.840
vn 0.625 0.442 0.643
vn -0.885 0.236 0.401
vn -0.512 0.543 0.666
vn -0.434 0.492 0.755
vn -0.264 0.554 0.790
vn -0.374 0.603 0.704
vn 0.038 0.675 0.737
vn 0.035 0.673 0.738
vn 0.506 0.776 0.376
vn 0.399 0.622 0.674
vn 0.310 0.732 0.607
vn 0.744 0.640 0.190
vn 0.573 0.645 0.506
vn -0.727 0.656 0.204
vn -0.948 0.292 0.131
vn -0.973 0.229 -0.033
vn -0.478 0.651 0.589
vn 0.714 0.694 0.090
vn 0.632 0.742 -0.223
vn 0.810 0.545 -0.216
vn 0.728 0.680 0.090
vn -0.840 0.391 -0.376
vn -0.648 0.160 -0.745
vn -0.274 0.269 -0.923
vn -0.311 0.295 -0.904
vn 0.045 0.423 -0.905
vn 0.050 0.419 -0.907
vn 0.645 0.516 -0.564
vn 0.381 0.526 -0.760
vn 0.337 0.456 -0.823
vn 0.616 0.554 -0.560
vn -0.153 0.651 -0.744
vn -0.713 -0.241 -0.659
vn 0.578 0.148 0.803
vn -0.530 -0.826 0.194
vn -0.177 0.789 0.589
vn 0.008 0.764 0.645
vn -0.136 0.805 0.578
vn 0.364 0.864 0.348
vn -0.609 0.788 -0.093
vn -0.202 0.797 0.569
vn -0.199 0.974 0.105
vn -0.102 0.995 -0.009
vn 0.041 0.996 0.080
vn 0.010 1.000 0.006
vn 0.451 0.864 -0.223
vn 0.319 0.946 0.051
vn -0.626 0.733 -0.265
vn -0.288 0.694 -0.660
vn -0.171 0.757 -0.631
vn 0.066 0.627 -0.776
vn 0.259 0.754 -0.604
vn 0.278 0.747 -0.603
vn -0.513 0.634 0.579
vn 0.239 0.970 -0.042
vn -0.456 0.819 0.348
vn 0.524 0.730 -0.438
vn 0.039 0.924 0.380
vn 0.229 0.856 0.463
vn 0.648 0.332 -0.685
vn 0.066 0.983 0.173
vn 0.504 0.856 -0.115
vn 0.679 0.524 -0.514
vn -0.223 0.067 0.973
vn 0.019 0.985 0.170
vn -0.478 -0.791 0.382
vn -0.347 -0.862 -0.369
vn -0.243 -0.954 -0.175
vn -0.955 -0.234 0.182
vn 0.209 -0.893 -0.399
vn -0.222 -0.925 0.310
vn 0.730 -0.151 -0.667
vn -0.017 -0.977 -0.215
vn 0.269 -0.726 -0.633
vn -0.015 -0.985 -0.170
vn 0.548 -0.564 -0.619
vn 0.588 -0.359 -0.725

# Facets
f 1//1 3//1 2//1
f 4//2 2//2 3//2
f 5//3 3//3 1//3
f 5//4 4//4 3//4
f 1//5 2//5 6//5
f 6//6 2//6 4//6
f 5//7 1//7 6//7
f 6//8 4//8 5//8
f 7//9 9//9 8//9
f 10//10 8//10 9//10
f 11//11 9//11 7//11
f 11//12 10//12 9//12
f 12//13 8//13 13//13
f 12//14 7//14 8//14
f 14//15 10//15 15//15
f 8//16 10//16 14//16
f 13//17 8//17 14//17
f 16//18 14//18 15//18
f 17//19 19//19 18//19
f 20//20 11//20 19//20
f 19//21 11//21 12//21
f 12//22 11//22 7//22
f 12//23 18//23 19//23
f 10//24 11//24 15//24
f 15//25 11//25 20//25
f 15//26 20//26 21//26
f 15//27 22//27 16//27
f 15//28 21//28 22//28
f 17//29 23//29 19//29
f 17//30 24//30 23//30
f 25//31 20//31 19//31
f 23//32 25//32 19//32
f 26//33 21//33 20//33
f 25//34 26//34 20//34
f 21//35 27//35 22//35
f 28//36 27//36 21//36
f 26//37 28//37 21//37
f 29//38 27//38 28//38
f 30//39 23//39 24//39
f 31//40 30//40 32//40
f 23//41 30//41 31//41
f 25//42 23//42 31//42
f 26//43 34//43 33//43
f 31//44 34//44 26//44
f 25//45 31//45 26//45
f 33//46 28//46 26//46
f 33//47 35//47 28//47
f 35//48 29//48 28//48
f 36//49 31//49 32//49
f 36//50 34//50 31//50
f 37//51 13//51 38//51
f 37//52 12//52 13//52
f 13//53 14//53 39//53
f 38//54 13//54 39//54
f 16//55 39//55 14//55
f 16//56 40//56 39//56
f 41//57 18//57 42//57
f 41//58 17//58 18//58
f 12//59 37//59 18//59
f 37//60 42//60 18//60
f 43//61 44//61 22//61
f 22//62 44//62 40//62
f 22//63 40//63 16//63
f 45//64 44//64 43//64
f 24//65 17//65 41//65
f 24//66 41//66 46//66
f 43//67 22//67 27//67
f 47//68 29//68 48//68
f 47//69 27//69 29//69
f 45//70 27//70 47//70
f 43//71 27//71 45//71
f 49//72 47//72 48//72
f 24//73 50//73 30//73
f 51//74 50//74 24//74
f 46//75 51//75 24//75
f 32//76 30//76 50//76
f 52//77 33//77 34//77
f 52//78 53//78 33//78
f 33//79 53//79 54//79
f 33//80 54//80 35//80
f 35//81 48//81 29//81
f 55//82 48//82 35//82
f 54//83 55//83 35//83
f 55//84 49//84 48//84
f 56//85 50//85 51//85
f 56//86 32//86 50//86
f 36//87 32//87 56//87
f 57//88 36//88 56//88
f 36//89 52//89 34//89
f 58//90 52//90 36//90
f 57//91 58//91 36//91
f 58//92 53//92 52//92
f 59//93 61//93 60//93
f 62//94 61//94 63//94
f 62//95 60//95 61//95
f 64//96 62//96 63//96
f 59//97 65//97 61//97
f 59//98 66//98 65//98
f 67//99 63//99 61//99
f 65//100 67//100 61//100
f 63//101 68//101 64//101
f 63//102 67//102 68//102
f 69//103 65//103 66//103
f 69//104 67//104 65//104
f 69//105 70//105 67//105
f 70//106 68//106 67//106
f 37//107 38//107 71//107
f 72//108 38//108 39//108
f 72//109 71//109 38//109
f 72//110 39//110 40//110
f 41//111 42//111 73//111
f 73//112 42//112 74//112
f 42//113 37//113 74//113
f 74//114 37//114 75//114
f 75//115 37//115 71//115
f 71//116 72//116 75//116
f 72//117 76//117 75//117
f 72//118 40//118 76//118
f 76//119 40//119 44//119
f 76//120 44//120 77//120
f 45//121 77//121 44//121
f 45//122 78//122 77//122
f 79//123 73//123 80//123
f 41//124 73//124 79//124
f 46//125 41//125 79//125
f 73//126 74//126 80//126
f 47//127 81//127 45//127
f 45//128 81//128 82//128
f 45//129 82//129 78//129
f 81//130 47//130 49//130
f 51//131 46//131 79//131
f 51//132 79//132 83//132
f 84//133 54//133 53//133
f 82//134 81//134 85//134
f 85//135 81//135 54//135
f 54//136 81//136 55//136
f 54//137 84//137 85//137
f 81//138 49//138 55//138
f 86//139 51//139 83//139
f 86//140 56//140 51//140
f 87//141 57//141 56//141
f 87//142 56//142 86//142
f 88//143 58//143 57//143
f 88//144 57//144 87//144
f 58//145 84//145 53//145
f 89//146 84//146 58//146
f 88//147 89//147 58//147
f 89//148 85//148 84//148
f 90//149 60//149 91//149
f 90//150 59//150 60//150
f 91//151 93//151 92//151
f 62//152 93//152 91//152
f 60//153 62//153 91//153
f 93//154 62//154 64//154
f 66//155 95//155 94//155
f 90//156 95//156 66//156
f 59//157 90//157 66//157
f 95//158 92//158 94//158
f 94//159 92//159 93//159
f 94//160 93//160 96//160
f 96//161 64//161 68//161
f 96//162 93//162 64//162
f 69//163 66//163 94//163
f 94//164 70//164 69//164
f 94//165 96//165 70//165
f 96//166 68//166 70//166
f 74//167 75//167 97//167
f 98//168 75//168 76//168
f 98//169 97//169 75//169
f 99//170 76//170 77//170
f 99//171 98//171 76//171
f 99//172 77//172 78//172
f 79//173 80//173 100//173
f 100//174 80//174 101//174
f 80//175 74//175 101//175
f 101//176 74//176 102//176
f 102//177 74//177 97//177
f 97//178 98//178 102//178
f 98//179 103//179 102//179
f 104//180 103//180 105//180
f 105//181 103//181 98//181
f 105//182 98//182 99//182
f 105//183 78//183 82//183
f 105//184 99//184 78//184
f 106//185 100//185 107//185
f 79//186 100//186 106//186
f 83//187 79//187 106//187
f 100//188 101//188 107//188
f 105//189 108//189 104//189
f 108//190 109//190 104//190
f 108//191 82//191 85//191
f 108//192 105//192 82//192
f 110//193 83//193 106//193
f 110//194 86//194 83//194
f 111//195 87//195 86//195
f 111//196 86//196 110//196
f 112//197 88//197 87//197
f 112//198 87//198 111//198
f 89//199 109//199 108//199
f 112//200 109//200 89//200
f 88//201 112//201 89//201
f 108//202 85//202 89//202
f 90//203 91//203 113//203
f 113//204 91//204 92//204
f 95//205 90//205 113//205
f 113//206 92//206 95//206
f 101//207 102//207 114//207
f 115//208 102//208 103//208
f 115//209 114//209 102//209
f 115//210 103//210 104//210
f 106//211 107//211 116//211
f 114//212 107//212 101//212
f 116//213 107//213 114//213
f 117//214 116//214 114//214
f 114//215 115//215 118//215
f 114//216 118//216 117//216
f 118//217 104//217 109//217
f 118//218 115//218 104//218
f 110//219 106//219 116//219
f 116//220 111//220 110//220
f 116//221 117//221 111//221
f 117//222 112//222 111//222
f 117//223 118//223 112//223
f 118//224 109//224 112//224
f 119//225 121//225 120//225
f 122//226 121//226 123//226
f 122//227 120//227 121//227
f 124//228 122//228 123//228
f 119//229 125//229 121//229
f 119//230 126//230 125//230
f 123//231 128//231 127//231
f 125//232 128//232 123//232
f 121//233 125//233 123//233
f 127//234 124//234 123//234
f 129//235 125//235 126//235
f 129//236 128//236 125//236
f 119//237 120//237 130//237
f 131//238 120//238 122//238
f 131//239 130//239 120//239
f 131//240 122//240 124//240
f 126//241 130//241 132//241
f 126//242 119//242 130//242
f 132//243 127//243 128//243
f 131//244 127//244 132//244
f 130//245 131//245 132//245
f 131//246 124//246 127//246
f 129//247 126//247 132//247
f 132//248 128//248 129//248

# Thankyou for using Spin3D

