# Created using Spin3D

# Vertex Array
v 5.758 -34.594 29.690
v 5.756 -34.594 29.687
v 5.756 -34.595 29.689
v 5.754 -34.594 29.689
v 5.755 -34.594 29.691
v 5.758 -34.592 29.689
v 5.755 -34.592 29.688
v 5.754 -34.592 29.690
v 5.756 -34.593 29.691
v 5.756 -34.592 29.690
v 2.920 -27.128 61.033
v 3.266 -26.830 61.322
v 3.195 -27.368 61.142
v 3.796 -27.050 60.991
v 3.267 -26.893 60.191
v 2.513 -25.907 60.453
v 3.461 -25.342 61.380
v 4.377 -26.122 61.247
v 5.240 -26.214 59.817
v 5.899 -24.991 60.760
v 0.678 -24.191 57.246
v 1.235 -24.105 58.859
v 2.051 -25.706 58.339
v 3.982 -26.265 58.205
v 5.886 -25.844 57.824
v 7.036 -24.939 59.640
v 7.376 -25.177 58.334
v 8.299 -24.041 58.642
v 1.341 -24.718 56.181
v 0.221 -22.978 55.584
v 2.871 -25.593 56.684
v 4.986 -25.229 56.089
v 7.452 -24.800 56.586
v 9.146 -23.852 57.102
v 1.079 -23.726 54.782
v 2.780 -24.355 54.882
v 1.772 -22.952 53.888
v 7.027 -23.728 54.814
v 4.845 -23.931 54.354
v 9.101 -23.600 55.725
v 3.653 -22.432 53.447
v 7.106 -17.907 28.615
v 7.144 -17.725 28.648
v 7.163 -17.739 28.602
v 7.133 -17.827 28.606
v 7.145 -17.842 28.573
v 2.608 -23.294 60.385
v 3.823 -23.943 61.487
v 4.735 -24.650 61.516
v 5.961 -23.600 60.997
v 0.155 -22.266 57.121
v 1.045 -22.104 58.685
v 7.456 -23.344 59.796
v 9.091 -22.288 57.801
v -0.201 -21.503 55.694
v 2.809 -22.160 56.072
v 2.808 -22.158 56.072
v 2.809 -22.159 56.073
v 2.811 -22.158 56.072
v 10.205 -23.286 56.123
v 10.157 -22.887 56.563
v 10.488 -22.798 55.990
v 0.710 -22.418 54.205
v 0.244 -20.777 54.442
v 2.809 -22.158 56.071
v 5.734 -22.786 53.655
v 7.113 -22.215 53.813
v 8.737 -22.298 54.793
v 10.066 -22.854 55.611
v 1.740 -20.884 53.292
v 3.574 -20.232 52.794
v 5.592 -20.945 53.174
v 7.235 -17.344 28.682
v 7.209 -17.493 28.653
v 7.236 -17.584 28.539
v 7.207 -17.529 28.628
v 7.304 -17.289 28.572
v 7.245 -17.592 28.521
v 7.294 -17.335 28.575
v 7.330 -17.390 28.465
v 7.364 -17.216 28.493
v 7.350 -17.306 28.478
v 7.400 -17.163 28.455
v 3.787 -22.918 61.176
v 4.821 -23.036 61.260
v 0.511 -20.596 57.572
v 2.109 -20.068 58.607
v 4.128 -21.317 60.215
v 6.331 -21.690 60.145
v 8.001 -21.515 59.128
v 8.388 -20.489 58.074
v 0.065 -19.729 55.821
v 0.731 -19.074 57.037
v 2.809 -22.157 56.072
v 9.772 -21.972 55.971
v 8.703 -20.313 56.595
v 0.396 -18.718 54.171
v 7.481 -20.955 53.869
v 8.378 -20.439 54.934
v 1.034 -19.025 53.353
v 2.581 -18.079 52.704
v 4.512 -18.949 52.848
v 6.365 -19.042 53.772
v 7.327 -17.016 28.690
v 7.304 -17.139 28.667
v 7.308 -17.140 28.650
v 7.387 -17.002 28.573
v 7.377 -16.990 28.605
v 7.402 -17.055 28.514
v 7.420 -16.878 28.584
v 7.425 -16.996 28.501
v 3.839 -19.467 59.047
v 5.543 -19.377 58.854
v 7.337 -20.210 58.902
v 0.646 -17.985 55.954
v 1.714 -17.804 56.758
v 3.693 -17.945 57.596
v 5.493 -17.729 57.272
v 5.909 -17.288 55.859
v 7.203 -18.897 57.367
v 0.701 -17.544 54.684
v 1.360 -16.889 55.365
v 7.314 -18.656 55.422
v 5.759 -17.384 54.430
v 1.357 -17.157 53.268
v 2.027 -15.917 52.875
v 2.136 -16.343 52.516
v 2.797 -16.319 52.562
v 4.205 -17.138 53.211
v 2.394 -15.757 52.524
v 7.379 -16.893 28.660
v 7.382 -16.895 28.649
v 2.823 -16.458 55.512
v 4.483 -16.778 56.186
v 1.878 -16.178 54.026
v 2.901 -15.813 54.205
v 4.189 -16.304 54.556
v 2.878 -15.844 53.214
v 4.136 -8.194 45.132
v 4.132 -8.194 45.127
v 4.134 -8.193 45.129
v 4.132 -8.192 45.125
v 4.133 -8.193 45.126
v 4.131 -8.193 45.123
v 4.136 -8.194 45.131
v 4.139 -8.195 45.132
v 4.135 -8.194 45.127
v 4.137 -8.193 45.129
v 4.140 -8.194 45.132
v 4.135 -8.195 45.129
v 4.132 -8.194 45.127
v 4.138 -8.194 45.130

# Normal Array
vn 0.270 -0.904 -0.333
vn -0.182 -0.880 -0.438
vn 0.165 -0.977 0.136
vn -0.301 -0.953 0.029
vn 0.526 0.378 -0.762
vn 0.801 -0.212 -0.559
vn -0.487 -0.154 -0.860
vn -0.803 0.394 -0.446
vn 0.818 0.179 0.547
vn 0.503 -0.425 0.752
vn -0.814 -0.371 0.447
vn -0.521 0.134 0.843
vn 0.178 0.980 -0.087
vn -0.246 0.969 0.005
vn 0.261 0.923 0.283
vn -0.157 0.915 0.373
vn -0.513 -0.211 0.832
vn 0.394 -0.339 0.854
vn -0.496 -0.761 -0.418
vn 0.350 -0.849 -0.397
vn -0.718 0.067 0.693
vn -0.691 0.109 0.715
vn 0.693 -0.560 0.454
vn 0.337 -0.441 0.832
vn 0.100 -0.052 0.994
vn 0.624 -0.660 0.419
vn -0.805 -0.509 0.305
vn -0.282 -0.881 -0.380
vn -0.775 -0.622 0.110
vn -0.764 -0.466 -0.446
vn -0.862 -0.486 0.142
vn 0.247 -0.907 -0.341
vn 0.286 -0.938 -0.194
vn 0.192 -0.974 -0.119
vn 0.532 -0.678 0.508
vn 0.573 -0.767 0.289
vn 0.418 -0.908 -0.033
vn 0.699 -0.649 0.300
vn -0.705 -0.704 -0.090
vn -0.790 -0.578 -0.205
vn -0.285 -0.936 -0.205
vn -0.412 -0.872 -0.263
vn 0.125 -0.913 -0.388
vn 0.036 -0.904 -0.426
vn 0.450 -0.877 -0.169
vn 0.238 -0.870 -0.432
vn 0.697 -0.649 0.304
vn 0.519 -0.840 -0.158
vn -0.764 -0.585 -0.272
vn -0.201 -0.658 -0.726
vn -0.268 -0.809 -0.523
vn -0.281 -0.798 -0.534
vn 0.198 -0.777 -0.598
vn 0.011 -0.800 -0.600
vn -0.017 -0.825 -0.566
vn 0.249 -0.801 -0.545
vn 0.288 -0.787 -0.545
vn 0.520 -0.837 -0.170
vn -0.026 -0.590 -0.807
vn -0.092 -0.568 -0.818
vn 0.862 -0.258 0.437
vn -0.885 0.254 -0.391
vn 0.876 -0.265 0.404
vn -0.869 0.245 -0.429
vn -0.636 0.106 0.764
vn -0.712 0.044 0.701
vn -0.008 -0.178 0.984
vn -0.076 -0.057 0.996
vn 0.468 -0.268 0.842
vn 0.502 -0.166 0.849
vn -0.867 -0.039 0.497
vn -0.917 -0.228 0.329
vn -0.754 0.045 0.655
vn -0.740 -0.012 0.672
vn 0.634 -0.157 0.757
vn 0.686 -0.248 0.684
vn 0.704 -0.251 0.665
vn 0.788 -0.062 0.613
vn -0.963 -0.257 0.078
vn -0.956 -0.280 0.089
vn -0.576 -0.646 0.501
vn 0.535 -0.672 0.512
vn 0.721 -0.472 0.507
vn 0.651 -0.291 0.701
vn 0.872 -0.174 0.458
vn 0.829 -0.366 0.422
vn -0.788 -0.421 -0.450
vn -0.896 -0.197 -0.398
vn -0.873 -0.217 -0.436
vn -0.603 -0.480 -0.637
vn -0.459 -0.464 -0.758
vn 0.216 -0.626 -0.749
vn 0.575 -0.504 -0.644
vn 0.312 -0.537 -0.784
vn 0.423 -0.517 -0.744
vn 0.380 -0.466 -0.799
vn 0.329 -0.927 -0.180
vn 0.415 -0.636 -0.650
vn 0.292 -0.502 -0.814
vn 0.609 -0.517 -0.601
vn -0.611 -0.060 -0.790
vn -0.394 -0.260 -0.882
vn -0.147 -0.276 -0.950
vn -0.155 -0.286 -0.945
vn -0.003 -0.520 -0.854
vn 0.054 -0.248 -0.967
vn 0.081 -0.281 -0.956
vn 0.205 -0.232 -0.951
vn 0.831 -0.245 0.500
vn 0.864 -0.252 0.436
vn -0.866 0.249 -0.433
vn -0.889 0.251 -0.383
vn -0.884 0.248 -0.397
vn -0.868 0.246 -0.431
vn 0.873 -0.266 0.408
vn 0.868 -0.252 0.427
vn 0.867 -0.252 0.430
vn -0.867 0.250 -0.431
vn -0.827 0.225 -0.516
vn -0.835 0.205 -0.511
vn -0.866 0.246 -0.436
vn -0.861 0.244 -0.446
vn 0.868 -0.252 0.427
vn 0.892 -0.271 0.363
vn 0.907 -0.268 0.324
vn -0.850 0.245 -0.467
vn -0.590 0.216 0.778
vn 0.087 0.152 0.985
vn -0.044 0.289 0.956
vn 0.286 0.136 0.949
vn -0.870 0.053 0.490
vn -0.588 0.335 0.736
vn -0.570 0.327 0.753
vn -0.414 0.389 0.823
vn -0.586 0.505 0.633
vn -0.010 0.516 0.856
vn 0.119 0.550 0.826
vn 0.360 0.321 0.876
vn 0.584 0.233 0.777
vn 0.501 0.161 0.850
vn 0.773 0.001 0.634
vn 0.814 0.238 0.530
vn -0.899 0.255 0.355
vn -0.946 0.120 0.301
vn -0.946 0.120 0.300
vn -0.553 0.480 0.681
vn -0.588 0.342 0.733
vn 0.585 0.455 0.671
vn 0.744 0.554 0.373
vn 0.836 0.396 0.380
vn 0.917 0.323 0.234
vn 0.661 0.583 0.472
vn -0.956 0.161 -0.246
vn -0.985 0.051 -0.166
vn -0.547 0.683 -0.484
vn 0.594 0.652 -0.470
vn 0.509 -0.111 -0.853
vn 0.788 0.583 -0.198
vn 0.711 0.189 -0.677
vn 0.597 0.466 -0.653
vn 0.704 0.188 -0.685
vn 0.556 0.466 -0.688
vn -0.792 -0.022 -0.610
vn -0.605 -0.205 -0.769
vn -0.214 -0.139 -0.967
vn -0.334 -0.096 -0.938
vn 0.159 -0.075 -0.984
vn 0.070 -0.009 -0.998
vn 0.344 -0.059 -0.937
vn 0.342 0.153 -0.927
vn 0.448 0.097 -0.889
vn 0.634 0.335 -0.697
vn 0.846 -0.248 0.472
vn 0.838 -0.244 0.488
vn -0.882 0.249 -0.401
vn -0.893 0.258 -0.368
vn -0.869 0.247 -0.429
vn -0.862 0.253 -0.439
vn 0.874 -0.249 0.417
vn 0.867 -0.248 0.432
vn 0.866 -0.249 0.434
vn 0.883 -0.246 0.400
vn 0.872 -0.252 0.419
vn -0.865 0.265 -0.427
vn -0.867 0.254 -0.429
vn -0.867 0.254 -0.429
vn 0.869 -0.244 0.430
vn 0.877 -0.243 0.415
vn 0.879 -0.242 0.412
vn -0.852 0.251 -0.460
vn -0.365 0.456 0.812
vn 0.114 0.514 0.851
vn 0.066 0.540 0.839
vn 0.454 0.372 0.810
vn 0.225 0.532 0.816
vn 0.626 0.431 0.649
vn -0.898 0.273 0.345
vn -0.555 0.564 0.611
vn -0.457 0.513 0.726
vn -0.283 0.576 0.766
vn -0.388 0.616 0.685
vn 0.045 0.692 0.721
vn 0.046 0.693 0.720
vn 0.504 0.771 0.390
vn 0.401 0.641 0.655
vn 0.324 0.733 0.598
vn 0.728 0.645 0.232
vn 0.570 0.648 0.505
vn -0.779 0.602 0.176
vn -0.948 0.311 0.067
vn -0.964 0.264 -0.032
vn -0.527 0.643 0.556
vn 0.712 0.691 0.126
vn 0.673 0.730 -0.120
vn 0.816 0.542 -0.200
vn 0.715 0.688 0.126
vn -0.879 0.363 -0.309
vn -0.765 0.104 -0.636
vn -0.797 0.258 -0.546
vn -0.544 -0.227 -0.808
vn -0.401 0.028 -0.916
vn 0.072 -0.089 -0.993
vn 0.358 -0.119 -0.926
vn 0.171 0.222 -0.960
vn 0.714 0.468 -0.521
vn 0.588 0.475 -0.655
vn 0.443 0.248 -0.862
vn 0.669 0.539 -0.511
vn -0.724 0.328 -0.607
vn 0.070 -0.016 -0.997
vn 0.849 -0.247 0.467
vn -0.879 0.265 -0.396
vn -0.905 0.313 -0.289
vn -0.865 0.261 -0.428
vn 0.870 -0.255 0.421
vn 0.873 -0.253 0.418
vn -0.781 0.540 -0.314
vn -0.861 0.265 -0.434
vn -0.211 0.752 0.625
vn 0.025 0.763 0.646
vn -0.093 0.792 0.604
vn 0.387 0.841 0.377
vn -0.738 0.671 0.071
vn -0.284 0.767 0.576
vn -0.297 0.886 0.356
vn -0.369 0.842 0.394
vn 0.077 0.961 0.265
vn 0.212 0.871 0.443
vn 0.557 0.823 -0.114
vn 0.370 0.908 0.197
vn -0.788 0.580 -0.207
vn -0.881 0.474 -0.007
vn -0.163 0.967 0.198
vn -0.333 0.943 -0.021
vn 0.596 0.612 -0.520
vn 0.640 0.657 -0.400
vn 0.365 0.930 -0.037
vn 0.478 0.749 -0.459
vn -0.181 0.952 0.246
vn 0.738 0.499 -0.455
vn -0.513 0.634 0.579
vn 0.239 0.970 -0.042
vn -0.456 0.819 0.348
vn 0.524 0.730 -0.438
vn 0.039 0.924 0.380
vn 0.229 0.856 0.463
vn 0.648 0.332 -0.685
vn 0.066 0.983 0.173
vn 0.504 0.856 -0.115
vn 0.679 0.524 -0.514
vn -0.223 0.067 0.973
vn 0.019 0.985 0.170
vn -0.478 -0.791 0.382
vn -0.347 -0.862 -0.369
vn -0.243 -0.954 -0.175
vn -0.955 -0.234 0.182
vn 0.209 -0.893 -0.399
vn -0.222 -0.925 0.310
vn 0.730 -0.151 -0.667
vn -0.017 -0.977 -0.215
vn 0.269 -0.726 -0.633
vn -0.015 -0.985 -0.170
vn 0.548 -0.564 -0.619
vn 0.588 -0.359 -0.725

# Facets
f 1//1 3//1 2//1
f 4//2 2//2 3//2
f 5//3 3//3 1//3
f 5//4 4//4 3//4
f 6//5 2//5 7//5
f 6//6 1//6 2//6
f 4//7 7//7 2//7
f 4//8 8//8 7//8
f 9//9 1//9 6//9
f 9//10 5//10 1//10
f 5//11 8//11 4//11
f 5//12 9//12 8//12
f 6//13 7//13 10//13
f 10//14 7//14 8//14
f 9//15 6//15 10//15
f 10//16 8//16 9//16
f 11//17 13//17 12//17
f 14//18 12//18 13//18
f 15//19 13//19 11//19
f 15//20 14//20 13//20
f 16//21 12//21 17//21
f 16//22 11//22 12//22
f 18//23 14//23 19//23
f 12//24 14//24 18//24
f 17//25 12//25 18//25
f 20//26 18//26 19//26
f 21//27 23//27 22//27
f 24//28 15//28 23//28
f 23//29 15//29 16//29
f 16//30 15//30 11//30
f 16//31 22//31 23//31
f 14//32 15//32 19//32
f 19//33 15//33 24//33
f 19//34 24//34 25//34
f 19//35 26//35 20//35
f 27//36 26//36 19//36
f 25//37 27//37 19//37
f 28//38 26//38 27//38
f 21//39 29//39 23//39
f 21//40 30//40 29//40
f 31//41 24//41 23//41
f 29//42 31//42 23//42
f 32//43 25//43 24//43
f 31//44 32//44 24//44
f 33//45 27//45 25//45
f 32//46 33//46 25//46
f 27//47 34//47 28//47
f 27//48 33//48 34//48
f 35//49 29//49 30//49
f 36//50 35//50 37//50
f 29//51 35//51 36//51
f 31//52 29//52 36//52
f 32//53 39//53 38//53
f 36//54 39//54 32//54
f 31//55 36//55 32//55
f 38//56 33//56 32//56
f 38//57 40//57 33//57
f 40//58 34//58 33//58
f 41//59 36//59 37//59
f 41//60 39//60 36//60
f 42//61 44//61 43//61
f 43//62 45//62 42//62
f 42//63 46//63 44//63
f 45//64 46//64 42//64
f 47//65 17//65 48//65
f 47//66 16//66 17//66
f 17//67 18//67 49//67
f 48//68 17//68 49//68
f 20//69 49//69 18//69
f 20//70 50//70 49//70
f 51//71 22//71 52//71
f 51//72 21//72 22//72
f 16//73 47//73 22//73
f 47//74 52//74 22//74
f 50//75 20//75 53//75
f 20//76 26//76 53//76
f 28//77 53//77 26//77
f 28//78 54//78 53//78
f 30//79 21//79 51//79
f 30//80 51//80 55//80
f 56//81 58//81 57//81
f 58//82 56//82 59//82
f 60//83 61//83 34//83
f 34//84 61//84 54//84
f 34//85 54//85 28//85
f 62//86 61//86 60//86
f 30//87 63//87 35//87
f 64//88 63//88 30//88
f 55//89 64//89 30//89
f 56//90 57//90 65//90
f 63//91 37//91 35//91
f 66//92 38//92 39//92
f 56//93 65//93 59//93
f 66//94 67//94 38//94
f 38//95 67//95 68//95
f 38//96 68//96 40//96
f 40//97 60//97 34//97
f 69//98 60//98 40//98
f 68//99 69//99 40//99
f 69//100 62//100 60//100
f 70//101 63//101 64//101
f 70//102 37//102 63//102
f 41//103 37//103 70//103
f 71//104 41//104 70//104
f 41//105 66//105 39//105
f 72//106 66//106 41//106
f 71//107 72//107 41//107
f 72//108 67//108 66//108
f 43//109 74//109 73//109
f 44//110 74//110 43//110
f 45//111 76//111 75//111
f 45//112 43//112 76//112
f 43//113 73//113 76//113
f 76//114 77//114 75//114
f 78//115 44//115 46//115
f 78//116 79//116 44//116
f 79//117 74//117 44//117
f 46//118 45//118 75//118
f 46//119 75//119 78//119
f 78//120 75//120 80//120
f 81//121 75//121 77//121
f 80//122 75//122 81//122
f 78//123 82//123 79//123
f 80//124 82//124 78//124
f 83//125 82//125 80//125
f 81//126 83//126 80//126
f 47//127 48//127 84//127
f 85//128 48//128 49//128
f 85//129 84//129 48//129
f 85//130 49//130 50//130
f 51//131 52//131 86//131
f 86//132 52//132 87//132
f 52//133 47//133 87//133
f 87//134 47//134 88//134
f 88//135 47//135 84//135
f 84//136 85//136 88//136
f 85//137 89//137 88//137
f 85//138 50//138 89//138
f 89//139 50//139 53//139
f 89//140 53//140 90//140
f 54//141 90//141 53//141
f 54//142 91//142 90//142
f 92//143 86//143 93//143
f 51//144 86//144 92//144
f 55//145 51//145 92//145
f 58//146 94//146 57//146
f 93//147 86//147 87//147
f 58//148 59//148 94//148
f 61//149 95//149 54//149
f 54//150 95//150 96//150
f 54//151 96//151 91//151
f 95//152 61//152 62//152
f 64//153 55//153 92//153
f 64//154 92//154 97//154
f 57//155 94//155 65//155
f 59//156 65//156 94//156
f 98//157 68//157 67//157
f 96//158 95//158 99//158
f 99//159 95//159 68//159
f 68//160 95//160 69//160
f 68//161 98//161 99//161
f 95//162 62//162 69//162
f 100//163 64//163 97//163
f 100//164 70//164 64//164
f 101//165 71//165 70//165
f 101//166 70//166 100//166
f 102//167 72//167 71//167
f 102//168 71//168 101//168
f 72//169 98//169 67//169
f 103//170 98//170 72//170
f 102//171 103//171 72//171
f 103//172 99//172 98//172
f 73//173 105//173 104//173
f 74//174 105//174 73//174
f 76//175 73//175 106//175
f 73//176 104//176 106//176
f 106//177 77//177 76//177
f 107//178 77//178 106//178
f 108//179 79//179 109//179
f 108//180 105//180 79//180
f 105//181 74//181 79//181
f 109//182 111//182 110//182
f 108//183 109//183 110//183
f 111//184 107//184 110//184
f 111//185 81//185 107//185
f 81//186 77//186 107//186
f 79//187 82//187 109//187
f 83//188 109//188 82//188
f 111//189 109//189 83//189
f 81//190 111//190 83//190
f 87//191 88//191 112//191
f 113//192 88//192 89//192
f 113//193 112//193 88//193
f 114//194 89//194 90//194
f 114//195 113//195 89//195
f 114//196 90//196 91//196
f 92//197 93//197 115//197
f 115//198 93//198 116//198
f 93//199 87//199 116//199
f 116//200 87//200 117//200
f 117//201 87//201 112//201
f 112//202 113//202 117//202
f 113//203 118//203 117//203
f 119//204 118//204 120//204
f 120//205 118//205 113//205
f 120//206 113//206 114//206
f 120//207 91//207 96//207
f 120//208 114//208 91//208
f 121//209 115//209 122//209
f 92//210 115//210 121//210
f 97//211 92//211 121//211
f 115//212 116//212 122//212
f 120//213 123//213 119//213
f 123//214 124//214 119//214
f 123//215 96//215 99//215
f 123//216 120//216 96//216
f 125//217 97//217 121//217
f 125//218 100//218 97//218
f 126//219 127//219 125//219
f 125//220 127//220 101//220
f 125//221 101//221 100//221
f 127//222 128//222 101//222
f 101//223 128//223 129//223
f 101//224 129//224 102//224
f 103//225 124//225 123//225
f 129//226 124//226 103//226
f 102//227 129//227 103//227
f 123//228 99//228 103//228
f 130//229 127//229 126//229
f 130//230 128//230 127//230
f 104//231 105//231 131//231
f 104//232 132//232 106//232
f 131//233 132//233 104//233
f 106//234 132//234 107//234
f 105//235 108//235 131//235
f 110//236 131//236 108//236
f 132//237 131//237 110//237
f 107//238 132//238 110//238
f 116//239 117//239 133//239
f 134//240 117//240 118//240
f 134//241 133//241 117//241
f 134//242 118//242 119//242
f 121//243 122//243 135//243
f 133//244 122//244 116//244
f 135//245 122//245 133//245
f 136//246 135//246 133//246
f 133//247 134//247 137//247
f 133//248 137//248 136//248
f 137//249 119//249 124//249
f 137//250 134//250 119//250
f 125//251 121//251 135//251
f 135//252 126//252 125//252
f 138//253 126//253 135//253
f 136//254 138//254 135//254
f 138//255 129//255 128//255
f 137//256 129//256 138//256
f 136//257 137//257 138//257
f 137//258 124//258 129//258
f 130//259 126//259 138//259
f 138//260 128//260 130//260
f 139//261 141//261 140//261
f 142//262 141//262 143//262
f 142//263 140//263 141//263
f 144//264 142//264 143//264
f 139//265 145//265 141//265
f 139//266 146//266 145//266
f 143//267 148//267 147//267
f 145//268 148//268 143//268
f 141//269 145//269 143//269
f 147//270 144//270 143//270
f 149//271 145//271 146//271
f 149//272 148//272 145//272
f 139//273 140//273 150//273
f 151//274 140//274 142//274
f 151//275 150//275 140//275
f 151//276 142//276 144//276
f 146//277 150//277 152//277
f 146//278 139//278 150//278
f 152//279 147//279 148//279
f 151//280 147//280 152//280
f 150//281 151//281 152//281
f 151//282 144//282 147//282
f 149//283 146//283 152//283
f 152//284 148//284 149//284

# Thankyou for using Spin3D

