# Created using Spin3D

# Vertex Array
v 5.758 -34.594 29.690
v 5.756 -34.594 29.687
v 5.756 -34.595 29.689
v 5.754 -34.594 29.689
v 5.755 -34.594 29.691
v 5.758 -34.592 29.689
v 5.755 -34.592 29.688
v 5.754 -34.592 29.690
v 5.756 -34.593 29.691
v 5.756 -34.592 29.690
v 2.716 -27.049 61.140
v 3.033 -26.808 61.418
v 2.954 -27.301 61.264
v 3.469 -27.016 61.151
v 3.022 -26.769 60.340
v 2.365 -25.820 60.544
v 3.287 -25.374 61.408
v 4.014 -26.204 61.360
v 4.682 -26.168 60.142
v 5.269 -25.319 60.907
v 0.505 -23.939 57.259
v 1.187 -23.950 58.999
v 1.877 -25.517 58.457
v 3.871 -25.955 58.313
v 6.247 -25.227 58.050
v 6.806 -24.560 59.568
v 1.090 -24.812 56.638
v 2.616 -25.220 56.521
v 1.446 -24.166 55.293
v 5.179 -24.857 56.035
v 8.450 -23.953 57.671
v 7.826 -24.346 56.294
v 9.414 -23.805 56.300
v 3.258 -24.123 54.771
v 2.050 -22.968 54.112
v 7.183 -23.520 54.696
v 5.099 -23.700 54.303
v 9.183 -23.507 55.425
v 3.882 -22.306 53.487
v 6.101 -17.989 29.027
v 6.189 -17.866 29.017
v 6.154 -17.992 29.003
v 6.337 -17.836 28.904
v 6.313 -17.799 28.871
v 2.569 -23.257 60.414
v 3.730 -24.006 61.435
v 4.523 -24.801 61.470
v 6.007 -23.795 60.703
v 0.287 -22.113 57.528
v 1.098 -21.991 58.849
v 8.206 -23.462 58.783
v 7.603 -22.845 59.520
v 8.884 -22.172 57.849
v 0.447 -23.757 55.874
v 0.101 -22.188 55.902
v 9.828 -23.123 56.551
v 10.115 -23.368 55.836
v 10.271 -22.933 55.869
v 0.772 -22.536 54.680
v 0.482 -20.437 54.438
v 5.891 -22.638 53.631
v 7.174 -22.124 53.774
v 8.703 -22.269 54.701
v 9.950 -22.906 55.445
v 1.908 -20.784 53.424
v 3.691 -20.152 52.850
v 5.668 -20.876 53.191
v 6.129 -17.679 29.000
v 6.201 -17.629 29.008
v 6.126 -17.826 29.007
v 6.398 -17.559 28.947
v 6.535 -17.590 28.840
v 6.733 -17.477 28.635
v 6.881 -17.277 28.620
v 6.389 -17.505 28.807
v 6.841 -17.172 28.484
v 6.749 -17.376 28.547
v 7.045 -17.177 28.374
v 7.105 -17.097 28.408
v 7.059 -17.087 28.334
v 7.201 -16.981 28.284
v 3.751 -22.950 61.109
v 4.777 -23.113 61.131
v 0.619 -20.499 57.740
v 2.152 -20.015 58.650
v 4.123 -21.309 60.155
v 6.337 -21.622 59.996
v 7.950 -21.345 59.037
v 8.265 -20.419 58.056
v 0.226 -19.692 55.942
v 0.828 -19.011 57.116
v 9.580 -22.031 55.931
v 8.553 -20.306 56.600
v 0.540 -18.569 54.206
v 7.463 -20.932 53.855
v 8.277 -20.455 54.924
v 1.174 -18.867 53.393
v 2.648 -18.014 52.739
v 4.553 -18.911 52.878
v 6.334 -19.042 53.786
v 6.196 -17.565 28.966
v 6.420 -17.349 28.856
v 6.535 -17.298 28.862
v 6.728 -17.276 28.761
v 7.036 -17.026 28.526
v 7.087 -16.958 28.360
v 6.760 -17.111 28.601
v 7.189 -16.917 28.351
v 7.006 -16.938 28.504
v 3.847 -19.446 59.021
v 5.519 -19.357 58.801
v 7.277 -20.146 58.836
v 0.738 -17.931 56.004
v 1.764 -17.764 56.782
v 3.695 -17.932 57.586
v 5.452 -17.735 57.253
v 5.850 -17.309 55.855
v 7.118 -18.887 57.349
v 0.791 -17.475 54.717
v 1.410 -16.849 55.379
v 7.225 -18.675 55.428
v 5.708 -17.406 54.437
v 1.426 -17.077 53.282
v 2.041 -15.889 52.868
v 2.160 -16.305 52.517
v 2.805 -16.300 52.564
v 4.197 -17.134 53.222
v 2.394 -15.741 52.516
v 6.724 -17.083 28.709
v 6.845 -17.054 28.675
v 2.828 -16.450 55.507
v 4.456 -16.790 56.176
v 1.902 -16.149 54.024
v 2.892 -15.814 54.196
v 4.160 -16.319 54.552
v 2.870 -15.840 53.207
v 4.136 -8.194 45.132
v 4.132 -8.194 45.127
v 4.134 -8.193 45.129
v 4.132 -8.192 45.125
v 4.133 -8.193 45.126
v 4.131 -8.193 45.123
v 4.136 -8.194 45.131
v 4.139 -8.195 45.132
v 4.135 -8.194 45.127
v 4.137 -8.193 45.129
v 4.140 -8.194 45.132
v 4.135 -8.195 45.129
v 4.132 -8.194 45.127
v 4.138 -8.194 45.130

# Normal Array
vn 0.270 -0.904 -0.333
vn -0.182 -0.880 -0.438
vn 0.165 -0.977 0.136
vn -0.301 -0.953 0.029
vn 0.526 0.378 -0.762
vn 0.801 -0.212 -0.559
vn -0.487 -0.154 -0.860
vn -0.803 0.394 -0.446
vn 0.818 0.179 0.547
vn 0.503 -0.425 0.752
vn -0.814 -0.371 0.447
vn -0.521 0.134 0.843
vn 0.178 0.980 -0.087
vn -0.246 0.969 0.005
vn 0.261 0.923 0.283
vn -0.157 0.915 0.373
vn -0.580 -0.156 0.799
vn 0.373 -0.330 0.867
vn -0.526 -0.720 -0.452
vn 0.355 -0.821 -0.446
vn -0.711 0.131 0.691
vn -0.708 0.134 0.693
vn 0.721 -0.581 0.378
vn 0.314 -0.428 0.847
vn 0.061 -0.004 0.998
vn 0.620 -0.716 0.319
vn -0.822 -0.472 0.319
vn -0.223 -0.869 -0.442
vn -0.807 -0.581 0.105
vn -0.777 -0.440 -0.450
vn -0.886 -0.440 0.144
vn 0.266 -0.871 -0.413
vn 0.305 -0.921 -0.242
vn 0.262 -0.938 -0.226
vn 0.626 -0.715 0.313
vn 0.619 -0.777 0.113
vn -0.789 -0.605 0.107
vn -0.261 -0.841 -0.474
vn -0.268 -0.932 -0.245
vn -0.224 -0.947 -0.231
vn 0.249 -0.921 -0.301
vn 0.051 -0.911 -0.409
vn 0.515 -0.838 0.178
vn 0.503 -0.864 0.019
vn 0.208 -0.936 -0.282
vn 0.320 -0.939 0.124
vn -0.143 -0.814 -0.563
vn -0.200 -0.635 -0.746
vn 0.175 -0.815 -0.553
vn 0.049 -0.829 -0.556
vn 0.021 -0.850 -0.526
vn 0.211 -0.831 -0.515
vn 0.191 -0.838 -0.511
vn 0.301 -0.876 -0.377
vn -0.080 -0.557 -0.827
vn -0.083 -0.556 -0.827
vn 0.386 -0.210 0.898
vn 0.619 -0.258 0.742
vn -0.403 -0.268 -0.875
vn 0.103 -0.620 -0.778
vn -0.585 0.173 0.792
vn -0.704 0.092 0.704
vn -0.017 -0.072 0.997
vn -0.048 -0.005 0.999
vn 0.474 -0.238 0.848
vn 0.530 -0.145 0.836
vn -0.852 0.001 0.523
vn -0.919 -0.162 0.359
vn -0.735 0.092 0.672
vn -0.720 0.020 0.693
vn 0.623 -0.269 0.735
vn 0.676 -0.295 0.675
vn 0.703 -0.252 0.665
vn 0.787 0.033 0.617
vn -0.842 -0.539 -0.036
vn -0.976 -0.216 0.012
vn -0.984 -0.135 0.119
vn -0.555 -0.683 -0.475
vn 0.694 -0.590 0.412
vn 0.669 -0.578 0.467
vn 0.695 -0.579 0.426
vn 0.695 -0.238 0.679
vn 0.915 -0.255 0.313
vn 0.831 -0.332 0.447
vn -0.883 -0.187 -0.431
vn -0.883 -0.172 -0.436
vn -0.486 -0.477 -0.732
vn -0.579 -0.486 -0.655
vn 0.197 -0.625 -0.756
vn 0.299 -0.524 -0.797
vn 0.414 -0.500 -0.761
vn 0.318 -0.384 -0.867
vn 0.298 -0.877 -0.376
vn 0.412 -0.498 -0.763
vn 0.323 -0.382 -0.866
vn 0.768 -0.231 -0.598
vn -0.598 -0.172 -0.782
vn -0.469 -0.293 -0.833
vn -0.206 -0.306 -0.929
vn -0.197 -0.294 -0.935
vn -0.025 -0.521 -0.853
vn 0.030 -0.238 -0.971
vn 0.063 -0.278 -0.958
vn 0.193 -0.215 -0.957
vn -0.155 0.050 0.987
vn -0.085 0.135 0.987
vn -0.142 0.045 0.989
vn 0.293 0.021 0.956
vn 0.748 -0.481 0.457
vn 0.617 -0.306 0.725
vn 0.573 -0.208 0.793
vn 0.740 -0.517 0.430
vn -0.585 -0.024 -0.811
vn -0.587 0.012 -0.809
vn -0.578 -0.028 -0.816
vn -0.584 -0.026 -0.812
vn -0.585 -0.011 -0.811
vn 0.058 -0.639 -0.767
vn 0.087 -0.661 -0.745
vn -0.003 -0.655 -0.756
vn 0.765 -0.542 0.347
vn 0.754 -0.633 0.176
vn -0.563 -0.004 -0.826
vn -0.294 -0.341 -0.893
vn -0.039 -0.393 -0.919
vn 0.793 -0.607 0.048
vn -0.539 0.259 0.802
vn 0.134 0.176 0.975
vn 0.026 0.295 0.955
vn 0.387 0.125 0.914
vn -0.852 0.108 0.513
vn -0.558 0.372 0.742
vn -0.520 0.356 0.777
vn -0.371 0.407 0.835
vn -0.530 0.513 0.675
vn 0.060 0.491 0.869
vn 0.133 0.508 0.851
vn 0.427 0.220 0.877
vn 0.506 0.196 0.840
vn 0.483 0.165 0.860
vn 0.791 0.014 0.612
vn 0.837 0.237 0.493
vn -0.912 0.261 0.317
vn -0.947 0.158 0.279
vn -0.993 0.048 0.112
vn -0.558 0.386 0.734
vn 0.857 0.387 0.340
vn 0.860 0.380 0.340
vn 0.930 0.304 0.208
vn 0.671 0.475 0.569
vn -0.980 0.052 -0.193
vn -0.985 0.009 -0.173
vn 0.513 -0.066 -0.856
vn 0.812 0.554 -0.183
vn 0.764 0.253 -0.594
vn 0.616 0.565 -0.548
vn 0.714 0.248 -0.655
vn 0.680 0.554 -0.481
vn -0.797 -0.050 -0.602
vn -0.601 -0.242 -0.762
vn -0.247 -0.170 -0.954
vn -0.331 -0.142 -0.933
vn 0.142 -0.076 -0.987
vn 0.063 -0.021 -0.998
vn 0.347 -0.020 -0.938
vn 0.347 0.173 -0.922
vn 0.458 0.120 -0.881
vn 0.654 0.366 -0.662
vn -0.424 0.476 0.771
vn -0.114 0.543 0.832
vn -0.325 0.636 0.700
vn 0.234 0.185 0.954
vn 0.585 -0.161 0.795
vn 0.459 0.045 0.887
vn 0.659 -0.226 0.717
vn 0.670 -0.142 0.728
vn -0.656 0.163 -0.737
vn -0.658 0.379 -0.651
vn -0.695 0.318 -0.645
vn -0.704 0.337 -0.625
vn -0.658 0.342 -0.671
vn -0.373 0.868 -0.329
vn -0.626 0.645 -0.439
vn 0.572 0.374 0.730
vn 0.796 -0.190 0.575
vn 0.765 -0.251 0.593
vn -0.614 0.277 -0.739
vn -0.498 0.269 -0.824
vn -0.322 0.659 -0.680
vn 0.868 -0.277 0.411
vn -0.333 0.454 0.826
vn 0.132 0.500 0.856
vn 0.083 0.527 0.846
vn 0.425 0.376 0.823
vn 0.215 0.515 0.830
vn 0.626 0.457 0.633
vn -0.912 0.254 0.321
vn -0.552 0.575 0.604
vn -0.443 0.526 0.726
vn -0.267 0.588 0.764
vn -0.361 0.622 0.695
vn 0.058 0.690 0.722
vn 0.059 0.690 0.721
vn 0.511 0.771 0.381
vn 0.405 0.640 0.653
vn 0.320 0.740 0.592
vn 0.739 0.644 0.196
vn 0.571 0.656 0.494
vn -0.787 0.591 0.177
vn -0.959 0.277 0.059
vn -0.972 0.234 -0.025
vn -0.525 0.646 0.554
vn 0.718 0.686 0.116
vn 0.681 0.722 -0.118
vn 0.823 0.538 -0.184
vn 0.728 0.676 0.116
vn -0.890 0.344 -0.299
vn -0.774 0.070 -0.629
vn -0.807 0.228 -0.544
vn -0.552 -0.260 -0.792
vn -0.406 0.000 -0.914
vn 0.074 -0.108 -0.991
vn 0.360 -0.127 -0.924
vn 0.174 0.221 -0.960
vn 0.724 0.476 -0.499
vn 0.600 0.483 -0.638
vn 0.454 0.256 -0.854
vn 0.682 0.542 -0.491
vn -0.733 0.304 -0.609
vn 0.074 -0.032 -0.997
vn -0.360 0.731 0.580
vn 0.452 0.105 0.886
vn 0.123 0.501 0.856
vn 0.616 -0.019 0.788
vn -0.706 0.594 -0.387
vn -0.627 0.678 -0.383
vn -0.053 0.848 0.528
vn 0.537 0.369 0.759
vn -0.193 0.759 0.622
vn 0.035 0.767 0.640
vn -0.081 0.795 0.601
vn 0.397 0.840 0.369
vn -0.746 0.662 0.072
vn -0.270 0.774 0.573
vn -0.283 0.890 0.357
vn -0.355 0.848 0.394
vn 0.093 0.961 0.261
vn 0.226 0.872 0.434
vn 0.565 0.817 -0.113
vn 0.381 0.904 0.193
vn -0.800 0.567 -0.197
vn -0.889 0.459 -0.004
vn -0.140 0.970 0.201
vn -0.318 0.948 -0.018
vn 0.607 0.616 -0.503
vn 0.647 0.658 -0.386
vn 0.378 0.925 -0.033
vn 0.492 0.748 -0.445
vn -0.156 0.957 0.244
vn 0.742 0.507 -0.439
vn -0.513 0.634 0.579
vn 0.239 0.970 -0.042
vn -0.456 0.819 0.348
vn 0.524 0.730 -0.438
vn 0.039 0.924 0.380
vn 0.229 0.856 0.463
vn 0.648 0.332 -0.685
vn 0.066 0.983 0.173
vn 0.504 0.856 -0.115
vn 0.679 0.524 -0.514
vn -0.223 0.067 0.973
vn 0.019 0.985 0.170
vn -0.478 -0.791 0.382
vn -0.347 -0.862 -0.369
vn -0.243 -0.954 -0.175
vn -0.955 -0.234 0.182
vn 0.209 -0.893 -0.399
vn -0.222 -0.925 0.310
vn 0.730 -0.151 -0.667
vn -0.017 -0.977 -0.215
vn 0.269 -0.726 -0.633
vn -0.015 -0.985 -0.170
vn 0.548 -0.564 -0.619
vn 0.588 -0.359 -0.725

# Facets
f 1//1 3//1 2//1
f 4//2 2//2 3//2
f 5//3 3//3 1//3
f 5//4 4//4 3//4
f 6//5 2//5 7//5
f 6//6 1//6 2//6
f 4//7 7//7 2//7
f 4//8 8//8 7//8
f 9//9 1//9 6//9
f 9//10 5//10 1//10
f 5//11 8//11 4//11
f 5//12 9//12 8//12
f 6//13 7//13 10//13
f 10//14 7//14 8//14
f 9//15 6//15 10//15
f 10//16 8//16 9//16
f 11//17 13//17 12//17
f 14//18 12//18 13//18
f 15//19 13//19 11//19
f 15//20 14//20 13//20
f 16//21 12//21 17//21
f 16//22 11//22 12//22
f 18//23 14//23 19//23
f 12//24 14//24 18//24
f 17//25 12//25 18//25
f 20//26 18//26 19//26
f 21//27 23//27 22//27
f 24//28 15//28 23//28
f 23//29 15//29 16//29
f 16//30 15//30 11//30
f 16//31 22//31 23//31
f 14//32 15//32 19//32
f 19//33 15//33 24//33
f 19//34 24//34 25//34
f 19//35 26//35 20//35
f 19//36 25//36 26//36
f 27//37 23//37 21//37
f 28//38 27//38 29//38
f 23//39 27//39 28//39
f 24//40 23//40 28//40
f 30//41 25//41 24//41
f 28//42 30//42 24//42
f 25//43 31//43 26//43
f 32//44 31//44 25//44
f 30//45 32//45 25//45
f 33//46 31//46 32//46
f 29//47 34//47 28//47
f 29//48 35//48 34//48
f 30//49 37//49 36//49
f 34//50 37//50 30//50
f 28//51 34//51 30//51
f 36//52 32//52 30//52
f 36//53 38//53 32//53
f 38//54 33//54 32//54
f 39//55 34//55 35//55
f 39//56 37//56 34//56
f 40//57 42//57 41//57
f 43//58 41//58 42//58
f 44//59 42//59 40//59
f 44//60 43//60 42//60
f 45//61 17//61 46//61
f 45//62 16//62 17//62
f 17//63 18//63 47//63
f 46//64 17//64 47//64
f 20//65 47//65 18//65
f 20//66 48//66 47//66
f 49//67 22//67 50//67
f 49//68 21//68 22//68
f 16//69 45//69 22//69
f 45//70 50//70 22//70
f 51//71 52//71 26//71
f 26//72 52//72 48//72
f 26//73 48//73 20//73
f 53//74 52//74 51//74
f 21//75 54//75 27//75
f 55//76 54//76 21//76
f 49//77 55//77 21//77
f 29//78 27//78 54//78
f 51//79 26//79 31//79
f 56//80 33//80 57//80
f 56//81 31//81 33//81
f 53//82 31//82 56//82
f 51//83 31//83 53//83
f 58//84 56//84 57//84
f 55//85 59//85 54//85
f 55//86 60//86 59//86
f 35//87 29//87 59//87
f 29//88 54//88 59//88
f 61//89 36//89 37//89
f 61//90 62//90 36//90
f 36//91 62//91 63//91
f 36//92 63//92 38//92
f 38//93 57//93 33//93
f 64//94 57//94 38//94
f 63//95 64//95 38//95
f 64//96 58//96 57//96
f 65//97 59//97 60//97
f 65//98 35//98 59//98
f 39//99 35//99 65//99
f 66//100 39//100 65//100
f 39//101 61//101 37//101
f 67//102 61//102 39//102
f 66//103 67//103 39//103
f 67//104 62//104 61//104
f 68//105 70//105 69//105
f 41//106 70//106 40//106
f 69//107 70//107 41//107
f 71//108 69//108 41//108
f 72//109 43//109 73//109
f 41//110 43//110 72//110
f 71//111 41//111 72//111
f 74//112 72//112 73//112
f 75//113 70//113 68//113
f 76//114 77//114 75//114
f 77//115 44//115 75//115
f 75//116 44//116 70//116
f 70//117 44//117 40//117
f 43//118 44//118 73//118
f 73//119 44//119 77//119
f 73//120 77//120 78//120
f 73//121 79//121 74//121
f 73//122 78//122 79//122
f 80//123 77//123 76//123
f 80//124 78//124 77//124
f 80//125 81//125 78//125
f 81//126 79//126 78//126
f 45//127 46//127 82//127
f 83//128 46//128 47//128
f 83//129 82//129 46//129
f 83//130 47//130 48//130
f 49//131 50//131 84//131
f 84//132 50//132 85//132
f 50//133 45//133 85//133
f 85//134 45//134 86//134
f 86//135 45//135 82//135
f 82//136 83//136 86//136
f 83//137 87//137 86//137
f 83//138 48//138 87//138
f 87//139 48//139 52//139
f 87//140 52//140 88//140
f 53//141 88//141 52//141
f 53//142 89//142 88//142
f 90//143 84//143 91//143
f 49//144 84//144 90//144
f 55//145 49//145 90//145
f 84//146 85//146 91//146
f 56//147 92//147 53//147
f 53//148 92//148 93//148
f 53//149 93//149 89//149
f 92//150 56//150 58//150
f 60//151 55//151 90//151
f 60//152 90//152 94//152
f 95//153 63//153 62//153
f 93//154 92//154 96//154
f 96//155 92//155 63//155
f 63//156 92//156 64//156
f 63//157 95//157 96//157
f 92//158 58//158 64//158
f 97//159 60//159 94//159
f 97//160 65//160 60//160
f 98//161 66//161 65//161
f 98//162 65//162 97//162
f 99//163 67//163 66//163
f 99//164 66//164 98//164
f 67//165 95//165 62//165
f 100//166 95//166 67//166
f 99//167 100//167 67//167
f 100//168 96//168 95//168
f 68//169 69//169 101//169
f 69//170 102//170 101//170
f 103//171 102//171 69//171
f 71//172 103//172 69//172
f 71//173 72//173 104//173
f 103//174 71//174 104//174
f 74//175 104//175 72//175
f 74//176 105//176 104//176
f 75//177 68//177 101//177
f 106//178 76//178 107//178
f 76//179 75//179 107//179
f 107//180 75//180 102//180
f 102//181 75//181 101//181
f 108//182 106//182 109//182
f 106//183 107//183 109//183
f 105//184 108//184 109//184
f 79//185 108//185 105//185
f 74//186 79//186 105//186
f 80//187 76//187 106//187
f 106//188 81//188 80//188
f 106//189 108//189 81//189
f 108//190 79//190 81//190
f 85//191 86//191 110//191
f 111//192 86//192 87//192
f 111//193 110//193 86//193
f 112//194 87//194 88//194
f 112//195 111//195 87//195
f 112//196 88//196 89//196
f 90//197 91//197 113//197
f 113//198 91//198 114//198
f 91//199 85//199 114//199
f 114//200 85//200 115//200
f 115//201 85//201 110//201
f 110//202 111//202 115//202
f 111//203 116//203 115//203
f 117//204 116//204 118//204
f 118//205 116//205 111//205
f 118//206 111//206 112//206
f 118//207 89//207 93//207
f 118//208 112//208 89//208
f 119//209 113//209 120//209
f 90//210 113//210 119//210
f 94//211 90//211 119//211
f 113//212 114//212 120//212
f 118//213 121//213 117//213
f 121//214 122//214 117//214
f 121//215 93//215 96//215
f 121//216 118//216 93//216
f 123//217 94//217 119//217
f 123//218 97//218 94//218
f 124//219 125//219 123//219
f 123//220 125//220 98//220
f 123//221 98//221 97//221
f 125//222 126//222 98//222
f 98//223 126//223 127//223
f 98//224 127//224 99//224
f 100//225 122//225 121//225
f 127//226 122//226 100//226
f 99//227 127//227 100//227
f 121//228 96//228 100//228
f 128//229 125//229 124//229
f 128//230 126//230 125//230
f 102//231 103//231 129//231
f 130//232 103//232 104//232
f 130//233 129//233 103//233
f 130//234 104//234 105//234
f 107//235 102//235 129//235
f 129//236 109//236 107//236
f 129//237 130//237 109//237
f 130//238 105//238 109//238
f 114//239 115//239 131//239
f 132//240 115//240 116//240
f 132//241 131//241 115//241
f 132//242 116//242 117//242
f 119//243 120//243 133//243
f 131//244 120//244 114//244
f 133//245 120//245 131//245
f 134//246 133//246 131//246
f 131//247 132//247 135//247
f 131//248 135//248 134//248
f 135//249 117//249 122//249
f 135//250 132//250 117//250
f 123//251 119//251 133//251
f 133//252 124//252 123//252
f 136//253 124//253 133//253
f 134//254 136//254 133//254
f 136//255 127//255 126//255
f 135//256 127//256 136//256
f 134//257 135//257 136//257
f 135//258 122//258 127//258
f 128//259 124//259 136//259
f 136//260 126//260 128//260
f 137//261 139//261 138//261
f 140//262 139//262 141//262
f 140//263 138//263 139//263
f 142//264 140//264 141//264
f 137//265 143//265 139//265
f 137//266 144//266 143//266
f 141//267 146//267 145//267
f 143//268 146//268 141//268
f 139//269 143//269 141//269
f 145//270 142//270 141//270
f 147//271 143//271 144//271
f 147//272 146//272 143//272
f 137//273 138//273 148//273
f 149//274 138//274 140//274
f 149//275 148//275 138//275
f 149//276 140//276 142//276
f 144//277 148//277 150//277
f 144//278 137//278 148//278
f 150//279 145//279 146//279
f 149//280 145//280 150//280
f 148//281 149//281 150//281
f 149//282 142//282 145//282
f 147//283 144//283 150//283
f 150//284 146//284 147//284

# Thankyou for using Spin3D

