# Created using Spin3D

# Vertex Array
v 5.758 -34.594 29.690
v 5.756 -34.594 29.687
v 5.756 -34.595 29.689
v 5.754 -34.594 29.689
v 5.755 -34.594 29.691
v 5.758 -34.592 29.689
v 5.755 -34.592 29.688
v 5.754 -34.592 29.690
v 5.756 -34.593 29.691
v 5.756 -34.592 29.690
v 2.251 -26.893 60.859
v 2.534 -26.639 61.056
v 2.532 -27.006 60.940
v 3.392 -26.325 60.699
v 2.512 -26.587 60.167
v 2.067 -25.780 60.303
v 3.119 -25.394 61.171
v 4.230 -25.492 61.187
v 0.590 -24.129 57.228
v 1.074 -24.069 58.757
v 1.822 -25.480 58.379
v 3.904 -25.794 58.672
v 5.472 -25.039 60.029
v 6.538 -24.866 57.903
v 7.439 -24.211 58.757
v 1.292 -24.546 56.215
v 0.221 -23.013 55.650
v 2.845 -25.255 56.807
v 5.158 -24.744 56.112
v 8.596 -23.794 57.386
v 7.878 -24.189 56.180
v 9.432 -23.689 56.138
v 1.092 -23.628 54.838
v 2.813 -24.125 54.930
v 1.817 -22.910 54.004
v 7.097 -23.437 54.665
v 4.904 -23.669 54.345
v 9.145 -23.404 55.321
v 3.697 -22.401 53.567
v 6.909 -18.386 27.953
v 6.865 -18.157 28.063
v 6.861 -18.278 28.021
v 6.948 -18.284 27.971
v 6.920 -18.382 27.951
v 6.881 -18.154 28.060
v 6.987 -18.383 27.913
v 6.979 -18.265 27.964
v 2.425 -23.306 60.188
v 3.530 -23.960 61.286
v 4.307 -24.593 61.431
v 4.923 -24.920 61.155
v 5.519 -23.829 60.788
v 0.136 -22.424 57.105
v 1.013 -22.189 58.545
v 7.266 -23.154 59.412
v 8.298 -23.419 58.426
v 8.809 -22.165 57.690
v -0.183 -21.767 55.818
v 9.810 -23.038 56.389
v 10.078 -23.274 55.704
v 10.218 -22.849 55.746
v 0.755 -22.470 54.358
v 0.312 -21.061 54.763
v 5.746 -22.635 53.652
v 7.071 -22.097 53.782
v 8.627 -22.197 54.656
v 9.888 -22.818 55.342
v 1.864 -21.138 53.634
v 3.686 -20.582 53.151
v 5.594 -21.016 53.340
v 6.824 -17.824 28.208
v 6.818 -17.969 28.160
v 7.030 -18.203 27.959
v 6.926 -17.954 28.105
v 7.027 -17.960 28.049
v 6.843 -17.785 28.216
v 7.051 -18.256 27.929
v 7.071 -18.089 27.979
v 6.936 -17.997 28.088
v 7.026 -18.048 28.021
v 3.569 -22.932 60.953
v 4.527 -23.071 61.054
v 0.567 -20.859 57.496
v 2.198 -20.198 58.456
v 4.018 -21.324 60.012
v 6.108 -21.665 59.924
v 7.762 -21.403 58.931
v 8.172 -20.392 57.979
v 0.095 -20.419 56.062
v 0.897 -19.456 56.923
v 9.516 -21.964 55.841
v 8.511 -20.261 56.573
v 0.448 -19.375 54.916
v 7.398 -20.941 53.925
v 8.239 -20.434 54.970
v 1.293 -19.331 54.060
v 2.939 -19.205 53.471
v 4.621 -19.423 53.338
v 6.370 -19.246 54.091
v 6.837 -17.583 28.292
v 6.793 -17.605 28.307
v 6.940 -17.702 28.192
v 6.850 -17.480 28.326
v 6.820 -17.502 28.334
v 6.924 -17.714 28.199
v 7.027 -17.879 28.081
v 3.902 -19.498 58.910
v 5.529 -19.358 58.752
v 7.168 -20.131 58.769
v 0.870 -18.618 55.698
v 2.089 -18.177 56.690
v 3.952 -18.102 57.630
v 5.649 -17.787 57.365
v 6.105 -17.459 56.160
v 7.149 -18.865 57.383
v 1.187 -18.281 54.679
v 2.083 -17.507 55.259
v 7.292 -18.718 55.600
v 5.927 -17.710 54.919
v 2.411 -17.918 54.207
v 4.368 -17.910 54.103
v 6.799 -17.428 28.372
v 3.482 -17.072 56.014
v 4.861 -17.051 56.510
v 3.375 -17.084 54.846
v 4.752 -16.966 55.329
v 4.136 -8.194 45.132
v 4.132 -8.194 45.127
v 4.134 -8.193 45.129
v 4.132 -8.192 45.125
v 4.133 -8.193 45.126
v 4.131 -8.193 45.123
v 4.136 -8.194 45.131
v 4.139 -8.195 45.132
v 4.135 -8.194 45.127
v 4.137 -8.193 45.129
v 4.140 -8.194 45.132
v 4.135 -8.195 45.129
v 4.132 -8.194 45.127
v 4.138 -8.194 45.130

# Normal Array
vn 0.270 -0.904 -0.333
vn -0.182 -0.880 -0.438
vn 0.165 -0.977 0.136
vn -0.301 -0.953 0.029
vn 0.526 0.378 -0.762
vn 0.801 -0.212 -0.559
vn -0.487 -0.154 -0.860
vn -0.803 0.394 -0.446
vn 0.818 0.179 0.547
vn 0.503 -0.425 0.752
vn -0.814 -0.371 0.447
vn -0.521 0.134 0.843
vn 0.178 0.980 -0.087
vn -0.246 0.969 0.005
vn 0.261 0.923 0.283
vn -0.157 0.915 0.373
vn -0.367 -0.278 0.887
vn 0.453 -0.272 0.849
vn -0.213 -0.861 -0.462
vn 0.485 -0.763 -0.427
vn -0.669 0.249 0.700
vn -0.686 0.231 0.690
vn 0.457 -0.292 0.840
vn -0.054 -0.464 0.884
vn -0.816 -0.507 0.278
vn -0.058 -0.859 -0.509
vn -0.873 -0.487 0.035
vn -0.805 -0.366 -0.467
vn -0.879 -0.476 0.038
vn 0.570 -0.759 0.315
vn 0.500 -0.860 -0.099
vn 0.357 -0.928 0.104
vn 0.364 -0.919 -0.149
vn 0.472 -0.866 0.166
vn -0.661 -0.734 -0.155
vn -0.744 -0.616 -0.261
vn -0.116 -0.970 -0.214
vn -0.291 -0.902 -0.318
vn 0.253 -0.932 -0.258
vn 0.107 -0.937 -0.332
vn 0.486 -0.862 0.147
vn 0.464 -0.885 0.013
vn 0.201 -0.955 -0.219
vn 0.307 -0.943 0.126
vn -0.723 -0.618 -0.307
vn -0.157 -0.677 -0.719
vn -0.211 -0.827 -0.521
vn -0.193 -0.842 -0.504
vn 0.165 -0.832 -0.530
vn 0.039 -0.851 -0.524
vn 0.034 -0.856 -0.516
vn 0.184 -0.839 -0.511
vn 0.177 -0.843 -0.509
vn 0.270 -0.876 -0.400
vn -0.017 -0.614 -0.789
vn -0.097 -0.586 -0.805
vn -0.486 0.301 -0.821
vn -0.442 0.318 -0.839
vn 0.321 -0.398 0.859
vn 0.419 -0.333 0.845
vn -0.438 0.316 -0.841
vn 0.380 -0.597 0.706
vn 0.450 -0.322 0.833
vn 0.456 -0.324 0.829
vn -0.660 0.130 0.740
vn -0.659 0.130 0.741
vn 0.269 -0.274 0.923
vn -0.037 -0.259 0.965
vn -0.200 -0.022 0.979
vn 0.436 0.064 0.897
vn -0.856 0.030 0.516
vn -0.926 -0.225 0.302
vn -0.756 0.139 0.640
vn -0.740 0.052 0.671
vn 0.602 -0.708 0.368
vn 0.599 -0.349 0.721
vn 0.608 -0.344 0.716
vn 0.656 -0.419 0.628
vn 0.841 -0.310 0.443
vn 0.702 0.125 0.701
vn -0.966 -0.254 0.047
vn -0.946 -0.316 0.073
vn 0.699 -0.586 0.411
vn 0.677 -0.573 0.462
vn 0.703 -0.572 0.422
vn 0.697 -0.219 0.683
vn 0.926 -0.183 0.331
vn 0.840 -0.319 0.438
vn -0.759 -0.425 -0.493
vn -0.888 -0.155 -0.433
vn -0.830 -0.198 -0.522
vn -0.444 -0.450 -0.774
vn 0.177 -0.643 -0.745
vn 0.291 -0.522 -0.802
vn 0.400 -0.499 -0.769
vn 0.290 -0.363 -0.885
vn 0.287 -0.869 -0.404
vn 0.391 -0.466 -0.794
vn 0.306 -0.355 -0.883
vn 0.754 -0.185 -0.630
vn -0.586 0.048 -0.809
vn -0.377 -0.180 -0.909
vn -0.171 -0.197 -0.965
vn -0.187 -0.220 -0.957
vn -0.027 -0.541 -0.841
vn 0.019 -0.187 -0.982
vn 0.046 -0.223 -0.974
vn 0.165 -0.172 -0.971
vn -0.506 0.292 -0.811
vn -0.490 0.300 -0.818
vn -0.437 0.313 -0.843
vn -0.452 0.309 -0.837
vn -0.454 0.309 -0.836
vn -0.449 0.306 -0.840
vn 0.390 -0.332 0.859
vn 0.420 -0.317 0.850
vn -0.420 0.314 -0.851
vn -0.440 0.316 -0.841
vn -0.435 0.308 -0.846
vn -0.432 0.307 -0.848
vn 0.449 -0.309 0.839
vn 0.460 -0.312 0.832
vn 0.450 -0.326 0.832
vn 0.450 -0.315 0.836
vn 0.450 -0.315 0.836
vn 0.481 -0.305 0.822
vn -0.595 0.269 0.758
vn 0.013 0.239 0.971
vn -0.055 0.310 0.949
vn 0.375 0.172 0.911
vn -0.857 0.110 0.504
vn -0.578 0.377 0.724
vn -0.566 0.369 0.737
vn -0.429 0.416 0.802
vn -0.585 0.525 0.618
vn -0.017 0.509 0.861
vn 0.122 0.534 0.836
vn 0.416 0.237 0.878
vn 0.570 0.166 0.805
vn 0.502 0.094 0.860
vn 0.754 -0.033 0.656
vn 0.806 0.198 0.558
vn -0.848 0.359 0.389
vn -0.921 0.165 0.354
vn -0.942 0.139 0.304
vn -0.581 0.421 0.697
vn 0.834 0.414 0.364
vn 0.861 0.350 0.368
vn 0.924 0.291 0.250
vn 0.675 0.474 0.566
vn -0.931 0.241 -0.275
vn -0.973 0.098 -0.211
vn 0.488 -0.030 -0.872
vn 0.805 0.560 -0.197
vn 0.743 0.272 -0.611
vn 0.591 0.583 -0.558
vn 0.681 0.271 -0.680
vn 0.656 0.572 -0.492
vn -0.710 0.120 -0.694
vn -0.588 0.005 -0.809
vn -0.276 0.073 -0.958
vn -0.343 0.112 -0.933
vn 0.114 0.068 -0.991
vn -0.052 0.199 -0.979
vn 0.307 0.031 -0.951
vn 0.287 0.265 -0.921
vn 0.367 0.223 -0.903
vn 0.592 0.426 -0.684
vn -0.457 0.312 -0.833
vn -0.520 0.290 -0.804
vn -0.431 0.331 -0.840
vn -0.448 0.314 -0.837
vn -0.450 0.313 -0.837
vn -0.447 0.314 -0.838
vn 0.453 -0.310 0.836
vn 0.402 -0.323 0.857
vn 0.415 -0.317 0.853
vn 0.452 -0.310 0.836
vn 0.534 -0.267 0.802
vn 0.526 -0.249 0.813
vn -0.351 0.349 -0.869
vn -0.387 0.344 -0.855
vn 0.451 -0.307 0.838
vn 0.455 -0.307 0.836
vn 0.465 -0.302 0.832
vn 0.487 -0.298 0.821
vn -0.399 0.455 0.796
vn 0.114 0.473 0.874
vn 0.038 0.518 0.855
vn 0.451 0.317 0.834
vn 0.220 0.485 0.846
vn 0.631 0.381 0.676
vn -0.848 0.428 0.311
vn -0.607 0.649 0.458
vn -0.474 0.565 0.675
vn -0.381 0.597 0.706
vn -0.429 0.619 0.658
vn 0.013 0.676 0.737
vn -0.006 0.662 0.749
vn 0.531 0.746 0.403
vn 0.412 0.585 0.698
vn 0.324 0.701 0.636
vn 0.761 0.603 0.240
vn 0.584 0.603 0.543
vn -0.834 0.546 -0.079
vn -0.907 0.410 0.093
vn -0.559 0.750 0.354
vn -0.668 0.743 0.038
vn 0.747 0.655 0.114
vn 0.651 0.721 -0.239
vn 0.826 0.528 -0.197
vn 0.743 0.659 0.114
vn -0.683 0.319 -0.657
vn -0.408 0.800 -0.440
vn -0.433 0.425 -0.795
vn -0.339 0.358 -0.870
vn -0.012 0.450 -0.893
vn -0.048 0.481 -0.876
vn 0.652 0.497 -0.573
vn 0.343 0.520 -0.782
vn 0.309 0.470 -0.827
vn 0.615 0.548 -0.568
vn -0.459 0.317 -0.830
vn -0.426 0.331 -0.842
vn 0.410 -0.324 0.853
vn 0.450 -0.306 0.839
vn -0.320 0.754 0.574
vn -0.033 0.742 0.669
vn -0.217 0.794 0.569
vn 0.383 0.845 0.374
vn -0.305 0.952 0.018
vn -0.455 0.806 0.380
vn -0.042 0.996 0.076
vn -0.084 0.996 -0.003
vn 0.458 0.856 -0.239
vn 0.321 0.946 0.038
vn -0.403 0.803 -0.439
vn -0.043 0.639 -0.768
vn 0.157 0.758 -0.632
vn 0.240 0.732 -0.638
vn -0.513 0.634 0.579
vn 0.239 0.970 -0.042
vn -0.456 0.819 0.348
vn 0.524 0.730 -0.438
vn 0.039 0.924 0.380
vn 0.229 0.856 0.463
vn 0.648 0.332 -0.685
vn 0.066 0.983 0.173
vn 0.504 0.856 -0.115
vn 0.679 0.524 -0.514
vn -0.223 0.067 0.973
vn 0.019 0.985 0.170
vn -0.478 -0.791 0.382
vn -0.347 -0.862 -0.369
vn -0.243 -0.954 -0.175
vn -0.955 -0.234 0.182
vn 0.209 -0.893 -0.399
vn -0.222 -0.925 0.310
vn 0.730 -0.151 -0.667
vn -0.017 -0.977 -0.215
vn 0.269 -0.726 -0.633
vn -0.015 -0.985 -0.170
vn 0.548 -0.564 -0.619
vn 0.588 -0.359 -0.725

# Facets
f 1//1 3//1 2//1
f 4//2 2//2 3//2
f 5//3 3//3 1//3
f 5//4 4//4 3//4
f 6//5 2//5 7//5
f 6//6 1//6 2//6
f 4//7 7//7 2//7
f 4//8 8//8 7//8
f 9//9 1//9 6//9
f 9//10 5//10 1//10
f 5//11 8//11 4//11
f 5//12 9//12 8//12
f 6//13 7//13 10//13
f 10//14 7//14 8//14
f 9//15 6//15 10//15
f 10//16 8//16 9//16
f 11//17 13//17 12//17
f 14//18 12//18 13//18
f 15//19 13//19 11//19
f 15//20 14//20 13//20
f 16//21 12//21 17//21
f 16//22 11//22 12//22
f 14//23 17//23 12//23
f 14//24 18//24 17//24
f 19//25 21//25 20//25
f 22//26 15//26 21//26
f 21//27 15//27 16//27
f 16//28 15//28 11//28
f 16//29 20//29 21//29
f 14//30 23//30 18//30
f 22//31 23//31 14//31
f 24//32 23//32 22//32
f 15//33 22//33 14//33
f 25//34 23//34 24//34
f 19//35 26//35 21//35
f 19//36 27//36 26//36
f 28//37 22//37 21//37
f 26//38 28//38 21//38
f 29//39 24//39 22//39
f 28//40 29//40 22//40
f 24//41 30//41 25//41
f 31//42 30//42 24//42
f 29//43 31//43 24//43
f 32//44 30//44 31//44
f 33//45 26//45 27//45
f 34//46 33//46 35//46
f 26//47 33//47 34//47
f 28//48 26//48 34//48
f 29//49 37//49 36//49
f 34//50 37//50 29//50
f 28//51 34//51 29//51
f 36//52 31//52 29//52
f 36//53 38//53 31//53
f 38//54 32//54 31//54
f 39//55 34//55 35//55
f 39//56 37//56 34//56
f 40//57 42//57 41//57
f 41//58 43//58 40//58
f 44//59 42//59 40//59
f 45//60 42//60 44//60
f 46//61 40//61 43//61
f 44//62 40//62 46//62
f 44//63 47//63 45//63
f 46//64 47//64 44//64
f 48//65 17//65 49//65
f 48//66 16//66 17//66
f 50//67 18//67 51//67
f 17//68 18//68 50//68
f 49//69 17//69 50//69
f 52//70 50//70 51//70
f 53//71 20//71 54//71
f 53//72 19//72 20//72
f 16//73 48//73 20//73
f 48//74 54//74 20//74
f 51//75 18//75 23//75
f 55//76 25//76 56//76
f 55//77 23//77 25//77
f 52//78 23//78 55//78
f 51//79 23//79 52//79
f 57//80 55//80 56//80
f 27//81 19//81 53//81
f 27//82 53//82 58//82
f 56//83 25//83 30//83
f 59//84 32//84 60//84
f 59//85 30//85 32//85
f 57//86 30//86 59//86
f 56//87 30//87 57//87
f 61//88 59//88 60//88
f 27//89 62//89 33//89
f 63//90 62//90 27//90
f 58//91 63//91 27//91
f 35//92 33//92 62//92
f 64//93 36//93 37//93
f 64//94 65//94 36//94
f 36//95 65//95 66//95
f 36//96 66//96 38//96
f 38//97 60//97 32//97
f 67//98 60//98 38//98
f 66//99 67//99 38//99
f 67//100 61//100 60//100
f 68//101 62//101 63//101
f 68//102 35//102 62//102
f 39//103 35//103 68//103
f 69//104 39//104 68//104
f 39//105 64//105 37//105
f 70//106 64//106 39//106
f 69//107 70//107 39//107
f 70//108 65//108 64//108
f 41//109 72//109 71//109
f 42//110 72//110 41//110
f 43//111 74//111 73//111
f 43//112 41//112 74//112
f 41//113 71//113 74//113
f 74//114 75//114 73//114
f 42//115 45//115 72//115
f 72//116 45//116 76//116
f 73//117 77//117 46//117
f 43//118 73//118 46//118
f 78//119 73//119 75//119
f 77//120 73//120 78//120
f 45//121 79//121 76//121
f 47//122 79//122 45//122
f 77//123 47//123 46//123
f 77//124 80//124 47//124
f 80//125 79//125 47//125
f 78//126 80//126 77//126
f 48//127 49//127 81//127
f 82//128 49//128 50//128
f 82//129 81//129 49//129
f 82//130 50//130 52//130
f 53//131 54//131 83//131
f 83//132 54//132 84//132
f 54//133 48//133 84//133
f 84//134 48//134 85//134
f 85//135 48//135 81//135
f 81//136 82//136 85//136
f 82//137 86//137 85//137
f 82//138 52//138 86//138
f 86//139 52//139 55//139
f 86//140 55//140 87//140
f 57//141 87//141 55//141
f 57//142 88//142 87//142
f 89//143 83//143 90//143
f 53//144 83//144 89//144
f 58//145 53//145 89//145
f 83//146 84//146 90//146
f 59//147 91//147 57//147
f 57//148 91//148 92//148
f 57//149 92//149 88//149
f 91//150 59//150 61//150
f 63//151 58//151 89//151
f 63//152 89//152 93//152
f 94//153 66//153 65//153
f 92//154 91//154 95//154
f 95//155 91//155 66//155
f 66//156 91//156 67//156
f 66//157 94//157 95//157
f 91//158 61//158 67//158
f 96//159 63//159 93//159
f 96//160 68//160 63//160
f 97//161 69//161 68//161
f 97//162 68//162 96//162
f 98//163 70//163 69//163
f 98//164 69//164 97//164
f 70//165 94//165 65//165
f 99//166 94//166 70//166
f 98//167 99//167 70//167
f 99//168 95//168 94//168
f 71//169 101//169 100//169
f 72//170 101//170 71//170
f 102//171 100//171 103//171
f 102//172 74//172 100//172
f 74//173 71//173 100//173
f 74//174 102//174 75//174
f 104//175 76//175 105//175
f 104//176 101//176 76//176
f 101//177 72//177 76//177
f 103//178 104//178 105//178
f 103//179 105//179 102//179
f 102//180 105//180 106//180
f 75//181 106//181 78//181
f 102//182 106//182 75//182
f 76//183 79//183 105//183
f 80//184 105//184 79//184
f 106//185 105//185 80//185
f 78//186 106//186 80//186
f 84//187 85//187 107//187
f 108//188 85//188 86//188
f 108//189 107//189 85//189
f 109//190 86//190 87//190
f 109//191 108//191 86//191
f 109//192 87//192 88//192
f 89//193 90//193 110//193
f 110//194 90//194 111//194
f 90//195 84//195 111//195
f 111//196 84//196 112//196
f 112//197 84//197 107//197
f 107//198 108//198 112//198
f 108//199 113//199 112//199
f 114//200 113//200 115//200
f 115//201 113//201 108//201
f 115//202 108//202 109//202
f 115//203 88//203 92//203
f 115//204 109//204 88//204
f 93//205 110//205 116//205
f 93//206 89//206 110//206
f 111//207 117//207 110//207
f 117//208 116//208 110//208
f 115//209 118//209 114//209
f 118//210 119//210 114//210
f 118//211 92//211 95//211
f 118//212 115//212 92//212
f 96//213 93//213 116//213
f 120//214 116//214 117//214
f 96//215 116//215 120//215
f 97//216 96//216 120//216
f 121//217 98//217 97//217
f 121//218 97//218 120//218
f 99//219 119//219 118//219
f 121//220 119//220 99//220
f 98//221 121//221 99//221
f 118//222 95//222 99//222
f 100//223 101//223 122//223
f 100//224 122//224 103//224
f 101//225 104//225 122//225
f 103//226 122//226 104//226
f 111//227 112//227 123//227
f 124//228 112//228 113//228
f 124//229 123//229 112//229
f 124//230 113//230 114//230
f 117//231 123//231 125//231
f 117//232 111//232 123//232
f 123//233 124//233 126//233
f 123//234 126//234 125//234
f 126//235 114//235 119//235
f 126//236 124//236 114//236
f 120//237 117//237 125//237
f 125//238 121//238 120//238
f 125//239 126//239 121//239
f 126//240 119//240 121//240
f 127//241 129//241 128//241
f 130//242 129//242 131//242
f 130//243 128//243 129//243
f 132//244 130//244 131//244
f 127//245 133//245 129//245
f 127//246 134//246 133//246
f 131//247 136//247 135//247
f 133//248 136//248 131//248
f 129//249 133//249 131//249
f 135//250 132//250 131//250
f 137//251 133//251 134//251
f 137//252 136//252 133//252
f 127//253 128//253 138//253
f 139//254 128//254 130//254
f 139//255 138//255 128//255
f 139//256 130//256 132//256
f 134//257 138//257 140//257
f 134//258 127//258 138//258
f 140//259 135//259 136//259
f 139//260 135//260 140//260
f 138//261 139//261 140//261
f 139//262 132//262 135//262
f 137//263 134//263 140//263
f 140//264 136//264 137//264

# Thankyou for using Spin3D

