# Created using Spin3D

# Vertex Array
v 5.758 -34.594 29.690
v 5.756 -34.594 29.687
v 5.756 -34.595 29.689
v 5.754 -34.594 29.689
v 5.755 -34.594 29.691
v 5.758 -34.592 29.689
v 5.755 -34.592 29.688
v 5.754 -34.592 29.690
v 5.756 -34.593 29.691
v 5.756 -34.592 29.690
v 2.724 -27.136 61.095
v 3.032 -26.878 61.378
v 2.959 -27.379 61.227
v 3.472 -27.083 61.124
v 3.052 -26.864 60.307
v 2.386 -25.919 60.479
v 3.281 -25.431 61.369
v 4.009 -26.249 61.340
v 4.691 -26.231 60.139
v 5.265 -25.344 60.901
v 0.676 -24.167 57.258
v 1.207 -24.104 58.858
v 2.003 -25.642 58.391
v 3.936 -26.082 58.347
v 6.242 -25.297 58.071
v 6.805 -24.579 59.572
v 1.352 -24.659 56.204
v 0.235 -22.969 55.590
v 2.893 -25.457 56.736
v 5.117 -24.983 56.103
v 8.447 -23.967 57.678
v 7.797 -24.400 56.312
v 9.408 -23.816 56.304
v 1.100 -23.692 54.792
v 2.821 -24.261 54.896
v 1.792 -22.924 53.896
v 7.105 -23.591 54.710
v 4.903 -23.814 54.336
v 9.163 -23.530 55.428
v 3.671 -22.394 53.447
v 6.918 -17.947 28.493
v 6.900 -17.836 28.525
v 6.931 -17.855 28.497
v 6.948 -17.900 28.465
v 6.968 -17.923 28.446
v 2.556 -23.337 60.340
v 3.719 -24.043 61.405
v 4.515 -24.824 61.455
v 6.004 -23.798 60.703
v 0.165 -22.272 57.118
v 1.044 -22.121 58.665
v 8.210 -23.457 58.790
v 7.608 -22.834 59.527
v 8.895 -22.154 57.856
v -0.185 -21.513 55.695
v 9.835 -23.113 56.552
v 10.117 -23.363 55.835
v 10.280 -22.918 55.866
v 0.725 -22.413 54.211
v 0.256 -20.788 54.445
v 5.757 -22.723 53.624
v 7.103 -22.177 53.767
v 8.678 -22.287 54.698
v 9.949 -22.902 55.443
v 1.749 -20.887 53.299
v 3.573 -20.236 52.801
v 5.577 -20.937 53.170
v 6.888 -17.646 28.557
v 6.891 -17.708 28.552
v 7.049 -17.799 28.378
v 6.964 -17.699 28.470
v 7.078 -17.647 28.364
v 7.030 -17.796 28.405
v 6.971 -17.632 28.487
v 7.119 -17.720 28.323
v 7.136 -17.670 28.308
v 7.085 -17.650 28.371
v 7.138 -17.611 28.319
v 3.740 -22.986 61.077
v 4.770 -23.126 61.119
v 0.527 -20.611 57.558
v 2.115 -20.085 58.578
v 4.114 -21.336 60.131
v 6.340 -21.614 60.000
v 7.962 -21.321 59.047
v 8.283 -20.390 58.068
v 0.082 -19.743 55.820
v 0.750 -19.088 57.028
v 9.587 -22.017 55.931
v 8.570 -20.281 56.608
v 0.408 -18.734 54.174
v 7.428 -20.958 53.847
v 8.276 -20.451 54.923
v 1.042 -19.041 53.359
v 2.582 -18.094 52.714
v 4.497 -18.964 52.860
v 6.319 -19.056 53.783
v 6.921 -17.489 28.542
v 6.896 -17.516 28.569
v 7.022 -17.517 28.438
v 6.962 -17.408 28.517
v 6.945 -17.437 28.532
v 7.049 -17.508 28.421
v 7.116 -17.567 28.342
v 3.839 -19.471 59.002
v 5.527 -19.351 58.805
v 7.292 -20.122 58.848
v 0.666 -17.996 55.956
v 1.731 -17.813 56.754
v 3.696 -17.946 57.582
v 5.472 -17.719 57.269
v 5.876 -17.287 55.875
v 7.139 -18.861 57.363
v 0.717 -17.556 54.690
v 1.377 -16.898 55.371
v 7.242 -18.656 55.438
v 5.725 -17.396 54.450
v 1.367 -17.171 53.276
v 2.038 -15.929 52.886
v 2.144 -16.357 52.525
v 2.801 -16.334 52.574
v 4.193 -17.155 53.228
v 2.403 -15.770 52.535
v 6.910 -17.399 28.568
v 2.832 -16.465 55.520
v 4.476 -16.780 56.196
v 1.890 -16.188 54.037
v 2.908 -15.822 54.220
v 4.182 -16.314 54.574
v 2.883 -15.856 53.228
v 4.136 -8.194 45.132
v 4.132 -8.194 45.127
v 4.134 -8.193 45.129
v 4.132 -8.192 45.125
v 4.133 -8.193 45.126
v 4.131 -8.193 45.123
v 4.136 -8.194 45.131
v 4.139 -8.195 45.132
v 4.135 -8.194 45.127
v 4.137 -8.193 45.129
v 4.140 -8.194 45.132
v 4.135 -8.195 45.129
v 4.132 -8.194 45.127
v 4.138 -8.194 45.130

# Normal Array
vn 0.270 -0.904 -0.333
vn -0.182 -0.880 -0.438
vn 0.165 -0.977 0.136
vn -0.301 -0.953 0.029
vn 0.526 0.378 -0.762
vn 0.801 -0.212 -0.559
vn -0.487 -0.154 -0.860
vn -0.803 0.394 -0.446
vn 0.818 0.179 0.547
vn 0.503 -0.425 0.752
vn -0.814 -0.371 0.447
vn -0.521 0.134 0.843
vn 0.178 0.980 -0.087
vn -0.246 0.969 0.005
vn 0.261 0.923 0.283
vn -0.157 0.915 0.373
vn -0.598 -0.150 0.788
vn 0.359 -0.318 0.878
vn -0.501 -0.732 -0.461
vn 0.389 -0.820 -0.420
vn -0.734 0.130 0.667
vn -0.730 0.136 0.670
vn 0.720 -0.567 0.400
vn 0.302 -0.416 0.858
vn 0.039 -0.000 0.999
vn 0.625 -0.701 0.344
vn -0.811 -0.508 0.290
vn -0.209 -0.872 -0.442
vn -0.809 -0.583 0.071
vn -0.759 -0.450 -0.471
vn -0.872 -0.480 0.096
vn 0.297 -0.873 -0.387
vn 0.332 -0.918 -0.216
vn 0.294 -0.934 -0.202
vn 0.634 -0.697 0.334
vn 0.632 -0.764 0.128
vn -0.694 -0.711 -0.113
vn -0.775 -0.592 -0.221
vn -0.221 -0.949 -0.225
vn -0.358 -0.887 -0.292
vn 0.275 -0.913 -0.302
vn 0.079 -0.911 -0.405
vn 0.532 -0.824 0.195
vn 0.519 -0.854 0.024
vn 0.225 -0.934 -0.277
vn 0.338 -0.931 0.134
vn -0.753 -0.598 -0.275
vn -0.180 -0.674 -0.716
vn -0.240 -0.820 -0.519
vn -0.243 -0.818 -0.522
vn 0.177 -0.811 -0.558
vn 0.030 -0.832 -0.554
vn 0.023 -0.838 -0.546
vn 0.220 -0.829 -0.514
vn 0.203 -0.836 -0.510
vn 0.314 -0.873 -0.374
vn -0.018 -0.608 -0.794
vn -0.091 -0.584 -0.806
vn 0.626 -0.114 0.771
vn -0.735 0.069 -0.675
vn 0.716 -0.123 0.687
vn -0.697 0.020 -0.717
vn -0.607 0.171 0.776
vn -0.725 0.084 0.683
vn -0.037 -0.068 0.997
vn -0.068 -0.005 0.998
vn 0.467 -0.235 0.853
vn 0.523 -0.142 0.841
vn -0.868 -0.023 0.495
vn -0.922 -0.225 0.315
vn -0.758 0.085 0.646
vn -0.741 0.004 0.672
vn 0.623 -0.267 0.735
vn 0.674 -0.292 0.679
vn 0.701 -0.249 0.669
vn 0.786 0.030 0.618
vn -0.964 -0.254 0.072
vn -0.956 -0.282 0.085
vn 0.697 -0.583 0.416
vn 0.674 -0.574 0.465
vn 0.699 -0.575 0.425
vn 0.696 -0.238 0.677
vn 0.915 -0.256 0.313
vn 0.831 -0.335 0.444
vn -0.779 -0.434 -0.452
vn -0.895 -0.201 -0.399
vn -0.873 -0.221 -0.436
vn -0.451 -0.475 -0.755
vn 0.191 -0.637 -0.747
vn 0.299 -0.529 -0.794
vn 0.413 -0.505 -0.758
vn 0.314 -0.387 -0.867
vn 0.312 -0.874 -0.373
vn 0.412 -0.498 -0.763
vn 0.322 -0.383 -0.866
vn 0.762 -0.235 -0.603
vn -0.610 -0.063 -0.790
vn -0.389 -0.267 -0.882
vn -0.147 -0.281 -0.948
vn -0.154 -0.290 -0.945
vn -0.013 -0.539 -0.842
vn 0.044 -0.242 -0.969
vn 0.077 -0.282 -0.956
vn 0.192 -0.224 -0.955
vn -0.997 -0.054 -0.058
vn 0.622 -0.124 0.773
vn -0.694 0.073 -0.716
vn -0.731 0.075 -0.678
vn -0.727 0.071 -0.683
vn -0.697 0.068 -0.713
vn 0.712 -0.129 0.691
vn 0.704 -0.095 0.704
vn 0.681 -0.090 0.726
vn -0.680 0.046 -0.731
vn 0.792 -0.205 0.575
vn 0.771 -0.285 0.570
vn -0.680 0.063 -0.730
vn -0.584 -0.045 -0.811
vn 0.701 -0.097 0.706
vn 0.725 -0.112 0.680
vn 0.735 -0.101 0.670
vn 0.833 -0.123 0.540
vn -0.564 0.255 0.785
vn 0.111 0.177 0.978
vn 0.001 0.296 0.955
vn 0.377 0.125 0.918
vn -0.871 0.060 0.488
vn -0.585 0.339 0.737
vn -0.568 0.331 0.753
vn -0.396 0.395 0.829
vn -0.559 0.504 0.658
vn 0.031 0.492 0.870
vn 0.114 0.512 0.851
vn 0.417 0.220 0.882
vn 0.502 0.194 0.843
vn 0.478 0.162 0.863
vn 0.790 0.009 0.613
vn 0.838 0.231 0.495
vn -0.898 0.256 0.357
vn -0.945 0.125 0.304
vn -0.947 0.122 0.298
vn -0.585 0.342 0.735
vn 0.860 0.385 0.336
vn 0.864 0.375 0.337
vn 0.932 0.299 0.205
vn 0.671 0.475 0.570
vn -0.956 0.162 -0.244
vn -0.985 0.051 -0.164
vn 0.503 -0.078 -0.861
vn 0.811 0.552 -0.197
vn 0.756 0.240 -0.609
vn 0.603 0.560 -0.567
vn 0.706 0.236 -0.668
vn 0.669 0.550 -0.500
vn -0.794 -0.021 -0.608
vn -0.604 -0.207 -0.769
vn -0.214 -0.138 -0.967
vn -0.333 -0.097 -0.938
vn 0.157 -0.069 -0.985
vn 0.073 -0.007 -0.997
vn 0.343 -0.030 -0.939
vn 0.341 0.167 -0.925
vn 0.454 0.109 -0.884
vn 0.646 0.354 -0.676
vn -0.775 0.101 -0.624
vn 0.030 -0.087 0.996
vn -0.692 0.132 -0.710
vn -0.700 0.096 -0.708
vn -0.722 0.084 -0.687
vn -0.703 0.097 -0.705
vn 0.709 -0.071 0.702
vn 0.671 -0.084 0.736
vn 0.676 -0.079 0.733
vn 0.720 -0.040 0.693
vn -0.585 0.238 -0.775
vn -0.592 0.315 -0.742
vn -0.667 0.111 -0.736
vn -0.678 0.119 -0.725
vn 0.706 -0.067 0.705
vn 0.722 -0.058 0.689
vn 0.787 0.074 0.613
vn -0.541 0.166 -0.824
vn -0.360 0.443 0.821
vn 0.112 0.495 0.862
vn 0.062 0.523 0.850
vn 0.419 0.372 0.828
vn 0.204 0.513 0.834
vn 0.624 0.454 0.637
vn -0.897 0.273 0.348
vn -0.557 0.560 0.613
vn -0.457 0.508 0.730
vn -0.286 0.570 0.770
vn -0.387 0.609 0.693
vn 0.037 0.683 0.730
vn 0.040 0.686 0.727
vn 0.507 0.771 0.386
vn 0.399 0.636 0.661
vn 0.309 0.740 0.597
vn 0.741 0.644 0.193
vn 0.569 0.655 0.498
vn -0.780 0.600 0.177
vn -0.948 0.311 0.070
vn -0.964 0.265 -0.028
vn -0.529 0.639 0.558
vn 0.721 0.684 0.111
vn 0.682 0.721 -0.128
vn 0.824 0.532 -0.197
vn 0.729 0.676 0.111
vn -0.880 0.364 -0.306
vn -0.766 0.105 -0.634
vn -0.798 0.260 -0.544
vn -0.545 -0.225 -0.808
vn -0.401 0.029 -0.916
vn 0.077 -0.089 -0.993
vn 0.364 -0.119 -0.924
vn 0.175 0.225 -0.959
vn 0.721 0.465 -0.514
vn 0.594 0.474 -0.650
vn 0.448 0.250 -0.858
vn 0.676 0.535 -0.506
vn -0.725 0.330 -0.605
vn 0.075 -0.016 -0.997
vn -0.771 0.093 -0.630
vn -0.687 0.128 -0.716
vn 0.667 -0.079 0.741
vn 0.702 -0.019 0.712
vn -0.214 0.749 0.627
vn 0.017 0.761 0.649
vn -0.098 0.788 0.607
vn 0.390 0.841 0.374
vn -0.740 0.669 0.071
vn -0.287 0.764 0.578
vn -0.300 0.885 0.356
vn -0.373 0.840 0.393
vn 0.077 0.962 0.263
vn 0.213 0.871 0.443
vn 0.563 0.817 -0.122
vn 0.373 0.908 0.193
vn -0.789 0.579 -0.205
vn -0.881 0.473 -0.006
vn -0.164 0.967 0.196
vn -0.335 0.942 -0.024
vn 0.602 0.607 -0.520
vn 0.645 0.650 -0.401
vn 0.370 0.928 -0.041
vn 0.485 0.744 -0.461
vn -0.182 0.953 0.244
vn 0.743 0.493 -0.454
vn -0.513 0.634 0.579
vn 0.239 0.970 -0.042
vn -0.456 0.819 0.348
vn 0.524 0.730 -0.438
vn 0.039 0.924 0.380
vn 0.229 0.856 0.463
vn 0.648 0.332 -0.685
vn 0.066 0.983 0.173
vn 0.504 0.856 -0.115
vn 0.679 0.524 -0.514
vn -0.223 0.067 0.973
vn 0.019 0.985 0.170
vn -0.478 -0.791 0.382
vn -0.347 -0.862 -0.369
vn -0.243 -0.954 -0.175
vn -0.955 -0.234 0.182
vn 0.209 -0.893 -0.399
vn -0.222 -0.925 0.310
vn 0.730 -0.151 -0.667
vn -0.017 -0.977 -0.215
vn 0.269 -0.726 -0.633
vn -0.015 -0.985 -0.170
vn 0.548 -0.564 -0.619
vn 0.588 -0.359 -0.725

# Facets
f 1//1 3//1 2//1
f 4//2 2//2 3//2
f 5//3 3//3 1//3
f 5//4 4//4 3//4
f 6//5 2//5 7//5
f 6//6 1//6 2//6
f 4//7 7//7 2//7
f 4//8 8//8 7//8
f 9//9 1//9 6//9
f 9//10 5//10 1//10
f 5//11 8//11 4//11
f 5//12 9//12 8//12
f 6//13 7//13 10//13
f 10//14 7//14 8//14
f 9//15 6//15 10//15
f 10//16 8//16 9//16
f 11//17 13//17 12//17
f 14//18 12//18 13//18
f 15//19 13//19 11//19
f 15//20 14//20 13//20
f 16//21 12//21 17//21
f 16//22 11//22 12//22
f 18//23 14//23 19//23
f 12//24 14//24 18//24
f 17//25 12//25 18//25
f 20//26 18//26 19//26
f 21//27 23//27 22//27
f 24//28 15//28 23//28
f 23//29 15//29 16//29
f 16//30 15//30 11//30
f 16//31 22//31 23//31
f 14//32 15//32 19//32
f 19//33 15//33 24//33
f 19//34 24//34 25//34
f 19//35 26//35 20//35
f 19//36 25//36 26//36
f 21//37 27//37 23//37
f 21//38 28//38 27//38
f 29//39 24//39 23//39
f 27//40 29//40 23//40
f 30//41 25//41 24//41
f 29//42 30//42 24//42
f 25//43 31//43 26//43
f 32//44 31//44 25//44
f 30//45 32//45 25//45
f 33//46 31//46 32//46
f 34//47 27//47 28//47
f 35//48 34//48 36//48
f 27//49 34//49 35//49
f 29//50 27//50 35//50
f 30//51 38//51 37//51
f 35//52 38//52 30//52
f 29//53 35//53 30//53
f 37//54 32//54 30//54
f 37//55 39//55 32//55
f 39//56 33//56 32//56
f 40//57 35//57 36//57
f 40//58 38//58 35//58
f 41//59 43//59 42//59
f 42//60 44//60 41//60
f 41//61 45//61 43//61
f 44//62 45//62 41//62
f 46//63 17//63 47//63
f 46//64 16//64 17//64
f 17//65 18//65 48//65
f 47//66 17//66 48//66
f 20//67 48//67 18//67
f 20//68 49//68 48//68
f 50//69 22//69 51//69
f 50//70 21//70 22//70
f 16//71 46//71 22//71
f 46//72 51//72 22//72
f 52//73 53//73 26//73
f 26//74 53//74 49//74
f 26//75 49//75 20//75
f 54//76 53//76 52//76
f 28//77 21//77 50//77
f 28//78 50//78 55//78
f 52//79 26//79 31//79
f 56//80 33//80 57//80
f 56//81 31//81 33//81
f 54//82 31//82 56//82
f 52//83 31//83 54//83
f 58//84 56//84 57//84
f 28//85 59//85 34//85
f 60//86 59//86 28//86
f 55//87 60//87 28//87
f 36//88 34//88 59//88
f 61//89 37//89 38//89
f 61//90 62//90 37//90
f 37//91 62//91 63//91
f 37//92 63//92 39//92
f 39//93 57//93 33//93
f 64//94 57//94 39//94
f 63//95 64//95 39//95
f 64//96 58//96 57//96
f 65//97 59//97 60//97
f 65//98 36//98 59//98
f 40//99 36//99 65//99
f 66//100 40//100 65//100
f 40//101 61//101 38//101
f 67//102 61//102 40//102
f 66//103 67//103 40//103
f 67//104 62//104 61//104
f 42//105 69//105 68//105
f 43//106 69//106 42//106
f 44//107 71//107 70//107
f 44//108 42//108 71//108
f 42//109 68//109 71//109
f 71//110 72//110 70//110
f 73//111 43//111 45//111
f 73//112 74//112 43//112
f 74//113 69//113 43//113
f 45//114 44//114 70//114
f 45//115 70//115 73//115
f 73//116 70//116 75//116
f 76//117 70//117 72//117
f 75//118 70//118 76//118
f 73//119 77//119 74//119
f 75//120 77//120 73//120
f 78//121 77//121 75//121
f 76//122 78//122 75//122
f 46//123 47//123 79//123
f 80//124 47//124 48//124
f 80//125 79//125 47//125
f 80//126 48//126 49//126
f 50//127 51//127 81//127
f 81//128 51//128 82//128
f 51//129 46//129 82//129
f 82//130 46//130 83//130
f 83//131 46//131 79//131
f 79//132 80//132 83//132
f 80//133 84//133 83//133
f 80//134 49//134 84//134
f 84//135 49//135 53//135
f 84//136 53//136 85//136
f 54//137 85//137 53//137
f 54//138 86//138 85//138
f 87//139 81//139 88//139
f 50//140 81//140 87//140
f 55//141 50//141 87//141
f 81//142 82//142 88//142
f 56//143 89//143 54//143
f 54//144 89//144 90//144
f 54//145 90//145 86//145
f 89//146 56//146 58//146
f 60//147 55//147 87//147
f 60//148 87//148 91//148
f 92//149 63//149 62//149
f 90//150 89//150 93//150
f 93//151 89//151 63//151
f 63//152 89//152 64//152
f 63//153 92//153 93//153
f 89//154 58//154 64//154
f 94//155 60//155 91//155
f 94//156 65//156 60//156
f 95//157 66//157 65//157
f 95//158 65//158 94//158
f 96//159 67//159 66//159
f 96//160 66//160 95//160
f 67//161 92//161 62//161
f 97//162 92//162 67//162
f 96//163 97//163 67//163
f 97//164 93//164 92//164
f 68//165 99//165 98//165
f 69//166 99//166 68//166
f 100//167 98//167 101//167
f 100//168 71//168 98//168
f 71//169 68//169 98//169
f 71//170 100//170 72//170
f 102//171 74//171 103//171
f 102//172 99//172 74//172
f 99//173 69//173 74//173
f 101//174 102//174 103//174
f 101//175 103//175 100//175
f 100//176 103//176 104//176
f 72//177 104//177 76//177
f 100//178 104//178 72//178
f 74//179 77//179 103//179
f 78//180 103//180 77//180
f 104//181 103//181 78//181
f 76//182 104//182 78//182
f 82//183 83//183 105//183
f 106//184 83//184 84//184
f 106//185 105//185 83//185
f 107//186 84//186 85//186
f 107//187 106//187 84//187
f 107//188 85//188 86//188
f 87//189 88//189 108//189
f 108//190 88//190 109//190
f 88//191 82//191 109//191
f 109//192 82//192 110//192
f 110//193 82//193 105//193
f 105//194 106//194 110//194
f 106//195 111//195 110//195
f 112//196 111//196 113//196
f 113//197 111//197 106//197
f 113//198 106//198 107//198
f 113//199 86//199 90//199
f 113//200 107//200 86//200
f 114//201 108//201 115//201
f 87//202 108//202 114//202
f 91//203 87//203 114//203
f 108//204 109//204 115//204
f 113//205 116//205 112//205
f 116//206 117//206 112//206
f 116//207 90//207 93//207
f 116//208 113//208 90//208
f 118//209 91//209 114//209
f 118//210 94//210 91//210
f 119//211 120//211 118//211
f 118//212 120//212 95//212
f 118//213 95//213 94//213
f 120//214 121//214 95//214
f 95//215 121//215 122//215
f 95//216 122//216 96//216
f 97//217 117//217 116//217
f 122//218 117//218 97//218
f 96//219 122//219 97//219
f 116//220 93//220 97//220
f 123//221 120//221 119//221
f 123//222 121//222 120//222
f 98//223 99//223 124//223
f 98//224 124//224 101//224
f 99//225 102//225 124//225
f 101//226 124//226 102//226
f 109//227 110//227 125//227
f 126//228 110//228 111//228
f 126//229 125//229 110//229
f 126//230 111//230 112//230
f 114//231 115//231 127//231
f 125//232 115//232 109//232
f 127//233 115//233 125//233
f 128//234 127//234 125//234
f 125//235 126//235 129//235
f 125//236 129//236 128//236
f 129//237 112//237 117//237
f 129//238 126//238 112//238
f 118//239 114//239 127//239
f 127//240 119//240 118//240
f 130//241 119//241 127//241
f 128//242 130//242 127//242
f 130//243 122//243 121//243
f 129//244 122//244 130//244
f 128//245 129//245 130//245
f 129//246 117//246 122//246
f 123//247 119//247 130//247
f 130//248 121//248 123//248
f 131//249 133//249 132//249
f 134//250 133//250 135//250
f 134//251 132//251 133//251
f 136//252 134//252 135//252
f 131//253 137//253 133//253
f 131//254 138//254 137//254
f 135//255 140//255 139//255
f 137//256 140//256 135//256
f 133//257 137//257 135//257
f 139//258 136//258 135//258
f 141//259 137//259 138//259
f 141//260 140//260 137//260
f 131//261 132//261 142//261
f 143//262 132//262 134//262
f 143//263 142//263 132//263
f 143//264 134//264 136//264
f 138//265 142//265 144//265
f 138//266 131//266 142//266
f 144//267 139//267 140//267
f 143//268 139//268 144//268
f 142//269 143//269 144//269
f 143//270 136//270 139//270
f 141//271 138//271 144//271
f 144//272 140//272 141//272

# Thankyou for using Spin3D

