# Created using Spin3D

# Vertex Array
v 5.734 -36.075 29.445
v 5.735 -36.075 29.446
v 5.735 -36.076 29.445
v 5.736 -36.075 29.445
v 5.735 -36.075 29.444
v 5.735 -36.074 29.445
v 2.920 -27.117 60.998
v 3.265 -26.821 61.291
v 3.193 -27.364 61.115
v 3.792 -27.045 60.964
v 3.267 -26.872 60.149
v 2.516 -25.866 60.398
v 3.462 -25.314 61.332
v 4.373 -26.112 61.214
v 5.234 -26.198 59.778
v 5.894 -24.971 60.721
v 0.682 -24.065 57.175
v 1.236 -24.003 58.785
v 2.056 -25.631 58.267
v 3.980 -26.221 58.145
v 5.878 -25.808 57.770
v 7.027 -24.915 59.598
v 7.364 -25.146 58.286
v 8.288 -24.003 58.593
v 1.350 -24.602 56.111
v 0.222 -22.831 55.565
v 2.875 -25.514 56.611
v 4.983 -25.165 56.026
v 7.439 -24.750 56.528
v 9.130 -23.802 57.045
v 1.096 -23.600 54.743
v 2.791 -24.266 54.833
v 1.801 -22.880 53.906
v 7.016 -23.662 54.768
v 4.847 -23.863 54.315
v 9.083 -23.538 55.668
v 3.679 -22.430 53.497
v 6.918 -17.947 28.493
v 6.900 -17.836 28.525
v 6.931 -17.855 28.497
v 6.948 -17.900 28.465
v 6.968 -17.923 28.446
v 2.609 -23.222 60.319
v 3.827 -23.902 61.425
v 4.735 -24.625 61.469
v 5.961 -23.563 60.946
v 0.134 -22.122 57.091
v 1.032 -21.982 58.626
v 7.452 -23.301 59.747
v 9.083 -22.227 57.753
v -0.233 -21.353 55.735
v 2.809 -22.160 56.072
v 2.808 -22.158 56.072
v 2.809 -22.159 56.073
v 2.811 -22.158 56.072
v 10.185 -23.226 56.061
v 10.140 -22.825 56.505
v 10.468 -22.733 55.930
v 0.731 -22.316 54.246
v 0.225 -20.678 54.608
v 2.809 -22.158 56.071
v 5.735 -22.744 53.653
v 7.105 -22.173 53.817
v 8.722 -22.236 54.768
v 10.047 -22.786 55.555
v 1.805 -20.972 53.494
v 3.649 -20.501 53.040
v 5.608 -21.018 53.295
v 6.888 -17.646 28.557
v 6.891 -17.708 28.552
v 7.049 -17.799 28.378
v 6.964 -17.699 28.470
v 7.078 -17.647 28.364
v 7.030 -17.796 28.405
v 6.971 -17.632 28.487
v 7.119 -17.720 28.323
v 7.136 -17.670 28.308
v 7.085 -17.650 28.371
v 7.138 -17.611 28.319
v 3.793 -22.859 61.105
v 4.825 -22.989 61.197
v 0.466 -20.466 57.568
v 2.085 -19.984 58.597
v 4.130 -21.242 60.156
v 6.335 -21.626 60.089
v 8.003 -21.445 59.074
v 8.392 -20.415 58.040
v -0.037 -19.653 55.973
v 0.650 -18.993 57.112
v 2.809 -22.157 56.072
v 9.758 -21.906 55.934
v 8.705 -20.256 56.600
v 0.218 -18.782 54.621
v 7.474 -20.950 53.931
v 8.374 -20.415 54.985
v 1.112 -18.961 53.806
v 2.814 -19.010 53.284
v 4.567 -19.333 53.220
v 6.375 -19.201 54.024
v 6.921 -17.489 28.542
v 6.896 -17.516 28.569
v 7.022 -17.517 28.438
v 6.962 -17.408 28.517
v 6.945 -17.437 28.532
v 7.049 -17.508 28.421
v 7.116 -17.567 28.342
v 3.838 -19.395 59.025
v 5.555 -19.315 58.842
v 7.346 -20.135 58.863
v 0.494 -18.015 56.183
v 1.629 -17.850 56.920
v 3.689 -17.968 57.692
v 5.531 -17.740 57.376
v 5.988 -17.413 56.106
v 7.227 -18.857 57.406
v 0.434 -17.774 55.181
v 1.168 -17.142 55.754
v 7.340 -18.693 55.568
v 5.822 -17.642 54.821
v 0.850 -17.740 54.292
v 2.115 -17.578 53.906
v 4.186 -17.758 53.930
v 6.910 -17.399 28.568
v 2.779 -16.829 55.881
v 4.547 -16.952 56.457
v 1.546 -16.961 54.808
v 2.958 -16.816 54.593
v 4.438 -16.838 55.195
v 4.136 -8.194 45.132
v 4.132 -8.194 45.127
v 4.134 -8.193 45.129
v 4.132 -8.192 45.125
v 4.133 -8.193 45.126
v 4.131 -8.193 45.123
v 4.136 -8.194 45.131
v 4.139 -8.195 45.132
v 4.135 -8.194 45.127
v 4.137 -8.193 45.129
v 4.140 -8.194 45.132
v 4.135 -8.195 45.129
v 4.132 -8.194 45.127
v 4.138 -8.194 45.130

# Normal Array
vn -0.590 -0.655 0.472
vn 0.584 -0.663 0.469
vn -0.588 -0.464 -0.662
vn 0.585 -0.477 -0.656
vn -0.586 0.476 0.655
vn 0.590 0.464 0.661
vn -0.585 0.662 -0.469
vn 0.591 0.654 -0.471
vn -0.530 -0.197 0.825
vn 0.392 -0.330 0.859
vn -0.501 -0.755 -0.423
vn 0.348 -0.846 -0.404
vn -0.722 0.076 0.687
vn -0.697 0.114 0.708
vn 0.698 -0.556 0.451
vn 0.335 -0.433 0.837
vn 0.094 -0.040 0.995
vn 0.628 -0.658 0.416
vn -0.811 -0.504 0.298
vn -0.292 -0.874 -0.388
vn -0.785 -0.611 0.102
vn -0.767 -0.461 -0.447
vn -0.867 -0.480 0.134
vn 0.244 -0.905 -0.350
vn 0.283 -0.937 -0.204
vn 0.186 -0.974 -0.129
vn 0.535 -0.677 0.506
vn 0.576 -0.766 0.283
vn 0.418 -0.907 -0.042
vn 0.703 -0.647 0.295
vn -0.713 -0.694 -0.098
vn -0.794 -0.570 -0.211
vn -0.299 -0.930 -0.214
vn -0.426 -0.863 -0.272
vn 0.120 -0.910 -0.397
vn 0.028 -0.900 -0.435
vn 0.451 -0.875 -0.178
vn 0.236 -0.866 -0.441
vn 0.702 -0.647 0.298
vn 0.520 -0.838 -0.167
vn -0.769 -0.575 -0.279
vn -0.214 -0.644 -0.734
vn -0.285 -0.798 -0.531
vn -0.295 -0.789 -0.540
vn 0.198 -0.773 -0.603
vn 0.003 -0.796 -0.606
vn -0.024 -0.819 -0.573
vn 0.247 -0.796 -0.552
vn 0.288 -0.782 -0.553
vn 0.522 -0.834 -0.178
vn -0.040 -0.575 -0.817
vn -0.100 -0.553 -0.827
vn 0.626 -0.114 0.771
vn -0.735 0.069 -0.675
vn 0.716 -0.123 0.687
vn -0.697 0.020 -0.717
vn -0.633 0.113 0.766
vn -0.715 0.046 0.697
vn -0.017 -0.165 0.986
vn -0.083 -0.044 0.996
vn 0.468 -0.259 0.845
vn 0.501 -0.159 0.851
vn -0.860 -0.047 0.508
vn -0.914 -0.244 0.324
vn -0.756 0.046 0.653
vn -0.739 -0.022 0.673
vn 0.635 -0.151 0.758
vn 0.689 -0.244 0.683
vn 0.707 -0.247 0.663
vn 0.789 -0.064 0.611
vn -0.961 -0.268 0.069
vn -0.949 -0.302 0.085
vn -0.576 -0.646 0.501
vn 0.535 -0.672 0.512
vn 0.725 -0.473 0.500
vn 0.656 -0.293 0.696
vn 0.874 -0.177 0.452
vn 0.832 -0.367 0.416
vn -0.790 -0.403 -0.462
vn -0.891 -0.184 -0.415
vn -0.856 -0.209 -0.473
vn -0.603 -0.480 -0.637
vn -0.472 -0.432 -0.769
vn 0.215 -0.618 -0.756
vn 0.575 -0.504 -0.644
vn 0.313 -0.524 -0.792
vn 0.423 -0.506 -0.752
vn 0.379 -0.453 -0.807
vn 0.329 -0.925 -0.189
vn 0.413 -0.629 -0.659
vn 0.286 -0.490 -0.824
vn 0.607 -0.511 -0.609
vn -0.576 0.003 -0.818
vn -0.388 -0.193 -0.901
vn -0.160 -0.208 -0.965
vn -0.177 -0.229 -0.957
vn -0.011 -0.502 -0.865
vn 0.044 -0.200 -0.979
vn 0.066 -0.229 -0.971
vn 0.193 -0.186 -0.963
vn -0.997 -0.054 -0.058
vn 0.622 -0.124 0.773
vn -0.694 0.073 -0.716
vn -0.731 0.075 -0.678
vn -0.727 0.071 -0.683
vn -0.697 0.068 -0.713
vn 0.712 -0.129 0.691
vn 0.704 -0.095 0.704
vn 0.681 -0.090 0.726
vn -0.680 0.046 -0.731
vn 0.792 -0.205 0.575
vn 0.771 -0.285 0.570
vn -0.680 0.063 -0.730
vn -0.584 -0.045 -0.811
vn 0.701 -0.097 0.706
vn 0.725 -0.112 0.680
vn 0.735 -0.101 0.670
vn 0.833 -0.123 0.540
vn -0.586 0.220 0.780
vn 0.080 0.159 0.984
vn -0.048 0.292 0.955
vn 0.282 0.142 0.949
vn -0.864 0.029 0.503
vn -0.574 0.314 0.756
vn -0.571 0.312 0.760
vn -0.403 0.378 0.834
vn -0.580 0.499 0.644
vn -0.013 0.508 0.861
vn 0.120 0.543 0.831
vn 0.356 0.319 0.878
vn 0.584 0.231 0.778
vn 0.501 0.160 0.851
vn 0.774 0.000 0.633
vn 0.815 0.226 0.533
vn -0.886 0.235 0.399
vn -0.936 0.090 0.341
vn -0.953 0.068 0.296
vn -0.553 0.480 0.681
vn -0.574 0.307 0.759
vn 0.585 0.455 0.671
vn 0.751 0.544 0.375
vn 0.841 0.384 0.380
vn 0.920 0.314 0.234
vn 0.669 0.572 0.475
vn -0.944 0.150 -0.294
vn -0.982 -0.002 -0.187
vn -0.547 0.683 -0.484
vn 0.594 0.652 -0.470
vn 0.504 -0.071 -0.861
vn 0.780 0.586 -0.218
vn 0.699 0.215 -0.682
vn 0.587 0.474 -0.656
vn 0.687 0.214 -0.695
vn 0.550 0.475 -0.686
vn -0.674 0.003 -0.739
vn -0.584 -0.076 -0.808
vn -0.244 0.022 -0.969
vn -0.291 0.047 -0.955
vn 0.140 0.042 -0.989
vn -0.007 0.157 -0.987
vn 0.323 -0.009 -0.946
vn 0.305 0.241 -0.921
vn 0.386 0.198 -0.901
vn 0.584 0.404 -0.704
vn -0.775 0.101 -0.624
vn 0.030 -0.087 0.996
vn -0.692 0.132 -0.710
vn -0.700 0.096 -0.708
vn -0.722 0.084 -0.687
vn -0.703 0.097 -0.705
vn 0.709 -0.071 0.702
vn 0.671 -0.084 0.736
vn 0.676 -0.079 0.733
vn 0.720 -0.040 0.693
vn -0.585 0.238 -0.775
vn -0.592 0.315 -0.742
vn -0.667 0.111 -0.736
vn -0.678 0.119 -0.725
vn 0.706 -0.067 0.705
vn 0.722 -0.058 0.689
vn 0.787 0.074 0.613
vn -0.541 0.166 -0.824
vn -0.351 0.448 0.822
vn 0.113 0.501 0.858
vn 0.066 0.528 0.846
vn 0.456 0.360 0.814
vn 0.229 0.521 0.822
vn 0.628 0.420 0.655
vn -0.886 0.237 0.398
vn -0.510 0.548 0.663
vn -0.434 0.497 0.751
vn -0.262 0.561 0.785
vn -0.376 0.611 0.696
vn 0.046 0.685 0.728
vn 0.041 0.681 0.731
vn 0.504 0.775 0.381
vn 0.401 0.627 0.667
vn 0.324 0.724 0.609
vn 0.732 0.641 0.230
vn 0.574 0.638 0.513
vn -0.725 0.659 0.202
vn -0.948 0.291 0.127
vn -0.973 0.228 -0.036
vn -0.476 0.656 0.586
vn 0.706 0.701 0.106
vn 0.625 0.751 -0.214
vn 0.802 0.556 -0.219
vn 0.713 0.693 0.106
vn -0.840 0.389 -0.378
vn -0.648 0.157 -0.745
vn -0.275 0.267 -0.924
vn -0.313 0.292 -0.904
vn 0.044 0.420 -0.907
vn 0.047 0.417 -0.908
vn 0.639 0.518 -0.569
vn 0.378 0.524 -0.763
vn 0.334 0.453 -0.826
vn 0.610 0.557 -0.564
vn -0.771 0.093 -0.630
vn -0.687 0.128 -0.716
vn 0.667 -0.079 0.741
vn 0.702 -0.019 0.712
vn -0.174 0.792 0.585
vn 0.015 0.767 0.641
vn -0.130 0.808 0.574
vn 0.362 0.863 0.353
vn -0.608 0.789 -0.092
vn -0.200 0.801 0.565
vn -0.198 0.974 0.107
vn -0.103 0.995 -0.004
vn 0.041 0.995 0.086
vn 0.010 1.000 0.011
vn 0.447 0.869 -0.212
vn 0.317 0.947 0.058
vn -0.625 0.734 -0.265
vn -0.290 0.695 -0.658
vn -0.174 0.758 -0.628
vn 0.064 0.628 -0.775
vn 0.256 0.757 -0.601
vn 0.274 0.751 -0.601
vn -0.513 0.634 0.579
vn 0.239 0.970 -0.042
vn -0.456 0.819 0.348
vn 0.524 0.730 -0.438
vn 0.039 0.924 0.380
vn 0.229 0.856 0.463
vn 0.648 0.332 -0.685
vn 0.066 0.983 0.173
vn 0.504 0.856 -0.115
vn 0.679 0.524 -0.514
vn -0.223 0.067 0.973
vn 0.019 0.985 0.170
vn -0.478 -0.791 0.382
vn -0.347 -0.862 -0.369
vn -0.243 -0.954 -0.175
vn -0.955 -0.234 0.182
vn 0.209 -0.893 -0.399
vn -0.222 -0.925 0.310
vn 0.730 -0.151 -0.667
vn -0.017 -0.977 -0.215
vn 0.269 -0.726 -0.633
vn -0.015 -0.985 -0.170
vn 0.548 -0.564 -0.619
vn 0.588 -0.359 -0.725

# Facets
f 1//1 3//1 2//1
f 4//2 2//2 3//2
f 5//3 3//3 1//3
f 5//4 4//4 3//4
f 1//5 2//5 6//5
f 6//6 2//6 4//6
f 5//7 1//7 6//7
f 6//8 4//8 5//8
f 7//9 9//9 8//9
f 10//10 8//10 9//10
f 11//11 9//11 7//11
f 11//12 10//12 9//12
f 12//13 8//13 13//13
f 12//14 7//14 8//14
f 14//15 10//15 15//15
f 8//16 10//16 14//16
f 13//17 8//17 14//17
f 16//18 14//18 15//18
f 17//19 19//19 18//19
f 20//20 11//20 19//20
f 19//21 11//21 12//21
f 12//22 11//22 7//22
f 12//23 18//23 19//23
f 10//24 11//24 15//24
f 15//25 11//25 20//25
f 15//26 20//26 21//26
f 15//27 22//27 16//27
f 23//28 22//28 15//28
f 21//29 23//29 15//29
f 24//30 22//30 23//30
f 17//31 25//31 19//31
f 17//32 26//32 25//32
f 27//33 20//33 19//33
f 25//34 27//34 19//34
f 28//35 21//35 20//35
f 27//36 28//36 20//36
f 29//37 23//37 21//37
f 28//38 29//38 21//38
f 23//39 30//39 24//39
f 23//40 29//40 30//40
f 31//41 25//41 26//41
f 32//42 31//42 33//42
f 25//43 31//43 32//43
f 27//44 25//44 32//44
f 28//45 35//45 34//45
f 32//46 35//46 28//46
f 27//47 32//47 28//47
f 34//48 29//48 28//48
f 34//49 36//49 29//49
f 36//50 30//50 29//50
f 37//51 32//51 33//51
f 37//52 35//52 32//52
f 38//53 40//53 39//53
f 39//54 41//54 38//54
f 38//55 42//55 40//55
f 41//56 42//56 38//56
f 43//57 13//57 44//57
f 43//58 12//58 13//58
f 13//59 14//59 45//59
f 44//60 13//60 45//60
f 16//61 45//61 14//61
f 16//62 46//62 45//62
f 47//63 18//63 48//63
f 47//64 17//64 18//64
f 12//65 43//65 18//65
f 43//66 48//66 18//66
f 46//67 16//67 49//67
f 16//68 22//68 49//68
f 24//69 49//69 22//69
f 24//70 50//70 49//70
f 26//71 17//71 47//71
f 26//72 47//72 51//72
f 52//73 54//73 53//73
f 54//74 52//74 55//74
f 56//75 57//75 30//75
f 30//76 57//76 50//76
f 30//77 50//77 24//77
f 58//78 57//78 56//78
f 26//79 59//79 31//79
f 60//80 59//80 26//80
f 51//81 60//81 26//81
f 52//82 53//82 61//82
f 59//83 33//83 31//83
f 62//84 34//84 35//84
f 52//85 61//85 55//85
f 62//86 63//86 34//86
f 34//87 63//87 64//87
f 34//88 64//88 36//88
f 36//89 56//89 30//89
f 65//90 56//90 36//90
f 64//91 65//91 36//91
f 65//92 58//92 56//92
f 66//93 59//93 60//93
f 66//94 33//94 59//94
f 37//95 33//95 66//95
f 67//96 37//96 66//96
f 37//97 62//97 35//97
f 68//98 62//98 37//98
f 67//99 68//99 37//99
f 68//100 63//100 62//100
f 39//101 70//101 69//101
f 40//102 70//102 39//102
f 41//103 72//103 71//103
f 41//104 39//104 72//104
f 39//105 69//105 72//105
f 72//106 73//106 71//106
f 74//107 40//107 42//107
f 74//108 75//108 40//108
f 75//109 70//109 40//109
f 42//110 41//110 71//110
f 42//111 71//111 74//111
f 74//112 71//112 76//112
f 77//113 71//113 73//113
f 76//114 71//114 77//114
f 74//115 78//115 75//115
f 76//116 78//116 74//116
f 79//117 78//117 76//117
f 77//118 79//118 76//118
f 43//119 44//119 80//119
f 81//120 44//120 45//120
f 81//121 80//121 44//121
f 81//122 45//122 46//122
f 47//123 48//123 82//123
f 82//124 48//124 83//124
f 48//125 43//125 83//125
f 83//126 43//126 84//126
f 84//127 43//127 80//127
f 80//128 81//128 84//128
f 81//129 85//129 84//129
f 81//130 46//130 85//130
f 85//131 46//131 49//131
f 85//132 49//132 86//132
f 50//133 86//133 49//133
f 50//134 87//134 86//134
f 88//135 82//135 89//135
f 47//136 82//136 88//136
f 51//137 47//137 88//137
f 54//138 90//138 53//138
f 89//139 82//139 83//139
f 54//140 55//140 90//140
f 57//141 91//141 50//141
f 50//142 91//142 92//142
f 50//143 92//143 87//143
f 91//144 57//144 58//144
f 60//145 51//145 88//145
f 60//146 88//146 93//146
f 53//147 90//147 61//147
f 55//148 61//148 90//148
f 94//149 64//149 63//149
f 92//150 91//150 95//150
f 95//151 91//151 64//151
f 64//152 91//152 65//152
f 64//153 94//153 95//153
f 91//154 58//154 65//154
f 96//155 60//155 93//155
f 96//156 66//156 60//156
f 97//157 67//157 66//157
f 97//158 66//158 96//158
f 98//159 68//159 67//159
f 98//160 67//160 97//160
f 68//161 94//161 63//161
f 99//162 94//162 68//162
f 98//163 99//163 68//163
f 99//164 95//164 94//164
f 69//165 101//165 100//165
f 70//166 101//166 69//166
f 102//167 100//167 103//167
f 102//168 72//168 100//168
f 72//169 69//169 100//169
f 72//170 102//170 73//170
f 104//171 75//171 105//171
f 104//172 101//172 75//172
f 101//173 70//173 75//173
f 103//174 104//174 105//174
f 103//175 105//175 102//175
f 102//176 105//176 106//176
f 73//177 106//177 77//177
f 102//178 106//178 73//178
f 75//179 78//179 105//179
f 79//180 105//180 78//180
f 106//181 105//181 79//181
f 77//182 106//182 79//182
f 83//183 84//183 107//183
f 108//184 84//184 85//184
f 108//185 107//185 84//185
f 109//186 85//186 86//186
f 109//187 108//187 85//187
f 109//188 86//188 87//188
f 88//189 89//189 110//189
f 110//190 89//190 111//190
f 89//191 83//191 111//191
f 111//192 83//192 112//192
f 112//193 83//193 107//193
f 107//194 108//194 112//194
f 108//195 113//195 112//195
f 114//196 113//196 115//196
f 115//197 113//197 108//197
f 115//198 108//198 109//198
f 115//199 87//199 92//199
f 115//200 109//200 87//200
f 116//201 110//201 117//201
f 88//202 110//202 116//202
f 93//203 88//203 116//203
f 110//204 111//204 117//204
f 115//205 118//205 114//205
f 118//206 119//206 114//206
f 118//207 92//207 95//207
f 118//208 115//208 92//208
f 120//209 93//209 116//209
f 120//210 96//210 93//210
f 121//211 97//211 96//211
f 121//212 96//212 120//212
f 122//213 98//213 97//213
f 122//214 97//214 121//214
f 99//215 119//215 118//215
f 122//216 119//216 99//216
f 98//217 122//217 99//217
f 118//218 95//218 99//218
f 100//219 101//219 123//219
f 100//220 123//220 103//220
f 101//221 104//221 123//221
f 103//222 123//222 104//222
f 111//223 112//223 124//223
f 125//224 112//224 113//224
f 125//225 124//225 112//225
f 125//226 113//226 114//226
f 116//227 117//227 126//227
f 124//228 117//228 111//228
f 126//229 117//229 124//229
f 127//230 126//230 124//230
f 124//231 125//231 128//231
f 124//232 128//232 127//232
f 128//233 114//233 119//233
f 128//234 125//234 114//234
f 120//235 116//235 126//235
f 126//236 121//236 120//236
f 126//237 127//237 121//237
f 127//238 122//238 121//238
f 127//239 128//239 122//239
f 128//240 119//240 122//240
f 129//241 131//241 130//241
f 132//242 131//242 133//242
f 132//243 130//243 131//243
f 134//244 132//244 133//244
f 129//245 135//245 131//245
f 129//246 136//246 135//246
f 133//247 138//247 137//247
f 135//248 138//248 133//248
f 131//249 135//249 133//249
f 137//250 134//250 133//250
f 139//251 135//251 136//251
f 139//252 138//252 135//252
f 129//253 130//253 140//253
f 141//254 130//254 132//254
f 141//255 140//255 130//255
f 141//256 132//256 134//256
f 136//257 140//257 142//257
f 136//258 129//258 140//258
f 142//259 137//259 138//259
f 141//260 137//260 142//260
f 140//261 141//261 142//261
f 141//262 134//262 137//262
f 139//263 136//263 142//263
f 142//264 138//264 139//264

# Thankyou for using Spin3D

