# Created using Spin3D

# Vertex Array
v 5.758 -34.594 29.690
v 5.756 -34.594 29.687
v 5.756 -34.595 29.689
v 5.754 -34.594 29.689
v 5.755 -34.594 29.691
v 5.758 -34.592 29.689
v 5.755 -34.592 29.688
v 5.754 -34.592 29.690
v 5.756 -34.593 29.691
v 5.756 -34.592 29.690
v 2.724 -27.124 61.061
v 3.031 -26.868 61.347
v 2.957 -27.375 61.200
v 3.468 -27.079 61.098
v 3.051 -26.843 60.265
v 2.388 -25.878 60.424
v 3.282 -25.404 61.321
v 4.005 -26.240 61.309
v 4.685 -26.216 60.101
v 5.259 -25.329 60.865
v 0.679 -24.041 57.187
v 1.208 -24.002 58.785
v 2.008 -25.567 58.319
v 3.934 -26.038 58.287
v 6.233 -25.261 58.017
v 6.797 -24.551 59.527
v 1.361 -24.543 56.133
v 0.237 -22.822 55.571
v 2.898 -25.378 56.662
v 5.113 -24.918 56.040
v 8.434 -23.924 57.623
v 7.783 -24.347 56.251
v 9.390 -23.765 56.242
v 1.117 -23.566 54.753
v 2.833 -24.173 54.847
v 1.822 -22.853 53.914
v 7.094 -23.524 54.663
v 4.906 -23.747 54.297
v 9.145 -23.468 55.370
v 3.698 -22.392 53.497
v 6.918 -17.947 28.493
v 6.900 -17.836 28.525
v 6.931 -17.855 28.497
v 6.948 -17.900 28.465
v 6.968 -17.923 28.446
v 2.557 -23.265 60.275
v 3.723 -24.002 61.344
v 4.514 -24.801 61.410
v 6.001 -23.765 60.654
v 0.144 -22.128 57.087
v 1.031 -21.999 58.605
v 8.200 -23.416 58.739
v 7.603 -22.786 59.474
v 8.887 -22.093 57.808
v -0.217 -21.362 55.735
v 2.809 -22.160 56.072
v 2.808 -22.158 56.072
v 2.809 -22.159 56.073
v 2.811 -22.158 56.072
v 9.818 -23.057 56.495
v 10.098 -23.305 55.773
v 10.261 -22.856 55.809
v 0.747 -22.311 54.252
v 0.238 -20.690 54.612
v 2.809 -22.158 56.071
v 5.759 -22.681 53.623
v 7.095 -22.135 53.771
v 8.663 -22.226 54.674
v 9.930 -22.836 55.388
v 1.815 -20.976 53.502
v 3.649 -20.507 53.049
v 5.594 -21.012 53.291
v 6.888 -17.646 28.557
v 6.891 -17.708 28.552
v 7.049 -17.799 28.378
v 6.964 -17.699 28.470
v 7.078 -17.647 28.364
v 7.030 -17.796 28.405
v 6.971 -17.632 28.487
v 7.119 -17.720 28.323
v 7.136 -17.670 28.308
v 7.085 -17.650 28.371
v 7.138 -17.611 28.319
v 3.746 -22.928 61.007
v 4.774 -23.079 61.058
v 0.482 -20.481 57.555
v 2.091 -20.000 58.567
v 4.116 -21.261 60.072
v 6.344 -21.550 59.943
v 7.962 -21.251 58.992
v 8.288 -20.316 58.034
v -0.019 -19.667 55.972
v 0.670 -19.007 57.103
v 2.809 -22.157 56.072
v 9.573 -21.953 55.895
v 8.572 -20.225 56.613
v 0.232 -18.799 54.626
v 7.422 -20.952 53.910
v 8.273 -20.428 54.975
v 1.121 -18.979 53.814
v 2.815 -19.029 53.298
v 4.553 -19.351 53.234
v 6.331 -19.216 54.036
v 6.921 -17.489 28.542
v 6.896 -17.516 28.569
v 7.022 -17.517 28.438
v 6.962 -17.408 28.517
v 6.945 -17.437 28.532
v 7.049 -17.508 28.421
v 7.116 -17.567 28.342
v 3.839 -19.399 58.981
v 5.540 -19.288 58.793
v 7.300 -20.046 58.808
v 0.516 -18.026 56.184
v 1.646 -17.859 56.917
v 3.692 -17.969 57.679
v 5.511 -17.730 57.373
v 5.955 -17.413 56.123
v 7.163 -18.822 57.403
v 0.451 -17.787 55.187
v 1.187 -17.151 55.761
v 7.268 -18.694 55.584
v 5.789 -17.656 54.844
v 0.863 -17.757 54.302
v 2.121 -17.597 53.921
v 4.175 -17.778 53.950
v 6.910 -17.399 28.568
v 2.789 -16.838 55.891
v 4.542 -16.956 56.468
v 1.560 -16.974 54.821
v 2.962 -16.831 54.611
v 4.430 -16.851 55.216
v 4.564 -8.373 46.180
v 4.564 -8.373 46.178
v 4.564 -8.371 46.180
v 4.566 -8.372 46.178
v 4.566 -8.371 46.181
v 4.567 -8.373 46.180
v 4.564 -8.373 46.182
v 4.566 -8.374 46.182
v 4.564 -8.375 46.180
v 4.566 -8.375 46.180

# Normal Array
vn 0.270 -0.904 -0.333
vn -0.182 -0.880 -0.438
vn 0.165 -0.977 0.136
vn -0.301 -0.953 0.029
vn 0.526 0.378 -0.762
vn 0.801 -0.212 -0.559
vn -0.487 -0.154 -0.860
vn -0.803 0.394 -0.446
vn 0.818 0.179 0.547
vn 0.503 -0.425 0.752
vn -0.814 -0.371 0.447
vn -0.521 0.134 0.843
vn 0.178 0.980 -0.087
vn -0.246 0.969 0.005
vn 0.261 0.923 0.283
vn -0.157 0.915 0.373
vn -0.612 -0.136 0.779
vn 0.356 -0.308 0.883
vn -0.506 -0.727 -0.465
vn 0.388 -0.817 -0.426
vn -0.737 0.138 0.661
vn -0.735 0.141 0.663
vn 0.725 -0.564 0.396
vn 0.297 -0.408 0.864
vn 0.031 0.012 0.999
vn 0.629 -0.699 0.340
vn -0.817 -0.502 0.283
vn -0.219 -0.866 -0.450
vn -0.818 -0.572 0.063
vn -0.761 -0.446 -0.471
vn -0.876 -0.474 0.088
vn 0.295 -0.870 -0.394
vn 0.329 -0.917 -0.226
vn 0.291 -0.933 -0.212
vn 0.638 -0.696 0.329
vn 0.635 -0.763 0.122
vn -0.703 -0.701 -0.121
vn -0.780 -0.584 -0.227
vn -0.234 -0.944 -0.234
vn -0.373 -0.878 -0.301
vn 0.272 -0.911 -0.311
vn 0.072 -0.907 -0.414
vn 0.534 -0.824 0.188
vn 0.521 -0.853 0.016
vn 0.222 -0.932 -0.287
vn 0.339 -0.932 0.127
vn -0.758 -0.588 -0.282
vn -0.194 -0.661 -0.725
vn -0.257 -0.810 -0.528
vn -0.258 -0.809 -0.528
vn 0.176 -0.807 -0.564
vn 0.022 -0.828 -0.560
vn 0.017 -0.833 -0.554
vn 0.218 -0.825 -0.522
vn 0.202 -0.831 -0.518
vn 0.313 -0.869 -0.384
vn -0.033 -0.594 -0.804
vn -0.099 -0.570 -0.815
vn 0.626 -0.114 0.771
vn -0.735 0.069 -0.675
vn 0.716 -0.123 0.687
vn -0.697 0.020 -0.717
vn -0.602 0.177 0.779
vn -0.728 0.086 0.680
vn -0.045 -0.054 0.998
vn -0.076 0.008 0.997
vn 0.467 -0.225 0.855
vn 0.522 -0.134 0.842
vn -0.862 -0.031 0.506
vn -0.920 -0.241 0.310
vn -0.759 0.086 0.645
vn -0.740 -0.005 0.672
vn 0.625 -0.263 0.735
vn 0.676 -0.288 0.678
vn 0.704 -0.244 0.667
vn 0.786 0.026 0.617
vn -0.962 -0.266 0.063
vn -0.949 -0.304 0.081
vn -0.576 -0.646 0.501
vn 0.535 -0.672 0.512
vn 0.702 -0.581 0.412
vn 0.678 -0.574 0.459
vn 0.702 -0.575 0.420
vn 0.700 -0.241 0.673
vn 0.915 -0.258 0.309
vn 0.833 -0.337 0.438
vn -0.782 -0.416 -0.464
vn -0.890 -0.187 -0.416
vn -0.855 -0.212 -0.474
vn -0.603 -0.480 -0.637
vn -0.465 -0.443 -0.767
vn 0.190 -0.629 -0.754
vn 0.575 -0.504 -0.644
vn 0.300 -0.516 -0.803
vn 0.413 -0.492 -0.766
vn 0.312 -0.369 -0.875
vn 0.311 -0.869 -0.384
vn 0.410 -0.487 -0.771
vn 0.316 -0.368 -0.875
vn 0.760 -0.228 -0.608
vn -0.576 0.001 -0.818
vn -0.384 -0.199 -0.901
vn -0.162 -0.212 -0.964
vn -0.177 -0.232 -0.957
vn -0.021 -0.522 -0.852
vn 0.033 -0.191 -0.981
vn 0.061 -0.229 -0.971
vn 0.179 -0.175 -0.968
vn -0.997 -0.054 -0.058
vn 0.622 -0.124 0.773
vn -0.694 0.073 -0.716
vn -0.731 0.075 -0.678
vn -0.727 0.071 -0.683
vn -0.697 0.068 -0.713
vn 0.712 -0.129 0.691
vn 0.704 -0.095 0.704
vn 0.681 -0.090 0.726
vn -0.680 0.046 -0.731
vn 0.792 -0.205 0.575
vn 0.771 -0.285 0.570
vn -0.680 0.063 -0.730
vn -0.584 -0.045 -0.811
vn 0.701 -0.097 0.706
vn 0.725 -0.112 0.680
vn 0.735 -0.101 0.670
vn 0.833 -0.123 0.540
vn -0.559 0.259 0.788
vn 0.104 0.184 0.977
vn -0.003 0.299 0.954
vn 0.375 0.131 0.918
vn -0.864 0.035 0.502
vn -0.571 0.317 0.757
vn -0.569 0.316 0.759
vn -0.384 0.384 0.839
vn -0.553 0.498 0.668
vn 0.028 0.484 0.874
vn 0.115 0.505 0.855
vn 0.413 0.220 0.884
vn 0.503 0.193 0.842
vn 0.478 0.159 0.864
vn 0.790 0.007 0.612
vn 0.838 0.219 0.499
vn -0.885 0.236 0.401
vn -0.934 0.094 0.344
vn -0.953 0.070 0.294
vn -0.553 0.480 0.681
vn -0.571 0.306 0.762
vn 0.585 0.455 0.671
vn 0.864 0.375 0.337
vn 0.868 0.363 0.338
vn 0.935 0.289 0.206
vn 0.678 0.461 0.573
vn -0.944 0.151 -0.292
vn -0.983 -0.002 -0.184
vn -0.547 0.683 -0.484
vn 0.594 0.652 -0.470
vn 0.497 -0.035 -0.867
vn 0.803 0.555 -0.216
vn 0.744 0.265 -0.614
vn 0.594 0.567 -0.570
vn 0.687 0.263 -0.678
vn 0.667 0.555 -0.498
vn -0.674 0.003 -0.739
vn -0.583 -0.076 -0.809
vn -0.245 0.024 -0.969
vn -0.290 0.049 -0.956
vn 0.136 0.051 -0.989
vn -0.006 0.162 -0.987
vn 0.320 0.023 -0.947
vn 0.302 0.257 -0.918
vn 0.389 0.212 -0.897
vn 0.595 0.423 -0.683
vn -0.775 0.101 -0.624
vn 0.030 -0.087 0.996
vn -0.692 0.132 -0.710
vn -0.700 0.096 -0.708
vn -0.722 0.084 -0.687
vn -0.703 0.097 -0.705
vn 0.709 -0.071 0.702
vn 0.671 -0.084 0.736
vn 0.676 -0.079 0.733
vn 0.720 -0.040 0.693
vn -0.585 0.238 -0.775
vn -0.592 0.315 -0.742
vn -0.667 0.111 -0.736
vn -0.678 0.119 -0.725
vn 0.706 -0.067 0.705
vn 0.722 -0.058 0.689
vn 0.787 0.074 0.613
vn -0.541 0.166 -0.824
vn -0.347 0.435 0.831
vn 0.113 0.482 0.869
vn 0.062 0.511 0.857
vn 0.423 0.359 0.832
vn 0.208 0.501 0.840
vn 0.625 0.442 0.643
vn -0.885 0.236 0.401
vn -0.512 0.543 0.666
vn -0.434 0.492 0.755
vn -0.264 0.554 0.790
vn -0.374 0.603 0.704
vn 0.038 0.675 0.737
vn 0.035 0.673 0.738
vn 0.506 0.776 0.376
vn 0.399 0.622 0.674
vn 0.310 0.732 0.607
vn 0.744 0.640 0.190
vn 0.573 0.645 0.506
vn -0.727 0.656 0.204
vn -0.948 0.292 0.131
vn -0.973 0.229 -0.033
vn -0.478 0.651 0.589
vn 0.714 0.694 0.090
vn 0.632 0.742 -0.223
vn 0.810 0.545 -0.216
vn 0.728 0.680 0.090
vn -0.840 0.391 -0.376
vn -0.648 0.160 -0.745
vn -0.274 0.269 -0.923
vn -0.311 0.295 -0.904
vn 0.045 0.423 -0.905
vn 0.050 0.419 -0.907
vn 0.645 0.516 -0.564
vn 0.381 0.526 -0.760
vn 0.337 0.456 -0.823
vn 0.616 0.554 -0.560
vn -0.771 0.093 -0.630
vn -0.687 0.128 -0.716
vn 0.667 -0.079 0.741
vn 0.702 -0.019 0.712
vn -0.177 0.789 0.589
vn 0.008 0.764 0.645
vn -0.136 0.805 0.578
vn 0.364 0.864 0.348
vn -0.609 0.788 -0.093
vn -0.202 0.797 0.569
vn -0.199 0.974 0.105
vn -0.102 0.995 -0.009
vn 0.041 0.996 0.080
vn 0.010 1.000 0.006
vn 0.451 0.864 -0.223
vn 0.319 0.946 0.051
vn -0.626 0.733 -0.265
vn -0.288 0.694 -0.660
vn -0.171 0.757 -0.631
vn 0.066 0.627 -0.776
vn 0.259 0.754 -0.604
vn 0.278 0.747 -0.603
vn -0.947 0.220 -0.236
vn 0.302 0.878 -0.371
vn -0.252 0.647 -0.720
vn 0.959 0.262 -0.111
vn -0.951 0.242 0.190
vn -0.272 0.734 0.622
vn 0.315 0.364 0.876
vn 0.950 0.109 0.293
vn -0.951 -0.226 -0.210
vn 0.304 -0.376 -0.875
vn -0.295 -0.724 -0.624
vn 0.954 -0.132 -0.269
vn -0.959 -0.184 0.216
vn -0.270 -0.641 0.718
vn 0.275 -0.886 0.374
vn 0.946 -0.301 0.124

# Facets
f 1//1 3//1 2//1
f 4//2 2//2 3//2
f 5//3 3//3 1//3
f 5//4 4//4 3//4
f 6//5 2//5 7//5
f 6//6 1//6 2//6
f 4//7 7//7 2//7
f 4//8 8//8 7//8
f 9//9 1//9 6//9
f 9//10 5//10 1//10
f 5//11 8//11 4//11
f 5//12 9//12 8//12
f 6//13 7//13 10//13
f 10//14 7//14 8//14
f 9//15 6//15 10//15
f 10//16 8//16 9//16
f 11//17 13//17 12//17
f 14//18 12//18 13//18
f 15//19 13//19 11//19
f 15//20 14//20 13//20
f 16//21 12//21 17//21
f 16//22 11//22 12//22
f 18//23 14//23 19//23
f 12//24 14//24 18//24
f 17//25 12//25 18//25
f 20//26 18//26 19//26
f 21//27 23//27 22//27
f 24//28 15//28 23//28
f 23//29 15//29 16//29
f 16//30 15//30 11//30
f 16//31 22//31 23//31
f 14//32 15//32 19//32
f 19//33 15//33 24//33
f 19//34 24//34 25//34
f 19//35 26//35 20//35
f 19//36 25//36 26//36
f 21//37 27//37 23//37
f 21//38 28//38 27//38
f 29//39 24//39 23//39
f 27//40 29//40 23//40
f 30//41 25//41 24//41
f 29//42 30//42 24//42
f 25//43 31//43 26//43
f 32//44 31//44 25//44
f 30//45 32//45 25//45
f 33//46 31//46 32//46
f 34//47 27//47 28//47
f 35//48 34//48 36//48
f 27//49 34//49 35//49
f 29//50 27//50 35//50
f 30//51 38//51 37//51
f 35//52 38//52 30//52
f 29//53 35//53 30//53
f 37//54 32//54 30//54
f 37//55 39//55 32//55
f 39//56 33//56 32//56
f 40//57 35//57 36//57
f 40//58 38//58 35//58
f 41//59 43//59 42//59
f 42//60 44//60 41//60
f 41//61 45//61 43//61
f 44//62 45//62 41//62
f 46//63 17//63 47//63
f 46//64 16//64 17//64
f 17//65 18//65 48//65
f 47//66 17//66 48//66
f 20//67 48//67 18//67
f 20//68 49//68 48//68
f 50//69 22//69 51//69
f 50//70 21//70 22//70
f 16//71 46//71 22//71
f 46//72 51//72 22//72
f 52//73 53//73 26//73
f 26//74 53//74 49//74
f 26//75 49//75 20//75
f 54//76 53//76 52//76
f 28//77 21//77 50//77
f 28//78 50//78 55//78
f 56//79 58//79 57//79
f 58//80 56//80 59//80
f 52//81 26//81 31//81
f 60//82 33//82 61//82
f 60//83 31//83 33//83
f 54//84 31//84 60//84
f 52//85 31//85 54//85
f 62//86 60//86 61//86
f 28//87 63//87 34//87
f 64//88 63//88 28//88
f 55//89 64//89 28//89
f 56//90 57//90 65//90
f 63//91 36//91 34//91
f 66//92 37//92 38//92
f 56//93 65//93 59//93
f 66//94 67//94 37//94
f 37//95 67//95 68//95
f 37//96 68//96 39//96
f 39//97 61//97 33//97
f 69//98 61//98 39//98
f 68//99 69//99 39//99
f 69//100 62//100 61//100
f 70//101 63//101 64//101
f 70//102 36//102 63//102
f 40//103 36//103 70//103
f 71//104 40//104 70//104
f 40//105 66//105 38//105
f 72//106 66//106 40//106
f 71//107 72//107 40//107
f 72//108 67//108 66//108
f 42//109 74//109 73//109
f 43//110 74//110 42//110
f 44//111 76//111 75//111
f 44//112 42//112 76//112
f 42//113 73//113 76//113
f 76//114 77//114 75//114
f 78//115 43//115 45//115
f 78//116 79//116 43//116
f 79//117 74//117 43//117
f 45//118 44//118 75//118
f 45//119 75//119 78//119
f 78//120 75//120 80//120
f 81//121 75//121 77//121
f 80//122 75//122 81//122
f 78//123 82//123 79//123
f 80//124 82//124 78//124
f 83//125 82//125 80//125
f 81//126 83//126 80//126
f 46//127 47//127 84//127
f 85//128 47//128 48//128
f 85//129 84//129 47//129
f 85//130 48//130 49//130
f 50//131 51//131 86//131
f 86//132 51//132 87//132
f 51//133 46//133 87//133
f 87//134 46//134 88//134
f 88//135 46//135 84//135
f 84//136 85//136 88//136
f 85//137 89//137 88//137
f 85//138 49//138 89//138
f 89//139 49//139 53//139
f 89//140 53//140 90//140
f 54//141 90//141 53//141
f 54//142 91//142 90//142
f 92//143 86//143 93//143
f 50//144 86//144 92//144
f 55//145 50//145 92//145
f 58//146 94//146 57//146
f 93//147 86//147 87//147
f 58//148 59//148 94//148
f 60//149 95//149 54//149
f 54//150 95//150 96//150
f 54//151 96//151 91//151
f 95//152 60//152 62//152
f 64//153 55//153 92//153
f 64//154 92//154 97//154
f 57//155 94//155 65//155
f 59//156 65//156 94//156
f 98//157 68//157 67//157
f 96//158 95//158 99//158
f 99//159 95//159 68//159
f 68//160 95//160 69//160
f 68//161 98//161 99//161
f 95//162 62//162 69//162
f 100//163 64//163 97//163
f 100//164 70//164 64//164
f 101//165 71//165 70//165
f 101//166 70//166 100//166
f 102//167 72//167 71//167
f 102//168 71//168 101//168
f 72//169 98//169 67//169
f 103//170 98//170 72//170
f 102//171 103//171 72//171
f 103//172 99//172 98//172
f 73//173 105//173 104//173
f 74//174 105//174 73//174
f 106//175 104//175 107//175
f 106//176 76//176 104//176
f 76//177 73//177 104//177
f 76//178 106//178 77//178
f 108//179 79//179 109//179
f 108//180 105//180 79//180
f 105//181 74//181 79//181
f 107//182 108//182 109//182
f 107//183 109//183 106//183
f 106//184 109//184 110//184
f 77//185 110//185 81//185
f 106//186 110//186 77//186
f 79//187 82//187 109//187
f 83//188 109//188 82//188
f 110//189 109//189 83//189
f 81//190 110//190 83//190
f 87//191 88//191 111//191
f 112//192 88//192 89//192
f 112//193 111//193 88//193
f 113//194 89//194 90//194
f 113//195 112//195 89//195
f 113//196 90//196 91//196
f 92//197 93//197 114//197
f 114//198 93//198 115//198
f 93//199 87//199 115//199
f 115//200 87//200 116//200
f 116//201 87//201 111//201
f 111//202 112//202 116//202
f 112//203 117//203 116//203
f 118//204 117//204 119//204
f 119//205 117//205 112//205
f 119//206 112//206 113//206
f 119//207 91//207 96//207
f 119//208 113//208 91//208
f 120//209 114//209 121//209
f 92//210 114//210 120//210
f 97//211 92//211 120//211
f 114//212 115//212 121//212
f 119//213 122//213 118//213
f 122//214 123//214 118//214
f 122//215 96//215 99//215
f 122//216 119//216 96//216
f 124//217 97//217 120//217
f 124//218 100//218 97//218
f 125//219 101//219 100//219
f 125//220 100//220 124//220
f 126//221 102//221 101//221
f 126//222 101//222 125//222
f 103//223 123//223 122//223
f 126//224 123//224 103//224
f 102//225 126//225 103//225
f 122//226 99//226 103//226
f 104//227 105//227 127//227
f 104//228 127//228 107//228
f 105//229 108//229 127//229
f 107//230 127//230 108//230
f 115//231 116//231 128//231
f 129//232 116//232 117//232
f 129//233 128//233 116//233
f 129//234 117//234 118//234
f 120//235 121//235 130//235
f 128//236 121//236 115//236
f 130//237 121//237 128//237
f 131//238 130//238 128//238
f 128//239 129//239 132//239
f 128//240 132//240 131//240
f 132//241 118//241 123//241
f 132//242 129//242 118//242
f 124//243 120//243 130//243
f 130//244 125//244 124//244
f 130//245 131//245 125//245
f 131//246 126//246 125//246
f 131//247 132//247 126//247
f 132//248 123//248 126//248
f 133//249 135//249 134//249
f 136//250 135//250 137//250
f 136//251 134//251 135//251
f 138//252 136//252 137//252
f 139//253 135//253 133//253
f 139//254 137//254 135//254
f 139//255 140//255 137//255
f 140//256 138//256 137//256
f 133//257 134//257 141//257
f 142//258 134//258 136//258
f 142//259 141//259 134//259
f 142//260 136//260 138//260
f 139//261 133//261 141//261
f 141//262 140//262 139//262
f 141//263 142//263 140//263
f 142//264 138//264 140//264

# Thankyou for using Spin3D

