# Created using Spin3D

# Vertex Array
v 5.734 -36.075 29.445
v 5.735 -36.075 29.446
v 5.735 -36.076 29.445
v 5.736 -36.075 29.445
v 5.735 -36.075 29.444
v 5.735 -36.074 29.445
v 2.724 -27.124 61.061
v 3.031 -26.868 61.347
v 2.957 -27.375 61.200
v 3.468 -27.079 61.098
v 3.051 -26.843 60.265
v 2.388 -25.878 60.424
v 3.282 -25.404 61.321
v 4.005 -26.240 61.309
v 4.685 -26.216 60.101
v 5.259 -25.329 60.865
v 0.679 -24.041 57.187
v 1.208 -24.002 58.785
v 2.008 -25.567 58.319
v 3.934 -26.038 58.287
v 6.233 -25.261 58.017
v 6.797 -24.551 59.527
v 1.361 -24.543 56.133
v 0.237 -22.822 55.571
v 2.898 -25.378 56.662
v 5.113 -24.918 56.040
v 8.434 -23.924 57.623
v 7.783 -24.347 56.251
v 9.390 -23.765 56.242
v 1.117 -23.566 54.753
v 2.833 -24.173 54.847
v 1.822 -22.853 53.914
v 7.094 -23.524 54.663
v 4.906 -23.747 54.297
v 9.145 -23.468 55.370
v 3.698 -22.392 53.497
v 6.704 -17.816 28.737
v 6.692 -17.764 28.747
v 6.673 -17.761 28.743
v 6.726 -17.818 28.750
v 6.695 -17.809 28.741
v 2.557 -23.265 60.275
v 3.723 -24.002 61.344
v 4.514 -24.801 61.410
v 6.001 -23.765 60.654
v 0.144 -22.128 57.087
v 1.031 -21.999 58.605
v 8.200 -23.416 58.739
v 7.603 -22.786 59.474
v 8.887 -22.093 57.808
v -0.217 -21.362 55.735
v 2.809 -22.160 56.072
v 2.808 -22.158 56.072
v 2.809 -22.159 56.073
v 2.811 -22.158 56.072
v 9.818 -23.057 56.495
v 10.098 -23.305 55.773
v 10.261 -22.856 55.809
v 0.747 -22.311 54.252
v 0.238 -20.690 54.612
v 2.809 -22.158 56.071
v 5.759 -22.681 53.623
v 7.095 -22.135 53.771
v 8.663 -22.226 54.674
v 9.930 -22.836 55.388
v 1.815 -20.976 53.502
v 3.649 -20.507 53.049
v 5.594 -21.012 53.291
v 6.664 -17.667 28.764
v 6.651 -17.679 28.754
v 6.752 -17.819 28.765
v 6.714 -17.750 28.765
v 6.743 -17.791 28.772
v 6.665 -17.751 28.749
v 6.635 -17.658 28.762
v 6.691 -17.763 28.758
v 6.738 -17.802 28.766
v 6.652 -17.705 28.761
v 3.746 -22.928 61.007
v 4.774 -23.079 61.058
v 0.482 -20.481 57.555
v 2.091 -20.000 58.567
v 4.116 -21.261 60.072
v 6.344 -21.550 59.943
v 7.962 -21.251 58.992
v 8.288 -20.316 58.034
v -0.019 -19.667 55.972
v 0.670 -19.007 57.103
v 2.809 -22.157 56.072
v 9.573 -21.953 55.895
v 8.572 -20.225 56.613
v 0.232 -18.799 54.626
v 7.422 -20.952 53.910
v 8.273 -20.428 54.975
v 1.121 -18.979 53.814
v 2.815 -19.029 53.298
v 4.553 -19.351 53.234
v 6.331 -19.216 54.036
v 6.653 -17.611 28.779
v 6.625 -17.587 28.774
v 6.693 -17.705 28.776
v 6.633 -17.577 28.786
v 6.613 -17.563 28.781
v 6.645 -17.646 28.774
v 3.839 -19.399 58.981
v 5.540 -19.288 58.793
v 7.300 -20.046 58.808
v 0.516 -18.026 56.184
v 1.646 -17.859 56.917
v 3.692 -17.969 57.679
v 5.511 -17.730 57.373
v 5.955 -17.413 56.123
v 7.163 -18.822 57.403
v 0.451 -17.787 55.187
v 1.187 -17.151 55.761
v 7.268 -18.694 55.584
v 5.789 -17.656 54.844
v 0.863 -17.757 54.302
v 2.121 -17.597 53.921
v 4.175 -17.778 53.950
v 6.615 -17.540 28.785
v 2.789 -16.838 55.891
v 4.542 -16.956 56.468
v 1.560 -16.974 54.821
v 2.962 -16.831 54.611
v 4.430 -16.851 55.216
v 4.136 -8.194 45.132
v 4.132 -8.194 45.127
v 4.134 -8.193 45.129
v 4.132 -8.192 45.125
v 4.133 -8.193 45.126
v 4.131 -8.193 45.123
v 4.136 -8.194 45.131
v 4.139 -8.195 45.132
v 4.135 -8.194 45.127
v 4.137 -8.193 45.129
v 4.140 -8.194 45.132
v 4.135 -8.195 45.129
v 4.132 -8.194 45.127
v 4.138 -8.194 45.130

# Normal Array
vn -0.590 -0.655 0.472
vn 0.584 -0.663 0.469
vn -0.588 -0.464 -0.662
vn 0.585 -0.477 -0.656
vn -0.586 0.476 0.655
vn 0.590 0.464 0.661
vn -0.585 0.662 -0.469
vn 0.591 0.654 -0.471
vn -0.612 -0.136 0.779
vn 0.356 -0.308 0.883
vn -0.506 -0.727 -0.465
vn 0.388 -0.817 -0.426
vn -0.737 0.138 0.661
vn -0.735 0.141 0.663
vn 0.725 -0.564 0.396
vn 0.297 -0.408 0.864
vn 0.031 0.012 0.999
vn 0.629 -0.699 0.340
vn -0.817 -0.502 0.283
vn -0.219 -0.866 -0.450
vn -0.818 -0.572 0.063
vn -0.761 -0.446 -0.471
vn -0.876 -0.474 0.088
vn 0.295 -0.870 -0.394
vn 0.329 -0.917 -0.226
vn 0.291 -0.933 -0.212
vn 0.638 -0.696 0.329
vn 0.635 -0.763 0.122
vn -0.703 -0.701 -0.121
vn -0.780 -0.584 -0.227
vn -0.234 -0.944 -0.234
vn -0.373 -0.878 -0.301
vn 0.272 -0.911 -0.311
vn 0.072 -0.907 -0.414
vn 0.534 -0.824 0.188
vn 0.521 -0.853 0.016
vn 0.222 -0.932 -0.287
vn 0.339 -0.932 0.127
vn -0.758 -0.588 -0.282
vn -0.194 -0.661 -0.725
vn -0.257 -0.810 -0.528
vn -0.258 -0.809 -0.528
vn 0.176 -0.807 -0.564
vn 0.022 -0.828 -0.560
vn 0.017 -0.833 -0.554
vn 0.218 -0.825 -0.522
vn 0.202 -0.831 -0.518
vn 0.313 -0.869 -0.384
vn -0.033 -0.594 -0.804
vn -0.099 -0.570 -0.815
vn 0.222 0.226 -0.949
vn 0.510 0.271 -0.816
vn -0.540 -0.222 -0.812
vn -0.400 -0.715 0.574
vn -0.602 0.177 0.779
vn -0.728 0.086 0.680
vn -0.045 -0.054 0.998
vn -0.076 0.008 0.997
vn 0.467 -0.225 0.855
vn 0.522 -0.134 0.842
vn -0.862 -0.031 0.506
vn -0.920 -0.241 0.310
vn -0.759 0.086 0.645
vn -0.740 -0.005 0.672
vn 0.625 -0.263 0.735
vn 0.676 -0.288 0.678
vn 0.704 -0.244 0.667
vn 0.786 0.026 0.617
vn -0.962 -0.266 0.063
vn -0.949 -0.304 0.081
vn -0.576 -0.646 0.501
vn 0.535 -0.672 0.512
vn 0.702 -0.581 0.412
vn 0.678 -0.574 0.459
vn 0.702 -0.575 0.420
vn 0.700 -0.241 0.673
vn 0.915 -0.258 0.309
vn 0.833 -0.337 0.438
vn -0.782 -0.416 -0.464
vn -0.890 -0.187 -0.416
vn -0.855 -0.212 -0.474
vn -0.603 -0.480 -0.637
vn -0.465 -0.443 -0.767
vn 0.190 -0.629 -0.754
vn 0.575 -0.504 -0.644
vn 0.300 -0.516 -0.803
vn 0.413 -0.492 -0.766
vn 0.312 -0.369 -0.875
vn 0.311 -0.869 -0.384
vn 0.410 -0.487 -0.771
vn 0.316 -0.368 -0.875
vn 0.760 -0.228 -0.608
vn -0.576 0.001 -0.818
vn -0.384 -0.199 -0.901
vn -0.162 -0.212 -0.964
vn -0.177 -0.232 -0.957
vn -0.021 -0.522 -0.852
vn 0.033 -0.191 -0.981
vn 0.061 -0.229 -0.971
vn 0.179 -0.175 -0.968
vn 0.366 0.257 -0.894
vn 0.219 0.192 -0.957
vn 0.468 0.263 -0.844
vn 0.500 0.264 -0.825
vn 0.490 0.280 -0.826
vn 0.722 0.400 -0.564
vn -0.828 -0.378 -0.415
vn -0.723 -0.137 -0.677
vn -0.404 0.021 -0.915
vn -0.431 -0.350 0.832
vn -0.372 -0.354 0.858
vn -0.460 -0.400 0.793
vn -0.447 -0.412 0.794
vn -0.381 -0.361 0.851
vn -0.901 -0.324 0.289
vn -0.429 -0.340 0.837
vn -0.559 0.259 0.788
vn 0.104 0.184 0.977
vn -0.003 0.299 0.954
vn 0.375 0.131 0.918
vn -0.864 0.035 0.502
vn -0.571 0.317 0.757
vn -0.569 0.316 0.759
vn -0.384 0.384 0.839
vn -0.553 0.498 0.668
vn 0.028 0.484 0.874
vn 0.115 0.505 0.855
vn 0.413 0.220 0.884
vn 0.503 0.193 0.842
vn 0.478 0.159 0.864
vn 0.790 0.007 0.612
vn 0.838 0.219 0.499
vn -0.885 0.236 0.401
vn -0.934 0.094 0.344
vn -0.953 0.070 0.294
vn -0.553 0.480 0.681
vn -0.571 0.306 0.762
vn 0.585 0.455 0.671
vn 0.864 0.375 0.337
vn 0.868 0.363 0.338
vn 0.935 0.289 0.206
vn 0.678 0.461 0.573
vn -0.944 0.151 -0.292
vn -0.983 -0.002 -0.184
vn -0.547 0.683 -0.484
vn 0.594 0.652 -0.470
vn 0.497 -0.035 -0.867
vn 0.803 0.555 -0.216
vn 0.744 0.265 -0.614
vn 0.594 0.567 -0.570
vn 0.687 0.263 -0.678
vn 0.667 0.555 -0.498
vn -0.674 0.003 -0.739
vn -0.583 -0.076 -0.809
vn -0.245 0.024 -0.969
vn -0.290 0.049 -0.956
vn 0.136 0.051 -0.989
vn -0.006 0.162 -0.987
vn 0.320 0.023 -0.947
vn 0.302 0.257 -0.918
vn 0.389 0.212 -0.897
vn 0.595 0.423 -0.683
vn 0.448 0.327 -0.832
vn 0.343 0.283 -0.896
vn 0.684 0.269 0.678
vn 0.906 0.384 0.179
vn 0.570 0.330 -0.753
vn 0.780 0.465 -0.418
vn -0.595 -0.291 0.749
vn -0.377 0.101 -0.921
vn -0.287 0.119 -0.951
vn -0.362 -0.216 0.907
vn -0.286 -0.208 0.935
vn -0.351 -0.263 0.899
vn -0.362 -0.261 0.895
vn -0.475 -0.306 0.825
vn -0.643 -0.234 0.729
vn -0.255 -0.230 0.939
vn -0.347 0.435 0.831
vn 0.113 0.482 0.869
vn 0.062 0.511 0.857
vn 0.423 0.359 0.832
vn 0.208 0.501 0.840
vn 0.625 0.442 0.643
vn -0.885 0.236 0.401
vn -0.512 0.543 0.666
vn -0.434 0.492 0.755
vn -0.264 0.554 0.790
vn -0.374 0.603 0.704
vn 0.038 0.675 0.737
vn 0.035 0.673 0.738
vn 0.506 0.776 0.376
vn 0.399 0.622 0.674
vn 0.310 0.732 0.607
vn 0.744 0.640 0.190
vn 0.573 0.645 0.506
vn -0.727 0.656 0.204
vn -0.948 0.292 0.131
vn -0.973 0.229 -0.033
vn -0.478 0.651 0.589
vn 0.714 0.694 0.090
vn 0.632 0.742 -0.223
vn 0.810 0.545 -0.216
vn 0.728 0.680 0.090
vn -0.840 0.391 -0.376
vn -0.648 0.160 -0.745
vn -0.274 0.269 -0.923
vn -0.311 0.295 -0.904
vn 0.045 0.423 -0.905
vn 0.050 0.419 -0.907
vn 0.645 0.516 -0.564
vn 0.381 0.526 -0.760
vn 0.337 0.456 -0.823
vn 0.616 0.554 -0.560
vn 0.430 0.301 -0.851
vn 0.824 0.405 0.397
vn -0.219 0.190 -0.957
vn -0.322 -0.149 0.935
vn -0.177 0.789 0.589
vn 0.008 0.764 0.645
vn -0.136 0.805 0.578
vn 0.364 0.864 0.348
vn -0.609 0.788 -0.093
vn -0.202 0.797 0.569
vn -0.199 0.974 0.105
vn -0.102 0.995 -0.009
vn 0.041 0.996 0.080
vn 0.010 1.000 0.006
vn 0.451 0.864 -0.223
vn 0.319 0.946 0.051
vn -0.626 0.733 -0.265
vn -0.288 0.694 -0.660
vn -0.171 0.757 -0.631
vn 0.066 0.627 -0.776
vn 0.259 0.754 -0.604
vn 0.278 0.747 -0.603
vn -0.513 0.634 0.579
vn 0.239 0.970 -0.042
vn -0.456 0.819 0.348
vn 0.524 0.730 -0.438
vn 0.039 0.924 0.380
vn 0.229 0.856 0.463
vn 0.648 0.332 -0.685
vn 0.066 0.983 0.173
vn 0.504 0.856 -0.115
vn 0.679 0.524 -0.514
vn -0.223 0.067 0.973
vn 0.019 0.985 0.170
vn -0.478 -0.791 0.382
vn -0.347 -0.862 -0.369
vn -0.243 -0.954 -0.175
vn -0.955 -0.234 0.182
vn 0.209 -0.893 -0.399
vn -0.222 -0.925 0.310
vn 0.730 -0.151 -0.667
vn -0.017 -0.977 -0.215
vn 0.269 -0.726 -0.633
vn -0.015 -0.985 -0.170
vn 0.548 -0.564 -0.619
vn 0.588 -0.359 -0.725

# Facets
f 1//1 3//1 2//1
f 4//2 2//2 3//2
f 5//3 3//3 1//3
f 5//4 4//4 3//4
f 1//5 2//5 6//5
f 6//6 2//6 4//6
f 5//7 1//7 6//7
f 6//8 4//8 5//8
f 7//9 9//9 8//9
f 10//10 8//10 9//10
f 11//11 9//11 7//11
f 11//12 10//12 9//12
f 12//13 8//13 13//13
f 12//14 7//14 8//14
f 14//15 10//15 15//15
f 8//16 10//16 14//16
f 13//17 8//17 14//17
f 16//18 14//18 15//18
f 17//19 19//19 18//19
f 20//20 11//20 19//20
f 19//21 11//21 12//21
f 12//22 11//22 7//22
f 12//23 18//23 19//23
f 10//24 11//24 15//24
f 15//25 11//25 20//25
f 15//26 20//26 21//26
f 15//27 22//27 16//27
f 15//28 21//28 22//28
f 17//29 23//29 19//29
f 17//30 24//30 23//30
f 25//31 20//31 19//31
f 23//32 25//32 19//32
f 26//33 21//33 20//33
f 25//34 26//34 20//34
f 21//35 27//35 22//35
f 28//36 27//36 21//36
f 26//37 28//37 21//37
f 29//38 27//38 28//38
f 30//39 23//39 24//39
f 31//40 30//40 32//40
f 23//41 30//41 31//41
f 25//42 23//42 31//42
f 26//43 34//43 33//43
f 31//44 34//44 26//44
f 25//45 31//45 26//45
f 33//46 28//46 26//46
f 33//47 35//47 28//47
f 35//48 29//48 28//48
f 36//49 31//49 32//49
f 36//50 34//50 31//50
f 37//51 39//51 38//51
f 38//52 40//52 37//52
f 37//53 41//53 39//53
f 40//54 41//54 37//54
f 42//55 13//55 43//55
f 42//56 12//56 13//56
f 13//57 14//57 44//57
f 43//58 13//58 44//58
f 16//59 44//59 14//59
f 16//60 45//60 44//60
f 46//61 18//61 47//61
f 46//62 17//62 18//62
f 12//63 42//63 18//63
f 42//64 47//64 18//64
f 48//65 49//65 22//65
f 22//66 49//66 45//66
f 22//67 45//67 16//67
f 50//68 49//68 48//68
f 24//69 17//69 46//69
f 24//70 46//70 51//70
f 52//71 54//71 53//71
f 54//72 52//72 55//72
f 48//73 22//73 27//73
f 56//74 29//74 57//74
f 56//75 27//75 29//75
f 50//76 27//76 56//76
f 48//77 27//77 50//77
f 58//78 56//78 57//78
f 24//79 59//79 30//79
f 60//80 59//80 24//80
f 51//81 60//81 24//81
f 52//82 53//82 61//82
f 59//83 32//83 30//83
f 62//84 33//84 34//84
f 52//85 61//85 55//85
f 62//86 63//86 33//86
f 33//87 63//87 64//87
f 33//88 64//88 35//88
f 35//89 57//89 29//89
f 65//90 57//90 35//90
f 64//91 65//91 35//91
f 65//92 58//92 57//92
f 66//93 59//93 60//93
f 66//94 32//94 59//94
f 36//95 32//95 66//95
f 67//96 36//96 66//96
f 36//97 62//97 34//97
f 68//98 62//98 36//98
f 67//99 68//99 36//99
f 68//100 63//100 62//100
f 38//101 70//101 69//101
f 39//102 70//102 38//102
f 40//103 72//103 71//103
f 40//104 38//104 72//104
f 38//105 69//105 72//105
f 72//106 73//106 71//106
f 74//107 39//107 41//107
f 74//108 75//108 39//108
f 75//109 70//109 39//109
f 41//110 76//110 74//110
f 40//111 76//111 41//111
f 40//112 77//112 76//112
f 40//113 71//113 77//113
f 73//114 77//114 71//114
f 74//115 78//115 75//115
f 76//116 78//116 74//116
f 42//117 43//117 79//117
f 80//118 43//118 44//118
f 80//119 79//119 43//119
f 80//120 44//120 45//120
f 46//121 47//121 81//121
f 81//122 47//122 82//122
f 47//123 42//123 82//123
f 82//124 42//124 83//124
f 83//125 42//125 79//125
f 79//126 80//126 83//126
f 80//127 84//127 83//127
f 80//128 45//128 84//128
f 84//129 45//129 49//129
f 84//130 49//130 85//130
f 50//131 85//131 49//131
f 50//132 86//132 85//132
f 87//133 81//133 88//133
f 46//134 81//134 87//134
f 51//135 46//135 87//135
f 54//136 89//136 53//136
f 88//137 81//137 82//137
f 54//138 55//138 89//138
f 56//139 90//139 50//139
f 50//140 90//140 91//140
f 50//141 91//141 86//141
f 90//142 56//142 58//142
f 60//143 51//143 87//143
f 60//144 87//144 92//144
f 53//145 89//145 61//145
f 55//146 61//146 89//146
f 93//147 64//147 63//147
f 91//148 90//148 94//148
f 94//149 90//149 64//149
f 64//150 90//150 65//150
f 64//151 93//151 94//151
f 90//152 58//152 65//152
f 95//153 60//153 92//153
f 95//154 66//154 60//154
f 96//155 67//155 66//155
f 96//156 66//156 95//156
f 97//157 68//157 67//157
f 97//158 67//158 96//158
f 68//159 93//159 63//159
f 98//160 93//160 68//160
f 97//161 98//161 68//161
f 98//162 94//162 93//162
f 69//163 100//163 99//163
f 70//164 100//164 69//164
f 101//165 99//165 102//165
f 101//166 72//166 99//166
f 72//167 69//167 99//167
f 72//168 101//168 73//168
f 103//169 75//169 104//169
f 103//170 100//170 75//170
f 100//171 70//171 75//171
f 102//172 103//172 104//172
f 101//173 102//173 104//173
f 101//174 104//174 76//174
f 101//175 76//175 77//175
f 73//176 101//176 77//176
f 75//177 78//177 104//177
f 76//178 104//178 78//178
f 82//179 83//179 105//179
f 106//180 83//180 84//180
f 106//181 105//181 83//181
f 107//182 84//182 85//182
f 107//183 106//183 84//183
f 107//184 85//184 86//184
f 87//185 88//185 108//185
f 108//186 88//186 109//186
f 88//187 82//187 109//187
f 109//188 82//188 110//188
f 110//189 82//189 105//189
f 105//190 106//190 110//190
f 106//191 111//191 110//191
f 112//192 111//192 113//192
f 113//193 111//193 106//193
f 113//194 106//194 107//194
f 113//195 86//195 91//195
f 113//196 107//196 86//196
f 114//197 108//197 115//197
f 87//198 108//198 114//198
f 92//199 87//199 114//199
f 108//200 109//200 115//200
f 113//201 116//201 112//201
f 116//202 117//202 112//202
f 116//203 91//203 94//203
f 116//204 113//204 91//204
f 118//205 92//205 114//205
f 118//206 95//206 92//206
f 119//207 96//207 95//207
f 119//208 95//208 118//208
f 120//209 97//209 96//209
f 120//210 96//210 119//210
f 98//211 117//211 116//211
f 120//212 117//212 98//212
f 97//213 120//213 98//213
f 116//214 94//214 98//214
f 99//215 100//215 121//215
f 99//216 121//216 102//216
f 100//217 103//217 121//217
f 102//218 121//218 103//218
f 109//219 110//219 122//219
f 123//220 110//220 111//220
f 123//221 122//221 110//221
f 123//222 111//222 112//222
f 114//223 115//223 124//223
f 122//224 115//224 109//224
f 124//225 115//225 122//225
f 125//226 124//226 122//226
f 122//227 123//227 126//227
f 122//228 126//228 125//228
f 126//229 112//229 117//229
f 126//230 123//230 112//230
f 118//231 114//231 124//231
f 124//232 119//232 118//232
f 124//233 125//233 119//233
f 125//234 120//234 119//234
f 125//235 126//235 120//235
f 126//236 117//236 120//236
f 127//237 129//237 128//237
f 130//238 129//238 131//238
f 130//239 128//239 129//239
f 132//240 130//240 131//240
f 127//241 133//241 129//241
f 127//242 134//242 133//242
f 131//243 136//243 135//243
f 133//244 136//244 131//244
f 129//245 133//245 131//245
f 135//246 132//246 131//246
f 137//247 133//247 134//247
f 137//248 136//248 133//248
f 127//249 128//249 138//249
f 139//250 128//250 130//250
f 139//251 138//251 128//251
f 139//252 130//252 132//252
f 134//253 138//253 140//253
f 134//254 127//254 138//254
f 140//255 135//255 136//255
f 139//256 135//256 140//256
f 138//257 139//257 140//257
f 139//258 132//258 135//258
f 137//259 134//259 140//259
f 140//260 136//260 137//260

# Thankyou for using Spin3D

