# Created using Spin3D

# Vertex Array
v 6.581 -36.160 29.435
v 6.582 -36.127 29.442
v 6.583 -36.139 29.438
v 6.579 -36.145 29.438
v 6.578 -36.139 29.437
v 6.582 -36.068 29.454
v 6.586 -36.086 29.449
v 6.574 -36.117 29.442
v 6.576 -36.093 29.449
v 6.571 -36.086 29.449
v 6.582 -36.103 29.444
v 6.576 -36.079 29.449
v 6.579 -36.032 29.461
v 6.585 -36.032 29.461
v 6.575 -36.054 29.457
v 6.580 -36.026 29.461
v 6.583 -36.044 29.457
v 6.584 -36.012 29.463
v 2.724 -27.123 61.061
v 3.031 -26.867 61.348
v 2.957 -27.374 61.201
v 3.468 -27.077 61.098
v 3.051 -26.841 60.266
v 2.388 -25.876 60.425
v 3.282 -25.402 61.322
v 4.006 -26.238 61.309
v 4.685 -26.214 60.101
v 5.259 -25.327 60.865
v 0.679 -24.039 57.187
v 1.208 -24.001 58.785
v 2.008 -25.566 58.319
v 3.934 -26.036 58.287
v 6.233 -25.259 58.018
v 6.797 -24.549 59.527
v 1.361 -24.541 56.133
v 0.237 -22.820 55.571
v 2.898 -25.376 56.663
v 5.114 -24.917 56.040
v 8.434 -23.922 57.624
v 7.783 -24.346 56.252
v 9.390 -23.763 56.243
v 1.117 -23.564 54.753
v 2.833 -24.171 54.848
v 1.822 -22.851 53.914
v 7.094 -23.523 54.663
v 4.906 -23.745 54.297
v 9.145 -23.466 55.370
v 3.698 -22.390 53.497
v 6.101 -17.987 29.027
v 6.189 -17.865 29.018
v 6.154 -17.990 29.004
v 6.337 -17.834 28.904
v 6.313 -17.797 28.871
v 2.557 -23.263 60.275
v 3.723 -24.000 61.344
v 4.514 -24.799 61.411
v 6.001 -23.763 60.654
v 0.144 -22.126 57.088
v 1.031 -21.997 58.606
v 8.200 -23.414 58.740
v 7.603 -22.784 59.474
v 8.887 -22.091 57.808
v -0.217 -21.360 55.735
v 9.818 -23.056 56.495
v 10.098 -23.303 55.774
v 10.261 -22.854 55.809
v 0.747 -22.309 54.253
v 0.238 -20.688 54.612
v 5.759 -22.679 53.623
v 7.095 -22.134 53.771
v 8.663 -22.224 54.674
v 9.930 -22.834 55.388
v 1.815 -20.975 53.502
v 3.649 -20.505 53.050
v 5.594 -21.010 53.292
v 6.129 -17.677 29.000
v 6.201 -17.628 29.009
v 6.126 -17.824 29.007
v 6.398 -17.558 28.947
v 6.535 -17.588 28.840
v 6.733 -17.475 28.635
v 6.881 -17.275 28.621
v 6.389 -17.503 28.807
v 6.841 -17.170 28.484
v 6.749 -17.374 28.548
v 7.045 -17.176 28.374
v 7.105 -17.095 28.409
v 7.059 -17.085 28.335
v 7.201 -16.979 28.284
v 3.746 -22.926 61.008
v 4.774 -23.077 61.058
v 0.482 -20.479 57.555
v 2.091 -19.999 58.567
v 4.116 -21.259 60.072
v 6.344 -21.548 59.943
v 7.962 -21.249 58.992
v 8.288 -20.314 58.035
v -0.019 -19.665 55.972
v 0.671 -19.005 57.103
v 9.573 -21.951 55.895
v 8.572 -20.223 56.613
v 0.232 -18.797 54.627
v 7.422 -20.951 53.910
v 8.273 -20.426 54.976
v 1.121 -18.977 53.815
v 2.815 -19.027 53.298
v 4.553 -19.349 53.234
v 6.331 -19.215 54.036
v 6.196 -17.563 28.966
v 6.420 -17.347 28.856
v 6.535 -17.296 28.863
v 6.728 -17.274 28.762
v 7.037 -17.024 28.526
v 7.087 -16.956 28.360
v 6.760 -17.109 28.602
v 7.189 -16.916 28.351
v 7.006 -16.936 28.505
v 3.839 -19.397 58.981
v 5.540 -19.286 58.793
v 7.300 -20.044 58.808
v 0.516 -18.024 56.185
v 1.646 -17.858 56.917
v 3.692 -17.967 57.679
v 5.511 -17.728 57.374
v 5.955 -17.411 56.124
v 7.163 -18.820 57.403
v 0.452 -17.786 55.188
v 1.187 -17.149 55.761
v 7.268 -18.692 55.585
v 5.789 -17.655 54.844
v 0.863 -17.755 54.302
v 2.121 -17.596 53.922
v 4.175 -17.776 53.951
v 6.724 -17.081 28.710
v 6.845 -17.052 28.675
v 2.789 -16.836 55.892
v 4.542 -16.954 56.468
v 1.560 -16.972 54.822
v 2.962 -16.830 54.612
v 4.430 -16.849 55.216
v 4.136 -8.192 45.132
v 4.132 -8.192 45.128
v 4.134 -8.191 45.129
v 4.132 -8.190 45.125
v 4.133 -8.191 45.126
v 4.132 -8.191 45.124
v 4.136 -8.192 45.131
v 4.139 -8.193 45.132
v 4.135 -8.192 45.127
v 4.137 -8.191 45.129
v 4.140 -8.192 45.132
v 4.135 -8.193 45.130
v 4.132 -8.192 45.127
v 4.138 -8.193 45.130

# Normal Array
vn 0.844 -0.114 0.524
vn -0.124 -0.193 0.973
vn 0.009 0.095 -0.995
vn -0.971 -0.170 -0.170
vn 0.300 -0.194 0.934
vn 0.704 -0.191 0.684
vn -0.582 -0.196 0.789
vn -0.042 -0.209 0.977
vn 0.001 -0.203 0.979
vn -0.363 -0.246 0.899
vn 0.289 0.192 -0.938
vn 0.001 0.188 -0.982
vn -0.988 -0.156 -0.006
vn 0.037 0.194 -0.980
vn -0.039 0.192 -0.981
vn -0.282 0.203 -0.938
vn -0.021 -0.189 0.982
vn 0.273 -0.202 0.940
vn -0.982 0.187 -0.009
vn 0.000 -0.194 0.981
vn -0.046 -0.191 0.980
vn -0.280 -0.193 0.940
vn 0.708 0.172 -0.684
vn 0.304 0.187 -0.934
vn -0.555 0.214 -0.804
vn -0.016 0.209 -0.978
vn 0.014 0.204 -0.979
vn -0.357 0.253 -0.899
vn -0.011 -0.096 0.995
vn -0.968 0.201 0.147
vn 0.850 0.090 -0.520
vn -0.090 0.197 -0.976
vn -0.612 -0.136 0.779
vn 0.356 -0.308 0.882
vn -0.506 -0.727 -0.465
vn 0.388 -0.817 -0.426
vn -0.737 0.138 0.661
vn -0.735 0.141 0.663
vn 0.725 -0.564 0.396
vn 0.297 -0.408 0.864
vn 0.031 0.012 0.999
vn 0.629 -0.699 0.340
vn -0.817 -0.502 0.283
vn -0.219 -0.866 -0.450
vn -0.818 -0.572 0.063
vn -0.761 -0.446 -0.471
vn -0.876 -0.474 0.088
vn 0.295 -0.870 -0.394
vn 0.329 -0.917 -0.226
vn 0.291 -0.933 -0.212
vn 0.638 -0.696 0.329
vn 0.635 -0.763 0.122
vn -0.703 -0.701 -0.121
vn -0.780 -0.584 -0.227
vn -0.234 -0.944 -0.234
vn -0.373 -0.878 -0.301
vn 0.272 -0.911 -0.311
vn 0.072 -0.907 -0.414
vn 0.534 -0.824 0.188
vn 0.521 -0.853 0.016
vn 0.222 -0.932 -0.287
vn 0.339 -0.932 0.127
vn -0.758 -0.588 -0.282
vn -0.194 -0.661 -0.725
vn -0.257 -0.810 -0.528
vn -0.258 -0.809 -0.528
vn 0.176 -0.807 -0.564
vn 0.022 -0.828 -0.560
vn 0.017 -0.833 -0.554
vn 0.218 -0.825 -0.522
vn 0.202 -0.831 -0.518
vn 0.313 -0.869 -0.384
vn -0.033 -0.594 -0.804
vn -0.099 -0.570 -0.815
vn 0.386 -0.210 0.898
vn 0.619 -0.258 0.742
vn -0.403 -0.268 -0.875
vn 0.102 -0.620 -0.778
vn -0.602 0.177 0.779
vn -0.728 0.086 0.680
vn -0.045 -0.054 0.998
vn -0.076 0.008 0.997
vn 0.467 -0.225 0.855
vn 0.522 -0.134 0.842
vn -0.862 -0.031 0.506
vn -0.920 -0.241 0.310
vn -0.759 0.086 0.645
vn -0.740 -0.005 0.672
vn 0.625 -0.263 0.735
vn 0.676 -0.288 0.678
vn 0.704 -0.244 0.667
vn 0.786 0.026 0.617
vn -0.962 -0.266 0.063
vn -0.949 -0.304 0.081
vn 0.702 -0.581 0.412
vn 0.678 -0.574 0.459
vn 0.702 -0.575 0.420
vn 0.700 -0.241 0.673
vn 0.915 -0.258 0.309
vn 0.833 -0.338 0.438
vn -0.782 -0.416 -0.464
vn -0.890 -0.187 -0.416
vn -0.855 -0.212 -0.473
vn -0.465 -0.443 -0.767
vn 0.190 -0.629 -0.754
vn 0.300 -0.516 -0.803
vn 0.413 -0.492 -0.766
vn 0.312 -0.369 -0.875
vn 0.311 -0.869 -0.384
vn 0.410 -0.487 -0.771
vn 0.316 -0.368 -0.875
vn 0.760 -0.228 -0.608
vn -0.576 0.001 -0.818
vn -0.384 -0.199 -0.901
vn -0.162 -0.212 -0.964
vn -0.177 -0.232 -0.957
vn -0.021 -0.522 -0.852
vn 0.033 -0.191 -0.981
vn 0.061 -0.229 -0.971
vn 0.179 -0.175 -0.968
vn -0.155 0.050 0.987
vn -0.085 0.135 0.987
vn -0.142 0.045 0.989
vn 0.293 0.021 0.956
vn 0.748 -0.481 0.457
vn 0.617 -0.306 0.725
vn 0.573 -0.208 0.793
vn 0.740 -0.517 0.430
vn -0.585 -0.024 -0.811
vn -0.587 0.012 -0.809
vn -0.578 -0.028 -0.816
vn -0.584 -0.026 -0.812
vn -0.585 -0.011 -0.811
vn 0.058 -0.639 -0.767
vn 0.087 -0.661 -0.745
vn -0.003 -0.655 -0.756
vn 0.765 -0.542 0.347
vn 0.754 -0.633 0.176
vn -0.563 -0.004 -0.826
vn -0.294 -0.341 -0.893
vn -0.038 -0.393 -0.919
vn 0.793 -0.607 0.048
vn -0.559 0.259 0.788
vn 0.104 0.184 0.977
vn -0.003 0.299 0.954
vn 0.375 0.131 0.918
vn -0.864 0.035 0.502
vn -0.571 0.317 0.757
vn -0.569 0.316 0.759
vn -0.384 0.384 0.839
vn -0.553 0.498 0.668
vn 0.028 0.484 0.874
vn 0.115 0.505 0.855
vn 0.413 0.220 0.884
vn 0.503 0.193 0.842
vn 0.478 0.159 0.864
vn 0.790 0.007 0.612
vn 0.838 0.219 0.499
vn -0.885 0.236 0.401
vn -0.934 0.094 0.344
vn -0.953 0.070 0.294
vn -0.571 0.306 0.762
vn 0.864 0.375 0.337
vn 0.868 0.363 0.338
vn 0.935 0.289 0.206
vn 0.678 0.461 0.573
vn -0.944 0.151 -0.292
vn -0.983 -0.002 -0.184
vn 0.497 -0.035 -0.867
vn 0.803 0.555 -0.216
vn 0.744 0.265 -0.614
vn 0.595 0.567 -0.570
vn 0.687 0.263 -0.678
vn 0.666 0.555 -0.498
vn -0.674 0.003 -0.739
vn -0.583 -0.076 -0.809
vn -0.245 0.024 -0.969
vn -0.290 0.049 -0.956
vn 0.136 0.051 -0.989
vn -0.006 0.162 -0.987
vn 0.320 0.023 -0.947
vn 0.302 0.257 -0.918
vn 0.389 0.212 -0.897
vn 0.595 0.423 -0.683
vn -0.424 0.476 0.771
vn -0.114 0.543 0.832
vn -0.324 0.635 0.701
vn 0.234 0.185 0.954
vn 0.585 -0.161 0.795
vn 0.459 0.046 0.887
vn 0.659 -0.226 0.717
vn 0.670 -0.142 0.728
vn -0.656 0.163 -0.737
vn -0.658 0.379 -0.651
vn -0.695 0.318 -0.645
vn -0.704 0.337 -0.625
vn -0.658 0.342 -0.671
vn -0.373 0.868 -0.329
vn -0.626 0.645 -0.439
vn 0.572 0.374 0.730
vn 0.796 -0.190 0.575
vn 0.765 -0.251 0.593
vn -0.614 0.277 -0.739
vn -0.499 0.269 -0.824
vn -0.322 0.659 -0.680
vn 0.869 -0.277 0.411
vn -0.347 0.435 0.831
vn 0.113 0.482 0.869
vn 0.062 0.511 0.857
vn 0.423 0.359 0.832
vn 0.208 0.501 0.840
vn 0.625 0.442 0.644
vn -0.885 0.236 0.401
vn -0.512 0.543 0.666
vn -0.434 0.492 0.755
vn -0.264 0.554 0.790
vn -0.374 0.603 0.704
vn 0.038 0.675 0.737
vn 0.036 0.673 0.738
vn 0.506 0.776 0.376
vn 0.399 0.622 0.674
vn 0.310 0.732 0.607
vn 0.744 0.640 0.190
vn 0.573 0.645 0.506
vn -0.727 0.656 0.204
vn -0.948 0.292 0.131
vn -0.973 0.229 -0.033
vn -0.478 0.652 0.589
vn 0.714 0.694 0.090
vn 0.632 0.742 -0.223
vn 0.810 0.545 -0.216
vn 0.728 0.680 0.090
vn -0.840 0.391 -0.376
vn -0.648 0.160 -0.745
vn -0.274 0.269 -0.923
vn -0.311 0.295 -0.904
vn 0.045 0.423 -0.905
vn 0.050 0.419 -0.907
vn 0.645 0.516 -0.564
vn 0.381 0.526 -0.760
vn 0.337 0.456 -0.823
vn 0.616 0.554 -0.560
vn -0.359 0.730 0.581
vn 0.452 0.105 0.886
vn 0.123 0.501 0.856
vn 0.616 -0.019 0.788
vn -0.705 0.594 -0.387
vn -0.627 0.678 -0.383
vn -0.053 0.848 0.528
vn 0.537 0.369 0.759
vn -0.177 0.789 0.589
vn 0.008 0.764 0.645
vn -0.136 0.805 0.578
vn 0.364 0.864 0.348
vn -0.609 0.788 -0.093
vn -0.202 0.797 0.569
vn -0.199 0.974 0.105
vn -0.102 0.995 -0.009
vn 0.041 0.996 0.080
vn 0.010 1.000 0.006
vn 0.451 0.864 -0.223
vn 0.319 0.946 0.051
vn -0.626 0.733 -0.265
vn -0.288 0.694 -0.660
vn -0.171 0.757 -0.631
vn 0.066 0.627 -0.776
vn 0.259 0.754 -0.604
vn 0.278 0.747 -0.603
vn -0.513 0.634 0.579
vn 0.240 0.970 -0.043
vn -0.456 0.820 0.347
vn 0.525 0.730 -0.437
vn 0.045 0.926 0.374
vn 0.232 0.860 0.455
vn 0.647 0.339 -0.683
vn 0.066 0.983 0.173
vn 0.504 0.856 -0.115
vn 0.677 0.529 -0.511
vn -0.223 0.061 0.973
vn 0.019 0.985 0.170
vn -0.477 -0.790 0.385
vn -0.331 -0.867 -0.372
vn -0.234 -0.953 -0.190
vn -0.954 -0.233 0.188
vn 0.209 -0.892 -0.400
vn -0.224 -0.923 0.314
vn 0.732 -0.142 -0.667
vn -0.021 -0.977 -0.211
vn 0.270 -0.725 -0.634
vn -0.019 -0.985 -0.169
vn 0.550 -0.558 -0.621
vn 0.590 -0.353 -0.726

# Facets
f 1//1 3//1 2//1
f 2//2 4//2 1//2
f 1//3 5//3 3//3
f 4//4 5//4 1//4
f 2//5 7//5 6//5
f 3//6 7//6 2//6
f 4//7 9//7 8//7
f 4//8 2//8 9//8
f 2//9 6//9 9//9
f 9//10 10//10 8//10
f 3//11 11//11 7//11
f 5//12 11//12 3//12
f 8//13 5//13 4//13
f 8//14 12//14 5//14
f 12//15 11//15 5//15
f 10//16 12//16 8//16
f 6//17 14//17 13//17
f 7//18 14//18 6//18
f 15//19 13//19 16//19
f 15//20 9//20 13//20
f 9//21 6//21 13//21
f 9//22 15//22 10//22
f 7//23 17//23 14//23
f 11//24 17//24 7//24
f 16//25 12//25 15//25
f 16//26 17//26 12//26
f 17//27 11//27 12//27
f 10//28 15//28 12//28
f 13//29 14//29 18//29
f 13//30 18//30 16//30
f 14//31 17//31 18//31
f 16//32 18//32 17//32
f 19//33 21//33 20//33
f 22//34 20//34 21//34
f 23//35 21//35 19//35
f 23//36 22//36 21//36
f 24//37 20//37 25//37
f 24//38 19//38 20//38
f 26//39 22//39 27//39
f 20//40 22//40 26//40
f 25//41 20//41 26//41
f 28//42 26//42 27//42
f 29//43 31//43 30//43
f 32//44 23//44 31//44
f 31//45 23//45 24//45
f 24//46 23//46 19//46
f 24//47 30//47 31//47
f 22//48 23//48 27//48
f 27//49 23//49 32//49
f 27//50 32//50 33//50
f 27//51 34//51 28//51
f 27//52 33//52 34//52
f 29//53 35//53 31//53
f 29//54 36//54 35//54
f 37//55 32//55 31//55
f 35//56 37//56 31//56
f 38//57 33//57 32//57
f 37//58 38//58 32//58
f 33//59 39//59 34//59
f 40//60 39//60 33//60
f 38//61 40//61 33//61
f 41//62 39//62 40//62
f 42//63 35//63 36//63
f 43//64 42//64 44//64
f 35//65 42//65 43//65
f 37//66 35//66 43//66
f 38//67 46//67 45//67
f 43//68 46//68 38//68
f 37//69 43//69 38//69
f 45//70 40//70 38//70
f 45//71 47//71 40//71
f 47//72 41//72 40//72
f 48//73 43//73 44//73
f 48//74 46//74 43//74
f 49//75 51//75 50//75
f 52//76 50//76 51//76
f 53//77 51//77 49//77
f 53//78 52//78 51//78
f 54//79 25//79 55//79
f 54//80 24//80 25//80
f 25//81 26//81 56//81
f 55//82 25//82 56//82
f 28//83 56//83 26//83
f 28//84 57//84 56//84
f 58//85 30//85 59//85
f 58//86 29//86 30//86
f 24//87 54//87 30//87
f 54//88 59//88 30//88
f 60//89 61//89 34//89
f 34//90 61//90 57//90
f 34//91 57//91 28//91
f 62//92 61//92 60//92
f 36//93 29//93 58//93
f 36//94 58//94 63//94
f 60//95 34//95 39//95
f 64//96 41//96 65//96
f 64//97 39//97 41//97
f 62//98 39//98 64//98
f 60//99 39//99 62//99
f 66//100 64//100 65//100
f 36//101 67//101 42//101
f 68//102 67//102 36//102
f 63//103 68//103 36//103
f 44//104 42//104 67//104
f 69//105 45//105 46//105
f 69//106 70//106 45//106
f 45//107 70//107 71//107
f 45//108 71//108 47//108
f 47//109 65//109 41//109
f 72//110 65//110 47//110
f 71//111 72//111 47//111
f 72//112 66//112 65//112
f 73//113 67//113 68//113
f 73//114 44//114 67//114
f 48//115 44//115 73//115
f 74//116 48//116 73//116
f 48//117 69//117 46//117
f 75//118 69//118 48//118
f 74//119 75//119 48//119
f 75//120 70//120 69//120
f 76//121 78//121 77//121
f 50//122 78//122 49//122
f 77//123 78//123 50//123
f 79//124 77//124 50//124
f 80//125 52//125 81//125
f 50//126 52//126 80//126
f 79//127 50//127 80//127
f 82//128 80//128 81//128
f 83//129 78//129 76//129
f 84//130 85//130 83//130
f 85//131 53//131 83//131
f 83//132 53//132 78//132
f 78//133 53//133 49//133
f 52//134 53//134 81//134
f 81//135 53//135 85//135
f 81//136 85//136 86//136
f 81//137 87//137 82//137
f 81//138 86//138 87//138
f 88//139 85//139 84//139
f 88//140 86//140 85//140
f 88//141 89//141 86//141
f 89//142 87//142 86//142
f 54//143 55//143 90//143
f 91//144 55//144 56//144
f 91//145 90//145 55//145
f 91//146 56//146 57//146
f 58//147 59//147 92//147
f 92//148 59//148 93//148
f 59//149 54//149 93//149
f 93//150 54//150 94//150
f 94//151 54//151 90//151
f 90//152 91//152 94//152
f 91//153 95//153 94//153
f 91//154 57//154 95//154
f 95//155 57//155 61//155
f 95//156 61//156 96//156
f 62//157 96//157 61//157
f 62//158 97//158 96//158
f 98//159 92//159 99//159
f 58//160 92//160 98//160
f 63//161 58//161 98//161
f 92//162 93//162 99//162
f 64//163 100//163 62//163
f 62//164 100//164 101//164
f 62//165 101//165 97//165
f 100//166 64//166 66//166
f 68//167 63//167 98//167
f 68//168 98//168 102//168
f 103//169 71//169 70//169
f 101//170 100//170 104//170
f 104//171 100//171 71//171
f 71//172 100//172 72//172
f 71//173 103//173 104//173
f 100//174 66//174 72//174
f 105//175 68//175 102//175
f 105//176 73//176 68//176
f 106//177 74//177 73//177
f 106//178 73//178 105//178
f 107//179 75//179 74//179
f 107//180 74//180 106//180
f 75//181 103//181 70//181
f 108//182 103//182 75//182
f 107//183 108//183 75//183
f 108//184 104//184 103//184
f 76//185 77//185 109//185
f 77//186 110//186 109//186
f 111//187 110//187 77//187
f 79//188 111//188 77//188
f 79//189 80//189 112//189
f 111//190 79//190 112//190
f 82//191 112//191 80//191
f 82//192 113//192 112//192
f 83//193 76//193 109//193
f 114//194 84//194 115//194
f 84//195 83//195 115//195
f 115//196 83//196 110//196
f 110//197 83//197 109//197
f 116//198 114//198 117//198
f 114//199 115//199 117//199
f 113//200 116//200 117//200
f 87//201 116//201 113//201
f 82//202 87//202 113//202
f 88//203 84//203 114//203
f 114//204 89//204 88//204
f 114//205 116//205 89//205
f 116//206 87//206 89//206
f 93//207 94//207 118//207
f 119//208 94//208 95//208
f 119//209 118//209 94//209
f 120//210 95//210 96//210
f 120//211 119//211 95//211
f 120//212 96//212 97//212
f 98//213 99//213 121//213
f 121//214 99//214 122//214
f 99//215 93//215 122//215
f 122//216 93//216 123//216
f 123//217 93//217 118//217
f 118//218 119//218 123//218
f 119//219 124//219 123//219
f 125//220 124//220 126//220
f 126//221 124//221 119//221
f 126//222 119//222 120//222
f 126//223 97//223 101//223
f 126//224 120//224 97//224
f 127//225 121//225 128//225
f 98//226 121//226 127//226
f 102//227 98//227 127//227
f 121//228 122//228 128//228
f 126//229 129//229 125//229
f 129//230 130//230 125//230
f 129//231 101//231 104//231
f 129//232 126//232 101//232
f 131//233 102//233 127//233
f 131//234 105//234 102//234
f 132//235 106//235 105//235
f 132//236 105//236 131//236
f 133//237 107//237 106//237
f 133//238 106//238 132//238
f 108//239 130//239 129//239
f 133//240 130//240 108//240
f 107//241 133//241 108//241
f 129//242 104//242 108//242
f 110//243 111//243 134//243
f 135//244 111//244 112//244
f 135//245 134//245 111//245
f 135//246 112//246 113//246
f 115//247 110//247 134//247
f 134//248 117//248 115//248
f 134//249 135//249 117//249
f 135//250 113//250 117//250
f 122//251 123//251 136//251
f 137//252 123//252 124//252
f 137//253 136//253 123//253
f 137//254 124//254 125//254
f 127//255 128//255 138//255
f 136//256 128//256 122//256
f 138//257 128//257 136//257
f 139//258 138//258 136//258
f 136//259 137//259 140//259
f 136//260 140//260 139//260
f 140//261 125//261 130//261
f 140//262 137//262 125//262
f 131//263 127//263 138//263
f 138//264 132//264 131//264
f 138//265 139//265 132//265
f 139//266 133//266 132//266
f 139//267 140//267 133//267
f 140//268 130//268 133//268
f 141//269 143//269 142//269
f 144//270 143//270 145//270
f 144//271 142//271 143//271
f 146//272 144//272 145//272
f 141//273 147//273 143//273
f 141//274 148//274 147//274
f 145//275 150//275 149//275
f 147//276 150//276 145//276
f 143//277 147//277 145//277
f 149//278 146//278 145//278
f 151//279 147//279 148//279
f 151//280 150//280 147//280
f 141//281 142//281 152//281
f 153//282 142//282 144//282
f 153//283 152//283 142//283
f 153//284 144//284 146//284
f 148//285 152//285 154//285
f 148//286 141//286 152//286
f 154//287 149//287 150//287
f 153//288 149//288 154//288
f 152//289 153//289 154//289
f 153//290 146//290 149//290
f 151//291 148//291 154//291
f 154//292 150//292 151//292

# Thankyou for using Spin3D

