# Created using Spin3D

# Vertex Array
v 8.989 -2.872 -66.845
v 8.992 -2.876 -66.840
v 8.995 -2.881 -66.836
v 8.971 -2.848 -66.870
v 8.951 -2.813 -66.903
v 8.946 -2.804 -66.905
v 8.960 -2.830 -66.882
v 8.933 -2.789 -66.924
v 8.856 -2.668 -67.037
v 8.881 -2.708 -66.998
v 8.888 -2.716 -66.991
v 8.888 -2.716 -66.994
v 8.916 -2.762 -66.952
v 8.856 -2.667 -67.038
v 8.870 -2.689 -67.018
v 8.909 -2.750 -66.957
v 8.862 -2.678 -67.027
v 8.891 -2.722 -66.986
v 7.773 0.163 30.947
v 7.769 0.164 30.944
v 7.769 0.162 30.946
v 7.765 0.164 30.943
v 7.764 0.162 30.945
v 7.764 0.164 30.944
v 7.773 0.161 30.950
v 7.773 0.162 30.951
v 7.768 0.162 30.949
v 7.764 0.163 30.948
v 7.772 0.163 30.952
v 7.768 0.162 30.952
v 7.770 0.165 30.948
v 7.766 0.166 30.943
v 7.771 0.164 30.953
v 7.767 0.165 30.948
v 10.101 25.901 -60.688
v 10.100 25.901 -60.690
v 10.099 25.901 -60.688
v 10.097 25.901 -60.689
v 10.099 25.901 -60.686
v 10.101 25.903 -60.688
v 10.099 25.903 -60.690
v 10.097 25.903 -60.688
v 10.100 25.902 -60.686
v 10.099 25.903 -60.688

# Normal Array
vn -0.816 -0.567 -0.116
vn 0.892 0.366 -0.265
vn -0.097 0.663 0.742
vn -0.182 0.625 0.759
vn 0.184 -0.596 -0.781
vn -0.715 -0.663 -0.223
vn 0.891 0.371 -0.260
vn 0.879 0.461 -0.124
vn -0.320 -0.761 -0.564
vn -0.899 -0.382 0.215
vn -0.872 -0.483 0.085
vn -0.872 -0.479 0.100
vn -0.291 -0.755 -0.587
vn -0.620 0.280 0.733
vn 0.060 0.711 0.701
vn 0.702 0.673 0.231
vn -0.062 -0.716 -0.695
vn -0.898 -0.383 0.215
vn -0.394 0.469 0.791
vn -0.360 0.493 0.792
vn 0.417 -0.465 -0.781
vn 0.905 0.312 -0.288
vn -0.436 -0.757 -0.487
vn 0.279 -0.559 -0.781
vn 0.763 0.630 0.142
vn 0.844 0.536 -0.010
vn 0.805 0.587 0.087
vn 0.897 0.410 -0.168
vn 0.004 0.725 0.688
vn 0.544 0.726 0.420
vn 0.599 0.717 0.356
vn 0.777 0.614 0.138
vn 0.414 -0.769 -0.487
vn 0.087 -0.708 -0.701
vn -0.048 -0.797 -0.602
vn -0.624 -0.179 -0.761
vn 0.426 -0.631 -0.649
vn 0.972 0.233 -0.032
vn 0.021 -0.987 -0.159
vn -0.049 -0.985 -0.165
vn -0.966 0.235 0.109
vn -0.447 -0.795 0.410
vn 0.597 -0.459 0.658
vn -0.104 -0.895 0.434
vn 0.022 -0.948 0.317
vn -0.438 -0.872 0.218
vn 0.375 0.882 -0.285
vn 0.068 -0.113 -0.991
vn 0.558 0.769 -0.313
vn -0.703 0.401 -0.588
vn 0.582 0.812 0.046
vn 0.478 0.860 0.177
vn 0.019 0.981 0.193
vn 0.014 0.992 0.129
vn -0.455 0.884 0.109
vn -0.559 0.801 0.216
vn 0.704 0.186 0.686
vn -0.077 -0.392 0.917
vn -0.531 0.647 0.547
vn -0.350 0.754 0.556
vn 0.212 -0.934 -0.288
vn -0.160 -0.912 -0.378
vn 0.128 -0.988 0.082
vn -0.251 -0.968 -0.014
vn 0.505 0.425 -0.751
vn 0.820 -0.181 -0.543
vn -0.517 -0.132 -0.846
vn -0.804 0.352 -0.479
vn 0.808 0.186 0.559
vn 0.494 -0.405 0.769
vn -0.841 -0.321 0.437
vn -0.499 0.208 0.841
vn 0.163 0.978 -0.131
vn -0.261 0.964 -0.044
vn 0.264 0.906 0.330
vn -0.163 0.884 0.438

# Facets
f 1//1 3//1 2//1
f 4//2 2//2 3//2
f 5//3 3//3 1//3
f 5//4 4//4 3//4
f 6//5 2//5 7//5
f 6//6 1//6 2//6
f 4//7 7//7 2//7
f 4//8 8//8 7//8
f 9//9 11//9 10//9
f 12//10 5//10 11//10
f 11//11 5//11 6//11
f 6//12 5//12 1//12
f 6//13 10//13 11//13
f 13//14 5//14 12//14
f 4//15 5//15 13//15
f 8//16 4//16 13//16
f 14//17 11//17 9//17
f 14//18 12//18 11//18
f 14//19 15//19 12//19
f 15//20 13//20 12//20
f 6//21 7//21 16//21
f 16//22 7//22 8//22
f 9//23 10//23 17//23
f 16//24 10//24 6//24
f 17//25 10//25 16//25
f 18//26 17//26 16//26
f 18//27 8//27 13//27
f 18//28 16//28 8//28
f 14//29 9//29 17//29
f 17//30 15//30 14//30
f 17//31 18//31 15//31
f 18//32 13//32 15//32
f 19//33 21//33 20//33
f 22//34 21//34 23//34
f 22//35 20//35 21//35
f 24//36 22//36 23//36
f 19//37 25//37 21//37
f 19//38 26//38 25//38
f 27//39 23//39 21//39
f 25//40 27//40 21//40
f 23//41 28//41 24//41
f 23//42 27//42 28//42
f 29//43 25//43 26//43
f 29//44 27//44 25//44
f 29//45 30//45 27//45
f 30//46 28//46 27//46
f 19//47 20//47 31//47
f 32//48 20//48 22//48
f 32//49 31//49 20//49
f 32//50 22//50 24//50
f 26//51 31//51 33//51
f 26//52 19//52 31//52
f 31//53 32//53 34//53
f 31//54 34//54 33//54
f 34//55 24//55 28//55
f 34//56 32//56 24//56
f 29//57 26//57 33//57
f 33//58 30//58 29//58
f 33//59 34//59 30//59
f 34//60 28//60 30//60
f 35//61 37//61 36//61
f 38//62 36//62 37//62
f 39//63 37//63 35//63
f 39//64 38//64 37//64
f 40//65 36//65 41//65
f 40//66 35//66 36//66
f 38//67 41//67 36//67
f 38//68 42//68 41//68
f 43//69 35//69 40//69
f 43//70 39//70 35//70
f 39//71 42//71 38//71
f 39//72 43//72 42//72
f 40//73 41//73 44//73
f 44//74 41//74 42//74
f 43//75 40//75 44//75
f 44//76 42//76 43//76

# Thankyou for using Spin3D

