# Created using Spin3D

# Vertex Array
v 19.140 -46.949 20.169
v 19.136 -46.949 20.165
v 19.136 -46.951 20.167
v 19.133 -46.949 20.165
v 19.131 -46.951 20.167
v 19.131 -46.949 20.166
v -4.431 -46.179 17.518
v -4.431 -46.180 17.519
v -4.432 -46.180 17.522
v -4.431 -46.180 17.523
v -4.434 -46.179 17.524
v -4.435 -46.181 17.527
v 19.141 -46.951 20.171
v 19.140 -46.950 20.172
v 19.136 -46.951 20.171
v 19.132 -46.949 20.170
v -4.434 -46.180 17.522
v -4.437 -46.180 17.525
v -4.436 -46.181 17.524
v -4.438 -46.180 17.527
v 19.139 -46.950 20.174
v 19.135 -46.950 20.173
v -4.440 -46.181 17.527
v 19.138 -46.948 20.170
v 19.134 -46.947 20.165
v -4.433 -46.180 17.521
v -4.433 -46.181 17.524
v 19.138 -46.949 20.174
v 19.134 -46.948 20.170
v -4.436 -46.181 17.526
v -38.632 -35.299 54.886
v -38.059 -35.205 55.484
v -38.259 -35.174 54.667
v -37.762 -35.056 55.275
v -40.913 -34.868 51.960
v -40.395 -34.976 52.973
v -40.289 -35.068 52.610
v -39.451 -35.174 54.155
v -39.236 -35.178 53.598
v -38.834 -34.908 53.118
v -37.999 -34.868 54.321
v -40.915 -34.823 51.326
v -41.243 -34.529 50.894
v -40.170 -34.800 51.442
v -38.563 -34.544 52.916
v -39.501 -34.514 51.440
v -41.117 -34.501 50.215
v -41.402 -34.132 49.775
v -40.306 -34.434 50.224
v -40.803 -34.435 49.860
v -41.193 -34.146 49.329
v -28.696 -33.739 65.525
v -28.823 -33.712 65.400
v -28.813 -33.714 65.409
v -28.712 -33.737 65.507
v -29.816 -33.480 64.444
v -29.662 -33.519 64.592
v -29.764 -33.496 64.494
v -28.828 -33.710 65.393
v -29.674 -33.514 64.577
v -33.443 -34.492 59.893
v -33.442 -34.492 59.894
v -33.442 -34.493 59.892
v -29.788 -33.488 64.469
v -33.441 -34.492 59.893
v -38.996 -35.016 54.801
v -38.287 -35.008 55.396
v -38.606 -35.225 55.245
v -37.796 -34.993 55.559
v -37.803 -34.775 54.945
v -33.442 -34.492 59.891
v -40.765 -34.613 52.109
v -39.842 -34.806 53.609
v -38.075 -34.552 53.959
v -41.082 -34.158 50.794
v -38.632 -34.293 52.948
v -39.359 -34.188 51.551
v -41.270 -33.868 49.750
v -40.750 -34.195 49.464
v -40.187 -34.150 50.145
v -41.319 -33.881 49.236
v -40.890 -33.929 49.363
v -29.224 -33.621 65.013
v -29.115 -33.652 65.117
v -29.495 -33.563 64.751
v -28.847 -33.712 65.377
v -28.853 -33.710 65.370
v -29.610 -33.538 64.639
v -29.138 -33.643 65.090
v -29.538 -33.549 64.705
v -33.442 -34.491 59.893
v -29.700 -33.513 64.552
v -38.935 -34.629 54.297
v -38.086 -34.756 55.109
v -40.062 -34.289 52.441
v -39.190 -34.277 53.316
v -38.454 -34.422 53.972
v -40.639 -33.900 50.676
v -39.482 -34.084 52.150
v -41.011 -33.778 49.586
v -40.295 -33.902 50.357
v 43.577 -15.926 -25.072
v 43.660 -16.185 -24.463
v 44.047 -16.415 -25.286
v 44.148 -16.263 -24.595
v 44.617 -16.360 -25.481
v 44.788 -15.922 -24.999
v 44.033 -16.265 -25.871
v 44.611 -16.304 -26.128
v 44.397 -16.022 -26.392
v 45.329 -15.965 -26.226
v 45.137 -15.771 -26.740
v -29.365 -33.599 64.872
v -29.094 -33.660 65.133
v -29.435 -33.580 64.803
v 43.366 -15.643 -24.022
v 43.483 -15.298 -23.435
v 43.713 -15.852 -23.816
v 43.909 -15.258 -23.455
v 44.223 -15.785 -24.042
v 44.563 -15.130 -24.170
v 43.312 -15.232 -24.480
v 45.403 -15.343 -25.712
v 43.919 -15.824 -25.954
v 43.657 -15.109 -25.424
v 45.835 -15.676 -26.928
v 45.945 -15.598 -26.691
v 46.079 -15.488 -27.011
v 44.420 -15.350 -26.391
v 45.080 -15.280 -26.787
v 45.630 -15.292 -26.854
v 43.341 -14.916 -23.746
v 43.651 -14.719 -23.303
v 43.948 -14.315 -23.477
v 44.072 -14.688 -23.397
v 43.455 -14.573 -24.508
v 44.344 -14.444 -23.820
v 44.817 -14.587 -24.819
v 44.092 -14.668 -25.905
v 43.741 -14.404 -25.265
v 44.174 -14.277 -25.568
v 45.907 -15.305 -26.646
v 45.332 -14.848 -26.047
v 44.803 -14.758 -26.279
v 43.653 -14.319 -23.821
v 43.889 -14.147 -24.732
v 44.193 -14.166 -24.198
v 44.564 -14.292 -25.296
v -41.835 -6.286 18.816
v -41.834 -6.286 18.817
v -41.834 -6.287 18.816
v -41.833 -6.286 18.816
v -41.834 -6.286 18.815
v -41.834 -6.285 18.816
v 53.036 1.230 -8.817
v 53.035 1.241 -8.609
v 53.162 1.152 -8.860
v 53.144 1.199 -8.624
v 53.275 1.113 -8.910
v 53.259 1.171 -8.810
v 53.178 1.163 -9.167
v 53.021 1.281 -8.991
v 53.322 1.086 -9.230
v 53.361 1.098 -9.147
v 53.191 1.210 -9.365
v 53.348 1.103 -9.543
v 53.347 1.141 -9.628
v 53.412 1.083 -9.496
v 53.427 1.087 -9.707
v 52.958 1.318 -8.665
v 53.023 1.302 -8.506
v 53.071 1.326 -8.568
v 53.134 1.260 -8.550
v 52.955 1.362 -8.842
v 53.188 1.260 -8.731
v 53.310 1.178 -9.163
v 53.049 1.317 -9.113
v 53.387 1.129 -9.579
v 53.210 1.244 -9.298
v 52.984 1.364 -8.659
v 53.028 1.355 -8.944
v 53.121 1.313 -8.864
v -18.063 70.866 1.266
v -18.065 70.866 1.267
v -18.066 70.870 1.266
v -18.069 70.870 1.268
v -18.070 70.870 1.266
v -18.072 70.869 1.266
v -18.067 70.868 1.264
v -18.072 70.868 1.264
v -18.063 70.863 1.265
v -18.065 70.861 1.266
v -18.069 70.866 1.267
v -18.071 70.865 1.265
v -18.062 70.864 1.263
v -18.067 70.864 1.264
v -18.064 70.861 1.265
v -18.068 70.862 1.265

# Normal Array
vn 0.421 -0.762 -0.492
vn 0.070 -0.718 -0.693
vn -0.035 -0.787 -0.615
vn -0.623 -0.191 -0.759
vn 0.953 0.158 0.259
vn 0.265 0.951 0.159
vn 0.359 0.932 -0.053
vn 0.478 0.609 0.633
vn 0.435 -0.621 -0.652
vn 0.966 0.257 -0.017
vn -0.002 -0.989 -0.146
vn -0.046 -0.988 -0.148
vn -0.960 0.256 0.118
vn -0.449 -0.795 0.408
vn 0.027 0.987 0.158
vn -0.726 0.319 -0.609
vn 0.031 0.992 0.120
vn -0.254 0.888 -0.384
vn 0.228 0.760 0.608
vn -0.187 0.981 -0.051
vn 0.596 -0.456 0.661
vn -0.100 -0.895 0.434
vn 0.015 -0.944 0.330
vn -0.440 -0.871 0.217
vn -0.603 0.523 -0.603
vn -0.555 0.734 -0.391
vn 0.376 0.886 -0.270
vn 0.075 -0.048 -0.996
vn 0.539 0.788 -0.297
vn -0.703 0.452 -0.549
vn -0.516 -0.554 -0.654
vn 0.444 -0.894 0.058
vn -0.258 -0.892 -0.370
vn 0.501 -0.788 0.358
vn 0.586 0.809 0.040
vn 0.476 0.861 0.180
vn 0.038 0.983 0.180
vn 0.035 0.992 0.120
vn -0.468 0.878 0.099
vn -0.572 0.794 0.208
vn -0.676 -0.322 -0.663
vn -0.646 -0.097 -0.757
vn -0.077 -0.984 -0.159
vn -0.524 -0.752 -0.399
vn -0.233 -0.964 0.128
vn -0.080 -0.996 0.044
vn 0.709 0.174 0.684
vn -0.077 -0.399 0.914
vn -0.512 0.663 0.546
vn -0.361 0.751 0.553
vn -0.013 -0.986 -0.164
vn 0.219 -0.373 0.902
vn 0.262 -0.960 -0.099
vn 0.371 -0.920 -0.125
vn -0.408 -0.906 0.112
vn -0.081 -0.996 -0.024
vn -0.359 -0.924 0.131
vn -0.118 -0.992 -0.038
vn 0.209 -0.959 -0.189
vn 0.295 -0.917 -0.267
vn 0.543 -0.787 -0.291
vn 0.509 -0.797 -0.326
vn -0.241 -0.968 -0.067
vn -0.627 -0.777 -0.053
vn 0.099 -0.972 -0.213
vn 0.064 -0.974 -0.217
vn 0.612 -0.680 -0.403
vn 0.369 -0.861 -0.349
vn 0.279 -0.918 -0.281
vn 0.613 -0.680 -0.402
vn -0.556 -0.820 -0.137
vn -0.682 -0.715 -0.156
vn 0.225 -0.926 -0.304
vn -0.035 -0.977 -0.212
vn 0.074 -0.954 -0.291
vn 0.375 -0.875 -0.305
vn -0.592 -0.764 -0.256
vn -0.204 -0.915 -0.349
vn -0.419 0.700 0.579
vn -0.532 -0.758 0.377
vn -0.645 0.222 0.731
vn 0.069 0.987 0.149
vn -0.274 0.819 0.504
vn 0.602 0.652 -0.460
vn -0.550 -0.687 0.475
vn -0.320 -0.947 0.010
vn 0.549 -0.688 0.476
vn 0.687 0.347 -0.639
vn -0.596 0.385 0.705
vn -0.053 -0.977 0.205
vn -0.399 -0.051 0.915
vn -0.316 0.059 0.947
vn 0.565 -0.789 0.243
vn 0.973 0.222 0.067
vn -0.569 -0.501 -0.652
vn 0.568 -0.501 -0.653
vn -0.725 0.466 0.506
vn -0.856 0.229 0.463
vn -0.780 -0.190 0.596
vn -0.816 -0.009 0.578
vn -0.765 0.126 0.632
vn -0.330 -0.919 0.213
vn 0.945 -0.180 -0.271
vn 0.953 -0.099 -0.286
vn -0.881 0.299 0.367
vn -0.819 0.452 0.354
vn 0.858 0.291 -0.424
vn 0.828 -0.182 -0.530
vn 0.873 -0.262 -0.411
vn 0.867 0.291 -0.404
vn -0.850 0.446 0.279
vn -0.847 0.452 0.278
vn 0.335 -0.825 -0.455
vn 0.704 -0.448 -0.551
vn 0.731 -0.449 -0.513
vn 0.842 -0.198 -0.501
vn -0.888 0.453 0.074
vn -0.788 -0.502 -0.356
vn 0.059 -0.857 -0.511
vn 0.262 -0.219 -0.940
vn 0.255 -0.210 -0.944
vn 0.756 0.158 -0.635
vn -0.698 -0.048 0.714
vn -0.524 0.530 0.667
vn -0.703 -0.102 0.704
vn -0.698 -0.020 0.716
vn -0.698 -0.026 0.716
vn 0.418 -0.710 -0.567
vn -0.700 -0.082 0.709
vn -0.672 0.110 0.733
vn -0.663 -0.490 0.567
vn 0.560 0.717 -0.415
vn 0.175 0.983 0.049
vn 0.506 0.797 -0.331
vn -0.350 0.759 0.549
vn 0.613 0.628 -0.480
vn 0.672 -0.172 -0.720
vn 0.676 -0.143 -0.723
vn -0.563 0.447 0.695
vn -0.073 -0.976 -0.206
vn 0.038 -0.946 -0.321
vn 0.562 0.447 0.696
vn 0.694 0.285 -0.661
vn 0.687 0.005 -0.726
vn -0.439 0.738 0.513
vn -0.210 0.802 0.559
vn -0.337 0.811 0.478
vn -0.584 0.660 -0.471
vn 0.250 0.913 0.321
vn 0.583 0.661 -0.472
vn -0.536 0.730 0.424
vn -0.507 0.712 0.485
vn -0.475 0.768 0.429
vn -0.413 0.818 0.400
vn -0.177 0.928 0.329
vn -0.147 0.918 0.367
vn 0.325 0.938 0.123
vn 0.193 0.957 0.218
vn -0.412 0.852 0.323
vn -0.531 0.754 0.388
vn -0.228 0.950 0.214
vn -0.196 0.942 0.272
vn 0.322 0.942 -0.096
vn 0.151 0.984 0.097
vn 0.063 0.987 0.148
vn 0.325 0.944 0.062
vn -0.219 0.959 0.182
vn -0.416 0.854 0.313
vn 0.069 0.995 0.070
vn 0.082 0.993 0.084
vn 0.680 0.625 -0.384
vn 0.383 0.920 -0.080
vn -0.325 0.946 0.006
vn 0.230 0.859 -0.457
vn 0.471 0.827 -0.305
vn 0.655 0.635 -0.409
vn -0.747 -0.642 -0.172
vn 0.157 -0.969 0.189
vn -0.094 -0.969 0.226
vn 0.615 -0.679 0.400
vn -0.745 -0.650 -0.149
vn -0.305 -0.764 -0.569
vn -0.172 -0.955 -0.240
vn 0.066 -0.994 -0.087
vn 0.698 -0.635 0.330
vn 0.417 -0.905 -0.082
vn -0.084 -0.714 -0.695
vn 0.334 -0.833 -0.440
vn -0.658 -0.500 0.563
vn -0.579 -0.687 0.439
vn -0.580 -0.684 0.443
vn 0.389 -0.738 -0.551
vn 0.325 -0.775 -0.542
vn -0.649 -0.533 0.543
vn 0.704 0.147 -0.695
vn 0.694 -0.006 -0.720
vn 0.588 -0.397 -0.705
vn 0.706 0.059 -0.706
vn 0.572 -0.408 -0.712
vn 0.680 -0.048 -0.731
vn -0.644 -0.597 0.479
vn 0.394 -0.569 0.722
vn 0.089 -0.539 0.838
vn 0.736 -0.258 0.626
vn -0.635 -0.665 0.394
vn -0.898 -0.435 -0.063
vn -0.957 -0.262 -0.122
vn -0.018 -0.888 0.459
vn 0.354 -0.731 0.583
vn 0.626 -0.630 0.459
vn 0.798 -0.312 0.515
vn 0.827 -0.276 0.489
vn -0.878 -0.298 -0.375
vn -0.928 -0.067 -0.367
vn -0.935 -0.059 -0.349
vn -0.709 -0.304 -0.636
vn 0.530 -0.848 0.033
vn 0.691 -0.507 0.515
vn 0.828 -0.412 0.380
vn 0.606 -0.795 -0.020
vn -0.745 0.199 -0.637
vn -0.670 0.024 -0.742
vn -0.430 0.016 -0.903
vn -0.499 -0.141 -0.855
vn 0.028 -0.931 -0.363
vn -0.266 0.044 -0.963
vn -0.122 -0.110 -0.986
vn -0.327 0.008 -0.945
vn -0.838 0.122 0.532
vn -0.954 -0.135 0.269
vn 0.193 0.266 0.945
vn 0.228 -0.161 0.960
vn 0.067 -0.241 0.968
vn 0.735 -0.272 0.622
vn -0.996 -0.059 0.065
vn -0.976 0.209 -0.051
vn 0.675 0.361 0.643
vn 0.843 -0.006 0.539
vn 0.905 0.075 0.418
vn 0.878 0.138 0.459
vn -0.815 0.219 -0.537
vn -0.932 0.182 -0.312
vn -0.930 0.188 -0.315
vn -0.569 0.602 -0.560
vn 0.878 0.039 0.476
vn 0.793 0.415 0.446
vn 0.893 0.333 0.304
vn 0.913 0.055 0.404
vn -0.773 0.077 -0.629
vn -0.283 0.660 -0.696
vn -0.384 0.406 -0.829
vn -0.492 0.459 -0.740
vn 0.316 0.876 -0.365
vn 0.311 0.877 -0.367
vn -0.075 0.675 -0.734
vn 0.283 0.905 -0.318
vn -0.809 0.467 0.358
vn -0.584 0.643 0.495
vn -0.714 0.699 -0.054
vn -0.880 0.469 0.079
vn 0.547 0.764 0.343
vn -0.177 0.974 0.141
vn -0.181 0.974 0.136
vn 0.691 0.686 0.228
vn -0.727 0.675 -0.124
vn -0.448 0.847 -0.284
vn 0.117 0.987 -0.113
vn 0.162 0.985 -0.058
vn 0.655 0.747 0.116
vn 0.640 0.757 0.130
vn 0.281 0.892 -0.355
vn 0.304 0.887 -0.347
vn -0.598 -0.636 0.488
vn 0.584 -0.684 0.437
vn -0.580 -0.420 -0.698
vn 0.573 -0.481 -0.664
vn -0.574 0.485 0.660
vn 0.619 0.465 0.633
vn -0.553 0.665 -0.501
vn 0.603 0.637 -0.480
vn -0.520 -0.853 0.038
vn -0.256 -0.951 0.171
vn -0.332 -0.929 0.161
vn 0.613 -0.635 0.471
vn -0.543 -0.838 -0.058
vn -0.692 -0.707 -0.143
vn -0.316 -0.948 0.032
vn -0.488 -0.871 -0.056
vn 0.876 -0.343 0.339
vn 0.103 -0.990 0.098
vn -0.724 -0.659 -0.204
vn -0.731 -0.627 -0.270
vn -0.700 -0.683 -0.208
vn -0.498 -0.863 -0.088
vn 0.170 -0.983 0.066
vn -0.242 -0.968 -0.073
vn -0.714 -0.643 -0.277
vn -0.270 -0.962 -0.033
vn -0.770 -0.584 0.258
vn -0.717 -0.696 0.029
vn 0.481 0.633 0.607
vn -0.038 -0.771 0.635
vn -0.258 -0.843 0.472
vn 0.709 -0.488 0.509
vn -0.815 -0.572 -0.093
vn -0.861 -0.496 -0.110
vn 0.678 0.707 0.200
vn 0.849 0.465 0.251
vn 0.823 0.553 0.128
vn 0.822 0.555 0.128
vn -0.930 -0.231 -0.285
vn -0.863 -0.393 -0.318
vn 0.404 0.907 -0.118
vn -0.263 0.884 -0.388
vn -0.102 0.893 -0.439
vn 0.551 0.834 0.005
vn 0.806 0.587 0.081
vn 0.828 0.552 0.097
vn 0.444 0.882 -0.156
vn 0.820 0.569 0.066
vn -0.823 0.424 0.379
vn 0.026 0.929 0.368
vn 0.060 0.998 -0.022
vn -0.867 0.480 0.131
vn 0.547 0.836 0.055
vn 0.383 0.923 0.024
vn 0.393 0.919 0.031
vn 0.597 0.802 0.016
vn -0.251 0.938 -0.240
vn 0.219 0.958 -0.186
vn 0.449 0.892 -0.047
vn 0.567 0.824 -0.012
vn 0.352 0.277 0.894
vn 0.096 0.988 -0.123
vn 0.549 0.305 0.778
vn -0.715 0.599 0.361
vn 0.442 0.504 -0.742
vn -0.010 0.622 -0.783
vn 0.099 0.700 -0.707
vn -0.624 0.760 -0.181
vn 0.565 -0.048 0.824
vn 0.454 -0.190 0.871
vn -0.006 -0.195 0.981
vn -0.010 -0.129 0.992
vn -0.587 -0.214 0.780
vn -0.476 -0.100 0.874
vn 0.968 0.018 0.250
vn 0.452 0.641 -0.620
vn 0.037 0.157 -0.987
vn -0.026 0.162 -0.986
vn -0.968 -0.095 0.232
vn -0.433 -0.406 -0.805
vn 0.720 -0.649 0.245
vn -0.555 -0.537 0.635
vn -0.094 -0.910 -0.403
vn -0.370 -0.549 0.749
vn 0.665 -0.651 -0.367
vn -0.095 -0.425 -0.900
vn 0.026 -0.318 -0.948
vn -0.422 -0.210 -0.882

# Facets
f 1//1 3//1 2//1
f 4//2 3//2 5//2
f 4//3 2//3 3//3
f 6//4 4//4 5//4
f 7//5 9//5 8//5
f 10//6 9//6 11//6
f 10//7 8//7 9//7
f 12//8 10//8 11//8
f 1//9 13//9 3//9
f 1//10 14//10 13//10
f 15//11 5//11 3//11
f 13//12 15//12 3//12
f 5//13 16//13 6//13
f 5//14 15//14 16//14
f 17//15 9//15 7//15
f 18//16 17//16 19//16
f 9//17 17//17 18//17
f 11//18 9//18 18//18
f 11//19 20//19 12//19
f 11//20 18//20 20//20
f 21//21 13//21 14//21
f 21//22 15//22 13//22
f 21//23 22//23 15//23
f 22//24 16//24 15//24
f 23//25 18//25 19//25
f 23//26 20//26 18//26
f 1//27 2//27 24//27
f 25//28 2//28 4//28
f 25//29 24//29 2//29
f 25//30 4//30 6//30
f 7//31 8//31 26//31
f 27//32 8//32 10//32
f 27//33 26//33 8//33
f 27//34 10//34 12//34
f 14//35 24//35 28//35
f 14//36 1//36 24//36
f 24//37 25//37 29//37
f 24//38 29//38 28//38
f 29//39 6//39 16//39
f 29//40 25//40 6//40
f 17//41 7//41 26//41
f 26//42 19//42 17//42
f 30//43 19//43 26//43
f 27//44 30//44 26//44
f 30//45 12//45 20//45
f 30//46 27//46 12//46
f 21//47 14//47 28//47
f 28//48 22//48 21//48
f 28//49 29//49 22//49
f 29//50 16//50 22//50
f 23//51 19//51 30//51
f 30//52 20//52 23//52
f 31//53 33//53 32//53
f 34//54 32//54 33//54
f 35//55 37//55 36//55
f 38//56 37//56 39//56
f 38//57 36//57 37//57
f 39//58 31//58 38//58
f 33//59 31//59 39//59
f 40//60 33//60 39//60
f 33//61 41//61 34//61
f 33//62 40//62 41//62
f 35//63 42//63 37//63
f 35//64 43//64 42//64
f 44//65 39//65 37//65
f 42//66 44//66 37//66
f 40//67 46//67 45//67
f 44//68 46//68 40//68
f 39//69 44//69 40//69
f 45//70 41//70 40//70
f 43//71 47//71 42//71
f 43//72 48//72 47//72
f 44//73 50//73 49//73
f 47//74 50//74 44//74
f 42//75 47//75 44//75
f 49//76 46//76 44//76
f 51//77 47//77 48//77
f 51//78 50//78 47//78
f 52//79 54//79 53//79
f 53//80 55//80 52//80
f 56//81 58//81 57//81
f 54//82 52//82 59//82
f 57//83 60//83 56//83
f 55//84 59//84 52//84
f 61//85 63//85 62//85
f 58//86 56//86 64//86
f 65//87 62//87 63//87
f 60//88 64//88 56//88
f 66//89 68//89 67//89
f 32//90 68//90 31//90
f 67//91 68//91 32//91
f 69//92 67//92 32//92
f 34//93 69//93 32//93
f 70//94 69//94 34//94
f 61//95 71//95 63//95
f 71//96 65//96 63//96
f 72//97 36//97 73//97
f 72//98 35//98 36//98
f 68//99 66//99 38//99
f 38//100 66//100 73//100
f 38//101 73//101 36//101
f 38//102 31//102 68//102
f 70//103 34//103 41//103
f 74//104 70//104 41//104
f 43//105 35//105 72//105
f 43//106 72//106 75//106
f 76//107 45//107 77//107
f 45//108 46//108 77//108
f 45//109 74//109 41//109
f 45//110 76//110 74//110
f 48//111 43//111 75//111
f 48//112 75//112 78//112
f 79//113 49//113 50//113
f 80//114 49//114 79//114
f 46//115 49//115 80//115
f 77//116 46//116 80//116
f 81//117 48//117 78//117
f 81//118 51//118 48//118
f 51//119 79//119 50//119
f 82//120 79//120 51//120
f 81//121 82//121 51//121
f 82//122 80//122 79//122
f 83//123 85//123 84//123
f 83//124 53//124 54//124
f 83//125 84//125 53//125
f 84//126 86//126 53//126
f 86//127 55//127 53//127
f 87//128 55//128 86//128
f 57//129 85//129 83//129
f 57//130 58//130 85//130
f 58//131 88//131 85//131
f 59//132 89//132 83//132
f 59//133 83//133 54//133
f 89//134 90//134 83//134
f 57//135 83//135 60//135
f 90//136 60//136 83//136
f 87//137 59//137 55//137
f 89//138 59//138 87//138
f 61//139 62//139 91//139
f 58//140 92//140 88//140
f 58//141 64//141 92//141
f 62//142 65//142 91//142
f 90//143 64//143 60//143
f 92//144 64//144 90//144
f 66//145 67//145 93//145
f 94//146 67//146 69//146
f 94//147 93//147 67//147
f 91//148 71//148 61//148
f 69//149 70//149 94//149
f 91//150 65//150 71//150
f 72//151 73//151 95//151
f 93//152 73//152 66//152
f 95//153 73//153 93//153
f 96//154 95//154 93//154
f 93//155 94//155 97//155
f 93//156 97//156 96//156
f 97//157 70//157 74//157
f 97//158 94//158 70//158
f 75//159 95//159 98//159
f 75//160 72//160 95//160
f 95//161 96//161 99//161
f 95//162 99//162 98//162
f 99//163 76//163 77//163
f 97//164 76//164 99//164
f 96//165 97//165 99//165
f 97//166 74//166 76//166
f 78//167 98//167 100//167
f 78//168 75//168 98//168
f 98//169 99//169 101//169
f 98//170 101//170 100//170
f 101//171 77//171 80//171
f 101//172 99//172 77//172
f 81//173 78//173 100//173
f 100//174 82//174 81//174
f 100//175 101//175 82//175
f 101//176 80//176 82//176
f 102//177 104//177 103//177
f 105//178 104//178 106//178
f 105//179 103//179 104//179
f 107//180 105//180 106//180
f 108//181 104//181 102//181
f 109//182 108//182 110//182
f 104//183 108//183 109//183
f 106//184 104//184 109//184
f 106//185 111//185 107//185
f 106//186 109//186 111//186
f 112//187 109//187 110//187
f 112//188 111//188 109//188
f 84//189 85//189 113//189
f 84//190 114//190 86//190
f 113//191 114//191 84//191
f 86//192 114//192 87//192
f 113//193 88//193 115//193
f 85//194 88//194 113//194
f 89//195 115//195 90//195
f 89//196 114//196 115//196
f 114//197 113//197 115//197
f 87//198 114//198 89//198
f 88//199 92//199 115//199
f 90//200 115//200 92//200
f 116//201 118//201 117//201
f 119//202 118//202 120//202
f 119//203 117//203 118//203
f 121//204 119//204 120//204
f 116//205 103//205 118//205
f 102//206 103//206 116//206
f 122//207 102//207 116//207
f 103//208 105//208 118//208
f 105//209 120//209 118//209
f 107//210 120//210 105//210
f 121//211 120//211 107//211
f 123//212 121//212 107//212
f 102//213 124//213 108//213
f 125//214 124//214 102//214
f 122//215 125//215 102//215
f 110//216 108//216 124//216
f 126//217 127//217 111//217
f 111//218 127//218 123//218
f 111//219 123//219 107//219
f 128//220 127//220 126//220
f 129//221 124//221 125//221
f 129//222 110//222 124//222
f 112//223 110//223 129//223
f 130//224 112//224 129//224
f 112//225 126//225 111//225
f 131//226 126//226 112//226
f 130//227 131//227 112//227
f 131//228 128//228 126//228
f 132//229 117//229 133//229
f 132//230 116//230 117//230
f 133//231 135//231 134//231
f 119//232 135//232 133//232
f 117//233 119//233 133//233
f 135//234 119//234 121//234
f 122//235 116//235 132//235
f 122//236 132//236 136//236
f 134//237 135//237 137//237
f 121//238 137//238 135//238
f 138//239 137//239 121//239
f 123//240 138//240 121//240
f 125//241 140//241 139//241
f 136//242 140//242 125//242
f 122//243 136//243 125//243
f 139//244 140//244 141//244
f 127//245 142//245 123//245
f 123//246 142//246 143//246
f 123//247 143//247 138//247
f 142//248 127//248 128//248
f 129//249 125//249 139//249
f 144//250 139//250 141//250
f 129//251 139//251 144//251
f 130//252 129//252 144//252
f 131//253 143//253 142//253
f 144//254 143//254 131//254
f 130//255 144//255 131//255
f 142//256 128//256 131//256
f 132//257 133//257 145//257
f 145//258 133//258 134//258
f 136//259 145//259 146//259
f 136//260 132//260 145//260
f 147//261 134//261 137//261
f 145//262 134//262 147//262
f 146//263 145//263 147//263
f 147//264 137//264 138//264
f 140//265 136//265 146//265
f 146//266 141//266 140//266
f 148//267 141//267 146//267
f 147//268 148//268 146//268
f 148//269 138//269 143//269
f 148//270 147//270 138//270
f 144//271 141//271 148//271
f 148//272 143//272 144//272
f 149//273 151//273 150//273
f 152//274 150//274 151//274
f 153//275 151//275 149//275
f 153//276 152//276 151//276
f 149//277 150//277 154//277
f 154//278 150//278 152//278
f 153//279 149//279 154//279
f 154//280 152//280 153//280
f 155//281 157//281 156//281
f 158//282 157//282 159//282
f 158//283 156//283 157//283
f 160//284 158//284 159//284
f 155//285 161//285 157//285
f 155//286 162//286 161//286
f 163//287 159//287 157//287
f 161//288 163//288 157//288
f 159//289 164//289 160//289
f 159//290 163//290 164//290
f 165//291 161//291 162//291
f 166//292 165//292 167//292
f 161//293 165//293 166//293
f 163//294 161//294 166//294
f 163//295 168//295 164//295
f 163//296 166//296 168//296
f 169//297 166//297 167//297
f 169//298 168//298 166//298
f 170//299 156//299 171//299
f 170//300 155//300 156//300
f 171//301 173//301 172//301
f 158//302 173//302 171//302
f 156//303 158//303 171//303
f 173//304 158//304 160//304
f 162//305 155//305 170//305
f 162//306 170//306 174//306
f 172//307 173//307 175//307
f 160//308 175//308 173//308
f 176//309 175//309 160//309
f 164//310 176//310 160//310
f 177//311 162//311 174//311
f 177//312 165//312 162//312
f 178//313 167//313 179//313
f 179//314 167//314 165//314
f 179//315 165//315 177//315
f 176//316 178//316 179//316
f 168//317 178//317 176//317
f 164//318 168//318 176//318
f 169//319 167//319 178//319
f 178//320 168//320 169//320
f 170//321 171//321 180//321
f 180//322 171//322 172//322
f 174//323 180//323 181//323
f 174//324 170//324 180//324
f 182//325 172//325 175//325
f 180//326 172//326 182//326
f 181//327 180//327 182//327
f 182//328 175//328 176//328
f 177//329 174//329 181//329
f 181//330 179//330 177//330
f 181//331 182//331 179//331
f 182//332 176//332 179//332
f 183//333 185//333 184//333
f 186//334 185//334 187//334
f 186//335 184//335 185//335
f 188//336 186//336 187//336
f 189//337 185//337 183//337
f 189//338 187//338 185//338
f 189//339 190//339 187//339
f 190//340 188//340 187//340
f 191//341 184//341 192//341
f 191//342 183//342 184//342
f 184//343 186//343 193//343
f 192//344 184//344 193//344
f 188//345 193//345 186//345
f 188//346 194//346 193//346
f 195//347 183//347 191//347
f 195//348 189//348 183//348
f 196//349 190//349 189//349
f 196//350 189//350 195//350
f 190//351 194//351 188//351
f 190//352 196//352 194//352
f 191//353 192//353 197//353
f 198//354 192//354 193//354
f 198//355 197//355 192//355
f 198//356 193//356 194//356
f 195//357 191//357 197//357
f 197//358 196//358 195//358
f 197//359 198//359 196//359
f 198//360 194//360 196//360

# Thankyou for using Spin3D

