# Created using Spin3D

# Vertex Array
v 37.816 -15.924 -21.748
v 37.817 -15.924 -21.750
v 37.817 -15.922 -21.748
v 37.818 -15.923 -21.749
v 37.818 -15.922 -21.747
v 37.819 -15.924 -21.748
v 37.817 -15.924 -21.746
v 37.818 -15.925 -21.746
v 37.817 -15.926 -21.747
v 37.818 -15.926 -21.748
v 6.755 -6.701 29.485
v 7.176 -6.513 29.905
v 7.234 -6.941 29.680
v 7.618 -6.788 30.024
v 6.815 -6.755 29.163
v 6.419 -6.396 28.969
v 7.684 -6.790 29.693
v 7.316 -6.600 29.116
v 7.907 -6.028 29.198
v 6.643 -5.986 28.357
v 7.440 -5.832 28.447
v 6.274 -5.522 10.180
v 6.275 -5.522 10.181
v 6.275 -5.523 10.179
v 6.276 -5.522 10.180
v 6.275 -5.522 10.179
v 6.506 -5.833 29.222
v 7.270 -5.617 29.922
v 7.730 -6.154 30.097
v 7.925 -6.452 29.896
v 8.084 -5.653 29.720
v 5.725 -5.430 28.150
v 5.920 -5.369 28.446
v 6.012 -5.820 28.480
v 8.162 -5.094 29.015
v 6.028 -5.332 27.924
v 6.429 -4.482 27.596
v 6.573 -5.037 27.604
v 7.199 -5.076 27.720
v 7.859 -4.928 28.186
v 7.013 -4.313 27.276
v 7.548 -4.322 27.441
v 6.275 -5.521 10.180
v 6.949 -4.979 29.437
v 7.443 -4.822 29.781
v 7.822 -5.205 29.930
v 8.088 -4.692 29.347
v 5.912 -5.027 28.032
v 6.515 -4.614 28.454
v 8.052 -4.277 28.451
v 6.819 -3.866 27.674
v 7.840 -4.044 27.702
v 6.964 -3.816 27.273
v 7.440 -3.771 27.313
v 7.282 -4.294 29.129
v 7.764 -4.469 29.548
v 7.227 -3.799 28.193
v 7.777 -4.016 28.795
v 7.244 -3.563 27.509
v 7.687 -3.697 27.886
v 8.875 3.005 22.882
v 8.266 3.311 22.810
v 9.213 3.390 23.535
v 10.420 3.236 24.176
v 10.328 2.926 23.475
v 11.799 3.224 24.692
v 11.991 2.907 23.864
v 13.191 3.199 24.688
v 13.017 3.209 23.649
v 14.051 3.702 24.506
v 8.475 3.268 22.454
v 9.572 3.128 22.518
v 9.062 3.843 22.165
v 11.435 3.109 22.833
v 13.722 3.955 23.469
v 12.742 3.515 22.822
v 10.507 3.746 22.127
v 11.891 3.734 22.303
v -9.153 6.682 33.845
v -8.511 6.359 33.560
v -8.470 6.264 33.488
v -8.140 6.308 33.322
v -8.399 6.699 33.375
v 12.437 3.837 25.555
v 13.403 4.229 25.971
v 13.307 3.585 25.549
v 14.067 4.047 25.807
v 14.046 3.653 25.328
v 14.409 4.283 25.265
v 8.336 3.794 23.021
v 9.237 4.355 23.589
v 10.943 4.056 24.714
v 14.352 4.568 24.307
v 8.257 3.844 22.507
v 9.029 4.818 22.375
v 13.779 4.897 23.364
v 12.892 4.292 22.628
v 10.073 4.705 22.028
v 11.550 4.551 22.140
v -10.604 7.509 34.612
v -10.675 7.625 34.741
v -10.093 7.166 34.412
v -10.181 7.594 34.533
v -10.059 7.192 34.278
v -10.398 7.746 34.378
v -9.082 7.010 33.911
v -8.096 6.685 33.350
v -7.860 6.719 33.146
v -7.625 7.285 33.051
v -9.378 7.349 33.820
v -8.547 7.346 33.367
v -7.877 7.426 33.068
v 12.481 4.428 25.705
v 13.209 4.837 25.830
v 14.002 4.700 25.745
v 14.211 5.098 24.946
v 8.517 4.426 22.862
v 9.401 5.187 23.115
v 10.625 5.173 24.120
v 12.142 5.048 25.182
v 14.114 5.311 24.089
v 9.757 5.658 22.632
v 13.412 5.587 23.482
v 12.614 5.239 22.715
v 9.975 5.491 22.236
v 11.132 5.464 22.326
v -10.771 8.052 34.678
v -10.684 7.942 34.771
v -10.329 7.997 34.606
v -10.534 8.310 34.396
v -9.402 7.987 34.055
v -8.191 7.448 33.423
v -7.583 7.850 33.043
v -9.957 8.086 34.054
v -8.812 8.133 33.478
v -7.872 8.402 33.042
v -7.671 8.131 32.928
v -7.392 7.940 32.857
v -7.404 8.314 32.819
v 13.341 5.344 25.233
v 10.665 5.822 23.316
v 12.082 5.712 24.312
v 13.401 5.695 24.273
v 10.636 5.908 22.631
v 12.061 5.869 23.234
v -10.434 8.296 34.560
v -10.495 8.599 34.422
v -9.898 8.637 34.151
v -9.588 8.701 33.888
v -8.706 8.456 33.529
v -8.164 8.082 33.357
v -10.056 8.590 34.096
v -7.643 8.291 33.000
v -10.150 8.822 34.180

# Normal Array
vn -0.952 0.228 -0.202
vn 0.318 0.873 -0.370
vn -0.226 0.659 -0.717
vn 0.958 0.263 -0.111
vn -0.953 0.247 0.178
vn -0.270 0.720 0.639
vn 0.263 0.367 0.892
vn 0.954 0.085 0.287
vn -0.962 -0.202 -0.183
vn 0.284 -0.382 -0.879
vn -0.278 -0.712 -0.644
vn 0.951 -0.151 -0.270
vn -0.962 -0.183 0.202
vn -0.314 -0.637 0.704
vn 0.245 -0.893 0.378
vn 0.947 -0.295 0.125
vn -0.520 -0.452 0.725
vn -0.485 -0.458 0.745
vn -0.466 -0.883 0.061
vn -0.671 -0.741 -0.001
vn 0.315 -0.947 0.070
vn 0.294 -0.836 -0.463
vn 0.218 -0.849 -0.481
vn 0.611 -0.549 -0.570
vn -0.349 -0.714 -0.607
vn 0.150 -0.699 -0.699
vn 0.209 -0.661 -0.721
vn 0.624 -0.568 -0.536
vn -0.577 -0.650 0.494
vn 0.559 -0.665 0.496
vn -0.592 -0.472 -0.654
vn 0.581 -0.488 -0.652
vn -0.683 0.058 0.728
vn -0.709 0.011 0.705
vn 0.547 -0.192 0.815
vn -0.293 -0.059 0.954
vn -0.338 0.017 0.941
vn 0.724 0.008 0.690
vn -0.816 -0.123 0.565
vn -0.826 -0.126 0.549
vn -0.827 -0.119 0.550
vn -0.859 -0.093 0.504
vn 0.757 -0.634 0.157
vn 0.853 -0.436 -0.287
vn 0.960 -0.227 -0.163
vn 0.952 -0.283 -0.120
vn -0.247 -0.725 -0.643
vn -0.449 -0.129 -0.884
vn -0.117 -0.623 -0.773
vn -0.310 -0.710 -0.632
vn -0.310 -0.733 -0.605
vn 0.207 -0.643 -0.737
vn 0.107 -0.613 -0.782
vn 0.578 -0.462 -0.673
vn 0.685 -0.477 -0.550
vn 0.870 -0.312 -0.381
vn -0.447 -0.129 -0.885
vn 0.133 -0.474 -0.870
vn 0.258 -0.438 -0.861
vn 0.570 -0.504 -0.648
vn -0.558 0.466 0.687
vn 0.574 0.448 0.685
vn -0.567 0.679 -0.466
vn 0.592 0.660 -0.462
vn -0.606 0.265 0.750
vn -0.692 0.183 0.698
vn -0.152 0.186 0.971
vn -0.169 0.208 0.963
vn 0.686 0.061 0.725
vn 0.805 0.212 0.554
vn -0.773 0.482 0.413
vn -0.698 0.545 0.464
vn -0.569 0.441 0.694
vn -0.823 0.307 0.478
vn 0.987 0.055 0.153
vn 0.987 0.155 0.032
vn -0.609 0.050 -0.792
vn -0.657 0.019 -0.754
vn -0.638 0.749 0.180
vn -0.842 0.513 0.164
vn 0.924 -0.125 -0.362
vn 0.938 -0.150 -0.312
vn -0.810 0.542 -0.224
vn -0.468 -0.052 -0.882
vn 0.288 -0.164 -0.944
vn 0.084 0.001 -0.997
vn 0.776 -0.290 -0.560
vn 0.685 -0.036 -0.728
vn -0.587 0.552 0.592
vn 0.125 0.465 0.877
vn -0.304 0.702 0.644
vn 0.663 0.386 0.642
vn -0.627 0.673 0.393
vn -0.669 0.550 0.500
vn -0.133 0.850 0.509
vn -0.170 0.867 0.469
vn 0.803 0.553 0.224
vn 0.673 0.629 0.389
vn -0.486 0.830 0.274
vn -0.622 0.672 0.402
vn 0.011 0.944 0.331
vn 0.008 0.945 0.326
vn 0.887 0.449 -0.112
vn 0.769 0.623 0.143
vn -0.608 0.785 -0.121
vn -0.412 -0.675 0.613
vn -0.330 -0.846 0.418
vn -0.283 -0.754 0.593
vn 0.516 0.793 -0.325
vn -0.003 0.684 -0.729
vn -0.090 -0.937 0.338
vn -0.164 -0.894 0.417
vn 0.748 0.536 -0.392
vn 0.271 -0.961 -0.055
vn -0.016 -0.935 0.354
vn 0.489 -0.868 -0.091
vn -0.431 -0.891 -0.145
vn -0.005 -0.445 -0.896
vn -0.086 -0.883 -0.461
vn 0.045 -0.970 -0.240
vn 0.039 -0.977 -0.212
vn 0.029 -0.973 -0.228
vn 0.594 -0.670 -0.445
vn 0.267 -0.872 -0.411
vn 0.212 -0.931 -0.297
vn 0.630 -0.684 -0.367
vn -0.055 -0.473 -0.880
vn 0.120 -0.654 -0.747
vn 0.087 -0.680 -0.728
vn 0.218 -0.719 -0.661
vn 0.060 -0.590 0.805
vn 0.452 -0.410 0.792
vn -0.522 -0.133 -0.843
vn -0.426 -0.161 -0.890
vn -0.147 -0.526 0.837
vn 0.251 -0.753 0.608
vn 0.054 -0.552 0.832
vn 0.832 -0.446 0.331
vn -0.516 -0.035 0.856
vn -0.573 -0.257 0.778
vn -0.479 -0.247 0.842
vn -0.554 -0.033 0.832
vn -0.205 -0.720 0.664
vn -0.477 -0.510 0.716
vn -0.330 -0.362 0.872
vn -0.015 -0.911 0.411
vn 0.197 -0.904 0.379
vn 0.497 -0.866 -0.049
vn 0.865 -0.501 -0.025
vn 0.920 -0.357 -0.161
vn -0.985 0.073 0.157
vn -0.844 -0.276 -0.461
vn -0.390 -0.062 -0.919
vn -0.384 0.182 -0.905
vn 0.682 -0.121 -0.721
vn 0.616 -0.301 -0.728
vn 0.851 -0.379 -0.363
vn 0.832 -0.110 -0.544
vn -0.291 0.192 -0.937
vn -0.034 -0.118 -0.992
vn 0.124 -0.144 -0.982
vn 0.068 -0.072 -0.995
vn 0.440 -0.297 -0.847
vn 0.332 -0.049 -0.942
vn -0.318 -0.784 0.533
vn 0.373 -0.179 0.910
vn -0.610 -0.734 -0.297
vn -0.603 -0.231 -0.764
vn 0.286 -0.248 0.926
vn 0.396 -0.263 0.880
vn -0.571 -0.766 -0.294
vn 0.418 -0.165 0.893
vn 0.660 -0.133 0.739
vn 0.524 -0.124 0.843
vn 0.481 -0.049 0.875
vn 0.660 -0.151 0.736
vn -0.522 -0.169 -0.836
vn -0.513 -0.203 -0.834
vn -0.514 -0.204 -0.833
vn -0.476 -0.120 -0.871
vn -0.384 -0.130 -0.914
vn -0.386 -0.110 -0.916
vn -0.396 -0.102 -0.913
vn -0.126 -0.112 -0.986
vn -0.313 -0.212 0.926
vn -0.246 0.143 0.959
vn 0.149 0.267 0.952
vn 0.268 0.117 0.956
vn 0.811 0.135 0.570
vn 0.842 0.361 0.401
vn -0.646 0.356 0.675
vn -0.599 0.482 0.640
vn -0.549 0.493 0.675
vn -0.489 0.297 0.820
vn -0.502 -0.178 0.846
vn -0.566 0.328 0.756
vn -0.537 0.272 0.799
vn -0.394 0.456 0.798
vn 0.970 0.241 0.014
vn 0.955 0.295 -0.035
vn -0.934 0.312 0.173
vn -0.757 0.552 -0.351
vn -0.641 0.765 -0.059
vn -0.763 0.643 0.063
vn 0.533 0.410 -0.740
vn 0.524 0.230 -0.820
vn 0.867 0.137 -0.479
vn 0.678 0.458 -0.575
vn -0.534 0.634 -0.559
vn -0.288 0.211 -0.934
vn 0.099 0.241 -0.965
vn 0.081 0.264 -0.961
vn 0.367 0.192 -0.910
vn 0.286 0.314 -0.905
vn -0.775 -0.082 0.627
vn -0.926 -0.251 -0.281
vn 0.384 -0.077 0.920
vn 0.423 -0.011 0.906
vn -0.681 -0.122 -0.722
vn -0.689 -0.143 -0.711
vn 0.511 0.030 0.859
vn 0.508 0.039 0.861
vn 0.488 -0.022 0.872
vn 0.471 0.024 0.882
vn 0.546 -0.011 0.837
vn 0.543 -0.028 0.839
vn -0.537 -0.103 -0.837
vn -0.516 -0.138 -0.845
vn -0.479 -0.037 -0.877
vn -0.446 -0.068 -0.893
vn -0.434 0.057 -0.899
vn -0.434 -0.052 -0.899
vn -0.407 -0.008 -0.913
vn -0.306 -0.099 -0.947
vn -0.184 -0.218 -0.958
vn 0.706 -0.042 0.707
vn -0.417 0.073 -0.906
vn -0.310 -0.106 -0.945
vn 0.197 0.726 0.659
vn 0.383 0.783 0.491
vn -0.443 0.708 0.550
vn -0.348 0.734 0.584
vn -0.349 0.738 0.578
vn -0.215 0.768 0.603
vn -0.215 0.769 0.602
vn 0.022 0.938 0.345
vn 0.499 0.852 0.155
vn 0.358 0.869 0.341
vn -0.272 0.953 0.131
vn -0.460 0.782 0.422
vn -0.025 0.989 0.145
vn -0.026 0.992 0.126
vn 0.268 0.742 -0.615
vn 0.225 0.966 -0.129
vn 0.017 0.989 0.144
vn 0.448 0.887 -0.115
vn -0.241 0.841 -0.485
vn 0.076 0.620 -0.781
vn 0.281 0.736 -0.616
vn 0.273 0.743 -0.611
vn -0.135 0.577 0.806
vn 0.371 0.269 0.889
vn 0.347 0.444 0.826
vn 0.017 0.416 0.909
vn -0.823 0.161 -0.545
vn 0.438 0.606 0.664
vn 0.477 0.240 0.845
vn 0.484 0.246 0.840
vn 0.490 0.301 0.818
vn 0.486 0.069 0.871
vn 0.457 0.273 0.847
vn 0.496 0.068 0.866
vn -0.587 0.152 -0.795
vn -0.519 -0.029 -0.854
vn -0.306 0.246 -0.920
vn -0.421 0.077 -0.904
vn -0.449 -0.012 -0.894
vn -0.470 0.287 -0.835
vn 0.423 0.628 0.653
vn 0.462 0.285 0.840
vn 0.647 0.161 0.745
vn 0.517 0.152 0.842
vn 0.425 0.637 0.643
vn 0.593 0.100 0.799
vn 0.366 0.364 0.856
vn 0.477 0.541 0.693
vn -0.595 0.048 -0.802
vn -0.431 0.147 -0.890

# Facets
f 1//1 3//1 2//1
f 4//2 3//2 5//2
f 4//3 2//3 3//3
f 6//4 4//4 5//4
f 7//5 3//5 1//5
f 7//6 5//6 3//6
f 7//7 8//7 5//7
f 8//8 6//8 5//8
f 1//9 2//9 9//9
f 10//10 2//10 4//10
f 10//11 9//11 2//11
f 10//12 4//12 6//12
f 7//13 1//13 9//13
f 9//14 8//14 7//14
f 9//15 10//15 8//15
f 10//16 6//16 8//16
f 11//17 13//17 12//17
f 14//18 12//18 13//18
f 11//19 15//19 13//19
f 11//20 16//20 15//20
f 13//21 17//21 14//21
f 18//22 17//22 13//22
f 15//23 18//23 13//23
f 19//24 17//24 18//24
f 20//25 15//25 16//25
f 20//26 18//26 15//26
f 20//27 21//27 18//27
f 21//28 19//28 18//28
f 22//29 24//29 23//29
f 25//30 23//30 24//30
f 26//31 24//31 22//31
f 26//32 25//32 24//32
f 27//33 12//33 28//33
f 27//34 11//34 12//34
f 29//35 14//35 30//35
f 12//36 14//36 29//36
f 28//37 12//37 29//37
f 31//38 29//38 30//38
f 32//39 34//39 33//39
f 33//40 34//40 27//40
f 27//41 34//41 16//41
f 27//42 16//42 11//42
f 30//43 14//43 17//43
f 19//44 30//44 17//44
f 31//45 30//45 19//45
f 35//46 31//46 19//46
f 36//47 34//47 32//47
f 37//48 38//48 36//48
f 38//49 20//49 36//49
f 36//50 20//50 34//50
f 34//51 20//51 16//51
f 21//52 20//52 39//52
f 20//53 38//53 39//53
f 40//54 21//54 39//54
f 19//55 21//55 40//55
f 35//56 19//56 40//56
f 41//57 38//57 37//57
f 41//58 39//58 38//58
f 41//59 42//59 39//59
f 42//60 40//60 39//60
f 22//61 23//61 43//61
f 43//62 23//62 25//62
f 26//63 22//63 43//63
f 43//64 25//64 26//64
f 44//65 28//65 45//65
f 44//66 27//66 28//66
f 28//67 29//67 46//67
f 45//68 28//68 46//68
f 31//69 46//69 29//69
f 31//70 47//70 46//70
f 32//71 33//71 48//71
f 48//72 33//72 49//72
f 49//73 33//73 27//73
f 49//74 27//74 44//74
f 47//75 31//75 35//75
f 50//76 47//76 35//76
f 36//77 32//77 48//77
f 36//78 48//78 37//78
f 37//79 48//79 49//79
f 37//80 49//80 51//80
f 50//81 35//81 40//81
f 52//82 50//82 40//82
f 53//83 37//83 51//83
f 53//84 41//84 37//84
f 54//85 42//85 41//85
f 54//86 41//86 53//86
f 42//87 52//87 40//87
f 42//88 54//88 52//88
f 44//89 45//89 55//89
f 56//90 45//90 46//90
f 56//91 55//91 45//91
f 56//92 46//92 47//92
f 49//93 55//93 57//93
f 49//94 44//94 55//94
f 55//95 56//95 58//95
f 55//96 58//96 57//96
f 58//97 47//97 50//97
f 58//98 56//98 47//98
f 51//99 57//99 59//99
f 51//100 49//100 57//100
f 57//101 58//101 60//101
f 57//102 60//102 59//102
f 60//103 50//103 52//103
f 60//104 58//104 50//104
f 51//105 59//105 53//105
f 61//106 63//106 62//106
f 63//107 65//107 64//107
f 61//108 65//108 63//108
f 59//109 60//109 54//109
f 53//110 59//110 54//110
f 66//111 65//111 67//111
f 64//112 65//112 66//112
f 54//113 60//113 52//113
f 68//114 67//114 69//114
f 68//115 66//115 67//115
f 70//116 68//116 69//116
f 71//117 61//117 62//117
f 72//118 71//118 73//118
f 61//119 71//119 72//119
f 65//120 61//120 72//120
f 74//121 67//121 65//121
f 72//122 74//122 65//122
f 69//123 76//123 75//123
f 74//124 76//124 69//124
f 67//125 74//125 69//125
f 75//126 70//126 69//126
f 77//127 72//127 73//127
f 77//128 74//128 72//128
f 77//129 78//129 74//129
f 78//130 76//130 74//130
f 79//131 81//131 80//131
f 82//132 80//132 81//132
f 83//133 81//133 79//133
f 83//134 82//134 81//134
f 84//135 86//135 85//135
f 87//136 86//136 88//136
f 87//137 85//137 86//137
f 89//138 87//138 88//138
f 90//139 63//139 91//139
f 90//140 62//140 63//140
f 63//141 64//141 92//141
f 91//142 63//142 92//142
f 86//143 84//143 66//143
f 66//144 84//144 92//144
f 66//145 92//145 64//145
f 66//146 68//146 86//146
f 68//147 88//147 86//147
f 70//148 88//148 68//148
f 89//149 88//149 70//149
f 93//150 89//150 70//150
f 94//151 62//151 90//151
f 94//152 71//152 62//152
f 71//153 94//153 73//153
f 94//154 95//154 73//154
f 96//155 75//155 97//155
f 75//156 76//156 97//156
f 75//157 93//157 70//157
f 75//158 96//158 93//158
f 98//159 73//159 95//159
f 98//160 77//160 73//160
f 99//161 78//161 77//161
f 99//162 77//162 98//162
f 78//163 97//163 76//163
f 78//164 99//164 97//164
f 100//165 102//165 101//165
f 103//166 101//166 102//166
f 100//167 104//167 102//167
f 100//168 105//168 104//168
f 106//169 79//169 80//169
f 102//170 79//170 106//170
f 104//171 79//171 102//171
f 106//172 103//172 102//172
f 107//173 82//173 108//173
f 80//174 82//174 107//174
f 106//175 80//175 107//175
f 109//176 107//176 108//176
f 110//177 104//177 105//177
f 110//178 79//178 104//178
f 83//179 79//179 110//179
f 111//180 83//180 110//180
f 83//181 108//181 82//181
f 112//182 108//182 83//182
f 111//183 112//183 83//183
f 112//184 109//184 108//184
f 84//185 85//185 113//185
f 85//186 114//186 113//186
f 115//187 114//187 85//187
f 87//188 115//188 85//188
f 89//189 115//189 87//189
f 89//190 116//190 115//190
f 90//191 91//191 117//191
f 91//192 118//192 117//192
f 119//193 118//193 91//193
f 92//194 119//194 91//194
f 84//195 113//195 92//195
f 92//196 113//196 120//196
f 92//197 120//197 119//197
f 113//198 114//198 120//198
f 116//199 89//199 93//199
f 121//200 116//200 93//200
f 94//201 90//201 117//201
f 94//202 117//202 95//202
f 95//203 117//203 118//203
f 95//204 118//204 122//204
f 123//205 96//205 124//205
f 96//206 97//206 124//206
f 96//207 121//207 93//207
f 96//208 123//208 121//208
f 125//209 95//209 122//209
f 125//210 98//210 95//210
f 126//211 99//211 98//211
f 126//212 98//212 125//212
f 99//213 124//213 97//213
f 99//214 126//214 124//214
f 127//215 101//215 128//215
f 127//216 100//216 101//216
f 103//217 128//217 101//217
f 103//218 129//218 128//218
f 105//219 100//219 127//219
f 105//220 127//220 130//220
f 129//221 103//221 131//221
f 103//222 106//222 131//222
f 106//223 107//223 132//223
f 131//224 106//224 132//224
f 109//225 132//225 107//225
f 109//226 133//226 132//226
f 134//227 105//227 130//227
f 134//228 110//228 105//228
f 135//229 111//229 110//229
f 135//230 110//230 134//230
f 136//231 137//231 135//231
f 135//232 137//232 112//232
f 135//233 112//233 111//233
f 138//234 112//234 137//234
f 109//235 112//235 138//235
f 133//236 109//236 138//236
f 139//237 137//237 136//237
f 139//238 138//238 137//238
f 114//239 115//239 140//239
f 140//240 115//240 116//240
f 118//241 119//241 141//241
f 142//242 119//242 120//242
f 142//243 141//243 119//243
f 140//244 120//244 114//244
f 142//245 120//245 140//245
f 143//246 142//246 140//246
f 143//247 116//247 121//247
f 143//248 140//248 116//248
f 122//249 141//249 144//249
f 122//250 118//250 141//250
f 141//251 142//251 145//251
f 141//252 145//252 144//252
f 145//253 123//253 124//253
f 143//254 123//254 145//254
f 142//255 143//255 145//255
f 143//256 121//256 123//256
f 125//257 122//257 144//257
f 144//258 126//258 125//258
f 144//259 145//259 126//259
f 145//260 124//260 126//260
f 127//261 128//261 146//261
f 146//262 128//262 129//262
f 147//263 146//263 148//263
f 127//264 146//264 147//264
f 130//265 127//265 147//265
f 148//266 150//266 149//266
f 148//267 131//267 150//267
f 146//268 131//268 148//268
f 129//269 131//269 146//269
f 151//270 131//270 132//270
f 151//271 150//271 131//271
f 151//272 132//272 133//272
f 152//273 130//273 147//273
f 152//274 134//274 130//274
f 135//275 149//275 150//275
f 152//276 149//276 135//276
f 134//277 152//277 135//277
f 150//278 136//278 135//278
f 153//279 136//279 150//279
f 151//280 153//280 150//280
f 153//281 133//281 138//281
f 153//282 151//282 133//282
f 139//283 136//283 153//283
f 153//284 138//284 139//284
f 147//285 148//285 154//285
f 154//286 148//286 149//286
f 152//287 147//287 154//287
f 154//288 149//288 152//288

# Thankyou for using Spin3D

