# Created using Spin3D

# Vertex Array
v 19.197 -44.243 3.950
v 19.179 -44.248 3.989
v 19.193 -44.244 3.964
v 19.190 -44.243 3.964
v 19.230 -44.233 3.890
v 19.224 -44.235 3.909
v 19.215 -44.235 3.908
v 19.244 -44.227 3.852
v 19.250 -44.223 3.833
v 19.259 -44.223 3.835
v 19.284 -44.214 3.779
v 19.277 -44.218 3.792
v 19.281 -44.214 3.778
v 19.295 -44.210 3.753
v 31.908 -41.883 20.391
v 31.913 -41.892 20.385
v 31.917 -41.896 20.385
v 31.910 -41.890 20.387
v 31.909 -41.887 20.392
v 19.201 -44.240 3.951
v 19.248 -44.225 3.854
v 19.226 -44.230 3.888
v 19.274 -44.215 3.792
v 31.886 -41.854 20.403
v 31.888 -41.859 20.399
v 31.900 -41.873 20.394
v 31.894 -41.869 20.397
v 31.887 -41.851 20.410
v 31.883 -41.848 20.409
v 31.892 -41.860 20.403
v 31.902 -41.880 20.395
v 31.896 -41.867 20.404
v 31.897 -41.871 20.402
v 31.884 -41.853 20.406
v 31.885 -41.853 20.410
v 31.890 -41.863 20.404
v 9.047 -14.650 28.462
v 9.045 -14.651 28.462
v 9.045 -14.649 28.462
v 9.043 -14.651 28.461
v 9.045 -14.649 28.460
v 9.047 -14.651 28.460
v 9.043 -14.650 28.460
v 9.045 -14.650 28.459
v 9.045 -14.653 28.461
v 9.044 -14.652 28.459
v 20.156 7.455 35.107
v 20.894 7.721 35.930
v 20.859 7.431 35.473
v 22.027 7.855 36.377
v 20.567 7.436 34.953
v 20.161 7.615 34.702
v 21.533 7.686 35.448
v 21.037 7.918 34.788
v 12.284 6.813 45.722
v 12.285 6.813 45.723
v 12.285 6.812 45.722
v 12.287 6.813 45.722
v 12.286 6.813 45.721
v 23.881 8.720 38.286
v 24.899 9.080 38.875
v 23.903 8.598 37.814
v 25.915 9.436 39.084
v 19.935 8.095 35.261
v 20.950 8.334 36.130
v 20.071 7.765 35.388
v 22.569 8.401 37.291
v 23.076 8.294 36.442
v 25.006 9.139 37.758
v 19.817 7.790 34.868
v 19.916 8.236 34.902
v 22.283 8.217 35.428
v 23.781 8.994 36.248
v 20.355 8.166 34.650
v 21.133 8.386 34.656
v 22.216 8.689 35.095
v 12.286 6.814 45.722
v 27.619 10.250 40.575
v 28.039 10.411 40.790
v 27.722 10.239 40.314
v 28.326 10.554 40.788
v 24.326 9.152 38.561
v 26.343 9.801 39.735
v 26.923 9.966 39.106
v 28.575 10.659 40.627
v 28.265 10.563 40.042
v 28.695 10.818 40.375
v 20.449 8.591 35.449
v 21.574 8.993 36.292
v 22.890 9.090 37.403
v 25.840 9.814 37.792
v 27.537 10.457 39.098
v 28.411 10.791 39.860
v 20.494 8.633 34.980
v 21.500 9.120 35.680
v 24.379 9.695 36.576
v 22.853 9.279 35.467
v 23.326 9.209 35.638
v 26.428 10.336 38.207
v 27.782 10.721 39.290
v 21.503 8.880 35.023
v 27.604 10.401 40.406
v 25.535 9.982 38.817
v 27.562 10.610 39.917
v 28.438 10.740 40.552
v 23.151 9.567 36.952
v 24.967 10.070 37.579
v 26.944 10.554 39.030
v 28.250 10.830 39.964
v 22.998 9.547 36.074

# Normal Array
vn 0.242 -0.970 -0.005
vn -0.901 -0.087 -0.424
vn 0.287 -0.958 0.006
vn 0.265 -0.964 -0.006
vn -0.888 -0.182 -0.422
vn -0.565 -0.727 -0.389
vn -0.004 -0.987 -0.161
vn -0.414 -0.849 -0.328
vn 0.418 -0.907 0.051
vn 0.884 -0.323 0.338
vn 0.556 -0.820 0.139
vn -0.052 -0.983 -0.178
vn -0.263 -0.920 -0.290
vn -0.326 -0.891 -0.317
vn 0.900 -0.226 0.374
vn -0.277 -0.909 -0.310
vn 0.665 0.635 -0.394
vn -0.629 -0.717 -0.301
vn 0.714 0.208 0.669
vn -0.496 -0.760 0.419
vn 0.804 0.301 0.513
vn -0.270 0.962 0.037
vn 0.435 0.832 0.344
vn 0.849 0.169 0.500
vn -0.448 0.892 -0.058
vn -0.266 0.963 0.041
vn 0.005 0.988 0.156
vn -0.553 0.823 -0.133
vn 0.538 0.755 0.375
vn 0.424 0.847 0.321
vn 0.311 0.909 0.277
vn 0.040 0.983 0.177
vn -0.839 0.358 -0.409
vn -0.436 0.897 -0.072
vn 0.322 0.903 0.285
vn -0.782 0.498 -0.375
vn 0.601 0.673 -0.430
vn -0.565 -0.209 -0.798
vn 0.626 0.690 -0.363
vn 0.631 0.690 -0.353
vn 0.616 0.673 -0.409
vn 0.720 0.637 -0.274
vn 0.675 0.632 -0.381
vn -0.520 0.040 -0.853
vn -0.446 0.096 -0.890
vn -0.816 -0.573 -0.073
vn 0.879 0.469 0.090
vn 0.856 0.471 0.212
vn 0.829 0.203 0.521
vn 0.241 -0.395 0.886
vn -0.593 -0.717 0.365
vn -0.508 -0.697 0.506
vn -0.662 0.379 -0.647
vn -0.865 -0.490 -0.112
vn -0.248 0.110 0.962
vn -0.769 0.101 -0.631
vn -0.876 -0.370 0.311
vn -0.795 -0.542 0.271
vn -0.810 -0.586 0.004
vn -0.868 -0.477 -0.138
vn 0.212 -0.260 0.942
vn -0.091 -0.471 0.877
vn -0.528 -0.622 0.579
vn -0.627 -0.671 0.396
vn 0.168 0.126 0.978
vn -0.297 0.033 0.954
vn 0.537 0.746 0.395
vn 0.827 0.530 -0.187
vn -0.813 0.467 0.349
vn -0.508 0.843 -0.180
vn 0.277 0.284 -0.918
vn -0.170 0.395 -0.903
vn 0.270 -0.338 0.901
vn -0.202 -0.437 0.877
vn 0.496 -0.764 -0.413
vn 0.797 -0.569 0.201
vn -0.808 -0.455 -0.375
vn -0.521 -0.844 0.125
vn 0.175 -0.090 -0.981
vn -0.247 0.010 -0.969
vn -0.303 -0.794 0.528
vn -0.114 -0.835 0.539
vn -0.041 -0.999 0.013
vn -0.178 -0.914 -0.363
vn 0.353 -0.935 -0.018
vn 0.340 -0.919 -0.201
vn 0.263 -0.532 -0.805
vn 0.471 -0.660 -0.586
vn -0.617 -0.645 0.451
vn 0.572 -0.672 0.470
vn -0.600 -0.444 -0.666
vn 0.591 -0.504 -0.629
vn 0.189 -0.949 0.254
vn 0.300 -0.943 0.147
vn -0.654 0.023 0.756
vn -0.434 -0.668 0.605
vn -0.545 -0.216 0.810
vn -0.564 -0.210 0.799
vn 0.388 -0.921 -0.029
vn -0.094 -0.829 0.551
vn -0.126 -0.817 0.563
vn 0.044 -0.967 0.252
vn 0.434 -0.895 -0.098
vn 0.437 -0.897 -0.065
vn -0.884 -0.201 0.422
vn -0.970 0.204 0.134
vn -0.547 -0.776 -0.314
vn -0.772 -0.529 0.351
vn 0.533 -0.766 -0.359
vn 0.388 -0.921 -0.039
vn 0.585 -0.702 -0.407
vn 0.586 -0.702 -0.405
vn -0.469 0.169 -0.867
vn -0.410 0.059 -0.910
vn 0.145 -0.143 -0.979
vn 0.088 -0.287 -0.954
vn 0.460 -0.671 -0.581
vn 0.491 -0.455 -0.743
vn 0.432 -0.326 -0.841
vn 0.592 -0.407 -0.696
vn -0.590 0.507 0.629
vn 0.599 0.446 0.665
vn -0.570 0.675 -0.468
vn 0.614 0.648 -0.449
vn 0.284 -0.947 0.152
vn 0.445 -0.895 0.027
vn -0.485 -0.068 0.872
vn -0.485 -0.058 0.873
vn 0.465 -0.879 -0.109
vn 0.102 -0.895 0.434
vn 0.246 -0.905 0.346
vn 0.247 -0.959 0.138
vn 0.423 -0.904 0.061
vn 0.470 -0.876 -0.106
vn 0.468 -0.877 -0.112
vn 0.607 -0.770 -0.196
vn -0.645 0.426 0.635
vn -0.634 0.444 0.633
vn -0.607 0.406 0.683
vn -0.581 0.140 0.802
vn -0.620 0.147 0.771
vn -0.623 0.166 0.764
vn 0.586 -0.704 -0.401
vn 0.464 -0.877 -0.122
vn 0.579 -0.729 -0.365
vn 0.573 -0.722 -0.388
vn 0.655 -0.681 -0.326
vn 0.604 -0.697 -0.387
vn -0.568 0.823 0.018
vn -0.718 0.633 0.288
vn -0.477 0.847 0.233
vn -0.455 0.890 0.035
vn 0.346 0.616 -0.708
vn 0.641 -0.119 -0.758
vn 0.637 -0.194 -0.746
vn 0.584 -0.703 -0.406
vn 0.708 -0.307 -0.636
vn 0.630 -0.097 -0.771
vn 0.627 -0.016 -0.779
vn 0.674 -0.093 -0.733
vn -0.319 0.608 -0.727
vn -0.211 0.918 -0.335
vn -0.112 0.595 -0.796
vn -0.185 0.672 -0.717
vn 0.358 0.190 -0.914
vn 0.191 0.367 -0.910
vn 0.214 0.474 -0.854
vn 0.560 -0.556 -0.614
vn -0.533 0.608 0.588
vn -0.399 0.810 0.430
vn -0.538 0.601 0.592
vn -0.580 0.583 0.569
vn -0.581 0.532 0.616
vn -0.456 0.803 0.383
vn 0.098 0.757 0.646
vn -0.404 0.801 0.442
vn -0.405 0.827 0.389
vn 0.160 0.800 0.579
vn -0.473 0.728 0.497
vn -0.528 0.577 0.624
vn -0.499 0.723 0.477
vn -0.329 0.919 0.216
vn -0.395 0.892 0.218
vn -0.396 0.885 0.244
vn -0.310 0.920 0.239
vn -0.310 0.938 0.157
vn 0.149 0.980 -0.133
vn -0.155 0.968 0.197
vn -0.281 0.959 0.027
vn -0.417 0.879 0.232
vn 0.054 0.908 -0.415
vn 0.034 0.929 -0.367
vn -0.275 0.961 0.026
vn -0.027 0.941 -0.336
vn -0.092 0.975 -0.200
vn -0.143 0.975 -0.168
vn -0.187 0.982 -0.028
vn 0.091 0.971 -0.219
vn -0.175 0.925 -0.338
vn -0.149 0.917 -0.370

# Facets
f 1//1 3//1 2//1
f 2//2 4//2 1//2
f 5//3 3//3 1//3
f 6//4 3//4 5//4
f 7//5 1//5 4//5
f 7//6 8//6 1//6
f 8//7 5//7 1//7
f 7//8 9//8 8//8
f 5//9 10//9 6//9
f 10//10 12//10 11//10
f 10//11 5//11 12//11
f 5//12 8//12 12//12
f 13//13 8//13 9//13
f 12//14 8//14 13//14
f 12//15 14//15 11//15
f 13//16 14//16 12//16
f 15//17 17//17 16//17
f 18//18 16//18 17//18
f 19//19 17//19 15//19
f 19//20 18//20 17//20
f 2//21 3//21 20//21
f 2//22 20//22 4//22
f 20//23 6//23 21//23
f 3//24 6//24 20//24
f 4//25 22//25 7//25
f 4//26 20//26 22//26
f 20//27 21//27 22//27
f 7//28 22//28 9//28
f 6//29 10//29 21//29
f 11//30 21//30 10//30
f 11//31 23//31 21//31
f 23//32 22//32 21//32
f 9//33 23//33 13//33
f 22//34 23//34 9//34
f 11//35 14//35 23//35
f 13//36 23//36 14//36
f 24//37 26//37 25//37
f 27//38 25//38 26//38
f 28//39 30//39 29//39
f 30//40 24//40 29//40
f 30//41 26//41 24//41
f 15//42 26//42 30//42
f 16//43 26//43 15//43
f 18//44 26//44 16//44
f 27//45 26//45 18//45
f 31//46 27//46 18//46
f 32//47 30//47 28//47
f 32//48 15//48 30//48
f 19//49 15//49 32//49
f 33//50 19//50 32//50
f 19//51 31//51 18//51
f 19//52 33//52 31//52
f 24//53 25//53 34//53
f 34//54 25//54 27//54
f 28//55 29//55 35//55
f 34//56 29//56 24//56
f 35//57 29//57 34//57
f 36//58 35//58 34//58
f 36//59 27//59 31//59
f 36//60 34//60 27//60
f 32//61 28//61 35//61
f 35//62 33//62 32//62
f 35//63 36//63 33//63
f 36//64 31//64 33//64
f 37//65 39//65 38//65
f 40//66 38//66 39//66
f 37//67 41//67 39//67
f 37//68 42//68 41//68
f 39//69 43//69 40//69
f 39//70 41//70 43//70
f 44//71 41//71 42//71
f 44//72 43//72 41//72
f 37//73 38//73 45//73
f 45//74 38//74 40//74
f 42//75 45//75 46//75
f 42//76 37//76 45//76
f 46//77 40//77 43//77
f 46//78 45//78 40//78
f 44//79 42//79 46//79
f 46//80 43//80 44//80
f 47//81 49//81 48//81
f 50//82 48//82 49//82
f 47//83 51//83 49//83
f 47//84 52//84 51//84
f 49//85 53//85 50//85
f 49//86 51//86 53//86
f 54//87 51//87 52//87
f 54//88 53//88 51//88
f 55//89 57//89 56//89
f 58//90 56//90 57//90
f 59//91 57//91 55//91
f 59//92 58//92 57//92
f 60//93 62//93 61//93
f 63//94 61//94 62//94
f 64//95 66//95 65//95
f 48//96 66//96 47//96
f 65//97 66//97 48//97
f 67//98 65//98 48//98
f 62//99 50//99 68//99
f 67//100 50//100 62//100
f 48//101 50//101 67//101
f 60//102 67//102 62//102
f 62//103 69//103 63//103
f 62//104 68//104 69//104
f 64//105 70//105 66//105
f 64//106 71//106 70//106
f 52//107 47//107 70//107
f 47//108 66//108 70//108
f 72//109 68//109 53//109
f 68//110 50//110 53//110
f 68//111 73//111 69//111
f 68//112 72//112 73//112
f 74//113 70//113 71//113
f 74//114 52//114 70//114
f 54//115 52//115 74//115
f 75//116 54//116 74//116
f 54//117 72//117 53//117
f 76//118 72//118 54//118
f 75//119 76//119 54//119
f 76//120 73//120 72//120
f 55//121 56//121 77//121
f 77//122 56//122 58//122
f 59//123 55//123 77//123
f 77//124 58//124 59//124
f 78//125 80//125 79//125
f 81//126 79//126 80//126
f 82//127 61//127 83//127
f 82//128 60//128 61//128
f 80//129 63//129 84//129
f 83//130 63//130 80//130
f 61//131 63//131 83//131
f 78//132 83//132 80//132
f 80//133 85//133 81//133
f 86//134 85//134 80//134
f 84//135 86//135 80//135
f 87//136 85//136 86//136
f 64//137 65//137 88//137
f 65//138 89//138 88//138
f 90//139 89//139 65//139
f 67//140 90//140 65//140
f 60//141 82//141 67//141
f 82//142 90//142 67//142
f 91//143 84//143 69//143
f 84//144 63//144 69//144
f 92//145 86//145 84//145
f 91//146 92//146 84//146
f 86//147 93//147 87//147
f 86//148 92//148 93//148
f 71//149 88//149 94//149
f 71//150 64//150 88//150
f 89//151 95//151 88//151
f 95//152 94//152 88//152
f 96//153 98//153 97//153
f 99//154 91//154 96//154
f 96//155 91//155 73//155
f 73//156 91//156 69//156
f 96//157 73//157 98//157
f 99//158 92//158 91//158
f 99//159 100//159 92//159
f 100//160 93//160 92//160
f 74//161 71//161 94//161
f 101//162 94//162 95//162
f 74//163 94//163 101//163
f 75//164 74//164 101//164
f 76//165 97//165 98//165
f 101//166 97//166 76//166
f 75//167 101//167 76//167
f 98//168 73//168 76//168
f 78//169 79//169 102//169
f 102//170 79//170 81//170
f 82//171 83//171 103//171
f 102//172 83//172 78//172
f 103//173 83//173 102//173
f 104//174 103//174 102//174
f 105//175 81//175 85//175
f 102//176 81//176 105//176
f 104//177 102//177 105//177
f 105//178 85//178 87//178
f 89//179 90//179 106//179
f 103//180 90//180 82//180
f 106//181 90//181 103//181
f 107//182 106//182 103//182
f 103//183 104//183 108//183
f 103//184 108//184 107//184
f 104//185 105//185 109//185
f 104//186 109//186 108//186
f 109//187 87//187 93//187
f 109//188 105//188 87//188
f 95//189 106//189 110//189
f 95//190 89//190 106//190
f 110//191 96//191 97//191
f 107//192 96//192 110//192
f 106//193 107//193 110//193
f 107//194 99//194 96//194
f 107//195 108//195 99//195
f 108//196 100//196 99//196
f 108//197 109//197 100//197
f 109//198 93//198 100//198
f 101//199 95//199 110//199
f 110//200 97//200 101//200

# Thankyou for using Spin3D

