# Created using Spin3D

# Vertex Array
v -3.376 -45.845 15.641
v -3.375 -45.846 15.642
v -3.375 -45.847 15.641
v -3.373 -45.845 15.641
v -3.375 -45.845 15.640
v -3.375 -45.844 15.641
v 7.492 -39.218 28.475
v 7.520 -39.006 28.934
v 7.643 -39.539 28.471
v 7.783 -39.025 29.228
v 7.877 -39.558 28.589
v 8.057 -39.068 29.147
v 7.627 -39.534 28.093
v 7.830 -39.721 28.062
v 7.808 -39.455 27.862
v 8.051 -39.439 28.395
v 7.989 -39.553 27.902
v 7.875 -38.298 29.913
v 8.063 -38.067 30.131
v 8.024 -38.624 29.750
v 8.170 -38.317 29.790
v 7.447 -38.485 29.000
v 7.597 -38.189 29.618
v 8.178 -38.683 29.043
v 7.603 -38.846 28.371
v 7.851 -38.928 28.051
v 8.111 -39.067 28.257
v 7.988 -39.253 27.863
v 7.891 -37.507 30.196
v 8.133 -37.698 30.202
v 8.153 -37.709 29.805
v 7.459 -37.713 29.562
v 7.590 -37.370 29.960
v 8.096 -38.223 28.915
v 7.532 -37.821 29.180
v 8.011 -38.733 28.231
v 7.822 -38.081 28.789
v 8.091 -37.346 30.251
v 7.542 -37.225 29.762
v 7.739 -36.988 30.069
v 7.976 -37.092 30.125
v 7.963 -37.352 29.597
v 7.716 -37.188 29.621
v 7.852 -36.907 29.967
v -22.301 -17.971 -22.523
v -22.301 -17.971 -22.525
v -22.301 -17.969 -22.523
v -22.299 -17.970 -22.525
v -22.299 -17.969 -22.522
v -22.299 -17.971 -22.523
v 43.138 -16.369 -22.659
v 43.316 -16.434 -21.517
v 43.841 -16.883 -23.007
v 44.021 -16.826 -22.312
v -22.301 -17.971 -22.521
v -22.299 -17.972 -22.521
v 43.775 -16.622 -24.327
v 43.210 -15.848 -24.252
v 44.424 -16.927 -23.277
v 44.524 -16.762 -24.463
v 44.936 -16.404 -24.127
v 43.816 -16.254 -25.465
v 44.500 -16.389 -25.749
v 44.278 -15.935 -26.320
v 45.356 -16.056 -25.907
v 45.124 -15.666 -26.803
v 42.737 -15.958 -21.180
v 42.699 -15.658 -20.489
v 42.861 -16.020 -20.642
v 43.180 -15.726 -20.777
v -22.301 -17.973 -22.523
v -22.299 -17.973 -22.524
v 42.712 -15.552 -22.383
v 43.945 -16.234 -21.808
v 44.477 -16.619 -22.792
v 44.649 -15.836 -23.071
v 42.889 -14.998 -23.615
v 45.424 -15.337 -25.202
v 43.723 -15.675 -25.756
v 43.455 -14.845 -25.188
v 45.885 -15.565 -27.008
v 46.007 -15.506 -26.642
v 46.152 -15.321 -27.150
v 44.355 -15.131 -26.505
v 45.098 -15.063 -27.029
v 45.692 -15.090 -27.061
v 42.617 -15.267 -21.107
v 42.814 -15.221 -20.595
v 43.243 -15.012 -21.022
v 42.785 -14.717 -22.405
v 43.898 -15.321 -21.790
v 44.566 -14.814 -23.393
v 43.186 -14.280 -23.981
v 44.981 -14.425 -24.848
v 44.052 -14.356 -26.037
v 43.647 -14.070 -25.215
v 44.185 -13.950 -25.705
v 45.986 -15.142 -26.689
v 45.432 -14.638 -26.144
v 44.848 -14.483 -26.515
v 42.965 -14.691 -21.423
v 43.353 -14.163 -22.934
v 43.685 -14.526 -22.183
v 43.821 -13.865 -24.548
v 44.202 -14.093 -23.834
v 44.642 -14.034 -25.383
v 66.542 6.432 6.504
v 66.543 6.432 6.505
v 66.543 6.431 6.504
v 66.544 6.432 6.504
v 66.543 6.432 6.503
v 66.543 6.433 6.504

# Normal Array
vn -0.595 -0.652 0.470
vn 0.546 -0.684 0.484
vn -0.591 -0.461 -0.662
vn 0.559 -0.490 -0.669
vn -0.573 0.508 0.643
vn 0.604 0.477 0.638
vn -0.564 0.697 -0.444
vn 0.612 0.663 -0.431
vn -0.875 -0.416 0.248
vn -0.348 -0.745 0.570
vn -0.621 -0.590 0.516
vn 0.071 -0.761 0.645
vn -0.904 -0.427 0.031
vn -0.579 -0.519 -0.628
vn -0.678 -0.735 0.018
vn -0.230 -0.924 0.306
vn 0.740 -0.606 0.293
vn 0.673 -0.721 0.163
vn -0.150 -0.602 -0.785
vn 0.751 -0.658 0.057
vn -0.279 -0.529 0.801
vn 0.734 -0.418 0.535
vn -0.936 -0.170 0.308
vn -0.979 -0.154 0.133
vn -0.500 -0.559 0.661
vn -0.733 -0.415 0.539
vn -0.688 -0.427 0.586
vn 0.050 -0.803 0.595
vn 0.820 -0.438 0.368
vn 0.955 -0.262 0.139
vn -0.925 0.183 -0.333
vn -0.889 0.144 -0.434
vn -0.804 0.198 -0.561
vn -0.720 0.286 -0.632
vn 0.956 -0.266 0.123
vn 0.987 -0.161 -0.005
vn -0.375 0.340 -0.862
vn 0.150 -0.127 -0.981
vn 0.979 -0.187 -0.080
vn 0.958 -0.033 -0.284
vn -0.151 -0.160 0.976
vn -0.573 -0.266 0.776
vn 0.857 -0.250 0.450
vn 0.998 0.025 0.050
vn -0.868 -0.197 0.455
vn -0.917 -0.226 0.330
vn -0.748 -0.210 0.629
vn -0.668 -0.291 0.684
vn 1.000 0.027 -0.002
vn 0.981 0.135 -0.141
vn -0.954 0.185 -0.235
vn -0.914 0.210 -0.346
vn 0.043 0.657 -0.752
vn -0.613 0.507 -0.606
vn -0.479 0.523 -0.705
vn 0.569 0.624 -0.535
vn 0.920 0.251 -0.301
vn 0.980 0.133 -0.149
vn 0.221 0.556 -0.801
vn 0.891 0.235 -0.389
vn -0.146 -0.154 0.977
vn 0.992 0.113 0.047
vn -0.961 0.054 0.270
vn -0.891 0.237 0.387
vn -0.612 0.013 0.790
vn -0.141 0.196 0.970
vn -0.434 0.239 0.869
vn 0.927 0.344 -0.150
vn 0.909 0.365 -0.202
vn 0.908 0.336 -0.252
vn -0.931 0.262 -0.252
vn -0.453 0.822 -0.344
vn -0.586 0.571 -0.575
vn -0.397 0.600 -0.695
vn 0.567 0.559 -0.604
vn 0.370 0.656 -0.658
vn 0.140 0.696 0.705
vn 0.886 0.407 -0.222
vn -0.705 0.660 -0.259
vn 0.364 0.648 -0.669
vn -0.943 0.224 -0.247
vn 0.262 0.894 -0.364
vn -0.314 0.637 -0.704
vn 0.964 0.245 -0.100
vn -0.576 -0.817 0.043
vn -0.333 -0.929 0.163
vn -0.954 0.248 0.166
vn -0.299 0.732 0.613
vn 0.262 0.368 0.892
vn 0.956 0.083 0.282
vn -0.624 -0.772 -0.122
vn -0.798 -0.562 -0.220
vn -0.033 -0.995 0.091
vn -0.142 -0.979 -0.148
vn -0.213 -0.960 -0.180
vn 0.676 -0.735 -0.045
vn -0.799 -0.564 -0.211
vn -0.361 -0.793 -0.491
vn -0.304 -0.903 -0.303
vn -0.224 -0.937 -0.268
vn 0.653 -0.757 0.006
vn 0.305 -0.913 -0.270
vn -0.089 -0.796 -0.599
vn 0.254 -0.861 -0.440
vn -0.876 -0.458 0.151
vn 0.494 -0.140 0.858
vn -0.952 -0.202 -0.229
vn 0.272 -0.383 -0.883
vn -0.279 -0.705 -0.652
vn 0.953 -0.147 -0.263
vn -0.615 -0.787 0.053
vn -0.616 -0.786 0.051
vn -0.897 -0.425 -0.125
vn 0.747 -0.372 0.550
vn 0.489 -0.528 0.694
vn 0.487 -0.585 0.649
vn 0.674 -0.467 0.572
vn 0.876 -0.020 0.482
vn -0.960 -0.182 0.211
vn -0.306 -0.622 0.721
vn 0.311 -0.880 0.359
vn 0.939 -0.318 0.130
vn -0.896 -0.408 -0.174
vn -0.955 -0.192 -0.224
vn 0.665 -0.661 0.347
vn 0.849 -0.484 0.214
vn 0.946 -0.097 0.309
vn 0.942 -0.112 0.316
vn -0.887 -0.313 -0.339
vn -0.941 -0.078 -0.330
vn -0.934 -0.094 -0.345
vn -0.740 -0.393 -0.546
vn 0.597 -0.800 -0.069
vn 0.808 -0.450 0.380
vn 0.950 -0.261 0.173
vn 0.645 -0.759 -0.092
vn -0.804 0.136 -0.579
vn -0.730 -0.086 -0.678
vn -0.451 -0.159 -0.878
vn -0.527 -0.317 -0.788
vn 0.013 -0.916 -0.402
vn -0.230 -0.198 -0.953
vn -0.066 -0.352 -0.934
vn -0.293 -0.222 -0.930
vn -0.896 0.312 0.316
vn -0.985 -0.173 0.021
vn 0.520 0.070 0.851
vn 0.642 0.198 0.741
vn -0.985 -0.167 -0.036
vn -0.992 0.084 -0.093
vn 0.780 0.141 0.610
vn 0.810 0.030 0.586
vn 0.868 0.035 0.495
vn 0.878 0.207 0.431
vn -0.991 0.084 -0.105
vn -0.938 0.310 -0.153
vn 0.907 0.192 0.375
vn 0.892 0.303 0.336
vn -0.852 0.195 -0.487
vn -0.926 0.219 -0.308
vn -0.924 0.224 -0.310
vn -0.601 0.615 -0.510
vn 0.926 0.101 0.363
vn 0.797 0.482 0.364
vn 0.904 0.339 0.259
vn 0.948 0.094 0.304
vn -0.823 0.020 -0.567
vn -0.305 0.662 -0.685
vn -0.447 0.328 -0.832
vn -0.551 0.408 -0.728
vn 0.489 0.829 -0.271
vn 0.419 0.856 -0.304
vn -0.009 0.662 -0.750
vn 0.409 0.891 -0.199
vn -0.766 0.595 0.241
vn 0.152 0.820 0.552
vn -0.646 0.757 0.098
vn -0.814 0.565 0.134
vn 0.762 0.440 0.475
vn 0.297 0.835 0.463
vn 0.176 0.914 0.365
vn 0.774 0.435 0.460
vn -0.550 0.835 -0.006
vn -0.685 0.728 0.028
vn 0.266 0.908 0.322
vn 0.156 0.962 0.223
vn 0.724 0.587 0.364
vn 0.713 0.590 0.378
vn -0.599 0.796 -0.088
vn -0.370 0.911 -0.183
vn 0.189 0.982 -0.013
vn 0.322 0.938 0.127
vn 0.669 0.734 0.112
vn 0.591 0.783 0.197
vn 0.364 0.887 -0.286
vn 0.404 0.873 -0.273
vn -0.614 -0.640 0.461
vn 0.564 -0.670 0.483
vn -0.593 -0.440 -0.675
vn 0.586 -0.499 -0.638
vn -0.584 0.502 0.638
vn 0.586 0.444 0.678
vn -0.564 0.676 -0.474
vn 0.609 0.650 -0.455

# Facets
f 1//1 3//1 2//1
f 4//2 2//2 3//2
f 5//3 3//3 1//3
f 5//4 4//4 3//4
f 1//5 2//5 6//5
f 6//6 2//6 4//6
f 5//7 1//7 6//7
f 6//8 4//8 5//8
f 7//9 9//9 8//9
f 10//10 9//10 11//10
f 10//11 8//11 9//11
f 12//12 10//12 11//12
f 13//13 9//13 7//13
f 14//14 13//14 15//14
f 9//15 13//15 14//15
f 11//16 9//16 14//16
f 11//17 16//17 12//17
f 11//18 14//18 16//18
f 17//19 14//19 15//19
f 17//20 16//20 14//20
f 18//21 20//21 19//21
f 21//22 19//22 20//22
f 22//23 8//23 23//23
f 22//24 7//24 8//24
f 20//25 18//25 10//25
f 10//26 18//26 23//26
f 10//27 23//27 8//27
f 12//28 20//28 10//28
f 21//29 20//29 12//29
f 24//30 21//30 12//30
f 25//31 7//31 22//31
f 25//32 13//32 7//32
f 13//33 25//33 15//33
f 25//34 26//34 15//34
f 24//35 12//35 16//35
f 27//36 24//36 16//36
f 28//37 15//37 26//37
f 28//38 17//38 15//38
f 17//39 27//39 16//39
f 17//40 28//40 27//40
f 29//41 19//41 30//41
f 29//42 18//42 19//42
f 21//43 30//43 19//43
f 21//44 31//44 30//44
f 32//45 23//45 33//45
f 32//46 22//46 23//46
f 18//47 29//47 23//47
f 29//48 33//48 23//48
f 31//49 21//49 24//49
f 34//50 31//50 24//50
f 35//51 22//51 32//51
f 35//52 25//52 22//52
f 36//53 26//53 37//53
f 37//54 26//54 25//54
f 37//55 25//55 35//55
f 34//56 36//56 37//56
f 27//57 36//57 34//57
f 24//58 27//58 34//58
f 28//59 26//59 36//59
f 36//60 27//60 28//60
f 29//61 30//61 38//61
f 38//62 30//62 31//62
f 32//63 33//63 39//63
f 39//64 33//64 40//64
f 33//65 29//65 40//65
f 40//66 29//66 41//66
f 41//67 29//67 38//67
f 31//68 41//68 38//68
f 42//69 41//69 31//69
f 34//70 42//70 31//70
f 35//71 32//71 39//71
f 43//72 39//72 40//72
f 35//73 39//73 43//73
f 37//74 35//74 43//74
f 37//75 42//75 34//75
f 37//76 43//76 42//76
f 40//77 41//77 44//77
f 44//78 41//78 42//78
f 43//79 40//79 44//79
f 44//80 42//80 43//80
f 45//81 47//81 46//81
f 48//82 47//82 49//82
f 48//83 46//83 47//83
f 50//84 48//84 49//84
f 51//85 53//85 52//85
f 54//86 52//86 53//86
f 55//87 47//87 45//87
f 55//88 49//88 47//88
f 55//89 56//89 49//89
f 56//90 50//90 49//90
f 51//91 57//91 53//91
f 51//92 58//92 57//92
f 53//93 59//93 54//93
f 60//94 59//94 53//94
f 57//95 60//95 53//95
f 61//96 59//96 60//96
f 62//97 57//97 58//97
f 63//98 62//98 64//98
f 57//99 62//99 63//99
f 60//100 57//100 63//100
f 60//101 65//101 61//101
f 60//102 63//102 65//102
f 66//103 63//103 64//103
f 66//104 65//104 63//104
f 67//105 69//105 68//105
f 70//106 68//106 69//106
f 45//107 46//107 71//107
f 72//108 46//108 48//108
f 72//109 71//109 46//109
f 72//110 48//110 50//110
f 67//111 52//111 69//111
f 51//112 52//112 67//112
f 73//113 51//113 67//113
f 74//114 54//114 75//114
f 74//115 52//115 54//115
f 70//116 52//116 74//116
f 69//117 52//117 70//117
f 76//118 74//118 75//118
f 55//119 45//119 71//119
f 71//120 56//120 55//120
f 71//121 72//121 56//121
f 72//122 50//122 56//122
f 58//123 51//123 73//123
f 58//124 73//124 77//124
f 75//125 54//125 59//125
f 61//126 75//126 59//126
f 76//127 75//127 61//127
f 78//128 76//128 61//128
f 58//129 79//129 62//129
f 80//130 79//130 58//130
f 77//131 80//131 58//131
f 64//132 62//132 79//132
f 81//133 82//133 65//133
f 65//134 82//134 78//134
f 65//135 78//135 61//135
f 83//136 82//136 81//136
f 84//137 79//137 80//137
f 84//138 64//138 79//138
f 66//139 64//139 84//139
f 85//140 66//140 84//140
f 66//141 81//141 65//141
f 86//142 81//142 66//142
f 85//143 86//143 66//143
f 86//144 83//144 81//144
f 87//145 68//145 88//145
f 87//146 67//146 68//146
f 70//147 88//147 68//147
f 70//148 89//148 88//148
f 73//149 67//149 87//149
f 73//150 87//150 90//150
f 89//151 70//151 91//151
f 70//152 74//152 91//152
f 76//153 91//153 74//153
f 76//154 92//154 91//154
f 77//155 73//155 90//155
f 77//156 90//156 93//156
f 92//157 76//157 78//157
f 94//158 92//158 78//158
f 80//159 96//159 95//159
f 93//160 96//160 80//160
f 77//161 93//161 80//161
f 95//162 96//162 97//162
f 82//163 98//163 78//163
f 78//164 98//164 99//164
f 78//165 99//165 94//165
f 98//166 82//166 83//166
f 84//167 80//167 95//167
f 100//168 95//168 97//168
f 84//169 95//169 100//169
f 85//170 84//170 100//170
f 86//171 99//171 98//171
f 100//172 99//172 86//172
f 85//173 100//173 86//173
f 98//174 83//174 86//174
f 87//175 88//175 101//175
f 101//176 88//176 89//176
f 90//177 101//177 102//177
f 90//178 87//178 101//178
f 103//179 89//179 91//179
f 101//180 89//180 103//180
f 102//181 101//181 103//181
f 103//182 91//182 92//182
f 93//183 102//183 104//183
f 93//184 90//184 102//184
f 102//185 103//185 105//185
f 102//186 105//186 104//186
f 105//187 92//187 94//187
f 105//188 103//188 92//188
f 96//189 93//189 104//189
f 104//190 97//190 96//190
f 106//191 97//191 104//191
f 105//192 106//192 104//192
f 106//193 94//193 99//193
f 106//194 105//194 94//194
f 100//195 97//195 106//195
f 106//196 99//196 100//196
f 107//197 109//197 108//197
f 110//198 108//198 109//198
f 111//199 109//199 107//199
f 111//200 110//200 109//200
f 107//201 108//201 112//201
f 112//202 108//202 110//202
f 111//203 107//203 112//203
f 112//204 110//204 111//204

# Thankyou for using Spin3D

