# Created using Spin3D

# Vertex Array
v 20.624 -47.194 21.694
v 20.625 -47.194 21.695
v 20.625 -47.195 21.694
v 20.626 -47.194 21.694
v 20.625 -47.194 21.693
v 20.625 -47.193 21.694
v -6.224 -39.653 5.995
v -6.223 -39.655 5.992
v -6.223 -39.654 5.994
v -6.221 -39.656 5.992
v -6.223 -39.654 5.997
v -6.224 -39.659 5.998
v -6.222 -39.657 5.997
v -6.223 -39.659 6.000
v -15.289 -39.752 16.569
v -15.288 -39.752 16.571
v -15.288 -39.754 16.569
v -15.287 -39.752 16.569
v -15.288 -39.752 16.568
v -6.224 -39.658 5.994
v -6.223 -39.658 5.992
v -6.222 -39.660 5.996
v -6.225 -39.664 5.998
v -6.221 -39.662 6.000
v -6.223 -39.662 6.000
v -15.288 -39.751 16.570
v -6.223 -39.662 5.995
v -6.223 -39.664 5.998
v 45.295 -24.708 -26.504
v 45.719 -24.990 -26.318
v 45.638 -25.110 -26.533
v 45.897 -24.781 -26.263
v 45.415 -24.810 -26.679
v 44.824 -23.269 -25.716
v 45.598 -23.333 -25.179
v 45.786 -24.273 -25.744
v 46.448 -23.660 -24.868
v 46.668 -24.132 -25.141
v 46.895 -23.660 -24.791
v 43.509 -22.683 -26.617
v 43.833 -22.532 -26.101
v 44.454 -23.627 -26.398
v 46.437 -24.414 -25.622
v 46.786 -24.037 -25.240
v 43.809 -23.152 -26.885
v 43.253 -22.281 -26.872
v 44.660 -23.990 -26.862
v 45.406 -24.220 -26.634
v 46.205 -24.020 -25.897
v 43.886 -22.919 -27.030
v 44.667 -23.462 -26.912
v 20.954 -27.704 14.255
v 20.952 -27.704 14.255
v 20.951 -27.702 14.255
v 20.950 -27.705 14.255
v 20.952 -27.702 14.254
v 20.954 -27.704 14.253
v 20.950 -27.703 14.253
v 20.952 -27.704 14.253
v 44.589 -22.303 -25.454
v 46.003 -22.930 -24.773
v 46.363 -22.809 -24.668
v 46.701 -23.235 -24.560
v 43.089 -21.826 -26.462
v 43.382 -21.644 -26.016
v 46.728 -23.139 -24.712
v 46.625 -23.462 -25.179
v 42.979 -21.435 -26.627
v 45.930 -23.156 -25.767
v 45.283 -23.324 -26.448
v 43.427 -22.037 -26.884
v 44.234 -22.555 -26.772
v 20.952 -27.706 14.255
v 20.951 -27.706 14.253
v 45.547 -22.392 -25.018
v 42.886 -21.081 -26.273
v 43.415 -21.211 -25.921
v 44.432 -21.760 -25.704
v 43.284 -20.992 -26.120
v 45.930 -22.650 -25.209
v 43.608 -21.543 -26.433
v 42.917 -20.914 -26.360
v 44.924 -22.400 -26.094
v 51.394 -15.632 -30.838
v 51.394 -15.550 -30.894
v 51.392 -15.674 -30.805
v 51.396 -15.509 -30.924
v 51.397 -15.491 -30.940
v 51.398 -15.246 -31.115
v 51.399 -15.377 -31.021
v 51.399 -15.246 -31.115
v 34.820 -15.872 -21.748
v 34.821 -15.872 -21.750
v 34.821 -15.870 -21.748
v 34.822 -15.871 -21.750
v 34.822 -15.870 -21.747
v 34.823 -15.872 -21.748
v 34.821 -15.872 -21.746
v 34.822 -15.873 -21.746
v 42.907 -20.783 -26.169
v 51.394 -15.524 -30.911
v 51.399 -15.175 -31.164
v 51.398 -15.278 -31.088
v 51.403 -15.059 -31.247
v 51.403 -14.990 -31.299
v 51.403 -14.859 -31.393
v 51.404 -14.989 -31.299
v 51.405 -14.745 -31.474
v 34.821 -15.874 -21.748
v 34.822 -15.874 -21.749
v -22.701 -11.353 -25.768
v -22.552 -11.363 -25.720
v -23.152 -11.319 -25.927
v -21.994 -11.404 -25.520
v -21.864 -11.413 -25.479
v -21.287 -11.452 -25.277
v -21.287 -11.454 -25.278
v -21.035 -11.470 -25.193
v -23.424 -11.301 -26.018
v -23.516 -11.292 -26.050
v -23.682 -11.282 -26.105
v -22.980 -11.334 -25.860
v -22.553 -11.363 -25.711
v -21.864 -11.411 -25.474
v -21.287 -11.451 -25.279
v -23.517 -11.296 -26.046
v -23.154 -11.321 -25.918
v 51.404 -14.953 -31.321
v -38.633 -9.856 -33.471
v -38.632 -9.857 -33.469
v -38.632 -9.858 -33.471
v -38.630 -9.856 -33.470
v 51.406 -14.725 -31.486
v 51.408 -14.707 -31.497
v 51.408 -14.683 -31.516
v -38.632 -9.856 -33.472
v 51.408 -14.603 -31.576
v -22.978 -11.331 -25.865
v -21.994 -11.401 -25.523
v -21.287 -11.453 -25.280
v -23.426 -11.300 -26.014
v -22.702 -11.351 -25.764
v -38.631 -9.855 -33.470
v 51.410 -14.559 -31.605
v 53.482 -7.604 -36.550
v 53.483 -7.604 -36.554
v 53.482 -7.605 -36.553
v 53.482 -7.605 -36.549
v 53.479 -7.604 -36.547
v 53.478 -7.606 -36.545
v 53.479 -7.604 -36.550
v 53.476 -7.605 -36.547
v 53.478 -7.605 -36.548
v 53.475 -7.605 -36.545
v 53.474 -7.606 -36.545
v 53.481 -7.605 -36.551
v 53.480 -7.606 -36.548
v 53.478 -7.606 -36.546
v 7.394 -5.723 28.185
v 7.334 -5.789 28.500
v 7.481 -5.985 28.127
v 7.496 -5.920 28.230
v 7.603 -6.000 27.940
v 7.631 -5.756 28.009
v 7.588 -5.901 27.819
v 7.693 -5.829 27.731
v 7.200 -5.525 28.714
v 7.118 -5.469 28.999
v 7.197 -5.580 28.860
v 7.195 -5.412 28.912
v 7.295 -5.449 28.379
v 7.414 -5.545 28.507
v 7.638 -5.388 28.093
v 7.567 -5.640 27.758
v 7.464 -5.338 27.995
v 7.696 -5.625 27.585
v 7.737 -5.439 27.719
v 7.644 -5.391 27.615
v 7.733 -5.301 27.548
v 7.172 -5.330 28.876
v 7.308 -5.198 28.477
v 7.354 -5.160 28.603
v 7.544 -5.167 28.314
v 7.677 -5.082 27.969
v 7.638 -5.102 27.729
v 7.492 -5.006 28.071
v 7.728 -5.095 27.694
v 7.615 -4.916 27.961
v 7.458 -4.937 28.296
v 7.546 -4.946 28.246
v 18.865 27.359 -5.605
v 18.866 27.359 -5.604
v 18.866 27.358 -5.605
v 18.867 27.359 -5.605
v 18.866 27.359 -5.606
v 18.866 27.360 -5.605

# Normal Array
vn -0.580 -0.666 0.469
vn 0.577 -0.705 0.412
vn -0.586 -0.467 -0.663
vn 0.583 -0.524 -0.621
vn -0.583 0.472 0.661
vn 0.617 0.458 0.640
vn -0.583 0.661 -0.473
vn 0.616 0.640 -0.459
vn -0.266 0.765 -0.587
vn 0.389 0.800 -0.456
vn 0.271 0.938 0.215
vn -0.720 0.348 0.601
vn 0.824 0.536 0.182
vn 0.893 0.449 0.038
vn -0.829 0.369 0.421
vn 0.834 0.269 0.481
vn -0.569 -0.651 0.502
vn 0.569 -0.651 0.502
vn -0.583 -0.472 -0.661
vn 0.583 -0.472 -0.661
vn -0.879 0.123 -0.461
vn -0.812 0.018 -0.584
vn -0.233 0.087 -0.969
vn 0.713 -0.479 -0.511
vn -1.000 -0.018 -0.007
vn -0.999 0.049 -0.002
vn 0.999 -0.021 0.038
vn 1.000 -0.006 -0.025
vn -0.817 0.008 0.576
vn -0.887 -0.100 0.451
vn 0.724 0.451 0.521
vn -0.252 -0.082 0.964
vn -0.550 0.476 0.686
vn 0.550 0.476 0.686
vn -0.562 0.696 -0.447
vn 0.562 0.696 -0.447
vn -0.827 -0.357 -0.434
vn 0.829 -0.300 -0.472
vn 0.225 -0.944 -0.243
vn -0.713 -0.338 -0.614
vn 0.808 -0.560 -0.183
vn 0.876 -0.480 -0.044
vn -0.346 -0.711 0.613
vn 0.247 -0.807 0.537
vn -0.617 -0.565 0.548
vn 0.749 -0.657 0.081
vn -0.757 -0.635 -0.153
vn 0.645 0.111 -0.756
vn -0.517 -0.515 0.684
vn -0.389 -0.591 0.707
vn -0.463 -0.523 0.716
vn -0.141 -0.545 0.826
vn -0.648 -0.519 0.558
vn -0.614 -0.511 0.601
vn -0.568 -0.561 0.602
vn -0.565 -0.504 0.654
vn -0.597 -0.466 0.653
vn 0.474 -0.577 0.666
vn -0.275 -0.716 0.642
vn -0.274 -0.767 0.580
vn 0.742 -0.591 0.316
vn 0.676 -0.730 0.102
vn -0.706 -0.633 0.317
vn -0.843 -0.538 -0.002
vn -0.721 -0.686 -0.098
vn -0.775 -0.616 0.138
vn -0.685 -0.689 0.235
vn 0.313 0.077 -0.947
vn 0.649 0.067 -0.757
vn 0.663 0.089 -0.743
vn 0.765 0.000 -0.644
vn 0.749 -0.022 -0.662
vn -0.519 -0.320 -0.792
vn -0.370 -0.399 -0.839
vn 0.083 -0.096 -0.992
vn 0.264 -0.095 -0.960
vn 0.175 0.084 0.981
vn -0.242 0.000 0.970
vn 0.523 0.759 0.389
vn 0.805 0.559 -0.198
vn -0.809 0.484 0.333
vn -0.482 0.861 -0.163
vn 0.264 0.330 -0.906
vn -0.143 0.435 -0.889
vn -0.517 -0.291 0.805
vn -0.555 -0.340 0.759
vn -0.285 0.018 0.958
vn -0.413 -0.360 0.836
vn -0.443 -0.375 0.815
vn -0.143 -0.523 0.840
vn -0.680 -0.404 0.611
vn -0.695 -0.444 0.566
vn -0.549 -0.340 0.763
vn -0.545 -0.350 0.762
vn 0.613 0.613 0.497
vn 0.916 0.246 0.317
vn 0.845 0.335 -0.417
vn 0.849 0.284 -0.445
vn -0.875 -0.458 0.158
vn -0.955 -0.292 -0.057
vn 0.649 0.311 -0.694
vn 0.625 0.240 -0.743
vn 0.725 0.270 -0.634
vn 0.690 0.318 -0.651
vn -0.304 0.173 -0.937
vn -0.169 0.075 -0.983
vn 0.344 0.301 -0.889
vn 0.327 0.318 -0.890
vn 0.549 0.242 -0.800
vn 0.508 0.363 -0.782
vn 0.263 -0.327 0.908
vn -0.143 -0.410 0.901
vn 0.503 -0.753 -0.424
vn 0.799 -0.567 0.200
vn -0.823 -0.416 -0.388
vn -0.514 -0.848 0.130
vn 0.173 -0.092 -0.981
vn -0.252 0.014 -0.968
vn -0.408 0.069 0.910
vn -0.323 0.152 0.934
vn -0.572 -0.134 0.809
vn -0.712 -0.348 0.609
vn -0.484 -0.153 0.862
vn 0.038 0.426 0.904
vn -0.373 0.296 0.879
vn 0.258 0.729 0.634
vn 0.623 0.728 -0.285
vn 0.501 0.852 -0.151
vn 0.530 0.844 -0.083
vn 0.657 0.544 -0.521
vn 0.333 0.462 -0.822
vn -0.959 0.029 -0.282
vn -0.964 -0.266 0.012
vn 0.513 0.632 -0.581
vn 0.600 0.632 -0.491
vn 0.568 0.700 -0.433
vn 0.575 0.478 -0.665
vn 0.613 0.586 -0.530
vn 0.562 0.700 -0.440
vn 0.666 0.553 -0.500
vn -0.868 -0.281 -0.409
vn 0.928 0.203 0.313
vn 0.330 0.567 -0.754
vn 0.433 0.516 -0.739
vn 0.523 0.544 -0.656
vn 0.559 0.477 -0.678
vn -0.744 -0.379 -0.551
vn -0.577 -0.474 -0.665
vn 0.987 0.081 0.141
vn 0.062 0.581 0.811
vn -0.293 -0.556 -0.778
vn 0.168 -0.577 -0.799
vn -0.951 0.227 -0.211
vn 0.283 0.883 -0.374
vn -0.309 0.628 -0.715
vn 0.947 0.295 -0.125
vn -0.954 0.247 0.169
vn -0.318 0.725 0.611
vn 0.296 0.372 0.880
vn 0.941 0.132 0.313
vn -0.578 -0.234 0.781
vn 0.329 0.735 0.593
vn -0.985 0.113 -0.129
vn 0.471 0.739 -0.481
vn -0.999 0.039 0.032
vn 0.860 0.285 0.424
vn -0.819 0.344 0.459
vn -0.997 0.054 0.056
vn -0.998 -0.024 -0.053
vn 0.833 0.315 0.456
vn 0.751 0.377 0.542
vn 0.905 0.238 0.352
vn -0.293 -0.555 -0.779
vn -0.287 -0.556 -0.780
vn -1.000 -0.002 -0.021
vn 0.315 -0.555 -0.770
vn 0.358 -0.547 -0.757
vn 1.000 -0.020 -0.010
vn -0.115 -0.577 -0.809
vn 0.314 -0.554 -0.771
vn -0.959 -0.209 -0.189
vn 0.260 -0.364 -0.894
vn -0.314 -0.704 -0.637
vn 0.946 -0.122 -0.300
vn 0.089 -0.891 -0.445
vn -0.036 -0.994 -0.100
vn 0.053 -0.937 -0.346
vn -0.277 -0.688 0.670
vn -0.038 -0.995 -0.093
vn -0.273 -0.688 0.672
vn -0.966 -0.173 0.191
vn -0.236 -0.652 0.721
vn 0.280 -0.872 0.403
vn 0.941 -0.307 0.142
vn 0.264 -0.412 -0.872
vn 0.268 -0.397 -0.878
vn 0.120 -0.844 -0.524
vn -0.017 -0.987 -0.158
vn -0.313 -0.497 0.809
vn -0.254 -0.776 0.577
vn -0.042 -0.996 -0.084
vn -0.309 -0.524 0.794
vn -0.006 0.975 0.221
vn -0.002 0.975 0.221
vn 0.116 -0.843 -0.526
vn 0.072 -0.917 -0.392
vn -0.182 -0.923 0.340
vn -0.195 -0.903 0.383
vn -0.843 0.323 0.430
vn 0.871 0.276 0.406
vn -0.630 -0.620 0.468
vn 0.554 -0.665 0.501
vn -0.821 0.341 0.459
vn -0.741 0.399 0.540
vn -0.908 0.254 0.334
vn 0.864 0.283 0.416
vn 0.998 0.031 0.063
vn 0.997 -0.051 -0.052
vn -0.581 -0.482 -0.656
vn 0.573 -0.485 -0.660
vn -0.987 0.105 0.119
vn -0.001 0.582 0.813
vn 0.550 -0.489 -0.678
vn 0.713 -0.419 -0.562
vn 0.208 0.885 -0.417
vn 0.327 0.412 -0.850
vn 0.232 0.837 -0.495
vn -0.005 -0.982 -0.187
vn 0.329 0.087 -0.940
vn -0.001 -0.982 -0.187
vn -0.107 0.873 0.475
vn 0.189 0.915 -0.356
vn -0.063 0.924 0.377
vn 0.014 0.987 0.158
vn -0.117 0.849 0.514
vn 0.034 0.994 0.106
vn 0.040 0.995 0.090
vn 0.032 0.993 0.111
vn 0.290 0.648 -0.705
vn 0.289 0.648 -0.705
vn -0.310 0.224 0.924
vn -0.309 0.228 0.923
vn -0.158 0.775 0.612
vn -0.162 0.765 0.623
vn -0.590 0.508 0.628
vn 0.562 0.465 0.684
vn -0.847 0.322 0.422
vn 0.998 0.022 0.052
vn -0.568 0.680 -0.463
vn 0.609 0.613 -0.503
vn -0.930 0.228 0.287
vn 0.953 0.135 0.271
vn 0.233 0.964 0.128
vn 0.315 0.947 -0.066
vn 0.863 -0.302 -0.405
vn 0.477 0.623 0.620
vn 0.016 0.988 0.155
vn -0.736 0.324 -0.595
vn 0.020 0.994 0.107
vn -0.244 0.907 -0.342
vn 0.211 0.778 0.591
vn -0.189 0.980 -0.068
vn -0.574 0.576 -0.582
vn -0.531 0.750 -0.393
vn -0.530 -0.513 -0.676
vn 0.442 -0.895 0.062
vn -0.242 -0.900 -0.362
vn 0.493 -0.805 0.332
vn -0.675 -0.288 -0.679
vn -0.650 -0.107 -0.752
vn -0.067 -0.985 -0.157
vn -0.515 -0.760 -0.397
vn -0.230 -0.956 0.181
vn -0.030 -0.997 0.072
vn -0.022 -0.987 -0.159
vn 0.213 -0.383 0.899
vn -0.938 -0.259 -0.232
vn 0.515 -0.757 0.401
vn 0.166 -0.845 0.508
vn 0.897 -0.210 0.390
vn -0.902 -0.216 -0.373
vn -0.692 -0.598 -0.404
vn 0.004 -0.775 -0.632
vn 0.949 -0.179 0.260
vn -0.893 -0.415 -0.176
vn 0.793 -0.171 0.585
vn -0.925 -0.348 -0.151
vn -0.930 -0.282 -0.236
vn -0.945 -0.131 -0.298
vn 0.849 -0.146 0.508
vn 0.829 -0.284 0.482
vn 0.765 -0.266 0.587
vn 0.887 -0.132 0.442
vn 0.892 -0.117 0.437
vn -0.902 -0.168 -0.397
vn -0.926 -0.018 -0.377
vn -0.910 -0.037 -0.412
vn -0.275 -0.556 -0.785
vn -0.774 -0.204 -0.599
vn 0.983 -0.117 -0.138
vn 0.965 -0.103 0.243
vn 0.961 -0.080 0.266
vn -0.902 0.032 -0.430
vn -0.791 -0.101 -0.603
vn -0.582 -0.027 -0.813
vn 0.984 -0.126 -0.126
vn -0.950 0.108 -0.293
vn 0.493 0.463 0.737
vn -0.670 0.742 0.016
vn -0.951 0.105 -0.291
vn -0.960 0.145 -0.240
vn 0.581 0.459 0.672
vn 0.882 0.021 0.471
vn 0.835 -0.006 0.550
vn 0.889 -0.075 0.452
vn 0.930 0.028 0.367
vn -0.888 0.171 -0.426
vn -0.926 0.156 -0.345
vn -0.918 0.186 -0.351
vn -0.294 0.731 -0.616
vn -0.754 0.473 -0.455
vn 0.922 0.356 0.153
vn 0.983 0.039 0.179
vn 0.966 -0.020 0.259
vn -0.885 0.154 -0.439
vn -0.725 0.239 -0.646
vn -0.339 0.539 -0.771
vn 1.000 0.026 -0.003
vn -0.821 0.557 0.126
vn 0.826 0.159 0.541
vn 0.424 0.658 0.623
vn 0.918 0.108 0.382
vn -0.905 0.349 -0.244
vn -0.723 0.623 -0.299
vn 0.185 0.972 0.148
vn 0.901 0.353 0.254
vn -0.583 -0.655 0.481
vn 0.577 -0.658 0.484
vn -0.570 -0.468 -0.676
vn 0.577 -0.465 -0.671
vn -0.579 0.468 0.668
vn 0.571 0.471 0.672
vn -0.576 0.657 -0.486
vn 0.581 0.654 -0.484

# Facets
f 1//1 3//1 2//1
f 4//2 2//2 3//2
f 5//3 3//3 1//3
f 5//4 4//4 3//4
f 1//5 2//5 6//5
f 6//6 2//6 4//6
f 5//7 1//7 6//7
f 6//8 4//8 5//8
f 7//9 9//9 8//9
f 10//10 8//10 9//10
f 7//11 11//11 9//11
f 7//12 12//12 11//12
f 9//13 13//13 10//13
f 9//14 11//14 13//14
f 14//15 11//15 12//15
f 14//16 13//16 11//16
f 15//17 17//17 16//17
f 18//18 16//18 17//18
f 19//19 17//19 15//19
f 19//20 18//20 17//20
f 20//21 8//21 21//21
f 20//22 7//22 8//22
f 10//23 21//23 8//23
f 10//24 22//24 21//24
f 12//25 7//25 20//25
f 12//26 20//26 23//26
f 22//27 10//27 13//27
f 24//28 22//28 13//28
f 25//29 12//29 23//29
f 25//30 14//30 12//30
f 14//31 24//31 13//31
f 14//32 25//32 24//32
f 15//33 16//33 26//33
f 26//34 16//34 18//34
f 19//35 15//35 26//35
f 26//36 18//36 19//36
f 20//37 21//37 27//37
f 27//38 21//38 22//38
f 23//39 27//39 28//39
f 23//40 20//40 27//40
f 28//41 22//41 24//41
f 28//42 27//42 22//42
f 25//43 23//43 28//43
f 28//44 24//44 25//44
f 29//45 31//45 30//45
f 32//46 30//46 31//46
f 33//47 31//47 29//47
f 33//48 32//48 31//48
f 34//49 36//49 35//49
f 37//50 36//50 38//50
f 37//51 35//51 36//51
f 39//52 37//52 38//52
f 40//53 42//53 41//53
f 42//54 34//54 41//54
f 42//55 36//55 34//55
f 29//56 36//56 42//56
f 30//57 36//57 29//57
f 30//58 32//58 36//58
f 36//59 32//59 43//59
f 36//60 43//60 38//60
f 38//61 44//61 39//61
f 38//62 43//62 44//62
f 40//63 45//63 42//63
f 40//64 46//64 45//64
f 33//65 29//65 47//65
f 47//66 29//66 42//66
f 47//67 42//67 45//67
f 48//68 33//68 47//68
f 48//69 32//69 33//69
f 49//70 32//70 48//70
f 43//71 32//71 49//71
f 49//72 44//72 43//72
f 50//73 45//73 46//73
f 50//74 47//74 45//74
f 50//75 51//75 47//75
f 51//76 48//76 47//76
f 52//77 54//77 53//77
f 55//78 53//78 54//78
f 52//79 56//79 54//79
f 52//80 57//80 56//80
f 54//81 58//81 55//81
f 54//82 56//82 58//82
f 59//83 56//83 57//83
f 59//84 58//84 56//84
f 60//85 35//85 61//85
f 60//86 34//86 35//86
f 61//87 63//87 62//87
f 37//88 63//88 61//88
f 35//89 37//89 61//89
f 63//90 37//90 39//90
f 64//91 41//91 65//91
f 64//92 40//92 41//92
f 34//93 60//93 41//93
f 60//94 65//94 41//94
f 62//95 63//95 66//95
f 39//96 66//96 63//96
f 67//97 66//97 39//97
f 44//98 67//98 39//98
f 46//99 40//99 64//99
f 46//100 64//100 68//100
f 69//101 49//101 70//101
f 49//102 48//102 70//102
f 49//103 67//103 44//103
f 49//104 69//104 67//104
f 71//105 46//105 68//105
f 71//106 50//106 46//106
f 72//107 51//107 50//107
f 72//108 50//108 71//108
f 51//109 70//109 48//109
f 51//110 72//110 70//110
f 52//111 53//111 73//111
f 73//112 53//112 55//112
f 57//113 73//113 74//113
f 57//114 52//114 73//114
f 74//115 55//115 58//115
f 74//116 73//116 55//116
f 59//117 57//117 74//117
f 74//118 58//118 59//118
f 60//119 61//119 75//119
f 75//120 61//120 62//120
f 76//121 65//121 77//121
f 76//122 64//122 65//122
f 65//123 60//123 77//123
f 77//124 60//124 78//124
f 78//125 60//125 75//125
f 78//126 79//126 77//126
f 80//127 62//127 66//127
f 75//128 62//128 80//128
f 78//129 75//129 80//129
f 80//130 66//130 67//130
f 68//131 82//131 81//131
f 76//132 82//132 68//132
f 64//133 76//133 68//133
f 82//134 79//134 81//134
f 81//135 79//135 78//135
f 81//136 78//136 83//136
f 83//137 69//137 70//137
f 80//138 69//138 83//138
f 78//139 80//139 83//139
f 80//140 67//140 69//140
f 84//141 86//141 85//141
f 87//142 86//142 84//142
f 71//143 68//143 81//143
f 81//144 72//144 71//144
f 81//145 83//145 72//145
f 83//146 70//146 72//146
f 85//147 88//147 84//147
f 85//148 89//148 88//148
f 84//149 90//149 87//149
f 84//150 88//150 90//150
f 91//151 88//151 89//151
f 91//152 90//152 88//152
f 92//153 94//153 93//153
f 95//154 94//154 96//154
f 95//155 93//155 94//155
f 97//156 95//156 96//156
f 98//157 94//157 92//157
f 98//158 96//158 94//158
f 98//159 99//159 96//159
f 99//160 97//160 96//160
f 76//161 77//161 100//161
f 100//162 77//162 79//162
f 82//163 76//163 100//163
f 100//164 79//164 82//164
f 85//165 86//165 101//165
f 101//166 86//166 87//166
f 102//167 101//167 103//167
f 85//168 101//168 102//168
f 89//169 85//169 102//169
f 87//170 103//170 101//170
f 104//171 103//171 87//171
f 90//172 104//172 87//172
f 89//173 105//173 91//173
f 106//174 105//174 89//174
f 102//175 106//175 89//175
f 107//176 91//176 105//176
f 90//177 91//177 107//177
f 104//178 90//178 107//178
f 108//179 105//179 106//179
f 108//180 107//180 105//180
f 92//181 93//181 109//181
f 110//182 93//182 95//182
f 110//183 109//183 93//183
f 110//184 95//184 97//184
f 111//185 113//185 112//185
f 111//186 115//186 114//186
f 112//187 115//187 111//187
f 114//188 117//188 116//188
f 115//189 117//189 114//189
f 117//190 118//190 116//190
f 98//191 92//191 109//191
f 109//192 99//192 98//192
f 109//193 110//193 99//193
f 110//194 97//194 99//194
f 119//195 121//195 120//195
f 113//196 119//196 120//196
f 113//197 111//197 119//197
f 111//198 122//198 119//198
f 123//199 114//199 124//199
f 123//200 122//200 114//200
f 122//201 111//201 114//201
f 116//202 124//202 114//202
f 125//203 124//203 116//203
f 118//204 125//204 116//204
f 119//205 126//205 121//205
f 122//206 126//206 119//206
f 127//207 126//207 122//207
f 123//208 127//208 122//208
f 102//209 103//209 128//209
f 128//210 103//210 104//210
f 129//211 131//211 130//211
f 132//212 130//212 131//212
f 133//213 128//213 134//213
f 102//214 128//214 133//214
f 106//215 102//215 133//215
f 104//216 134//216 128//216
f 135//217 134//217 104//217
f 107//218 135//218 104//218
f 136//219 131//219 129//219
f 136//220 132//220 131//220
f 137//221 106//221 133//221
f 137//222 108//222 106//222
f 108//223 135//223 107//223
f 108//224 137//224 135//224
f 112//225 113//225 138//225
f 112//226 139//226 115//226
f 138//227 139//227 112//227
f 115//228 140//228 117//228
f 139//229 140//229 115//229
f 117//230 140//230 118//230
f 120//231 121//231 141//231
f 120//232 138//232 113//232
f 120//233 141//233 138//233
f 141//234 142//234 138//234
f 124//235 142//235 123//235
f 124//236 139//236 142//236
f 139//237 138//237 142//237
f 125//238 139//238 124//238
f 140//239 139//239 125//239
f 118//240 140//240 125//240
f 121//241 126//241 141//241
f 127//242 141//242 126//242
f 142//243 141//243 127//243
f 123//244 142//244 127//244
f 129//245 130//245 143//245
f 143//246 130//246 132//246
f 133//247 134//247 144//247
f 144//248 134//248 135//248
f 136//249 129//249 143//249
f 143//250 132//250 136//250
f 133//251 144//251 137//251
f 145//252 147//252 146//252
f 148//253 145//253 149//253
f 147//254 145//254 148//254
f 137//255 144//255 135//255
f 150//256 148//256 149//256
f 151//257 145//257 146//257
f 152//258 151//258 153//258
f 145//259 151//259 152//259
f 149//260 145//260 152//260
f 149//261 154//261 150//261
f 149//262 152//262 154//262
f 155//263 152//263 153//263
f 155//264 154//264 152//264
f 146//265 147//265 156//265
f 157//266 147//266 148//266
f 157//267 156//267 147//267
f 157//268 148//268 150//268
f 151//269 146//269 156//269
f 156//270 153//270 151//270
f 158//271 153//271 156//271
f 157//272 158//272 156//272
f 158//273 150//273 154//273
f 158//274 157//274 150//274
f 155//275 153//275 158//275
f 158//276 154//276 155//276
f 159//277 161//277 160//277
f 162//278 161//278 163//278
f 162//279 160//279 161//279
f 164//280 162//280 163//280
f 165//281 161//281 159//281
f 165//282 163//282 161//282
f 165//283 166//283 163//283
f 166//284 164//284 163//284
f 167//285 169//285 168//285
f 170//286 168//286 169//286
f 167//287 160//287 169//287
f 159//288 160//288 167//288
f 171//289 159//289 167//289
f 170//290 169//290 172//290
f 172//291 169//291 160//291
f 172//292 160//292 162//292
f 164//293 172//293 162//293
f 164//294 173//294 172//294
f 159//295 174//295 165//295
f 175//296 174//296 159//296
f 171//297 175//297 159//297
f 166//298 165//298 176//298
f 165//299 174//299 176//299
f 177//300 166//300 176//300
f 164//301 166//301 177//301
f 173//302 164//302 177//302
f 178//303 174//303 175//303
f 178//304 176//304 174//304
f 178//305 179//305 176//305
f 179//306 177//306 176//306
f 167//307 168//307 180//307
f 180//308 168//308 170//308
f 181//309 180//309 182//309
f 167//310 180//310 181//310
f 171//311 167//311 181//311
f 180//312 170//312 182//312
f 182//313 170//313 172//313
f 182//314 172//314 183//314
f 173//315 183//315 172//315
f 173//316 184//316 183//316
f 175//317 186//317 185//317
f 181//318 186//318 175//318
f 171//319 181//319 175//319
f 187//320 185//320 188//320
f 185//321 186//321 188//321
f 184//322 187//322 188//322
f 177//323 187//323 184//323
f 173//324 177//324 184//324
f 178//325 175//325 185//325
f 185//326 179//326 178//326
f 185//327 187//327 179//327
f 187//328 177//328 179//328
f 181//329 182//329 189//329
f 190//330 182//330 183//330
f 190//331 189//331 182//331
f 190//332 183//332 184//332
f 186//333 181//333 189//333
f 189//334 188//334 186//334
f 189//335 190//335 188//335
f 190//336 184//336 188//336
f 191//337 193//337 192//337
f 194//338 192//338 193//338
f 195//339 193//339 191//339
f 195//340 194//340 193//340
f 191//341 192//341 196//341
f 196//342 192//342 194//342
f 195//343 191//343 196//343
f 196//344 194//344 195//344

# Thankyou for using Spin3D

