# Created using Spin3D

# Vertex Array
v -21.440 -47.534 27.378
v -21.439 -47.534 27.379
v -21.439 -47.535 27.378
v -21.438 -47.534 27.378
v -21.439 -47.534 27.377
v -21.439 -47.533 27.378
v 28.727 -12.257 12.250
v 28.727 -12.257 12.248
v 28.727 -12.255 12.250
v 28.729 -12.256 12.248
v 28.729 -12.255 12.251
v 28.729 -12.257 12.250
v 28.727 -12.256 12.252
v 28.729 -12.257 12.252
v 28.727 -12.259 12.250
v 28.729 -12.258 12.249
v 6.249 3.205 49.645
v 6.247 3.205 49.645
v 6.247 3.207 49.645
v 6.245 3.204 49.645
v 6.247 3.207 49.643
v 6.249 3.204 49.643
v 6.245 3.205 49.643
v 6.247 3.205 49.643
v 6.247 3.203 49.644
v 6.247 3.203 49.643
v -56.470 17.115 16.564
v -56.471 17.097 16.587
v -56.472 17.124 16.552
v -56.468 17.121 16.551
v -56.469 17.154 16.514
v -56.470 17.186 16.463
v -56.468 17.163 16.496
v -56.468 17.200 16.445
v -56.470 17.112 16.564
v -56.470 17.145 16.511
v -56.470 17.159 16.493
v -56.467 17.182 16.461
v -56.468 17.234 16.393
v -56.469 17.221 16.405
v -56.466 17.225 16.406
v -56.467 17.249 16.369
v -56.468 17.192 16.442
v -56.467 17.230 16.392

# Normal Array
vn -0.583 -0.661 0.472
vn 0.546 -0.682 0.487
vn -0.583 -0.472 -0.661
vn 0.556 -0.483 -0.676
vn -0.568 0.501 0.653
vn 0.595 0.490 0.637
vn -0.562 0.696 -0.447
vn 0.600 0.673 -0.433
vn -0.943 0.223 -0.247
vn 0.296 0.880 -0.372
vn -0.278 0.644 -0.712
vn 0.961 0.256 -0.108
vn -0.943 0.247 0.223
vn -0.236 0.721 0.652
vn 0.330 0.357 0.874
vn 0.948 0.093 0.304
vn -0.952 -0.202 -0.228
vn 0.248 -0.385 -0.889
vn -0.319 -0.695 -0.644
vn 0.956 -0.144 -0.255
vn -0.952 -0.178 0.247
vn -0.286 -0.635 0.717
vn 0.267 -0.888 0.375
vn 0.945 -0.302 0.128
vn 0.133 0.077 0.988
vn -0.247 -0.004 0.969
vn 0.518 0.752 0.408
vn 0.822 0.539 -0.183
vn -0.805 0.467 0.366
vn -0.502 0.852 -0.149
vn 0.224 0.293 -0.929
vn -0.155 0.380 -0.912
vn 0.216 -0.301 0.929
vn -0.168 -0.379 0.910
vn 0.498 -0.770 -0.400
vn 0.803 -0.564 0.192
vn -0.816 -0.444 -0.370
vn -0.528 -0.837 0.146
vn 0.131 -0.081 -0.988
vn -0.245 0.011 -0.969
vn -0.451 0.699 0.555
vn 0.950 0.233 0.209
vn -0.299 0.757 0.580
vn -0.879 0.399 0.263
vn 0.935 0.274 0.224
vn 0.952 0.236 0.197
vn -0.813 0.487 0.318
vn 0.879 0.391 0.273
vn -0.951 -0.254 -0.174
vn 0.152 -0.829 -0.538
vn -0.897 -0.366 -0.247
vn -0.954 -0.249 -0.168
vn -1.000 -0.008 -0.024
vn 0.246 -0.819 -0.518
vn 0.779 -0.522 -0.347
vn 1.000 0.001 0.012
vn -0.888 0.393 0.239
vn -0.948 0.276 0.158
vn -1.000 0.028 0.008
vn 0.317 0.798 0.513
vn 0.785 0.506 0.358
vn 0.999 -0.043 -0.012
vn -0.946 0.280 0.162
vn 0.230 0.813 0.534
vn -0.825 -0.462 -0.326
vn 0.886 -0.392 -0.249
vn -0.261 -0.761 -0.594
vn -0.886 -0.376 -0.273
vn 0.934 -0.292 -0.207
vn 0.950 -0.254 -0.180
vn -0.396 -0.713 -0.579
vn 0.952 -0.242 -0.187

# Facets
f 1//1 3//1 2//1
f 4//2 2//2 3//2
f 5//3 3//3 1//3
f 5//4 4//4 3//4
f 1//5 2//5 6//5
f 6//6 2//6 4//6
f 5//7 1//7 6//7
f 6//8 4//8 5//8
f 7//9 9//9 8//9
f 10//10 9//10 11//10
f 10//11 8//11 9//11
f 12//12 10//12 11//12
f 13//13 9//13 7//13
f 13//14 11//14 9//14
f 13//15 14//15 11//15
f 14//16 12//16 11//16
f 7//17 8//17 15//17
f 16//18 8//18 10//18
f 16//19 15//19 8//19
f 16//20 10//20 12//20
f 13//21 7//21 15//21
f 15//22 14//22 13//22
f 15//23 16//23 14//23
f 16//24 12//24 14//24
f 17//25 19//25 18//25
f 20//26 18//26 19//26
f 17//27 21//27 19//27
f 17//28 22//28 21//28
f 19//29 23//29 20//29
f 19//30 21//30 23//30
f 24//31 21//31 22//31
f 24//32 23//32 21//32
f 17//33 18//33 25//33
f 25//34 18//34 20//34
f 22//35 25//35 26//35
f 22//36 17//36 25//36
f 26//37 20//37 23//37
f 26//38 25//38 20//38
f 24//39 22//39 26//39
f 26//40 23//40 24//40
f 27//41 29//41 28//41
f 28//42 30//42 27//42
f 31//43 29//43 27//43
f 32//44 29//44 31//44
f 33//45 27//45 30//45
f 31//46 27//46 33//46
f 31//47 34//47 32//47
f 33//48 34//48 31//48
f 28//49 29//49 35//49
f 28//50 35//50 30//50
f 35//51 37//51 36//51
f 35//52 29//52 37//52
f 29//53 32//53 37//53
f 36//54 30//54 35//54
f 36//55 38//55 30//55
f 38//56 33//56 30//56
f 39//57 32//57 34//57
f 39//58 40//58 32//58
f 40//59 37//59 32//59
f 34//60 41//60 39//60
f 34//61 33//61 41//61
f 33//62 38//62 41//62
f 39//63 42//63 40//63
f 41//64 42//64 39//64
f 36//65 37//65 43//65
f 36//66 43//66 38//66
f 43//67 40//67 44//67
f 37//68 40//68 43//68
f 38//69 44//69 41//69
f 43//70 44//70 38//70
f 40//71 42//71 44//71
f 41//72 44//72 42//72

# Thankyou for using Spin3D

