# Created using Spin3D

# Vertex Array
v 47.549 -49.529 33.646
v 47.550 -49.529 33.647
v 47.550 -49.530 33.646
v 47.551 -49.529 33.646
v 47.550 -49.529 33.645
v 47.550 -49.528 33.646
v 40.733 -28.696 -28.295
v 40.777 -28.717 -28.250
v 40.796 -28.756 -28.264
v 40.837 -28.771 -28.225
v 40.846 -28.779 -28.246
v 40.857 -28.761 -28.234
v 40.743 -28.704 -28.318
v 40.692 -28.632 -28.350
v 40.799 -28.735 -28.301
v 40.839 -28.731 -28.281
v 40.731 -28.653 -28.359
v 40.786 -28.681 -28.337
v 40.708 -28.636 -28.309
v 40.756 -28.657 -28.268
v 40.817 -28.718 -28.235
v 40.824 -28.692 -28.271
v 40.684 -28.584 -28.384
v 40.674 -28.578 -28.363
v 40.694 -28.566 -28.371
v 40.799 -28.661 -28.323
v 40.735 -28.610 -28.369
v 40.715 -28.594 -28.323
v 40.778 -28.646 -28.278
v 40.756 -28.610 -28.328
v 2.678 -22.611 77.331
v 2.679 -22.611 77.332
v 2.679 -22.612 77.331
v 2.680 -22.611 77.331
v 2.679 -22.611 77.330
v 2.679 -22.610 77.331
v -1.376 -6.525 24.819
v -1.166 -6.439 25.048
v -1.575 -6.608 24.605
v -1.239 -6.468 24.962
v -0.645 -6.222 25.609
v -0.412 -6.125 25.854
v -1.722 -6.667 24.442
v -1.702 -6.661 24.460
v -1.658 -6.642 24.503
v -1.101 -6.414 25.104
v -1.856 -6.722 24.291
v 0.317 -5.821 26.648
v 0.495 -5.749 26.843
v 0.006 -5.953 26.314
v 0.754 -5.636 27.117
v 0.779 -5.628 27.147
v 0.812 -5.614 27.181
v -0.604 -6.208 25.654
v -1.242 -6.474 24.960
v 0.375 -5.799 26.704
v -0.332 -6.096 25.937
v -1.257 -6.481 24.937
v -1.656 -6.643 24.502
v -0.680 -6.243 25.560
v 0.059 -5.932 26.369
v 0.575 -5.715 26.926
v -0.629 -6.223 25.619
v -0.028 -5.971 26.268

# Normal Array
vn -0.583 -0.661 0.473
vn 0.584 -0.660 0.473
vn -0.582 -0.473 -0.662
vn 0.583 -0.472 -0.661
vn -0.583 0.472 0.661
vn 0.584 0.471 0.660
vn -0.582 0.661 -0.474
vn 0.583 0.661 -0.473
vn -0.724 -0.512 0.462
vn -0.444 -0.887 0.129
vn -0.682 -0.512 0.523
vn 0.564 -0.673 0.478
vn -0.685 -0.727 -0.038
vn -0.779 -0.616 -0.117
vn -0.196 -0.840 -0.505
vn -0.293 -0.815 -0.500
vn 0.857 -0.216 -0.467
vn 0.426 -0.494 -0.758
vn -0.463 -0.619 -0.635
vn -0.115 -0.638 -0.761
vn 0.061 -0.545 -0.836
vn 0.438 -0.426 -0.792
vn -0.650 -0.005 0.760
vn -0.742 -0.162 0.651
vn -0.365 0.041 0.930
vn -0.361 0.140 0.922
vn 0.276 0.281 0.919
vn 0.610 0.583 0.537
vn -0.875 -0.365 -0.318
vn -0.914 -0.220 0.341
vn -0.895 -0.306 0.325
vn -0.565 0.673 -0.477
vn 0.920 0.372 -0.123
vn 0.897 0.386 -0.216
vn -0.449 -0.564 -0.693
vn 0.434 0.381 -0.817
vn 0.176 -0.228 -0.958
vn 0.263 -0.231 -0.937
vn 0.735 0.010 -0.678
vn 0.641 0.121 -0.758
vn -0.522 0.340 0.782
vn 0.092 0.546 0.833
vn -0.001 0.656 0.754
vn 0.548 0.626 0.554
vn -0.590 0.335 0.735
vn -0.242 0.793 0.559
vn 0.392 0.862 0.320
vn 0.389 0.828 0.404
vn 0.764 0.646 0.003
vn 0.681 0.707 0.190
vn 0.687 0.645 -0.336
vn 0.730 0.581 -0.359
vn -0.574 -0.686 0.447
vn 0.564 -0.696 0.445
vn -0.576 -0.490 -0.654
vn 0.572 -0.508 -0.644
vn -0.589 0.475 0.654
vn 0.589 0.464 0.662
vn -0.586 0.658 -0.472
vn 0.593 0.655 -0.469
vn -0.706 0.554 0.442
vn -0.420 0.907 0.041
vn -0.711 0.538 0.452
vn -0.412 0.910 0.033
vn -0.606 0.747 0.274
vn -0.134 -0.886 0.443
vn 0.081 0.905 -0.418
vn -0.193 0.963 -0.189
vn -0.453 0.888 0.080
vn 0.172 0.856 -0.488
vn -0.139 -0.883 0.448
vn -0.258 0.959 -0.121
vn -0.730 0.475 0.492
vn -0.676 0.631 0.382
vn -0.728 0.480 0.489
vn -0.637 0.697 0.330
vn -0.130 -0.880 0.457
vn -0.169 -0.859 0.482
vn -0.731 0.471 0.494
vn -0.751 0.107 0.652
vn -0.754 0.162 0.637
vn 0.073 0.903 -0.423
vn -0.006 0.935 -0.353
vn 0.478 0.576 -0.663
vn -0.316 0.946 -0.073
vn 0.760 -0.257 -0.596
vn 0.320 -0.946 0.058
vn 0.197 -0.964 0.179
vn 0.137 -0.963 0.234
vn 0.072 0.909 -0.411
vn 0.743 -0.408 -0.531
vn 0.752 -0.329 -0.570
vn 0.454 0.608 -0.652
vn 0.748 -0.085 -0.658
vn 0.359 -0.933 0.010
vn 0.073 0.909 -0.411
vn -0.170 -0.856 0.488
vn 0.060 -0.945 0.320
vn 0.290 -0.952 0.102
vn 0.167 -0.959 0.228
vn -0.204 -0.837 0.508
vn -0.163 -0.860 0.483
vn -0.188 -0.845 0.500
vn 0.066 -0.949 0.307
vn 0.755 -0.320 -0.572
vn 0.599 -0.759 -0.255
vn 0.088 -0.953 0.289
vn 0.611 -0.744 -0.270
vn 0.215 -0.962 0.167
vn 0.424 -0.905 -0.047
vn 0.475 -0.874 -0.102
vn 0.737 -0.446 -0.507

# Facets
f 1//1 3//1 2//1
f 4//2 2//2 3//2
f 5//3 3//3 1//3
f 5//4 4//4 3//4
f 1//5 2//5 6//5
f 6//6 2//6 4//6
f 5//7 1//7 6//7
f 6//8 4//8 5//8
f 7//9 9//9 8//9
f 10//10 9//10 11//10
f 10//11 8//11 9//11
f 12//12 10//12 11//12
f 7//13 13//13 9//13
f 7//14 14//14 13//14
f 15//15 11//15 9//15
f 13//16 15//16 9//16
f 11//17 16//17 12//17
f 11//18 15//18 16//18
f 17//19 13//19 14//19
f 17//20 15//20 13//20
f 17//21 18//21 15//21
f 18//22 16//22 15//22
f 19//23 8//23 20//23
f 19//24 7//24 8//24
f 8//25 10//25 21//25
f 20//26 8//26 21//26
f 12//27 21//27 10//27
f 12//28 22//28 21//28
f 14//29 24//29 23//29
f 19//30 24//30 14//30
f 7//31 19//31 14//31
f 23//32 24//32 25//32
f 22//33 12//33 16//33
f 26//34 22//34 16//34
f 17//35 14//35 23//35
f 27//36 23//36 25//36
f 17//37 23//37 27//37
f 18//38 17//38 27//38
f 18//39 26//39 16//39
f 18//40 27//40 26//40
f 19//41 20//41 28//41
f 29//42 20//42 21//42
f 29//43 28//43 20//43
f 29//44 21//44 22//44
f 24//45 19//45 28//45
f 28//46 25//46 24//46
f 30//47 25//47 28//47
f 29//48 30//48 28//48
f 30//49 22//49 26//49
f 30//50 29//50 22//50
f 27//51 25//51 30//51
f 30//52 26//52 27//52
f 31//53 33//53 32//53
f 34//54 32//54 33//54
f 35//55 33//55 31//55
f 35//56 34//56 33//56
f 31//57 32//57 36//57
f 36//58 32//58 34//58
f 35//59 31//59 36//59
f 36//60 34//60 35//60
f 37//61 39//61 38//61
f 37//62 41//62 40//62
f 38//63 41//63 37//63
f 41//64 42//64 40//64
f 43//65 39//65 37//65
f 44//66 39//66 43//66
f 45//67 40//67 46//67
f 45//68 43//68 40//68
f 43//69 37//69 40//69
f 42//70 46//70 40//70
f 43//71 47//71 44//71
f 45//72 47//72 43//72
f 48//73 50//73 49//73
f 48//74 52//74 51//74
f 49//75 52//75 48//75
f 52//76 53//76 51//76
f 38//77 55//77 54//77
f 39//78 55//78 38//78
f 50//79 48//79 41//79
f 50//80 41//80 54//80
f 54//81 41//81 38//81
f 56//82 48//82 51//82
f 56//83 42//83 48//83
f 56//84 57//84 42//84
f 41//85 48//85 42//85
f 53//86 56//86 51//86
f 58//87 44//87 59//87
f 58//88 55//88 44//88
f 55//89 39//89 44//89
f 59//90 45//90 46//90
f 59//91 46//91 58//91
f 58//92 46//92 60//92
f 57//93 46//93 42//93
f 60//94 46//94 57//94
f 44//95 47//95 59//95
f 45//96 59//96 47//96
f 49//97 50//97 61//97
f 49//98 62//98 52//98
f 61//99 62//99 49//99
f 52//100 62//100 53//100
f 54//101 55//101 63//101
f 54//102 61//102 50//102
f 54//103 63//103 61//103
f 63//104 64//104 61//104
f 56//105 64//105 57//105
f 56//106 62//106 64//106
f 62//107 61//107 64//107
f 53//108 62//108 56//108
f 55//109 58//109 63//109
f 60//110 63//110 58//110
f 64//111 63//111 60//111
f 57//112 64//112 60//112

# Thankyou for using Spin3D

