# Created using Spin3D

# Vertex Array
v 10.612 -14.343 31.596
v 10.803 -13.714 32.140
v 11.885 -14.289 31.379
v 12.162 -13.579 32.018
v 9.408 -13.784 30.926
v 10.018 -14.316 31.358
v 10.659 -14.306 30.946
v 11.678 -14.096 30.501
v 12.932 -13.902 31.351
v 12.893 -14.070 30.692
v 13.438 -13.684 30.891
v 9.777 -13.088 29.866
v 12.179 -13.270 29.860
v 13.378 -13.599 30.339
v 7.681 -12.169 31.977
v 9.137 -12.339 32.581
v 9.266 -13.529 31.719
v 11.077 -12.749 32.587
v 12.096 -12.855 32.303
v 4.364 -9.385 30.007
v 4.677 -9.511 30.896
v 5.272 -10.573 30.555
v 6.044 -10.680 31.631
v 7.371 -12.192 30.674
v 12.711 -12.714 31.492
v 13.429 -13.048 30.578
v 5.518 -10.591 29.601
v 7.304 -11.517 29.164
v 7.393 -10.617 28.467
v 8.737 -11.656 28.760
v 10.492 -11.882 29.008
v 12.071 -11.774 29.443
v 13.094 -12.820 30.009
v 8.769 -10.364 28.488
v 10.535 -10.246 28.892
v 6.516 -10.033 32.392
v 8.022 -10.609 32.760
v 7.318 -11.256 32.499
v 9.899 -11.318 32.770
v 10.445 -10.678 32.442
v 11.426 -11.813 32.371
v 4.183 -8.375 30.532
v 5.296 -8.463 31.544
v 11.047 -10.179 31.407
v 11.726 -9.834 30.175
v 12.604 -11.577 30.325
v 4.656 -9.240 29.213
v 4.118 -7.864 29.655
v 5.890 -9.959 28.745
v 11.366 -9.197 29.691
v 10.484 -8.818 29.304
v 11.764 -10.219 29.506
v 5.064 -8.301 28.882
v 6.808 -9.087 28.505
v 8.495 -8.348 28.854
v 6.929 -9.137 32.391
v 8.820 -9.465 32.319
v 4.296 -6.965 30.533
v 5.184 -6.222 31.140
v 6.710 -7.511 31.774
v 8.512 -7.417 31.142
v 8.792 -6.724 30.208
v 10.355 -8.322 30.181
v 4.186 -6.454 29.831
v 8.221 -6.239 29.860
v 7.467 -6.410 29.523
v 9.095 -7.253 29.557
v 4.545 -6.968 29.279
v 5.984 -7.041 29.079
v 4.717 -5.507 30.393
v 5.187 -4.940 30.910
v 6.211 -5.553 31.083
v 5.881 -4.809 30.646
v 7.254 -5.753 30.364
v 4.802 -6.024 29.631
v 5.244 -4.666 30.619
v 5.772 -5.419 30.004
v 5.487 -4.590 30.900

# Normal Array
vn 0.152 -0.672 0.724
vn 0.132 -0.691 0.711
vn -0.322 -0.791 -0.521
vn -0.021 -0.998 -0.058
vn 0.033 -0.998 -0.054
vn 0.096 -0.967 -0.235
vn 0.276 -0.700 0.658
vn 0.344 -0.915 0.213
vn 0.057 -0.972 -0.227
vn 0.524 -0.832 0.181
vn -0.302 -0.745 -0.594
vn -0.151 -0.715 -0.683
vn -0.047 -0.594 -0.803
vn 0.131 -0.656 -0.743
vn 0.112 -0.667 -0.737
vn 0.613 -0.768 -0.185
vn -0.370 -0.571 0.733
vn -0.279 -0.578 0.767
vn -0.279 -0.583 0.763
vn -0.087 -0.398 0.913
vn 0.124 -0.446 0.887
vn 0.220 -0.339 0.915
vn -0.821 -0.529 0.214
vn -0.585 -0.733 0.347
vn -0.707 -0.542 0.453
vn -0.682 -0.710 0.175
vn -0.627 -0.762 0.163
vn -0.620 -0.772 0.137
vn -0.695 -0.712 0.104
vn -0.314 -0.627 0.713
vn 0.800 -0.154 0.580
vn 0.663 0.035 0.748
vn 0.664 0.035 0.747
vn 0.803 0.273 0.530
vn -0.740 -0.648 -0.179
vn -0.600 -0.788 -0.139
vn -0.497 -0.800 -0.336
vn -0.274 -0.572 -0.773
vn -0.256 -0.701 -0.666
vn -0.428 -0.832 -0.353
vn -0.448 -0.668 -0.594
vn -0.045 -0.562 -0.826
vn 0.037 -0.594 -0.804
vn 0.273 -0.239 -0.932
vn 0.271 -0.240 -0.932
vn 0.289 -0.282 -0.915
vn 0.993 -0.042 -0.115
vn 0.876 0.122 -0.467
vn 0.053 -0.207 -0.977
vn 0.111 -0.207 -0.972
vn 0.227 -0.075 -0.971
vn 0.270 -0.075 -0.960
vn -0.270 -0.093 0.958
vn -0.371 -0.567 0.735
vn -0.167 -0.208 0.964
vn -0.058 -0.140 0.988
vn 0.310 0.210 0.927
vn 0.285 0.113 0.952
vn -0.036 -0.156 0.987
vn 0.278 0.116 0.953
vn -0.674 -0.057 0.737
vn -0.910 -0.307 0.277
vn -0.630 -0.352 0.692
vn -0.732 -0.222 0.644
vn -0.571 -0.161 0.805
vn -0.624 -0.560 0.545
vn 0.622 0.500 0.603
vn 0.741 0.419 0.525
vn 0.750 0.507 0.425
vn 0.699 0.477 0.533
vn 0.693 0.406 0.596
vn 0.761 0.498 0.416
vn -0.730 -0.573 -0.373
vn -0.898 -0.232 -0.373
vn -0.986 -0.165 -0.023
vn -0.469 -0.600 -0.647
vn -0.554 -0.536 -0.637
vn -0.377 -0.544 -0.750
vn 0.497 0.338 -0.799
vn 0.908 0.384 -0.169
vn 0.883 0.428 -0.196
vn 0.823 0.184 -0.538
vn 0.730 0.424 -0.536
vn 0.846 0.418 -0.330
vn -0.632 0.002 -0.775
vn -0.419 -0.134 -0.898
vn -0.225 -0.031 -0.974
vn -0.204 -0.054 -0.977
vn 0.010 0.029 -1.000
vn 0.117 0.193 -0.974
vn 0.426 0.264 -0.865
vn 0.274 0.275 -0.922
vn 0.206 0.202 -0.958
vn 0.441 0.123 -0.889
vn -0.202 0.094 0.975
vn 0.105 0.293 0.950
vn 0.089 0.304 0.949
vn 0.174 0.327 0.929
vn -0.621 0.109 0.776
vn -0.669 0.053 0.741
vn -0.393 0.182 0.902
vn -0.342 0.292 0.893
vn -0.262 0.158 0.952
vn 0.098 0.364 0.926
vn 0.261 0.510 0.820
vn 0.582 0.560 0.590
vn 0.582 0.588 0.562
vn 0.460 0.493 0.738
vn 0.455 0.669 0.587
vn 0.637 0.576 0.512
vn -0.990 0.080 0.120
vn -0.984 0.026 0.174
vn 0.265 0.479 -0.837
vn 0.705 0.674 -0.220
vn 0.693 0.682 -0.233
vn 0.697 0.663 -0.273
vn 0.499 0.783 -0.370
vn 0.704 0.637 0.315
vn -0.781 0.115 -0.614
vn -0.638 -0.019 -0.770
vn -0.106 0.229 -0.968
vn -0.121 0.239 -0.963
vn 0.240 0.428 -0.871
vn 0.114 0.378 -0.919
vn 0.068 0.295 -0.953
vn 0.291 0.399 -0.870
vn -0.685 0.263 0.680
vn -0.792 0.110 0.600
vn -0.061 0.177 0.982
vn -0.142 0.297 0.944
vn 0.532 0.592 0.606
vn 0.512 0.650 0.562
vn 0.288 0.383 0.878
vn 0.465 0.638 0.613
vn -0.600 0.629 -0.494
vn -0.890 0.291 0.351
vn -0.847 0.459 0.267
vn -0.343 0.438 -0.831
vn -0.272 0.782 -0.561
vn 0.185 0.697 -0.693
vn 0.315 0.661 -0.681
vn 0.308 0.786 -0.537
vn 0.087 0.795 -0.600
vn 0.535 0.808 0.248
vn -0.532 0.419 -0.736
vn -0.109 0.374 -0.921
vn 0.023 0.497 -0.867
vn 0.047 0.499 -0.865
vn -0.100 0.114 0.988
vn 0.644 0.579 0.500
vn -0.679 0.595 0.429
vn 0.215 0.880 -0.423

# Facets
f 1//1 3//1 2//1
f 4//2 2//2 3//2
f 5//3 7//3 6//3
f 7//4 1//4 6//4
f 3//5 1//5 7//5
f 8//6 3//6 7//6
f 3//7 9//7 4//7
f 10//8 9//8 3//8
f 8//9 10//9 3//9
f 11//10 9//10 10//10
f 12//11 7//11 5//11
f 12//12 8//12 7//12
f 12//13 13//13 8//13
f 13//14 10//14 8//14
f 13//15 14//15 10//15
f 14//16 11//16 10//16
f 15//17 17//17 16//17
f 2//18 17//18 1//18
f 16//19 17//19 2//19
f 18//20 16//20 2//20
f 4//21 18//21 2//21
f 4//22 19//22 18//22
f 20//23 22//23 21//23
f 23//24 22//24 24//24
f 23//25 21//25 22//25
f 24//26 15//26 23//26
f 24//27 17//27 15//27
f 5//28 17//28 24//28
f 6//29 17//29 5//29
f 6//30 1//30 17//30
f 19//31 4//31 25//31
f 4//32 9//32 25//32
f 11//33 25//33 9//33
f 11//34 26//34 25//34
f 27//35 22//35 20//35
f 27//36 24//36 22//36
f 27//37 28//37 24//37
f 29//38 30//38 28//38
f 30//39 12//39 28//39
f 28//40 12//40 24//40
f 24//41 12//41 5//41
f 13//42 12//42 31//42
f 12//43 30//43 31//43
f 31//44 32//44 13//44
f 13//45 32//45 33//45
f 13//46 33//46 14//46
f 14//47 26//47 11//47
f 14//48 33//48 26//48
f 34//49 30//49 29//49
f 34//50 31//50 30//50
f 34//51 35//51 31//51
f 35//52 32//52 31//52
f 36//53 38//53 37//53
f 16//54 38//54 15//54
f 37//55 38//55 16//55
f 39//56 37//56 16//56
f 39//57 41//57 40//57
f 18//58 41//58 39//58
f 16//59 18//59 39//59
f 41//60 18//60 19//60
f 42//61 21//61 43//61
f 42//62 20//62 21//62
f 38//63 36//63 23//63
f 23//64 36//64 43//64
f 23//65 43//65 21//65
f 23//66 15//66 38//66
f 40//67 41//67 44//67
f 44//68 46//68 45//68
f 44//69 25//69 46//69
f 41//70 25//70 44//70
f 19//71 25//71 41//71
f 46//72 25//72 26//72
f 20//73 47//73 27//73
f 48//74 47//74 20//74
f 42//75 48//75 20//75
f 28//76 27//76 49//76
f 27//77 47//77 49//77
f 29//78 28//78 49//78
f 50//79 52//79 51//79
f 50//80 45//80 52//80
f 45//81 46//81 52//81
f 52//82 46//82 32//82
f 32//83 46//83 33//83
f 46//84 26//84 33//84
f 53//85 47//85 48//85
f 53//86 49//86 47//86
f 53//87 54//87 49//87
f 54//88 29//88 49//88
f 34//89 29//89 54//89
f 55//90 34//90 54//90
f 35//91 51//91 52//91
f 55//92 51//92 35//92
f 34//93 55//93 35//93
f 52//94 32//94 35//94
f 36//95 37//95 56//95
f 57//96 37//96 39//96
f 57//97 56//97 37//97
f 57//98 39//98 40//98
f 58//99 43//99 59//99
f 58//100 42//100 43//100
f 36//101 56//101 43//101
f 43//102 56//102 60//102
f 43//103 60//103 59//103
f 56//104 57//104 60//104
f 57//105 61//105 60//105
f 61//106 63//106 62//106
f 61//107 44//107 63//107
f 57//108 44//108 61//108
f 40//109 44//109 57//109
f 63//110 44//110 45//110
f 48//111 42//111 58//111
f 48//112 58//112 64//112
f 65//113 67//113 66//113
f 65//114 62//114 67//114
f 62//115 63//115 67//115
f 67//116 63//116 51//116
f 51//117 63//117 50//117
f 63//118 45//118 50//118
f 68//119 48//119 64//119
f 68//120 53//120 48//120
f 69//121 54//121 53//121
f 69//122 53//122 68//122
f 55//123 66//123 67//123
f 69//124 66//124 55//124
f 54//125 69//125 55//125
f 67//126 51//126 55//126
f 58//127 59//127 70//127
f 59//128 71//128 70//128
f 72//129 71//129 59//129
f 60//130 72//130 59//130
f 72//131 74//131 73//131
f 61//132 74//132 72//132
f 60//133 61//133 72//133
f 74//134 61//134 62//134
f 64//135 70//135 75//135
f 64//136 58//136 70//136
f 71//137 76//137 70//137
f 70//138 76//138 77//138
f 70//139 77//139 75//139
f 76//140 73//140 77//140
f 73//141 74//141 77//141
f 77//142 74//142 66//142
f 66//143 74//143 65//143
f 74//144 62//144 65//144
f 68//145 64//145 75//145
f 75//146 69//146 68//146
f 75//147 77//147 69//147
f 77//148 66//148 69//148
f 71//149 72//149 78//149
f 78//150 72//150 73//150
f 76//151 71//151 78//151
f 78//152 73//152 76//152

# Thankyou for using Spin3D

