# Created using Spin3D

# Vertex Array
v -44.150 -35.319 46.239
v -44.001 -35.268 46.630
v -43.967 -35.517 46.489
v -43.681 -35.250 47.039
v -43.800 -35.289 46.725
v -40.097 -34.107 52.096
v -39.733 -34.137 52.502
v -39.765 -34.236 52.222
v -39.706 -33.733 52.739
v -44.488 -34.766 46.061
v -44.114 -34.731 46.761
v -44.353 -35.152 46.114
v -43.269 -34.425 48.157
v -43.102 -34.651 47.988
v -40.196 -33.865 51.914
v -44.464 -34.881 45.875
v -44.579 -34.419 45.927
v -43.834 -34.660 46.749
v -44.403 -34.633 45.907
v -44.578 -34.494 45.745
v -40.119 -32.220 54.875
v -39.533 -31.222 56.310
v -39.543 -32.273 55.017
v -39.145 -31.392 55.856
v -40.006 -33.382 53.226
v -40.763 -32.801 53.355
v -39.506 -32.557 54.142
v -42.431 -32.555 50.687
v -41.423 -32.387 52.783
v -41.441 -33.658 50.991
v -40.028 -32.862 52.744
v -44.245 -34.169 46.719
v -43.631 -33.856 47.966
v -40.948 -33.326 51.218
v -42.382 -33.610 49.199
v -44.294 -33.875 46.578
v -43.495 -33.767 47.498
v -44.242 -34.236 46.254
v -44.474 -34.121 46.059
v -40.679 -30.757 55.662
v -39.978 -30.306 56.712
v -40.243 -31.264 55.857
v -39.358 -30.406 57.118
v -38.922 -30.496 57.056
v -38.803 -30.633 56.578
v -38.619 -30.278 57.170
v -40.819 -31.758 54.585
v -41.356 -30.953 54.063
v -38.827 -30.214 56.737
v -39.571 -30.950 54.943
v -41.742 -30.552 52.919
v -41.725 -31.210 51.550
v -41.103 -32.074 51.736
v -40.764 -30.176 53.688
v -43.492 -33.148 48.274
v -42.363 -31.604 50.801
v -42.697 -32.653 49.289
v -43.908 -33.602 47.092
v -40.654 -29.831 55.991
v -40.044 -29.434 56.893
v -39.373 -29.790 57.216
v -39.364 -29.628 56.597
v -38.830 -29.989 57.231
v -41.067 -29.543 54.971
v -39.973 -29.533 55.435
v -41.589 -30.371 52.617
v -41.100 -29.488 54.207
v -40.502 -29.111 55.113
v -40.413 -29.036 56.288
v -39.808 -29.142 56.886
v -40.662 -28.911 55.500
v -40.082 -28.947 56.160
v 7.539 -7.672 32.823
v 7.552 -7.665 32.866
v 7.573 -7.724 32.836
v 7.590 -7.716 32.856
v 7.605 -7.744 32.804
v 7.610 -7.698 32.824
v 7.568 -7.708 32.782
v 7.521 -7.619 32.774
v 7.619 -7.719 32.768
v 7.601 -7.723 32.749
v 7.560 -7.652 32.734
v 6.312 -5.530 10.192
v 6.314 -5.530 10.193
v 6.314 -5.531 10.191
v 6.315 -5.530 10.192
v 6.314 -5.530 10.191
v 7.514 -7.593 32.828
v 7.535 -7.591 32.866
v 7.575 -7.646 32.870
v 7.585 -7.621 32.834
v 7.501 -7.547 32.778
v 7.597 -7.679 32.734
v 7.597 -7.647 32.777
v 7.520 -7.570 32.742
v 7.555 -7.596 32.741
v 6.314 -5.529 10.192
v 3.452 5.051 -19.524
v 3.193 5.605 -18.553
v 3.601 5.004 -18.979
v 4.078 5.654 -18.798
v 4.062 5.108 -19.704
v 4.552 6.781 -30.014
v 4.307 6.514 -29.638
v 4.430 6.426 -30.255
v 4.499 6.372 -29.763
v 4.844 6.622 -30.110
v 7.518 -7.540 32.820
v 7.551 -7.575 32.851
v 7.517 -7.535 32.765
v 7.552 -7.565 32.797
v 2.126 6.537 -19.366
v 2.429 6.656 -18.138
v 2.841 5.681 -19.596
v 3.515 7.259 -17.386
v 5.005 6.659 -18.859
v 2.783 6.239 -21.229
v 2.015 7.275 -20.139
v 4.155 5.549 -21.447
v 5.286 5.944 -20.441
v 2.829 7.169 -22.559
v 3.982 6.306 -24.424
v 3.740 7.208 -25.577
v 5.819 6.026 -22.541
v 5.508 6.157 -24.399
v 6.723 6.632 -24.085
v 4.357 6.515 -27.973
v 4.343 7.155 -28.456
v 5.289 6.441 -26.963
v 6.726 7.017 -26.276
v 4.837 7.362 -29.536
v 5.087 6.538 -29.069
v 6.018 6.899 -28.229
v 5.212 7.216 -29.931
v 5.722 7.098 -29.402
v 2.801 8.381 -16.088
v 2.991 8.889 -15.831
v 3.238 8.372 -16.224
v 3.832 8.822 -16.889
v 1.821 7.604 -18.285
v 2.244 8.154 -16.780
v 5.289 7.860 -18.490
v 6.472 7.367 -20.212
v 6.413 8.198 -19.523
v 1.850 8.389 -18.959
v 6.852 6.840 -22.311
v 7.224 8.494 -20.694
v 7.712 8.018 -22.254
v 7.935 8.842 -22.200
v 2.315 8.059 -20.851
v 4.405 8.111 -26.152
v 3.461 8.313 -22.919
v 4.834 8.895 -24.192
v 7.723 7.676 -24.494
v 8.131 8.672 -23.903
v 5.055 7.990 -28.279
v 5.576 8.758 -26.422
v 7.716 7.942 -26.428
v 8.115 8.478 -25.580
v 5.434 7.809 -29.314
v 6.034 8.441 -28.136
v 7.746 8.470 -26.830
v 6.892 7.732 -27.963
v 6.118 7.857 -29.045
v 2.464 9.050 -15.812
v 2.908 9.353 -15.845
v 3.105 9.618 -16.369
v 1.807 8.796 -17.314
v 2.062 9.184 -16.267
v 5.766 8.959 -19.497
v 3.799 9.539 -17.875
v 9.700 11.164 -17.475
v 9.701 11.164 -17.473
v 9.701 11.163 -17.475
v 9.702 11.164 -17.475
v 2.659 8.954 -19.890
v 2.059 9.228 -18.058
v 4.524 9.291 -20.968
v 2.877 9.604 -18.203
v 6.493 9.369 -21.735
v 9.701 11.164 -17.476
v 7.289 9.136 -21.341
v 6.325 9.271 -24.131
v 7.593 9.235 -23.129
v 6.659 8.982 -26.548
v 7.637 8.990 -25.521
v 7.022 8.550 -27.589
v 2.470 9.623 -16.008
v 2.174 9.570 -16.850
v 2.785 9.811 -16.783
v 9.701 11.165 -17.474
v -0.287 20.653 -6.850
v -0.288 20.654 -6.851
v -0.290 20.656 -6.850
v -0.289 20.656 -6.851
v -0.286 20.655 -6.850
v -0.282 20.647 -6.852
v -0.282 20.651 -6.851
v -0.285 20.651 -6.851
v -0.285 20.654 -6.851
v -0.286 20.656 -6.850
v -0.283 20.650 -6.850
v -0.284 20.653 -6.850
v -0.282 20.648 -6.851
v -0.282 20.652 -6.851
v 7.462 48.659 -60.019
v 7.463 48.659 -60.018
v 7.463 48.658 -60.019
v 7.464 48.659 -60.019
v 7.463 48.660 -60.020
v 7.463 48.660 -60.019

# Normal Array
vn -0.866 -0.332 0.374
vn -0.706 -0.420 0.570
vn 0.811 0.013 -0.585
vn 0.891 -0.346 -0.294
vn -0.450 -0.825 0.343
vn 0.994 -0.001 -0.113
vn -0.852 -0.234 0.468
vn -0.716 -0.602 0.353
vn -0.820 -0.292 0.493
vn -0.787 -0.296 0.541
vn -0.706 -0.420 0.570
vn -0.312 -0.706 0.636
vn 0.090 -0.573 -0.815
vn 0.741 0.437 -0.510
vn -0.944 -0.321 0.074
vn -0.969 -0.245 0.024
vn -0.124 -0.685 -0.718
vn 0.799 0.077 -0.596
vn 0.808 0.065 -0.586
vn 0.820 -0.131 -0.558
vn 0.872 -0.401 -0.280
vn 0.859 0.065 -0.508
vn -0.963 -0.252 0.098
vn 0.649 -0.063 -0.758
vn -0.221 -0.756 0.616
vn 0.368 -0.723 0.585
vn -0.210 -0.806 0.553
vn -0.480 -0.732 0.483
vn 0.795 -0.567 0.218
vn 0.677 -0.691 0.253
vn -0.735 -0.550 0.398
vn -0.713 -0.569 0.411
vn -0.508 -0.753 0.419
vn -0.600 -0.651 0.465
vn -0.581 -0.663 0.472
vn 0.592 -0.436 0.678
vn 0.121 -0.769 0.627
vn 0.862 0.321 -0.392
vn -0.867 -0.168 0.469
vn -0.866 -0.168 0.472
vn -0.685 -0.459 0.566
vn -0.793 -0.333 0.509
vn -0.780 -0.314 0.541
vn 0.545 -0.266 -0.795
vn 0.512 -0.371 -0.774
vn 0.628 -0.695 -0.349
vn -0.473 -0.724 0.501
vn 0.882 -0.069 -0.465
vn 0.799 0.298 -0.522
vn 0.758 0.335 -0.559
vn -0.909 -0.081 0.408
vn -0.924 0.029 0.380
vn 0.822 0.149 -0.550
vn 0.822 0.148 -0.550
vn 0.861 -0.004 -0.508
vn 0.821 0.150 -0.551
vn -0.947 0.239 0.215
vn -0.904 0.394 -0.168
vn 0.753 0.233 -0.616
vn 0.697 0.338 -0.632
vn -0.696 -0.361 0.620
vn -0.359 -0.691 0.627
vn -0.433 -0.530 0.729
vn -0.520 -0.542 0.660
vn 0.681 -0.642 0.353
vn 0.284 -0.793 0.539
vn -0.041 -0.699 0.714
vn 0.458 -0.818 0.348
vn -0.740 -0.442 0.507
vn -0.861 -0.313 0.402
vn -0.612 -0.617 0.495
vn -0.611 -0.604 0.511
vn 0.866 0.220 -0.449
vn 0.906 -0.004 -0.424
vn 0.921 0.203 -0.332
vn 0.894 0.203 -0.400
vn -0.861 -0.315 0.398
vn -0.835 -0.344 0.429
vn -0.949 -0.022 0.313
vn -0.717 -0.547 0.431
vn 0.737 0.416 -0.533
vn 0.776 0.379 -0.504
vn 0.765 0.398 -0.505
vn 0.895 0.227 -0.384
vn -0.895 -0.019 0.446
vn -0.964 0.037 0.264
vn -0.917 0.017 0.399
vn 0.278 0.760 -0.588
vn -0.916 0.005 0.401
vn 0.207 0.782 -0.588
vn 0.722 0.399 -0.565
vn 0.763 0.305 -0.570
vn 0.746 0.331 -0.577
vn 0.763 0.326 -0.559
vn -0.336 0.913 -0.233
vn -0.910 0.046 0.411
vn 0.720 0.385 -0.577
vn 0.718 0.401 -0.569
vn -0.223 0.934 -0.280
vn 0.783 0.309 -0.540
vn -0.132 0.913 -0.386
vn 0.697 0.411 -0.588
vn -0.774 -0.184 0.605
vn -0.776 -0.192 0.601
vn -0.558 -0.144 0.817
vn -0.513 -0.211 0.832
vn 0.327 0.913 0.245
vn -0.136 -0.301 0.944
vn 0.109 -0.154 0.982
vn -0.140 -0.301 0.943
vn -0.910 -0.117 0.399
vn -0.930 -0.044 0.364
vn 0.741 0.612 -0.276
vn 0.696 0.516 -0.500
vn 0.832 0.377 -0.406
vn 0.749 0.604 -0.272
vn -0.815 0.575 -0.069
vn -0.890 0.451 0.071
vn -0.948 -0.010 0.317
vn 0.572 0.607 -0.551
vn 0.532 0.660 -0.530
vn 0.464 0.667 -0.583
vn 0.775 0.392 -0.495
vn 0.705 0.500 -0.503
vn -0.806 0.589 -0.056
vn 0.267 0.741 -0.617
vn -0.837 0.050 0.545
vn -0.301 0.265 0.916
vn -0.573 0.478 0.666
vn 0.776 0.607 0.171
vn -0.896 0.297 0.330
vn -0.907 0.125 0.402
vn -0.136 0.943 0.305
vn -0.179 0.962 0.208
vn 0.747 0.567 -0.346
vn 0.711 0.698 -0.082
vn -0.867 0.494 0.073
vn 0.083 0.899 -0.429
vn 0.385 0.875 -0.292
vn 0.707 0.598 -0.377
vn -0.826 -0.454 0.335
vn -0.093 -0.892 0.441
vn -0.530 -0.519 0.670
vn 0.890 -0.253 0.380
vn -0.824 -0.559 -0.092
vn -0.861 -0.469 -0.198
vn 0.529 -0.784 -0.325
vn -0.593 -0.768 -0.244
vn -0.630 -0.758 -0.167
vn 0.952 -0.196 0.234
vn -0.798 -0.453 -0.397
vn -0.711 -0.512 -0.482
vn -0.592 -0.661 0.462
vn 0.568 -0.679 0.466
vn -0.571 -0.444 -0.691
vn 0.557 -0.467 -0.687
vn -0.849 -0.197 0.490
vn -0.893 -0.301 0.335
vn -0.004 -0.186 0.982
vn -0.140 -0.033 0.990
vn 0.837 0.084 0.540
vn 0.883 0.231 0.408
vn -0.954 -0.299 0.014
vn -0.962 -0.274 0.001
vn 0.736 -0.152 -0.659
vn 0.926 0.304 -0.226
vn 0.960 0.276 0.054
vn 0.951 0.298 0.079
vn -0.918 -0.241 -0.316
vn -0.801 -0.348 -0.487
vn -0.232 -0.323 -0.918
vn 0.080 0.120 -0.990
vn 0.065 0.119 -0.991
vn 0.827 0.451 -0.334
vn -0.579 0.491 0.651
vn 0.588 0.471 0.658
vn -0.557 0.668 -0.494
vn 0.575 0.654 -0.492
vn -0.762 -0.629 0.154
vn 0.262 -0.433 0.863
vn 0.062 -0.993 -0.103
vn 0.702 -0.615 0.358
vn -0.858 0.456 -0.237
vn -0.595 -0.803 -0.005
vn 0.029 0.555 -0.832
vn 0.468 -0.869 -0.161
vn -0.864 0.143 0.483
vn 0.416 0.358 0.836
vn 0.004 0.672 0.740
vn 0.782 0.388 0.488
vn -0.560 0.823 0.089
vn -0.925 0.127 0.359
vn 0.637 0.755 0.157
vn 0.607 0.791 0.074
vn 0.874 0.485 -0.023
vn 0.825 0.552 0.122
vn -0.742 0.340 -0.578
vn 0.380 0.531 -0.757
vn 0.761 0.580 -0.289
vn 0.823 0.512 -0.247
vn -0.713 -0.659 0.240
vn -0.715 -0.673 0.192
vn -0.751 -0.627 0.208
vn -0.274 -0.518 0.810
vn 0.245 -0.590 0.769
vn 0.532 -0.446 0.720
vn -0.778 -0.602 -0.178
vn -0.885 -0.394 -0.249
vn 0.019 -0.970 -0.244
vn -0.633 -0.661 -0.403
vn -0.466 -0.842 -0.271
vn 0.472 -0.861 -0.192
vn 0.666 -0.644 0.376
vn 0.687 -0.609 0.397
vn -0.889 -0.361 -0.283
vn -0.806 -0.537 -0.250
vn -0.845 -0.425 -0.326
vn -0.465 -0.864 -0.193
vn 0.299 -0.954 0.039
vn 0.210 -0.972 -0.104
vn -0.090 -0.966 -0.241
vn 0.390 -0.912 -0.130
vn -0.910 -0.397 -0.119
vn -0.965 -0.171 -0.199
vn -0.095 -0.990 -0.101
vn -0.014 -0.998 -0.060
vn 0.395 -0.905 -0.158
vn 0.423 -0.896 -0.135
vn -1.000 0.001 0.030
vn -0.854 0.467 -0.227
vn -0.777 0.581 -0.244
vn -0.585 -0.811 0.018
vn 0.168 -0.981 0.092
vn -0.033 -0.999 -0.043
vn 0.408 -0.908 -0.093
vn 0.424 -0.902 -0.082
vn -0.378 0.691 -0.616
vn -0.114 0.351 -0.930
vn 0.455 -0.873 -0.177
vn 0.586 -0.785 -0.201
vn 0.680 -0.210 -0.703
vn 0.552 -0.788 -0.273
vn 0.246 -0.509 0.825
vn 0.775 -0.102 0.623
vn -0.801 -0.454 0.391
vn -0.831 -0.495 0.253
vn 0.204 -0.682 0.702
vn -0.315 -0.797 0.515
vn -0.128 -0.675 0.727
vn 0.721 -0.354 0.596
vn 0.578 -0.361 0.732
vn 0.578 -0.351 0.737
vn 0.804 -0.322 0.500
vn 0.676 -0.441 0.590
vn -0.975 -0.214 -0.064
vn -0.994 -0.046 -0.096
vn 0.712 -0.640 0.290
vn 0.671 -0.623 0.401
vn 0.812 -0.338 0.477
vn 0.836 -0.394 0.382
vn 0.768 -0.575 0.283
vn 0.894 -0.265 0.361
vn -0.957 0.132 -0.258
vn -0.945 0.070 -0.321
vn -0.850 0.449 -0.276
vn -0.877 0.403 -0.260
vn -0.842 0.331 -0.426
vn 0.598 -0.792 0.121
vn -0.540 0.816 -0.208
vn 0.612 -0.790 0.048
vn 0.727 -0.686 0.028
vn 0.802 -0.590 0.094
vn 0.954 -0.267 0.137
vn 0.908 -0.413 0.067
vn -0.709 0.658 -0.254
vn -0.844 0.503 -0.186
vn -0.511 0.831 -0.221
vn -0.509 0.836 -0.203
vn 0.671 -0.734 -0.103
vn 0.692 -0.711 -0.124
vn 0.917 -0.398 0.037
vn 0.852 -0.518 -0.074
vn -0.488 0.812 -0.321
vn -0.723 0.660 -0.204
vn -0.372 0.890 -0.264
vn -0.366 0.885 -0.289
vn 0.843 -0.356 -0.403
vn 0.642 -0.727 -0.245
vn 0.707 -0.674 -0.216
vn 0.926 -0.261 -0.272
vn -0.332 0.737 -0.589
vn 0.148 0.838 -0.525
vn 0.236 0.657 -0.716
vn 0.714 -0.043 -0.699
vn 0.705 -0.648 -0.288
vn 0.798 -0.139 -0.587
vn 0.048 0.039 0.998
vn -0.096 -0.421 0.902
vn 0.778 0.157 0.609
vn 0.779 0.391 0.491
vn -0.885 -0.323 0.335
vn -0.883 -0.302 0.359
vn -0.559 -0.541 0.628
vn -0.742 -0.399 0.539
vn 0.782 0.202 0.590
vn 0.581 0.668 0.466
vn 0.794 0.504 0.340
vn 0.537 0.431 0.725
vn -0.594 -0.653 0.470
vn 0.546 -0.684 0.484
vn -0.766 0.549 -0.333
vn -0.930 0.352 -0.111
vn -1.000 0.012 -0.029
vn -0.335 0.893 -0.301
vn -0.442 0.855 -0.272
vn 0.091 0.994 -0.058
vn 0.272 0.962 -0.013
vn 0.036 0.981 0.191
vn -0.605 -0.479 -0.635
vn 0.635 0.520 0.571
vn 0.636 0.514 0.575
vn 0.166 0.959 0.229
vn 0.571 -0.506 -0.646
vn 0.796 0.388 0.466
vn -0.748 0.597 -0.288
vn -0.716 0.620 -0.321
vn -0.324 0.905 -0.277
vn -0.503 0.851 -0.153
vn -0.237 0.961 -0.141
vn -0.054 0.998 -0.037
vn 0.236 0.967 0.094
vn 0.064 0.997 -0.045
vn 0.734 0.679 0.017
vn 0.558 0.818 0.140
vn -0.216 0.965 -0.145
vn -0.237 0.962 -0.138
vn 0.107 0.989 -0.099
vn 0.101 0.989 -0.104
vn 0.723 0.685 -0.086
vn 0.677 0.733 -0.063
vn 0.094 0.931 -0.354
vn -0.223 0.946 -0.235
vn 0.720 0.190 -0.667
vn 0.414 0.857 -0.306
vn 0.287 0.916 -0.280
vn 0.702 0.680 -0.211
vn 0.195 0.833 -0.518
vn 0.813 0.130 -0.567
vn -0.149 0.321 0.935
vn 0.301 0.800 0.519
vn -0.919 0.387 0.080
vn -0.691 0.240 0.682
vn -0.777 0.583 0.237
vn -0.371 0.926 0.073
vn 0.384 0.914 0.129
vn 0.177 0.938 0.299
vn -0.575 0.504 0.645
vn 0.602 0.481 0.638
vn -0.893 0.448 -0.042
vn -0.439 0.875 -0.206
vn -0.346 0.925 -0.157
vn 0.118 0.984 -0.136
vn -0.549 0.682 -0.483
vn 0.591 0.654 -0.472
vn -0.606 -0.575 -0.550
vn -0.560 -0.389 -0.732
vn -0.015 -0.155 0.988
vn 0.240 0.888 0.393
vn 0.014 0.159 -0.987
vn -0.738 -0.583 -0.341
vn 0.016 0.113 -0.994
vn -0.257 -0.337 -0.906
vn -0.203 -0.070 -0.977
vn 0.223 0.599 -0.769
vn -0.678 -0.655 0.334
vn -0.651 -0.752 0.105
vn -0.053 -0.152 0.987
vn -0.498 -0.383 0.778
vn -0.222 0.156 0.962
vn -0.033 0.061 0.998
vn 0.960 0.243 -0.142
vn 0.235 0.129 -0.963
vn 0.323 -0.070 -0.944
vn 0.497 0.622 -0.605
vn -0.560 -0.655 0.507
vn -0.255 -0.357 0.898
vn 0.461 0.056 0.886
vn 0.523 0.342 0.780
vn -0.577 -0.646 0.501
vn 0.532 -0.673 0.513
vn -0.588 -0.461 -0.664
vn 0.562 -0.489 -0.668
vn -0.532 0.521 0.667
vn 0.565 0.497 0.658
vn -0.577 0.672 -0.465
vn 0.622 0.644 -0.446

# Facets
f 1//1 3//1 2//1
f 4//2 2//2 3//2
f 5//3 3//3 1//3
f 5//4 4//4 3//4
f 6//5 8//5 7//5
f 9//6 7//6 8//6
f 10//7 12//7 11//7
f 2//8 12//8 1//8
f 11//9 12//9 2//9
f 13//10 11//10 2//10
f 4//11 13//11 2//11
f 14//12 13//12 4//12
f 6//13 15//13 8//13
f 15//14 9//14 8//14
f 10//15 16//15 12//15
f 10//16 17//16 16//16
f 16//17 1//17 12//17
f 18//18 1//18 16//18
f 5//19 1//19 18//19
f 19//20 18//20 16//20
f 5//21 14//21 4//21
f 5//22 18//22 14//22
f 20//23 16//23 17//23
f 20//24 19//24 16//24
f 21//25 23//25 22//25
f 24//26 22//26 23//26
f 21//27 25//27 23//27
f 21//28 26//28 25//28
f 23//29 27//29 24//29
f 23//30 25//30 27//30
f 28//31 30//31 29//31
f 30//32 26//32 29//32
f 30//33 25//33 26//33
f 6//34 25//34 30//34
f 7//35 25//35 6//35
f 9//36 25//36 7//36
f 27//37 25//37 9//37
f 31//38 27//38 9//38
f 32//39 11//39 33//39
f 32//40 10//40 11//40
f 30//41 28//41 13//41
f 13//42 28//42 33//42
f 13//43 33//43 11//43
f 34//44 15//44 30//44
f 30//45 15//45 6//45
f 35//46 34//46 30//46
f 30//47 13//47 14//47
f 14//48 35//48 30//48
f 15//49 31//49 9//49
f 15//50 34//50 31//50
f 17//51 10//51 32//51
f 17//52 32//52 36//52
f 37//53 18//53 38//53
f 18//54 19//54 38//54
f 18//55 35//55 14//55
f 18//56 37//56 35//56
f 39//57 17//57 36//57
f 39//58 20//58 17//58
f 20//59 38//59 19//59
f 20//60 39//60 38//60
f 40//61 42//61 41//61
f 22//62 42//62 21//62
f 41//63 42//63 22//63
f 43//64 41//64 22//64
f 44//65 24//65 45//65
f 22//66 24//66 44//66
f 43//67 22//67 44//67
f 46//68 44//68 45//68
f 40//69 47//69 42//69
f 40//70 48//70 47//70
f 26//71 21//71 47//71
f 21//72 42//72 47//72
f 49//73 45//73 50//73
f 50//74 45//74 24//74
f 50//75 24//75 27//75
f 49//76 46//76 45//76
f 48//77 29//77 47//77
f 28//78 29//78 48//78
f 51//79 28//79 48//79
f 29//80 26//80 47//80
f 52//81 54//81 53//81
f 50//82 53//82 54//82
f 31//83 53//83 50//83
f 27//84 31//84 50//84
f 32//85 33//85 55//85
f 51//86 56//86 28//86
f 28//87 56//87 55//87
f 55//88 56//88 57//88
f 28//89 55//89 33//89
f 56//90 52//90 57//90
f 52//91 53//91 57//91
f 57//92 53//92 35//92
f 35//93 53//93 34//93
f 53//94 31//94 34//94
f 36//95 55//95 58//95
f 36//96 32//96 55//96
f 58//97 37//97 38//97
f 57//98 37//98 58//98
f 55//99 57//99 58//99
f 57//100 35//100 37//100
f 39//101 36//101 58//101
f 58//102 38//102 39//102
f 59//103 41//103 60//103
f 59//104 40//104 41//104
f 41//105 43//105 61//105
f 60//106 41//106 61//106
f 61//107 63//107 62//107
f 44//108 63//108 61//108
f 43//109 44//109 61//109
f 63//110 44//110 46//110
f 48//111 40//111 59//111
f 48//112 59//112 64//112
f 63//113 49//113 62//113
f 62//114 49//114 50//114
f 62//115 50//115 65//115
f 63//116 46//116 49//116
f 51//117 67//117 66//117
f 64//118 67//118 51//118
f 48//119 64//119 51//119
f 52//120 66//120 54//120
f 54//121 66//121 67//121
f 54//122 67//122 68//122
f 54//123 65//123 50//123
f 54//124 68//124 65//124
f 56//125 51//125 66//125
f 66//126 52//126 56//126
f 59//127 60//127 69//127
f 70//128 60//128 61//128
f 70//129 69//129 60//129
f 70//130 61//130 62//130
f 64//131 69//131 71//131
f 64//132 59//132 69//132
f 69//133 70//133 72//133
f 69//134 72//134 71//134
f 72//135 62//135 65//135
f 72//136 70//136 62//136
f 67//137 64//137 71//137
f 71//138 68//138 67//138
f 71//139 72//139 68//139
f 72//140 65//140 68//140
f 73//141 75//141 74//141
f 76//142 75//142 77//142
f 76//143 74//143 75//143
f 78//144 76//144 77//144
f 73//145 79//145 75//145
f 73//146 80//146 79//146
f 77//147 82//147 81//147
f 79//148 82//148 77//148
f 75//149 79//149 77//149
f 81//150 78//150 77//150
f 83//151 79//151 80//151
f 83//152 82//152 79//152
f 84//153 86//153 85//153
f 87//154 85//154 86//154
f 88//155 86//155 84//155
f 88//156 87//156 86//156
f 89//157 74//157 90//157
f 89//158 73//158 74//158
f 74//159 76//159 91//159
f 90//160 74//160 91//160
f 78//161 91//161 76//161
f 78//162 92//162 91//162
f 80//163 73//163 89//163
f 80//164 89//164 93//164
f 94//165 81//165 82//165
f 95//166 81//166 94//166
f 78//167 81//167 95//167
f 92//168 78//168 95//168
f 96//169 80//169 93//169
f 96//170 83//170 80//170
f 83//171 94//171 82//171
f 97//172 94//172 83//172
f 96//173 97//173 83//173
f 97//174 95//174 94//174
f 84//175 85//175 98//175
f 98//176 85//176 87//176
f 88//177 84//177 98//177
f 98//178 87//178 88//178
f 99//179 101//179 100//179
f 102//180 100//180 101//180
f 103//181 101//181 99//181
f 103//182 102//182 101//182
f 104//183 106//183 105//183
f 107//184 105//184 106//184
f 108//185 106//185 104//185
f 108//186 107//186 106//186
f 89//187 90//187 109//187
f 110//188 90//188 91//188
f 110//189 109//189 90//189
f 110//190 91//190 92//190
f 93//191 109//191 111//191
f 93//192 89//192 109//192
f 109//193 110//193 112//193
f 109//194 112//194 111//194
f 112//195 92//195 95//195
f 112//196 110//196 92//196
f 96//197 93//197 111//197
f 111//198 97//198 96//198
f 111//199 112//199 97//199
f 112//200 95//200 97//200
f 113//201 115//201 114//201
f 100//202 115//202 99//202
f 114//203 115//203 100//203
f 116//204 114//204 100//204
f 102//205 116//205 100//205
f 102//206 117//206 116//206
f 113//207 118//207 115//207
f 113//208 119//208 118//208
f 103//209 99//209 120//209
f 120//210 99//210 115//210
f 120//211 115//211 118//211
f 121//212 103//212 120//212
f 102//213 103//213 121//213
f 117//214 102//214 121//214
f 122//215 118//215 119//215
f 123//216 122//216 124//216
f 118//217 122//217 123//217
f 120//218 118//218 123//218
f 120//219 125//219 121//219
f 126//220 125//220 120//220
f 123//221 126//221 120//221
f 127//222 125//222 126//222
f 124//223 128//223 123//223
f 124//224 129//224 128//224
f 130//225 126//225 123//225
f 128//226 130//226 123//226
f 126//227 131//227 127//227
f 126//228 130//228 131//228
f 129//229 105//229 128//229
f 104//230 105//230 129//230
f 132//231 104//231 129//231
f 105//232 107//232 128//232
f 128//233 107//233 133//233
f 128//234 133//234 130//234
f 130//235 134//235 131//235
f 130//236 133//236 134//236
f 135//237 104//237 132//237
f 135//238 108//238 104//238
f 108//239 133//239 107//239
f 136//240 133//240 108//240
f 135//241 136//241 108//241
f 136//242 134//242 133//242
f 137//243 139//243 138//243
f 140//244 138//244 139//244
f 141//245 114//245 142//245
f 141//246 113//246 114//246
f 139//247 137//247 116//247
f 116//248 137//248 142//248
f 116//249 142//249 114//249
f 143//250 117//250 144//250
f 143//251 116//251 117//251
f 140//252 116//252 143//252
f 139//253 116//253 140//253
f 145//254 143//254 144//254
f 119//255 113//255 141//255
f 119//256 141//256 146//256
f 147//257 144//257 121//257
f 144//258 117//258 121//258
f 144//259 148//259 145//259
f 149//260 148//260 144//260
f 147//261 149//261 144//261
f 150//262 148//262 149//262
f 151//263 119//263 146//263
f 151//264 122//264 119//264
f 152//265 124//265 153//265
f 153//266 124//266 122//266
f 153//267 122//267 151//267
f 147//268 121//268 125//268
f 154//269 152//269 153//269
f 125//270 127//270 147//270
f 147//271 127//271 155//271
f 147//272 155//272 149//272
f 149//273 156//273 150//273
f 149//274 155//274 156//274
f 129//275 152//275 157//275
f 129//276 124//276 152//276
f 154//277 158//277 152//277
f 158//278 157//278 152//278
f 159//279 155//279 131//279
f 155//280 127//280 131//280
f 155//281 160//281 156//281
f 155//282 159//282 160//282
f 132//283 157//283 161//283
f 132//284 129//284 157//284
f 158//285 162//285 157//285
f 162//286 161//286 157//286
f 163//287 159//287 164//287
f 164//288 159//288 131//288
f 164//289 131//289 134//289
f 163//290 160//290 159//290
f 135//291 132//291 161//291
f 165//292 161//292 162//292
f 135//293 161//293 165//293
f 136//294 135//294 165//294
f 136//295 164//295 134//295
f 136//296 165//296 164//296
f 166//297 138//297 167//297
f 166//298 137//298 138//298
f 140//299 167//299 138//299
f 140//300 168//300 167//300
f 169//301 142//301 170//301
f 169//302 141//302 142//302
f 137//303 166//303 142//303
f 166//304 170//304 142//304
f 143//305 171//305 140//305
f 140//306 171//306 172//306
f 140//307 172//307 168//307
f 143//308 145//308 171//308
f 173//309 175//309 174//309
f 176//310 174//310 175//310
f 146//311 178//311 177//311
f 169//312 178//312 146//312
f 141//313 169//313 146//313
f 179//314 177//314 180//314
f 177//315 178//315 180//315
f 180//316 172//316 179//316
f 179//317 172//317 171//317
f 179//318 171//318 181//318
f 175//319 173//319 182//319
f 171//320 145//320 148//320
f 183//321 171//321 148//321
f 181//322 171//322 183//322
f 176//323 175//323 182//323
f 183//324 148//324 150//324
f 151//325 146//325 177//325
f 177//326 153//326 151//326
f 177//327 179//327 153//327
f 179//328 154//328 153//328
f 184//329 154//329 179//329
f 181//330 184//330 179//330
f 181//331 183//331 185//331
f 181//332 185//332 184//332
f 185//333 150//333 156//333
f 185//334 183//334 150//334
f 158//335 184//335 186//335
f 158//336 154//336 184//336
f 184//337 185//337 187//337
f 184//338 187//338 186//338
f 187//339 156//339 160//339
f 187//340 185//340 156//340
f 162//341 186//341 188//341
f 162//342 158//342 186//342
f 188//343 163//343 164//343
f 187//344 163//344 188//344
f 186//345 187//345 188//345
f 187//346 160//346 163//346
f 165//347 162//347 188//347
f 188//348 164//348 165//348
f 166//349 167//349 189//349
f 189//350 167//350 168//350
f 169//351 170//351 190//351
f 189//352 170//352 166//352
f 190//353 170//353 189//353
f 191//354 190//354 189//354
f 191//355 168//355 172//355
f 191//356 189//356 168//356
f 173//357 174//357 192//357
f 192//358 174//358 176//358
f 178//359 169//359 190//359
f 190//360 180//360 178//360
f 190//361 191//361 180//361
f 191//362 172//362 180//362
f 182//363 173//363 192//363
f 192//364 176//364 182//364
f 193//365 195//365 194//365
f 196//366 194//366 195//366
f 197//367 195//367 193//367
f 197//368 196//368 195//368
f 198//369 200//369 199//369
f 194//370 200//370 193//370
f 199//371 200//371 194//371
f 201//372 199//372 194//372
f 196//373 201//373 194//373
f 196//374 202//374 201//374
f 203//375 200//375 198//375
f 203//376 193//376 200//376
f 197//377 193//377 203//377
f 204//378 197//378 203//378
f 197//379 202//379 196//379
f 197//380 204//380 202//380
f 198//381 199//381 205//381
f 206//382 199//382 201//382
f 206//383 205//383 199//383
f 206//384 201//384 202//384
f 203//385 198//385 205//385
f 205//386 204//386 203//386
f 205//387 206//387 204//387
f 206//388 202//388 204//388
f 207//389 209//389 208//389
f 210//390 208//390 209//390
f 211//391 209//391 207//391
f 211//392 210//392 209//392
f 207//393 208//393 212//393
f 212//394 208//394 210//394
f 211//395 207//395 212//395
f 212//396 210//396 211//396

# Thankyou for using Spin3D

