# Created using Spin3D

# Vertex Array
v 6.173 -5.974 31.385
v 6.175 -5.974 31.386
v 6.175 -5.975 31.385
v 6.176 -5.974 31.385
v 6.175 -5.974 31.383
v 6.175 -5.973 31.385

# Normal Array
vn -0.591 -0.659 0.466
vn 0.569 -0.675 0.469
vn -0.590 -0.470 -0.656
vn 0.580 -0.491 -0.650
vn -0.576 0.493 0.652
vn 0.593 0.469 0.655
vn -0.566 0.677 -0.470
vn 0.595 0.657 -0.464

# Facets
f 1//1 3//1 2//1
f 4//2 2//2 3//2
f 5//3 3//3 1//3
f 5//4 4//4 3//4
f 1//5 2//5 6//5
f 6//6 2//6 4//6
f 5//7 1//7 6//7
f 6//8 4//8 5//8

# Thankyou for using Spin3D

