# Created using Spin3D

# Vertex Array
v 39.851 4.178 -70.161
v 39.852 4.178 -70.160
v 39.852 4.177 -70.161
v 39.854 4.178 -70.161
v 39.852 4.178 -70.162
v 48.128 6.545 -59.396
v 48.179 6.571 -59.332
v 48.134 6.552 -59.382
v 48.182 6.573 -59.322
v 48.047 6.504 -59.496
v 48.073 6.516 -59.465
v 48.074 6.521 -59.459
v 48.090 6.531 -59.432
v 48.139 6.552 -59.370
v 48.059 6.511 -59.473
v 48.093 6.529 -59.423
v 39.852 4.179 -70.161
v 48.176 6.565 -59.335
v 48.198 6.578 -59.305
v 48.177 6.566 -59.325
v 48.062 6.508 -59.476
v 48.123 6.537 -59.400
v 48.132 6.544 -59.375
v 48.095 6.524 -59.426
v 48.180 6.565 -59.328
v 48.146 6.549 -59.362
v 19.182 6.991 33.607
v 19.648 6.571 34.366
v 19.811 6.303 33.987
v 20.382 6.572 34.508
v 20.449 6.328 33.892
v 21.292 6.828 34.132
v 19.986 6.759 33.132
v 21.090 6.901 33.354
v -11.326 9.488 35.544
v -11.407 9.468 35.571
v -11.464 9.468 35.583
v -10.994 9.577 35.414
v -11.179 9.512 35.494
v -10.714 9.679 35.285
v -10.879 9.603 35.369
v -10.655 9.741 35.220
v 18.587 9.215 34.611
v 20.082 9.137 35.786
v 19.762 7.669 34.815
v 21.566 8.614 35.864
v 21.764 7.628 34.993
v 22.912 8.562 35.756
v 23.416 8.518 34.997
v 24.001 9.236 35.496
v -11.332 9.555 35.494
v -11.033 9.766 35.274
v -11.061 9.648 35.374
v -10.731 9.741 35.241
v -10.557 9.800 35.161
v 16.720 9.170 31.982
v 17.255 9.353 33.079
v 17.954 8.310 33.079
v 22.748 8.229 33.423
v 24.778 9.743 34.256
v -10.759 9.854 35.159
v -10.556 9.883 35.097
v 17.148 8.902 31.184
v 16.354 9.699 30.774
v 18.964 8.020 31.829
v 21.010 7.884 32.099
v 22.735 9.385 31.149
v 24.885 10.523 32.071
v 16.743 9.618 30.045
v 16.463 10.189 29.841
v 18.131 9.366 30.094
v 20.595 9.394 30.247
v 23.832 10.673 30.320
v 22.549 10.302 29.787
v 17.400 10.298 29.408
v 19.377 10.572 29.272
v 21.671 10.998 29.228
v -11.320 9.573 35.475
v -11.218 9.566 35.457
v -10.925 9.655 35.334
v 19.394 9.711 35.610
v 20.259 10.107 35.774
v 21.649 9.915 35.932
v 23.170 9.533 35.911
v 24.633 10.298 35.164
v -10.931 9.790 35.231
v -10.858 9.909 35.126
v -10.686 9.821 35.160
v -10.531 9.891 35.081
v 16.752 10.046 31.880
v 17.968 10.346 33.349
v 19.373 10.430 34.847
v 26.064 11.012 33.316
v 25.709 10.869 34.283
v 26.161 11.613 33.588
v -10.768 9.941 35.087
v -10.597 9.964 35.038
v 16.677 10.600 30.499
v 17.799 11.164 31.660
v 26.173 11.375 32.492
v 26.364 11.776 32.819
v 17.039 10.821 29.588
v 17.876 11.502 30.130
v 23.315 11.271 29.484
v 24.574 11.936 30.343
v 25.802 11.969 31.843
v 18.445 11.319 29.285
v 20.852 12.055 29.243
v 23.065 12.218 29.334
v 21.362 11.226 34.833
v 23.411 10.898 35.211
v -10.724 9.961 35.059
v -10.637 9.931 35.066
v 19.777 11.671 33.166
v 21.637 12.279 33.510
v 23.588 12.472 33.424
v 25.147 11.532 34.253
v 19.508 12.256 31.074
v 21.828 12.934 31.990
v 24.723 13.320 31.991
v 23.710 13.518 31.806
v 25.063 13.096 31.032
v 25.597 12.426 32.743
v 19.440 12.184 29.768
v 21.272 12.943 30.229
v 23.175 13.623 30.704
v 24.180 13.028 29.889
v 22.907 13.160 29.693
v 24.391 13.745 31.052
v 24.156 13.620 30.279
v -12.328 43.819 74.417
v -10.855 43.879 74.658
v -9.866 43.475 74.532
v -7.887 43.474 74.755
v -7.192 43.268 74.513
v -5.832 43.283 74.715
v -11.205 43.599 74.264
v -12.784 43.887 74.174
v -8.891 43.448 74.185
v -5.045 43.280 74.423
v -5.641 43.461 73.970
v -3.045 43.633 73.921
v -3.406 43.758 73.482
v -1.752 44.137 73.138
v -11.137 43.834 73.996
v -7.834 43.731 73.799
v -4.752 43.839 73.470
v -2.969 43.982 73.217
v -14.349 44.499 74.354
v -12.603 44.323 74.500
v -13.539 44.215 74.444
v -10.357 44.165 74.603
v -8.060 43.885 74.673
v -5.288 43.607 74.642
v -4.085 43.394 74.542
v -3.323 43.614 74.444
v -2.938 43.550 74.326
v -2.201 43.850 73.973
v -15.400 44.602 74.161
v -15.058 44.614 74.217
v -14.989 44.486 74.258
v -14.093 44.186 74.240
v -1.127 44.183 73.302
v -0.329 44.498 72.805
v -0.221 44.543 72.888
v -15.014 44.460 74.139
v -13.720 44.236 74.051
v -12.280 44.208 73.943
v -9.898 44.085 73.849
v -6.634 44.081 73.626
v -2.991 44.263 73.189
v -0.617 44.572 72.719
v -0.971 44.604 72.838
v 0.087 44.700 72.622
v 31.847 46.077 70.637
v 31.846 46.080 70.637
v 31.843 46.081 70.638
v 31.844 46.082 70.638
v 31.843 46.084 70.639
v 31.843 46.086 70.638
v -0.069 44.737 72.603
v 31.846 46.080 70.639
v 31.845 46.083 70.639
v -13.672 44.528 74.234
v -11.153 44.375 74.331
v -8.319 44.212 74.350
v -5.402 44.064 74.255
v -3.120 43.965 74.105
v -14.805 44.547 74.112
v -13.582 44.434 74.041
v -11.819 44.371 74.045
v -8.991 44.275 73.997
v -5.712 44.253 73.807
v -2.574 44.356 73.462
v -1.281 44.302 73.403
v -0.446 44.637 72.854
v 31.851 46.077 70.637
v 31.849 46.079 70.637
v 31.848 46.080 70.638
v 31.846 46.082 70.638
v 31.848 46.078 70.638
v 31.852 46.077 70.638

# Normal Array
vn -0.611 -0.611 0.503
vn 0.536 -0.697 0.476
vn -0.559 -0.463 -0.688
vn 0.557 -0.519 -0.648
vn 0.257 0.806 -0.533
vn -0.306 0.948 -0.084
vn 0.376 0.701 -0.606
vn 0.390 0.695 -0.605
vn 0.255 0.807 -0.532
vn -0.241 0.950 -0.199
vn -0.609 0.762 0.221
vn -0.617 0.754 0.223
vn -0.501 0.865 -0.035
vn -0.539 0.842 0.020
vn -0.760 0.567 0.319
vn -0.690 0.652 0.315
vn -0.577 0.481 0.660
vn 0.549 0.493 0.675
vn -0.556 0.665 -0.499
vn 0.601 0.639 -0.480
vn 0.829 -0.187 -0.526
vn 0.797 -0.136 -0.588
vn -0.206 0.972 -0.116
vn -0.739 0.346 0.578
vn 0.789 -0.265 -0.555
vn 0.792 -0.370 -0.485
vn 0.801 -0.310 -0.511
vn 0.793 -0.296 -0.533
vn -0.760 0.387 0.522
vn -0.767 0.341 0.543
vn -0.305 -0.840 0.449
vn 0.396 -0.918 0.031
vn -0.300 -0.839 0.454
vn -0.572 -0.571 0.589
vn -0.776 0.365 0.515
vn -0.538 -0.577 0.614
vn 0.811 -0.419 -0.410
vn 0.010 -0.864 0.503
vn 0.438 -0.899 -0.000
vn 0.738 -0.565 -0.370
vn -0.292 -0.742 0.604
vn -0.040 -0.885 0.463
vn 0.392 -0.919 0.035
vn -0.032 -0.924 0.380
vn -0.764 -0.634 0.119
vn 0.092 -0.923 0.375
vn -0.104 -0.833 0.544
vn 0.392 -0.840 0.375
vn -0.494 -0.721 -0.486
vn -0.036 -0.879 -0.476
vn 0.218 -0.786 -0.578
vn 0.543 -0.811 -0.217
vn 0.190 0.428 0.884
vn 0.230 0.420 0.878
vn 0.326 -0.037 0.945
vn 0.233 0.452 0.861
vn 0.289 0.293 0.911
vn -0.036 -0.709 -0.704
vn -0.590 -0.352 0.727
vn -0.079 -0.669 0.739
vn -0.222 -0.504 0.835
vn 0.444 -0.827 0.343
vn 0.035 -0.658 0.752
vn 0.549 -0.730 0.407
vn 0.140 0.595 0.792
vn 0.127 0.626 0.770
vn 0.147 0.595 0.790
vn 0.150 0.591 0.792
vn 0.151 0.592 0.792
vn 0.151 0.592 0.792
vn 0.055 -0.749 -0.660
vn 0.166 0.593 0.788
vn -0.744 -0.498 0.446
vn -0.690 -0.462 0.558
vn -0.695 -0.455 0.556
vn -0.701 -0.423 0.574
vn -0.873 -0.105 0.477
vn -0.177 -0.357 0.917
vn -0.090 -0.316 0.945
vn 0.417 -0.768 0.486
vn 0.729 -0.653 0.207
vn 0.474 -0.880 -0.039
vn 0.707 -0.688 0.162
vn 0.626 -0.770 -0.124
vn 0.121 0.627 0.769
vn 0.141 0.609 0.781
vn 0.151 0.610 0.778
vn 0.160 0.602 0.782
vn -0.559 -0.829 -0.021
vn -0.673 -0.730 -0.116
vn -0.464 -0.790 -0.401
vn -0.619 -0.710 -0.335
vn -0.402 -0.909 -0.113
vn 0.221 -0.761 -0.610
vn 0.048 -0.699 -0.714
vn 0.614 -0.755 -0.231
vn 0.539 -0.646 -0.540
vn 0.464 -0.789 -0.404
vn 0.641 -0.732 -0.230
vn 0.555 -0.740 -0.380
vn -0.620 -0.745 -0.248
vn -0.781 -0.511 -0.359
vn -0.208 -0.819 -0.535
vn -0.139 -0.860 -0.491
vn 0.033 -0.771 -0.636
vn 0.048 -0.778 -0.626
vn 0.434 -0.719 -0.543
vn 0.235 -0.791 -0.565
vn 0.269 -0.716 -0.644
vn 0.557 -0.730 -0.397
vn -0.329 -0.457 -0.826
vn -0.089 -0.634 -0.768
vn 0.024 -0.580 -0.814
vn 0.057 -0.601 -0.797
vn 0.092 -0.577 -0.811
vn 0.072 -0.569 -0.819
vn -0.171 -0.585 -0.793
vn -0.140 -0.623 -0.769
vn -0.177 -0.582 -0.794
vn -0.122 -0.636 -0.762
vn -0.136 -0.622 -0.771
vn -0.120 -0.635 -0.763
vn -0.563 -0.463 0.685
vn -0.208 0.050 0.977
vn -0.109 0.032 0.994
vn -0.069 -0.048 0.996
vn 0.073 -0.177 0.982
vn 0.001 -0.052 0.999
vn 0.364 -0.241 0.900
vn 0.450 0.011 0.893
vn -0.079 0.767 0.637
vn -0.177 -0.578 -0.797
vn -0.216 -0.532 -0.819
vn -0.191 -0.583 -0.790
vn -0.063 0.763 0.643
vn -0.148 -0.602 -0.785
vn -0.153 -0.602 -0.784
vn -0.125 -0.627 -0.769
vn -0.110 -0.624 -0.773
vn -0.065 -0.648 -0.759
vn -0.901 0.083 0.426
vn -0.747 0.389 0.539
vn -0.698 0.328 0.637
vn -0.698 0.328 0.637
vn -0.795 0.431 0.427
vn -0.419 0.655 0.628
vn 0.755 -0.629 0.185
vn 0.679 -0.573 0.459
vn 0.844 -0.386 0.371
vn 0.914 -0.281 0.294
vn 0.078 0.669 0.739
vn 0.113 0.639 0.761
vn 0.144 0.628 0.765
vn 0.132 0.639 0.758
vn 0.295 0.582 0.757
vn 0.251 0.648 0.719
vn -0.900 0.384 0.203
vn -0.946 0.072 0.317
vn -0.634 0.669 0.387
vn -0.663 0.682 0.310
vn 0.590 -0.765 -0.259
vn 0.583 -0.774 -0.248
vn 0.949 -0.244 0.199
vn 0.917 -0.395 -0.052
vn -0.760 0.633 -0.149
vn -0.931 0.357 0.079
vn -0.564 0.812 0.151
vn -0.610 0.791 -0.051
vn 0.450 -0.571 -0.686
vn 0.649 -0.369 -0.665
vn 0.755 -0.435 -0.491
vn 0.671 -0.510 -0.538
vn 0.532 -0.451 -0.717
vn 0.866 -0.005 -0.500
vn -0.422 0.021 -0.907
vn -0.382 0.816 -0.433
vn -0.259 0.150 -0.954
vn -0.061 -0.058 -0.996
vn -0.019 -0.001 -1.000
vn -0.017 -0.003 -1.000
vn 0.209 -0.439 -0.874
vn 0.171 -0.110 -0.979
vn 0.038 0.044 -0.998
vn 0.558 0.016 -0.830
vn 0.002 0.643 0.766
vn 0.122 0.436 0.892
vn -0.040 0.637 0.770
vn 0.235 0.411 0.881
vn -0.155 -0.601 -0.784
vn -0.154 -0.599 -0.786
vn -0.149 -0.606 -0.782
vn -0.121 -0.611 -0.782
vn -0.504 0.748 0.431
vn -0.305 0.771 0.560
vn -0.316 0.798 0.513
vn -0.350 0.767 0.538
vn -0.002 0.750 0.661
vn -0.050 0.786 0.616
vn 0.438 0.408 0.801
vn 0.274 0.495 0.825
vn 0.095 0.742 0.663
vn 0.470 0.433 0.769
vn -0.118 0.882 0.457
vn 0.098 0.726 0.681
vn -0.125 -0.549 -0.827
vn -0.100 -0.570 -0.816
vn -0.441 0.848 0.294
vn -0.509 0.753 0.416
vn -0.348 0.876 0.334
vn -0.373 0.880 0.294
vn 0.064 0.836 0.545
vn -0.206 0.829 0.520
vn -0.074 0.919 0.387
vn 0.683 0.727 0.072
vn 0.228 0.748 0.624
vn 0.203 0.815 0.543
vn 0.596 0.740 0.314
vn 0.298 0.780 0.551
vn -0.405 0.914 -0.029
vn -0.490 0.856 0.164
vn -0.317 0.943 0.105
vn -0.376 0.926 -0.032
vn -0.269 0.938 0.220
vn -0.360 0.925 0.118
vn 0.855 0.514 -0.066
vn 0.772 0.050 -0.633
vn 0.790 0.031 -0.612
vn 0.643 0.732 -0.225
vn -0.442 0.768 -0.463
vn -0.212 0.651 -0.729
vn -0.161 0.767 -0.621
vn -0.236 0.906 -0.352
vn -0.289 0.769 -0.570
vn 0.012 0.358 -0.934
vn 0.529 -0.156 -0.834
vn 0.179 0.376 -0.909
vn 0.111 0.920 0.377
vn 0.694 0.716 0.078
vn -0.058 0.988 -0.143
vn -0.144 0.976 0.164
vn 0.711 0.408 -0.573
vn 0.655 0.689 -0.311
vn -0.159 0.913 -0.376
vn 0.183 0.547 -0.817
vn -0.114 -0.541 0.833
vn -0.061 -0.839 0.540
vn -0.097 -0.505 0.858
vn -0.069 -0.848 0.525
vn -0.146 -0.945 0.292
vn -0.183 -0.981 0.068
vn -0.077 -0.987 -0.141
vn -0.068 -0.991 -0.115
vn 0.007 -1.000 0.027
vn -0.010 -0.933 -0.359
vn -0.022 -0.921 -0.390
vn 0.057 -0.947 -0.315
vn 0.052 -0.902 -0.428
vn 0.134 -0.919 -0.371
vn -0.096 -0.737 -0.669
vn -0.071 -0.742 -0.667
vn -0.064 -0.715 -0.697
vn -0.041 -0.750 -0.660
vn -0.043 -0.759 -0.650
vn -0.040 -0.761 -0.647
vn -0.038 -0.730 -0.683
vn 0.066 -0.812 -0.581
vn -0.072 0.110 0.991
vn -0.127 -0.448 0.885
vn -0.069 0.083 0.994
vn -0.028 0.236 0.971
vn -0.006 0.192 0.981
vn -0.006 0.199 0.980
vn 0.094 0.064 0.993
vn 0.034 0.163 0.986
vn 0.032 0.208 0.978
vn 0.220 -0.357 0.908
vn 0.100 0.097 0.990
vn 0.323 0.271 0.907
vn -0.166 0.218 0.962
vn -0.149 0.227 0.962
vn -0.145 -0.102 0.984
vn -0.218 -0.693 0.687
vn -0.215 -0.968 0.132
vn -0.214 -0.703 0.679
vn 0.086 -0.967 0.240
vn 0.135 -0.979 -0.150
vn 0.090 -0.971 -0.222
vn 0.157 -0.929 -0.335
vn 0.157 -0.928 -0.338
vn 0.252 -0.965 -0.077
vn 0.255 -0.932 -0.258
vn 0.376 -0.926 0.018
vn -0.320 -0.910 0.264
vn -0.301 -0.917 0.261
vn -0.178 -0.807 -0.563
vn -0.206 -0.767 -0.608
vn -0.107 -0.572 -0.813
vn -0.077 -0.364 -0.928
vn -0.065 -0.243 -0.968
vn -0.053 -0.295 -0.954
vn -0.100 -0.145 -0.984
vn -0.066 -0.250 -0.966
vn -0.131 -0.111 -0.985
vn -0.107 -0.203 -0.973
vn -0.051 -0.106 -0.993
vn -0.090 -0.559 -0.825
vn 0.020 -0.720 -0.694
vn -0.230 0.517 -0.825
vn 0.419 -0.907 -0.049
vn 0.029 -0.702 -0.711
vn -0.479 -0.396 -0.783
vn -0.335 0.364 -0.869
vn -0.232 0.181 -0.956
vn -0.953 -0.153 -0.261
vn -0.281 0.288 -0.915
vn -0.021 -0.529 -0.848
vn -0.524 -0.570 0.632
vn -0.470 -0.341 0.814
vn 0.169 0.007 0.986
vn 0.490 0.440 0.753
vn 0.048 0.875 0.482
vn 0.034 0.835 0.549
vn 0.031 0.848 0.529
vn 0.068 0.729 0.682
vn 0.046 0.850 0.525
vn 0.074 0.656 0.751
vn 0.059 0.726 0.686
vn 0.072 0.671 0.738
vn 0.078 0.656 0.751
vn 0.187 0.624 0.759
vn 0.044 0.888 -0.458
vn 0.048 0.873 0.485
vn 0.061 0.902 -0.427
vn 0.060 0.907 -0.416
vn 0.066 0.984 -0.168
vn 0.033 0.904 -0.427
vn 0.057 0.996 0.070
vn 0.032 0.995 -0.089
vn 0.059 0.934 0.353
vn 0.015 0.989 0.148
vn 0.073 0.824 0.562
vn 0.012 0.924 0.382
vn 0.535 -0.024 0.844
vn 0.187 0.600 0.778
vn 0.060 0.830 0.555
vn 0.459 -0.149 0.876
vn -0.089 -0.086 -0.992
vn -0.084 -0.097 -0.992
vn -0.059 -0.010 -0.998
vn -0.075 0.001 -0.997
vn 0.019 0.488 -0.873
vn -0.006 0.539 -0.842
vn 0.007 0.595 -0.804
vn -0.045 0.739 -0.672
vn -0.030 0.796 -0.605
vn -0.093 0.914 -0.395
vn -0.058 0.969 -0.241
vn -0.177 0.982 -0.064
vn -0.068 0.975 0.212
vn 0.060 0.809 0.585
vn 0.201 0.724 0.659
vn 0.182 0.692 0.699
vn 0.208 0.343 -0.916
vn -0.192 -0.317 -0.929
vn 0.735 0.657 -0.167
vn -0.008 0.208 -0.978
vn 0.280 0.633 -0.721
vn -0.007 0.178 -0.984
vn -0.069 0.958 0.278
vn 0.133 0.835 0.534
vn 0.202 -0.456 0.867
vn 0.031 -0.372 0.928
vn 0.666 0.691 0.281
vn 0.068 -0.168 0.983
vn 0.466 0.082 0.881
vn 0.701 0.538 0.468
vn 0.593 0.614 -0.522
vn 0.622 0.708 -0.335
vn -0.254 -0.967 -0.009
vn -0.017 -0.162 0.987

# Facets
f 1//1 3//1 2//1
f 4//2 2//2 3//2
f 5//3 3//3 1//3
f 5//4 4//4 3//4
f 6//5 8//5 7//5
f 9//6 7//6 8//6
f 10//7 12//7 11//7
f 12//8 6//8 11//8
f 8//9 6//9 12//9
f 13//10 8//10 12//10
f 8//11 14//11 9//11
f 8//12 13//12 14//12
f 15//13 12//13 10//13
f 15//14 13//14 12//14
f 15//15 16//15 13//15
f 16//16 14//16 13//16
f 1//17 2//17 17//17
f 17//18 2//18 4//18
f 5//19 1//19 17//19
f 17//20 4//20 5//20
f 18//21 7//21 19//21
f 18//22 6//22 7//22
f 9//23 19//23 7//23
f 9//24 20//24 19//24
f 10//25 11//25 21//25
f 21//26 11//26 22//26
f 22//27 11//27 6//27
f 22//28 6//28 18//28
f 20//29 9//29 14//29
f 23//30 20//30 14//30
f 15//31 10//31 21//31
f 24//32 21//32 22//32
f 15//33 21//33 24//33
f 16//34 15//34 24//34
f 16//35 23//35 14//35
f 16//36 24//36 23//36
f 18//37 19//37 25//37
f 25//38 19//38 20//38
f 22//39 25//39 26//39
f 22//40 18//40 25//40
f 26//41 20//41 23//41
f 26//42 25//42 20//42
f 24//43 22//43 26//43
f 26//44 23//44 24//44
f 27//45 29//45 28//45
f 30//46 29//46 31//46
f 30//47 28//47 29//47
f 32//48 30//48 31//48
f 33//49 29//49 27//49
f 33//50 31//50 29//50
f 33//51 34//51 31//51
f 34//52 32//52 31//52
f 35//53 37//53 36//53
f 35//54 39//54 38//54
f 36//55 39//55 35//55
f 38//56 41//56 40//56
f 39//57 41//57 38//57
f 41//58 42//58 40//58
f 43//59 45//59 44//59
f 46//60 45//60 47//60
f 46//61 44//61 45//61
f 48//62 47//62 49//62
f 48//63 46//63 47//63
f 50//64 48//64 49//64
f 35//65 51//65 37//65
f 51//66 53//66 52//66
f 51//67 35//67 53//67
f 35//68 38//68 53//68
f 40//69 54//69 38//69
f 54//70 53//70 38//70
f 55//71 40//71 42//71
f 54//72 40//72 55//72
f 56//73 58//73 57//73
f 58//74 43//74 57//74
f 58//75 45//75 43//75
f 27//76 45//76 58//76
f 28//77 45//77 27//77
f 28//78 30//78 45//78
f 30//79 47//79 45//79
f 30//80 32//80 47//80
f 47//81 32//81 59//81
f 47//82 59//82 49//82
f 49//83 60//83 50//83
f 49//84 59//84 60//84
f 53//85 61//85 52//85
f 54//86 61//86 53//86
f 62//87 61//87 54//87
f 55//88 62//88 54//88
f 56//89 63//89 58//89
f 56//90 64//90 63//90
f 33//91 27//91 65//91
f 65//92 27//92 58//92
f 65//93 58//93 63//93
f 34//94 33//94 66//94
f 33//95 65//95 66//95
f 32//96 34//96 59//96
f 59//97 34//97 66//97
f 59//98 66//98 67//98
f 59//99 68//99 60//99
f 59//100 67//100 68//100
f 64//101 69//101 63//101
f 64//102 70//102 69//102
f 71//103 65//103 63//103
f 69//104 71//104 63//104
f 72//105 66//105 65//105
f 71//106 72//106 65//106
f 67//107 74//107 73//107
f 72//108 74//108 67//108
f 66//109 72//109 67//109
f 73//110 68//110 67//110
f 75//111 69//111 70//111
f 75//112 71//112 69//112
f 75//113 76//113 71//113
f 76//114 72//114 71//114
f 76//115 77//115 72//115
f 77//116 74//116 72//116
f 36//117 37//117 78//117
f 36//118 79//118 39//118
f 78//119 79//119 36//119
f 39//120 80//120 41//120
f 79//121 80//121 39//121
f 41//122 80//122 42//122
f 43//123 44//123 81//123
f 44//124 82//124 81//124
f 83//125 82//125 44//125
f 46//126 83//126 44//126
f 46//127 48//127 84//127
f 83//128 46//128 84//128
f 50//129 84//129 48//129
f 50//130 85//130 84//130
f 37//131 51//131 78//131
f 86//132 79//132 78//132
f 86//133 78//133 52//133
f 86//134 52//134 87//134
f 51//135 52//135 78//135
f 80//136 79//136 86//136
f 88//137 80//137 86//137
f 88//138 42//138 80//138
f 88//139 89//139 42//139
f 89//140 55//140 42//140
f 56//141 57//141 90//141
f 90//142 57//142 91//142
f 57//143 43//143 91//143
f 91//144 43//144 92//144
f 92//145 43//145 81//145
f 81//146 82//146 92//146
f 93//147 94//147 60//147
f 60//148 94//148 85//148
f 60//149 85//149 50//149
f 95//150 94//150 93//150
f 52//151 96//151 87//151
f 61//152 96//152 52//152
f 62//153 97//153 61//153
f 61//154 97//154 96//154
f 89//155 62//155 55//155
f 97//156 62//156 89//156
f 64//157 90//157 98//157
f 64//158 56//158 90//158
f 91//159 99//159 90//159
f 99//160 98//160 90//160
f 100//161 93//161 68//161
f 93//162 60//162 68//162
f 93//163 101//163 95//163
f 93//164 100//164 101//164
f 70//165 98//165 102//165
f 70//166 64//166 98//166
f 99//167 103//167 98//167
f 103//168 102//168 98//168
f 104//169 73//169 74//169
f 105//170 73//170 104//170
f 105//171 68//171 73//171
f 106//172 68//172 105//172
f 100//173 68//173 106//173
f 106//174 101//174 100//174
f 75//175 70//175 102//175
f 107//176 102//176 103//176
f 75//177 102//177 107//177
f 76//178 75//178 107//178
f 108//179 77//179 76//179
f 108//180 76//180 107//180
f 77//181 104//181 74//181
f 109//182 104//182 77//182
f 108//183 109//183 77//183
f 109//184 105//184 104//184
f 82//185 83//185 110//185
f 111//186 83//186 84//186
f 111//187 110//187 83//187
f 111//188 84//188 85//188
f 86//189 87//189 112//189
f 86//190 113//190 88//190
f 112//191 113//191 86//191
f 88//192 113//192 89//192
f 91//193 92//193 114//193
f 110//194 92//194 82//194
f 114//195 92//195 110//195
f 115//196 114//196 110//196
f 110//197 111//197 116//197
f 110//198 116//198 115//198
f 117//199 85//199 94//199
f 111//200 85//200 117//200
f 116//201 111//201 117//201
f 117//202 94//202 95//202
f 87//203 96//203 112//203
f 97//204 112//204 96//204
f 113//205 112//205 97//205
f 89//206 113//206 97//206
f 99//207 114//207 118//207
f 99//208 91//208 114//208
f 114//209 115//209 119//209
f 114//210 119//210 118//210
f 120//211 121//211 116//211
f 116//212 121//212 119//212
f 116//213 119//213 115//213
f 122//214 120//214 123//214
f 123//215 120//215 116//215
f 123//216 116//216 117//216
f 123//217 95//217 101//217
f 123//218 117//218 95//218
f 103//219 118//219 124//219
f 103//220 99//220 118//220
f 118//221 119//221 125//221
f 118//222 125//222 124//222
f 121//223 126//223 119//223
f 126//224 125//224 119//224
f 123//225 106//225 122//225
f 122//226 106//226 105//226
f 122//227 105//227 127//227
f 123//228 101//228 106//228
f 107//229 103//229 124//229
f 124//230 108//230 107//230
f 124//231 125//231 108//231
f 128//232 125//232 126//232
f 108//233 125//233 128//233
f 109//234 108//234 128//234
f 109//235 127//235 105//235
f 109//236 128//236 127//236
f 121//237 120//237 129//237
f 129//238 120//238 122//238
f 126//239 129//239 130//239
f 126//240 121//240 129//240
f 130//241 122//241 127//241
f 130//242 129//242 122//242
f 128//243 126//243 130//243
f 130//244 127//244 128//244
f 131//245 133//245 132//245
f 134//246 133//246 135//246
f 134//247 132//247 133//247
f 136//248 134//248 135//248
f 131//249 137//249 133//249
f 131//250 138//250 137//250
f 139//251 135//251 133//251
f 137//252 139//252 133//252
f 135//253 140//253 136//253
f 141//254 140//254 135//254
f 139//255 141//255 135//255
f 142//256 141//256 143//256
f 142//257 140//257 141//257
f 144//258 142//258 143//258
f 145//259 137//259 138//259
f 145//260 139//260 137//260
f 145//261 146//261 139//261
f 146//262 141//262 139//262
f 146//263 147//263 141//263
f 147//264 143//264 141//264
f 147//265 148//265 143//265
f 148//266 144//266 143//266
f 149//267 151//267 150//267
f 132//268 151//268 131//268
f 150//269 151//269 132//269
f 152//270 150//270 132//270
f 132//271 134//271 153//271
f 152//272 132//272 153//272
f 154//273 136//273 155//273
f 134//274 136//274 154//274
f 153//275 134//275 154//275
f 156//276 155//276 157//276
f 156//277 154//277 155//277
f 158//278 156//278 157//278
f 159//279 161//279 160//279
f 161//280 149//280 160//280
f 151//281 149//281 161//281
f 162//282 151//282 161//282
f 138//283 131//283 162//283
f 131//284 151//284 162//284
f 155//285 136//285 140//285
f 140//286 142//286 155//286
f 142//287 157//287 155//287
f 163//288 144//288 164//288
f 163//289 142//289 144//289
f 158//290 142//290 163//290
f 157//291 142//291 158//291
f 165//292 163//292 164//292
f 166//293 161//293 159//293
f 166//294 162//294 161//294
f 166//295 167//295 162//295
f 167//296 138//296 162//296
f 145//297 138//297 167//297
f 168//298 145//298 167//298
f 169//299 146//299 145//299
f 169//300 145//300 168//300
f 170//301 147//301 146//301
f 170//302 146//302 169//302
f 171//303 148//303 147//303
f 171//304 147//304 170//304
f 171//305 144//305 148//305
f 172//306 144//306 171//306
f 164//307 144//307 172//307
f 171//308 173//308 172//308
f 164//309 174//309 165//309
f 164//310 172//310 174//310
f 175//311 177//311 176//311
f 178//312 177//312 179//312
f 178//313 176//313 177//313
f 180//314 178//314 179//314
f 181//315 172//315 173//315
f 181//316 174//316 172//316
f 182//317 177//317 175//317
f 182//318 179//318 177//318
f 182//319 183//319 179//319
f 183//320 180//320 179//320
f 149//321 150//321 184//321
f 185//322 150//322 152//322
f 185//323 184//323 150//323
f 186//324 152//324 153//324
f 186//325 185//325 152//325
f 187//326 153//326 154//326
f 187//327 186//327 153//327
f 188//328 154//328 156//328
f 188//329 187//329 154//329
f 188//330 156//330 158//330
f 159//331 160//331 189//331
f 184//332 160//332 149//332
f 189//333 160//333 184//333
f 190//334 189//334 184//334
f 184//335 185//335 191//335
f 184//336 191//336 190//336
f 185//337 186//337 192//337
f 185//338 192//338 191//338
f 186//339 187//339 193//339
f 186//340 193//340 192//340
f 187//341 188//341 194//341
f 187//342 194//342 193//342
f 195//343 158//343 163//343
f 188//344 158//344 195//344
f 194//345 188//345 195//345
f 195//346 163//346 165//346
f 166//347 159//347 189//347
f 189//348 167//348 166//348
f 189//349 190//349 167//349
f 190//350 168//350 167//350
f 190//351 191//351 168//351
f 191//352 169//352 168//352
f 191//353 192//353 169//353
f 192//354 170//354 169//354
f 192//355 193//355 170//355
f 193//356 171//356 170//356
f 193//357 194//357 171//357
f 194//358 173//358 171//358
f 196//359 173//359 194//359
f 195//360 196//360 194//360
f 196//361 165//361 174//361
f 196//362 195//362 165//362
f 197//363 176//363 198//363
f 197//364 175//364 176//364
f 198//365 200//365 199//365
f 178//366 200//366 198//366
f 176//367 178//367 198//367
f 200//368 178//368 180//368
f 181//369 173//369 196//369
f 196//370 174//370 181//370
f 201//371 175//371 197//371
f 201//372 182//372 175//372
f 183//373 199//373 200//373
f 201//374 199//374 183//374
f 182//375 201//375 183//375
f 200//376 180//376 183//376
f 197//377 198//377 202//377
f 202//378 198//378 199//378
f 201//379 197//379 202//379
f 202//380 199//380 201//380

# Thankyou for using Spin3D

