# Created using Spin3D

# Vertex Array
v 20.782 -43.535 -0.567
v 20.780 -43.535 -0.567
v 20.780 -43.533 -0.567
v 20.778 -43.536 -0.567
v 20.781 -43.533 -0.568
v 20.782 -43.536 -0.569
v 20.778 -43.535 -0.569
v 20.780 -43.535 -0.569
v 20.781 -43.537 -0.567
v 20.780 -43.537 -0.569
v 5.664 -40.545 28.736
v 5.663 -40.544 28.734
v 5.662 -40.545 28.736
v 5.660 -40.545 28.735
v 5.662 -40.545 28.737
v -15.275 -39.269 13.571
v -15.274 -39.269 13.572
v -15.274 -39.270 13.571
v -15.272 -39.269 13.571
v -15.274 -39.269 13.570
v 5.664 -40.543 28.735
v 5.662 -40.543 28.734
v 5.660 -40.543 28.736
v 5.663 -40.543 28.738
v -15.274 -39.268 13.571
v 5.662 -40.543 28.736
v -32.771 -18.087 -30.254
v -32.769 -18.089 -30.257
v -32.769 -18.088 -30.255
v -32.768 -18.090 -30.257
v -32.769 -18.089 -30.251
v -32.771 -18.093 -30.251
v -32.768 -18.091 -30.252
v -32.769 -18.093 -30.248
v 44.850 -16.840 -26.795
v 45.535 -16.696 -26.427
v 46.156 -16.924 -27.273
v 46.666 -16.826 -26.698
v -32.771 -18.092 -30.254
v -32.769 -18.093 -30.257
v -32.768 -18.094 -30.253
v 44.088 -16.497 -27.599
v 44.205 -16.699 -26.956
v 44.925 -16.801 -27.690
v 46.314 -16.877 -28.327
v 47.385 -16.869 -27.354
v 47.728 -16.829 -28.427
v 48.349 -16.623 -27.990
v -32.771 -18.098 -30.251
v -32.768 -18.096 -30.248
v 44.600 -16.525 -28.365
v 45.678 -16.645 -28.819
v 45.167 -16.286 -29.063
v 47.232 -16.673 -29.237
v 48.964 -16.625 -29.016
v 48.664 -16.596 -29.517
v 49.388 -16.459 -29.599
v -32.769 -18.096 -30.249
v 46.497 -16.343 -29.541
v 48.020 -16.357 -29.816
v 49.082 -16.354 -29.882
v 44.126 -16.413 -26.920
v 44.895 -16.368 -26.517
v 44.472 -16.649 -26.506
v 45.850 -16.370 -26.378
v 46.672 -16.556 -26.504
v 47.468 -16.704 -26.976
v 47.642 -16.396 -27.226
v -32.769 -18.097 -30.254
v 44.128 -16.191 -27.617
v 48.463 -16.281 -28.187
v -32.770 -18.097 -30.250
v 44.368 -16.213 -28.358
v 45.039 -16.004 -28.947
v 49.174 -16.387 -29.002
v 49.287 -16.257 -29.622
v 45.856 -16.050 -29.428
v 47.084 -16.048 -29.617
v 48.474 -16.119 -29.688
v 44.732 -16.082 -27.260
v 45.822 -16.094 -26.951
v 46.692 -16.247 -26.766
v 44.808 -15.954 -28.224
v 45.920 -15.887 -28.017
v 47.317 -16.052 -27.808
v 45.931 -15.874 -28.994
v 47.324 -15.915 -28.959
v 48.603 -16.107 -28.980
v -37.502 -6.877 -11.470
v -37.432 -6.727 -11.379
v -37.540 -7.026 -11.522
v -37.399 -6.745 -11.357
v -37.407 -6.744 -11.371
v 52.874 -9.493 -16.021
v 52.923 -9.523 -15.970
v 52.946 -9.565 -15.980
v 52.993 -9.586 -15.936
v 53.002 -9.593 -15.957
v 53.013 -9.576 -15.945
v 52.884 -9.500 -16.044
v 52.823 -9.419 -16.082
v 52.947 -9.538 -16.020
v 52.989 -9.540 -15.997
v 52.865 -9.442 -16.089
v 52.928 -9.477 -16.061
v -37.351 -6.433 -11.269
v -37.228 -6.176 -11.113
v -37.027 -5.884 -10.900
v -37.180 -6.290 -11.106
v -36.784 -5.427 -10.635
v -37.271 -6.325 -11.194
v -37.045 -5.941 -10.948
v 52.842 -9.426 -16.039
v 52.895 -9.455 -15.992
v 52.967 -9.526 -15.951
v 52.971 -9.496 -15.989
v 52.800 -9.358 -16.100
v 52.939 -9.457 -16.047
v 52.811 -9.364 -16.121
v 52.866 -9.395 -16.101
v -36.536 -4.776 -10.303
v -36.291 -4.320 -10.027
v -36.556 -4.915 -10.347
v -36.374 -4.518 -10.140
v -37.126 -5.858 -10.981
v -36.888 -5.409 -10.703
v -36.603 -4.955 -10.419
v -37.059 -5.729 -10.919
v -36.861 -5.402 -10.711
v 52.846 -9.380 -16.055
v 52.917 -9.443 -16.001
v 52.820 -9.347 -16.107
v 52.889 -9.400 -16.058
v -36.250 -4.154 -9.967
v -36.179 -4.046 -9.897
v -36.286 -4.229 -10.031
v -36.853 -5.248 -10.660
v -36.486 -4.546 -10.236
v -36.503 -4.623 -10.286
v -36.663 -4.880 -10.455
v -36.215 -4.040 -9.932
v -36.360 -4.283 -10.102
v 3.375 2.926 14.575
v 3.376 2.926 14.576
v 3.376 2.925 14.575
v 3.377 2.926 14.575
v 3.376 2.926 14.574
v 3.376 2.927 14.575
v 65.500 6.604 5.419
v 65.500 6.603 5.420
v 65.499 6.603 5.423
v 65.500 6.603 5.423
v 65.496 6.603 5.425
v 65.495 6.602 5.427
v 65.496 6.603 5.423
v 65.494 6.603 5.426
v 65.495 6.602 5.424
v 65.492 6.603 5.427
v 65.491 6.602 5.427
v 65.498 6.603 5.421
v 65.497 6.602 5.424
v 65.495 6.602 5.426
v 3.446 29.707 82.921
v 3.444 29.708 82.919
v 3.444 29.707 82.921
v 3.442 29.708 82.920
v 3.443 29.707 82.923
v 3.446 29.709 82.921
v 3.443 29.709 82.919
v 3.442 29.709 82.922
v 3.444 29.709 82.923
v 3.444 29.709 82.921

# Normal Array
vn 0.171 0.101 0.980
vn -0.260 0.014 0.966
vn 0.554 0.742 0.376
vn 0.819 0.542 -0.189
vn -0.802 0.475 0.363
vn -0.512 0.846 -0.151
vn 0.287 0.323 -0.902
vn -0.165 0.419 -0.893
vn 0.246 -0.318 0.916
vn -0.160 -0.399 0.903
vn 0.490 -0.762 -0.423
vn 0.806 -0.559 0.195
vn -0.808 -0.468 -0.358
vn -0.516 -0.846 0.132
vn 0.168 -0.106 -0.980
vn -0.248 -0.001 -0.969
vn 0.218 -0.931 -0.292
vn -0.158 -0.913 -0.376
vn 0.132 -0.988 0.078
vn -0.248 -0.969 -0.007
vn -0.583 -0.661 0.472
vn 0.583 -0.661 0.472
vn -0.564 -0.447 -0.695
vn 0.563 -0.447 -0.695
vn 0.522 0.417 -0.744
vn 0.814 -0.207 -0.543
vn -0.519 -0.117 -0.847
vn -0.803 0.391 -0.450
vn 0.820 0.178 0.544
vn 0.505 -0.425 0.751
vn -0.813 -0.376 0.445
vn -0.519 0.133 0.844
vn -0.582 0.473 0.662
vn 0.582 0.473 0.662
vn -0.568 0.652 -0.502
vn 0.568 0.653 -0.502
vn 0.179 0.980 -0.087
vn -0.245 0.970 0.005
vn 0.262 0.923 0.281
vn -0.157 0.915 0.371
vn -0.372 0.695 -0.615
vn 0.306 0.797 -0.521
vn 0.237 0.943 0.235
vn -0.719 0.356 0.597
vn 0.815 0.548 0.186
vn 0.890 0.455 0.027
vn -0.821 0.381 0.426
vn 0.842 0.254 0.475
vn 0.045 -0.956 0.289
vn -0.059 -0.974 0.218
vn -0.886 0.120 -0.447
vn -0.823 0.018 -0.568
vn -0.233 0.078 -0.969
vn 0.709 -0.476 -0.520
vn -0.354 -0.909 -0.221
vn -0.199 -0.978 -0.059
vn -0.082 -0.995 -0.050
vn -0.080 -0.995 -0.056
vn 0.052 -0.991 0.123
vn 0.043 -0.999 -0.023
vn 0.031 -0.999 -0.040
vn 0.281 -0.958 0.054
vn -0.999 -0.018 -0.031
vn -0.999 0.041 -0.025
vn 0.999 -0.037 0.032
vn 0.999 -0.018 -0.046
vn -0.354 -0.913 -0.203
vn -0.308 -0.796 -0.522
vn -0.220 -0.935 -0.277
vn -0.163 -0.957 -0.241
vn 0.019 -0.979 -0.201
vn -0.102 -0.944 -0.314
vn 0.225 -0.965 0.136
vn 0.106 -0.987 -0.120
vn 0.014 -0.980 -0.198
vn 0.166 -0.974 -0.156
vn -0.814 0.010 0.581
vn -0.884 -0.097 0.458
vn 0.720 0.458 0.521
vn -0.236 -0.072 0.969
vn -0.248 -0.762 -0.599
vn -0.157 -0.836 -0.526
vn -0.114 -0.799 -0.591
vn -0.060 -0.839 -0.540
vn -0.033 -0.815 -0.579
vn 0.115 -0.883 -0.455
vn -0.393 0.619 0.680
vn -0.075 -0.874 0.480
vn -0.067 0.139 0.988
vn -0.144 -0.010 0.990
vn 0.347 -0.553 0.757
vn 0.126 -0.582 0.803
vn 0.095 -0.237 0.967
vn 0.526 0.335 0.781
vn -0.850 -0.332 -0.410
vn 0.824 -0.299 -0.480
vn -0.810 -0.286 0.512
vn -0.958 -0.274 0.088
vn -0.990 0.133 0.040
vn -0.268 -0.927 0.262
vn 0.255 -0.905 0.339
vn 0.411 -0.865 0.288
vn 0.746 0.111 0.657
vn 0.746 0.128 0.653
vn 0.271 -0.939 -0.212
vn -0.739 -0.317 -0.595
vn 0.804 -0.565 -0.186
vn 0.876 -0.479 -0.047
vn -0.945 0.106 -0.310
vn -0.717 -0.523 -0.461
vn -0.616 -0.444 -0.651
vn -0.662 0.012 -0.750
vn 0.756 0.120 0.644
vn 0.673 -0.620 0.404
vn 0.698 -0.637 0.327
vn 0.854 0.456 0.251
vn -0.271 -0.760 0.591
vn 0.328 -0.815 0.478
vn -0.498 0.130 -0.857
vn -0.327 -0.382 -0.865
vn -0.176 0.100 -0.979
vn -0.152 0.049 -0.987
vn -0.053 0.553 -0.832
vn -0.018 0.504 -0.864
vn 0.702 0.274 -0.658
vn 0.184 0.865 -0.466
vn -0.259 0.881 0.396
vn -0.061 0.898 0.436
vn -0.096 0.922 0.376
vn 0.253 0.617 0.745
vn 0.067 0.900 0.430
vn 0.429 0.568 0.702
vn -0.239 0.965 0.109
vn -0.331 0.899 0.286
vn -0.042 0.981 0.187
vn -0.083 0.989 0.125
vn 0.116 0.961 0.250
vn 0.086 0.976 0.198
vn 0.295 0.886 0.358
vn 0.308 0.885 0.350
vn -0.459 0.871 -0.175
vn -0.450 0.870 -0.204
vn -0.149 0.982 -0.115
vn -0.062 0.998 0.012
vn 0.099 0.988 0.118
vn 0.029 0.999 0.013
vn 0.433 0.861 0.265
vn 0.269 0.930 0.251
vn 0.149 0.982 0.118
vn 0.434 0.863 0.260
vn -0.153 0.925 -0.348
vn -0.058 0.929 -0.366
vn 0.034 0.977 -0.209
vn 0.040 0.977 -0.211
vn 0.147 0.988 -0.045
vn 0.171 0.984 -0.049
vn -0.764 -0.031 0.644
vn -0.613 -0.149 0.776
vn 0.645 0.102 -0.758
vn 0.856 -0.136 -0.499
vn -0.744 -0.509 0.433
vn -0.490 -0.866 0.096
vn -0.704 -0.503 0.501
vn 0.564 -0.672 0.480
vn -0.676 -0.732 -0.085
vn -0.754 -0.639 -0.151
vn -0.207 -0.818 -0.536
vn -0.290 -0.800 -0.526
vn 0.845 -0.174 -0.507
vn 0.420 -0.468 -0.777
vn -0.449 -0.634 -0.629
vn -0.092 -0.628 -0.772
vn 0.082 -0.531 -0.843
vn 0.439 -0.397 -0.806
vn -0.748 -0.043 0.662
vn -0.763 -0.033 0.645
vn -0.368 -0.306 0.878
vn -0.613 -0.147 0.777
vn -0.603 -0.155 0.783
vn -0.406 -0.287 0.868
vn 0.488 0.217 -0.846
vn 0.631 0.118 -0.767
vn 0.856 -0.137 -0.499
vn 0.752 0.008 -0.659
vn 0.640 0.112 -0.760
vn 0.786 -0.023 -0.618
vn -0.663 -0.025 0.749
vn -0.753 -0.183 0.632
vn -0.399 0.053 0.915
vn -0.390 0.139 0.910
vn 0.239 0.327 0.914
vn 0.589 0.607 0.534
vn -0.885 -0.327 0.330
vn -0.903 -0.246 0.352
vn 0.904 0.407 -0.128
vn 0.886 0.413 -0.211
vn -0.852 -0.417 -0.315
vn -0.430 -0.584 -0.689
vn 0.281 -0.242 -0.929
vn 0.200 -0.245 -0.949
vn 0.750 0.059 -0.658
vn 0.672 0.152 -0.725
vn -0.581 -0.169 0.796
vn 0.705 -0.553 0.444
vn -0.709 -0.061 0.702
vn -0.778 -0.008 0.628
vn -0.586 -0.167 0.793
vn -0.628 -0.134 0.766
vn -0.614 -0.143 0.776
vn -0.172 -0.424 0.889
vn 0.849 -0.490 0.197
vn 0.785 -0.017 -0.619
vn -0.059 0.464 -0.884
vn 0.486 0.219 -0.846
vn 0.630 0.122 -0.767
vn 0.558 0.177 -0.811
vn 0.768 -0.001 -0.640
vn 0.669 0.096 -0.737
vn -0.515 0.323 0.794
vn 0.042 0.533 0.845
vn -0.036 0.627 0.778
vn 0.523 0.645 0.557
vn -0.230 0.762 0.605
vn -0.582 0.313 0.750
vn 0.397 0.816 0.421
vn 0.405 0.848 0.343
vn 0.757 0.653 0.025
vn 0.670 0.713 0.210
vn -0.567 0.672 -0.476
vn 0.486 0.368 -0.793
vn 0.705 0.634 -0.319
vn 0.745 0.570 -0.347
vn -0.567 -0.152 0.809
vn -0.637 -0.118 0.762
vn 0.939 -0.307 -0.157
vn 0.786 -0.006 -0.618
vn -0.755 -0.008 0.655
vn -0.745 -0.013 0.666
vn -0.710 -0.049 0.703
vn -0.717 -0.045 0.695
vn 0.764 0.010 -0.645
vn 0.700 0.073 -0.710
vn -0.387 0.560 -0.733
vn -0.911 0.383 0.154
vn 0.205 0.393 -0.896
vn 0.527 0.205 -0.825
vn 0.674 0.091 -0.734
vn 0.555 0.188 -0.811
vn -0.695 -0.010 0.719
vn 0.700 0.107 -0.706
vn -0.848 0.148 0.509
vn -0.783 0.047 0.620
vn 0.626 0.150 -0.765
vn 0.614 0.173 -0.770
vn -0.909 0.282 0.307
vn 0.486 0.248 -0.838
vn -0.594 -0.657 0.464
vn 0.573 -0.673 0.467
vn -0.574 -0.444 -0.688
vn 0.560 -0.461 -0.689
vn -0.581 0.488 0.651
vn 0.589 0.473 0.655
vn -0.561 0.666 -0.492
vn 0.575 0.654 -0.492
vn 0.951 0.148 0.272
vn 0.225 0.967 0.118
vn 0.306 0.950 -0.069
vn 0.474 0.613 0.633
vn 0.022 0.987 0.159
vn -0.710 0.392 -0.585
vn 0.025 0.993 0.115
vn -0.242 0.906 -0.348
vn 0.214 0.772 0.599
vn -0.190 0.979 -0.078
vn -0.585 0.572 -0.576
vn -0.552 0.712 -0.434
vn -0.522 -0.529 -0.669
vn 0.439 -0.896 0.066
vn -0.238 -0.903 -0.358
vn 0.491 -0.800 0.344
vn -0.679 -0.293 -0.674
vn -0.641 -0.052 -0.766
vn -0.061 -0.987 -0.151
vn -0.513 -0.762 -0.395
vn -0.236 -0.962 0.141
vn -0.048 -0.997 0.056
vn -0.018 -0.988 -0.155
vn 0.219 -0.341 0.914
vn 0.217 -0.932 -0.290
vn -0.158 -0.913 -0.376
vn 0.131 -0.988 0.078
vn -0.248 -0.969 -0.008
vn 0.501 0.411 -0.762
vn 0.807 -0.237 -0.540
vn -0.518 -0.121 -0.847
vn -0.797 0.363 -0.482
vn 0.812 0.210 0.545
vn 0.509 -0.385 0.769
vn -0.826 -0.325 0.460
vn -0.506 0.183 0.843
vn 0.174 0.981 -0.086
vn -0.200 0.980 -0.006
vn 0.277 0.915 0.292
vn -0.127 0.914 0.386

# Facets
f 1//1 3//1 2//1
f 4//2 2//2 3//2
f 1//3 5//3 3//3
f 1//4 6//4 5//4
f 3//5 7//5 4//5
f 3//6 5//6 7//6
f 8//7 5//7 6//7
f 8//8 7//8 5//8
f 1//9 2//9 9//9
f 9//10 2//10 4//10
f 6//11 9//11 10//11
f 6//12 1//12 9//12
f 10//13 4//13 7//13
f 10//14 9//14 4//14
f 8//15 6//15 10//15
f 10//16 7//16 8//16
f 11//17 13//17 12//17
f 14//18 12//18 13//18
f 15//19 13//19 11//19
f 15//20 14//20 13//20
f 16//21 18//21 17//21
f 19//22 17//22 18//22
f 20//23 18//23 16//23
f 20//24 19//24 18//24
f 21//25 12//25 22//25
f 21//26 11//26 12//26
f 14//27 22//27 12//27
f 14//28 23//28 22//28
f 24//29 11//29 21//29
f 24//30 15//30 11//30
f 15//31 23//31 14//31
f 15//32 24//32 23//32
f 16//33 17//33 25//33
f 25//34 17//34 19//34
f 20//35 16//35 25//35
f 25//36 19//36 20//36
f 21//37 22//37 26//37
f 26//38 22//38 23//38
f 24//39 21//39 26//39
f 26//40 23//40 24//40
f 27//41 29//41 28//41
f 30//42 28//42 29//42
f 27//43 31//43 29//43
f 27//44 32//44 31//44
f 29//45 33//45 30//45
f 29//46 31//46 33//46
f 34//47 31//47 32//47
f 34//48 33//48 31//48
f 35//49 37//49 36//49
f 38//50 36//50 37//50
f 39//51 28//51 40//51
f 39//52 27//52 28//52
f 30//53 40//53 28//53
f 30//54 41//54 40//54
f 42//55 44//55 43//55
f 44//56 35//56 43//56
f 37//57 35//57 44//57
f 45//58 37//58 44//58
f 37//59 46//59 38//59
f 47//60 46//60 37//60
f 45//61 47//61 37//61
f 48//62 46//62 47//62
f 32//63 27//63 39//63
f 32//64 39//64 49//64
f 41//65 30//65 33//65
f 50//66 41//66 33//66
f 51//67 44//67 42//67
f 52//68 51//68 53//68
f 44//69 51//69 52//69
f 45//70 44//70 52//70
f 54//71 47//71 45//71
f 52//72 54//72 45//72
f 47//73 55//73 48//73
f 56//74 55//74 47//74
f 54//75 56//75 47//75
f 57//76 55//76 56//76
f 58//77 32//77 49//77
f 58//78 34//78 32//78
f 34//79 50//79 33//79
f 34//80 58//80 50//80
f 59//81 52//81 53//81
f 59//82 54//82 52//82
f 59//83 60//83 54//83
f 60//84 56//84 54//84
f 60//85 61//85 56//85
f 61//86 57//86 56//86
f 62//87 64//87 63//87
f 36//88 64//88 35//88
f 63//89 64//89 36//89
f 65//90 63//90 36//90
f 66//91 38//91 67//91
f 36//92 38//92 66//92
f 65//93 36//93 66//93
f 68//94 66//94 67//94
f 39//95 40//95 69//95
f 69//96 40//96 41//96
f 62//97 43//97 64//97
f 42//98 43//98 62//98
f 70//99 42//99 62//99
f 43//100 35//100 64//100
f 67//101 38//101 46//101
f 48//102 67//102 46//102
f 68//103 67//103 48//103
f 71//104 68//104 48//104
f 49//105 69//105 72//105
f 49//106 39//106 69//106
f 72//107 41//107 50//107
f 72//108 69//108 41//108
f 73//109 42//109 70//109
f 73//110 51//110 42//110
f 51//111 73//111 53//111
f 73//112 74//112 53//112
f 71//113 48//113 75//113
f 48//114 55//114 75//114
f 57//115 75//115 55//115
f 57//116 76//116 75//116
f 58//117 49//117 72//117
f 72//118 50//118 58//118
f 77//119 53//119 74//119
f 77//120 59//120 53//120
f 78//121 60//121 59//121
f 78//122 59//122 77//122
f 79//123 61//123 60//123
f 79//124 60//124 78//124
f 61//125 76//125 57//125
f 61//126 79//126 76//126
f 62//127 63//127 80//127
f 81//128 63//128 65//128
f 81//129 80//129 63//129
f 82//130 65//130 66//130
f 82//131 81//131 65//131
f 82//132 66//132 68//132
f 70//133 80//133 83//133
f 70//134 62//134 80//134
f 80//135 81//135 84//135
f 80//136 84//136 83//136
f 81//137 82//137 85//137
f 81//138 85//138 84//138
f 85//139 68//139 71//139
f 85//140 82//140 68//140
f 73//141 70//141 83//141
f 83//142 74//142 73//142
f 86//143 74//143 83//143
f 84//144 86//144 83//144
f 84//145 85//145 87//145
f 84//146 87//146 86//146
f 88//147 71//147 75//147
f 85//148 71//148 88//148
f 87//149 85//149 88//149
f 88//150 75//150 76//150
f 77//151 74//151 86//151
f 86//152 78//152 77//152
f 86//153 87//153 78//153
f 87//154 79//154 78//154
f 87//155 88//155 79//155
f 88//156 76//156 79//156
f 89//157 91//157 90//157
f 92//158 90//158 91//158
f 93//159 91//159 89//159
f 93//160 92//160 91//160
f 94//161 96//161 95//161
f 97//162 96//162 98//162
f 97//163 95//163 96//163
f 99//164 97//164 98//164
f 94//165 100//165 96//165
f 94//166 101//166 100//166
f 102//167 98//167 96//167
f 100//168 102//168 96//168
f 98//169 103//169 99//169
f 98//170 102//170 103//170
f 104//171 100//171 101//171
f 104//172 102//172 100//172
f 104//173 105//173 102//173
f 105//174 103//174 102//174
f 106//175 90//175 107//175
f 106//176 89//176 90//176
f 108//177 92//177 109//177
f 90//178 92//178 108//178
f 107//179 90//179 108//179
f 110//180 108//180 109//180
f 111//181 89//181 106//181
f 111//182 93//182 89//182
f 93//183 109//183 92//183
f 112//184 109//184 93//184
f 111//185 112//185 93//185
f 112//186 110//186 109//186
f 113//187 95//187 114//187
f 113//188 94//188 95//188
f 95//189 97//189 115//189
f 114//190 95//190 115//190
f 99//191 115//191 97//191
f 99//192 116//192 115//192
f 101//193 94//193 113//193
f 101//194 113//194 117//194
f 116//195 99//195 103//195
f 118//196 116//196 103//196
f 119//197 101//197 117//197
f 119//198 104//198 101//198
f 120//199 105//199 104//199
f 120//200 104//200 119//200
f 105//201 118//201 103//201
f 105//202 120//202 118//202
f 121//203 123//203 122//203
f 124//204 122//204 123//204
f 125//205 107//205 126//205
f 125//206 106//206 107//206
f 123//207 121//207 108//207
f 108//208 121//208 126//208
f 108//209 126//209 107//209
f 110//210 123//210 108//210
f 124//211 123//211 110//211
f 127//212 124//212 110//212
f 128//213 106//213 125//213
f 128//214 111//214 106//214
f 129//215 112//215 111//215
f 129//216 111//216 128//216
f 112//217 127//217 110//217
f 112//218 129//218 127//218
f 113//219 114//219 130//219
f 131//220 114//220 115//220
f 131//221 130//221 114//221
f 131//222 115//222 116//222
f 117//223 130//223 132//223
f 117//224 113//224 130//224
f 130//225 131//225 133//225
f 130//226 133//226 132//226
f 133//227 116//227 118//227
f 133//228 131//228 116//228
f 119//229 117//229 132//229
f 132//230 120//230 119//230
f 132//231 133//231 120//231
f 133//232 118//232 120//232
f 134//233 122//233 135//233
f 134//234 121//234 122//234
f 124//235 135//235 122//235
f 124//236 136//236 135//236
f 125//237 126//237 137//237
f 137//238 126//238 138//238
f 138//239 126//239 121//239
f 138//240 121//240 134//240
f 136//241 124//241 127//241
f 139//242 136//242 127//242
f 128//243 125//243 137//243
f 140//244 137//244 138//244
f 128//245 137//245 140//245
f 129//246 128//246 140//246
f 129//247 139//247 127//247
f 129//248 140//248 139//248
f 134//249 135//249 141//249
f 141//250 135//250 136//250
f 138//251 141//251 142//251
f 138//252 134//252 141//252
f 142//253 136//253 139//253
f 142//254 141//254 136//254
f 140//255 138//255 142//255
f 142//256 139//256 140//256
f 143//257 145//257 144//257
f 146//258 144//258 145//258
f 147//259 145//259 143//259
f 147//260 146//260 145//260
f 143//261 144//261 148//261
f 148//262 144//262 146//262
f 147//263 143//263 148//263
f 148//264 146//264 147//264
f 149//265 151//265 150//265
f 152//266 151//266 153//266
f 152//267 150//267 151//267
f 154//268 152//268 153//268
f 155//269 151//269 149//269
f 156//270 155//270 157//270
f 151//271 155//271 156//271
f 153//272 151//272 156//272
f 153//273 158//273 154//273
f 153//274 156//274 158//274
f 159//275 156//275 157//275
f 159//276 158//276 156//276
f 149//277 150//277 160//277
f 161//278 150//278 152//278
f 161//279 160//279 150//279
f 161//280 152//280 154//280
f 155//281 149//281 160//281
f 160//282 157//282 155//282
f 162//283 157//283 160//283
f 161//284 162//284 160//284
f 162//285 154//285 158//285
f 162//286 161//286 154//286
f 159//287 157//287 162//287
f 162//288 158//288 159//288
f 163//289 165//289 164//289
f 166//290 164//290 165//290
f 167//291 165//291 163//291
f 167//292 166//292 165//292
f 168//293 164//293 169//293
f 168//294 163//294 164//294
f 166//295 169//295 164//295
f 166//296 170//296 169//296
f 171//297 163//297 168//297
f 171//298 167//298 163//298
f 167//299 170//299 166//299
f 167//300 171//300 170//300
f 168//301 169//301 172//301
f 172//302 169//302 170//302
f 171//303 168//303 172//303
f 172//304 170//304 171//304

# Thankyou for using Spin3D

