# Created using Spin3D

# Vertex Array
v 5.626 -42.153 29.078
v 5.722 -42.224 29.091
v 5.746 -42.215 29.065
v 5.797 -42.211 29.050
v 5.722 -42.132 29.027
v 5.514 -42.068 29.099
v 5.592 -42.173 29.133
v 5.589 -42.169 29.120
v 5.671 -42.209 29.121
v 5.394 -41.963 29.061
v 5.399 -41.966 29.071
v 5.466 -42.049 29.087
v 5.767 -42.167 29.056
v 5.819 -42.154 29.016
v 5.823 -42.118 29.005
v 5.522 -42.014 29.038
v 5.642 -42.025 29.001
v 5.745 -42.056 28.993
v 5.635 -42.147 29.105
v 5.422 -41.935 29.040
v 5.483 -41.952 29.043
v 5.630 -42.035 29.043
v 5.666 -41.987 28.998
v 5.759 -42.067 29.007
v 5.565 -41.957 29.005
v 5.575 -41.948 29.012
v 41.393 -18.692 -22.840
v 41.385 -18.614 -22.839
v 41.398 -18.701 -22.839
v 41.394 -18.501 -22.886
v 41.393 -18.457 -22.923
v 41.348 -18.119 -22.963
v 41.353 -18.238 -22.907
v 41.374 -18.457 -22.891
v 41.376 -18.390 -22.880
v 41.384 -18.205 -22.949
v 41.368 -18.121 -23.011
v 41.369 -17.757 -23.132
v 41.388 -18.037 -23.064
v 41.392 -18.083 -23.031
v 41.388 -17.778 -23.142
v 41.333 -17.910 -22.996
v 41.336 -17.882 -22.989
v 41.358 -18.047 -22.957
v 41.372 -17.851 -23.052
v 41.343 -17.808 -23.068
v 41.352 -17.582 -23.149
v 41.383 -17.708 -23.139
v 41.373 -17.585 -23.179
v 41.336 -17.670 -23.075
v 41.347 -17.739 -23.047
v 41.359 -17.591 -23.134

# Normal Array
vn -0.420 -0.674 -0.608
vn -0.030 -0.935 -0.353
vn -0.335 -0.467 -0.818
vn -0.215 -0.454 -0.865
vn -0.809 -0.585 0.056
vn -0.430 -0.893 -0.132
vn -0.783 -0.586 0.209
vn -0.238 -0.002 0.971
vn -0.225 0.032 0.974
vn -0.441 -0.625 -0.644
vn -0.408 -0.662 -0.629
vn 0.544 0.259 0.798
vn 0.450 0.185 0.874
vn 0.521 0.114 0.846
vn -0.417 -0.868 -0.271
vn 0.564 0.192 0.803
vn -0.350 -0.529 -0.773
vn -0.371 -0.504 -0.780
vn -0.329 -0.482 -0.812
vn -0.300 -0.428 -0.853
vn -0.195 -0.439 -0.877
vn -0.180 -0.355 -0.917
vn -0.181 -0.354 -0.917
vn -0.078 -0.287 -0.955
vn 0.262 0.470 0.843
vn 0.321 0.395 0.861
vn -0.433 0.785 0.443
vn 0.149 0.654 0.742
vn 0.215 0.475 0.853
vn 0.266 0.480 0.836
vn 0.268 0.478 0.837
vn 0.345 0.497 0.797
vn 0.339 0.434 0.834
vn 0.372 0.465 0.804
vn 0.374 0.417 0.828
vn 0.375 0.430 0.821
vn -0.302 -0.364 -0.881
vn 0.231 0.885 0.403
vn -0.269 -0.321 -0.908
vn -0.304 -0.294 -0.906
vn 0.652 0.758 -0.028
vn -0.072 -0.008 -0.997
vn -0.101 -0.061 -0.993
vn 0.628 0.778 0.012
vn 0.262 0.472 0.842
vn 0.336 0.503 0.796
vn -0.240 0.759 -0.605
vn 0.104 0.537 -0.837
vn -0.084 -0.014 0.996
vn 0.868 0.128 0.479
vn -0.471 -0.296 -0.831
vn 1.000 0.016 -0.011
vn -0.986 -0.103 -0.128
vn -0.991 -0.099 -0.088
vn -0.990 -0.101 -0.093
vn 0.003 0.178 0.984
vn 0.879 0.119 0.461
vn 0.892 0.123 0.435
vn -0.910 -0.153 -0.387
vn -0.773 -0.198 -0.602
vn -0.750 -0.218 -0.625
vn -0.845 -0.192 -0.500
vn -0.847 -0.178 -0.501
vn 0.981 -0.053 -0.188
vn 0.999 -0.011 -0.042
vn 0.972 0.080 0.221
vn -0.655 -0.219 -0.723
vn 0.980 -0.056 -0.192
vn -0.943 0.031 0.331
vn -0.992 -0.085 -0.089
vn 0.391 0.220 0.894
vn 0.359 0.224 0.906
vn 0.830 0.162 0.533
vn 0.870 0.165 0.465
vn -0.945 -0.115 -0.305
vn -0.911 -0.143 -0.387
vn -0.868 -0.154 -0.471
vn -0.878 -0.133 -0.459
vn 0.959 0.109 0.263
vn 0.947 0.112 0.302
vn -0.811 -0.137 -0.568
vn -0.635 -0.189 -0.749
vn 0.989 0.065 0.136
vn 0.997 0.073 -0.021
vn -0.982 0.072 0.177
vn 0.691 0.226 0.687
vn -0.037 0.378 0.925
vn 0.862 0.171 0.477
vn -0.969 -0.066 -0.238
vn -0.956 -0.068 -0.284
vn -0.506 0.608 0.612
vn 0.556 0.390 0.734
vn 0.904 0.169 0.392
vn 0.887 0.179 0.425
vn 0.478 0.839 0.261
vn 0.931 0.178 0.320

# Facets
f 1//1 3//1 2//1
f 4//2 2//2 3//2
f 5//3 3//3 1//3
f 5//4 4//4 3//4
f 6//5 8//5 7//5
f 9//6 7//6 8//6
f 10//7 12//7 11//7
f 12//8 6//8 11//8
f 12//9 8//9 6//9
f 1//10 8//10 12//10
f 2//11 8//11 1//11
f 13//12 4//12 14//12
f 13//13 2//13 4//13
f 9//14 2//14 13//14
f 8//15 2//15 9//15
f 15//16 13//16 14//16
f 16//17 12//17 10//17
f 16//18 1//18 12//18
f 5//19 1//19 16//19
f 17//20 5//20 16//20
f 5//21 14//21 4//21
f 18//22 14//22 5//22
f 17//23 18//23 5//23
f 18//24 15//24 14//24
f 6//25 7//25 19//25
f 19//26 7//26 9//26
f 10//27 11//27 20//27
f 20//28 11//28 21//28
f 11//29 6//29 21//29
f 21//30 6//30 22//30
f 22//31 6//31 19//31
f 22//32 24//32 23//32
f 22//33 13//33 24//33
f 19//34 13//34 22//34
f 9//35 13//35 19//35
f 24//36 13//36 15//36
f 16//37 10//37 20//37
f 25//38 20//38 21//38
f 16//39 20//39 25//39
f 17//40 16//40 25//40
f 18//41 23//41 24//41
f 25//42 23//42 18//42
f 17//43 25//43 18//43
f 24//44 15//44 18//44
f 21//45 22//45 26//45
f 26//46 22//46 23//46
f 25//47 21//47 26//47
f 26//48 23//48 25//48
f 27//49 29//49 28//49
f 30//50 28//50 29//50
f 31//51 29//51 27//51
f 31//52 30//52 29//52
f 32//53 34//53 33//53
f 28//54 34//54 27//54
f 33//55 34//55 28//55
f 35//56 33//56 28//56
f 30//57 35//57 28//57
f 30//58 36//58 35//58
f 37//59 34//59 32//59
f 38//60 39//60 37//60
f 39//61 31//61 37//61
f 37//62 31//62 34//62
f 34//63 31//63 27//63
f 40//64 31//64 39//64
f 30//65 31//65 40//65
f 36//66 30//66 40//66
f 41//67 39//67 38//67
f 41//68 40//68 39//68
f 42//69 33//69 43//69
f 42//70 32//70 33//70
f 33//71 35//71 44//71
f 43//72 33//72 44//72
f 36//73 44//73 35//73
f 36//74 45//74 44//74
f 46//75 32//75 42//75
f 46//76 37//76 32//76
f 37//77 46//77 38//77
f 46//78 47//78 38//78
f 45//79 36//79 40//79
f 48//80 45//80 40//80
f 49//81 38//81 47//81
f 49//82 41//82 38//82
f 41//83 48//83 40//83
f 41//84 49//84 48//84
f 42//85 43//85 50//85
f 51//86 43//86 44//86
f 51//87 50//87 43//87
f 51//88 44//88 45//88
f 46//89 42//89 50//89
f 50//90 47//90 46//90
f 52//91 47//91 50//91
f 51//92 52//92 50//92
f 52//93 45//93 48//93
f 52//94 51//94 45//94
f 49//95 47//95 52//95
f 52//96 48//96 49//96

# Thankyou for using Spin3D

