# Created using Spin3D

# Vertex Array
v 20.759 -43.758 0.957
v 20.760 -43.759 0.958
v 20.760 -43.759 0.956
v 20.761 -43.758 0.957
v 20.760 -43.758 0.956
v 20.760 -43.757 0.957
v -9.026 -21.558 16.576
v -9.025 -21.558 16.577
v -9.025 -21.559 16.576
v -9.024 -21.558 16.576
v -9.025 -21.557 16.575
v -9.025 -21.556 16.576
v -0.269 -6.229 21.625
v -0.503 -6.119 21.694
v -0.585 -6.074 21.720
v 0.066 -6.396 21.522
v -0.159 -6.288 21.590
v 0.315 -6.524 21.445
v 0.150 -6.444 21.493
v 0.367 -6.555 21.426
v 11.067 -6.246 20.763
v 11.108 -6.227 20.778
v 11.096 -6.242 20.777
v 11.138 -6.221 20.794
v 11.138 -6.223 20.793
v 11.166 -6.201 20.800
v -0.368 -6.182 21.653
v -0.107 -6.314 21.574
v 0.047 -6.387 21.528
v 0.266 -6.499 21.459
v 0.396 -6.569 21.417
v 11.066 -6.246 20.763
v 11.060 -6.238 20.752
v 11.109 -6.227 20.776
v 11.159 -6.197 20.790
v 0.113 -6.422 21.509
v 11.086 -6.220 20.759
v 11.131 -6.199 20.774
v -0.625 -6.065 21.728
v -0.721 -6.011 21.758
v -0.256 -6.247 21.615
v 0.175 -6.460 21.484
v -0.205 -6.277 21.597
v 11.085 -6.221 20.760
v 11.131 -6.198 20.776
v 11.157 -6.196 20.791
v 11.180 -6.176 20.791
v -0.651 -6.046 21.736
v -0.408 -6.171 21.660
v 0.010 -6.375 21.534
v 11.086 -6.211 20.754
v 11.127 -6.187 20.767
v 11.164 -6.176 20.782
v 11.128 -6.186 20.766
v 51.703 4.609 -36.508
v 51.704 4.609 -36.507
v 51.704 4.608 -36.509
v 51.706 4.609 -36.508
v 51.704 4.609 -36.510
v -0.688 -6.035 21.745
v -0.504 -6.129 21.688
v 11.165 -6.176 20.782
v 11.164 -6.168 20.778
v 51.704 4.610 -36.508

# Normal Array
vn -0.561 -0.690 0.458
vn 0.558 -0.691 0.459
vn -0.558 -0.497 -0.664
vn 0.562 -0.496 -0.662
vn -0.577 0.465 0.671
vn 0.573 0.467 0.674
vn -0.577 0.656 -0.486
vn 0.580 0.655 -0.485
vn -0.580 -0.644 0.500
vn 0.532 -0.673 0.514
vn -0.591 -0.460 -0.663
vn 0.560 -0.489 -0.669
vn -0.556 0.482 0.677
vn 0.585 0.453 0.673
vn -0.565 0.696 -0.443
vn 0.612 0.663 -0.431
vn 0.112 -0.343 0.933
vn 0.150 -0.284 0.947
vn 0.095 -0.372 0.923
vn -0.003 -0.522 0.853
vn 0.060 -0.438 0.897
vn 0.005 -0.510 0.860
vn -0.463 0.335 0.821
vn -0.008 -0.628 0.778
vn -0.499 0.365 0.786
vn 0.282 -0.602 0.747
vn 0.132 0.699 -0.703
vn -0.199 0.184 -0.963
vn 0.107 0.666 -0.738
vn -0.338 -0.881 0.332
vn 0.123 0.667 -0.734
vn 0.298 0.849 -0.437
vn -0.463 -0.886 -0.030
vn 0.018 -0.494 0.869
vn -0.406 0.671 0.620
vn -0.333 0.632 0.700
vn 0.482 -0.508 -0.714
vn 0.443 -0.479 -0.758
vn 0.559 -0.499 -0.663
vn 0.492 -0.454 -0.743
vn -0.303 -0.041 -0.952
vn -0.516 -0.773 -0.370
vn 0.521 -0.483 -0.704
vn 0.431 -0.429 -0.794
vn 0.444 -0.402 -0.801
vn 0.484 -0.431 -0.761
vn 0.112 -0.338 0.935
vn 0.078 -0.395 0.915
vn -0.008 -0.533 0.846
vn 0.046 -0.456 0.889
vn -0.012 -0.542 0.841
vn 0.090 -0.384 0.919
vn -0.025 -0.562 0.827
vn 0.075 -0.403 0.912
vn -0.485 0.433 0.760
vn -0.484 0.437 0.759
vn -0.482 0.435 0.760
vn -0.491 0.459 0.740
vn -0.455 0.436 0.777
vn -0.418 0.489 0.766
vn 0.041 0.586 -0.809
vn 0.030 0.568 -0.823
vn 0.169 0.745 -0.646
vn -0.002 0.513 -0.859
vn 0.006 0.532 -0.847
vn -0.134 0.308 -0.942
vn -0.178 0.221 -0.959
vn -0.117 0.326 -0.938
vn -0.092 0.375 -0.922
vn -0.022 0.486 -0.873
vn -0.531 0.469 0.706
vn -0.527 0.460 0.714
vn -0.479 0.418 0.772
vn -0.515 0.473 0.715
vn 0.544 -0.519 -0.660
vn 0.456 -0.427 -0.781
vn 0.224 0.796 -0.563
vn 0.232 0.805 -0.547
vn 0.502 -0.439 -0.745
vn -0.393 0.852 -0.346
vn 0.481 -0.444 -0.756
vn 0.437 -0.376 -0.817
vn 0.485 -0.427 -0.763
vn 0.455 -0.368 -0.810
vn -0.582 -0.669 0.463
vn 0.566 -0.678 0.470
vn -0.585 -0.484 -0.651
vn 0.573 -0.489 -0.658
vn 0.023 -0.467 0.884
vn -0.041 -0.584 0.810
vn -0.134 -0.694 0.708
vn -0.012 -0.541 0.841
vn -0.464 0.516 0.720
vn -0.439 0.514 0.737
vn -0.093 0.387 -0.917
vn -0.097 0.377 -0.921
vn -0.115 0.347 -0.931
vn -0.141 0.295 -0.945
vn -0.425 0.388 0.818
vn -0.429 0.446 0.786
vn 0.463 -0.398 -0.792
vn -0.482 0.367 0.795
vn -0.364 0.885 -0.291
vn 0.457 -0.399 -0.795
vn -0.574 0.489 0.657
vn 0.583 0.485 0.652
vn -0.567 0.677 -0.469
vn 0.581 0.669 -0.464

# Facets
f 1//1 3//1 2//1
f 4//2 2//2 3//2
f 5//3 3//3 1//3
f 5//4 4//4 3//4
f 1//5 2//5 6//5
f 6//6 2//6 4//6
f 5//7 1//7 6//7
f 6//8 4//8 5//8
f 7//9 9//9 8//9
f 10//10 8//10 9//10
f 11//11 9//11 7//11
f 11//12 10//12 9//12
f 7//13 8//13 12//13
f 12//14 8//14 10//14
f 11//15 7//15 12//15
f 12//16 10//16 11//16
f 13//17 15//17 14//17
f 13//18 17//18 16//18
f 14//19 17//19 13//19
f 16//20 19//20 18//20
f 17//21 19//21 16//21
f 19//22 20//22 18//22
f 21//23 23//23 22//23
f 24//24 23//24 25//24
f 24//25 22//25 23//25
f 26//26 24//26 25//26
f 13//27 27//27 15//27
f 27//28 29//28 28//28
f 27//29 13//29 29//29
f 13//30 16//30 29//30
f 30//31 18//31 31//31
f 30//32 29//32 18//32
f 29//33 16//33 18//33
f 20//34 31//34 18//34
f 21//35 32//35 23//35
f 21//36 33//36 32//36
f 34//37 25//37 23//37
f 32//38 34//38 23//38
f 25//39 35//39 26//39
f 25//40 34//40 35//40
f 29//41 36//41 28//41
f 30//42 36//42 29//42
f 37//43 32//43 33//43
f 37//44 34//44 32//44
f 37//45 38//45 34//45
f 38//46 35//46 34//46
f 14//47 40//47 39//47
f 15//48 40//48 14//48
f 17//49 14//49 41//49
f 14//50 39//50 41//50
f 42//51 41//51 43//51
f 42//52 19//52 41//52
f 19//53 17//53 41//53
f 19//54 42//54 20//54
f 21//55 22//55 44//55
f 22//56 45//56 44//56
f 46//57 45//57 22//57
f 24//58 46//58 22//58
f 26//59 46//59 24//59
f 26//60 47//60 46//60
f 15//61 48//61 40//61
f 27//62 48//62 15//62
f 28//63 50//63 49//63
f 28//64 49//64 27//64
f 27//65 49//65 48//65
f 43//66 49//66 50//66
f 42//67 43//67 50//67
f 42//68 50//68 30//68
f 42//69 30//69 31//69
f 20//70 42//70 31//70
f 33//71 44//71 51//71
f 33//72 21//72 44//72
f 45//73 52//73 44//73
f 52//74 51//74 44//74
f 47//75 26//75 35//75
f 53//76 47//76 35//76
f 28//77 36//77 50//77
f 30//78 50//78 36//78
f 37//79 33//79 51//79
f 54//80 51//80 52//80
f 37//81 51//81 54//81
f 38//82 37//82 54//82
f 38//83 53//83 35//83
f 38//84 54//84 53//84
f 55//85 57//85 56//85
f 58//86 56//86 57//86
f 59//87 57//87 55//87
f 59//88 58//88 57//88
f 39//89 40//89 60//89
f 39//90 61//90 41//90
f 60//91 61//91 39//91
f 41//92 61//92 43//92
f 45//93 46//93 62//93
f 62//94 46//94 47//94
f 40//95 48//95 60//95
f 49//96 60//96 48//96
f 61//97 60//97 49//97
f 43//98 61//98 49//98
f 52//99 62//99 63//99
f 52//100 45//100 62//100
f 63//101 47//101 53//101
f 63//102 62//102 47//102
f 54//103 52//103 63//103
f 63//104 53//104 54//104
f 55//105 56//105 64//105
f 64//106 56//106 58//106
f 59//107 55//107 64//107
f 64//108 58//108 59//108

# Thankyou for using Spin3D

