# Created using Spin3D

# Vertex Array
v 45.240 -23.687 -30.607
v 45.238 -23.688 -30.607
v 45.238 -23.686 -30.607
v 45.236 -23.688 -30.608
v 45.238 -23.685 -30.609
v 45.240 -23.688 -30.609
v 45.236 -23.687 -30.609
v 45.238 -23.687 -30.610
v 45.238 -23.690 -30.608
v 45.237 -23.689 -30.609
v 51.374 -15.517 -31.820
v 51.375 -15.515 -31.821
v 51.374 -15.515 -31.822
v 51.374 -15.517 -31.818
v 51.374 -15.519 -31.819
v 38.416 -16.056 -20.922
v 38.311 -16.062 -20.887
v 38.289 -16.062 -20.881
v 38.446 -16.054 -20.929
v 38.383 -16.058 -20.912
v 38.338 -16.059 -20.896
v 38.674 -16.045 -21.003
v 38.645 -16.047 -20.994
v 38.891 -16.035 -21.073
v 38.885 -16.037 -21.071
v 38.981 -16.032 -21.105
v 38.480 -16.053 -20.941
v 38.697 -16.044 -21.012
v 38.891 -16.035 -21.076
v 51.375 -15.519 -31.817
v 51.374 -15.516 -31.818
v 51.373 -15.519 -31.816
v 51.374 -15.521 -31.817
v 51.374 -15.521 -31.815
v 51.373 -15.522 -31.816
v 51.374 -15.525 -31.815
v 38.362 -16.058 -20.902
v 38.478 -16.053 -20.941
v 38.646 -16.046 -20.996
v 38.885 -16.036 -21.074
v 51.374 -15.521 -31.814
v 51.373 -15.524 -31.815
v 52.969 -9.610 -15.926
v 53.012 -9.632 -15.882
v 53.031 -9.670 -15.895
v 53.073 -9.685 -15.856
v 53.082 -9.693 -15.877
v 53.093 -9.675 -15.865
v 52.979 -9.618 -15.949
v 52.927 -9.547 -15.981
v 53.035 -9.649 -15.932
v 53.075 -9.646 -15.912
v 52.967 -9.567 -15.991
v 53.022 -9.595 -15.968
v 52.944 -9.551 -15.940
v 52.992 -9.571 -15.899
v 53.052 -9.632 -15.866
v 53.060 -9.606 -15.902
v 52.919 -9.498 -16.015
v 52.909 -9.492 -15.994
v 52.929 -9.481 -16.002
v 53.034 -9.575 -15.955
v 52.971 -9.524 -16.000
v 52.950 -9.508 -15.954
v 53.014 -9.560 -15.909
v 52.991 -9.524 -15.960
v 7.983 -5.960 26.488
v 8.171 -5.946 26.605
v 8.083 -6.110 26.438
v 8.395 -5.974 26.696
v 8.236 -6.107 26.511
v 8.600 -5.891 26.840
v 8.045 -6.060 26.436
v 8.310 -5.982 26.619
v 0.898 -10.870 82.702
v 0.890 -10.818 82.733
v 0.918 -11.044 82.599
v 0.911 -11.016 82.615
v 0.907 -10.977 82.640
v 8.219 -5.664 26.820
v 8.607 -5.306 27.264
v 8.523 -5.674 26.975
v 8.875 -5.384 27.350
v 8.893 -5.644 27.172
v 9.128 -5.360 27.486
v 9.198 -5.497 27.422
v 9.217 -5.418 27.484
v 8.045 -5.701 26.691
v 9.021 -5.582 27.266
v 8.636 -5.670 26.999
v 7.981 -5.871 26.531
v 8.220 -5.793 26.698
v 0.843 -10.424 82.967
v 0.831 -10.349 83.009
v 0.873 -10.730 82.785
v 0.895 -10.914 82.678
v 0.859 -10.649 82.836
v 0.866 -10.642 82.840
v 0.870 -10.709 82.801
v 8.382 -5.324 27.124
v 8.696 -5.015 27.498
v 8.914 -5.095 27.556
v 8.835 -5.025 27.553
v 8.986 -5.311 27.434
v 8.159 -5.604 26.804
v 8.667 -5.009 27.481
v 8.552 -5.343 27.183
v 0.787 -9.984 83.225
v 0.763 -9.796 83.335
v 0.783 -9.961 83.237
v 0.769 -9.876 83.290
v 0.793 -10.037 83.196
v 0.813 -10.257 83.066
v 0.827 -10.398 82.987
v 0.820 -10.263 83.064
v 0.824 -10.335 83.024
v 8.819 -4.904 27.633
v 0.768 -9.852 83.305
v 0.789 -10.032 83.201
v 0.788 -10.054 83.188

# Normal Array
vn 0.140 0.078 0.987
vn -0.243 0.000 0.970
vn 0.547 0.736 0.400
vn 0.840 0.512 -0.181
vn -0.793 0.462 0.397
vn -0.473 0.867 -0.158
vn 0.282 0.279 -0.918
vn -0.149 0.394 -0.907
vn 0.211 -0.299 0.931
vn -0.155 -0.370 0.916
vn 0.496 -0.760 -0.421
vn 0.805 -0.559 0.198
vn -0.812 -0.443 -0.380
vn -0.517 -0.846 0.133
vn 0.177 -0.094 -0.980
vn -0.241 0.011 -0.970
vn 0.629 -0.445 -0.637
vn -0.171 0.906 0.387
vn 0.435 -0.567 -0.700
vn -1.000 0.006 -0.024
vn 0.145 0.807 0.573
vn -0.113 0.977 -0.184
vn -0.140 0.942 -0.307
vn 0.219 -0.790 0.572
vn -0.148 0.929 -0.339
vn -0.297 0.333 -0.895
vn -0.195 0.839 -0.509
vn 0.241 0.514 0.823
vn -0.293 0.422 -0.858
vn 0.290 0.370 0.883
vn 0.163 -0.899 0.408
vn 0.110 -0.969 0.222
vn 0.122 0.865 0.486
vn -0.005 0.991 0.130
vn -0.036 0.999 0.034
vn -0.031 0.999 0.034
vn 0.870 0.398 0.289
vn 0.934 -0.248 -0.258
vn -0.921 0.343 -0.183
vn -0.969 0.246 -0.009
vn 0.208 -0.518 -0.829
vn 0.998 -0.059 -0.005
vn 0.817 -0.465 -0.341
vn -0.283 -0.605 -0.744
vn -0.996 0.021 -0.082
vn -0.821 -0.170 -0.545
vn 1.000 -0.025 -0.002
vn -0.482 -0.466 -0.742
vn -0.222 -0.459 -0.860
vn -0.260 0.646 -0.718
vn -0.035 -0.971 -0.235
vn -0.190 -0.604 -0.774
vn 0.031 -0.999 -0.031
vn 0.163 -0.913 0.374
vn -0.316 0.162 -0.935
vn 0.017 -0.998 -0.068
vn 0.035 -0.999 -0.013
vn 0.027 -0.997 -0.068
vn 0.305 -0.046 0.951
vn 0.311 -0.023 0.950
vn 0.183 0.737 0.650
vn 0.202 0.681 0.704
vn -0.246 -0.520 -0.818
vn -0.223 -0.578 -0.785
vn 0.750 0.413 0.517
vn -0.684 0.416 0.599
vn 0.912 -0.284 0.296
vn 0.973 -0.041 0.228
vn -0.949 -0.159 -0.272
vn -0.861 0.123 0.493
vn 0.164 0.045 0.985
vn -0.627 -0.456 -0.631
vn -0.725 -0.514 0.458
vn -0.446 -0.885 0.132
vn -0.681 -0.514 0.521
vn 0.566 -0.672 0.478
vn -0.686 -0.727 -0.036
vn -0.779 -0.616 -0.115
vn -0.199 -0.840 -0.504
vn -0.293 -0.816 -0.499
vn 0.858 -0.215 -0.467
vn 0.429 -0.491 -0.758
vn -0.462 -0.619 -0.635
vn -0.115 -0.638 -0.762
vn 0.062 -0.544 -0.837
vn 0.441 -0.424 -0.791
vn -0.650 -0.004 0.760
vn -0.743 -0.163 0.649
vn -0.364 0.042 0.930
vn -0.361 0.140 0.922
vn 0.277 0.282 0.918
vn 0.611 0.583 0.537
vn -0.874 -0.365 -0.321
vn -0.913 -0.219 0.344
vn -0.894 -0.305 0.328
vn -0.564 0.673 -0.479
vn 0.920 0.371 -0.124
vn 0.897 0.385 -0.218
vn -0.448 -0.563 -0.695
vn 0.435 0.382 -0.815
vn 0.176 -0.228 -0.957
vn 0.263 -0.231 -0.937
vn 0.737 0.014 -0.675
vn 0.644 0.125 -0.755
vn -0.522 0.339 0.783
vn 0.091 0.546 0.833
vn -0.002 0.656 0.755
vn 0.549 0.626 0.554
vn -0.590 0.334 0.735
vn -0.240 0.794 0.559
vn 0.391 0.863 0.321
vn 0.388 0.828 0.404
vn 0.765 0.644 0.001
vn 0.683 0.706 0.187
vn 0.686 0.645 -0.336
vn 0.731 0.579 -0.361
vn -0.423 -0.527 0.737
vn -0.328 -0.611 0.720
vn -0.368 -0.561 0.742
vn -0.189 -0.714 0.674
vn -0.781 -0.588 0.211
vn 0.407 0.280 -0.870
vn 0.417 0.443 -0.794
vn 0.473 0.401 -0.784
vn 0.193 0.518 -0.833
vn -0.042 0.506 -0.862
vn 0.325 -0.455 0.829
vn -0.146 -0.533 0.833
vn -0.405 -0.507 0.761
vn -0.362 -0.542 0.759
vn -0.392 -0.512 0.764
vn -0.364 -0.536 0.762
vn -0.355 -0.543 0.761
vn -0.336 -0.530 0.778
vn -0.404 -0.510 0.760
vn -0.433 -0.498 0.751
vn -0.454 -0.481 0.750
vn -0.370 -0.544 0.753
vn -0.359 -0.550 0.754
vn 0.483 -0.873 -0.075
vn -0.113 -0.747 0.655
vn 0.422 0.482 -0.768
vn -0.221 -0.680 0.700
vn 0.431 0.491 -0.757
vn -0.706 -0.325 0.629
vn -0.049 0.437 -0.898
vn 0.383 0.507 -0.772
vn 0.371 0.515 -0.773
vn 0.434 0.478 -0.764
vn 0.400 0.510 -0.761
vn 0.645 0.447 -0.620
vn 0.236 0.518 -0.822
vn -0.662 0.315 -0.680
vn -0.032 0.507 -0.861
vn -0.088 0.497 -0.863
vn -0.581 0.355 -0.732
vn 0.611 -0.347 0.711
vn 0.371 -0.444 0.816
vn -0.107 -0.533 0.839
vn 0.135 -0.498 0.856
vn 0.236 -0.478 0.846
vn -0.416 -0.507 0.755
vn -0.439 -0.473 0.764
vn -0.438 -0.477 0.762
vn -0.389 -0.501 0.773
vn -0.392 -0.498 0.774
vn 0.511 0.546 -0.663
vn 0.446 0.549 -0.707
vn -0.368 -0.506 0.780
vn 0.444 0.690 -0.572
vn 0.039 0.738 -0.673
vn -0.465 -0.456 0.759
vn -0.527 -0.383 0.759
vn 0.325 0.564 -0.759
vn 0.322 0.590 -0.741
vn 0.374 0.542 -0.753
vn 0.397 0.523 -0.754
vn 0.396 0.525 -0.753
vn 0.404 0.518 -0.754
vn 0.405 0.518 -0.754
vn 0.211 0.626 -0.750
vn 0.354 0.543 -0.762
vn 0.367 0.543 -0.755
vn 0.391 0.525 -0.756
vn 0.684 0.430 -0.589
vn -0.483 0.405 -0.777
vn 0.691 0.428 -0.583
vn 0.619 0.454 -0.641
vn 0.922 -0.103 0.373
vn -0.539 0.380 -0.751
vn -0.347 0.443 -0.827
vn -0.306 0.457 -0.836
vn -0.513 0.388 -0.765
vn -0.864 0.175 -0.472
vn 0.640 -0.329 0.694
vn 0.525 -0.385 0.759
vn 0.180 -0.486 0.855
vn 0.322 -0.452 0.832
vn -0.441 -0.504 0.743
vn 0.180 -0.486 0.855
vn -0.389 -0.502 0.772
vn 0.492 0.523 -0.696
vn -0.528 -0.351 0.773
vn 0.373 0.544 -0.752
vn 0.744 -0.263 0.614
vn -0.820 -0.323 0.473
vn 0.433 -0.414 0.801
vn 0.810 -0.212 0.546
vn -0.820 0.217 -0.529
vn -0.555 -0.457 0.695
vn -0.069 -0.506 0.860
vn -0.892 0.147 -0.427
vn 0.431 -0.416 0.801
vn 0.280 -0.460 0.842
vn -0.042 -0.508 0.860
vn 0.059 -0.498 0.865

# Facets
f 1//1 3//1 2//1
f 4//2 2//2 3//2
f 1//3 5//3 3//3
f 1//4 6//4 5//4
f 3//5 7//5 4//5
f 3//6 5//6 7//6
f 8//7 5//7 6//7
f 8//8 7//8 5//8
f 1//9 2//9 9//9
f 9//10 2//10 4//10
f 6//11 9//11 10//11
f 6//12 1//12 9//12
f 10//13 4//13 7//13
f 10//14 9//14 4//14
f 8//15 6//15 10//15
f 10//16 7//16 8//16
f 11//17 13//17 12//17
f 14//18 12//18 13//18
f 15//19 13//19 11//19
f 15//20 14//20 13//20
f 16//21 18//21 17//21
f 17//22 19//22 16//22
f 20//23 18//23 16//23
f 21//24 18//24 20//24
f 22//25 16//25 19//25
f 22//26 23//26 16//26
f 23//27 20//27 16//27
f 23//28 25//28 24//28
f 22//29 25//29 23//29
f 25//30 26//30 24//30
f 20//31 27//31 21//31
f 23//32 27//32 20//32
f 28//33 27//33 23//33
f 24//34 28//34 23//34
f 29//35 28//35 24//35
f 26//36 29//36 24//36
f 30//37 12//37 31//37
f 30//38 11//38 12//38
f 14//39 31//39 12//39
f 14//40 32//40 31//40
f 11//41 33//41 15//41
f 34//42 33//42 11//42
f 30//43 34//43 11//43
f 35//44 15//44 33//44
f 14//45 15//45 35//45
f 32//46 14//46 35//46
f 36//47 33//47 34//47
f 36//48 35//48 33//48
f 17//49 18//49 37//49
f 17//50 37//50 19//50
f 37//51 21//51 38//51
f 18//52 21//52 37//52
f 19//53 39//53 22//53
f 19//54 37//54 39//54
f 37//55 38//55 39//55
f 22//56 40//56 25//56
f 39//57 40//57 22//57
f 25//58 40//58 26//58
f 21//59 27//59 38//59
f 28//60 38//60 27//60
f 39//61 38//61 28//61
f 29//62 39//62 28//62
f 40//63 39//63 29//63
f 26//64 40//64 29//64
f 30//65 31//65 41//65
f 41//66 31//66 32//66
f 34//67 41//67 42//67
f 34//68 30//68 41//68
f 42//69 32//69 35//69
f 42//70 41//70 32//70
f 36//71 34//71 42//71
f 42//72 35//72 36//72
f 43//73 45//73 44//73
f 46//74 45//74 47//74
f 46//75 44//75 45//75
f 48//76 46//76 47//76
f 43//77 49//77 45//77
f 43//78 50//78 49//78
f 51//79 47//79 45//79
f 49//80 51//80 45//80
f 47//81 52//81 48//81
f 47//82 51//82 52//82
f 53//83 49//83 50//83
f 53//84 51//84 49//84
f 53//85 54//85 51//85
f 54//86 52//86 51//86
f 55//87 44//87 56//87
f 55//88 43//88 44//88
f 44//89 46//89 57//89
f 56//90 44//90 57//90
f 48//91 57//91 46//91
f 48//92 58//92 57//92
f 50//93 60//93 59//93
f 55//94 60//94 50//94
f 43//95 55//95 50//95
f 59//96 60//96 61//96
f 58//97 48//97 52//97
f 62//98 58//98 52//98
f 53//99 50//99 59//99
f 63//100 59//100 61//100
f 53//101 59//101 63//101
f 54//102 53//102 63//102
f 54//103 62//103 52//103
f 54//104 63//104 62//104
f 55//105 56//105 64//105
f 65//106 56//106 57//106
f 65//107 64//107 56//107
f 65//108 57//108 58//108
f 60//109 55//109 64//109
f 64//110 61//110 60//110
f 66//111 61//111 64//111
f 65//112 66//112 64//112
f 66//113 58//113 62//113
f 66//114 65//114 58//114
f 63//115 61//115 66//115
f 66//116 62//116 63//116
f 67//117 69//117 68//117
f 70//118 69//118 71//118
f 70//119 68//119 69//119
f 72//120 70//120 71//120
f 73//121 69//121 67//121
f 73//122 71//122 69//122
f 73//123 74//123 71//123
f 74//124 72//124 71//124
f 75//125 77//125 76//125
f 78//126 76//126 77//126
f 79//127 77//127 75//127
f 79//128 78//128 77//128
f 80//129 82//129 81//129
f 83//130 82//130 84//130
f 83//131 81//131 82//131
f 85//132 84//132 86//132
f 85//133 83//133 84//133
f 87//134 85//134 86//134
f 80//135 68//135 82//135
f 67//136 68//136 80//136
f 88//137 67//137 80//137
f 68//138 70//138 82//138
f 70//139 84//139 82//139
f 84//140 89//140 86//140
f 72//141 89//141 84//141
f 90//142 89//142 72//142
f 84//143 70//143 72//143
f 89//144 87//144 86//144
f 91//145 67//145 88//145
f 91//146 73//146 67//146
f 92//147 74//147 73//147
f 92//148 73//148 91//148
f 74//149 90//149 72//149
f 74//150 92//150 90//150
f 93//151 76//151 94//151
f 93//152 75//152 76//152
f 95//153 78//153 96//153
f 76//154 78//154 95//154
f 94//155 76//155 95//155
f 97//156 95//156 96//156
f 98//157 75//157 93//157
f 98//158 79//158 75//158
f 79//159 96//159 78//159
f 99//160 96//160 79//160
f 98//161 99//161 79//161
f 99//162 97//162 96//162
f 80//163 81//163 100//163
f 81//164 101//164 100//164
f 102//165 101//165 81//165
f 83//166 102//166 81//166
f 102//167 104//167 103//167
f 85//168 104//168 102//168
f 83//169 85//169 102//169
f 104//170 85//170 87//170
f 88//171 100//171 105//171
f 88//172 80//172 100//172
f 101//173 106//173 100//173
f 100//174 106//174 107//174
f 100//175 107//175 105//175
f 106//176 103//176 107//176
f 103//177 104//177 107//177
f 107//178 104//178 90//178
f 90//179 104//179 89//179
f 104//180 87//180 89//180
f 91//181 88//181 105//181
f 105//182 92//182 91//182
f 105//183 107//183 92//183
f 107//184 90//184 92//184
f 108//185 110//185 109//185
f 111//186 109//186 110//186
f 108//187 94//187 110//187
f 93//188 94//188 108//188
f 112//189 93//189 108//189
f 111//190 110//190 113//190
f 113//191 110//191 94//191
f 113//192 94//192 95//192
f 97//193 113//193 95//193
f 97//194 114//194 113//194
f 115//195 93//195 112//195
f 115//196 98//196 93//196
f 116//197 99//197 98//197
f 116//198 98//198 115//198
f 99//199 114//199 97//199
f 99//200 116//200 114//200
f 101//201 102//201 117//201
f 117//202 102//202 103//202
f 106//203 101//203 117//203
f 117//204 103//204 106//204
f 108//205 109//205 118//205
f 118//206 109//206 111//206
f 112//207 118//207 119//207
f 112//208 108//208 118//208
f 120//209 111//209 113//209
f 118//210 111//210 120//210
f 119//211 118//211 120//211
f 120//212 113//212 114//212
f 115//213 112//213 119//213
f 119//214 116//214 115//214
f 119//215 120//215 116//215
f 120//216 114//216 116//216

# Thankyou for using Spin3D

