# Created using Spin3D

# Vertex Array
v 45.200 -16.493 -0.473
v 45.201 -16.493 -0.472
v 45.201 -16.494 -0.474
v 45.202 -16.493 -0.473
v 45.201 -16.493 -0.475
v 45.201 -16.492 -0.473
v 7.848 11.170 7.391
v 7.931 11.208 7.732
v 7.962 11.119 7.515
v 8.051 11.220 7.855
v 8.076 11.148 7.583
v 8.123 11.274 7.712
v 7.857 11.128 7.013
v 7.776 11.248 6.995
v 7.995 11.119 7.138
v 8.093 11.200 7.323
v 7.788 11.206 6.619
v 7.769 11.339 6.606
v 7.886 11.169 6.635
v 8.006 11.226 6.839
v 7.816 11.263 6.408
v 7.903 11.270 6.465
v 7.847 11.308 7.492
v 7.983 11.340 7.866
v 8.035 11.446 7.831
v 8.092 11.349 7.947
v 7.798 11.417 7.060
v 8.100 11.411 7.738
v 8.065 11.360 7.237
v 7.850 11.380 6.495
v 7.819 11.465 6.748
v 7.964 11.354 6.681
v 7.931 11.469 6.894
v 7.914 11.458 7.538
v 7.878 11.513 7.125
v 8.000 11.490 7.442

# Normal Array
vn -0.581 -0.657 0.480
vn 0.539 -0.680 0.497
vn -0.585 -0.485 -0.649
vn 0.562 -0.495 -0.662
vn -0.564 0.498 0.659
vn 0.587 0.488 0.646
vn -0.538 0.679 -0.500
vn 0.580 0.656 -0.483
vn -0.590 -0.774 0.231
vn 0.088 -0.962 0.260
vn -0.257 -0.907 0.334
vn 0.822 -0.528 0.215
vn -0.477 -0.875 0.086
vn -0.832 -0.553 0.042
vn 0.232 -0.972 0.022
vn -0.061 -0.998 -0.004
vn 0.939 -0.343 -0.009
vn 0.733 -0.675 -0.088
vn -0.832 -0.554 0.033
vn -0.989 -0.147 -0.016
vn 0.032 -0.994 -0.106
vn -0.338 -0.932 -0.128
vn 0.806 -0.566 -0.175
vn 0.700 -0.680 -0.220
vn -0.973 -0.160 -0.169
vn -0.304 -0.909 -0.285
vn 0.355 -0.818 -0.452
vn 0.756 -0.593 -0.277
vn -0.940 0.026 0.339
vn -0.949 -0.190 0.252
vn -0.547 0.494 0.676
vn -0.538 -0.367 0.759
vn -0.634 -0.413 0.654
vn 0.853 -0.453 0.259
vn -0.981 -0.119 0.154
vn -0.988 0.081 0.131
vn 0.695 0.682 0.228
vn 0.985 0.153 0.083
vn 0.979 0.185 -0.086
vn 0.988 0.116 -0.100
vn -0.721 0.625 -0.298
vn -0.927 0.375 -0.003
vn -0.992 0.114 0.045
vn 0.633 0.718 -0.289
vn 0.317 0.910 -0.267
vn 0.833 0.530 -0.157
vn 0.979 0.099 -0.179
vn 0.982 0.077 -0.172
vn -0.773 0.509 -0.378
vn 0.464 0.436 -0.771
vn 0.773 0.487 -0.406
vn 0.964 -0.013 -0.266
vn -0.901 0.313 0.300
vn -0.789 0.507 0.346
vn -0.806 0.573 0.146
vn -0.916 0.353 0.191
vn 0.526 0.849 0.050
vn -0.221 0.967 0.130
vn -0.203 0.968 0.147
vn 0.805 0.582 -0.115
vn -0.782 0.622 0.044
vn 0.163 0.975 -0.149
vn 0.391 0.916 -0.086
vn 0.797 0.592 -0.124

# Facets
f 1//1 3//1 2//1
f 4//2 2//2 3//2
f 5//3 3//3 1//3
f 5//4 4//4 3//4
f 1//5 2//5 6//5
f 6//6 2//6 4//6
f 5//7 1//7 6//7
f 6//8 4//8 5//8
f 7//9 9//9 8//9
f 10//10 9//10 11//10
f 10//11 8//11 9//11
f 12//12 10//12 11//12
f 7//13 13//13 9//13
f 7//14 14//14 13//14
f 15//15 11//15 9//15
f 13//16 15//16 9//16
f 11//17 16//17 12//17
f 11//18 15//18 16//18
f 14//19 17//19 13//19
f 14//20 18//20 17//20
f 19//21 15//21 13//21
f 17//22 19//22 13//22
f 15//23 20//23 16//23
f 15//24 19//24 20//24
f 21//25 17//25 18//25
f 21//26 19//26 17//26
f 21//27 22//27 19//27
f 22//28 20//28 19//28
f 23//29 8//29 24//29
f 23//30 7//30 8//30
f 24//31 26//31 25//31
f 10//32 26//32 24//32
f 8//33 10//33 24//33
f 26//34 10//34 12//34
f 14//35 7//35 23//35
f 14//36 23//36 27//36
f 25//37 26//37 28//37
f 12//38 28//38 26//38
f 29//39 28//39 12//39
f 16//40 29//40 12//40
f 18//41 31//41 30//41
f 27//42 31//42 18//42
f 14//43 27//43 18//43
f 32//44 30//44 33//44
f 30//45 31//45 33//45
f 29//46 32//46 33//46
f 20//47 32//47 29//47
f 16//48 20//48 29//48
f 21//49 18//49 30//49
f 30//50 22//50 21//50
f 30//51 32//51 22//51
f 32//52 20//52 22//52
f 23//53 24//53 34//53
f 34//54 24//54 25//54
f 27//55 34//55 35//55
f 27//56 23//56 34//56
f 36//57 25//57 28//57
f 34//58 25//58 36//58
f 35//59 34//59 36//59
f 36//60 28//60 29//60
f 31//61 27//61 35//61
f 35//62 33//62 31//62
f 35//63 36//63 33//63
f 36//64 29//64 33//64

# Thankyou for using Spin3D

