# Created using Spin3D

# Vertex Array
v 18.689 -46.990 20.611
v 18.684 -46.989 20.606
v 18.687 -46.988 20.608
v 18.684 -46.988 20.603
v 18.686 -46.988 20.605
v 18.684 -46.989 20.602
v 18.689 -46.989 20.610
v 18.692 -46.991 20.611
v 18.688 -46.989 20.606
v 18.689 -46.989 20.607
v 18.693 -46.990 20.611
v 18.688 -46.990 20.608
v 18.685 -46.989 20.606
v 18.690 -46.990 20.609
v 2.712 -22.142 74.374
v 2.713 -22.142 74.375
v 2.713 -22.143 74.373
v 2.715 -22.142 74.374
v 2.713 -22.142 74.372
v 2.713 -22.141 74.374
v 7.062 33.681 -30.996
v 7.062 33.679 -30.997
v 7.062 33.682 -30.992
v 7.061 33.680 -30.995
v 7.061 33.682 -30.993
v 7.062 33.677 -31.000
v 7.061 33.674 -31.002
v 7.061 33.678 -30.998
v 7.061 33.678 -31.001
v 7.063 33.679 -30.999
v 7.061 33.680 -30.998
v 7.062 33.682 -30.997
v 7.062 33.675 -31.002
v 7.062 33.679 -31.002

# Normal Array
vn -0.528 0.604 0.597
vn 0.270 0.961 -0.067
vn -0.473 0.808 0.351
vn 0.509 0.758 -0.409
vn 0.062 0.923 0.379
vn 0.231 0.867 0.442
vn 0.646 0.365 -0.671
vn 0.071 0.983 0.170
vn 0.533 0.836 -0.133
vn 0.668 0.561 -0.490
vn -0.249 -0.018 0.968
vn 0.009 0.986 0.165
vn -0.473 -0.793 0.383
vn -0.267 -0.884 -0.384
vn -0.201 -0.956 -0.215
vn -0.939 -0.302 0.163
vn 0.169 -0.915 -0.365
vn -0.222 -0.925 0.307
vn 0.732 -0.121 -0.671
vn -0.019 -0.974 -0.227
vn 0.225 -0.771 -0.596
vn -0.014 -0.985 -0.173
vn 0.585 -0.504 -0.635
vn 0.617 -0.306 -0.725
vn -0.605 -0.630 0.487
vn 0.569 -0.655 0.497
vn -0.550 -0.480 -0.683
vn 0.588 -0.476 -0.654
vn -0.574 0.505 0.645
vn 0.536 0.509 0.673
vn -0.551 0.689 -0.471
vn 0.586 0.665 -0.463
vn 1.000 -0.014 0.014
vn -0.423 -0.764 0.488
vn 0.198 0.978 -0.072
vn -0.641 -0.605 0.473
vn 0.432 -0.712 0.554
vn -1.000 0.008 -0.011
vn 0.252 -0.820 0.514
vn 0.998 -0.020 0.062
vn 0.827 -0.347 0.442
vn -0.196 -0.755 0.626
vn -0.999 -0.036 -0.020
vn -0.832 -0.525 0.178
vn 0.976 0.206 0.065
vn 0.923 0.267 0.278
vn -0.952 -0.257 0.167
vn -0.854 0.501 -0.137
vn 0.575 -0.674 0.464
vn -0.141 0.402 -0.905
vn 0.871 0.261 -0.416
vn 0.942 -0.261 0.212
vn -0.974 0.024 -0.225
vn -0.925 -0.154 -0.347
vn 0.720 0.546 -0.429
vn -0.718 0.589 -0.372

# Facets
f 1//1 3//1 2//1
f 4//2 3//2 5//2
f 4//3 2//3 3//3
f 6//4 4//4 5//4
f 1//5 7//5 3//5
f 1//6 8//6 7//6
f 5//7 10//7 9//7
f 7//8 10//8 5//8
f 3//9 7//9 5//9
f 9//10 6//10 5//10
f 11//11 7//11 8//11
f 11//12 10//12 7//12
f 1//13 2//13 12//13
f 13//14 2//14 4//14
f 13//15 12//15 2//15
f 13//16 4//16 6//16
f 8//17 12//17 14//17
f 8//18 1//18 12//18
f 14//19 9//19 10//19
f 13//20 9//20 14//20
f 12//21 13//21 14//21
f 13//22 6//22 9//22
f 11//23 8//23 14//23
f 14//24 10//24 11//24
f 15//25 17//25 16//25
f 18//26 16//26 17//26
f 19//27 17//27 15//27
f 19//28 18//28 17//28
f 15//29 16//29 20//29
f 20//30 16//30 18//30
f 19//31 15//31 20//31
f 20//32 18//32 19//32
f 21//33 23//33 22//33
f 24//34 22//34 23//34
f 25//35 23//35 21//35
f 25//36 24//36 23//36
f 26//37 28//37 27//37
f 29//38 27//38 28//38
f 26//39 22//39 28//39
f 21//40 22//40 26//40
f 30//41 21//41 26//41
f 24//42 28//42 22//42
f 29//43 28//43 24//43
f 31//44 29//44 24//44
f 32//45 21//45 30//45
f 32//46 25//46 21//46
f 25//47 31//47 24//47
f 25//48 32//48 31//48
f 26//49 27//49 33//49
f 33//50 27//50 29//50
f 30//51 33//51 34//51
f 30//52 26//52 33//52
f 34//53 29//53 31//53
f 34//54 33//54 29//54
f 32//55 30//55 34//55
f 34//56 31//56 32//56

# Thankyou for using Spin3D

