# Created using Spin3D

# Vertex Array
v 6.165 -7.469 31.157
v 6.163 -7.468 31.155
v 6.163 -7.469 31.157
v 6.161 -7.468 31.156
v 6.162 -7.469 31.159
v 6.165 -7.467 31.157
v 6.162 -7.466 31.155
v 6.161 -7.467 31.158
v 6.163 -7.467 31.159
v 6.163 -7.466 31.157
v -6.865 16.881 4.633
v -6.864 16.881 4.631
v -6.864 16.883 4.633
v -6.863 16.882 4.631
v -6.863 16.883 4.633
v -6.862 16.881 4.633
v -6.864 16.882 4.635
v -6.863 16.881 4.634
v -6.864 16.879 4.633
v -6.863 16.879 4.632

# Normal Array
vn 0.244 -0.918 -0.313
vn -0.175 -0.897 -0.406
vn 0.148 -0.983 0.108
vn -0.278 -0.960 0.005
vn 0.517 0.418 -0.747
vn 0.814 -0.202 -0.544
vn -0.518 -0.120 -0.847
vn -0.801 0.370 -0.470
vn 0.805 0.181 0.565
vn 0.482 -0.423 0.767
vn -0.815 -0.344 0.465
vn -0.516 0.137 0.845
vn 0.176 0.980 -0.097
vn -0.243 0.970 -0.005
vn 0.270 0.906 0.325
vn -0.159 0.894 0.420
vn -0.947 0.219 -0.235
vn 0.260 0.889 -0.376
vn -0.290 0.640 -0.712
vn 0.959 0.260 -0.110
vn -0.949 0.243 0.201
vn -0.301 0.712 0.635
vn 0.280 0.359 0.891
vn 0.953 0.103 0.286
vn -0.952 -0.218 -0.214
vn 0.286 -0.366 -0.886
vn -0.299 -0.706 -0.642
vn 0.952 -0.131 -0.278
vn -0.955 -0.192 0.225
vn -0.295 -0.636 0.713
vn 0.256 -0.891 0.376
vn 0.951 -0.287 0.118

# Facets
f 1//1 3//1 2//1
f 4//2 2//2 3//2
f 5//3 3//3 1//3
f 5//4 4//4 3//4
f 6//5 2//5 7//5
f 6//6 1//6 2//6
f 4//7 7//7 2//7
f 4//8 8//8 7//8
f 9//9 1//9 6//9
f 9//10 5//10 1//10
f 5//11 8//11 4//11
f 5//12 9//12 8//12
f 6//13 7//13 10//13
f 10//14 7//14 8//14
f 9//15 6//15 10//15
f 10//16 8//16 9//16
f 11//17 13//17 12//17
f 14//18 13//18 15//18
f 14//19 12//19 13//19
f 16//20 14//20 15//20
f 17//21 13//21 11//21
f 17//22 15//22 13//22
f 17//23 18//23 15//23
f 18//24 16//24 15//24
f 11//25 12//25 19//25
f 20//26 12//26 14//26
f 20//27 19//27 12//27
f 20//28 14//28 16//28
f 17//29 11//29 19//29
f 19//30 18//30 17//30
f 19//31 20//31 18//31
f 20//32 16//32 18//32

# Thankyou for using Spin3D

