# Created using Spin3D

# Vertex Array
v 45.325 -15.052 -27.606
v 45.326 -15.052 -27.605
v 45.326 -15.053 -27.606
v 45.328 -15.052 -27.606
v 45.326 -15.052 -27.607
v 45.326 -15.051 -27.606
v 51.475 0.196 -9.826
v 51.476 0.195 -9.825
v 51.476 0.194 -9.826
v 51.477 0.196 -9.826
v 51.476 0.196 -9.827
v 51.476 0.197 -9.825

# Normal Array
vn -0.615 -0.642 0.458
vn 0.583 -0.661 0.472
vn -0.615 -0.458 -0.642
vn 0.583 -0.472 -0.661
vn -0.598 0.493 0.632
vn 0.599 0.437 0.671
vn -0.598 0.672 -0.437
vn 0.599 0.631 -0.493
vn -0.613 -0.642 0.461
vn 0.563 -0.671 0.482
vn -0.593 -0.442 -0.673
vn 0.586 -0.501 -0.637
vn -0.583 0.504 0.637
vn 0.587 0.446 0.676
vn -0.566 0.672 -0.478
vn 0.614 0.643 -0.458

# Facets
f 1//1 3//1 2//1
f 4//2 2//2 3//2
f 5//3 3//3 1//3
f 5//4 4//4 3//4
f 1//5 2//5 6//5
f 6//6 2//6 4//6
f 5//7 1//7 6//7
f 6//8 4//8 5//8
f 7//9 9//9 8//9
f 10//10 8//10 9//10
f 11//11 9//11 7//11
f 11//12 10//12 9//12
f 7//13 8//13 12//13
f 12//14 8//14 10//14
f 11//15 7//15 12//15
f 12//16 10//16 11//16

# Thankyou for using Spin3D

