# Created using Spin3D

# Vertex Array
v 20.816 -43.272 -2.033
v 20.817 -43.272 -2.032
v 20.817 -43.273 -2.033
v 20.818 -43.272 -2.033
v 20.817 -43.271 -2.034
v 20.817 -43.270 -2.033
v 4.423 -40.894 28.929
v 5.215 -40.830 29.938
v 5.576 -41.317 29.309
v 6.618 -41.161 30.217
v 7.093 -41.519 29.524
v 7.899 -41.316 30.218
v 8.477 -41.395 29.550
v 8.885 -41.064 30.135
v 4.813 -41.251 28.017
v 4.080 -40.825 27.775
v 6.174 -41.497 28.260
v 7.591 -41.489 28.591
v 9.383 -41.089 29.487
v 8.758 -41.118 28.451
v 9.669 -40.807 29.018
v 4.512 -40.965 26.758
v 4.054 -40.459 26.940
v 5.431 -41.296 27.029
v 6.881 -41.164 26.980
v 9.243 -40.568 28.214
v 8.221 -40.745 27.302
v 4.687 -40.567 25.912
v 5.403 -40.976 25.775
v 5.318 -40.651 25.224
v 6.908 -40.537 26.186
v 6.123 -40.875 25.506
v 5.610 -40.825 25.044
v 4.423 -40.480 29.466
v 5.116 -40.340 29.939
v 6.320 -40.560 30.294
v 7.788 -40.864 30.450
v 8.742 -40.604 30.145
v 4.108 -40.330 28.301
v 4.676 -40.104 29.240
v 9.510 -40.703 29.661
v 9.600 -40.443 28.979
v 4.225 -40.031 27.240
v 9.001 -40.165 28.386
v 8.222 -40.238 27.366
v 4.448 -40.152 26.384
v 5.866 -40.623 25.216
v 5.550 -40.200 25.964
v 6.953 -40.002 26.795
v 5.975 -39.974 29.521
v 7.591 -40.269 30.050
v 4.994 -39.826 28.153
v 6.390 -39.681 28.495
v 7.367 -39.847 29.219
v 8.754 -40.181 29.334
v 4.867 -39.866 26.860
v 6.029 -39.750 27.286
v 7.677 -39.839 28.096
v -35.679 -7.380 -11.751
v -35.677 -7.381 -11.750
v -35.677 -7.382 -11.751
v -35.676 -7.380 -11.751
v -35.677 -7.380 -11.752
v -35.677 -7.379 -11.751
v -17.600 1.761 5.110
v -17.598 1.761 5.111
v -17.598 1.760 5.109
v -17.597 1.761 5.110
v -17.598 1.762 5.109
v -29.506 6.389 -2.138
v -29.506 6.411 -2.135
v -29.506 6.479 -2.114
v -29.506 6.441 -2.129
v -29.506 6.465 -2.118
v -17.598 1.763 5.110
v -29.507 6.482 -2.123
v -29.506 6.607 -2.094
v -29.507 6.541 -2.105
v -29.506 6.593 -2.095
v -29.508 6.671 -2.070
v -29.507 6.598 -2.087
v -29.507 6.623 -2.077
v -29.508 6.725 -2.064
v -29.508 6.722 -2.064
v -29.507 6.755 -2.050
v -29.508 6.815 -2.036
v -29.508 6.751 -2.045
v -29.508 6.779 -2.040
v -29.507 6.821 -2.036
v -29.508 6.840 -2.027

# Normal Array
vn -0.598 -0.622 0.505
vn 0.596 -0.666 0.448
vn -0.586 -0.433 -0.685
vn 0.591 -0.488 -0.643
vn -0.577 0.465 0.672
vn 0.607 0.453 0.653
vn -0.575 0.657 -0.487
vn 0.612 0.636 -0.471
vn -0.427 -0.817 0.387
vn -0.173 -0.918 0.356
vn -0.290 -0.830 0.476
vn 0.085 -0.979 0.188
vn -0.111 -0.912 0.396
vn 0.260 -0.907 0.331
vn -0.391 -0.902 0.185
vn -0.525 -0.844 0.105
vn -0.144 -0.986 0.087
vn -0.188 -0.980 0.061
vn 0.089 -0.996 0.015
vn 0.012 -1.000 -0.026
vn 0.324 -0.902 0.285
vn 0.305 -0.939 -0.159
vn 0.281 -0.945 -0.167
vn 0.447 -0.860 -0.246
vn -0.480 -0.873 -0.083
vn -0.761 -0.603 -0.240
vn -0.167 -0.984 -0.059
vn -0.298 -0.944 -0.143
vn 0.057 -0.974 -0.221
vn 0.082 -0.975 -0.208
vn 0.545 -0.688 -0.478
vn 0.363 -0.823 -0.437
vn 0.257 -0.919 -0.298
vn 0.538 -0.686 -0.489
vn -0.746 -0.530 -0.403
vn -0.513 -0.771 -0.377
vn -0.506 -0.735 -0.450
vn -0.269 -0.935 -0.232
vn 0.655 -0.604 -0.455
vn 0.055 -0.974 -0.219
vn 0.079 -0.965 -0.248
vn 0.367 -0.736 -0.569
vn -0.623 -0.711 -0.324
vn 0.069 -0.981 -0.183
vn -0.581 -0.644 0.497
vn -0.545 -0.111 0.831
vn -0.292 -0.060 0.954
vn -0.243 -0.241 0.940
vn -0.058 -0.467 0.882
vn -0.144 -0.196 0.970
vn 0.181 -0.413 0.892
vn 0.287 0.068 0.955
vn -0.713 0.644 0.276
vn -0.935 -0.280 0.217
vn -0.937 -0.228 0.265
vn -0.507 0.668 0.545
vn 0.541 0.150 0.828
vn 0.689 -0.474 0.548
vn 0.867 -0.412 0.279
vn 0.958 0.201 0.203
vn -0.999 0.016 0.038
vn -0.929 0.369 0.002
vn 0.620 0.592 -0.515
vn 0.654 0.092 -0.751
vn 0.892 0.121 -0.436
vn 0.689 0.592 -0.418
vn -0.806 0.520 -0.283
vn -0.840 0.119 -0.529
vn -0.050 0.860 -0.508
vn -0.336 0.848 -0.411
vn -0.240 0.665 -0.707
vn 0.681 -0.133 -0.720
vn 0.281 0.881 -0.380
vn 0.282 0.710 -0.645
vn 0.653 0.092 -0.751
vn 0.404 0.672 -0.620
vn -0.044 0.680 -0.732
vn 0.646 -0.190 -0.739
vn -0.037 0.788 0.614
vn 0.029 0.564 0.825
vn -0.060 0.782 0.620
vn 0.101 0.578 0.810
vn -0.483 0.872 0.081
vn -0.179 0.892 0.414
vn -0.141 0.968 0.206
vn -0.153 0.965 0.214
vn 0.016 0.893 0.449
vn -0.031 0.964 0.263
vn 0.378 0.819 0.432
vn 0.214 0.865 0.454
vn 0.182 0.896 0.406
vn 0.413 0.832 0.372
vn -0.251 0.968 -0.005
vn -0.460 0.866 0.194
vn -0.097 0.995 -0.029
vn -0.091 0.996 -0.022
vn 0.135 0.990 0.045
vn 0.095 0.992 -0.086
vn 0.288 0.914 -0.285
vn 0.224 0.972 0.075
vn 0.228 0.971 0.070
vn 0.333 0.938 0.102
vn -0.364 0.905 -0.222
vn -0.124 0.895 -0.428
vn 0.027 0.943 -0.331
vn 0.072 0.936 -0.344
vn 0.154 0.966 -0.207
vn 0.295 0.914 -0.279
vn -0.613 -0.649 0.450
vn 0.570 -0.675 0.468
vn -0.598 -0.446 -0.666
vn 0.591 -0.506 -0.629
vn -0.589 0.506 0.630
vn 0.599 0.446 0.665
vn -0.569 0.676 -0.468
vn 0.615 0.648 -0.449
vn -0.611 -0.644 0.460
vn 0.564 -0.672 0.479
vn -0.590 -0.442 -0.675
vn 0.586 -0.501 -0.637
vn -0.998 -0.016 0.057
vn 0.975 0.035 -0.220
vn -0.339 -0.238 0.910
vn 0.998 0.009 -0.063
vn -0.585 0.499 0.640
vn 0.589 0.440 0.678
vn -0.562 0.671 -0.483
vn 0.610 0.643 -0.463
vn -0.995 0.027 -0.092
vn 0.999 -0.017 0.047
vn -0.998 -0.017 0.056
vn -0.997 -0.019 0.068
vn -1.000 -0.014 0.028
vn 0.890 0.083 -0.448
vn 0.970 0.054 -0.237
vn 0.994 -0.022 0.105
vn -0.999 0.001 -0.037
vn -0.360 -0.237 0.902
vn 0.990 0.042 -0.133
vn 1.000 0.005 0.028
vn -0.997 -0.032 0.073
vn -0.968 0.052 -0.246
vn 0.990 -0.022 0.136
vn 0.997 0.028 -0.075
vn -0.999 0.008 -0.050
vn -1.000 0.005 -0.028
vn 0.994 -0.022 0.105
vn 0.984 -0.039 0.177
vn -0.991 0.029 -0.133
vn -1.000 -0.000 -0.025
vn 0.998 -0.006 0.055
vn -0.987 0.032 -0.160
vn -0.992 -0.031 0.125
vn 1.000 -0.003 -0.008
vn -0.935 0.109 -0.339
vn -0.922 0.107 -0.371
vn 0.983 -0.037 0.178
vn 0.970 -0.053 0.235
vn -0.990 0.030 -0.139
vn -1.000 0.000 0.000

# Facets
f 1//1 3//1 2//1
f 4//2 2//2 3//2
f 5//3 3//3 1//3
f 5//4 4//4 3//4
f 1//5 2//5 6//5
f 6//6 2//6 4//6
f 5//7 1//7 6//7
f 6//8 4//8 5//8
f 7//9 9//9 8//9
f 10//10 9//10 11//10
f 10//11 8//11 9//11
f 12//12 11//12 13//12
f 12//13 10//13 11//13
f 14//14 12//14 13//14
f 7//15 15//15 9//15
f 7//16 16//16 15//16
f 17//17 11//17 9//17
f 15//18 17//18 9//18
f 18//19 13//19 11//19
f 17//20 18//20 11//20
f 13//21 19//21 14//21
f 20//22 19//22 13//22
f 18//23 20//23 13//23
f 21//24 19//24 20//24
f 16//25 22//25 15//25
f 16//26 23//26 22//26
f 24//27 17//27 15//27
f 22//28 24//28 15//28
f 25//29 18//29 17//29
f 24//30 25//30 17//30
f 20//31 27//31 26//31
f 25//32 27//32 20//32
f 18//33 25//33 20//33
f 26//34 21//34 20//34
f 28//35 22//35 23//35
f 29//36 28//36 30//36
f 22//37 28//37 29//37
f 24//38 22//38 29//38
f 25//39 32//39 31//39
f 29//40 32//40 25//40
f 24//41 29//41 25//41
f 31//42 27//42 25//42
f 33//43 29//43 30//43
f 33//44 32//44 29//44
f 7//45 8//45 34//45
f 8//46 35//46 34//46
f 36//47 35//47 8//47
f 10//48 36//48 8//48
f 10//49 12//49 37//49
f 36//50 10//50 37//50
f 14//51 37//51 12//51
f 14//52 38//52 37//52
f 39//53 34//53 40//53
f 7//54 34//54 39//54
f 16//55 7//55 39//55
f 34//56 35//56 40//56
f 38//57 14//57 41//57
f 14//58 19//58 41//58
f 21//59 41//59 19//59
f 21//60 42//60 41//60
f 23//61 16//61 39//61
f 23//62 39//62 43//62
f 44//63 26//63 45//63
f 26//64 27//64 45//64
f 26//65 42//65 21//65
f 26//66 44//66 42//66
f 46//67 23//67 43//67
f 46//68 28//68 23//68
f 47//69 30//69 48//69
f 48//70 30//70 28//70
f 48//71 28//71 46//71
f 32//72 47//72 31//72
f 31//73 47//73 48//73
f 31//74 48//74 49//74
f 31//75 45//75 27//75
f 31//76 49//76 45//76
f 33//77 30//77 47//77
f 47//78 32//78 33//78
f 35//79 36//79 50//79
f 51//80 36//80 37//80
f 51//81 50//81 36//81
f 51//82 37//82 38//82
f 39//83 40//83 52//83
f 50//84 40//84 35//84
f 52//85 40//85 50//85
f 53//86 52//86 50//86
f 50//87 51//87 54//87
f 50//88 54//88 53//88
f 55//89 38//89 41//89
f 51//90 38//90 55//90
f 54//91 51//91 55//91
f 55//92 41//92 42//92
f 43//93 52//93 56//93
f 43//94 39//94 52//94
f 52//95 53//95 57//95
f 52//96 57//96 56//96
f 53//97 54//97 58//97
f 53//98 58//98 57//98
f 58//99 44//99 45//99
f 55//100 44//100 58//100
f 54//101 55//101 58//101
f 55//102 42//102 44//102
f 46//103 43//103 56//103
f 56//104 48//104 46//104
f 56//105 57//105 48//105
f 57//106 49//106 48//106
f 57//107 58//107 49//107
f 58//108 45//108 49//108
f 59//109 61//109 60//109
f 62//110 60//110 61//110
f 63//111 61//111 59//111
f 63//112 62//112 61//112
f 59//113 60//113 64//113
f 64//114 60//114 62//114
f 63//115 59//115 64//115
f 64//116 62//116 63//116
f 65//117 67//117 66//117
f 68//118 66//118 67//118
f 69//119 67//119 65//119
f 69//120 68//120 67//120
f 70//121 72//121 71//121
f 71//122 73//122 70//122
f 70//123 74//123 72//123
f 73//124 74//124 70//124
f 65//125 66//125 75//125
f 75//126 66//126 68//126
f 69//127 65//127 75//127
f 75//128 68//128 69//128
f 76//129 78//129 77//129
f 77//130 79//130 76//130
f 71//131 78//131 76//131
f 71//132 72//132 78//132
f 72//133 80//133 78//133
f 76//134 73//134 71//134
f 76//135 79//135 73//135
f 79//136 81//136 73//136
f 72//137 82//137 80//137
f 74//138 82//138 72//138
f 81//139 74//139 73//139
f 82//140 74//140 81//140
f 77//141 84//141 83//141
f 78//142 84//142 77//142
f 83//143 79//143 77//143
f 85//144 79//144 83//144
f 78//145 80//145 84//145
f 84//146 80//146 86//146
f 79//147 85//147 81//147
f 85//148 87//148 81//148
f 80//149 88//149 86//149
f 82//150 88//150 80//150
f 87//151 82//151 81//151
f 88//152 82//152 87//152
f 83//153 84//153 89//153
f 83//154 89//154 85//154
f 89//155 86//155 90//155
f 84//156 86//156 89//156
f 85//157 90//157 87//157
f 89//158 90//158 85//158
f 86//159 88//159 90//159
f 87//160 90//160 88//160

# Thankyou for using Spin3D

