# Created using Spin3D

# Vertex Array
v 20.767 -43.755 0.935
v 20.768 -43.755 0.936
v 20.768 -43.756 0.935
v 20.769 -43.755 0.935
v 20.768 -43.755 0.934
v 20.768 -43.754 0.935
v 24.125 -17.618 8.312
v 24.126 -17.618 8.314
v 24.126 -17.619 8.312
v 24.127 -17.618 8.312
v 24.126 -17.618 8.311
v 24.126 -17.617 8.313
v 6.293 -3.021 13.633
v 6.294 -3.021 13.634
v 6.294 -3.022 13.632
v 6.295 -3.021 13.633
v 6.294 -3.021 13.632
v 6.294 -3.020 13.633

# Normal Array
vn -0.595 -0.671 0.442
vn 0.559 -0.693 0.456
vn -0.575 -0.461 -0.676
vn 0.577 -0.516 -0.633
vn -0.595 0.489 0.637
vn 0.590 0.435 0.680
vn -0.578 0.657 -0.484
vn 0.614 0.635 -0.469
vn -0.580 -0.657 0.482
vn 0.539 -0.679 0.499
vn -0.587 -0.484 -0.649
vn 0.564 -0.494 -0.662
vn -0.563 0.494 0.662
vn 0.587 0.484 0.649
vn -0.539 0.678 -0.499
vn 0.580 0.656 -0.483
vn -0.580 -0.648 0.493
vn 0.555 -0.666 0.498
vn -0.595 -0.470 -0.652
vn 0.578 -0.489 -0.654
vn -0.562 0.462 0.686
vn 0.572 0.447 0.688
vn -0.572 0.674 -0.467
vn 0.591 0.659 -0.466

# Facets
f 1//1 3//1 2//1
f 4//2 2//2 3//2
f 5//3 3//3 1//3
f 5//4 4//4 3//4
f 1//5 2//5 6//5
f 6//6 2//6 4//6
f 5//7 1//7 6//7
f 6//8 4//8 5//8
f 7//9 9//9 8//9
f 10//10 8//10 9//10
f 11//11 9//11 7//11
f 11//12 10//12 9//12
f 7//13 8//13 12//13
f 12//14 8//14 10//14
f 11//15 7//15 12//15
f 12//16 10//16 11//16
f 13//17 15//17 14//17
f 16//18 14//18 15//18
f 17//19 15//19 13//19
f 17//20 16//20 15//20
f 13//21 14//21 18//21
f 18//22 14//22 16//22
f 17//23 13//23 18//23
f 18//24 16//24 17//24

# Thankyou for using Spin3D

