# Created using Spin3D

# Vertex Array
v 13.495 -42.466 22.574
v 13.829 -42.532 22.521
v 14.920 -42.696 22.080
v 15.455 -42.798 21.941
v 15.640 -42.826 21.854
v 15.950 -42.887 21.775
v 14.520 -42.636 22.221
v 15.461 -42.803 21.938
v 4.432 -41.830 28.655
v 4.474 -41.848 28.721
v 4.943 -41.830 28.236
v 4.906 -41.834 28.287
v 4.635 -41.752 28.077
v 4.468 -41.792 28.418
v 4.931 -41.775 27.951
v 6.227 -41.808 26.966
v 6.007 -41.830 27.277
v 5.124 -41.708 27.440
v 6.342 -41.711 26.375
v 5.885 -41.635 26.445
v 7.522 -41.868 26.035
v 8.617 -41.913 25.127
v 9.412 -42.007 24.787
v 6.746 -41.607 25.536
v 6.720 -41.590 25.480
v 8.163 -41.758 24.852
v 11.890 -42.280 23.446
v 11.103 -42.132 23.577
v 14.528 -42.655 22.320
v 14.943 -42.720 22.153
v 15.651 -42.838 21.896
v 7.560 -41.630 24.867
v 9.206 -41.840 24.189
v 11.910 -42.237 23.205
v 13.855 -42.545 22.535
v 4.584 -41.818 28.464
v 5.044 -41.735 27.638
v 5.642 -41.794 27.404
v 6.667 -41.704 26.028
v 7.838 -41.876 25.718
v 7.704 -41.673 24.912
v 9.045 -41.885 24.545
v 11.172 -42.187 23.759
v 13.528 -42.505 22.722
v 50.357 -16.399 -19.709
v 50.356 -16.338 -19.688
v 50.443 -16.541 -19.652
v 50.400 -16.351 -19.668
v -35.786 -17.541 -24.074
v -35.788 -17.541 -24.073
v -35.788 -17.539 -24.073
v -35.790 -17.542 -24.074
v 50.379 -16.382 -19.701
v -35.787 -17.539 -24.075
v -35.786 -17.542 -24.075
v -35.790 -17.541 -24.075
v -35.788 -17.541 -24.076
v 49.974 -15.568 -19.918
v 50.127 -15.781 -19.805
v 50.178 -16.025 -19.806
v 50.312 -16.114 -19.696
v 50.289 -15.982 -19.723
v -35.787 -17.543 -24.074
v 49.989 -15.631 -19.937
v 49.820 -15.208 -20.027
v 50.171 -15.962 -19.837
v 50.235 -15.932 -19.788
v -35.788 -17.543 -24.076
v 49.903 -15.358 -20.006
v 50.031 -15.535 -19.933
v 48.379 -15.100 -27.623
v 48.380 -15.100 -27.622
v 48.380 -15.101 -27.623
v 48.381 -15.100 -27.623
v 48.380 -15.100 -27.624
v 49.871 -15.226 -19.965
v 49.975 -15.323 -19.885
v 50.153 -15.664 -19.783
v 50.110 -15.528 -19.836
v 49.742 -14.927 -20.064
v 50.021 -15.393 -19.923
v 49.754 -14.976 -20.082
v 49.855 -15.109 -20.031
v 48.380 -15.099 -27.623
v 49.828 -14.995 -19.994
v 49.981 -15.244 -19.893
v 49.757 -14.878 -20.066
v 49.897 -15.088 -19.976
v 26.442 -10.162 8.388
v 26.483 -10.154 8.386
v 26.717 -10.261 8.222
v 26.810 -10.269 8.192
v 27.131 -10.397 7.982
v 27.127 -10.363 8.012
v 26.641 -10.243 8.253
v 27.004 -10.369 8.037
v 26.821 -10.294 8.148
v 27.449 -10.495 7.801
v 27.392 -10.489 7.818
v 27.563 -10.535 7.729
v 27.192 -10.420 7.931
v 27.407 -10.477 7.821
v 26.341 -10.103 8.464
v 26.406 -10.102 8.446
v 26.666 -10.190 8.299
v 26.855 -10.244 8.188
v 26.477 -10.165 8.364
v 26.666 -10.211 8.261
v 27.459 -10.485 7.804
v 27.165 -10.368 7.985
v 27.034 -10.342 8.042
v -24.818 -4.488 13.167
v -24.820 -4.491 13.166
v -24.818 -4.489 13.166
v -24.820 -4.493 13.165
v -24.818 -4.492 13.167
v -24.822 -4.497 13.165
v -24.819 -4.492 13.167
v -24.821 -4.494 13.167
v 26.450 -10.122 8.408
v 26.569 -10.143 8.359
v 26.767 -10.222 8.225
v -24.821 -4.492 13.167
v -24.823 -4.493 13.166
v -24.823 -4.496 13.165
v -24.826 -4.497 13.166
v -24.824 -4.495 13.166
v -24.827 -4.497 13.165
v 4.725 24.601 44.454
v 4.713 24.584 44.464
v 4.701 24.569 44.483
v 4.710 24.587 44.467
v 4.720 24.599 44.459
v 4.740 24.621 44.432
v 4.740 24.625 44.424
v 4.735 24.626 44.426
v 4.753 24.657 44.408
v 4.771 24.687 44.377
v 4.761 24.663 44.407
v 4.771 24.671 44.396
v 4.793 24.719 44.359
v 4.794 24.724 44.352
v 4.799 24.723 44.357
v 4.812 24.745 44.335
v 4.773 24.677 44.384
v 4.764 24.670 44.386
v 4.803 24.727 44.348
v 4.796 24.722 44.349

# Normal Array
vn -0.217 -0.960 -0.179
vn -0.224 -0.961 -0.160
vn -0.243 -0.936 -0.253
vn -0.233 -0.955 -0.182
vn 0.355 0.495 0.793
vn 0.315 0.764 0.563
vn 0.243 0.936 0.256
vn 0.252 0.927 0.277
vn -0.142 -0.975 -0.173
vn -0.152 -0.971 -0.182
vn -0.156 -0.970 -0.188
vn -0.145 -0.973 -0.178
vn -0.147 -0.973 -0.179
vn -0.160 -0.971 -0.178
vn -0.184 -0.961 -0.205
vn -0.167 -0.968 -0.185
vn -0.156 -0.970 -0.188
vn -0.191 -0.958 -0.216
vn -0.172 -0.966 -0.194
vn -0.170 -0.967 -0.192
vn -0.188 -0.962 -0.200
vn -0.074 -0.996 -0.039
vn -0.193 -0.962 -0.195
vn -0.193 -0.964 -0.184
vn -0.191 -0.959 -0.211
vn -0.181 -0.963 -0.202
vn -0.200 -0.957 -0.210
vn -0.207 -0.954 -0.218
vn -0.147 -0.987 -0.071
vn -0.214 -0.954 -0.208
vn -0.208 -0.958 -0.198
vn -0.220 -0.953 -0.208
vn -0.211 -0.961 -0.180
vn -0.235 -0.943 -0.235
vn 0.250 0.933 0.260
vn -0.254 -0.928 -0.273
vn -0.222 -0.957 -0.185
vn -0.247 -0.941 -0.230
vn -0.190 -0.962 -0.197
vn -0.207 -0.953 -0.219
vn -0.208 -0.956 -0.207
vn -0.219 -0.949 -0.226
vn -0.201 -0.966 -0.164
vn -0.221 -0.952 -0.210
vn 0.270 0.895 0.354
vn 0.212 0.962 0.173
vn 0.209 0.969 0.131
vn 0.162 0.987 0.012
vn 0.238 0.943 0.233
vn 0.207 0.971 0.119
vn 0.142 0.975 0.173
vn 0.142 0.975 0.172
vn 0.164 0.968 0.192
vn 0.150 0.972 0.179
vn 0.149 0.972 0.181
vn 0.171 0.966 0.193
vn 0.156 0.972 0.174
vn 0.132 0.979 0.154
vn 0.175 0.963 0.203
vn 0.172 0.964 0.201
vn 0.203 0.954 0.222
vn 0.170 0.967 0.189
vn 0.015 1.000 -0.012
vn 0.145 0.979 0.141
vn 0.196 0.958 0.208
vn 0.160 0.978 0.133
vn 0.207 0.954 0.219
vn 0.201 0.955 0.219
vn 0.191 0.963 0.190
vn 0.212 0.951 0.224
vn 0.206 0.961 0.185
vn -0.504 -0.293 -0.812
vn 0.214 0.953 0.213
vn 0.253 0.925 0.283
vn -0.275 0.545 -0.792
vn -0.376 -0.027 -0.926
vn 0.212 0.950 0.229
vn 0.214 0.951 0.223
vn 0.210 0.954 0.214
vn 0.219 0.951 0.218
vn 0.204 0.962 0.183
vn 0.223 0.952 0.209
vn 0.176 0.980 0.098
vn 0.213 0.963 0.167
vn -0.765 -0.222 0.604
vn -0.416 -0.020 0.909
vn 0.130 0.076 0.989
vn -0.254 -0.002 0.967
vn 0.428 -0.099 -0.898
vn 0.779 0.127 -0.614
vn 0.505 0.751 0.425
vn 0.820 0.543 -0.181
vn -0.808 0.463 0.364
vn -0.517 0.845 -0.133
vn 0.262 0.315 -0.912
vn -0.191 0.423 -0.886
vn -0.718 -0.152 0.680
vn -0.775 -0.219 0.593
vn -0.716 -0.152 0.681
vn -0.622 -0.093 0.777
vn -0.423 -0.049 0.905
vn 0.386 0.247 0.889
vn 0.218 -0.312 0.925
vn -0.176 -0.391 0.903
vn -0.886 -0.309 0.347
vn -0.908 -0.299 0.295
vn 0.420 -0.086 -0.904
vn -0.483 -0.429 -0.763
vn -0.359 -0.444 -0.821
vn 0.599 0.037 -0.800
vn 0.777 0.130 -0.615
vn 0.816 0.163 -0.554
vn 0.516 -0.779 -0.356
vn 0.789 -0.582 0.194
vn -0.818 -0.452 -0.355
vn -0.529 -0.833 0.161
vn -0.399 -0.340 -0.851
vn 0.201 -0.179 -0.963
vn 0.424 -0.063 -0.903
vn 0.605 0.020 -0.796
vn 0.163 -0.131 -0.978
vn -0.308 -0.034 -0.951
vn -0.583 -0.661 0.472
vn 0.582 -0.662 0.473
vn -0.564 -0.447 -0.695
vn 0.562 -0.447 -0.695
vn -0.655 -0.085 0.751
vn -0.686 -0.109 0.719
vn -0.550 -0.034 0.834
vn -0.548 -0.035 0.836
vn 0.045 0.205 0.978
vn 0.787 0.423 0.449
vn -0.785 -0.155 0.600
vn -0.785 -0.140 0.604
vn 0.821 0.190 -0.538
vn 0.820 0.189 -0.540
vn -0.963 -0.261 0.067
vn -0.327 -0.307 -0.894
vn 0.498 0.005 -0.867
vn 0.435 -0.010 -0.900
vn 0.695 0.097 -0.712
vn 0.655 0.097 -0.749
vn -0.569 0.501 0.652
vn 0.568 0.502 0.652
vn -0.551 0.686 -0.475
vn 0.550 0.687 -0.475
vn -0.617 -0.014 0.787
vn -0.315 0.118 0.942
vn -0.406 0.120 0.906
vn 0.727 0.436 0.531
vn -0.513 0.201 0.835
vn -0.635 -0.019 0.772
vn 0.672 0.592 0.445
vn 0.752 0.611 0.247
vn 0.851 0.267 -0.451
vn 0.905 0.368 -0.213
vn -0.602 0.139 -0.786
vn 0.556 0.111 -0.824
vn 0.735 0.215 -0.643
vn 0.744 0.191 -0.640
vn 0.160 -0.707 0.689
vn 0.154 -0.722 0.674
vn 0.161 -0.706 0.690
vn 0.237 -0.626 0.743
vn 0.027 -0.836 0.548
vn -0.457 0.176 -0.872
vn 0.006 -0.860 0.510
vn 0.076 -0.806 0.587
vn 0.231 -0.627 0.744
vn 0.107 -0.784 0.612
vn 0.059 -0.827 0.560
vn 0.105 -0.790 0.605
vn -0.424 0.255 -0.869
vn -0.507 -0.070 -0.859
vn -0.289 0.495 -0.819
vn -0.292 0.498 -0.816
vn 0.213 -0.589 0.779
vn 0.154 -0.671 0.725
vn 0.257 -0.575 0.776
vn 0.284 -0.516 0.808
vn 0.295 -0.532 0.794
vn 0.391 -0.361 0.846
vn -0.544 0.134 -0.828
vn -0.557 0.010 -0.830
vn -0.371 0.406 -0.835
vn -0.318 0.500 -0.805
vn 0.312 -0.515 0.798
vn 0.572 0.202 0.795
vn 0.572 0.098 0.814
vn 0.319 -0.519 0.793
vn -0.266 0.565 -0.781
vn -0.262 0.572 -0.777
vn -0.087 0.769 -0.634
vn -0.150 0.710 -0.688
vn -0.225 0.615 -0.756
vn -0.089 0.765 -0.638
vn -0.498 0.678 -0.540
vn 0.479 -0.068 -0.875
vn -0.199 0.365 -0.910
vn 0.528 -0.370 -0.765
vn 0.950 -0.273 0.149
vn 0.371 0.045 0.928
vn 0.255 -0.190 0.948
vn 0.464 -0.632 0.621
vn -0.165 0.786 -0.595
vn 0.401 -0.278 0.873
vn -0.060 0.858 -0.511
vn 0.473 -0.128 0.872
vn -0.280 0.594 -0.754
vn -0.264 0.603 -0.753
vn -0.161 0.721 -0.674
vn -0.134 0.753 -0.645
vn -0.017 0.841 -0.541
vn 0.003 0.863 -0.505
vn -0.175 0.688 -0.704
vn -0.145 0.719 -0.679
vn -0.649 0.685 -0.331
vn -0.626 0.768 -0.135
vn -0.012 0.123 -0.992
vn -0.513 0.407 -0.756
vn -0.078 -0.045 -0.996
vn -0.209 -0.121 -0.970
vn -0.012 -0.153 0.988
vn -0.734 0.609 0.299
vn -0.009 -0.117 0.993
vn -0.273 0.366 0.890
vn 0.187 -0.601 0.777
vn -0.227 0.084 0.970
vn 0.024 0.125 -0.992
vn 0.224 -0.904 -0.364
vn -0.603 0.603 0.522
vn -0.561 0.400 0.725
vn 0.829 -0.553 0.081
vn -0.757 -0.182 -0.627
vn 0.600 0.229 0.766
vn -0.330 0.700 0.633
vn 0.592 -0.728 -0.346
vn 0.814 -0.580 0.016
vn -0.887 0.449 -0.108
vn -0.756 -0.176 -0.631
vn -0.487 -0.429 -0.761
vn -0.889 0.443 -0.118
vn 0.594 0.245 0.766
vn 0.710 0.121 0.693
vn 0.895 -0.323 0.307
vn -0.423 0.722 0.547
vn -0.371 0.723 0.582
vn -0.361 0.710 0.605
vn -0.875 0.478 -0.077
vn -0.603 0.696 0.388
vn 0.709 0.123 0.694
vn -0.193 0.693 0.694
vn -0.234 0.741 0.630
vn -0.458 0.757 0.467
vn 0.677 -0.664 -0.317
vn -0.488 -0.392 -0.780
vn 0.435 -0.701 -0.566
vn -0.845 0.077 -0.529
vn 0.768 -0.609 -0.199
vn 0.760 -0.616 -0.204
vn 0.416 -0.687 -0.596
vn 0.450 -0.686 -0.572
vn -0.797 0.090 -0.597
vn -0.626 -0.159 -0.763
vn 0.911 -0.369 0.183
vn 0.931 -0.278 0.236
vn 0.422 -0.655 -0.627
vn -0.768 0.145 -0.623

# Facets
f 1//1 3//1 2//1
f 4//2 3//2 5//2
f 4//3 2//3 3//3
f 6//4 4//4 5//4
f 7//5 3//5 1//5
f 7//6 5//6 3//6
f 7//7 8//7 5//7
f 8//8 6//8 5//8
f 9//9 11//9 10//9
f 12//10 10//10 11//10
f 13//11 15//11 14//11
f 15//12 9//12 14//12
f 11//13 9//13 15//13
f 16//14 11//14 15//14
f 11//15 17//15 12//15
f 11//16 16//16 17//16
f 18//17 15//17 13//17
f 19//18 18//18 20//18
f 15//19 18//19 19//19
f 16//20 15//20 19//20
f 16//21 21//21 17//21
f 22//22 21//22 16//22
f 19//23 22//23 16//23
f 23//24 21//24 22//24
f 20//25 24//25 19//25
f 20//26 25//26 24//26
f 26//27 22//27 19//27
f 24//28 26//28 19//28
f 22//29 27//29 23//29
f 28//30 27//30 22//30
f 26//31 28//31 22//31
f 2//32 28//32 1//32
f 27//33 28//33 2//33
f 29//34 27//34 2//34
f 29//35 31//35 30//35
f 4//36 31//36 29//36
f 2//37 4//37 29//37
f 31//38 4//38 6//38
f 32//39 24//39 25//39
f 32//40 26//40 24//40
f 32//41 33//41 26//41
f 33//42 28//42 26//42
f 33//43 34//43 28//43
f 34//44 1//44 28//44
f 7//45 1//45 34//45
f 35//46 7//46 34//46
f 8//47 30//47 31//47
f 35//48 30//48 8//48
f 7//49 35//49 8//49
f 31//50 6//50 8//50
f 9//51 10//51 36//51
f 36//52 10//52 12//52
f 13//53 14//53 37//53
f 36//54 14//54 9//54
f 37//55 14//55 36//55
f 38//56 37//56 36//56
f 38//57 12//57 17//57
f 38//58 36//58 12//58
f 18//59 13//59 37//59
f 37//60 20//60 18//60
f 39//61 20//61 37//61
f 38//62 39//62 37//62
f 40//63 17//63 21//63
f 38//64 17//64 40//64
f 39//65 38//65 40//65
f 40//66 21//66 23//66
f 25//67 39//67 41//67
f 25//68 20//68 39//68
f 39//69 40//69 42//69
f 39//70 42//70 41//70
f 43//71 23//71 27//71
f 40//72 23//72 43//72
f 42//73 40//73 43//73
f 44//74 27//74 29//74
f 44//75 43//75 27//75
f 44//76 29//76 30//76
f 32//77 25//77 41//77
f 41//78 33//78 32//78
f 41//79 42//79 33//79
f 42//80 34//80 33//80
f 42//81 43//81 34//81
f 43//82 35//82 34//82
f 43//83 44//83 35//83
f 44//84 30//84 35//84
f 45//85 47//85 46//85
f 48//86 46//86 47//86
f 49//87 51//87 50//87
f 52//88 50//88 51//88
f 53//89 47//89 45//89
f 53//90 48//90 47//90
f 49//91 54//91 51//91
f 49//92 55//92 54//92
f 51//93 56//93 52//93
f 51//94 54//94 56//94
f 57//95 54//95 55//95
f 57//96 56//96 54//96
f 58//97 60//97 59//97
f 46//98 60//98 45//98
f 59//99 60//99 46//99
f 61//100 59//100 46//100
f 48//101 61//101 46//101
f 48//102 62//102 61//102
f 49//103 50//103 63//103
f 63//104 50//104 52//104
f 58//105 64//105 60//105
f 58//106 65//106 64//106
f 53//107 45//107 66//107
f 66//108 45//108 60//108
f 66//109 60//109 64//109
f 67//110 53//110 66//110
f 48//111 53//111 67//111
f 62//112 48//112 67//112
f 55//113 63//113 68//113
f 55//114 49//114 63//114
f 68//115 52//115 56//115
f 68//116 63//116 52//116
f 69//117 64//117 65//117
f 69//118 66//118 64//118
f 69//119 70//119 66//119
f 70//120 67//120 66//120
f 57//121 55//121 68//121
f 68//122 56//122 57//122
f 71//123 73//123 72//123
f 74//124 72//124 73//124
f 75//125 73//125 71//125
f 75//126 74//126 73//126
f 76//127 59//127 77//127
f 76//128 58//128 59//128
f 59//129 61//129 78//129
f 77//130 59//130 78//130
f 62//131 78//131 61//131
f 62//132 79//132 78//132
f 65//133 58//133 76//133
f 65//134 76//134 80//134
f 79//135 62//135 67//135
f 81//136 79//136 67//136
f 82//137 65//137 80//137
f 82//138 69//138 65//138
f 83//139 70//139 69//139
f 83//140 69//140 82//140
f 70//141 81//141 67//141
f 70//142 83//142 81//142
f 71//143 72//143 84//143
f 84//144 72//144 74//144
f 75//145 71//145 84//145
f 84//146 74//146 75//146
f 76//147 77//147 85//147
f 86//148 77//148 78//148
f 86//149 85//149 77//149
f 86//150 78//150 79//150
f 80//151 85//151 87//151
f 80//152 76//152 85//152
f 85//153 86//153 88//153
f 85//154 88//154 87//154
f 88//155 79//155 81//155
f 88//156 86//156 79//156
f 82//157 80//157 87//157
f 87//158 83//158 82//158
f 87//159 88//159 83//159
f 88//160 81//160 83//160
f 89//161 91//161 90//161
f 92//162 91//162 93//162
f 92//163 90//163 91//163
f 94//164 92//164 93//164
f 95//165 91//165 89//165
f 96//166 95//166 97//166
f 91//167 95//167 96//167
f 93//168 91//168 96//168
f 93//169 98//169 94//169
f 99//170 98//170 93//170
f 96//171 99//171 93//171
f 100//172 98//172 99//172
f 101//173 96//173 97//173
f 101//174 99//174 96//174
f 101//175 102//175 99//175
f 102//176 100//176 99//176
f 103//177 90//177 104//177
f 103//178 89//178 90//178
f 90//179 92//179 105//179
f 104//180 90//180 105//180
f 94//181 105//181 92//181
f 94//182 106//182 105//182
f 107//183 89//183 103//183
f 107//184 95//184 89//184
f 95//185 107//185 97//185
f 107//186 108//186 97//186
f 98//187 109//187 94//187
f 94//188 109//188 110//188
f 94//189 110//189 106//189
f 109//190 98//190 100//190
f 111//191 97//191 108//191
f 111//192 101//192 97//192
f 102//193 110//193 109//193
f 111//194 110//194 102//194
f 101//195 111//195 102//195
f 109//196 100//196 102//196
f 112//197 114//197 113//197
f 115//198 114//198 116//198
f 115//199 113//199 114//199
f 117//200 115//200 116//200
f 118//201 114//201 112//201
f 118//202 116//202 114//202
f 118//203 119//203 116//203
f 119//204 117//204 116//204
f 103//205 104//205 120//205
f 121//206 104//206 105//206
f 121//207 120//207 104//207
f 121//208 105//208 106//208
f 107//209 103//209 120//209
f 120//210 108//210 107//210
f 122//211 108//211 120//211
f 121//212 122//212 120//212
f 122//213 106//213 110//213
f 122//214 121//214 106//214
f 111//215 108//215 122//215
f 122//216 110//216 111//216
f 112//217 113//217 123//217
f 113//218 124//218 123//218
f 125//219 124//219 113//219
f 115//220 125//220 113//220
f 117//221 125//221 115//221
f 117//222 126//222 125//222
f 118//223 112//223 123//223
f 127//224 123//224 124//224
f 118//225 123//225 127//225
f 119//226 118//226 127//226
f 119//227 126//227 117//227
f 119//228 127//228 126//228
f 124//229 125//229 128//229
f 128//230 125//230 126//230
f 127//231 124//231 128//231
f 128//232 126//232 127//232
f 129//233 131//233 130//233
f 132//234 130//234 131//234
f 133//235 131//235 129//235
f 133//236 132//236 131//236
f 134//237 130//237 135//237
f 134//238 129//238 130//238
f 136//239 132//239 137//239
f 130//240 132//240 136//240
f 135//241 130//241 136//241
f 138//242 136//242 137//242
f 129//243 139//243 133//243
f 140//244 139//244 129//244
f 134//245 140//245 129//245
f 132//246 133//246 137//246
f 137//247 133//247 139//247
f 137//248 139//248 141//248
f 137//249 142//249 138//249
f 137//250 141//250 142//250
f 143//251 139//251 140//251
f 143//252 141//252 139//252
f 143//253 144//253 141//253
f 144//254 142//254 141//254
f 134//255 135//255 145//255
f 146//256 135//256 136//256
f 146//257 145//257 135//257
f 146//258 136//258 138//258
f 140//259 145//259 147//259
f 140//260 134//260 145//260
f 145//261 146//261 148//261
f 145//262 148//262 147//262
f 148//263 138//263 142//263
f 148//264 146//264 138//264
f 143//265 140//265 147//265
f 147//266 144//266 143//266
f 147//267 148//267 144//267
f 148//268 142//268 144//268

# Thankyou for using Spin3D

