# Created using Spin3D

# Vertex Array
v 23.781 -43.805 0.915
v 23.782 -43.806 0.916
v 23.782 -43.806 0.915
v 23.783 -43.805 0.915
v 23.782 -43.805 0.914
v 5.632 -43.489 28.234
v 5.631 -43.489 28.231
v 5.630 -43.490 28.233
v 5.628 -43.489 28.233
v 5.630 -43.489 28.235
v 23.782 -43.804 0.915
v 5.632 -43.488 28.233
v 5.630 -43.487 28.231
v 5.628 -43.488 28.234
v 5.631 -43.488 28.235
v 5.630 -43.487 28.233
v -12.503 -40.697 59.004
v -12.502 -40.697 59.005
v -12.502 -40.698 59.004
v -12.501 -40.697 59.004
v -12.502 -40.696 59.003
v -12.502 -40.695 59.004
v -8.198 -31.150 67.435
v -8.202 -31.146 67.432
v -8.153 -31.196 67.372
v -8.152 -31.202 67.364
v -8.125 -31.228 67.336
v -8.141 -31.217 67.348
v -8.151 -31.203 67.372
v -8.135 -31.221 67.347
v -8.255 -31.093 67.501
v -8.281 -31.069 67.527
v -8.254 -31.095 67.495
v -8.262 -31.091 67.503
v -8.238 -31.112 67.486
v -8.200 -31.156 67.424
v -8.168 -31.193 67.384
v -8.198 -31.155 67.435
v -8.178 -31.181 67.404
v -8.265 -31.087 67.513
v -8.228 -31.127 67.472
v -8.224 -31.135 67.457
v -6.879 16.665 6.092
v -6.883 16.666 6.089
v -6.883 16.664 6.091
v -6.886 16.666 6.088
v -6.888 16.664 6.090
v -6.888 16.666 6.090
v -6.878 16.663 6.095
v -6.879 16.664 6.096
v -6.883 16.663 6.094
v -6.887 16.665 6.093
v -6.880 16.665 6.097
v -6.884 16.664 6.097
v -6.881 16.667 6.093
v -6.885 16.667 6.088
v -6.881 16.666 6.098
v -6.885 16.667 6.093

# Normal Array
vn -0.594 -0.670 0.445
vn 0.558 -0.691 0.459
vn -0.572 -0.458 -0.681
vn 0.575 -0.514 -0.636
vn 0.285 -0.901 -0.328
vn -0.201 -0.875 -0.441
vn 0.159 -0.978 0.135
vn -0.298 -0.954 0.029
vn -0.593 0.488 0.641
vn 0.588 0.432 0.684
vn -0.576 0.656 -0.488
vn 0.613 0.634 -0.472
vn 0.526 0.378 -0.762
vn 0.806 -0.238 -0.543
vn -0.511 -0.169 -0.843
vn -0.810 0.369 -0.455
vn 0.812 0.210 0.544
vn 0.482 -0.418 0.770
vn -0.810 -0.355 0.467
vn -0.518 0.137 0.844
vn 0.177 0.980 -0.088
vn -0.245 0.970 0.006
vn 0.260 0.924 0.282
vn -0.157 0.915 0.371
vn -0.581 -0.662 0.473
vn 0.581 -0.662 0.473
vn -0.583 -0.472 -0.662
vn 0.583 -0.472 -0.661
vn -0.568 0.501 0.653
vn 0.568 0.501 0.652
vn -0.564 0.695 -0.447
vn 0.564 0.694 -0.447
vn 0.694 0.719 -0.026
vn 0.077 0.778 -0.623
vn 0.023 0.780 -0.625
vn -0.072 0.707 -0.704
vn 0.863 0.272 0.426
vn 0.865 0.272 0.422
vn 0.410 -0.590 0.696
vn -0.547 -0.837 0.018
vn 0.638 0.765 -0.085
vn -0.608 0.291 -0.739
vn 0.654 0.753 -0.080
vn 0.694 0.720 -0.024
vn 0.808 0.545 0.224
vn -0.579 0.347 -0.737
vn -0.293 0.603 -0.742
vn -0.342 0.588 -0.733
vn -0.624 0.290 -0.726
vn -0.836 -0.166 -0.523
vn 0.822 0.108 0.559
vn 0.834 0.109 0.541
vn 0.178 -0.735 0.654
vn 0.399 -0.562 0.725
vn -0.523 -0.837 0.162
vn -0.302 -0.872 0.387
vn 0.810 0.338 0.478
vn -0.744 -0.668 0.032
vn 0.284 -0.555 0.782
vn 0.809 0.354 0.470
vn -0.850 -0.229 -0.475
vn -0.743 -0.668 0.032
vn -0.506 -0.802 0.317
vn -0.849 -0.225 -0.477
vn 0.646 -0.248 0.722
vn 0.237 -0.666 0.708
vn -0.423 -0.834 0.355
vn -0.547 -0.807 0.222
vn 0.421 -0.756 -0.501
vn 0.081 -0.713 -0.696
vn -0.030 -0.786 -0.617
vn -0.631 -0.181 -0.755
vn 0.431 -0.637 -0.639
vn 0.970 0.239 -0.032
vn 0.017 -0.989 -0.144
vn -0.044 -0.988 -0.149
vn -0.965 0.242 0.103
vn -0.451 -0.782 0.430
vn 0.607 -0.448 0.656
vn -0.101 -0.896 0.432
vn 0.011 -0.944 0.330
vn -0.443 -0.867 0.229
vn 0.372 0.888 -0.270
vn 0.081 -0.080 -0.994
vn 0.549 0.781 -0.299
vn -0.707 0.428 -0.562
vn 0.578 0.815 0.041
vn 0.475 0.863 0.173
vn 0.040 0.983 0.179
vn 0.037 0.992 0.118
vn -0.461 0.883 0.091
vn -0.569 0.796 0.206
vn 0.714 0.198 0.672
vn -0.090 -0.407 0.909
vn -0.529 0.649 0.546
vn -0.354 0.753 0.555

# Facets
f 1//1 3//1 2//1
f 4//2 2//2 3//2
f 5//3 3//3 1//3
f 5//4 4//4 3//4
f 6//5 8//5 7//5
f 9//6 7//6 8//6
f 10//7 8//7 6//7
f 10//8 9//8 8//8
f 1//9 2//9 11//9
f 11//10 2//10 4//10
f 5//11 1//11 11//11
f 11//12 4//12 5//12
f 12//13 7//13 13//13
f 12//14 6//14 7//14
f 9//15 13//15 7//15
f 9//16 14//16 13//16
f 15//17 6//17 12//17
f 15//18 10//18 6//18
f 10//19 14//19 9//19
f 10//20 15//20 14//20
f 12//21 13//21 16//21
f 16//22 13//22 14//22
f 15//23 12//23 16//23
f 16//24 14//24 15//24
f 17//25 19//25 18//25
f 20//26 18//26 19//26
f 21//27 19//27 17//27
f 21//28 20//28 19//28
f 17//29 18//29 22//29
f 22//30 18//30 20//30
f 21//31 17//31 22//31
f 22//32 20//32 21//32
f 23//33 25//33 24//33
f 26//34 25//34 27//34
f 26//35 24//35 25//35
f 28//36 26//36 27//36
f 29//37 25//37 23//37
f 29//38 27//38 25//38
f 29//39 30//39 27//39
f 30//40 28//40 27//40
f 31//41 33//41 32//41
f 34//42 32//42 33//42
f 31//43 24//43 33//43
f 23//44 24//44 31//44
f 35//45 23//45 31//45
f 34//46 33//46 36//46
f 36//47 33//47 24//47
f 36//48 24//48 26//48
f 28//49 36//49 26//49
f 28//50 37//50 36//50
f 38//51 23//51 35//51
f 38//52 29//52 23//52
f 39//53 30//53 29//53
f 39//54 29//54 38//54
f 30//55 37//55 28//55
f 30//56 39//56 37//56
f 31//57 32//57 40//57
f 40//58 32//58 34//58
f 35//59 40//59 41//59
f 35//60 31//60 40//60
f 42//61 34//61 36//61
f 40//62 34//62 42//62
f 41//63 40//63 42//63
f 42//64 36//64 37//64
f 38//65 35//65 41//65
f 41//66 39//66 38//66
f 41//67 42//67 39//67
f 42//68 37//68 39//68
f 43//69 45//69 44//69
f 46//70 45//70 47//70
f 46//71 44//71 45//71
f 48//72 46//72 47//72
f 43//73 49//73 45//73
f 43//74 50//74 49//74
f 51//75 47//75 45//75
f 49//76 51//76 45//76
f 47//77 52//77 48//77
f 47//78 51//78 52//78
f 53//79 49//79 50//79
f 53//80 51//80 49//80
f 53//81 54//81 51//81
f 54//82 52//82 51//82
f 43//83 44//83 55//83
f 56//84 44//84 46//84
f 56//85 55//85 44//85
f 56//86 46//86 48//86
f 50//87 55//87 57//87
f 50//88 43//88 55//88
f 55//89 56//89 58//89
f 55//90 58//90 57//90
f 58//91 48//91 52//91
f 58//92 56//92 48//92
f 53//93 50//93 57//93
f 57//94 54//94 53//94
f 57//95 58//95 54//95
f 58//96 52//96 54//96

# Thankyou for using Spin3D

