# Created using Spin3D

# Vertex Array
v 6.745 -40.986 28.691
v 6.744 -40.984 28.691
v 6.741 -40.982 28.692
v 6.741 -40.981 28.692
v 6.741 -40.979 28.693
v 6.741 -40.978 28.692
v 6.743 -40.983 28.693
v 6.742 -40.980 28.693
v 6.748 -40.986 28.691
v 6.747 -40.985 28.691
v 6.746 -40.983 28.692
v 6.744 -40.981 28.692
v 6.745 -40.986 28.692
v 6.749 -40.986 28.692
v -20.641 -9.112 -21.052
v -20.640 -9.113 -21.051
v -20.640 -9.114 -21.052
v -20.638 -9.112 -21.052
v -20.640 -9.112 -21.053
v -20.640 -9.111 -21.052
v -6.158 8.741 33.891
v -6.165 8.706 33.956
v -6.206 8.810 33.942
v -6.227 8.897 33.868
v -6.261 9.047 33.770
v -6.284 8.906 34.037
v -6.384 9.063 34.129
v -6.423 9.160 34.122
v -6.379 9.143 33.989
v -6.390 9.204 33.960
v -6.575 9.545 34.052
v -6.579 9.653 33.913
v -6.319 9.143 33.795
v -6.455 9.512 33.707
v -6.334 9.353 33.538
v -6.411 9.544 33.501
v -6.309 9.240 33.619
v -6.344 9.427 33.457
v -6.477 9.276 34.119
v -6.680 9.832 33.972
v -6.685 9.863 33.946
v -6.563 9.548 33.993
v -6.457 9.467 33.758
v -6.633 9.834 33.815
v -6.550 9.731 33.679
v -6.407 9.513 33.528
v -6.689 9.926 33.858
v -6.630 9.789 33.855

# Normal Array
vn -0.449 -0.358 -0.819
vn -0.284 0.384 -0.879
vn -0.197 0.179 -0.964
vn -0.956 -0.173 -0.239
vn -0.524 -0.560 0.641
vn -0.474 -0.347 0.810
vn 0.178 0.010 0.984
vn 0.499 0.428 0.753
vn 0.205 0.371 -0.905
vn -0.196 -0.286 -0.938
vn 0.751 0.658 -0.060
vn 0.021 0.231 -0.973
vn 0.254 0.591 -0.766
vn 0.025 0.182 -0.983
vn 0.204 -0.441 0.874
vn 0.026 -0.363 0.931
vn 0.651 0.643 0.404
vn 0.067 -0.170 0.983
vn 0.479 0.092 0.873
vn 0.665 0.506 0.548
vn 0.569 0.599 -0.564
vn 0.618 0.730 -0.294
vn -0.225 -0.972 0.061
vn -0.013 -0.164 0.986
vn -0.569 -0.657 0.495
vn 0.557 -0.663 0.500
vn -0.586 -0.481 -0.653
vn 0.577 -0.484 -0.658
vn -0.553 0.462 0.693
vn 0.561 0.459 0.689
vn -0.566 0.678 -0.469
vn 0.577 0.671 -0.465
vn 0.873 0.383 0.302
vn -0.846 -0.425 -0.322
vn 0.873 0.404 0.275
vn -0.829 -0.424 -0.364
vn 0.871 0.375 0.316
vn -0.874 -0.408 -0.264
vn 0.872 0.397 0.286
vn 0.872 0.396 0.287
vn 0.876 0.388 0.286
vn 0.865 0.391 0.313
vn 0.866 0.383 0.321
vn -0.872 -0.409 -0.267
vn -0.873 -0.408 -0.268
vn -0.873 -0.405 -0.272
vn 0.880 0.397 0.259
vn 0.880 0.403 0.251
vn 0.880 0.401 0.254
vn 0.877 0.401 0.265
vn 0.877 0.399 0.267
vn 0.921 -0.070 -0.383
vn 0.979 0.108 -0.172
vn -0.872 -0.406 -0.275
vn 0.879 0.404 0.253
vn 0.920 0.342 0.192
vn 0.649 0.314 0.693
vn -0.881 -0.396 -0.258
vn 0.849 0.404 0.340
vn 0.874 0.394 0.285
vn 0.844 0.398 0.359
vn -0.902 -0.380 -0.203
vn -0.901 -0.385 -0.203
vn -0.881 -0.398 -0.256
vn -0.880 -0.397 -0.262
vn -0.873 -0.404 -0.272
vn 0.880 0.402 0.254
vn 0.879 0.402 0.255
vn -0.880 -0.365 -0.305
vn 0.876 0.412 0.252
vn 0.882 0.412 0.230
vn -0.881 -0.390 -0.269
vn -0.873 -0.406 -0.271
vn -0.873 -0.404 -0.274
vn -0.871 -0.374 -0.318
vn -0.870 -0.407 -0.277
vn -0.961 -0.247 -0.126
vn -0.891 -0.384 -0.243
vn -0.891 -0.382 -0.244
vn -0.881 -0.393 -0.264
vn 0.876 0.413 0.250
vn 0.877 0.432 0.212
vn -0.884 -0.378 -0.276
vn -0.880 -0.390 -0.270

# Facets
f 1//1 3//1 2//1
f 4//2 3//2 5//2
f 4//3 2//3 3//3
f 6//4 4//4 5//4
f 7//5 3//5 1//5
f 7//6 5//6 3//6
f 7//7 8//7 5//7
f 8//8 6//8 5//8
f 9//9 2//9 10//9
f 9//10 1//10 2//10
f 10//11 12//11 11//11
f 4//12 12//12 10//12
f 2//13 4//13 10//13
f 12//14 4//14 6//14
f 13//15 1//15 9//15
f 13//16 7//16 1//16
f 8//17 11//17 12//17
f 13//18 11//18 8//18
f 7//19 13//19 8//19
f 12//20 6//20 8//20
f 9//21 10//21 14//21
f 14//22 10//22 11//22
f 13//23 9//23 14//23
f 14//24 11//24 13//24
f 15//25 17//25 16//25
f 18//26 16//26 17//26
f 19//27 17//27 15//27
f 19//28 18//28 17//28
f 15//29 16//29 20//29
f 20//30 16//30 18//30
f 19//31 15//31 20//31
f 20//32 18//32 19//32
f 21//33 23//33 22//33
f 22//34 24//34 21//34
f 21//35 25//35 23//35
f 24//36 25//36 21//36
f 26//37 28//37 27//37
f 27//38 29//38 26//38
f 30//39 32//39 31//39
f 28//40 30//40 31//40
f 26//41 30//41 28//41
f 26//42 23//42 30//42
f 26//43 22//43 23//43
f 26//44 24//44 22//44
f 26//45 29//45 24//45
f 29//46 33//46 24//46
f 30//47 34//47 32//47
f 35//48 36//48 34//48
f 25//49 35//49 34//49
f 25//50 34//50 30//50
f 25//51 30//51 23//51
f 25//52 37//52 35//52
f 25//53 24//53 37//53
f 24//54 33//54 37//54
f 35//55 38//55 36//55
f 37//56 38//56 35//56
f 27//57 28//57 39//57
f 27//58 39//58 29//58
f 31//59 41//59 40//59
f 32//60 41//60 31//60
f 39//61 28//61 31//61
f 39//62 31//62 42//62
f 42//63 31//63 40//63
f 42//64 29//64 39//64
f 42//65 43//65 29//65
f 43//66 33//66 29//66
f 32//67 44//67 41//67
f 34//68 44//68 32//68
f 36//69 46//69 45//69
f 36//70 45//70 34//70
f 34//71 45//71 44//71
f 46//72 43//72 45//72
f 46//73 37//73 43//73
f 37//74 33//74 43//74
f 36//75 38//75 46//75
f 37//76 46//76 38//76
f 40//77 41//77 47//77
f 40//78 48//78 42//78
f 47//79 48//79 40//79
f 42//80 48//80 43//80
f 41//81 44//81 47//81
f 45//82 47//82 44//82
f 48//83 47//83 45//83
f 43//84 48//84 45//84

# Thankyou for using Spin3D

