# Created using Spin3D

# Vertex Array
v 8.692 -39.063 28.989
v 8.693 -39.063 28.990
v 8.693 -39.064 28.989
v 8.694 -39.063 28.989
v 8.693 -39.063 28.988
v 8.693 -39.062 28.989

# Normal Array
vn -0.580 -0.644 0.500
vn 0.528 -0.675 0.515
vn -0.590 -0.461 -0.663
vn 0.556 -0.491 -0.670
vn -0.556 0.482 0.677
vn 0.581 0.454 0.675
vn -0.565 0.696 -0.443
vn 0.609 0.665 -0.432

# Facets
f 1//1 3//1 2//1
f 4//2 2//2 3//2
f 5//3 3//3 1//3
f 5//4 4//4 3//4
f 1//5 2//5 6//5
f 6//6 2//6 4//6
f 5//7 1//7 6//7
f 6//8 4//8 5//8

# Thankyou for using Spin3D

