# Created using Spin3D

# Vertex Array
v 20.215 -46.926 20.156
v 20.448 -46.938 20.197
v 20.442 -46.935 20.199
v 20.776 -46.952 20.260
v 20.817 -46.952 20.272
v 21.060 -46.965 20.316
v 21.086 -46.965 20.326
v 21.149 -46.971 20.337
v 20.197 -46.924 20.156
v 20.134 -46.925 20.144
v 20.465 -46.937 20.210
v 20.840 -46.954 20.283
v 21.068 -46.966 20.326
v 20.223 -46.928 20.165
v 20.507 -46.942 20.221
v 20.834 -46.958 20.284
v 20.321 -46.934 20.177
v 20.696 -46.952 20.247
v 21.010 -46.965 20.307
v 20.273 -46.933 20.174
v 20.586 -46.948 20.233
v 20.962 -46.964 20.304
v -35.814 -20.254 -26.003
v -35.813 -20.254 -26.002
v -35.813 -20.255 -26.003
v -35.812 -20.254 -26.003
v -35.813 -20.254 -26.004
v -35.813 -20.253 -26.003
v -20.672 -11.588 -24.464
v -20.671 -11.588 -24.462
v -20.671 -11.589 -24.464
v -20.670 -11.588 -24.464
v -20.671 -11.588 -24.465
v -20.671 -11.587 -24.463
v 42.547 -2.159 -22.447
v 42.546 -2.158 -22.449
v 42.545 -2.159 -22.447
v 42.543 -2.158 -22.447
v 42.545 -2.159 -22.445
v 42.547 -2.157 -22.447
v 42.545 -2.157 -22.449
v 42.543 -2.157 -22.446
v 42.546 -2.157 -22.445
v 42.545 -2.156 -22.447
v 13.508 9.714 -28.132
v 13.469 9.645 -27.909
v 13.496 9.494 -28.431
v 13.545 9.575 -28.144
v 13.605 9.625 -28.414
v 1.833 10.007 -20.287
v 2.146 10.061 -19.415
v 2.194 9.724 -19.852
v 2.446 9.800 -19.140
v 2.503 9.816 -19.598
v 2.611 10.104 -19.240
v 1.808 9.984 -21.153
v 1.474 10.420 -21.447
v 2.258 10.053 -20.743
v 2.573 10.475 -20.170
v 1.450 10.404 -22.387
v 1.226 10.986 -22.821
v 1.810 10.552 -22.507
v 2.320 10.955 -21.733
v 13.410 10.447 -25.347
v 13.419 10.722 -24.406
v 13.594 10.437 -25.484
v 13.587 10.821 -24.573
v 1.347 10.908 -23.555
v 1.201 11.583 -23.969
v 1.963 11.456 -23.286
v 1.576 11.156 -23.884
v 13.554 9.956 -26.962
v 13.449 10.120 -26.816
v 13.794 10.558 -25.629
v 13.792 10.209 -26.635
v 13.928 10.484 -26.354
v 1.334 11.444 -24.375
v 13.584 10.153 -27.533
v 13.717 9.836 -27.787
v 13.911 10.219 -27.295
v 13.648 9.876 -28.235
v 13.792 9.971 -28.065
v 1.746 10.807 -20.399
v 2.159 10.720 -19.390
v 2.449 10.331 -19.057
v 2.580 10.929 -19.634
v 1.354 11.212 -21.826
v 2.520 11.750 -21.075
v 13.309 10.843 -24.091
v 13.301 11.017 -23.628
v 13.365 10.945 -23.804
v 13.428 11.020 -23.994
v 1.274 11.901 -22.965
v 2.306 11.934 -22.498
v 13.377 10.679 -25.098
v 13.649 10.964 -24.765
v 1.357 12.383 -23.975
v 1.963 12.492 -23.562
v 1.596 11.837 -24.307
v 13.532 10.567 -26.269
v 13.837 10.773 -25.517
v 13.943 10.597 -26.598
v 1.333 11.967 -24.522
v 13.770 10.251 -27.733
v 13.694 10.521 -27.019
v 13.914 10.345 -27.482
v 13.845 10.622 -26.880
v 2.046 11.620 -20.104
v 2.370 11.123 -19.416
v 1.637 12.110 -21.513
v 2.038 12.564 -20.878
v 2.226 13.003 -21.224
v 2.374 12.082 -20.340
v 13.333 10.969 -24.057
v 1.567 12.824 -22.913
v 2.411 12.779 -21.353
v 2.324 12.757 -22.336
v 13.527 10.917 -24.985
v 1.555 12.432 -24.306
v 1.711 12.975 -23.645
v 2.052 13.211 -23.032
v 13.690 10.779 -26.170
v 13.788 10.862 -25.755
v -6.775 26.086 -75.993
v -6.777 26.086 -75.994
v -6.773 26.087 -75.994
v -6.777 26.083 -75.994
v -6.776 26.085 -75.993
v 1.912 13.103 -21.895
v 1.885 13.346 -22.821
v 2.185 13.300 -22.127
v -6.778 26.087 -75.993
v -6.780 26.083 -75.995
v -6.780 26.081 -75.995
v -6.779 26.082 -75.994
v -6.782 26.078 -75.994
v -6.779 26.084 -75.993
v -6.781 26.082 -75.994
v -6.782 26.082 -75.994
v -6.782 26.079 -75.995

# Normal Array
vn 0.145 0.783 -0.605
vn 0.126 0.893 -0.432
vn 0.150 0.788 -0.598
vn 0.087 0.975 -0.204
vn 0.123 0.897 -0.425
vn 0.157 0.906 -0.392
vn 0.075 0.978 -0.195
vn 0.065 0.935 -0.347
vn 0.017 0.989 0.145
vn 0.017 0.989 0.146
vn 0.010 0.982 0.186
vn 0.009 0.982 0.189
vn -0.041 0.775 0.630
vn -0.048 0.867 0.495
vn -0.136 0.723 0.677
vn -0.066 0.847 0.528
vn -0.102 0.711 0.696
vn -0.104 0.704 0.702
vn -0.134 0.544 0.828
vn -0.129 0.537 0.834
vn 0.104 -0.629 -0.771
vn 0.107 -0.692 -0.714
vn 0.064 -0.838 -0.542
vn 0.181 -0.203 -0.962
vn 0.112 -0.655 -0.747
vn 0.164 -0.509 -0.845
vn -0.012 -0.976 -0.216
vn 0.099 -0.650 -0.753
vn -0.013 -0.986 -0.169
vn -0.017 -0.988 -0.153
vn -0.011 -0.985 -0.172
vn -0.016 -0.989 -0.149
vn -0.124 -0.840 0.528
vn -0.016 -0.994 -0.108
vn -0.181 -0.756 0.629
vn -0.191 -0.489 0.851
vn -0.134 -0.856 0.499
vn -0.128 -0.884 0.450
vn -0.089 -0.965 0.246
vn -0.127 -0.833 0.538
vn -0.584 -0.667 0.462
vn 0.550 -0.687 0.476
vn -0.603 -0.487 -0.632
vn 0.568 -0.502 -0.652
vn -0.580 0.469 0.666
vn 0.576 0.413 0.705
vn -0.600 0.671 -0.436
vn 0.598 0.631 -0.493
vn -0.569 -0.652 0.501
vn 0.569 -0.652 0.501
vn -0.583 -0.472 -0.661
vn 0.583 -0.472 -0.661
vn -0.563 0.447 0.695
vn 0.563 0.447 0.695
vn -0.582 0.661 -0.473
vn 0.582 0.661 -0.473
vn 0.252 -0.914 -0.317
vn -0.172 -0.900 -0.401
vn 0.153 -0.982 0.107
vn -0.270 -0.963 -0.000
vn 0.533 0.408 -0.741
vn 0.818 -0.188 -0.544
vn -0.521 -0.103 -0.847
vn -0.789 0.375 -0.488
vn 0.808 0.193 0.557
vn 0.512 -0.391 0.764
vn -0.821 -0.348 0.452
vn -0.506 0.183 0.843
vn 0.185 0.978 -0.100
vn -0.245 0.970 -0.014
vn 0.281 0.902 0.328
vn -0.160 0.892 0.422
vn -0.974 0.200 -0.108
vn -0.026 -0.961 0.277
vn -0.672 0.609 -0.421
vn 0.766 -0.641 0.051
vn -0.792 -0.523 0.316
vn 0.286 -0.958 0.001
vn -0.773 -0.541 0.332
vn 0.888 -0.451 0.093
vn -0.646 -0.762 0.039
vn -0.806 -0.591 0.039
vn 0.476 -0.835 -0.275
vn 0.401 -0.868 -0.292
vn 0.969 -0.212 -0.124
vn 0.909 -0.325 -0.262
vn -0.803 -0.595 0.031
vn -0.940 -0.340 0.030
vn 0.444 -0.827 -0.346
vn 0.242 -0.895 -0.375
vn 0.907 -0.338 -0.251
vn 0.842 -0.424 -0.333
vn 0.151 -0.949 0.276
vn 0.682 -0.673 0.289
vn -0.900 -0.424 -0.104
vn -0.951 -0.284 -0.127
vn 0.842 -0.427 -0.330
vn 0.309 -0.851 -0.426
vn 0.229 -0.886 -0.403
vn 0.841 -0.427 -0.331
vn 0.170 -0.938 0.301
vn -0.789 -0.604 0.113
vn 0.643 -0.704 0.301
vn 0.628 -0.736 0.253
vn 0.523 -0.815 0.251
vn 0.777 -0.596 0.204
vn -0.927 -0.321 -0.195
vn 0.117 -0.831 -0.544
vn -0.674 -0.682 0.284
vn -0.973 0.204 -0.107
vn -0.917 0.369 -0.155
vn 0.072 -0.949 0.306
vn 0.634 -0.737 0.233
vn 0.547 -0.806 0.226
vn 0.822 -0.552 0.140
vn 0.803 -0.580 0.136
vn -0.807 0.520 -0.280
vn -0.802 0.433 -0.411
vn 0.791 -0.608 0.063
vn 0.878 -0.478 0.004
vn 0.565 0.415 -0.714
vn 0.886 -0.464 0.013
vn -0.926 0.004 0.379
vn -0.939 -0.055 0.339
vn -0.719 -0.104 0.687
vn -0.760 -0.010 0.650
vn 0.665 -0.118 0.738
vn 0.856 0.249 0.453
vn -0.959 -0.066 0.274
vn -0.966 -0.022 0.259
vn 0.999 0.023 -0.032
vn 0.999 0.021 -0.030
vn -0.097 -0.932 0.349
vn 0.944 0.034 0.329
vn -0.986 -0.079 0.146
vn -0.991 0.070 0.112
vn 0.978 -0.092 -0.187
vn 0.980 -0.113 -0.162
vn -0.050 -0.938 0.342
vn -0.235 -0.932 0.275
vn -0.995 -0.084 -0.053
vn 0.689 -0.658 0.305
vn 0.955 -0.076 0.288
vn 0.960 -0.041 0.277
vn -0.997 0.061 0.054
vn -0.981 0.192 0.011
vn 0.924 -0.099 -0.369
vn 0.864 -0.284 -0.416
vn 0.937 -0.208 -0.282
vn 0.932 -0.094 -0.350
vn -0.989 -0.147 0.006
vn -0.919 0.361 -0.156
vn 0.964 -0.068 0.258
vn 0.913 -0.316 0.258
vn 0.935 -0.291 0.202
vn 0.994 0.060 0.087
vn -0.976 0.191 -0.102
vn -0.955 -0.082 -0.286
vn 0.721 -0.381 -0.579
vn 0.546 -0.226 -0.806
vn -0.686 0.653 -0.321
vn -0.817 0.537 -0.209
vn -0.919 0.361 -0.156
vn 0.109 0.908 -0.404
vn -0.254 0.895 -0.367
vn 0.750 0.630 -0.204
vn 0.998 -0.052 -0.018
vn 0.994 -0.105 0.011
vn -0.687 0.652 -0.321
vn 0.226 0.753 -0.618
vn 0.494 0.682 -0.540
vn 0.981 -0.169 -0.096
vn -0.902 0.192 0.386
vn -0.502 0.315 0.806
vn -0.684 0.398 0.611
vn 0.808 0.308 0.503
vn -0.889 0.287 0.358
vn -0.916 0.214 0.340
vn -0.933 0.185 0.309
vn -0.212 0.658 0.722
vn -0.315 0.601 0.735
vn -0.417 0.632 0.653
vn 0.969 0.228 0.090
vn 0.812 0.404 0.422
vn -0.972 0.214 -0.098
vn -0.405 0.904 -0.134
vn -0.952 0.228 0.205
vn -0.938 0.287 0.193
vn 0.812 0.467 0.351
vn 0.981 0.140 0.132
vn 0.993 0.081 -0.089
vn 0.989 0.008 -0.148
vn -0.786 0.587 -0.196
vn -0.971 0.215 -0.100
vn -0.164 0.979 -0.118
vn -0.405 0.904 -0.134
vn -0.714 0.614 -0.337
vn -0.843 0.535 -0.055
vn -0.952 0.299 0.064
vn 0.873 0.060 -0.483
vn 0.812 0.342 -0.473
vn 0.775 0.310 -0.551
vn 0.957 0.036 -0.289
vn 0.948 0.105 -0.302
vn -0.748 0.639 -0.178
vn -0.800 0.579 -0.161
vn 0.808 0.586 0.053
vn -0.157 0.980 -0.123
vn -0.216 0.966 -0.142
vn 0.871 0.491 0.005
vn -0.757 0.535 -0.374
vn 0.645 0.045 -0.763
vn -0.740 0.643 -0.199
vn -0.342 0.899 -0.275
vn 0.048 0.977 -0.207
vn 0.600 0.788 -0.138
vn -0.224 0.972 -0.065
vn -0.022 0.204 -0.979
vn 0.560 -0.603 0.568
vn 0.598 -0.738 0.312
vn -0.883 0.361 0.301
vn -0.678 0.611 0.408
vn -0.856 0.493 0.155
vn -0.915 0.338 0.218
vn 0.804 0.575 0.152
vn -0.373 0.876 0.305
vn -0.424 0.873 0.242
vn 0.956 0.280 -0.090
vn -0.848 0.526 -0.058
vn 0.166 0.886 -0.433
vn 0.492 0.856 -0.156
vn 0.938 0.305 -0.168
vn 0.073 0.382 -0.921
vn 0.206 0.438 -0.875
vn 0.642 -0.720 -0.263
vn 0.008 0.206 -0.979
vn 0.524 -0.143 -0.840
vn 0.677 -0.562 -0.475
vn -0.196 0.303 0.933
vn 0.152 -0.302 0.941
vn 0.708 -0.689 0.153
vn -0.010 -0.242 0.970
vn 0.225 -0.600 0.768
vn -0.006 -0.159 0.987
vn -0.525 0.612 -0.592
vn 0.275 -0.075 -0.958
vn -0.471 0.359 -0.806
vn 0.540 -0.494 -0.681
vn -0.466 0.390 0.794
vn -0.223 -0.185 0.957
vn -0.325 -0.373 0.869
vn -0.952 0.217 0.218

# Facets
f 1//1 3//1 2//1
f 4//2 3//2 5//2
f 4//3 2//3 3//3
f 6//4 5//4 7//4
f 6//5 4//5 5//5
f 8//6 6//6 7//6
f 1//7 9//7 3//7
f 1//8 10//8 9//8
f 11//9 5//9 3//9
f 9//10 11//10 3//10
f 12//11 7//11 5//11
f 11//12 12//12 5//12
f 7//13 13//13 8//13
f 7//14 12//14 13//14
f 14//15 9//15 10//15
f 14//16 11//16 9//16
f 14//17 15//17 11//17
f 15//18 12//18 11//18
f 15//19 16//19 12//19
f 16//20 13//20 12//20
f 1//21 2//21 17//21
f 18//22 2//22 4//22
f 18//23 17//23 2//23
f 19//24 4//24 6//24
f 19//25 18//25 4//25
f 19//26 6//26 8//26
f 10//27 17//27 20//27
f 10//28 1//28 17//28
f 17//29 18//29 21//29
f 17//30 21//30 20//30
f 18//31 19//31 22//31
f 18//32 22//32 21//32
f 22//33 8//33 13//33
f 22//34 19//34 8//34
f 14//35 10//35 20//35
f 20//36 15//36 14//36
f 20//37 21//37 15//37
f 21//38 16//38 15//38
f 21//39 22//39 16//39
f 22//40 13//40 16//40
f 23//41 25//41 24//41
f 26//42 24//42 25//42
f 27//43 25//43 23//43
f 27//44 26//44 25//44
f 23//45 24//45 28//45
f 28//46 24//46 26//46
f 27//47 23//47 28//47
f 28//48 26//48 27//48
f 29//49 31//49 30//49
f 32//50 30//50 31//50
f 33//51 31//51 29//51
f 33//52 32//52 31//52
f 29//53 30//53 34//53
f 34//54 30//54 32//54
f 33//55 29//55 34//55
f 34//56 32//56 33//56
f 35//57 37//57 36//57
f 38//58 36//58 37//58
f 39//59 37//59 35//59
f 39//60 38//60 37//60
f 40//61 36//61 41//61
f 40//62 35//62 36//62
f 38//63 41//63 36//63
f 38//64 42//64 41//64
f 43//65 35//65 40//65
f 43//66 39//66 35//66
f 39//67 42//67 38//67
f 39//68 43//68 42//68
f 40//69 41//69 44//69
f 44//70 41//70 42//70
f 43//71 40//71 44//71
f 44//72 42//72 43//72
f 45//73 47//73 46//73
f 48//74 46//74 47//74
f 49//75 47//75 45//75
f 49//76 48//76 47//76
f 50//77 52//77 51//77
f 53//78 52//78 54//78
f 53//79 51//79 52//79
f 55//80 53//80 54//80
f 50//81 56//81 52//81
f 50//82 57//82 56//82
f 58//83 54//83 52//83
f 56//84 58//84 52//84
f 54//85 59//85 55//85
f 54//86 58//86 59//86
f 57//87 60//87 56//87
f 57//88 61//88 60//88
f 62//89 58//89 56//89
f 60//90 62//90 56//90
f 58//91 63//91 59//91
f 58//92 62//92 63//92
f 64//93 66//93 65//93
f 67//94 65//94 66//94
f 61//95 68//95 60//95
f 61//96 69//96 68//96
f 62//97 71//97 70//97
f 68//98 71//98 62//98
f 60//99 68//99 62//99
f 70//100 63//100 62//100
f 64//101 72//101 66//101
f 64//102 73//102 72//102
f 66//103 74//103 67//103
f 75//104 74//104 66//104
f 72//105 75//105 66//105
f 76//106 74//106 75//106
f 77//107 68//107 69//107
f 77//108 71//108 68//108
f 73//109 46//109 72//109
f 45//110 46//110 73//110
f 78//111 45//111 73//111
f 46//112 48//112 72//112
f 72//113 48//113 79//113
f 72//114 79//114 75//114
f 75//115 80//115 76//115
f 75//116 79//116 80//116
f 81//117 45//117 78//117
f 81//118 49//118 45//118
f 49//119 79//119 48//119
f 82//120 79//120 49//120
f 81//121 82//121 49//121
f 82//122 80//122 79//122
f 83//123 51//123 84//123
f 83//124 50//124 51//124
f 51//125 53//125 85//125
f 84//126 51//126 85//126
f 55//127 85//127 53//127
f 55//128 86//128 85//128
f 57//129 50//129 83//129
f 57//130 83//130 87//130
f 86//131 55//131 59//131
f 88//132 86//132 59//132
f 89//133 91//133 90//133
f 92//134 90//134 91//134
f 61//135 57//135 87//135
f 61//136 87//136 93//136
f 88//137 59//137 63//137
f 94//138 88//138 63//138
f 89//139 65//139 91//139
f 64//140 65//140 89//140
f 95//141 64//141 89//141
f 67//142 91//142 65//142
f 92//143 91//143 67//143
f 96//144 92//144 67//144
f 69//145 61//145 93//145
f 69//146 93//146 97//146
f 98//147 70//147 99//147
f 70//148 71//148 99//148
f 70//149 94//149 63//149
f 70//150 98//150 94//150
f 73//151 64//151 95//151
f 73//152 95//152 100//152
f 96//153 67//153 101//153
f 67//154 74//154 101//154
f 76//155 101//155 74//155
f 76//156 102//156 101//156
f 103//157 69//157 97//157
f 103//158 77//158 69//158
f 77//159 99//159 71//159
f 77//160 103//160 99//160
f 78//161 105//161 104//161
f 100//162 105//162 78//162
f 73//163 100//163 78//163
f 106//164 104//164 107//164
f 104//165 105//165 107//165
f 102//166 106//166 107//166
f 80//167 106//167 102//167
f 76//168 80//168 102//168
f 81//169 78//169 104//169
f 104//170 82//170 81//170
f 104//171 106//171 82//171
f 106//172 80//172 82//172
f 83//173 84//173 108//173
f 109//174 84//174 85//174
f 109//175 108//175 84//175
f 109//176 85//176 86//176
f 110//177 108//177 111//177
f 83//178 108//178 110//178
f 87//179 83//179 110//179
f 112//180 111//180 113//180
f 113//181 111//181 108//181
f 113//182 108//182 109//182
f 113//183 86//183 88//183
f 113//184 109//184 86//184
f 89//185 90//185 114//185
f 114//186 90//186 92//186
f 93//187 87//187 110//187
f 93//188 110//188 115//188
f 112//189 113//189 116//189
f 88//190 116//190 113//190
f 117//191 116//191 88//191
f 94//192 117//192 88//192
f 95//193 114//193 118//193
f 95//194 89//194 114//194
f 118//195 92//195 96//195
f 118//196 114//196 92//196
f 97//197 120//197 119//197
f 115//198 120//198 97//198
f 93//199 115//199 97//199
f 99//200 119//200 98//200
f 98//201 119//201 120//201
f 98//202 120//202 121//202
f 98//203 117//203 94//203
f 98//204 121//204 117//204
f 100//205 118//205 122//205
f 100//206 95//206 118//206
f 123//207 96//207 101//207
f 118//208 96//208 123//208
f 122//209 118//209 123//209
f 123//210 101//210 102//210
f 103//211 97//211 119//211
f 119//212 99//212 103//212
f 105//213 100//213 122//213
f 122//214 107//214 105//214
f 122//215 123//215 107//215
f 123//216 102//216 107//216
f 124//217 126//217 125//217
f 127//218 125//218 126//218
f 128//219 126//219 124//219
f 128//220 127//220 126//220
f 110//221 111//221 129//221
f 129//222 111//222 112//222
f 115//223 129//223 130//223
f 115//224 110//224 129//224
f 131//225 112//225 116//225
f 129//226 112//226 131//226
f 130//227 129//227 131//227
f 131//228 116//228 117//228
f 120//229 115//229 130//229
f 130//230 121//230 120//230
f 130//231 131//231 121//231
f 131//232 117//232 121//232
f 132//233 125//233 133//233
f 132//234 124//234 125//234
f 134//235 127//235 135//235
f 125//236 127//236 134//236
f 133//237 125//237 134//237
f 136//238 134//238 135//238
f 137//239 124//239 132//239
f 137//240 128//240 124//240
f 128//241 135//241 127//241
f 138//242 135//242 128//242
f 137//243 138//243 128//243
f 138//244 136//244 135//244
f 132//245 133//245 139//245
f 140//246 133//246 134//246
f 140//247 139//247 133//247
f 140//248 134//248 136//248
f 137//249 132//249 139//249
f 139//250 138//250 137//250
f 139//251 140//251 138//251
f 140//252 136//252 138//252

# Thankyou for using Spin3D

