# Created using Spin3D

# Vertex Array
v -14.511 -39.394 14.392
v -14.586 -39.240 14.503
v -14.589 -39.223 14.521
v -14.486 -39.449 14.348
v -14.507 -39.397 14.389
v -14.696 -39.007 14.672
v -14.767 -38.853 14.784
v -14.703 -38.987 14.691
v -14.693 -39.004 14.670
v -14.715 -38.947 14.722
v -14.481 -39.453 14.341
v -14.529 -39.357 14.411
v -14.509 -39.395 14.380
v -14.605 -39.181 14.551
v -14.565 -39.268 14.478
v -14.819 -38.735 14.867
v -14.809 -38.755 14.858
v -14.804 -38.758 14.850
v -14.808 -38.743 14.868
v -14.584 -39.234 14.499
v -14.702 -38.973 14.693
v -14.710 -38.951 14.715
v -14.848 -38.663 14.924
v -14.804 -38.750 14.859
v 19.494 19.636 9.171
v 19.489 19.626 9.179
v 19.490 19.634 9.174
v 19.488 19.630 9.176
v 19.496 19.644 9.164
v 19.502 19.651 9.155
v 19.494 19.647 9.158
v 19.497 19.653 9.155
v 19.497 19.661 9.146
v 19.503 19.659 9.149
v 19.504 19.667 9.140
v 19.493 19.637 9.167
v 19.503 19.652 9.151
v 19.502 19.657 9.145
v 19.505 19.669 9.135
v 19.501 19.664 9.141
v 19.507 19.665 9.139
v 19.507 19.664 9.137

# Normal Array
vn -0.553 -0.646 0.526
vn -0.736 -0.593 0.328
vn 0.351 -0.455 0.819
vn 0.306 -0.508 0.805
vn -0.777 -0.565 0.278
vn -0.678 0.202 -0.707
vn -0.774 -0.567 0.282
vn -0.552 -0.647 0.526
vn -0.256 -0.644 0.721
vn -0.779 0.068 -0.623
vn -0.933 -0.257 -0.252
vn -0.910 -0.136 -0.393
vn -0.675 0.195 -0.711
vn -0.924 -0.247 -0.293
vn 0.186 -0.523 0.832
vn 0.398 -0.427 0.812
vn 0.710 -0.238 0.662
vn 0.929 0.362 0.080
vn 0.933 0.341 0.113
vn 0.754 0.576 -0.316
vn -0.795 -0.542 0.272
vn -0.582 -0.633 0.511
vn -0.708 0.172 -0.685
vn -0.059 0.573 -0.817
vn -0.310 -0.644 0.699
vn -0.145 -0.617 0.774
vn -0.759 0.116 -0.641
vn -0.024 0.589 -0.808
vn 0.018 0.597 -0.802
vn -0.809 0.054 -0.586
vn 0.804 -0.057 0.591
vn 0.806 -0.053 0.590
vn 0.576 0.639 -0.510
vn 0.798 0.550 -0.246
vn 0.925 0.373 0.070
vn 0.602 0.637 -0.481
vn -0.784 -0.547 0.293
vn 0.107 0.640 -0.761
vn 0.906 0.421 0.052
vn -0.149 -0.616 0.773
vn 0.492 0.654 -0.575
vn 0.457 0.668 -0.587
vn 0.930 0.346 0.122
vn 0.801 0.548 -0.243
vn 0.529 0.360 0.768
vn -0.164 0.492 0.855
vn 0.467 0.468 0.750
vn 0.617 0.382 0.688
vn -0.841 0.509 0.185
vn -0.876 0.462 0.139
vn 0.000 0.707 0.707
vn -0.732 0.523 0.437
vn 0.503 0.507 0.700
vn 0.108 0.697 0.708
vn -0.036 0.767 0.641
vn -0.011 0.762 0.648
vn 0.614 -0.662 -0.431
vn -0.504 -0.539 -0.675
vn 0.104 -0.756 -0.647
vn 0.464 -0.778 -0.423
vn 0.933 -0.284 0.219
vn -0.457 -0.513 -0.727
vn -0.507 -0.503 -0.700
vn -0.393 -0.593 -0.703
vn -0.484 -0.555 -0.676
vn -0.558 -0.467 -0.686
vn 0.937 0.029 0.348
vn 0.672 0.422 0.609
vn -0.614 0.774 0.153
vn 0.388 0.800 0.458
vn 0.372 0.685 0.627
vn -0.677 0.723 -0.137
vn -0.015 -0.778 -0.628
vn -0.466 -0.508 -0.724
vn 0.970 -0.227 0.084
vn 0.935 0.293 -0.202

# Facets
f 1//1 3//1 2//1
f 2//2 4//2 1//2
f 1//3 5//3 3//3
f 4//4 5//4 1//4
f 6//5 8//5 7//5
f 7//6 9//6 6//6
f 2//7 8//7 6//7
f 2//8 3//8 8//8
f 3//9 10//9 8//9
f 4//10 12//10 11//10
f 2//11 12//11 4//11
f 2//12 9//12 12//12
f 2//13 6//13 9//13
f 12//14 13//14 11//14
f 3//15 14//15 10//15
f 5//16 14//16 3//16
f 11//17 5//17 4//17
f 11//18 15//18 5//18
f 15//19 14//19 5//19
f 13//20 15//20 11//20
f 7//21 17//21 16//21
f 8//22 17//22 7//22
f 16//23 9//23 7//23
f 18//24 9//24 16//24
f 8//25 10//25 17//25
f 17//26 10//26 19//26
f 20//27 12//27 9//27
f 20//28 9//28 21//28
f 21//29 9//29 18//29
f 12//30 20//30 13//30
f 10//31 22//31 19//31
f 14//32 22//32 10//32
f 21//33 15//33 20//33
f 21//34 22//34 15//34
f 22//35 14//35 15//35
f 13//36 20//36 15//36
f 16//37 17//37 23//37
f 16//38 23//38 18//38
f 23//39 19//39 24//39
f 17//40 19//40 23//40
f 18//41 24//41 21//41
f 23//42 24//42 18//42
f 19//43 22//43 24//43
f 21//44 24//44 22//44
f 25//45 27//45 26//45
f 28//46 26//46 27//46
f 25//47 29//47 27//47
f 25//48 30//48 29//48
f 27//49 31//49 28//49
f 32//50 31//50 27//50
f 29//51 32//51 27//51
f 33//52 31//52 32//52
f 34//53 29//53 30//53
f 34//54 32//54 29//54
f 34//55 35//55 32//55
f 35//56 33//56 32//56
f 25//57 26//57 36//57
f 36//58 26//58 28//58
f 37//59 36//59 38//59
f 25//60 36//60 37//60
f 30//61 25//61 37//61
f 38//62 40//62 39//62
f 38//63 31//63 40//63
f 36//64 31//64 38//64
f 28//65 31//65 36//65
f 40//66 31//66 33//66
f 41//67 30//67 37//67
f 41//68 34//68 30//68
f 35//69 39//69 40//69
f 41//70 39//70 35//70
f 34//71 41//71 35//71
f 40//72 33//72 35//72
f 37//73 38//73 42//73
f 42//74 38//74 39//74
f 41//75 37//75 42//75
f 42//76 39//76 41//76

# Thankyou for using Spin3D

