# Created using Spin3D

# Vertex Array
v 22.277 -44.049 2.410
v 22.274 -44.049 2.406
v 22.273 -44.050 2.408
v 22.270 -44.049 2.406
v 22.268 -44.050 2.408
v 22.268 -44.049 2.407
v 22.278 -44.051 2.412
v 22.278 -44.050 2.413
v 22.273 -44.051 2.412
v 22.269 -44.049 2.411
v 22.276 -44.050 2.415
v 22.272 -44.050 2.414
v 22.275 -44.048 2.410
v 22.271 -44.047 2.406
v 22.275 -44.049 2.415
v 22.271 -44.048 2.410
v -13.307 -30.874 18.021
v -13.102 -30.616 18.065
v -13.220 -30.760 18.041
v -13.095 -30.621 18.065
v -13.054 -30.569 18.073
v -12.561 -29.941 18.181
v -12.977 -30.451 18.093
v -12.728 -30.181 18.140
v -12.510 -29.904 18.188
v -12.206 -29.547 18.248
v -12.780 -30.218 18.133
v -12.304 -29.657 18.229
v -12.534 -29.903 18.188
v -12.059 -29.321 18.286
v -11.755 -28.964 18.348
v -11.731 -28.965 18.348
v -11.704 -28.927 18.355
v -11.288 -28.417 18.441
v -11.960 -29.211 18.305
v -11.485 -28.650 18.401
v -11.537 -28.687 18.395
v -11.170 -28.247 18.470
v -11.163 -28.252 18.469
v -11.045 -28.108 18.494
v -11.211 -28.299 18.461
v -10.958 -27.994 18.513
v 43.646 -14.178 -23.647
v 43.727 -14.219 -23.257
v 43.762 -14.312 -23.437
v 43.842 -14.305 -23.240
v 43.860 -14.286 -23.650
v 43.903 -14.174 -23.519
v 43.701 -14.156 -24.081
v 43.544 -13.933 -24.274
v 43.908 -14.137 -24.002
v 43.836 -14.151 -24.222
v 43.576 -13.872 -24.749
v 43.482 -13.639 -24.968
v 43.715 -13.940 -24.756
v 43.582 -13.662 -25.200
v 43.596 -13.987 -23.710
v 43.705 -14.030 -23.340
v 43.824 -14.144 -23.214
v 43.853 -13.982 -23.565
v 43.505 -13.685 -24.448
v 43.838 -13.939 -24.603
v 43.855 -13.887 -24.200
v 43.474 -13.469 -25.046
v 43.720 -13.728 -25.104
v 43.772 -13.694 -24.916
v 43.504 -13.467 -25.321
v 43.629 -13.524 -25.267
v -37.710 -6.746 -17.153
v -37.618 -7.187 -16.992
v -37.590 -7.430 -17.424
v -37.470 -7.461 -17.371
v -37.503 -7.015 -17.416
v 43.631 -13.790 -23.868
v 43.765 -13.932 -23.464
v 43.574 -13.539 -24.627
v 43.740 -13.744 -24.048
v 43.547 -13.423 -25.174
v 43.692 -13.570 -24.800
v -37.818 -6.152 -16.394
v -37.709 -5.566 -15.587
v -37.704 -6.671 -16.410
v -37.511 -6.559 -16.264
v -37.860 -5.198 -16.462
v -37.366 -7.028 -16.882
v -37.331 -6.986 -17.221
v -37.188 -6.013 -16.510
v -37.616 -5.755 -17.066
v -37.321 -5.900 -16.969
v -37.895 -3.905 -14.982
v -37.638 -3.553 -14.021
v -37.401 -5.012 -15.099
v -37.269 -6.073 -16.073
v -37.124 -4.379 -15.142
v -37.890 -3.087 -15.497
v -37.112 -4.174 -15.836
v -37.740 -4.285 -16.518
v -37.399 -4.034 -16.433
v 6.059 -6.463 21.287
v 6.036 -6.434 21.260
v 5.944 -6.446 21.269
v 6.251 -6.470 21.302
v 6.189 -6.473 21.297
v 6.405 -6.427 21.279
v 6.381 -6.461 21.299
v 6.496 -6.441 21.290
v 5.987 -6.407 21.246
v 6.076 -6.290 21.166
v 6.187 -6.380 21.239
v 6.363 -6.313 21.196
v 6.481 -6.384 21.247
v 6.224 -6.249 21.146
v -37.781 -1.519 -12.806
v -37.509 0.197 -11.130
v -37.523 -1.716 -12.467
v -37.267 -0.604 -11.599
v -37.885 -1.049 -13.541
v -37.242 -2.528 -13.323
v -36.953 -1.302 -13.558
v -37.730 -0.843 -14.444
v -37.117 -0.299 -14.145
v -37.331 -2.115 -15.620
v -37.121 -2.451 -15.335
v -37.637 -2.622 -15.852
v 5.962 -6.387 21.229
v 6.083 -6.319 21.180
v 6.256 -6.385 21.233
v 6.455 -6.406 21.259
v 6.371 -6.290 21.173
v 6.148 -6.213 21.109
v 6.301 -6.210 21.117
v 6.195 -6.188 21.097
v -37.678 1.478 -11.002
v -37.393 2.228 -9.738
v -37.094 1.589 -10.108
v -37.004 -0.178 -11.709
v -36.761 2.192 -10.489
v -37.626 1.836 -12.068
v -36.823 1.842 -11.984
v -37.461 -0.995 -14.975
v -37.393 0.853 -13.512
v -37.053 1.898 -12.637
v 6.223 -6.255 21.138
v 6.255 -6.190 21.097
v -37.361 4.011 -8.860
v -36.971 5.516 -7.653
v -37.065 3.720 -8.606
v -36.764 4.939 -7.897
v -36.798 3.544 -8.872
v -36.596 4.880 -8.399
v -37.480 4.445 -9.488
v -36.655 4.584 -9.559
v -37.232 3.077 -11.654
v -37.370 4.289 -10.339
v -36.895 3.480 -11.152
v -36.971 5.215 -9.633
v -37.188 6.007 -7.857
v -36.794 7.065 -6.967
v -36.628 6.351 -7.266
v -36.484 6.752 -7.533
v -37.261 6.395 -8.111
v -36.534 7.559 -7.244
v -36.852 7.083 -7.844
v -36.637 6.498 -8.241
v -37.231 5.973 -8.801
v -36.936 7.355 -7.242
v -36.621 7.972 -6.589
v -36.506 7.675 -6.673
v -36.441 7.955 -6.717
v -37.115 6.979 -7.866
v -36.597 8.008 -6.805
v -36.475 8.223 -6.453
v 3.627 36.593 68.843
v 3.628 36.593 68.844
v 3.628 36.592 68.843
v 3.629 36.593 68.843
v 3.628 36.593 68.842
v 3.628 36.594 68.843

# Normal Array
vn 0.396 -0.782 -0.481
vn 0.081 -0.727 -0.682
vn -0.036 -0.803 -0.594
vn -0.636 -0.183 -0.750
vn 0.413 -0.645 -0.643
vn 0.966 0.256 -0.016
vn 0.021 -0.985 -0.173
vn -0.040 -0.983 -0.178
vn -0.962 0.244 0.125
vn -0.460 -0.785 0.414
vn 0.611 -0.437 0.660
vn -0.099 -0.895 0.434
vn 0.012 -0.944 0.330
vn -0.452 -0.862 0.230
vn 0.386 0.877 -0.287
vn 0.077 -0.085 -0.993
vn 0.543 0.781 -0.308
vn -0.695 0.426 -0.580
vn 0.579 0.813 0.057
vn 0.488 0.855 0.175
vn 0.012 0.983 0.182
vn 0.010 0.990 0.141
vn -0.465 0.877 0.123
vn -0.547 0.811 0.208
vn 0.711 0.237 0.662
vn -0.086 -0.409 0.909
vn -0.531 0.650 0.543
vn -0.361 0.751 0.553
vn -0.015 0.180 -0.984
vn 0.019 0.154 -0.988
vn 0.001 -0.170 0.985
vn -0.055 -0.124 0.991
vn 0.079 0.107 -0.991
vn 0.033 0.142 -0.989
vn 0.035 0.141 -0.989
vn 0.019 0.154 -0.988
vn -0.010 0.178 -0.984
vn -0.019 0.182 -0.983
vn -0.052 -0.127 0.991
vn -0.007 -0.162 0.987
vn -0.070 -0.112 0.991
vn -0.108 -0.080 0.991
vn 0.002 -0.169 0.986
vn -0.037 -0.137 0.990
vn 0.014 0.160 -0.987
vn -0.023 0.184 -0.983
vn 0.094 0.091 -0.991
vn -0.008 0.174 -0.985
vn 0.009 0.163 -0.987
vn -0.081 0.233 -0.969
vn 0.028 0.147 -0.989
vn -0.026 0.187 -0.982
vn 0.011 -0.179 0.984
vn -0.030 -0.142 0.989
vn 0.083 -0.232 0.969
vn 0.002 -0.170 0.985
vn 0.005 -0.174 0.985
vn -0.093 -0.094 0.991
vn -0.012 -0.159 0.987
vn -0.024 -0.147 0.989
vn 0.030 0.146 -0.989
vn -0.026 0.188 -0.982
vn 0.002 0.166 -0.986
vn 0.030 0.144 -0.989
vn -0.073 0.223 -0.972
vn -0.035 0.196 -0.980
vn 0.014 -0.181 0.983
vn 0.016 -0.180 0.983
vn 0.085 -0.236 0.968
vn -0.010 -0.161 0.987
vn 0.035 -0.195 0.980
vn 0.002 -0.170 0.985
vn 0.002 0.167 -0.986
vn 0.003 0.166 -0.986
vn -0.000 -0.168 0.986
vn -0.003 -0.166 0.986
vn -0.836 -0.535 0.120
vn 0.182 -0.983 -0.039
vn -0.606 -0.747 0.274
vn 0.925 -0.380 0.023
vn -0.648 -0.752 -0.122
vn -0.754 -0.644 -0.130
vn 0.709 -0.679 -0.190
vn -0.190 -0.957 -0.219
vn -0.204 -0.955 -0.213
vn 0.940 -0.341 -0.016
vn -0.752 -0.645 -0.132
vn -0.879 -0.463 -0.118
vn -0.276 -0.914 -0.298
vn -0.429 -0.858 -0.283
vn -0.774 -0.570 -0.277
vn -0.417 -0.821 -0.389
vn -0.959 0.013 0.284
vn -0.965 -0.189 0.183
vn -0.278 -0.185 0.942
vn -0.560 0.277 0.781
vn 0.968 0.065 0.242
vn 0.932 0.294 0.212
vn -0.971 -0.228 0.068
vn -0.992 -0.096 0.083
vn 0.851 -0.462 -0.251
vn 0.985 0.158 -0.063
vn 0.973 0.227 0.028
vn 0.964 0.262 0.043
vn -0.991 -0.131 0.033
vn -0.999 -0.027 0.042
vn 0.536 -0.725 -0.432
vn 0.514 -0.752 -0.413
vn 0.981 0.181 -0.066
vn 0.965 -0.065 -0.255
vn -0.990 -0.095 -0.107
vn -0.808 -0.509 -0.297
vn -0.051 -0.853 -0.519
vn 0.315 -0.502 -0.806
vn 0.157 -0.476 -0.865
vn 0.938 0.185 -0.292
vn -0.981 -0.190 0.044
vn -0.401 -0.810 0.428
vn -0.689 0.158 -0.707
vn 0.387 -0.063 -0.920
vn -0.867 0.396 0.302
vn 0.067 0.768 0.636
vn -0.431 0.797 0.422
vn 0.725 0.600 0.337
vn -0.699 0.662 0.271
vn -0.894 0.366 0.260
vn 0.094 0.949 0.301
vn 0.103 0.946 0.306
vn 0.817 0.570 0.089
vn 0.650 0.731 0.207
vn -0.232 0.949 0.213
vn -0.693 0.665 0.276
vn 0.477 0.863 0.170
vn 0.466 0.870 0.161
vn 0.856 0.515 0.038
vn 0.814 0.575 0.082
vn -0.613 0.788 -0.060
vn 0.513 0.768 -0.382
vn 0.756 0.653 -0.038
vn 0.817 0.575 -0.054
vn -0.936 -0.213 0.281
vn -0.252 -0.579 0.775
vn -0.976 -0.215 0.045
vn -0.980 -0.200 0.018
vn -0.994 -0.051 -0.101
vn 0.952 -0.300 0.062
vn 0.208 -0.754 0.624
vn 0.210 -0.755 0.622
vn -0.064 -0.751 0.658
vn 0.977 -0.200 0.077
vn -0.874 0.125 -0.470
vn -0.709 0.129 -0.693
vn 0.749 -0.011 -0.662
vn 0.729 0.149 -0.668
vn 0.420 0.278 -0.864
vn 0.962 0.054 -0.267
vn -0.919 -0.222 0.327
vn -0.939 -0.205 0.275
vn 0.548 -0.528 0.649
vn -0.208 -0.579 0.788
vn -0.155 -0.603 0.782
vn 0.822 -0.327 0.467
vn -0.999 -0.043 0.013
vn -1.000 -0.006 -0.019
vn 0.636 -0.535 0.556
vn 0.963 -0.223 0.148
vn 0.973 -0.169 0.157
vn 0.999 -0.043 0.005
vn -0.957 0.109 -0.269
vn -0.891 0.090 -0.444
vn 0.417 0.267 -0.869
vn -0.023 0.347 -0.937
vn 0.962 0.058 -0.266
vn 0.904 0.152 -0.399
vn 0.015 -0.664 -0.748
vn -0.083 -0.110 0.990
vn 0.006 -0.668 -0.744
vn -0.009 0.492 0.870
vn 0.063 -0.977 -0.202
vn -0.019 0.497 0.868
vn -0.047 0.544 0.838
vn -0.049 0.591 0.805
vn -0.042 0.549 0.835
vn -0.046 0.553 0.832
vn 0.010 0.593 0.805
vn -0.026 0.585 0.811
vn -0.034 0.559 0.828
vn 0.005 0.599 0.801
vn -0.054 0.587 0.808
vn -0.024 0.582 0.813
vn -0.834 -0.312 0.455
vn -0.287 -0.547 0.786
vn -0.834 -0.325 0.446
vn -0.903 -0.266 0.339
vn -0.993 -0.050 0.107
vn 0.334 -0.626 0.704
vn 0.357 -0.616 0.702
vn 0.084 -0.583 0.808
vn 0.849 -0.343 0.403
vn 0.954 -0.178 0.243
vn -1.000 0.005 -0.002
vn -0.981 0.135 -0.138
vn 0.891 0.219 -0.399
vn 0.987 0.077 -0.143
vn 0.992 0.040 -0.119
vn 0.998 -0.056 0.001
vn -0.909 0.228 -0.348
vn -0.904 0.206 -0.374
vn 0.876 0.162 -0.455
vn 0.058 0.388 -0.920
vn -0.045 0.373 -0.927
vn 0.905 0.123 -0.407
vn -0.005 -0.566 -0.824
vn -0.010 -0.571 -0.821
vn 0.026 -0.580 -0.814
vn 0.034 -0.606 -0.794
vn 0.049 -0.574 -0.817
vn 0.041 -0.616 -0.786
vn 0.045 -0.612 -0.790
vn 0.046 -0.621 -0.782
vn -0.101 0.584 0.805
vn -0.078 0.604 0.793
vn -0.101 -0.455 -0.885
vn -0.182 -0.464 -0.867
vn 0.081 -0.558 -0.826
vn 0.106 0.690 0.716
vn 0.187 0.668 0.721
vn 0.104 -0.577 -0.810
vn -0.177 0.685 0.707
vn -0.061 0.606 0.793
vn -0.004 0.609 0.793
vn -0.014 0.621 0.784
vn -0.940 -0.154 0.304
vn -0.938 -0.155 0.311
vn 0.803 -0.377 0.461
vn -0.201 -0.540 0.817
vn -0.165 -0.551 0.818
vn 0.895 -0.273 0.352
vn -0.993 -0.036 0.117
vn -0.995 0.097 -0.016
vn 0.810 -0.386 0.442
vn 0.969 -0.200 0.148
vn 0.978 -0.166 0.128
vn 0.999 -0.023 -0.036
vn -0.753 0.426 -0.503
vn -0.835 0.383 -0.396
vn -0.979 0.155 -0.133
vn 0.640 0.438 -0.632
vn 0.573 0.496 -0.653
vn 0.390 0.513 -0.764
vn 0.981 0.052 -0.185
vn 0.932 0.187 -0.312
vn -0.789 0.356 -0.501
vn -0.138 0.482 -0.865
vn 0.024 -0.583 -0.812
vn 0.054 -0.578 -0.815
vn 0.016 -0.543 -0.839
vn 0.006 -0.556 -0.831
vn 0.180 -0.455 -0.872
vn 0.061 -0.558 -0.827
vn -0.024 -0.403 -0.915
vn 0.030 0.736 0.677
vn -0.765 -0.270 0.584
vn 0.395 -0.533 0.748
vn -0.225 -0.447 0.866
vn 0.907 -0.256 0.334
vn -0.766 -0.273 0.582
vn -0.949 -0.125 0.289
vn -0.985 -0.021 0.171
vn -0.209 -0.562 0.801
vn 0.395 -0.533 0.748
vn 0.903 -0.318 0.287
vn 0.955 -0.217 0.203
vn 0.999 -0.027 -0.044
vn -0.793 0.404 -0.456
vn -0.963 0.216 -0.164
vn -0.997 0.078 -0.022
vn 0.298 0.636 -0.712
vn -0.384 0.659 -0.647
vn 0.843 0.375 -0.386
vn 0.949 0.175 -0.264
vn 0.999 -0.030 -0.035
vn -0.825 0.396 -0.403
vn 0.006 0.641 -0.768
vn 0.296 0.638 -0.711
vn 0.930 0.198 -0.310
vn -0.830 -0.145 0.539
vn -0.852 -0.174 0.493
vn -0.048 -0.404 0.914
vn -0.063 -0.398 0.915
vn 0.913 -0.237 0.333
vn 0.952 -0.174 0.252
vn -0.983 -0.006 0.181
vn -0.976 -0.042 0.215
vn 0.386 0.612 -0.691
vn 0.953 0.152 -0.261
vn 0.947 0.175 -0.268
vn 0.998 -0.041 -0.041
vn -0.953 0.239 -0.187
vn -0.959 0.230 -0.166
vn 0.430 0.610 -0.665
vn -0.236 0.680 -0.694
vn -0.299 0.657 -0.692
vn 0.796 0.338 -0.502
vn -0.901 -0.029 0.433
vn -0.895 -0.015 0.445
vn -0.210 -0.342 0.916
vn -0.080 -0.401 0.912
vn 0.955 -0.190 0.229
vn 0.955 -0.189 0.227
vn -0.970 0.168 0.177
vn -0.947 0.032 0.319
vn 0.234 0.697 -0.678
vn -0.696 0.613 -0.375
vn -0.299 0.853 -0.428
vn -0.881 0.473 -0.022
vn 0.944 0.161 -0.288
vn 0.532 0.629 -0.566
vn -0.913 0.329 -0.241
vn -0.207 0.679 -0.704
vn -0.239 -0.350 0.906
vn 0.938 -0.174 0.299
vn -0.860 0.510 -0.014
vn 0.533 0.627 -0.568
vn -0.603 -0.630 0.490
vn 0.597 -0.638 0.487
vn -0.550 -0.480 -0.684
vn 0.547 -0.492 -0.678
vn -0.586 0.477 0.656
vn 0.589 0.464 0.662
vn -0.571 0.652 -0.498
vn 0.577 0.645 -0.501

# Facets
f 1//1 3//1 2//1
f 4//2 3//2 5//2
f 4//3 2//3 3//3
f 6//4 4//4 5//4
f 1//5 7//5 3//5
f 1//6 8//6 7//6
f 9//7 5//7 3//7
f 7//8 9//8 3//8
f 5//9 10//9 6//9
f 5//10 9//10 10//10
f 11//11 7//11 8//11
f 11//12 9//12 7//12
f 11//13 12//13 9//13
f 12//14 10//14 9//14
f 1//15 2//15 13//15
f 14//16 2//16 4//16
f 14//17 13//17 2//17
f 14//18 4//18 6//18
f 8//19 13//19 15//19
f 8//20 1//20 13//20
f 13//21 14//21 16//21
f 13//22 16//22 15//22
f 16//23 6//23 10//23
f 16//24 14//24 6//24
f 11//25 8//25 15//25
f 15//26 12//26 11//26
f 15//27 16//27 12//27
f 16//28 10//28 12//28
f 17//29 19//29 18//29
f 18//30 20//30 17//30
f 17//31 21//31 19//31
f 20//32 21//32 17//32
f 18//33 23//33 22//33
f 19//34 23//34 18//34
f 20//35 25//35 24//35
f 20//36 18//36 25//36
f 18//37 22//37 25//37
f 25//38 26//38 24//38
f 19//39 27//39 23//39
f 21//40 27//40 19//40
f 24//41 21//41 20//41
f 24//42 28//42 21//42
f 28//43 27//43 21//43
f 26//44 28//44 24//44
f 22//45 23//45 29//45
f 30//46 22//46 29//46
f 30//47 31//47 22//47
f 31//48 25//48 22//48
f 26//49 33//49 32//49
f 26//50 25//50 33//50
f 25//51 31//51 33//51
f 33//52 34//52 32//52
f 23//53 27//53 29//53
f 29//54 35//54 30//54
f 29//55 27//55 35//55
f 27//56 28//56 35//56
f 32//57 28//57 26//57
f 32//58 36//58 28//58
f 36//59 35//59 28//59
f 34//60 36//60 32//60
f 31//61 30//61 37//61
f 38//62 31//62 37//62
f 38//63 39//63 31//63
f 39//64 33//64 31//64
f 39//65 34//65 33//65
f 40//66 34//66 39//66
f 30//67 35//67 37//67
f 37//68 41//68 38//68
f 37//69 35//69 41//69
f 35//70 36//70 41//70
f 40//71 36//71 34//71
f 41//72 36//72 40//72
f 39//73 38//73 42//73
f 39//74 42//74 40//74
f 38//75 41//75 42//75
f 40//76 42//76 41//76
f 43//77 45//77 44//77
f 46//78 45//78 47//78
f 46//79 44//79 45//79
f 48//80 46//80 47//80
f 43//81 49//81 45//81
f 43//82 50//82 49//82
f 47//83 52//83 51//83
f 49//84 52//84 47//84
f 45//85 49//85 47//85
f 51//86 48//86 47//86
f 50//87 53//87 49//87
f 50//88 54//88 53//88
f 49//89 55//89 52//89
f 49//90 53//90 55//90
f 56//91 53//91 54//91
f 56//92 55//92 53//92
f 57//93 44//93 58//93
f 57//94 43//94 44//94
f 44//95 46//95 59//95
f 58//96 44//96 59//96
f 48//97 59//97 46//97
f 48//98 60//98 59//98
f 50//99 43//99 57//99
f 50//100 57//100 61//100
f 62//101 51//101 52//101
f 63//102 51//102 62//102
f 48//103 51//103 63//103
f 60//104 48//104 63//104
f 54//105 50//105 61//105
f 54//106 61//106 64//106
f 65//107 62//107 55//107
f 62//108 52//108 55//108
f 62//109 66//109 63//109
f 62//110 65//110 66//110
f 67//111 54//111 64//111
f 67//112 56//112 54//112
f 56//113 65//113 55//113
f 68//114 65//114 56//114
f 67//115 68//115 56//115
f 68//116 66//116 65//116
f 69//117 71//117 70//117
f 72//118 70//118 71//118
f 73//119 71//119 69//119
f 73//120 72//120 71//120
f 57//121 58//121 74//121
f 75//122 58//122 59//122
f 75//123 74//123 58//123
f 75//124 59//124 60//124
f 61//125 74//125 76//125
f 61//126 57//126 74//126
f 74//127 75//127 77//127
f 74//128 77//128 76//128
f 77//129 60//129 63//129
f 77//130 75//130 60//130
f 64//131 76//131 78//131
f 64//132 61//132 76//132
f 76//133 77//133 79//133
f 76//134 79//134 78//134
f 79//135 63//135 66//135
f 79//136 77//136 63//136
f 67//137 64//137 78//137
f 78//138 68//138 67//138
f 78//139 79//139 68//139
f 79//140 66//140 68//140
f 80//141 82//141 81//141
f 83//142 81//142 82//142
f 80//143 70//143 82//143
f 69//144 70//144 80//144
f 84//145 69//145 80//145
f 85//146 72//146 86//146
f 85//147 70//147 72//147
f 83//148 70//148 85//148
f 82//149 70//149 83//149
f 87//150 85//150 86//150
f 88//151 69//151 84//151
f 88//152 73//152 69//152
f 73//153 86//153 72//153
f 89//154 86//154 73//154
f 88//155 89//155 73//155
f 89//156 87//156 86//156
f 90//157 81//157 91//157
f 90//158 80//158 81//158
f 92//159 83//159 93//159
f 81//160 83//160 92//160
f 91//161 81//161 92//161
f 94//162 92//162 93//162
f 84//163 80//163 90//163
f 84//164 90//164 95//164
f 93//165 83//165 85//165
f 87//166 93//166 85//166
f 94//167 93//167 87//167
f 96//168 94//168 87//168
f 97//169 84//169 95//169
f 97//170 88//170 84//170
f 98//171 89//171 88//171
f 98//172 88//172 97//172
f 89//173 96//173 87//173
f 89//174 98//174 96//174
f 99//175 101//175 100//175
f 99//176 103//176 102//176
f 100//177 103//177 99//177
f 102//178 105//178 104//178
f 103//179 105//179 102//179
f 105//180 106//180 104//180
f 99//181 107//181 101//181
f 107//182 109//182 108//182
f 107//183 99//183 109//183
f 99//184 102//184 109//184
f 110//185 104//185 111//185
f 110//186 109//186 104//186
f 109//187 102//187 104//187
f 106//188 111//188 104//188
f 109//189 112//189 108//189
f 110//190 112//190 109//190
f 113//191 115//191 114//191
f 116//192 114//192 115//192
f 113//193 91//193 115//193
f 90//194 91//194 113//194
f 117//195 90//195 113//195
f 116//196 115//196 118//196
f 118//197 115//197 91//197
f 118//198 91//198 92//198
f 94//199 118//199 92//199
f 94//200 119//200 118//200
f 95//201 90//201 117//201
f 95//202 117//202 120//202
f 121//203 123//203 122//203
f 119//204 123//204 121//204
f 96//205 123//205 119//205
f 94//206 96//206 119//206
f 124//207 95//207 120//207
f 124//208 97//208 95//208
f 98//209 122//209 123//209
f 124//210 122//210 98//210
f 97//211 124//211 98//211
f 123//212 96//212 98//212
f 100//213 101//213 125//213
f 126//214 100//214 125//214
f 126//215 127//215 100//215
f 127//216 103//216 100//216
f 128//217 127//217 129//217
f 128//218 105//218 127//218
f 105//219 103//219 127//219
f 105//220 128//220 106//220
f 101//221 107//221 125//221
f 125//222 107//222 108//222
f 125//223 108//223 126//223
f 126//224 108//224 130//224
f 111//225 128//225 129//225
f 111//226 129//226 110//226
f 110//227 129//227 131//227
f 106//228 128//228 111//228
f 108//229 132//229 130//229
f 112//230 132//230 108//230
f 131//231 112//231 110//231
f 132//232 112//232 131//232
f 133//233 114//233 134//233
f 133//234 113//234 114//234
f 135//235 116//235 136//235
f 114//236 116//236 135//236
f 134//237 114//237 135//237
f 137//238 135//238 136//238
f 117//239 113//239 133//239
f 117//240 133//240 138//240
f 136//241 116//241 118//241
f 119//242 136//242 118//242
f 137//243 136//243 119//243
f 139//244 137//244 119//244
f 120//245 141//245 140//245
f 138//246 141//246 120//246
f 117//247 138//247 120//247
f 122//248 140//248 121//248
f 121//249 140//249 141//249
f 121//250 141//250 142//250
f 121//251 139//251 119//251
f 121//252 142//252 139//252
f 124//253 120//253 140//253
f 140//254 122//254 124//254
f 127//255 126//255 143//255
f 127//256 143//256 129//256
f 143//257 130//257 144//257
f 126//258 130//258 143//258
f 129//259 144//259 131//259
f 143//260 144//260 129//260
f 130//261 132//261 144//261
f 131//262 144//262 132//262
f 145//263 147//263 146//263
f 148//264 147//264 149//264
f 148//265 146//265 147//265
f 150//266 148//266 149//266
f 145//267 134//267 147//267
f 133//268 134//268 145//268
f 151//269 133//269 145//269
f 134//270 135//270 147//270
f 135//271 149//271 147//271
f 137//272 149//272 135//272
f 150//273 149//273 137//273
f 152//274 150//274 137//274
f 138//275 154//275 153//275
f 151//276 154//276 138//276
f 133//277 151//277 138//277
f 155//278 153//278 156//278
f 153//279 154//279 156//279
f 152//280 155//280 156//280
f 139//281 155//281 152//281
f 137//282 139//282 152//282
f 141//283 138//283 153//283
f 153//284 142//284 141//284
f 153//285 155//285 142//285
f 155//286 139//286 142//286
f 157//287 146//287 158//287
f 157//288 145//288 146//288
f 146//289 148//289 159//289
f 158//290 146//290 159//290
f 150//291 159//291 148//291
f 150//292 160//292 159//292
f 151//293 145//293 157//293
f 151//294 157//294 161//294
f 162//295 164//295 163//295
f 160//296 164//296 162//296
f 152//297 164//297 160//297
f 150//298 152//298 160//298
f 165//299 151//299 161//299
f 165//300 154//300 151//300
f 156//301 163//301 164//301
f 165//302 163//302 156//302
f 154//303 165//303 156//303
f 164//304 152//304 156//304
f 157//305 158//305 166//305
f 158//306 167//306 166//306
f 168//307 167//307 158//307
f 159//308 168//308 158//308
f 160//309 168//309 159//309
f 160//310 169//310 168//310
f 161//311 166//311 170//311
f 161//312 157//312 166//312
f 162//313 163//313 171//313
f 171//314 163//314 166//314
f 166//315 163//315 170//315
f 166//316 167//316 171//316
f 162//317 169//317 160//317
f 162//318 171//318 169//318
f 165//319 161//319 170//319
f 170//320 163//320 165//320
f 167//321 168//321 172//321
f 172//322 168//322 169//322
f 171//323 167//323 172//323
f 172//324 169//324 171//324
f 173//325 175//325 174//325
f 176//326 174//326 175//326
f 177//327 175//327 173//327
f 177//328 176//328 175//328
f 173//329 174//329 178//329
f 178//330 174//330 176//330
f 177//331 173//331 178//331
f 178//332 176//332 177//332

# Thankyou for using Spin3D

