# Created using Spin3D

# Vertex Array
v 20.580 -47.064 20.847
v 20.567 -47.061 20.846
v 20.546 -47.063 20.847
v 20.640 -47.068 20.847
v 20.622 -47.065 20.843
v 20.677 -47.070 20.851
v 20.676 -47.069 20.845
v 20.697 -47.068 20.847
v 20.561 -47.064 20.850
v 20.590 -47.064 20.855
v 20.615 -47.067 20.853
v 20.654 -47.069 20.854
v 20.682 -47.068 20.850
v 20.622 -47.067 20.858
v 20.766 -43.783 0.938
v 20.767 -43.784 0.939
v 20.767 -43.785 0.937
v 20.768 -43.783 0.938
v 20.767 -43.783 0.936
v 20.567 -47.062 20.851
v 20.604 -47.063 20.848
v 20.664 -47.067 20.847
v 20.629 -47.066 20.853
v -18.344 -42.680 16.055
v -18.342 -42.680 16.056
v -18.342 -42.681 16.055
v -18.341 -42.680 16.055
v -18.342 -42.680 16.054
v 20.767 -43.782 0.938
v 10.592 -42.414 30.425
v 10.593 -42.416 30.426
v 10.592 -42.414 30.431
v 10.595 -42.416 30.430
v 10.591 -42.415 30.434
v 10.591 -42.417 30.434
v 10.587 -42.415 30.432
v 10.587 -42.414 30.436
v 10.584 -42.416 30.437
v 10.587 -42.416 30.438
v 10.584 -42.417 30.439
v -18.342 -42.679 16.055
v 10.590 -42.417 30.428
v 10.591 -42.417 30.430
v 7.851 -36.636 27.770
v 7.843 -36.598 27.692
v 7.872 -36.675 27.819
v 7.845 -36.629 27.747
v 10.587 -42.418 30.435
v 7.837 -36.586 27.664
v 7.788 -36.474 27.504
v 7.792 -36.510 27.576
v 7.731 -36.349 27.310
v 7.829 -36.607 27.730
v 7.797 -36.532 27.595
v 7.697 -36.250 27.131
v 7.674 -36.206 27.067
v 7.755 -36.383 27.331
v 7.761 -36.419 27.389
v 7.640 -36.108 26.893
v 7.625 -36.072 26.814
v 7.654 -36.135 26.918
v 7.681 -36.208 27.027
v 7.634 -36.090 26.831
v 7.719 -36.336 27.288
v 7.778 -36.491 27.541
v 7.656 -36.163 26.985
v 7.723 -36.347 27.289
v 7.664 -36.177 26.984
v 45.017 -15.748 -29.465
v 45.034 -15.714 -29.383
v 45.395 -15.766 -29.573
v 45.424 -15.614 -29.531
v 45.376 -15.705 -29.663
v 45.141 -15.577 -29.620
v 45.720 -15.611 -29.714
v 45.729 -15.615 -29.797
v 45.937 -15.444 -29.880
v 45.571 -15.387 -29.845
v 45.925 -15.348 -29.956
v 20.777 -20.278 18.488
v 21.065 -20.236 18.588
v 21.105 -20.321 18.539
v 21.366 -20.285 18.602
v -9.019 -21.583 16.557
v -9.018 -21.583 16.558
v -9.018 -21.584 16.557
v -9.017 -21.583 16.557
v 20.960 -20.309 18.477
v 20.700 -20.247 18.430
v 21.288 -20.293 18.537
v -9.018 -21.582 16.556
v 21.002 -20.213 18.458
v 44.655 -15.481 -29.337
v 44.835 -15.502 -29.342
v 44.749 -15.660 -29.328
v 45.147 -15.522 -29.416
v 45.399 -15.415 -29.538
v 44.806 -15.540 -29.448
v 44.788 -15.304 -29.472
v 45.741 -15.273 -29.769
v 45.996 -15.188 -29.971
v 45.169 -15.232 -29.699
v 45.558 -15.072 -29.911
v 45.845 -15.019 -30.001
v 20.518 -20.113 18.478
v 20.828 -20.118 18.564
v 20.659 -20.194 18.511
v 21.217 -20.133 18.642
v 21.465 -20.193 18.657
v 21.558 -20.227 18.615
v 21.602 -20.142 18.654
v -9.018 -21.581 16.557
v 20.510 -20.182 18.437
v 20.468 -20.089 18.428
v 21.409 -20.210 18.542
v 21.552 -20.148 18.598
v 20.604 -20.140 18.408
v 20.853 -20.094 18.440
v 21.242 -20.116 18.517
v 44.811 -15.282 -29.423
v 45.247 -15.174 -29.576
v 45.107 -15.042 -29.637
v 45.695 -14.833 -29.878
v 45.457 -14.801 -29.808
v 45.808 -14.744 -29.999
v 45.919 -14.940 -29.977
v 45.538 -14.840 -29.900
v 20.677 -20.048 18.495
v 21.102 -20.057 18.595
v 21.442 -20.103 18.660
v 20.630 -20.055 18.434
v 20.970 -20.041 18.508
v 21.395 -20.076 18.604
v 45.671 -14.670 -29.945
v -0.479 -5.880 21.332
v -0.330 -5.968 21.377
v -0.241 -5.999 21.375
v -0.055 -6.101 21.422
v 0.049 -6.128 21.409
v 0.206 -6.200 21.433
v 0.228 -6.176 21.392
v 0.353 -6.245 21.423
v 12.223 -5.837 20.828
v 12.225 -5.838 20.825
v 12.225 -5.837 20.827
v 12.226 -5.839 20.825
v -0.404 -5.882 21.298
v -0.108 -5.999 21.316
v -0.382 -5.831 21.223
v 0.285 -6.183 21.376
v 0.076 -6.047 21.299
v 12.225 -5.838 20.830
v 12.223 -5.842 20.831
v 12.226 -5.840 20.830
v -0.170 -5.903 21.224
v 12.225 -5.842 20.833
v -0.522 -5.848 21.315
v -0.379 -5.913 21.331
v -0.058 -6.068 21.385
v 0.023 -6.036 21.311
v 0.252 -6.193 21.404
v 12.223 -5.842 20.827
v 12.225 -5.842 20.825
v 12.226 -5.844 20.829
v -0.539 -5.801 21.259
v -0.469 -5.780 21.200
v -0.126 -5.915 21.221
v 12.223 -5.847 20.831
v 12.226 -5.845 20.834
v -0.320 -5.819 21.183
v 12.225 -5.846 20.833
v 5.762 2.926 -22.539
v 5.848 2.883 -22.290
v 5.763 2.924 -22.540
v 5.764 2.926 -22.539
v 5.525 3.043 -23.241
v 5.573 3.021 -23.112
v 5.568 3.024 -23.111
v 5.289 3.162 -23.942
v 5.341 3.137 -23.794
v 5.138 3.240 -24.390
v 5.190 3.209 -24.216
v 5.332 3.139 -23.794
v 5.044 3.284 -24.659
v 5.014 3.302 -24.749
v 5.009 3.298 -24.749
v 5.130 3.239 -24.388
v 4.956 3.328 -24.913
v -0.482 -5.818 21.259
v -0.260 -5.925 21.296
v 12.225 -5.846 20.828
v -0.301 -5.853 21.220
v 12.225 -5.847 20.832
v 5.766 2.924 -22.540
v 5.528 3.045 -23.241
v 5.195 3.211 -24.217
v 5.285 3.165 -23.940
v 5.041 3.286 -24.658
v 42.632 7.225 -14.848
v 42.634 7.225 -14.847
v 42.633 7.224 -14.848
v 42.635 7.225 -14.848
v 42.634 7.225 -14.849
v 42.634 7.226 -14.848
v 7.097 44.315 -5.949
v 7.096 44.316 -5.951
v 7.095 44.315 -5.949
v 7.093 44.315 -5.950
v 7.095 44.315 -5.947
v 7.097 44.317 -5.950
v 7.095 44.317 -5.951
v 7.093 44.317 -5.949
v 7.096 44.317 -5.947
v 7.095 44.317 -5.949

# Normal Array
vn -0.016 -0.385 -0.923
vn -0.048 -0.885 -0.463
vn -0.072 -0.582 -0.810
vn -0.041 -0.986 -0.160
vn -0.054 -0.895 -0.443
vn 0.055 -0.984 -0.170
vn -0.048 -0.997 -0.061
vn -0.087 -0.898 0.432
vn -0.060 -0.989 -0.136
vn -0.056 -0.986 -0.158
vn 0.164 -0.146 0.976
vn -0.048 -0.983 -0.180
vn -0.046 -0.993 -0.113
vn 0.201 -0.294 0.934
vn -0.116 -0.975 0.190
vn -0.060 -0.992 0.108
vn -0.580 -0.656 0.484
vn 0.576 -0.658 0.485
vn -0.574 -0.470 -0.671
vn 0.578 -0.469 -0.668
vn -0.054 0.986 0.158
vn 0.056 0.990 -0.132
vn 0.039 0.985 0.169
vn 0.083 0.815 -0.574
vn 0.052 0.988 -0.145
vn 0.028 0.670 -0.742
vn -0.216 -0.029 0.976
vn -0.175 -0.199 0.964
vn 0.048 0.991 0.128
vn 0.044 0.974 0.223
vn 0.080 0.726 0.683
vn 0.062 0.975 0.211
vn 0.056 0.983 0.174
vn 0.048 0.956 0.289
vn -0.616 -0.641 0.457
vn 0.546 -0.682 0.487
vn 0.056 0.906 0.419
vn 0.110 0.865 0.490
vn -0.610 -0.450 -0.652
vn 0.551 -0.474 -0.687
vn -0.577 0.466 0.671
vn 0.572 0.468 0.674
vn -0.580 0.658 -0.481
vn 0.583 0.656 -0.480
vn 0.867 0.488 0.099
vn 0.515 0.833 0.204
vn 0.384 0.902 -0.199
vn 0.762 -0.112 0.638
vn -0.197 0.979 0.057
vn -0.598 0.769 -0.227
vn -0.289 0.929 -0.232
vn 0.205 0.959 0.193
vn 0.681 -0.070 0.729
vn 0.483 0.537 0.692
vn -0.414 0.831 0.371
vn 0.229 0.571 0.788
vn -0.583 0.523 0.622
vn 0.611 0.453 0.650
vn -0.545 0.684 -0.485
vn 0.582 0.622 -0.523
vn -0.302 -0.440 -0.845
vn 0.434 -0.893 -0.120
vn 0.115 -0.937 -0.330
vn 0.453 -0.887 0.087
vn -0.826 0.171 -0.537
vn 0.653 0.704 0.278
vn -0.938 -0.314 0.149
vn -0.691 -0.553 -0.465
vn -0.844 -0.422 -0.332
vn -0.241 -0.951 -0.194
vn 0.326 -0.713 0.620
vn 0.182 -0.980 0.081
vn 0.956 -0.097 -0.275
vn -0.691 -0.555 -0.463
vn -0.383 -0.837 -0.392
vn 0.520 -0.625 0.583
vn 0.471 0.798 0.377
vn 0.634 0.719 0.287
vn 0.458 0.803 0.380
vn 0.240 0.846 0.476
vn -0.804 -0.594 0.022
vn -0.678 -0.698 -0.230
vn 0.640 0.717 0.276
vn 0.588 0.750 0.304
vn 0.972 0.009 -0.233
vn 0.776 0.607 0.171
vn 0.815 0.562 0.140
vn 0.035 -0.850 -0.526
vn -0.434 -0.818 -0.377
vn -0.504 -0.792 -0.345
vn 0.585 0.751 0.306
vn 0.847 0.524 0.087
vn 0.825 0.550 0.129
vn 0.825 0.551 0.129
vn 0.226 -0.820 -0.526
vn 0.978 0.143 -0.153
vn 0.861 0.504 0.072
vn 0.972 0.207 -0.109
vn -0.005 0.855 0.519
vn -0.388 0.734 0.558
vn -0.292 0.784 0.548
vn -0.863 -0.499 -0.075
vn -0.914 0.240 0.328
vn 0.040 0.865 0.501
vn -0.941 -0.337 0.012
vn -0.941 -0.338 0.004
vn -0.622 -0.728 -0.289
vn -0.805 -0.574 -0.152
vn -0.766 0.485 0.423
vn -0.977 0.059 0.206
vn -0.848 -0.516 -0.124
vn -0.848 -0.516 -0.124
vn -0.617 -0.731 -0.290
vn -0.629 -0.724 -0.283
vn -0.807 -0.567 -0.165
vn -0.600 -0.740 -0.304
vn 0.063 -0.926 0.372
vn 0.406 -0.312 0.859
vn -0.188 -0.831 -0.524
vn -0.391 -0.443 -0.807
vn 0.500 -0.315 0.807
vn 0.462 -0.881 0.097
vn -0.004 -0.828 -0.561
vn 0.657 -0.745 0.110
vn -0.332 -0.307 -0.892
vn -0.250 -0.361 -0.898
vn -0.244 -0.358 -0.901
vn 0.177 -0.596 -0.783
vn -0.198 -0.557 0.807
vn -0.127 -0.539 0.833
vn -0.571 -0.689 0.447
vn 0.564 -0.696 0.444
vn -0.154 -0.974 0.168
vn -0.177 -0.947 -0.268
vn 0.150 -0.987 -0.053
vn 0.128 -0.871 -0.474
vn -0.555 -0.465 -0.690
vn 0.555 -0.482 -0.678
vn 0.116 -0.245 -0.963
vn 0.186 -0.273 -0.944
vn 0.038 0.070 0.997
vn -0.096 -0.912 0.400
vn 0.188 -0.014 0.982
vn 0.233 0.031 0.972
vn 0.367 -0.056 0.929
vn 0.405 0.082 0.911
vn -0.641 -0.370 -0.673
vn -0.619 -0.125 -0.776
vn -0.453 -0.393 -0.800
vn -0.520 -0.468 -0.714
vn 0.530 0.095 0.843
vn 0.521 0.107 0.847
vn 0.556 0.101 0.825
vn 0.583 0.149 0.799
vn -0.492 -0.124 -0.862
vn -0.464 -0.165 -0.871
vn -0.395 -0.178 -0.902
vn -0.402 -0.205 -0.893
vn -0.275 -0.193 -0.942
vn -0.254 -0.210 -0.944
vn 0.719 -0.373 -0.587
vn 0.062 -0.118 -0.991
vn -0.266 -0.077 0.961
vn -0.210 -0.520 0.828
vn -0.203 -0.213 0.956
vn -0.201 -0.209 0.957
vn 0.128 -0.609 0.783
vn -0.110 -0.420 0.901
vn -0.130 -0.307 0.943
vn 0.201 -0.488 0.849
vn -0.586 0.477 0.656
vn 0.589 0.464 0.662
vn -0.429 -0.428 0.795
vn -0.747 -0.275 0.606
vn -0.322 -0.944 -0.075
vn -0.366 -0.687 0.628
vn 0.350 -0.460 -0.816
vn 0.295 -0.926 -0.235
vn 0.741 -0.086 -0.666
vn 0.421 -0.161 -0.893
vn -0.568 0.652 -0.501
vn 0.578 0.647 -0.497
vn -0.211 -0.185 -0.960
vn -0.142 -0.322 -0.936
vn 0.103 -0.111 -0.988
vn 0.126 0.008 -0.992
vn 0.199 -0.233 -0.952
vn 0.201 0.098 -0.975
vn 0.199 0.103 -0.974
vn 0.268 0.228 -0.936
vn 0.069 0.349 0.935
vn 0.238 0.348 0.907
vn 0.230 0.356 0.906
vn 0.295 0.327 0.898
vn -0.643 0.765 -0.029
vn -0.764 0.639 0.085
vn 0.309 0.371 0.876
vn 0.088 0.490 0.867
vn 0.156 0.543 0.825
vn 0.518 0.380 0.766
vn 0.490 0.258 0.833
vn 0.396 0.260 0.880
vn 0.402 0.384 0.831
vn 0.568 0.195 0.799
vn -0.525 0.108 -0.844
vn -0.606 0.387 -0.694
vn -0.552 0.095 -0.829
vn -0.478 0.001 -0.878
vn 0.267 0.042 -0.963
vn -0.331 -0.040 -0.943
vn -0.300 0.020 -0.954
vn 0.253 0.056 -0.966
vn -0.242 0.362 0.900
vn -0.177 0.312 0.933
vn -0.198 0.436 0.878
vn -0.070 -0.050 0.996
vn -0.121 0.386 0.915
vn 0.030 -0.024 0.999
vn -0.208 0.976 0.060
vn -0.342 0.664 0.665
vn -0.034 0.972 0.232
vn -0.020 0.996 -0.087
vn 0.047 0.914 0.402
vn 0.062 0.994 0.091
vn 0.363 0.833 -0.417
vn 0.235 0.938 0.255
vn -0.026 0.299 -0.954
vn 0.073 0.271 -0.960
vn 0.136 0.657 -0.742
vn 0.189 0.592 -0.783
vn 0.213 0.690 -0.691
vn 0.256 0.626 -0.737
vn 0.309 0.399 0.863
vn 0.511 0.389 0.766
vn -0.642 0.319 -0.697
vn -0.353 0.029 -0.935
vn -0.291 -0.775 -0.560
vn -0.269 -0.766 -0.584
vn -0.297 -0.792 -0.533
vn -0.263 -0.768 -0.584
vn -0.270 -0.778 -0.567
vn -0.272 -0.763 -0.586
vn -0.331 0.723 -0.607
vn 0.333 0.801 -0.497
vn -0.286 -0.769 -0.572
vn -0.262 -0.757 -0.599
vn -0.261 -0.754 -0.602
vn -0.262 -0.754 -0.603
vn -0.261 -0.748 -0.610
vn -0.252 -0.744 -0.619
vn -0.261 -0.753 -0.604
vn -0.260 -0.751 -0.607
vn 0.276 0.933 0.232
vn -0.722 0.352 0.596
vn 0.815 0.547 0.189
vn 0.882 0.468 0.053
vn -0.254 -0.749 -0.612
vn -0.253 -0.749 -0.612
vn -0.824 0.371 0.428
vn 0.826 0.291 0.483
vn 0.264 0.745 0.613
vn 0.155 0.642 0.751
vn 0.251 0.733 0.632
vn 0.255 0.742 0.619
vn 0.262 0.749 0.609
vn 0.261 0.746 0.613
vn 0.251 0.733 0.633
vn 0.266 0.738 0.620
vn -0.878 0.133 -0.459
vn -0.818 0.035 -0.574
vn -0.217 0.103 -0.971
vn 0.718 -0.473 -0.510
vn -0.322 -0.765 -0.558
vn -0.290 -0.761 -0.581
vn -0.278 -0.750 -0.600
vn -0.278 -0.753 -0.596
vn 0.283 0.763 0.582
vn 0.287 0.767 0.574
vn 0.286 0.772 0.567
vn 0.285 0.761 0.583
vn -1.000 0.000 0.000
vn -0.999 0.040 0.004
vn 0.999 -0.038 0.032
vn 0.999 -0.019 -0.047
vn -0.264 -0.739 -0.619
vn -0.254 -0.752 -0.608
vn -0.252 -0.748 -0.614
vn -0.252 -0.750 -0.612
vn -0.814 0.009 0.581
vn -0.883 -0.097 0.459
vn 0.722 0.459 0.518
vn -0.236 -0.072 0.969
vn -0.797 -0.579 0.173
vn -0.023 0.984 0.179
vn -0.797 -0.579 0.174
vn -0.067 -0.987 -0.145
vn -0.023 0.984 0.175
vn -0.945 0.032 0.326
vn 0.483 -0.820 -0.306
vn 0.347 -0.898 -0.271
vn -0.073 -0.987 -0.142
vn -0.087 -0.987 -0.138
vn -0.913 -0.313 0.263
vn -0.629 -0.773 0.084
vn 0.495 -0.813 -0.308
vn 0.884 -0.301 -0.359
vn -0.490 -0.871 0.020
vn 0.197 -0.954 -0.228
vn -0.022 -0.987 -0.161
vn -0.553 -0.832 0.049
vn 0.879 -0.312 -0.360
vn 0.310 -0.913 -0.266
vn 0.269 0.754 0.600
vn 0.258 0.746 0.614
vn 0.257 0.749 0.610
vn 0.262 0.749 0.609
vn -0.833 -0.351 -0.428
vn 0.828 -0.302 -0.472
vn 0.241 0.772 0.589
vn 0.245 0.785 0.569
vn 0.270 0.777 0.569
vn 0.271 0.767 0.582
vn 0.269 0.765 0.585
vn 0.271 0.767 0.582
vn 0.231 -0.945 -0.233
vn -0.731 -0.334 -0.594
vn 0.808 -0.558 -0.189
vn 0.878 -0.476 -0.054
vn 0.268 0.774 0.573
vn 0.272 0.774 0.571
vn -0.326 -0.727 0.604
vn 0.307 -0.808 0.504
vn 0.011 -0.986 -0.167
vn 0.796 0.583 -0.164
vn 0.877 0.426 -0.224
vn 0.010 -0.985 -0.170
vn 0.090 0.986 0.137
vn 0.794 0.584 -0.168
vn 0.526 0.850 -0.033
vn 0.891 0.388 -0.236
vn 0.712 0.691 -0.125
vn 0.102 0.986 0.133
vn -0.177 0.959 0.223
vn 0.085 0.987 0.139
vn -0.224 0.945 0.238
vn 0.476 0.879 -0.012
vn -0.803 0.484 0.348
vn -0.372 0.886 0.276
vn 0.022 0.987 0.159
vn -0.285 0.925 0.252
vn -0.362 0.893 0.269
vn -0.797 0.495 0.348
vn -0.582 -0.630 0.514
vn 0.572 -0.678 0.462
vn -0.599 -0.445 -0.665
vn 0.589 -0.506 -0.630
vn -0.556 0.458 0.693
vn 0.596 0.443 0.670
vn -0.570 0.675 -0.468
vn 0.613 0.649 -0.450
vn 0.273 -0.906 -0.324
vn -0.193 -0.882 -0.430
vn 0.163 -0.977 0.135
vn -0.300 -0.954 0.029
vn 0.524 0.404 -0.750
vn 0.811 -0.210 -0.546
vn -0.514 -0.139 -0.847
vn -0.805 0.376 -0.458
vn 0.811 0.185 0.555
vn 0.502 -0.407 0.763
vn -0.816 -0.360 0.453
vn -0.518 0.154 0.842
vn 0.178 0.980 -0.089
vn -0.248 0.969 0.004
vn 0.261 0.921 0.289
vn -0.164 0.910 0.380

# Facets
f 1//1 3//1 2//1
f 1//2 5//2 4//2
f 2//3 5//3 1//3
f 4//4 7//4 6//4
f 5//5 7//5 4//5
f 7//6 8//6 6//6
f 1//7 9//7 3//7
f 9//8 11//8 10//8
f 9//9 1//9 11//9
f 1//10 4//10 11//10
f 12//11 6//11 13//11
f 12//12 11//12 6//12
f 11//13 4//13 6//13
f 8//14 13//14 6//14
f 11//15 14//15 10//15
f 12//16 14//16 11//16
f 15//17 17//17 16//17
f 18//18 16//18 17//18
f 19//19 17//19 15//19
f 19//20 18//20 17//20
f 2//21 3//21 20//21
f 2//22 21//22 5//22
f 20//23 21//23 2//23
f 5//24 22//24 7//24
f 21//25 22//25 5//25
f 7//26 22//26 8//26
f 3//27 9//27 20//27
f 10//28 20//28 9//28
f 10//29 23//29 20//29
f 23//30 21//30 20//30
f 13//31 23//31 12//31
f 13//32 22//32 23//32
f 22//33 21//33 23//33
f 8//34 22//34 13//34
f 24//35 26//35 25//35
f 27//36 25//36 26//36
f 10//37 14//37 23//37
f 12//38 23//38 14//38
f 28//39 26//39 24//39
f 28//40 27//40 26//40
f 15//41 16//41 29//41
f 29//42 16//42 18//42
f 19//43 15//43 29//43
f 29//44 18//44 19//44
f 30//45 32//45 31//45
f 33//46 32//46 34//46
f 33//47 31//47 32//47
f 35//48 33//48 34//48
f 36//49 32//49 30//49
f 37//50 36//50 38//50
f 32//51 36//51 37//51
f 34//52 32//52 37//52
f 34//53 39//53 35//53
f 34//54 37//54 39//54
f 40//55 37//55 38//55
f 40//56 39//56 37//56
f 24//57 25//57 41//57
f 41//58 25//58 27//58
f 28//59 24//59 41//59
f 41//60 27//60 28//60
f 30//61 31//61 42//61
f 43//62 31//62 33//62
f 43//63 42//63 31//63
f 43//64 33//64 35//64
f 30//65 42//65 36//65
f 44//66 46//66 45//66
f 47//67 46//67 44//67
f 48//68 38//68 36//68
f 42//69 48//69 36//69
f 43//70 48//70 42//70
f 48//71 35//71 39//71
f 48//72 43//72 35//72
f 46//73 49//73 45//73
f 40//74 38//74 48//74
f 46//75 47//75 49//75
f 48//76 39//76 40//76
f 50//77 52//77 51//77
f 50//78 44//78 45//78
f 50//79 51//79 44//79
f 51//80 53//80 44//80
f 53//81 47//81 44//81
f 54//82 47//82 53//82
f 55//83 52//83 50//83
f 56//84 52//84 55//84
f 45//85 49//85 57//85
f 45//86 57//86 50//86
f 50//87 57//87 55//87
f 49//88 58//88 57//88
f 49//89 47//89 58//89
f 47//90 54//90 58//90
f 55//91 59//91 56//91
f 59//92 61//92 60//92
f 59//93 55//93 61//93
f 55//94 57//94 61//94
f 62//95 57//95 58//95
f 61//96 57//96 62//96
f 61//97 63//97 60//97
f 62//98 63//98 61//98
f 51//99 52//99 64//99
f 51//100 65//100 53//100
f 64//101 65//101 51//101
f 53//102 65//102 54//102
f 64//103 56//103 66//103
f 52//104 56//104 64//104
f 65//105 64//105 67//105
f 67//106 64//106 66//106
f 54//107 67//107 58//107
f 65//108 67//108 54//108
f 56//109 59//109 66//109
f 60//110 66//110 59//110
f 60//111 68//111 66//111
f 68//112 67//112 66//112
f 58//113 68//113 62//113
f 67//114 68//114 58//114
f 60//115 63//115 68//115
f 62//116 68//116 63//116
f 69//117 71//117 70//117
f 72//118 70//118 71//118
f 69//119 73//119 71//119
f 69//120 74//120 73//120
f 71//121 75//121 72//121
f 76//122 75//122 71//122
f 73//123 76//123 71//123
f 77//124 75//124 76//124
f 78//125 73//125 74//125
f 78//126 76//126 73//126
f 78//127 79//127 76//127
f 79//128 77//128 76//128
f 80//129 82//129 81//129
f 83//130 81//130 82//130
f 84//131 86//131 85//131
f 87//132 85//132 86//132
f 80//133 88//133 82//133
f 80//134 89//134 88//134
f 82//135 90//135 83//135
f 82//136 88//136 90//136
f 91//137 86//137 84//137
f 91//138 87//138 86//138
f 92//139 88//139 89//139
f 92//140 90//140 88//140
f 93//141 95//141 94//141
f 70//142 95//142 69//142
f 94//143 95//143 70//143
f 96//144 94//144 70//144
f 72//145 96//145 70//145
f 72//146 97//146 96//146
f 93//147 98//147 95//147
f 93//148 99//148 98//148
f 74//149 69//149 98//149
f 69//150 95//150 98//150
f 97//151 72//151 100//151
f 72//152 75//152 100//152
f 77//153 100//153 75//153
f 77//154 101//154 100//154
f 102//155 98//155 99//155
f 102//156 74//156 98//156
f 78//157 74//157 102//157
f 103//158 78//158 102//158
f 104//159 79//159 78//159
f 104//160 78//160 103//160
f 79//161 101//161 77//161
f 79//162 104//162 101//162
f 105//163 107//163 106//163
f 81//164 107//164 80//164
f 106//165 107//165 81//165
f 108//166 106//166 81//166
f 109//167 83//167 110//167
f 81//168 83//168 109//168
f 108//169 81//169 109//169
f 111//170 109//170 110//170
f 84//171 85//171 112//171
f 112//172 85//172 87//172
f 105//173 113//173 107//173
f 105//174 114//174 113//174
f 89//175 80//175 113//175
f 80//176 107//176 113//176
f 115//177 110//177 90//177
f 110//178 83//178 90//178
f 110//179 116//179 111//179
f 110//180 115//180 116//180
f 91//181 84//181 112//181
f 112//182 87//182 91//182
f 117//183 113//183 114//183
f 117//184 89//184 113//184
f 92//185 89//185 117//185
f 118//186 92//186 117//186
f 92//187 115//187 90//187
f 119//188 115//188 92//188
f 118//189 119//189 92//189
f 119//190 116//190 115//190
f 93//191 94//191 120//191
f 121//192 94//192 96//192
f 121//193 120//193 94//193
f 121//194 96//194 97//194
f 99//195 120//195 122//195
f 99//196 93//196 120//196
f 123//197 124//197 121//197
f 121//198 124//198 122//198
f 121//199 122//199 120//199
f 123//200 126//200 125//200
f 123//201 100//201 126//201
f 121//202 100//202 123//202
f 97//203 100//203 121//203
f 126//204 100//204 101//204
f 102//205 99//205 122//205
f 127//206 122//206 124//206
f 102//207 122//207 127//207
f 103//208 102//208 127//208
f 104//209 125//209 126//209
f 127//210 125//210 104//210
f 103//211 127//211 104//211
f 126//212 101//212 104//212
f 105//213 106//213 128//213
f 129//214 106//214 108//214
f 129//215 128//215 106//215
f 130//216 108//216 109//216
f 130//217 129//217 108//217
f 130//218 109//218 111//218
f 114//219 128//219 131//219
f 114//220 105//220 128//220
f 128//221 129//221 132//221
f 128//222 132//222 131//222
f 129//223 130//223 133//223
f 129//224 133//224 132//224
f 133//225 111//225 116//225
f 133//226 130//226 111//226
f 117//227 114//227 131//227
f 131//228 118//228 117//228
f 131//229 132//229 118//229
f 132//230 119//230 118//230
f 132//231 133//231 119//231
f 133//232 116//232 119//232
f 124//233 123//233 134//233
f 134//234 123//234 125//234
f 127//235 124//235 134//235
f 134//236 125//236 127//236
f 135//237 137//237 136//237
f 138//238 137//238 139//238
f 138//239 136//239 137//239
f 140//240 139//240 141//240
f 140//241 138//241 139//241
f 142//242 140//242 141//242
f 143//243 145//243 144//243
f 146//244 144//244 145//244
f 147//245 137//245 135//245
f 148//246 147//246 149//246
f 137//247 147//247 148//247
f 139//248 137//248 148//248
f 141//249 151//249 150//249
f 148//250 151//250 141//250
f 139//251 148//251 141//251
f 150//252 142//252 141//252
f 143//253 152//253 145//253
f 143//254 153//254 152//254
f 145//255 154//255 146//255
f 145//256 152//256 154//256
f 155//257 148//257 149//257
f 155//258 151//258 148//258
f 156//259 152//259 153//259
f 156//260 154//260 152//260
f 157//261 136//261 158//261
f 157//262 135//262 136//262
f 136//263 138//263 159//263
f 158//264 136//264 159//264
f 159//265 161//265 160//265
f 140//266 161//266 159//266
f 138//267 140//267 159//267
f 161//268 140//268 142//268
f 162//269 144//269 163//269
f 162//270 143//270 144//270
f 146//271 163//271 144//271
f 146//272 164//272 163//272
f 165//273 135//273 157//273
f 165//274 147//274 135//274
f 147//275 165//275 149//275
f 165//276 166//276 149//276
f 161//277 150//277 160//277
f 160//278 150//278 151//278
f 160//279 151//279 167//279
f 161//280 142//280 150//280
f 153//281 143//281 162//281
f 153//282 162//282 168//282
f 164//283 146//283 154//283
f 169//284 164//284 154//284
f 170//285 149//285 166//285
f 170//286 155//286 149//286
f 155//287 167//287 151//287
f 155//288 170//288 167//288
f 171//289 153//289 168//289
f 171//290 156//290 153//290
f 156//291 169//291 154//291
f 156//292 171//292 169//292
f 172//293 174//293 173//293
f 173//294 175//294 172//294
f 176//295 174//295 172//295
f 177//296 174//296 176//296
f 178//297 172//297 175//297
f 176//298 172//298 178//298
f 179//299 181//299 180//299
f 177//300 179//300 180//300
f 177//301 176//301 179//301
f 176//302 182//302 179//302
f 183//303 176//303 178//303
f 182//304 176//304 183//304
f 184//305 181//305 179//305
f 185//306 181//306 184//306
f 186//307 182//307 187//307
f 186//308 184//308 182//308
f 184//309 179//309 182//309
f 183//310 187//310 182//310
f 184//311 188//311 185//311
f 186//312 188//312 184//312
f 157//313 158//313 189//313
f 190//314 158//314 159//314
f 190//315 189//315 158//315
f 190//316 159//316 160//316
f 162//317 163//317 191//317
f 191//318 163//318 164//318
f 165//319 157//319 189//319
f 189//320 166//320 165//320
f 192//321 166//321 189//321
f 190//322 192//322 189//322
f 192//323 160//323 167//323
f 192//324 190//324 160//324
f 168//325 191//325 193//325
f 168//326 162//326 191//326
f 193//327 164//327 169//327
f 193//328 191//328 164//328
f 170//329 166//329 192//329
f 192//330 167//330 170//330
f 171//331 168//331 193//331
f 193//332 169//332 171//332
f 173//333 174//333 194//333
f 173//334 194//334 175//334
f 194//335 177//335 195//335
f 174//336 177//336 194//336
f 175//337 195//337 178//337
f 194//338 195//338 175//338
f 180//339 181//339 196//339
f 180//340 195//340 177//340
f 180//341 196//341 195//341
f 196//342 197//342 195//342
f 178//343 197//343 183//343
f 195//344 197//344 178//344
f 196//345 185//345 198//345
f 181//346 185//346 196//346
f 187//347 198//347 186//347
f 187//348 197//348 198//348
f 197//349 196//349 198//349
f 183//350 197//350 187//350
f 185//351 188//351 198//351
f 186//352 198//352 188//352
f 199//353 201//353 200//353
f 202//354 200//354 201//354
f 203//355 201//355 199//355
f 203//356 202//356 201//356
f 199//357 200//357 204//357
f 204//358 200//358 202//358
f 203//359 199//359 204//359
f 204//360 202//360 203//360
f 205//361 207//361 206//361
f 208//362 206//362 207//362
f 209//363 207//363 205//363
f 209//364 208//364 207//364
f 210//365 206//365 211//365
f 210//366 205//366 206//366
f 208//367 211//367 206//367
f 208//368 212//368 211//368
f 213//369 205//369 210//369
f 213//370 209//370 205//370
f 209//371 212//371 208//371
f 209//372 213//372 212//372
f 210//373 211//373 214//373
f 214//374 211//374 212//374
f 213//375 210//375 214//375
f 214//376 212//376 213//376

# Thankyou for using Spin3D

