# Created using Spin3D

# Vertex Array
v 11.864 -12.278 29.497
v 11.906 -12.131 29.850
v 12.493 -12.552 29.666
v 12.837 -12.368 29.836
v 12.336 -12.310 29.493
v 6.377 -9.014 29.582
v 7.323 -9.213 30.160
v 8.402 -10.330 29.521
v 9.992 -10.853 30.016
v 10.490 -11.522 29.472
v 11.574 -11.590 30.129
v 12.637 -12.037 30.135
v 13.264 -12.355 30.092
v 13.224 -12.192 30.163
v 7.567 -9.854 29.067
v 6.681 -9.054 29.024
v 9.165 -10.682 29.010
v 11.082 -11.523 29.161
v 12.137 -11.569 29.476
v 12.978 -11.978 29.967
v 7.942 -9.651 28.759
v 9.567 -10.254 28.794
v 10.904 -10.689 29.031
v 4.920 -7.639 30.252
v 5.797 -7.808 30.451
v 5.605 -8.303 30.141
v 7.360 -8.467 30.494
v 8.862 -9.562 30.361
v 10.985 -10.622 30.209
v 11.766 -10.737 29.828
v 12.628 -11.647 30.134
v 5.142 -8.022 29.903
v 5.640 -8.064 29.420
v 11.176 -10.344 29.306
v 6.896 -8.553 28.917
v 8.305 -9.150 28.754
v 9.642 -9.384 29.016
v 4.948 -7.208 30.341
v 5.551 -7.106 30.423
v 6.738 -7.572 30.477
v 8.706 -8.650 30.349
v 8.964 -8.253 29.910
v 10.307 -9.422 30.020
v 4.865 -7.386 29.985
v 5.336 -7.276 29.668
v 10.299 -9.301 29.548
v 8.881 -8.311 29.412
v 6.129 -7.674 29.276
v 7.597 -8.085 29.146
v 5.253 -6.978 30.098
v 6.311 -7.053 30.174
v 7.602 -7.559 30.210
v 6.184 -7.190 29.664
v 7.546 -7.488 29.748
v 15.863 26.392 -8.845
v 15.862 26.393 -8.847
v 15.861 26.392 -8.846
v 15.859 26.393 -8.846
v 15.861 26.392 -8.844
v 15.863 26.394 -8.846
v 15.861 26.394 -8.847
v 15.859 26.394 -8.845
v 15.862 26.394 -8.843
v 15.861 26.395 -8.845

# Normal Array
vn -0.453 -0.802 0.388
vn -0.124 -0.539 0.833
vn -0.046 -0.599 -0.799
vn 0.530 -0.238 -0.814
vn -0.461 -0.732 0.501
vn -0.409 -0.739 0.535
vn -0.411 -0.718 0.562
vn -0.450 -0.804 0.389
vn -0.451 -0.741 0.498
vn -0.325 -0.583 0.745
vn -0.332 -0.735 0.591
vn -0.171 -0.715 0.677
vn -0.238 -0.556 0.796
vn -0.156 -0.427 0.890
vn -0.539 -0.834 0.115
vn -0.633 -0.717 -0.293
vn -0.493 -0.858 -0.146
vn -0.461 -0.884 -0.080
vn -0.036 -0.437 -0.899
vn -0.352 -0.660 -0.664
vn -0.296 -0.775 -0.559
vn 0.288 0.055 -0.956
vn 0.570 0.135 -0.810
vn 0.534 0.090 -0.840
vn 0.509 0.104 -0.854
vn 0.758 0.408 -0.508
vn -0.391 -0.475 -0.788
vn -0.320 -0.565 -0.760
vn -0.114 -0.360 -0.926
vn -0.093 -0.377 -0.921
vn 0.134 -0.124 -0.983
vn 0.282 -0.088 -0.955
vn -0.278 -0.430 0.859
vn -0.428 -0.799 0.423
vn -0.245 -0.445 0.862
vn -0.191 -0.393 0.899
vn -0.210 -0.420 0.883
vn -0.206 -0.391 0.897
vn -0.150 -0.172 0.974
vn -0.103 -0.340 0.935
vn 0.417 0.619 0.666
vn 0.048 0.003 0.999
vn -0.053 -0.114 0.992
vn -0.048 0.001 0.999
vn -0.614 -0.695 0.375
vn -0.581 -0.789 0.199
vn -0.599 -0.562 -0.570
vn -0.712 -0.612 -0.344
vn 0.707 0.701 0.093
vn 0.605 0.523 -0.600
vn 0.734 0.514 -0.443
vn 0.675 0.736 -0.046
vn -0.383 -0.034 -0.923
vn -0.250 -0.100 -0.963
vn 0.014 -0.020 -1.000
vn -0.091 0.056 -0.994
vn 0.240 0.220 -0.946
vn 0.225 0.222 -0.949
vn 0.492 0.271 -0.828
vn 0.389 0.366 -0.846
vn -0.133 -0.007 0.991
vn -0.251 -0.181 0.951
vn -0.028 -0.000 1.000
vn -0.035 0.028 0.999
vn 0.112 0.032 0.993
vn 0.121 0.102 0.987
vn 0.412 0.542 0.732
vn 0.340 0.331 0.880
vn 0.085 0.027 0.996
vn 0.451 0.382 0.807
vn -0.976 0.019 0.218
vn -0.912 -0.375 -0.168
vn -0.690 -0.211 -0.693
vn -0.564 0.042 -0.824
vn 0.637 0.749 0.182
vn 0.574 0.797 -0.188
vn 0.697 0.654 -0.295
vn 0.672 0.720 0.174
vn -0.381 0.140 -0.914
vn -0.343 0.083 -0.936
vn 0.052 0.376 -0.925
vn 0.032 0.402 -0.915
vn 0.468 0.579 -0.668
vn 0.259 0.491 -0.832
vn 0.248 0.476 -0.844
vn 0.478 0.559 -0.678
vn -0.211 0.829 0.519
vn 0.206 0.614 0.761
vn 0.043 0.943 0.331
vn 0.268 0.383 0.884
vn 0.223 0.622 0.751
vn 0.431 0.529 0.731
vn -0.684 0.704 -0.191
vn -0.523 0.650 -0.552
vn -0.085 0.811 -0.578
vn 0.087 0.956 -0.279
vn 0.361 0.927 0.099
vn 0.222 0.926 -0.304
vn 0.483 0.857 -0.180
vn 0.466 0.881 0.079
vn -0.067 0.629 -0.775
vn 0.103 0.615 -0.782
vn 0.196 0.704 -0.682
vn 0.261 0.696 -0.669
vn 0.265 -0.910 -0.320
vn -0.192 -0.882 -0.431
vn 0.162 -0.978 0.130
vn -0.307 -0.951 0.034
vn 0.519 0.413 -0.748
vn 0.814 -0.199 -0.546
vn -0.510 -0.150 -0.847
vn -0.812 0.369 -0.453
vn 0.817 0.198 0.542
vn 0.503 -0.411 0.760
vn -0.813 -0.367 0.451
vn -0.518 0.149 0.843
vn 0.175 0.981 -0.084
vn -0.255 0.967 0.002
vn 0.257 0.925 0.279
vn -0.168 0.907 0.387

# Facets
f 1//1 3//1 2//1
f 4//2 2//2 3//2
f 5//3 3//3 1//3
f 5//4 4//4 3//4
f 6//5 8//5 7//5
f 9//6 8//6 10//6
f 9//7 7//7 8//7
f 2//8 10//8 1//8
f 9//9 10//9 2//9
f 11//10 9//10 2//10
f 12//11 4//11 13//11
f 2//12 4//12 12//12
f 11//13 2//13 12//13
f 14//14 12//14 13//14
f 6//15 15//15 8//15
f 6//16 16//16 15//16
f 17//17 10//17 8//17
f 15//18 17//18 8//18
f 5//19 1//19 18//19
f 18//20 1//20 10//20
f 18//21 10//21 17//21
f 19//22 5//22 18//22
f 19//23 4//23 5//23
f 20//24 4//24 19//24
f 13//25 4//25 20//25
f 20//26 14//26 13//26
f 21//27 15//27 16//27
f 21//28 17//28 15//28
f 21//29 22//29 17//29
f 22//30 18//30 17//30
f 22//31 23//31 18//31
f 23//32 19//32 18//32
f 24//33 26//33 25//33
f 7//34 26//34 6//34
f 25//35 26//35 7//35
f 27//36 25//36 7//36
f 7//37 9//37 28//37
f 27//38 7//38 28//38
f 9//39 11//39 29//39
f 28//40 9//40 29//40
f 29//41 31//41 30//41
f 12//42 31//42 29//42
f 11//43 12//43 29//43
f 31//44 12//44 14//44
f 32//45 26//45 24//45
f 26//46 32//46 6//46
f 6//47 32//47 33//47
f 6//48 33//48 16//48
f 31//49 20//49 30//49
f 30//50 20//50 19//50
f 30//51 19//51 34//51
f 31//52 14//52 20//52
f 35//53 16//53 33//53
f 35//54 21//54 16//54
f 36//55 22//55 21//55
f 36//56 21//56 35//56
f 37//57 23//57 22//57
f 37//58 22//58 36//58
f 23//59 34//59 19//59
f 23//60 37//60 34//60
f 38//61 25//61 39//61
f 38//62 24//62 25//62
f 25//63 27//63 40//63
f 39//64 25//64 40//64
f 27//65 28//65 41//65
f 40//66 27//66 41//66
f 41//67 43//67 42//67
f 29//68 43//68 41//68
f 28//69 29//69 41//69
f 43//70 29//70 30//70
f 44//71 24//71 38//71
f 44//72 32//72 24//72
f 32//73 44//73 33//73
f 44//74 45//74 33//74
f 43//75 46//75 42//75
f 46//76 47//76 42//76
f 46//77 30//77 34//77
f 46//78 43//78 30//78
f 48//79 33//79 45//79
f 48//80 35//80 33//80
f 49//81 36//81 35//81
f 49//82 35//82 48//82
f 37//83 47//83 46//83
f 49//84 47//84 37//84
f 36//85 49//85 37//85
f 46//86 34//86 37//86
f 38//87 39//87 50//87
f 51//88 39//88 40//88
f 51//89 50//89 39//89
f 52//90 40//90 41//90
f 52//91 51//91 40//91
f 52//92 41//92 42//92
f 44//93 38//93 50//93
f 50//94 45//94 44//94
f 53//95 45//95 50//95
f 51//96 53//96 50//96
f 51//97 52//97 54//97
f 51//98 54//98 53//98
f 54//99 42//99 47//99
f 54//100 52//100 42//100
f 48//101 45//101 53//101
f 53//102 49//102 48//102
f 53//103 54//103 49//103
f 54//104 47//104 49//104
f 55//105 57//105 56//105
f 58//106 56//106 57//106
f 59//107 57//107 55//107
f 59//108 58//108 57//108
f 60//109 56//109 61//109
f 60//110 55//110 56//110
f 58//111 61//111 56//111
f 58//112 62//112 61//112
f 63//113 55//113 60//113
f 63//114 59//114 55//114
f 59//115 62//115 58//115
f 59//116 63//116 62//116
f 60//117 61//117 64//117
f 64//118 61//118 62//118
f 63//119 60//119 64//119
f 64//120 62//120 63//120

# Thankyou for using Spin3D

