# Created using Spin3D

# Vertex Array
v 25.227 -35.105 13.147
v 25.241 -35.098 13.189
v 25.261 -35.157 13.160
v 25.279 -35.149 13.180
v 25.293 -35.177 13.127
v 25.298 -35.131 13.147
v 25.257 -35.141 13.105
v 25.210 -35.052 13.098
v 25.307 -35.152 13.091
v 25.290 -35.157 13.073
v 25.248 -35.085 13.058
v 25.202 -35.026 13.152
v 25.224 -35.024 13.189
v 25.263 -35.079 13.193
v 25.273 -35.054 13.158
v 25.189 -34.980 13.102
v 25.286 -35.112 13.058
v 25.286 -35.080 13.101
v 25.208 -35.003 13.065
v 25.243 -35.030 13.064
v 25.206 -34.973 13.143
v 25.240 -35.008 13.175
v 25.206 -34.968 13.089
v 25.240 -34.998 13.121
v -23.085 -29.173 70.682
v -22.903 -29.096 71.077
v -23.002 -29.183 70.795
v -22.840 -29.105 71.112
v -22.899 -29.138 70.892
v -22.788 -29.056 71.104
v -23.178 -29.245 70.391
v -23.232 -29.229 70.264
v -23.098 -29.202 70.414
v -22.884 -29.073 70.783
v -23.285 -29.265 70.034
v -23.274 -29.213 70.035
v -23.067 -29.109 70.330
v -23.256 -29.232 69.984
v -27.367 -29.110 63.839
v -27.365 -29.110 63.840
v -27.365 -29.111 63.838
v -23.332 -29.258 69.844
v -27.364 -29.110 63.839
v -27.365 -29.109 63.837
v -22.969 -29.069 70.951
v -22.847 -29.007 71.167
v -22.781 -29.017 71.216
v -22.773 -28.977 71.052
v -23.096 -29.108 70.543
v -22.916 -28.998 70.966
v -22.862 -28.991 70.744
v -23.256 -29.197 69.961
v -23.114 -29.093 70.296
v -22.942 -28.993 70.585
v -27.365 -29.108 63.839
v -22.805 -28.951 71.096
v -22.934 -28.982 70.749
v -22.823 -28.938 70.889
v 1.220 -22.355 75.816
v 1.216 -22.355 75.812
v 1.216 -22.356 75.814
v 1.213 -22.354 75.812
v 1.211 -22.356 75.814
v 1.211 -22.355 75.813
v 1.221 -22.357 75.818
v 1.220 -22.356 75.819
v 1.216 -22.357 75.817
v 1.212 -22.355 75.817
v 1.219 -22.356 75.821
v 1.215 -22.356 75.820
v 1.218 -22.354 75.816
v 1.214 -22.353 75.812
v 1.218 -22.354 75.821
v 1.214 -22.354 75.816
v 4.270 -10.883 31.872
v 5.287 -10.139 32.836
v 6.301 -11.081 31.358
v 7.067 -9.901 32.636
v 0.955 -10.631 29.234
v 1.197 -10.416 30.217
v 1.897 -11.196 29.814
v 2.559 -10.428 31.252
v 4.056 -11.448 30.240
v 6.400 -11.544 29.588
v 8.279 -10.431 31.379
v 8.629 -10.980 29.705
v 9.894 -9.797 30.363
v 1.530 -11.238 28.822
v 2.799 -11.406 28.778
v 2.052 -11.125 28.214
v 5.117 -11.332 28.408
v 7.766 -11.093 28.077
v 10.541 -10.168 28.950
v 9.986 -10.472 27.880
v 11.388 -9.389 27.758
v 3.481 -10.298 27.367
v 6.590 -10.260 26.802
v 9.153 -9.994 26.623
v 10.813 -9.483 26.755
v 2.936 -8.488 32.172
v 4.608 -8.598 33.316
v 3.768 -9.902 32.569
v 6.061 -9.078 33.472
v 7.353 -8.323 33.149
v 0.777 -9.719 29.662
v 1.492 -9.127 30.654
v 8.767 -9.018 31.907
v 10.329 -7.944 30.502
v 1.512 -10.499 28.204
v 0.953 -9.472 28.615
v 11.280 -8.903 29.065
v 11.922 -8.112 27.857
v 2.025 -9.002 27.442
v 2.885 -6.807 26.860
v 3.603 -8.365 26.416
v 5.629 -8.659 25.903
v 8.189 -8.697 25.637
v 10.298 -8.510 25.827
v 11.611 -8.038 26.606
v 4.941 -6.741 25.678
v 7.229 -6.951 25.182
v 9.402 -7.049 25.239
v 10.902 -7.105 25.684
v 3.874 -7.560 33.005
v 5.072 -6.681 33.111
v 6.057 -7.714 33.654
v 7.093 -6.911 33.234
v 1.161 -8.290 29.343
v 2.297 -6.851 30.496
v 3.558 -6.517 32.140
v 8.643 -6.826 32.001
v 10.217 -5.664 30.010
v 1.487 -8.005 28.052
v 2.106 -6.420 28.455
v 11.504 -7.143 28.862
v 11.856 -6.719 27.379
v 3.304 -4.715 27.272
v 11.466 -6.454 26.290
v 4.470 -4.887 26.066
v 6.459 -5.115 25.413
v 8.380 -5.589 25.218
v 10.109 -5.509 25.792
v 6.272 -6.583 33.414
v 3.498 -5.151 30.856
v 4.867 -4.975 31.686
v 6.910 -5.361 32.235
v 8.754 -4.946 31.211
v 9.227 -4.089 30.056
v 3.328 -4.540 29.040
v 4.491 -3.949 30.169
v 11.259 -5.635 28.307
v 9.972 -4.174 28.426
v 4.365 -3.603 26.597
v 4.056 -3.439 27.554
v 5.057 -2.949 27.018
v 11.054 -5.256 27.026
v 9.726 -4.147 26.821
v 5.753 -3.597 26.141
v 8.005 -4.009 26.067
v -0.108 -7.257 85.907
v -0.109 -7.256 85.904
v -0.110 -7.257 85.906
v -0.112 -7.256 85.906
v -0.110 -7.257 85.908
v 6.357 -3.559 30.291
v 8.000 -3.924 30.784
v 5.147 -3.071 28.497
v 6.955 -2.789 28.549
v 8.261 -3.249 29.329
v 6.539 -2.886 27.165
v 8.367 -3.179 27.622
v -0.108 -7.255 85.906
v -0.110 -7.255 85.905
v -0.112 -7.255 85.907
v -0.109 -7.255 85.908
v -0.110 -7.255 85.907
v 6.511 10.735 14.615
v 6.499 10.651 15.190
v 6.507 10.741 14.578
v 6.500 10.694 14.904
v 6.521 10.863 13.734
v 6.526 10.882 13.620
v 6.514 10.840 13.890
v 6.534 10.983 12.923
v 6.537 11.018 12.699
v 6.530 10.982 12.913
v 6.540 11.058 12.406
v 6.499 10.631 15.328
v 6.494 10.599 15.555
v 6.494 10.610 15.482
v 6.499 10.660 15.146
v 6.513 10.747 14.537
v 6.510 10.804 14.149
v 6.527 10.907 13.455
v 6.525 10.961 13.054
v 6.536 11.024 12.645
v 6.537 11.057 12.393
v 6.542 11.077 12.275
v 6.500 10.651 15.198
v 6.511 10.772 14.370
v 6.525 10.932 13.266
v 6.535 11.041 12.509

# Normal Array
vn -0.825 -0.455 0.335
vn -0.098 -0.893 0.440
vn -0.533 -0.520 0.668
vn 0.890 -0.252 0.379
vn -0.824 -0.559 -0.093
vn -0.860 -0.469 -0.199
vn 0.529 -0.784 -0.326
vn -0.593 -0.766 -0.246
vn -0.631 -0.757 -0.167
vn 0.952 -0.196 0.235
vn -0.798 -0.454 -0.396
vn -0.711 -0.512 -0.482
vn -0.849 -0.196 0.490
vn -0.893 -0.300 0.335
vn -0.007 -0.187 0.982
vn -0.143 -0.034 0.989
vn 0.838 0.084 0.539
vn 0.883 0.230 0.408
vn -0.954 -0.298 0.014
vn -0.962 -0.274 0.002
vn 0.736 -0.153 -0.659
vn 0.926 0.304 -0.226
vn 0.959 0.277 0.054
vn 0.951 0.298 0.078
vn -0.917 -0.242 -0.317
vn -0.801 -0.348 -0.486
vn -0.236 -0.325 -0.916
vn 0.077 0.120 -0.990
vn 0.068 0.120 -0.991
vn 0.827 0.452 -0.334
vn -0.864 0.142 0.483
vn 0.418 0.360 0.834
vn 0.008 0.673 0.740
vn 0.781 0.389 0.489
vn -0.557 0.826 0.089
vn -0.925 0.127 0.359
vn 0.637 0.755 0.157
vn 0.608 0.791 0.075
vn 0.874 0.486 -0.023
vn 0.824 0.553 0.122
vn -0.738 0.344 -0.581
vn 0.383 0.531 -0.756
vn 0.762 0.580 -0.289
vn 0.823 0.512 -0.247
vn -0.654 -0.627 0.424
vn 0.367 -0.929 0.041
vn -0.341 -0.857 0.386
vn 0.674 -0.735 -0.071
vn -0.589 -0.720 0.368
vn -0.902 -0.249 0.351
vn 0.456 -0.887 -0.071
vn 0.494 -0.866 -0.082
vn 0.809 -0.548 -0.214
vn 0.772 -0.587 -0.243
vn -0.798 -0.539 0.270
vn -0.959 0.210 0.190
vn 0.816 -0.515 -0.262
vn 0.595 -0.787 -0.162
vn 0.497 -0.862 -0.102
vn 0.802 -0.527 -0.281
vn -0.582 -0.662 0.472
vn -0.948 0.207 0.241
vn 0.582 -0.662 0.472
vn 0.584 -0.793 -0.173
vn -0.564 -0.447 -0.695
vn 0.564 -0.447 -0.695
vn -0.889 -0.140 0.437
vn -0.877 0.072 0.475
vn -0.595 -0.356 0.720
vn -0.474 -0.523 0.708
vn 0.685 -0.700 0.202
vn 0.983 -0.182 0.002
vn -0.809 0.552 0.201
vn -0.898 0.364 0.247
vn -0.883 0.392 0.258
vn -0.799 0.522 0.300
vn 0.907 -0.335 -0.255
vn 0.903 -0.352 -0.247
vn -0.631 0.775 0.028
vn -0.693 0.715 0.094
vn -0.841 0.506 0.189
vn 0.885 -0.239 -0.399
vn 0.574 0.681 -0.455
vn 0.607 0.567 -0.557
vn 0.869 -0.377 -0.320
vn 0.895 0.013 -0.445
vn -0.582 0.473 0.662
vn -0.650 0.760 0.020
vn 0.582 0.473 0.662
vn 0.868 -0.257 -0.426
vn -0.569 0.652 -0.501
vn 0.569 0.652 -0.501
vn -0.250 0.827 0.504
vn 0.762 0.620 0.187
vn -0.689 0.716 0.108
vn -0.605 0.759 0.242
vn -0.489 0.866 0.103
vn -0.468 0.879 0.094
vn 0.957 0.065 -0.282
vn 0.622 0.783 -0.010
vn -0.680 0.727 0.093
vn -0.455 0.890 -0.036
vn -0.317 0.947 -0.046
vn 0.771 0.503 -0.390
vn 0.427 -0.757 -0.494
vn 0.071 -0.718 -0.693
vn -0.036 -0.788 -0.615
vn -0.600 -0.234 -0.765
vn 0.441 -0.604 -0.664
vn 0.972 0.232 -0.035
vn 0.015 -0.989 -0.144
vn -0.065 -0.986 -0.151
vn -0.962 0.250 0.109
vn -0.434 -0.800 0.414
vn 0.653 -0.405 0.640
vn -0.116 -0.904 0.412
vn 0.012 -0.955 0.295
vn -0.422 -0.883 0.203
vn 0.374 0.889 -0.265
vn 0.076 -0.047 -0.996
vn 0.542 0.788 -0.291
vn -0.701 0.435 -0.565
vn 0.579 0.815 0.039
vn 0.472 0.864 0.176
vn 0.012 0.979 0.203
vn 0.007 0.993 0.121
vn -0.458 0.882 0.113
vn -0.566 0.793 0.224
vn 0.721 0.198 0.664
vn -0.105 -0.387 0.916
vn -0.552 0.633 0.543
vn -0.354 0.753 0.555
vn 0.064 -0.821 0.567
vn 0.172 -0.773 0.610
vn -0.622 -0.719 0.310
vn -0.200 -0.823 0.532
vn -0.441 -0.691 0.572
vn -0.356 -0.868 0.347
vn -0.009 -0.945 0.328
vn 0.031 -0.966 0.255
vn 0.250 -0.782 0.571
vn 0.288 -0.890 0.352
vn 0.224 -0.940 0.259
vn 0.529 -0.767 0.362
vn -0.609 -0.751 0.257
vn -0.135 -0.947 -0.292
vn -0.128 -0.988 0.089
vn -0.132 -0.988 0.085
vn -0.070 -0.992 -0.103
vn 0.024 -0.999 -0.049
vn 0.248 -0.967 -0.064
vn 0.058 -0.970 -0.237
vn 0.491 -0.761 0.424
vn 0.406 -0.912 0.048
vn 0.263 -0.962 -0.073
vn 0.604 -0.792 -0.088
vn 0.129 -0.809 -0.573
vn -0.078 -0.766 -0.639
vn -0.102 -0.781 -0.616
vn 0.006 -0.834 -0.551
vn 0.044 -0.817 -0.575
vn 0.201 -0.864 -0.462
vn 0.291 -0.814 -0.502
vn 0.576 -0.775 -0.258
vn -0.566 -0.104 0.818
vn -0.229 -0.639 0.734
vn -0.217 -0.376 0.901
vn -0.221 -0.377 0.899
vn 0.168 -0.594 0.787
vn 0.414 -0.348 0.841
vn -0.807 -0.015 0.590
vn -0.904 -0.313 0.291
vn -0.680 -0.202 0.705
vn -0.662 -0.212 0.719
vn -0.601 -0.130 0.789
vn -0.405 -0.658 0.635
vn 0.517 -0.348 0.782
vn 0.540 -0.451 0.711
vn 0.595 -0.453 0.664
vn 0.732 -0.220 0.645
vn -0.777 -0.415 -0.474
vn -0.835 -0.260 -0.485
vn -0.977 -0.102 -0.188
vn -0.597 -0.523 -0.609
vn 0.739 -0.221 0.637
vn 0.745 -0.478 0.466
vn 0.824 -0.505 0.256
vn 0.894 -0.391 0.219
vn -0.711 -0.110 -0.694
vn -0.542 -0.010 -0.840
vn -0.388 -0.387 -0.836
vn -0.340 -0.331 -0.880
vn -0.345 -0.311 -0.886
vn -0.143 -0.548 -0.824
vn -0.279 -0.410 -0.868
vn 0.007 -0.602 -0.798
vn -0.096 -0.530 -0.842
vn 0.245 -0.598 -0.763
vn 0.123 -0.541 -0.832
vn 0.570 -0.389 -0.724
vn 0.783 -0.473 -0.404
vn 0.901 -0.358 -0.246
vn -0.499 0.018 -0.867
vn -0.268 -0.207 -0.941
vn -0.225 -0.193 -0.955
vn -0.103 -0.304 -0.947
vn 0.015 -0.245 -0.970
vn 0.112 -0.310 -0.944
vn 0.270 -0.212 -0.939
vn 0.566 -0.321 -0.759
vn -0.565 -0.157 0.810
vn -0.196 0.151 0.969
vn -0.326 0.178 0.929
vn -0.149 -0.131 0.980
vn 0.309 -0.125 0.943
vn 0.368 0.012 0.930
vn -0.849 0.321 0.420
vn -0.844 0.328 0.423
vn -0.751 0.306 0.585
vn -0.791 0.259 0.554
vn -0.770 0.253 0.586
vn -0.430 0.495 0.755
vn 0.619 0.067 0.783
vn 0.662 0.005 0.750
vn 0.666 0.006 0.746
vn 0.718 0.181 0.673
vn -0.945 0.275 -0.178
vn -0.966 0.235 -0.107
vn -0.838 0.513 0.187
vn -0.909 0.391 -0.143
vn 0.759 0.173 0.628
vn 0.821 -0.039 0.570
vn 0.898 -0.064 0.435
vn 0.954 0.137 0.265
vn -0.740 0.011 -0.672
vn -0.683 0.075 -0.726
vn -0.770 0.422 -0.479
vn -0.841 0.262 -0.474
vn 0.969 -0.037 -0.244
vn 0.943 0.020 -0.332
vn -0.672 0.270 -0.689
vn -0.499 0.054 -0.865
vn -0.209 0.036 -0.977
vn -0.297 0.123 -0.947
vn 0.027 0.004 -1.000
vn -0.078 0.092 -0.993
vn 0.285 0.205 -0.936
vn 0.301 0.197 -0.933
vn 0.762 -0.059 -0.645
vn 0.509 0.308 -0.804
vn -0.257 0.247 0.934
vn 0.269 0.151 0.951
vn -0.757 0.430 0.493
vn -0.472 0.593 0.653
vn -0.405 0.557 0.725
vn -0.087 0.632 0.770
vn -0.222 0.735 0.641
vn 0.379 0.533 0.757
vn 0.520 0.505 0.689
vn 0.399 0.335 0.854
vn 0.684 0.248 0.686
vn 0.690 0.416 0.592
vn -0.646 0.703 0.297
vn -0.815 0.522 0.252
vn -0.849 0.495 0.184
vn -0.438 0.691 0.576
vn 0.807 0.315 0.499
vn 0.693 0.575 0.434
vn 0.801 0.493 0.340
vn 0.921 0.257 0.292
vn -0.775 0.533 -0.341
vn -0.857 0.514 -0.039
vn -0.831 0.554 -0.043
vn -0.547 0.778 -0.309
vn 0.751 0.656 0.074
vn 0.646 0.758 -0.086
vn 0.878 0.430 -0.209
vn 0.877 0.481 0.002
vn -0.683 0.231 -0.694
vn -0.229 0.687 -0.690
vn -0.294 0.344 -0.892
vn -0.263 0.314 -0.912
vn 0.029 0.479 -0.877
vn 0.054 0.452 -0.891
vn 0.578 0.589 -0.564
vn 0.355 0.625 -0.695
vn 0.251 0.504 -0.826
vn 0.599 0.558 -0.574
vn 0.239 -0.920 -0.310
vn -0.172 -0.899 -0.402
vn 0.146 -0.985 0.097
vn -0.272 -0.962 0.002
vn -0.047 0.726 0.686
vn 0.307 0.551 0.776
vn -0.045 0.726 0.686
vn 0.463 0.610 0.643
vn -0.583 0.791 0.186
vn -0.202 0.787 0.583
vn -0.212 0.897 0.387
vn -0.154 0.922 0.355
vn 0.071 0.900 0.430
vn 0.066 0.904 0.423
vn 0.548 0.810 0.208
vn 0.373 0.814 0.445
vn -0.537 0.782 0.316
vn -0.395 0.913 0.100
vn -0.051 0.995 0.085
vn -0.154 0.988 -0.023
vn 0.301 0.952 0.058
vn 0.188 0.974 -0.125
vn 0.551 0.831 -0.071
vn 0.502 0.863 0.067
vn 0.023 0.813 -0.582
vn 0.121 0.770 -0.627
vn 0.258 0.826 -0.501
vn 0.285 0.816 -0.502
vn 0.517 0.420 -0.746
vn 0.815 -0.202 -0.543
vn -0.519 -0.117 -0.847
vn -0.803 0.387 -0.454
vn 0.817 0.176 0.549
vn 0.503 -0.432 0.749
vn -0.817 -0.363 0.448
vn -0.517 0.132 0.846
vn 0.179 0.979 -0.102
vn -0.248 0.969 -0.009
vn 0.272 0.910 0.314
vn -0.148 0.903 0.404
vn 0.099 0.984 0.145
vn 0.392 0.909 0.138
vn 0.110 0.983 0.144
vn -0.616 0.781 0.106
vn 0.144 0.979 0.142
vn -0.046 0.989 0.142
vn -0.604 0.789 0.108
vn -0.833 0.548 0.070
vn -0.002 0.990 0.144
vn -0.564 0.818 0.113
vn -0.850 0.523 0.066
vn -0.563 0.819 0.112
vn 0.365 0.921 0.137
vn -0.008 -0.989 -0.149
vn 0.387 0.912 0.136
vn 0.202 0.969 0.145
vn -0.563 0.819 0.111
vn 0.481 0.867 0.132
vn 0.861 -0.505 -0.065
vn 0.591 -0.799 -0.108
vn -0.447 0.886 0.124
vn -0.540 -0.832 -0.130
vn 0.903 0.423 0.073
vn 0.910 0.409 0.071
vn -0.572 -0.810 -0.127
vn 0.499 -0.859 -0.119
vn -0.272 0.953 0.134
vn -0.293 0.947 0.133
vn 0.441 -0.890 -0.121
vn -0.622 0.776 0.103
vn -0.764 0.640 0.081
vn -0.763 0.642 0.081
vn -0.810 -0.579 -0.098
vn -0.500 -0.856 -0.133
vn -0.183 -0.972 -0.144
vn -0.761 -0.639 -0.107
vn 0.067 -0.988 -0.141
vn -0.529 -0.839 -0.129
vn 0.458 -0.880 -0.122
vn -0.113 -0.983 -0.147
vn 0.548 -0.829 -0.111
vn 0.143 -0.980 -0.140
vn 0.763 -0.641 -0.082
vn 0.478 -0.870 -0.121
vn 0.987 0.156 0.041
vn 0.569 -0.815 -0.110
vn 0.703 -0.705 -0.090
vn 0.856 -0.514 -0.056

# Facets
f 1//1 3//1 2//1
f 4//2 3//2 5//2
f 4//3 2//3 3//3
f 6//4 4//4 5//4
f 1//5 7//5 3//5
f 1//6 8//6 7//6
f 5//7 10//7 9//7
f 7//8 10//8 5//8
f 3//9 7//9 5//9
f 9//10 6//10 5//10
f 11//11 7//11 8//11
f 11//12 10//12 7//12
f 12//13 2//13 13//13
f 12//14 1//14 2//14
f 2//15 4//15 14//15
f 13//16 2//16 14//16
f 6//17 14//17 4//17
f 6//18 15//18 14//18
f 8//19 1//19 12//19
f 8//20 12//20 16//20
f 17//21 9//21 10//21
f 18//22 9//22 17//22
f 6//23 9//23 18//23
f 15//24 6//24 18//24
f 19//25 8//25 16//25
f 19//26 11//26 8//26
f 11//27 17//27 10//27
f 20//28 17//28 11//28
f 19//29 20//29 11//29
f 20//30 18//30 17//30
f 12//31 13//31 21//31
f 22//32 13//32 14//32
f 22//33 21//33 13//33
f 22//34 14//34 15//34
f 16//35 21//35 23//35
f 16//36 12//36 21//36
f 21//37 22//37 24//37
f 21//38 24//38 23//38
f 24//39 15//39 18//39
f 24//40 22//40 15//40
f 19//41 16//41 23//41
f 23//42 20//42 19//42
f 23//43 24//43 20//43
f 24//44 18//44 20//44
f 25//45 27//45 26//45
f 28//46 27//46 29//46
f 28//47 26//47 27//47
f 30//48 28//48 29//48
f 25//49 31//49 27//49
f 25//50 32//50 31//50
f 33//51 29//51 27//51
f 31//52 33//52 27//52
f 29//53 34//53 30//53
f 29//54 33//54 34//54
f 32//55 35//55 31//55
f 32//56 36//56 35//56
f 33//57 38//57 37//57
f 35//58 38//58 33//58
f 31//59 35//59 33//59
f 37//60 34//60 33//60
f 39//61 41//61 40//61
f 35//62 36//62 42//62
f 43//63 40//63 41//63
f 42//64 38//64 35//64
f 44//65 41//65 39//65
f 44//66 43//66 41//66
f 25//67 26//67 45//67
f 26//68 46//68 45//68
f 47//69 46//69 26//69
f 28//70 47//70 26//70
f 30//71 47//71 28//71
f 30//72 48//72 47//72
f 49//73 45//73 50//73
f 25//74 45//74 49//74
f 32//75 25//75 49//75
f 45//76 46//76 50//76
f 48//77 30//77 34//77
f 51//78 48//78 34//78
f 36//79 53//79 52//79
f 49//80 53//80 36//80
f 32//81 49//81 36//81
f 38//82 52//82 37//82
f 37//83 52//83 53//83
f 37//84 53//84 54//84
f 37//85 51//85 34//85
f 37//86 54//86 51//86
f 39//87 40//87 55//87
f 52//88 42//88 36//88
f 40//89 43//89 55//89
f 52//90 38//90 42//90
f 44//91 39//91 55//91
f 55//92 43//92 44//92
f 46//93 47//93 56//93
f 56//94 47//94 48//94
f 49//95 50//95 57//95
f 56//96 50//96 46//96
f 57//97 50//97 56//97
f 58//98 57//98 56//98
f 58//99 48//99 51//99
f 58//100 56//100 48//100
f 53//101 49//101 57//101
f 57//102 54//102 53//102
f 57//103 58//103 54//103
f 58//104 51//104 54//104
f 59//105 61//105 60//105
f 62//106 61//106 63//106
f 62//107 60//107 61//107
f 64//108 62//108 63//108
f 59//109 65//109 61//109
f 59//110 66//110 65//110
f 67//111 63//111 61//111
f 65//112 67//112 61//112
f 63//113 68//113 64//113
f 63//114 67//114 68//114
f 69//115 65//115 66//115
f 69//116 67//116 65//116
f 69//117 70//117 67//117
f 70//118 68//118 67//118
f 59//119 60//119 71//119
f 72//120 60//120 62//120
f 72//121 71//121 60//121
f 72//122 62//122 64//122
f 66//123 71//123 73//123
f 66//124 59//124 71//124
f 71//125 72//125 74//125
f 71//126 74//126 73//126
f 74//127 64//127 68//127
f 74//128 72//128 64//128
f 69//129 66//129 73//129
f 73//130 70//130 69//130
f 73//131 74//131 70//131
f 74//132 68//132 70//132
f 75//133 77//133 76//133
f 78//134 76//134 77//134
f 79//135 81//135 80//135
f 82//136 81//136 83//136
f 82//137 80//137 81//137
f 83//138 75//138 82//138
f 77//139 75//139 83//139
f 84//140 77//140 83//140
f 77//141 85//141 78//141
f 86//142 85//142 77//142
f 84//143 86//143 77//143
f 87//144 85//144 86//144
f 88//145 81//145 79//145
f 89//146 88//146 90//146
f 81//147 88//147 89//147
f 83//148 81//148 89//148
f 91//149 84//149 83//149
f 89//150 91//150 83//150
f 92//151 86//151 84//151
f 91//152 92//152 84//152
f 86//153 93//153 87//153
f 94//154 93//154 86//154
f 92//155 94//155 86//155
f 95//156 93//156 94//156
f 96//157 89//157 90//157
f 96//158 91//158 89//158
f 96//159 97//159 91//159
f 97//160 92//160 91//160
f 97//161 98//161 92//161
f 98//162 94//162 92//162
f 98//163 99//163 94//163
f 99//164 95//164 94//164
f 100//165 102//165 101//165
f 76//166 102//166 75//166
f 101//167 102//167 76//167
f 103//168 101//168 76//168
f 78//169 103//169 76//169
f 78//170 104//170 103//170
f 105//171 80//171 106//171
f 105//172 79//172 80//172
f 102//173 100//173 82//173
f 82//174 100//174 106//174
f 82//175 106//175 80//175
f 82//176 75//176 102//176
f 104//177 78//177 107//177
f 78//178 85//178 107//178
f 87//179 107//179 85//179
f 87//180 108//180 107//180
f 79//181 109//181 88//181
f 110//182 109//182 79//182
f 105//183 110//183 79//183
f 90//184 88//184 109//184
f 108//185 87//185 111//185
f 87//186 93//186 111//186
f 95//187 111//187 93//187
f 95//188 112//188 111//188
f 113//189 109//189 110//189
f 114//190 115//190 113//190
f 115//191 96//191 113//191
f 113//192 96//192 109//192
f 109//193 96//193 90//193
f 97//194 96//194 116//194
f 96//195 115//195 116//195
f 98//196 97//196 117//196
f 97//197 116//197 117//197
f 99//198 98//198 118//198
f 98//199 117//199 118//199
f 119//200 99//200 118//200
f 95//201 99//201 119//201
f 112//202 95//202 119//202
f 120//203 115//203 114//203
f 120//204 116//204 115//204
f 120//205 121//205 116//205
f 121//206 117//206 116//206
f 121//207 122//207 117//207
f 122//208 118//208 117//208
f 122//209 123//209 118//209
f 123//210 119//210 118//210
f 100//211 101//211 124//211
f 101//212 125//212 124//212
f 126//213 125//213 101//213
f 103//214 126//214 101//214
f 104//215 126//215 103//215
f 104//216 127//216 126//216
f 105//217 106//217 128//217
f 128//218 106//218 129//218
f 106//219 100//219 129//219
f 129//220 100//220 130//220
f 130//221 100//221 124//221
f 124//222 125//222 130//222
f 127//223 104//223 131//223
f 104//224 107//224 131//224
f 108//225 131//225 107//225
f 108//226 132//226 131//226
f 110//227 128//227 133//227
f 110//228 105//228 128//228
f 129//229 134//229 128//229
f 134//230 133//230 128//230
f 132//231 108//231 135//231
f 108//232 111//232 135//232
f 112//233 135//233 111//233
f 112//234 136//234 135//234
f 113//235 110//235 133//235
f 113//236 133//236 114//236
f 114//237 133//237 134//237
f 114//238 134//238 137//238
f 136//239 112//239 119//239
f 138//240 136//240 119//240
f 139//241 114//241 137//241
f 139//242 120//242 114//242
f 140//243 121//243 120//243
f 140//244 120//244 139//244
f 141//245 122//245 121//245
f 141//246 121//246 140//246
f 142//247 123//247 122//247
f 142//248 122//248 141//248
f 123//249 138//249 119//249
f 123//250 142//250 138//250
f 125//251 126//251 143//251
f 143//252 126//252 127//252
f 129//253 130//253 144//253
f 144//254 130//254 145//254
f 130//255 125//255 145//255
f 145//256 125//256 146//256
f 146//257 125//257 143//257
f 143//258 127//258 146//258
f 146//259 127//259 131//259
f 146//260 131//260 147//260
f 132//261 147//261 131//261
f 132//262 148//262 147//262
f 149//263 144//263 150//263
f 129//264 144//264 149//264
f 134//265 129//265 149//265
f 144//266 145//266 150//266
f 135//267 151//267 132//267
f 132//268 151//268 152//268
f 132//269 152//269 148//269
f 151//270 135//270 136//270
f 137//271 154//271 153//271
f 149//272 154//272 137//272
f 134//273 149//273 137//273
f 153//274 154//274 155//274
f 151//275 156//275 152//275
f 156//276 157//276 152//276
f 156//277 136//277 138//277
f 156//278 151//278 136//278
f 139//279 137//279 153//279
f 158//280 153//280 155//280
f 139//281 153//281 158//281
f 140//282 139//282 158//282
f 159//283 141//283 140//283
f 159//284 140//284 158//284
f 142//285 157//285 156//285
f 159//286 157//286 142//286
f 141//287 159//287 142//287
f 156//288 138//288 142//288
f 160//289 162//289 161//289
f 163//290 161//290 162//290
f 164//291 162//291 160//291
f 164//292 163//292 162//292
f 145//293 146//293 165//293
f 166//294 146//294 147//294
f 166//295 165//295 146//295
f 166//296 147//296 148//296
f 149//297 150//297 167//297
f 165//298 150//298 145//298
f 167//299 150//299 165//299
f 168//300 167//300 165//300
f 165//301 166//301 169//301
f 165//302 169//302 168//302
f 169//303 148//303 152//303
f 169//304 166//304 148//304
f 154//305 149//305 167//305
f 167//306 155//306 154//306
f 170//307 155//307 167//307
f 168//308 170//308 167//308
f 168//309 169//309 171//309
f 168//310 171//310 170//310
f 171//311 152//311 157//311
f 171//312 169//312 152//312
f 158//313 155//313 170//313
f 170//314 159//314 158//314
f 170//315 171//315 159//315
f 171//316 157//316 159//316
f 172//317 161//317 173//317
f 172//318 160//318 161//318
f 163//319 173//319 161//319
f 163//320 174//320 173//320
f 175//321 160//321 172//321
f 175//322 164//322 160//322
f 164//323 174//323 163//323
f 164//324 175//324 174//324
f 172//325 173//325 176//325
f 176//326 173//326 174//326
f 175//327 172//327 176//327
f 176//328 174//328 175//328
f 177//329 179//329 178//329
f 180//330 178//330 179//330
f 177//331 181//331 179//331
f 177//332 182//332 181//332
f 179//333 183//333 180//333
f 179//334 181//334 183//334
f 182//335 184//335 181//335
f 182//336 185//336 184//336
f 181//337 186//337 183//337
f 181//338 184//338 186//338
f 187//339 184//339 185//339
f 187//340 186//340 184//340
f 188//341 190//341 189//341
f 191//342 189//342 190//342
f 188//343 178//343 190//343
f 177//344 178//344 188//344
f 192//345 177//345 188//345
f 180//346 190//346 178//346
f 191//347 190//347 180//347
f 193//348 191//348 180//348
f 182//349 177//349 192//349
f 182//350 192//350 194//350
f 193//351 180//351 183//351
f 195//352 193//352 183//352
f 185//353 182//353 194//353
f 185//354 194//354 196//354
f 195//355 183//355 186//355
f 197//356 195//356 186//356
f 198//357 185//357 196//357
f 198//358 187//358 185//358
f 187//359 197//359 186//359
f 187//360 198//360 197//360
f 188//361 189//361 199//361
f 199//362 189//362 191//362
f 192//363 199//363 200//363
f 192//364 188//364 199//364
f 200//365 191//365 193//365
f 200//366 199//366 191//366
f 194//367 200//367 201//367
f 194//368 192//368 200//368
f 201//369 193//369 195//369
f 201//370 200//370 193//370
f 196//371 201//371 202//371
f 196//372 194//372 201//372
f 202//373 195//373 197//373
f 202//374 201//374 195//374
f 198//375 196//375 202//375
f 202//376 197//376 198//376

# Thankyou for using Spin3D

