# Created using Spin3D

# Vertex Array
v 5.211 -9.868 69.764
v 5.207 -9.944 70.220
v 5.401 -10.107 69.739
v 5.334 -9.655 70.198
v 5.359 -9.758 69.517
v 3.902 -8.162 72.950
v 4.024 -8.165 73.831
v 4.448 -8.967 72.345
v 4.604 -8.862 72.603
v 4.954 -9.495 71.263
v 4.989 -8.916 71.629
v 4.645 -9.140 70.849
v 3.872 -7.760 71.583
v 5.238 -8.767 70.520
v 4.388 -8.272 70.106
v 3.969 -7.195 70.399
v 4.983 -9.015 69.482
v 5.274 -8.875 69.508
v 4.549 -7.826 69.371
v 4.992 -8.230 69.068
v 3.044 -6.577 76.642
v 2.921 -6.270 77.293
v 3.148 -6.483 76.732
v 2.995 -6.102 76.827
v 3.542 -7.162 75.488
v 3.384 -7.258 74.989
v 3.551 -6.533 75.254
v 3.321 -6.984 73.675
v 4.299 -7.838 73.538
v 4.817 -7.868 71.713
v 3.435 -6.531 72.094
v 5.061 -7.883 70.189
v 3.732 -6.204 70.892
v 5.066 -7.886 69.286
v 4.208 -6.868 69.769
v 4.685 -7.315 69.299
v 2.849 -6.155 77.060
v 2.943 -6.302 75.790
v 2.855 -5.909 76.516
v 3.116 -5.812 75.545
v 3.056 -5.994 74.031
v 4.208 -6.910 73.168
v 3.675 -5.932 73.482
v 3.323 -5.686 72.468
v 4.440 -6.717 71.407
v 3.886 -5.796 71.769
v 4.207 -6.350 70.399
v 3.672 -5.655 71.475
v 4.777 -7.139 69.857
v 2.911 -5.762 75.446
v 3.167 -5.566 74.044
v 3.483 -5.475 72.613

# Normal Array
vn -0.785 -0.610 -0.108
vn 0.831 -0.331 0.447
vn -0.659 -0.458 -0.597
vn 0.991 0.130 0.017
vn -0.784 -0.612 0.107
vn -0.069 -0.909 0.411
vn -0.132 -0.888 0.441
vn 0.886 -0.285 0.366
vn -0.843 -0.536 -0.049
vn -0.891 -0.440 -0.110
vn -0.849 -0.520 -0.094
vn -0.791 -0.608 0.069
vn -0.742 -0.670 -0.020
vn 0.864 -0.351 0.361
vn 0.890 -0.282 0.360
vn 0.975 0.024 0.222
vn -0.896 -0.411 -0.170
vn -0.928 -0.301 -0.219
vn -0.707 -0.385 -0.593
vn -0.910 -0.328 -0.255
vn -0.847 -0.467 -0.252
vn 0.090 -0.001 -0.996
vn 0.995 0.096 0.022
vn 0.995 0.098 0.024
vn -0.901 -0.254 -0.352
vn -0.850 -0.347 -0.397
vn -0.716 -0.319 -0.621
vn 0.292 -0.448 -0.845
vn 0.348 -0.821 0.452
vn 0.917 0.305 0.256
vn 0.271 -0.806 0.526
vn -0.370 -0.883 0.288
vn 0.920 0.311 0.240
vn 0.962 0.083 0.259
vn -0.532 -0.784 0.320
vn -0.747 -0.657 0.101
vn -0.907 -0.420 -0.044
vn 0.939 0.108 0.327
vn 0.842 -0.317 0.437
vn 0.824 -0.228 0.519
vn 0.927 -0.061 0.369
vn 0.954 0.135 0.268
vn -0.915 -0.392 -0.096
vn -0.950 -0.277 -0.148
vn 0.962 0.139 0.235
vn 0.957 0.248 0.151
vn -0.946 -0.254 -0.199
vn -0.960 -0.099 -0.264
vn 0.979 0.201 0.013
vn 0.978 0.206 0.005
vn -0.928 -0.038 -0.371
vn -0.897 -0.147 -0.416
vn -0.547 0.027 -0.837
vn -0.665 0.072 -0.743
vn 0.893 0.088 -0.442
vn 0.528 0.370 -0.764
vn -0.888 -0.458 0.047
vn 0.253 0.896 0.364
vn -0.992 -0.108 -0.061
vn -0.915 -0.402 -0.021
vn -0.915 -0.404 -0.022
vn 0.314 0.863 0.395
vn 0.573 0.786 0.232
vn 0.873 0.452 0.185
vn -0.919 -0.393 -0.038
vn -0.970 -0.223 -0.101
vn 0.945 0.198 0.262
vn 0.886 0.416 0.204
vn 0.872 0.441 0.211
vn 0.944 0.199 0.264
vn -0.968 -0.212 -0.131
vn -0.983 -0.052 -0.178
vn 0.888 0.430 0.164
vn 0.872 0.468 0.144
vn 0.928 0.342 0.145
vn 0.925 0.345 0.160
vn -0.464 0.621 -0.632
vn -0.919 0.236 -0.316
vn -0.969 -0.020 -0.245
vn 0.671 0.729 -0.138
vn 0.855 0.518 -0.009
vn 0.817 0.576 0.021
vn 0.934 0.358 0.004
vn 0.916 0.391 0.093
vn -0.388 0.712 -0.586
vn 0.098 0.769 -0.631
vn 0.647 0.691 -0.324
vn 0.791 0.534 -0.299
vn -0.993 -0.100 -0.065
vn 0.170 0.975 0.142
vn -0.957 0.253 -0.140
vn -0.990 -0.112 -0.083
vn 0.676 0.723 0.142
vn 0.158 0.974 0.165
vn -0.749 0.651 -0.123
vn -0.961 0.253 -0.114
vn 0.783 0.605 0.144
vn 0.708 0.678 0.199
vn -0.698 0.681 -0.224
vn 0.581 0.813 -0.032

# Facets
f 1//1 3//1 2//1
f 4//2 2//2 3//2
f 5//3 3//3 1//3
f 5//4 4//4 3//4
f 6//5 8//5 7//5
f 9//6 8//6 10//6
f 9//7 7//7 8//7
f 11//8 9//8 10//8
f 6//9 12//9 8//9
f 6//10 13//10 12//10
f 1//11 2//11 12//11
f 12//12 2//12 10//12
f 12//13 10//13 8//13
f 4//14 10//14 2//14
f 11//15 10//15 4//15
f 14//16 11//16 4//16
f 13//17 15//17 12//17
f 13//18 16//18 15//18
f 5//19 1//19 17//19
f 17//20 1//20 12//20
f 17//21 12//21 15//21
f 18//22 5//22 17//22
f 4//23 5//23 18//23
f 14//24 4//24 18//24
f 19//25 15//25 16//25
f 19//26 17//26 15//26
f 19//27 20//27 17//27
f 20//28 18//28 17//28
f 21//29 23//29 22//29
f 24//30 22//30 23//30
f 21//31 25//31 23//31
f 21//32 26//32 25//32
f 23//33 27//33 24//33
f 23//34 25//34 27//34
f 26//35 7//35 25//35
f 6//36 7//36 26//36
f 28//37 6//37 26//37
f 27//38 25//38 29//38
f 29//39 25//39 7//39
f 29//40 7//40 9//40
f 11//41 29//41 9//41
f 11//42 30//42 29//42
f 13//43 6//43 28//43
f 13//44 28//44 31//44
f 30//45 11//45 14//45
f 32//46 30//46 14//46
f 16//47 13//47 31//47
f 16//48 31//48 33//48
f 32//49 14//49 18//49
f 34//50 32//50 18//50
f 35//51 16//51 33//51
f 35//52 19//52 16//52
f 36//53 20//53 19//53
f 36//54 19//54 35//54
f 20//55 34//55 18//55
f 20//56 36//56 34//56
f 21//57 22//57 37//57
f 37//58 22//58 24//58
f 38//59 37//59 39//59
f 21//60 37//60 38//60
f 26//61 21//61 38//61
f 24//62 39//62 37//62
f 40//63 39//63 24//63
f 27//64 40//64 24//64
f 28//65 26//65 38//65
f 28//66 38//66 41//66
f 29//67 42//67 27//67
f 27//68 42//68 43//68
f 27//69 43//69 40//69
f 42//70 29//70 30//70
f 31//71 28//71 41//71
f 31//72 41//72 44//72
f 42//73 45//73 43//73
f 45//74 46//74 43//74
f 45//75 30//75 32//75
f 45//76 42//76 30//76
f 33//77 48//77 47//77
f 44//78 48//78 33//78
f 31//79 44//79 33//79
f 48//80 46//80 47//80
f 47//81 46//81 45//81
f 47//82 45//82 49//82
f 49//83 32//83 34//83
f 49//84 45//84 32//84
f 35//85 33//85 47//85
f 47//86 36//86 35//86
f 47//87 49//87 36//87
f 49//88 34//88 36//88
f 38//89 39//89 50//89
f 50//90 39//90 40//90
f 41//91 50//91 51//91
f 41//92 38//92 50//92
f 51//93 40//93 43//93
f 51//94 50//94 40//94
f 44//95 51//95 52//95
f 44//96 41//96 51//96
f 52//97 43//97 46//97
f 52//98 51//98 43//98
f 48//99 44//99 52//99
f 52//100 46//100 48//100

# Thankyou for using Spin3D

