# Created using Spin3D

# Vertex Array
v 44.497 -28.825 -25.622
v 44.511 -28.844 -25.613
v 44.521 -28.859 -25.600
v 44.511 -28.849 -25.608
v 44.491 -28.818 -25.621
v 44.440 -28.752 -25.661
v 44.489 -28.824 -25.620
v 44.437 -28.755 -25.658
v 44.446 -28.762 -25.661
v 44.479 -28.811 -25.635
v 44.462 -28.794 -25.643
v 44.360 -28.647 -25.725
v 44.380 -28.676 -25.710
v 44.388 -28.683 -25.703
v 44.436 -28.760 -25.658
v 44.382 -28.680 -25.704
v 44.393 -28.703 -25.690
v 44.418 -28.733 -25.681
v 44.371 -28.670 -25.712
v 44.405 -28.722 -25.683
v 41.798 -26.984 54.073
v 41.800 -26.985 54.070
v 41.800 -26.984 54.072
v 41.801 -26.986 54.070
v 41.800 -26.985 54.076
v 41.798 -26.989 54.076
v 41.801 -26.987 54.075
v 41.799 -26.989 54.078
v 41.798 -26.989 54.072
v 41.800 -26.989 54.070
v 41.801 -26.991 54.074
v 41.798 -26.994 54.076
v 41.801 -26.992 54.079
v 41.800 -26.993 54.078
v 41.800 -26.993 54.073
v 41.799 -26.994 54.077
v 5.838 26.911 23.152
v 5.927 27.210 23.174
v 5.884 27.000 23.107
v 5.962 27.288 23.164
v 5.993 27.277 23.025
v 6.096 27.644 23.056
v 5.903 27.023 23.012
v 6.054 27.332 22.800
v 6.120 27.573 22.779
v 6.187 27.765 22.812
v 6.230 27.689 22.485
v 6.356 28.100 22.452
v 6.286 27.863 22.488
v 6.340 27.936 22.332
v 5.927 27.155 23.071
v 6.132 27.793 23.016
v 6.159 27.923 23.111
v 6.315 28.295 22.933
v 6.403 28.504 22.739
v 6.439 28.483 22.619
v 6.416 28.230 22.380
v 6.511 28.684 22.528
v 49.027 33.786 -10.440
v 49.028 33.786 -10.439
v 49.028 33.785 -10.440
v 49.029 33.786 -10.440
v 49.028 33.786 -10.441
v 6.390 28.632 22.982
v 6.415 28.710 23.006
v 6.538 28.993 22.838
v 6.563 29.118 22.842
v 6.601 29.084 22.669
v 6.597 29.114 22.694
v 49.028 33.787 -10.439
v 52.095 37.192 -12.900
v 52.093 37.193 -12.900
v 52.095 37.193 -12.899
v 52.096 37.193 -12.900
v 52.095 37.194 -12.901
v 6.554 29.136 22.929
v 6.631 29.299 22.801
v 52.095 37.194 -12.900
v 0.601 32.157 58.957
v 0.602 32.157 58.958
v 0.602 32.155 58.957
v 0.603 32.157 58.957
v 0.602 32.157 58.956
v -28.189 34.805 52.327
v -28.157 34.853 52.384
v -28.189 34.814 52.331
v -28.166 34.851 52.376
v -28.194 34.811 52.332
v -28.159 34.861 52.393
v -28.216 34.774 52.289
v -28.204 34.784 52.307
v -28.177 34.830 52.364
v -28.219 34.771 52.292
v -28.227 34.755 52.274
v 0.602 32.158 58.957
v -28.159 34.842 52.378
v -28.128 34.889 52.434
v -28.134 34.888 52.429
v -28.136 34.885 52.431
v -28.209 34.778 52.304
v -28.168 34.831 52.369
v -28.138 34.878 52.426
v -28.131 34.880 52.430
v -28.119 34.902 52.452
v -45.443 53.162 36.764
v -45.301 53.209 37.109
v -45.332 53.177 36.938
v -45.097 53.275 37.460
v -45.183 53.233 37.123
v -45.009 53.322 37.467
v 59.998 50.175 36.923
v 59.998 50.174 36.924
v 59.997 50.175 36.927
v 59.998 50.175 36.928
v 59.995 50.175 36.930
v 59.994 50.174 36.932
v -45.464 53.152 36.595
v -45.493 53.184 36.542
v -45.340 53.189 36.718
v -45.167 53.272 36.979
v 59.995 50.175 36.927
v 59.992 50.175 36.930
v 59.993 50.174 36.929
v 59.991 50.174 36.932
v -45.447 53.195 36.464
v -45.315 53.238 36.618
v 59.989 50.174 36.932
v 52.991 54.929 43.924
v 52.973 55.040 43.955
v 53.004 55.021 43.927
v 53.021 54.976 43.896
v -44.947 53.356 37.804
v -44.865 53.395 37.922
v -44.907 53.363 37.820
v -44.908 53.390 37.716
v 53.041 54.952 43.876
v -45.371 53.226 36.904
v -45.141 53.297 37.414
v -45.042 53.353 37.252
v 59.996 50.174 36.926
v 59.996 50.173 36.929
v -45.458 53.234 36.462
v -45.419 53.251 36.659
v -45.349 53.293 36.668
v -45.201 53.303 36.817
v 59.993 50.174 36.931
v -45.346 53.269 36.561
v 52.961 55.230 43.988
v 52.965 55.168 43.982
v 53.123 55.076 43.808
v 53.038 55.176 43.901
v 53.152 55.228 43.794
v -44.968 53.379 37.681
v 53.104 55.079 43.835
v 53.044 55.244 43.917
v 53.193 55.156 43.753
v 53.210 55.206 43.738
v -45.208 53.323 37.104
v -45.022 53.382 37.402
v 53.159 55.226 43.801
v 53.211 55.265 43.749
v -45.184 53.339 36.940
v 52.994 55.387 43.972
v 52.969 55.360 43.999
v 53.095 55.358 43.868
v 53.035 55.467 43.947
v 53.019 55.439 43.963
v 53.122 55.368 43.851
v 53.189 55.309 43.772
v 52.984 55.476 43.998
v 28.540 72.380 -2.704
v 28.538 72.379 -2.704
v 28.537 72.381 -2.704
v 28.536 72.379 -2.705
v 28.538 72.381 -2.706
v 28.540 72.379 -2.706
v 28.536 72.380 -2.706
v 28.538 72.380 -2.707
v 28.538 72.377 -2.705
v 28.537 72.378 -2.706

# Normal Array
vn 0.814 0.580 0.023
vn -0.145 -0.723 -0.676
vn 0.748 0.639 0.180
vn 0.750 0.649 0.127
vn -0.788 -0.501 0.358
vn -0.376 0.201 0.905
vn 0.163 0.597 0.785
vn -0.380 0.202 0.902
vn 0.483 -0.129 -0.866
vn 0.754 0.228 -0.615
vn -0.289 -0.702 -0.651
vn -0.525 -0.736 -0.428
vn 0.780 0.249 -0.574
vn 0.789 0.298 -0.537
vn 0.836 0.505 -0.213
vn 0.825 0.499 -0.267
vn -0.778 -0.620 0.102
vn -0.812 -0.477 0.336
vn 0.235 0.640 0.732
vn 0.228 0.628 0.744
vn 0.162 0.598 0.785
vn -0.125 0.450 0.884
vn -0.514 0.076 0.855
vn -0.532 0.080 0.843
vn 0.433 -0.173 -0.885
vn -0.347 -0.661 -0.665
vn -0.151 -0.536 -0.831
vn 0.427 -0.180 -0.886
vn -0.150 -0.533 -0.832
vn -0.455 -0.650 -0.609
vn -0.815 -0.555 0.166
vn -0.498 -0.686 -0.530
vn -0.397 0.303 0.866
vn -0.388 0.314 0.867
vn -0.867 -0.447 0.219
vn -0.755 -0.214 0.620
vn -0.295 0.727 -0.620
vn 0.329 0.793 -0.513
vn 0.284 0.930 0.234
vn -0.714 0.352 0.606
vn 0.830 0.529 0.178
vn 0.892 0.449 0.050
vn -0.836 0.375 0.401
vn 0.835 0.269 0.480
vn -0.873 0.124 -0.472
vn -0.806 0.019 -0.592
vn -0.247 0.082 -0.966
vn 0.714 -0.471 -0.518
vn -1.000 -0.020 -0.002
vn -0.998 0.061 0.005
vn 0.999 -0.009 0.039
vn 1.000 0.005 -0.020
vn -0.815 0.014 0.579
vn -0.897 -0.108 0.430
vn 0.729 0.446 0.519
vn -0.223 -0.096 0.970
vn -0.822 -0.357 -0.444
vn 0.825 -0.302 -0.477
vn 0.211 -0.952 -0.221
vn -0.706 -0.341 -0.621
vn 0.800 -0.574 -0.175
vn 0.874 -0.486 -0.025
vn -0.325 -0.740 0.589
vn 0.330 -0.815 0.476
vn 0.898 -0.290 0.330
vn 0.926 -0.298 0.232
vn 0.836 -0.315 0.450
vn 0.932 -0.279 0.232
vn 0.906 -0.414 0.090
vn -0.918 0.221 -0.330
vn 0.920 -0.379 0.102
vn 0.932 -0.317 0.176
vn 0.936 -0.279 0.214
vn 0.938 -0.293 0.183
vn -0.938 0.233 -0.257
vn -0.933 0.266 -0.243
vn 0.936 -0.293 0.196
vn 0.936 -0.305 0.176
vn -0.932 0.266 -0.245
vn 0.935 -0.305 0.183
vn -0.945 0.291 -0.151
vn -0.945 0.291 -0.151
vn -0.946 0.296 -0.134
vn 0.331 -0.025 0.943
vn 0.925 -0.265 0.271
vn 0.929 -0.264 0.260
vn -0.938 0.264 -0.225
vn -0.934 0.268 -0.236
vn -0.935 0.283 -0.215
vn -0.938 0.276 -0.209
vn 0.937 -0.275 0.216
vn 0.939 -0.273 0.209
vn -0.921 0.280 -0.270
vn -0.931 0.278 -0.237
vn -0.934 0.274 -0.231
vn 0.950 -0.256 0.178
vn 0.941 -0.275 0.199
vn 0.940 -0.276 0.202
vn -0.922 0.281 -0.267
vn 0.941 -0.275 0.199
vn -0.617 -0.640 0.457
vn 0.583 -0.661 0.472
vn -0.599 -0.436 -0.672
vn 0.599 -0.494 -0.630
vn -0.952 0.305 -0.029
vn -0.950 0.288 -0.121
vn 0.930 -0.268 0.251
vn 0.935 -0.266 0.236
vn -0.939 0.281 -0.197
vn -0.941 0.278 -0.196
vn 0.939 -0.271 0.211
vn 0.941 -0.269 0.206
vn -0.934 0.280 -0.220
vn -0.931 0.278 -0.237
vn 0.951 -0.268 0.152
vn -0.736 0.367 -0.569
vn -0.598 0.494 0.631
vn 0.598 0.436 0.672
vn -0.581 0.662 -0.473
vn 0.616 0.641 -0.458
vn -0.567 -0.653 0.502
vn 0.569 -0.652 0.501
vn -0.581 -0.473 -0.662
vn 0.583 -0.473 -0.661
vn -0.952 0.305 -0.031
vn 0.934 -0.261 0.245
vn -0.936 0.313 -0.164
vn -0.944 0.289 -0.159
vn 0.942 -0.261 0.211
vn 0.937 -0.256 0.237
vn -0.929 0.298 -0.219
vn -0.525 0.495 -0.692
vn -0.563 0.447 0.695
vn 0.564 0.447 0.694
vn -0.583 0.661 -0.472
vn 0.584 0.661 -0.472
vn -0.592 -0.654 0.471
vn 0.586 -0.660 0.470
vn -0.589 -0.463 -0.663
vn 0.588 -0.477 -0.653
vn 0.697 0.303 -0.650
vn -0.480 0.783 -0.395
vn 0.437 0.574 -0.692
vn -0.844 0.533 0.066
vn 0.618 0.331 -0.713
vn 0.831 -0.037 -0.555
vn -0.896 0.124 0.427
vn -0.743 0.640 -0.195
vn -0.478 0.764 -0.433
vn -0.897 0.133 0.422
vn 0.844 -0.103 -0.527
vn -0.745 0.636 -0.201
vn -0.573 0.507 0.644
vn 0.577 0.491 0.652
vn -0.563 0.697 -0.445
vn 0.573 0.688 -0.445
vn 0.791 0.175 -0.586
vn 0.783 0.181 -0.595
vn 0.417 0.605 -0.678
vn 0.465 0.572 -0.676
vn -0.620 0.767 -0.166
vn -0.786 0.615 0.063
vn 0.579 -0.773 0.259
vn 0.692 -0.707 0.145
vn 0.898 -0.314 -0.307
vn -0.408 -0.568 0.715
vn -0.387 -0.582 0.715
vn -0.378 -0.602 0.704
vn -0.884 0.091 0.458
vn -0.606 -0.397 0.689
vn 0.585 -0.773 0.245
vn -0.316 -0.649 0.692
vn 0.916 -0.190 -0.352
vn 0.434 0.630 -0.644
vn 0.934 -0.239 -0.266
vn -0.758 0.642 0.118
vn 0.691 -0.708 0.147
vn -0.242 -0.678 0.694
vn -0.281 -0.613 0.738
vn -0.470 -0.471 0.747
vn -0.214 -0.952 0.217
vn 0.302 -0.952 0.044
vn 0.009 -0.983 0.181
vn 0.463 -0.887 -0.005
vn 0.947 0.162 0.276
vn 0.277 0.948 0.158
vn 0.372 0.927 -0.046
vn 0.508 0.575 0.641
vn 0.045 -0.997 0.055
vn -0.835 -0.533 0.136
vn 0.421 -0.905 -0.067
vn 0.349 -0.935 -0.066
vn 0.645 -0.752 -0.132
vn 0.596 -0.789 -0.148
vn 0.034 0.986 0.164
vn -0.726 0.326 -0.605
vn 0.036 0.992 0.124
vn -0.251 0.897 -0.364
vn 0.210 0.765 0.609
vn -0.191 0.980 -0.063
vn -0.359 -0.873 -0.330
vn 0.474 -0.854 -0.217
vn 0.549 -0.799 -0.247
vn 0.644 -0.740 -0.195
vn -0.580 0.548 -0.602
vn -0.548 0.718 -0.430
vn 0.626 -0.114 0.772
vn -0.734 0.070 -0.675
vn 0.065 -0.960 0.274
vn 0.811 -0.564 -0.153
vn 0.717 -0.124 0.686
vn -0.697 0.020 -0.717
vn -0.849 0.415 0.326
vn -0.898 0.289 0.332
vn 0.105 -0.978 0.183
vn -0.733 -0.519 0.441
vn -0.756 -0.406 0.514
vn 0.464 -0.885 -0.030
vn 0.791 -0.590 -0.159
vn 0.841 -0.501 -0.204
vn -0.517 -0.549 -0.657
vn 0.451 -0.890 0.069
vn -0.275 -0.879 -0.389
vn 0.505 -0.789 0.351
vn -0.743 0.664 0.088
vn -0.822 0.526 0.217
vn -0.860 0.451 0.238
vn -0.516 0.856 0.026
vn 0.809 -0.550 -0.206
vn 0.863 -0.429 -0.266
vn -0.678 -0.311 -0.666
vn -0.641 -0.059 -0.765
vn -0.011 -0.992 -0.124
vn -0.548 -0.724 -0.419
vn -0.238 -0.965 0.106
vn -0.087 -0.995 0.039
vn -0.816 -0.256 -0.519
vn -0.110 0.969 -0.222
vn 0.629 0.141 -0.765
vn 0.765 -0.285 -0.578
vn 0.790 -0.548 -0.273
vn 0.871 -0.018 -0.491
vn -0.003 -0.992 -0.124
vn 0.218 -0.367 0.904
vn -0.997 -0.055 -0.054
vn 0.621 -0.124 0.774
vn -0.694 0.073 -0.716
vn -0.731 0.075 -0.678
vn -0.727 0.071 -0.683
vn -0.697 0.068 -0.713
vn -0.682 0.689 0.246
vn -0.177 0.984 0.011
vn 0.712 -0.129 0.690
vn 0.704 -0.095 0.704
vn 0.682 -0.090 0.726
vn -0.681 0.046 -0.731
vn 0.792 -0.205 0.576
vn 0.771 -0.284 0.570
vn -0.680 0.063 -0.730
vn -0.584 -0.046 -0.811
vn -0.674 0.709 0.206
vn -0.700 0.670 0.245
vn -0.661 0.722 0.204
vn -0.435 0.896 0.094
vn 0.593 0.771 -0.234
vn -0.199 0.979 0.049
vn 0.701 -0.097 0.706
vn 0.725 -0.113 0.680
vn 0.735 -0.101 0.670
vn 0.833 -0.123 0.539
vn -0.674 0.709 0.206
vn -0.522 0.846 0.112
vn -0.336 0.941 0.045
vn -0.361 0.932 0.041
vn 0.600 0.740 -0.304
vn 0.429 0.873 -0.232
vn 0.086 0.972 -0.217
vn 0.347 0.884 -0.312
vn -0.776 0.101 -0.623
vn 0.030 -0.087 0.996
vn -0.692 0.132 -0.710
vn -0.700 0.096 -0.708
vn -0.722 0.084 -0.687
vn -0.703 0.097 -0.705
vn 0.708 -0.071 0.702
vn 0.672 -0.084 0.736
vn 0.676 -0.079 0.732
vn 0.720 -0.040 0.693
vn -0.585 0.238 -0.775
vn -0.592 0.315 -0.742
vn -0.668 0.111 -0.736
vn -0.678 0.119 -0.725
vn 0.705 -0.068 0.706
vn 0.722 -0.057 0.689
vn 0.787 0.074 0.613
vn -0.542 0.166 -0.824
vn -0.772 0.093 -0.629
vn -0.687 0.128 -0.716
vn 0.667 -0.079 0.741
vn 0.702 -0.019 0.712
vn 0.158 0.095 0.983
vn -0.270 0.008 0.963
vn 0.517 0.763 0.388
vn 0.807 0.557 -0.194
vn -0.815 0.447 0.369
vn -0.484 0.859 -0.167
vn 0.267 0.324 -0.908
vn -0.143 0.412 -0.900
vn 0.249 -0.318 0.915
vn -0.168 -0.400 0.901
vn 0.515 -0.756 -0.404
vn 0.801 -0.566 0.197
vn -0.812 -0.450 -0.371
vn -0.536 -0.837 0.109
vn 0.169 -0.101 -0.980
vn -0.242 0.002 -0.970

# Facets
f 1//1 3//1 2//1
f 4//2 2//2 3//2
f 1//3 5//3 3//3
f 1//4 6//4 5//4
f 3//5 7//5 4//5
f 3//6 5//6 7//6
f 8//7 5//7 6//7
f 8//8 7//8 5//8
f 9//9 2//9 10//9
f 9//10 1//10 2//10
f 4//11 10//11 2//11
f 4//12 11//12 10//12
f 12//13 14//13 13//13
f 13//14 14//14 9//14
f 9//15 14//15 6//15
f 9//16 6//16 1//16
f 11//17 4//17 7//17
f 15//18 11//18 7//18
f 16//19 14//19 12//19
f 16//20 6//20 14//20
f 8//21 6//21 16//21
f 17//22 8//22 16//22
f 8//23 15//23 7//23
f 8//24 17//24 15//24
f 9//25 10//25 18//25
f 18//26 10//26 11//26
f 12//27 13//27 19//27
f 18//28 13//28 9//28
f 19//29 13//29 18//29
f 20//30 19//30 18//30
f 20//31 11//31 15//31
f 20//32 18//32 11//32
f 16//33 12//33 19//33
f 19//34 17//34 16//34
f 19//35 20//35 17//35
f 20//36 15//36 17//36
f 21//37 23//37 22//37
f 24//38 22//38 23//38
f 21//39 25//39 23//39
f 21//40 26//40 25//40
f 23//41 27//41 24//41
f 23//42 25//42 27//42
f 28//43 25//43 26//43
f 28//44 27//44 25//44
f 29//45 22//45 30//45
f 29//46 21//46 22//46
f 24//47 30//47 22//47
f 24//48 31//48 30//48
f 26//49 21//49 29//49
f 26//50 29//50 32//50
f 31//51 24//51 27//51
f 33//52 31//52 27//52
f 34//53 26//53 32//53
f 34//54 28//54 26//54
f 28//55 33//55 27//55
f 28//56 34//56 33//56
f 29//57 30//57 35//57
f 35//58 30//58 31//58
f 32//59 35//59 36//59
f 32//60 29//60 35//60
f 36//61 31//61 33//61
f 36//62 35//62 31//62
f 34//63 32//63 36//63
f 36//64 33//64 34//64
f 37//65 39//65 38//65
f 40//66 39//66 41//66
f 40//67 38//67 39//67
f 42//68 40//68 41//68
f 43//69 39//69 37//69
f 44//70 43//70 45//70
f 39//71 43//71 44//71
f 41//72 39//72 44//72
f 41//73 46//73 42//73
f 41//74 44//74 46//74
f 45//75 47//75 44//75
f 45//76 48//76 47//76
f 44//77 49//77 46//77
f 44//78 47//78 49//78
f 50//79 47//79 48//79
f 50//80 49//80 47//80
f 37//81 38//81 51//81
f 38//82 52//82 51//82
f 53//83 52//83 38//83
f 40//84 53//84 38//84
f 42//85 53//85 40//85
f 42//86 54//86 53//86
f 43//87 37//87 51//87
f 43//88 51//88 45//88
f 45//89 51//89 52//89
f 45//90 52//90 55//90
f 54//91 42//91 46//91
f 56//92 54//92 46//92
f 48//93 58//93 57//93
f 55//94 58//94 48//94
f 45//95 55//95 48//95
f 56//96 57//96 58//96
f 49//97 57//97 56//97
f 46//98 49//98 56//98
f 50//99 48//99 57//99
f 57//100 49//100 50//100
f 59//101 61//101 60//101
f 62//102 60//102 61//102
f 63//103 61//103 59//103
f 63//104 62//104 61//104
f 64//105 53//105 65//105
f 64//106 52//106 53//106
f 54//107 65//107 53//107
f 54//108 66//108 65//108
f 55//109 52//109 64//109
f 55//110 64//110 67//110
f 66//111 54//111 56//111
f 68//112 66//112 56//112
f 69//113 55//113 67//113
f 69//114 58//114 55//114
f 58//115 68//115 56//115
f 58//116 69//116 68//116
f 59//117 60//117 70//117
f 70//118 60//118 62//118
f 63//119 59//119 70//119
f 70//120 62//120 63//120
f 71//121 73//121 72//121
f 74//122 73//122 71//122
f 75//123 71//123 72//123
f 75//124 74//124 71//124
f 64//125 65//125 76//125
f 76//126 65//126 66//126
f 67//127 76//127 77//127
f 67//128 64//128 76//128
f 77//129 66//129 68//129
f 77//130 76//130 66//130
f 69//131 67//131 77//131
f 77//132 68//132 69//132
f 72//133 73//133 78//133
f 78//134 73//134 74//134
f 75//135 72//135 78//135
f 78//136 74//136 75//136
f 79//137 81//137 80//137
f 82//138 80//138 81//138
f 83//139 81//139 79//139
f 83//140 82//140 81//140
f 84//141 86//141 85//141
f 87//142 86//142 88//142
f 87//143 85//143 86//143
f 89//144 87//144 88//144
f 84//145 90//145 86//145
f 84//146 91//146 90//146
f 88//147 93//147 92//147
f 90//148 93//148 88//148
f 86//149 90//149 88//149
f 92//150 89//150 88//150
f 94//151 90//151 91//151
f 94//152 93//152 90//152
f 79//153 80//153 95//153
f 95//154 80//154 82//154
f 83//155 79//155 95//155
f 95//156 82//156 83//156
f 96//157 85//157 97//157
f 96//158 84//158 85//158
f 85//159 87//159 98//159
f 97//160 85//160 98//160
f 89//161 98//161 87//161
f 89//162 99//162 98//162
f 91//163 101//163 100//163
f 96//164 101//164 91//164
f 84//165 96//165 91//165
f 93//166 100//166 92//166
f 92//167 100//167 101//167
f 92//168 101//168 102//168
f 92//169 99//169 89//169
f 92//170 102//170 99//170
f 94//171 91//171 100//171
f 100//172 93//172 94//172
f 96//173 97//173 103//173
f 104//174 97//174 98//174
f 104//175 103//175 97//175
f 104//176 98//176 99//176
f 101//177 96//177 103//177
f 103//178 102//178 101//178
f 103//179 104//179 102//179
f 104//180 99//180 102//180
f 105//181 107//181 106//181
f 108//182 107//182 109//182
f 108//183 106//183 107//183
f 110//184 108//184 109//184
f 111//185 113//185 112//185
f 114//186 113//186 115//186
f 114//187 112//187 113//187
f 116//188 114//188 115//188
f 105//189 117//189 107//189
f 105//190 118//190 117//190
f 119//191 109//191 107//191
f 117//192 119//192 107//192
f 109//193 120//193 110//193
f 109//194 119//194 120//194
f 121//195 113//195 111//195
f 122//196 121//196 123//196
f 113//197 121//197 122//197
f 115//198 113//198 122//198
f 115//199 124//199 116//199
f 115//200 122//200 124//200
f 125//201 117//201 118//201
f 125//202 119//202 117//202
f 125//203 126//203 119//203
f 126//204 120//204 119//204
f 127//205 122//205 123//205
f 127//206 124//206 122//206
f 128//207 130//207 129//207
f 129//208 131//208 128//208
f 132//209 134//209 133//209
f 135//210 133//210 134//210
f 128//211 136//211 130//211
f 131//212 136//212 128//212
f 137//213 106//213 138//213
f 137//214 105//214 106//214
f 134//215 132//215 108//215
f 108//216 132//216 138//216
f 108//217 138//217 106//217
f 110//218 134//218 108//218
f 135//219 134//219 110//219
f 139//220 135//220 110//220
f 111//221 112//221 140//221
f 141//222 112//222 114//222
f 141//223 140//223 112//223
f 141//224 114//224 116//224
f 118//225 143//225 142//225
f 137//226 143//226 118//226
f 105//227 137//227 118//227
f 142//228 143//228 144//228
f 139//229 110//229 120//229
f 145//230 139//230 120//230
f 121//231 111//231 140//231
f 140//232 123//232 121//232
f 146//233 123//233 140//233
f 141//234 146//234 140//234
f 146//235 116//235 124//235
f 146//236 141//236 116//236
f 125//237 118//237 142//237
f 147//238 142//238 144//238
f 125//239 142//239 147//239
f 126//240 125//240 147//240
f 126//241 145//241 120//241
f 126//242 147//242 145//242
f 127//243 123//243 146//243
f 146//244 124//244 127//244
f 129//245 149//245 148//245
f 130//246 149//246 129//246
f 131//247 151//247 150//247
f 131//248 129//248 151//248
f 129//249 148//249 151//249
f 151//250 152//250 150//250
f 132//251 133//251 153//251
f 153//252 133//252 135//252
f 154//253 130//253 136//253
f 154//254 155//254 130//254
f 155//255 149//255 130//255
f 136//256 131//256 150//256
f 136//257 150//257 154//257
f 154//258 150//258 156//258
f 157//259 150//259 152//259
f 156//260 150//260 157//260
f 137//261 138//261 158//261
f 153//262 138//262 132//262
f 158//263 138//263 153//263
f 159//264 158//264 153//264
f 159//265 135//265 139//265
f 159//266 153//266 135//266
f 154//267 160//267 155//267
f 156//268 160//268 154//268
f 161//269 160//269 156//269
f 157//270 161//270 156//270
f 143//271 137//271 158//271
f 158//272 144//272 143//272
f 162//273 144//273 158//273
f 159//274 162//274 158//274
f 162//275 139//275 145//275
f 162//276 159//276 139//276
f 147//277 144//277 162//277
f 162//278 145//278 147//278
f 148//279 164//279 163//279
f 149//280 164//280 148//280
f 165//281 163//281 166//281
f 165//282 151//282 163//282
f 151//283 148//283 163//283
f 151//284 165//284 152//284
f 167//285 155//285 168//285
f 167//286 164//286 155//286
f 164//287 149//287 155//287
f 166//288 167//288 168//288
f 166//289 168//289 165//289
f 165//290 168//290 169//290
f 152//291 169//291 157//291
f 165//292 169//292 152//292
f 155//293 160//293 168//293
f 161//294 168//294 160//294
f 169//295 168//295 161//295
f 157//296 169//296 161//296
f 163//297 164//297 170//297
f 163//298 170//298 166//298
f 164//299 167//299 170//299
f 166//300 170//300 167//300
f 171//301 173//301 172//301
f 174//302 172//302 173//302
f 171//303 175//303 173//303
f 171//304 176//304 175//304
f 173//305 177//305 174//305
f 173//306 175//306 177//306
f 178//307 175//307 176//307
f 178//308 177//308 175//308
f 171//309 172//309 179//309
f 179//310 172//310 174//310
f 176//311 179//311 180//311
f 176//312 171//312 179//312
f 180//313 174//313 177//313
f 180//314 179//314 174//314
f 178//315 176//315 180//315
f 180//316 177//316 178//316

# Thankyou for using Spin3D

