# Created using Spin3D

# Vertex Array
v -22.838 -29.006 71.145
v -22.710 -29.027 71.211
v -23.408 -29.015 71.047
v -22.386 -29.010 71.253
v -27.004 -28.914 70.181
v -27.143 -28.899 70.139
v -27.458 -28.896 70.063
v -25.896 -28.940 70.437
v -26.107 -28.936 70.398
v -24.167 -28.972 70.825
v -24.628 -28.983 70.759
v -23.144 -28.966 71.021
v -22.536 -28.975 71.165
v -26.932 -28.901 70.174
v -25.586 -28.915 70.463
v -24.064 -28.928 70.786
v -23.048 -28.939 71.007
v -22.662 -29.011 71.206
v -23.445 -29.008 71.042
v -22.580 -28.977 71.174
v -27.348 -28.884 70.073
v -26.938 -28.881 70.160
v -26.121 -28.906 70.363
v -24.736 -28.957 70.714
v -22.791 -28.943 71.075
v -26.581 -28.882 70.226
v -25.170 -28.895 70.527
v -23.707 -28.916 70.853
v -1.693 -23.720 75.634
v -1.606 -23.729 75.676
v -1.543 -23.818 75.651
v -1.431 -23.796 75.678
v -1.258 -23.685 75.587
v -1.139 -23.548 75.563
v -23.397 -28.971 71.007
v -1.522 -23.616 75.539
v -1.527 -23.362 75.470
v -1.198 -23.468 75.457
v -0.802 -23.133 75.339
v -26.065 -28.884 70.341
v -24.633 -28.915 70.678
v -23.247 -28.938 70.987
v -1.167 -23.145 75.320
v -0.702 -22.834 75.172
v -1.626 -23.453 75.570
v -1.428 -23.350 75.553
v -1.270 -23.469 75.577
v -0.867 -23.110 75.392
v -1.408 -23.061 75.393
v -0.345 -22.511 75.053
v -0.381 -22.475 75.090
v -0.127 -22.196 74.933
v -1.089 -22.792 75.224
v -0.714 -22.577 75.084
v -0.262 -22.208 74.934
v -1.342 -23.051 75.424
v -0.872 -22.752 75.280
v -0.977 -22.604 75.206
v -0.272 -22.066 74.953
v -0.517 -22.173 75.019
v -0.151 -21.914 74.858
v -0.094 -22.029 74.891
v -0.507 -22.185 74.977
v 12.113 -11.983 30.413
v 12.114 -11.983 30.414
v 12.114 -11.984 30.413
v 12.116 -11.983 30.413
v 12.114 -11.983 30.412
v -0.258 -21.914 74.886
v 12.114 -11.982 30.413
v 6.659 -1.441 38.373
v 6.844 -1.094 39.095
v 6.909 -1.938 37.898
v 7.138 -1.627 38.196
v 6.842 -2.179 37.421
v 6.800 -1.783 37.616
v 7.034 -1.981 37.503
v 6.889 -2.281 37.139
v 6.196 0.130 40.347
v 6.486 0.358 41.003
v 6.624 -0.336 40.194
v 6.970 -0.260 40.106
v 6.548 -0.469 38.919
v 7.297 -0.842 39.071
v 7.344 -1.099 38.312
v 7.551 -0.138 39.207
v 6.940 -1.993 37.302
v 7.041 -0.889 38.171
v 7.459 -0.157 38.762
v 4.801 2.576 24.895
v 5.483 2.610 25.122
v 5.978 2.407 24.966
v 7.203 2.516 25.243
v 8.031 2.216 24.973
v 9.518 2.259 25.191
v 10.307 2.029 24.894
v 11.264 2.082 25.047
v 12.128 1.935 24.781
v 12.368 2.098 24.928
v 5.217 2.432 24.740
v 4.680 2.570 24.691
v 6.680 2.285 24.721
v 8.933 2.118 24.686
v 11.159 1.976 24.628
v 13.136 1.915 24.681
v 12.720 1.913 24.582
v 13.338 1.916 24.587
v 5.596 2.475 24.597
v 7.510 2.357 24.571
v 9.868 2.205 24.562
v 11.730 2.059 24.547
v 12.692 2.048 24.604
v 5.884 1.623 41.948
v 6.058 1.317 42.085
v 6.005 0.969 41.681
v 6.316 1.022 41.774
v 5.339 1.583 41.755
v 5.480 1.750 41.857
v 5.587 1.273 41.661
v 6.868 0.914 41.027
v 7.347 0.058 39.933
v 7.438 0.840 40.119
v 5.582 1.243 41.280
v 6.110 1.214 40.494
v 7.550 0.647 39.453
v 6.723 0.522 39.303
v 7.215 0.849 39.350
v 4.943 2.740 25.043
v 5.963 2.773 25.227
v 7.390 2.758 25.335
v 9.011 2.566 25.342
v 10.860 2.327 25.225
v 11.530 2.381 25.110
v 4.680 2.728 24.819
v 5.499 2.850 25.011
v 6.724 2.871 25.195
v 13.145 2.006 24.698
v 12.191 2.242 24.840
v 4.976 2.659 24.639
v 6.258 2.632 24.625
v 8.420 2.533 24.653
v 10.868 2.344 24.692
v 6.299 1.438 41.892
v 5.516 1.678 41.511
v 5.952 1.990 41.451
v 6.509 1.908 41.444
v 6.945 2.196 40.780
v 7.118 1.635 40.789
v 6.364 2.149 40.813
v 7.347 1.522 40.116
v 7.067 1.947 40.186
v 6.714 1.692 40.103
v 8.604 2.762 25.202
v 10.281 2.567 25.264
v 5.384 2.788 24.764
v 7.004 2.804 24.901
v 9.156 2.666 24.892
v 10.624 2.548 25.030
v 6.493 2.368 41.117
v 6.741 2.338 40.630

# Normal Array
vn -0.094 0.879 0.467
vn -0.112 0.861 0.495
vn 0.197 -0.506 -0.840
vn 0.010 0.998 0.059
vn 0.184 -0.550 -0.815
vn -0.084 0.890 0.448
vn -0.014 0.982 0.187
vn -0.086 0.883 0.462
vn -0.101 0.854 0.510
vn -0.107 0.840 0.533
vn -0.122 0.834 0.538
vn -0.122 0.818 0.562
vn -0.098 0.851 0.515
vn -0.099 0.853 0.513
vn -0.112 0.821 0.559
vn -0.112 0.815 0.568
vn -0.118 0.799 0.590
vn -0.118 0.799 0.590
vn -0.128 0.768 0.627
vn -0.134 0.780 0.611
vn 0.155 -0.640 -0.752
vn 0.211 0.447 -0.869
vn 0.136 -0.595 -0.792
vn 0.101 -0.810 -0.578
vn 0.135 -0.790 -0.598
vn 0.131 -0.798 -0.588
vn 0.133 -0.765 -0.630
vn 0.141 -0.732 -0.666
vn 0.163 -0.639 -0.752
vn 0.142 -0.732 -0.666
vn 0.215 0.474 -0.854
vn 0.168 -0.629 -0.759
vn -0.019 -0.940 -0.340
vn -0.012 -0.952 -0.305
vn -0.136 0.716 0.685
vn -0.081 -0.905 0.417
vn -0.144 0.683 0.716
vn -0.142 0.704 0.696
vn -0.141 0.705 0.695
vn -0.141 0.710 0.690
vn -0.169 0.569 0.804
vn -0.168 0.587 0.792
vn -0.191 0.623 0.759
vn -0.167 -0.786 0.595
vn -0.422 -0.509 0.750
vn 0.275 -0.827 -0.489
vn -0.145 -0.360 0.922
vn 0.624 -0.434 0.650
vn 0.130 -0.763 -0.634
vn 0.109 -0.818 -0.566
vn -0.197 -0.459 -0.867
vn -0.342 -0.256 -0.904
vn 0.051 -0.523 -0.851
vn -0.003 -0.484 -0.875
vn 0.736 -0.665 -0.127
vn 0.221 -0.545 -0.809
vn 0.114 -0.819 -0.563
vn 0.119 -0.800 -0.588
vn 0.114 -0.819 -0.563
vn 0.131 -0.763 -0.633
vn 0.120 -0.801 -0.586
vn 0.107 -0.834 -0.541
vn 0.083 -0.873 -0.480
vn 0.105 -0.830 -0.548
vn -0.232 -0.262 -0.937
vn -0.060 -0.385 -0.921
vn -0.033 -0.388 -0.921
vn 0.201 -0.528 -0.825
vn -0.012 -0.999 0.042
vn -0.122 -0.834 0.537
vn 0.053 -0.947 -0.317
vn 0.068 -0.929 -0.365
vn 0.075 -0.912 -0.404
vn 0.057 -0.937 -0.346
vn -0.102 0.351 0.931
vn -0.395 0.305 0.867
vn 0.089 0.254 0.963
vn 0.067 0.280 0.958
vn 0.214 0.191 0.958
vn 0.233 0.224 0.946
vn -0.717 0.013 -0.697
vn -0.765 0.142 -0.628
vn 0.645 -0.128 0.754
vn 0.612 -0.095 0.785
vn 0.617 -0.077 0.783
vn 0.632 -0.148 0.761
vn -0.424 -0.063 -0.904
vn -0.276 -0.193 -0.942
vn -0.081 -0.326 -0.942
vn -0.239 -0.203 -0.950
vn 0.202 -0.528 -0.825
vn 0.028 -0.373 -0.927
vn -0.048 -0.326 -0.944
vn 0.034 -0.374 -0.927
vn -0.144 0.426 0.893
vn 0.107 0.329 0.938
vn 0.039 0.385 0.922
vn 0.164 0.299 0.940
vn -0.405 0.646 0.647
vn -0.423 0.558 0.714
vn 0.096 0.358 0.929
vn -0.030 0.425 0.905
vn -0.003 0.440 0.898
vn 0.234 0.375 0.897
vn 0.274 0.240 0.931
vn 0.217 0.258 0.941
vn 0.192 0.297 0.935
vn 0.393 0.152 0.907
vn -0.633 0.306 -0.711
vn -0.712 0.605 -0.357
vn -0.619 0.297 -0.727
vn -0.296 -0.104 -0.950
vn 0.034 -0.261 -0.965
vn -0.187 -0.178 -0.966
vn -0.186 -0.167 -0.968
vn 0.022 -0.250 -0.968
vn -0.582 -0.661 0.473
vn 0.545 -0.682 0.488
vn -0.583 -0.472 -0.661
vn 0.556 -0.483 -0.677
vn 0.077 0.394 0.916
vn 0.240 0.370 0.897
vn -0.745 0.566 -0.354
vn -0.259 -0.082 -0.962
vn -0.569 0.501 0.652
vn 0.596 0.490 0.637
vn -0.563 0.695 -0.447
vn 0.600 0.673 -0.433
vn -0.514 -0.714 0.475
vn 0.318 -0.766 0.558
vn -0.567 -0.700 0.433
vn -0.984 -0.019 -0.175
vn 0.629 -0.726 0.278
vn 0.629 -0.726 0.278
vn -0.988 -0.030 -0.154
vn 0.590 -0.722 0.360
vn -0.560 -0.673 0.482
vn 0.316 -0.693 0.648
vn -0.629 -0.693 0.353
vn -0.474 -0.740 0.478
vn -0.967 0.031 -0.252
vn 0.900 -0.393 0.189
vn 0.425 -0.711 0.560
vn 0.430 -0.722 0.542
vn 0.312 -0.752 0.581
vn 0.914 -0.365 0.180
vn -0.575 0.538 -0.616
vn -0.525 0.547 -0.653
vn -0.984 -0.013 -0.177
vn 0.563 0.299 -0.770
vn 0.602 0.414 -0.682
vn 0.926 -0.374 0.053
vn 0.869 0.255 -0.425
vn 0.979 -0.023 -0.202
vn -0.660 0.455 -0.598
vn 0.899 0.085 -0.429
vn -0.151 -0.807 0.571
vn -0.074 -0.772 0.632
vn -0.087 -0.732 0.676
vn -0.052 -0.852 0.521
vn -0.071 -0.769 0.635
vn -0.019 -0.901 0.433
vn -0.040 -0.839 0.543
vn 0.083 -0.735 0.673
vn -0.154 -0.895 0.419
vn -0.261 -0.948 0.183
vn -0.091 -0.971 0.221
vn -0.095 -0.973 0.211
vn -0.079 -0.993 0.092
vn -0.072 -0.991 0.113
vn -0.049 -0.998 0.040
vn -0.064 -0.998 -0.009
vn 0.054 -0.715 0.697
vn -0.013 -0.997 0.076
vn -0.041 -0.999 -0.008
vn 0.005 -1.000 0.002
vn -0.143 -0.773 -0.618
vn -0.092 -0.856 -0.509
vn -0.055 -0.746 -0.664
vn -0.064 -0.715 -0.696
vn -0.044 -0.634 -0.772
vn -0.057 -0.562 -0.825
vn -0.047 -0.515 -0.856
vn -0.046 -0.518 -0.854
vn 0.060 0.172 -0.983
vn 0.007 0.161 -0.987
vn -0.865 -0.318 0.389
vn -0.067 -0.752 0.656
vn -0.169 -0.408 0.897
vn -0.322 -0.422 0.847
vn -0.339 -0.408 0.847
vn -0.556 -0.737 0.384
vn -0.386 -0.805 0.451
vn 0.651 -0.433 0.624
vn 0.617 -0.452 0.645
vn 0.668 -0.484 0.565
vn -0.061 -0.763 0.644
vn 0.818 -0.222 0.532
vn -0.768 -0.637 0.064
vn -0.854 -0.518 0.055
vn -0.829 0.010 -0.559
vn -0.974 -0.047 -0.220
vn 0.679 -0.527 0.511
vn 0.860 -0.377 0.343
vn 0.933 -0.183 0.311
vn 0.982 -0.056 0.181
vn -0.732 0.355 -0.582
vn -0.668 0.368 -0.647
vn 0.223 0.532 -0.817
vn -0.296 0.556 -0.776
vn 0.977 0.065 -0.205
vn 0.522 0.521 -0.675
vn -0.246 -0.522 0.817
vn -0.084 -0.351 0.933
vn -0.173 -0.120 0.978
vn -0.075 -0.305 0.949
vn -0.043 -0.327 0.944
vn -0.035 -0.487 0.873
vn 0.009 -0.579 0.815
vn -0.000 -0.442 0.897
vn 0.101 -0.472 0.876
vn 0.177 -0.104 0.979
vn -0.182 0.970 0.163
vn -0.639 -0.130 0.758
vn -0.787 -0.390 0.478
vn -0.129 0.815 0.564
vn -0.090 0.863 0.497
vn -0.051 0.646 0.762
vn 0.258 -0.195 0.946
vn 0.273 0.724 0.634
vn 0.372 0.772 0.515
vn 0.415 -0.200 0.888
vn -0.310 0.597 -0.740
vn -0.118 -0.178 -0.977
vn -0.002 0.181 -0.983
vn -0.007 0.199 -0.980
vn 0.018 0.342 -0.940
vn 0.026 0.306 -0.952
vn 0.035 0.536 -0.844
vn 0.050 0.466 -0.883
vn 0.165 0.905 -0.393
vn 0.119 0.876 -0.467
vn 0.054 0.578 -0.814
vn 0.171 0.887 -0.429
vn 0.345 0.540 0.768
vn 0.669 -0.177 0.722
vn -0.675 0.706 -0.215
vn -0.587 0.778 -0.221
vn 0.113 0.792 0.600
vn 0.124 0.790 0.600
vn 0.351 0.559 0.751
vn 0.759 0.244 0.604
vn 0.727 -0.025 0.686
vn 0.858 0.098 0.505
vn 0.787 -0.138 0.602
vn 0.837 -0.114 0.535
vn -0.827 0.161 -0.539
vn -0.814 0.171 -0.555
vn -0.523 0.618 -0.588
vn -0.820 0.371 -0.437
vn 0.920 0.288 0.265
vn 0.829 0.555 -0.062
vn 0.983 0.132 0.127
vn 0.945 0.128 0.300
vn -0.699 0.393 -0.598
vn -0.700 0.399 -0.592
vn 0.644 0.516 -0.564
vn -0.226 0.571 -0.789
vn -0.284 0.540 -0.793
vn 0.539 0.585 -0.606
vn 0.078 0.682 0.727
vn 0.062 -0.011 0.998
vn 0.046 0.643 0.764
vn 0.150 0.207 0.967
vn -0.098 0.975 -0.199
vn 0.015 0.978 -0.209
vn 0.011 0.968 -0.249
vn 0.049 0.880 0.473
vn 0.058 0.984 -0.170
vn 0.062 0.979 -0.194
vn 0.112 0.990 0.082
vn 0.092 0.986 -0.142
vn 0.186 0.981 -0.049
vn 0.165 0.973 0.162
vn -0.111 0.853 -0.510
vn 0.007 0.689 -0.725
vn 0.043 0.792 -0.609
vn 0.044 0.791 -0.611
vn 0.049 0.802 -0.595
vn 0.070 0.767 -0.638
vn 0.113 0.885 -0.453
vn 0.118 0.885 -0.450
vn 0.095 0.579 0.810
vn 0.636 0.462 0.618
vn -0.544 0.773 -0.326
vn -0.651 0.719 -0.241
vn 0.646 0.742 -0.178
vn 0.466 0.865 0.184
vn -0.569 0.534 -0.625
vn -0.270 0.616 -0.740

# Facets
f 1//1 3//1 2//1
f 2//2 4//2 1//2
f 5//3 7//3 6//3
f 5//4 9//4 8//4
f 6//5 9//5 5//5
f 8//6 11//6 10//6
f 9//7 11//7 8//7
f 3//8 10//8 11//8
f 3//9 1//9 10//9
f 1//10 12//10 10//10
f 13//11 1//11 4//11
f 12//12 1//12 13//12
f 5//13 14//13 7//13
f 8//14 14//14 5//14
f 15//15 14//15 8//15
f 10//16 15//16 8//16
f 16//17 15//17 10//17
f 12//18 16//18 10//18
f 17//19 16//19 12//19
f 13//20 17//20 12//20
f 2//21 19//21 18//21
f 3//22 19//22 2//22
f 18//23 4//23 2//23
f 20//24 4//24 18//24
f 6//25 7//25 21//25
f 22//26 6//26 21//26
f 22//27 23//27 6//27
f 23//28 9//28 6//28
f 11//29 9//29 24//29
f 9//30 23//30 24//30
f 19//31 3//31 11//31
f 24//32 19//32 11//32
f 4//33 20//33 13//33
f 20//34 25//34 13//34
f 7//35 14//35 21//35
f 21//36 26//36 22//36
f 21//37 14//37 26//37
f 14//38 15//38 26//38
f 16//39 27//39 15//39
f 15//40 27//40 26//40
f 17//41 28//41 16//41
f 16//42 28//42 27//42
f 25//43 17//43 13//43
f 28//44 17//44 25//44
f 29//45 31//45 30//45
f 32//46 31//46 33//46
f 32//47 30//47 31//47
f 34//48 32//48 33//48
f 18//49 19//49 35//49
f 18//50 35//50 20//50
f 29//51 36//51 31//51
f 29//52 37//52 36//52
f 38//53 33//53 31//53
f 36//54 38//54 31//54
f 33//55 39//55 34//55
f 33//56 38//56 39//56
f 23//57 22//57 40//57
f 23//58 41//58 24//58
f 40//59 41//59 23//59
f 24//60 35//60 19//60
f 24//61 41//61 35//61
f 41//62 42//62 35//62
f 20//63 42//63 25//63
f 35//64 42//64 20//64
f 43//65 36//65 37//65
f 43//66 38//66 36//66
f 43//67 44//67 38//67
f 44//68 39//68 38//68
f 22//69 26//69 40//69
f 27//70 40//70 26//70
f 41//71 40//71 27//71
f 28//72 41//72 27//72
f 42//73 41//73 28//73
f 25//74 42//74 28//74
f 45//75 30//75 46//75
f 45//76 29//76 30//76
f 30//77 32//77 47//77
f 46//78 30//78 47//78
f 34//79 47//79 32//79
f 34//80 48//80 47//80
f 37//81 29//81 45//81
f 37//82 45//82 49//82
f 50//83 51//83 39//83
f 39//84 51//84 48//84
f 39//85 48//85 34//85
f 52//86 51//86 50//86
f 53//87 37//87 49//87
f 53//88 43//88 37//88
f 54//89 44//89 43//89
f 54//90 43//90 53//90
f 44//91 50//91 39//91
f 55//92 50//92 44//92
f 54//93 55//93 44//93
f 55//94 52//94 50//94
f 45//95 46//95 56//95
f 57//96 46//96 47//96
f 57//97 56//97 46//97
f 57//98 47//98 48//98
f 49//99 56//99 58//99
f 49//100 45//100 56//100
f 59//101 60//101 57//101
f 57//102 60//102 58//102
f 57//103 58//103 56//103
f 59//104 62//104 61//104
f 59//105 51//105 62//105
f 57//106 51//106 59//106
f 48//107 51//107 57//107
f 62//108 51//108 52//108
f 53//109 49//109 58//109
f 63//110 58//110 60//110
f 53//111 58//111 63//111
f 54//112 53//112 63//112
f 55//113 61//113 62//113
f 63//114 61//114 55//114
f 54//115 63//115 55//115
f 62//116 52//116 55//116
f 64//117 66//117 65//117
f 67//118 65//118 66//118
f 68//119 66//119 64//119
f 68//120 67//120 66//120
f 60//121 59//121 69//121
f 69//122 59//122 61//122
f 63//123 60//123 69//123
f 69//124 61//124 63//124
f 64//125 65//125 70//125
f 70//126 65//126 67//126
f 68//127 64//127 70//127
f 70//128 67//128 68//128
f 71//129 73//129 72//129
f 74//130 72//130 73//130
f 71//131 75//131 73//131
f 71//132 76//132 75//132
f 73//133 77//133 74//133
f 73//134 75//134 77//134
f 78//135 75//135 76//135
f 78//136 77//136 75//136
f 79//137 81//137 80//137
f 82//138 80//138 81//138
f 79//139 72//139 81//139
f 71//140 72//140 79//140
f 83//141 71//141 79//141
f 84//142 74//142 85//142
f 84//143 72//143 74//143
f 82//144 72//144 84//144
f 81//145 72//145 82//145
f 86//146 84//146 85//146
f 76//147 88//147 87//147
f 83//148 88//148 76//148
f 71//149 83//149 76//149
f 89//150 85//150 88//150
f 88//151 85//151 77//151
f 77//152 85//152 74//152
f 88//153 77//153 87//153
f 89//154 86//154 85//154
f 78//155 76//155 87//155
f 87//156 77//156 78//156
f 90//157 92//157 91//157
f 93//158 92//158 94//158
f 93//159 91//159 92//159
f 95//160 94//160 96//160
f 95//161 93//161 94//161
f 97//162 96//162 98//162
f 97//163 95//163 96//163
f 99//164 97//164 98//164
f 90//165 100//165 92//165
f 90//166 101//166 100//166
f 102//167 94//167 92//167
f 100//168 102//168 92//168
f 103//169 96//169 94//169
f 102//170 103//170 94//170
f 104//171 98//171 96//171
f 103//172 104//172 96//172
f 98//173 105//173 99//173
f 106//174 105//174 98//174
f 104//175 106//175 98//175
f 107//176 105//176 106//176
f 108//177 100//177 101//177
f 108//178 102//178 100//178
f 108//179 109//179 102//179
f 109//180 103//180 102//180
f 109//181 110//181 103//181
f 110//182 104//182 103//182
f 110//183 111//183 104//183
f 111//184 106//184 104//184
f 111//185 112//185 106//185
f 112//186 107//186 106//186
f 113//187 115//187 114//187
f 116//188 114//188 115//188
f 117//189 119//189 118//189
f 119//190 113//190 118//190
f 119//191 115//191 113//191
f 79//192 115//192 119//192
f 80//193 115//193 79//193
f 120//194 82//194 121//194
f 120//195 80//195 82//195
f 116//196 80//196 120//196
f 115//197 80//197 116//197
f 122//198 120//198 121//198
f 123//199 119//199 117//199
f 119//200 123//200 79//200
f 79//201 123//201 124//201
f 79//202 124//202 83//202
f 121//203 82//203 84//203
f 86//204 121//204 84//204
f 122//205 121//205 86//205
f 125//206 122//206 86//206
f 126//207 83//207 124//207
f 126//208 88//208 83//208
f 127//209 89//209 88//209
f 127//210 88//210 126//210
f 89//211 125//211 86//211
f 89//212 127//212 125//212
f 90//213 91//213 128//213
f 129//214 91//214 93//214
f 129//215 128//215 91//215
f 93//216 130//216 129//216
f 131//217 130//217 93//217
f 95//218 131//218 93//218
f 95//219 97//219 132//219
f 131//220 95//220 132//220
f 99//221 132//221 97//221
f 99//222 133//222 132//222
f 134//223 128//223 135//223
f 90//224 128//224 134//224
f 101//225 90//225 134//225
f 128//226 129//226 135//226
f 129//227 136//227 135//227
f 129//228 130//228 136//228
f 105//229 137//229 99//229
f 99//230 137//230 138//230
f 99//231 138//231 133//231
f 137//232 105//232 107//232
f 139//233 101//233 134//233
f 139//234 108//234 101//234
f 140//235 109//235 108//235
f 140//236 108//236 139//236
f 141//237 110//237 109//237
f 141//238 109//238 140//238
f 142//239 111//239 110//239
f 142//240 110//240 141//240
f 112//241 138//241 137//241
f 142//242 138//242 112//242
f 111//243 142//243 112//243
f 137//244 107//244 112//244
f 113//245 114//245 143//245
f 143//246 114//246 116//246
f 117//247 118//247 144//247
f 144//248 118//248 145//248
f 118//249 113//249 145//249
f 145//250 113//250 146//250
f 146//251 113//251 143//251
f 146//252 148//252 147//252
f 146//253 120//253 148//253
f 143//254 120//254 146//254
f 116//255 120//255 143//255
f 148//256 120//256 122//256
f 123//257 117//257 144//257
f 123//258 144//258 124//258
f 124//259 144//259 145//259
f 124//260 145//260 149//260
f 148//261 150//261 147//261
f 150//262 151//262 147//262
f 150//263 122//263 125//263
f 150//264 148//264 122//264
f 152//265 124//265 149//265
f 152//266 126//266 124//266
f 127//267 151//267 150//267
f 152//268 151//268 127//268
f 126//269 152//269 127//269
f 150//270 125//270 127//270
f 130//271 131//271 153//271
f 154//272 131//272 132//272
f 154//273 153//273 131//273
f 154//274 132//274 133//274
f 134//275 135//275 155//275
f 156//276 135//276 136//276
f 156//277 155//277 135//277
f 153//278 136//278 130//278
f 156//279 136//279 153//279
f 157//280 156//280 153//280
f 153//281 154//281 158//281
f 153//282 158//282 157//282
f 158//283 133//283 138//283
f 158//284 154//284 133//284
f 139//285 134//285 155//285
f 155//286 140//286 139//286
f 155//287 156//287 140//287
f 156//288 141//288 140//288
f 156//289 157//289 141//289
f 157//290 142//290 141//290
f 157//291 158//291 142//291
f 158//292 138//292 142//292
f 145//293 146//293 159//293
f 159//294 146//294 147//294
f 149//295 159//295 160//295
f 149//296 145//296 159//296
f 160//297 147//297 151//297
f 160//298 159//298 147//298
f 152//299 149//299 160//299
f 160//300 151//300 152//300

# Thankyou for using Spin3D

