# Created using Spin3D

# Vertex Array
v 5.568 -45.347 29.531
v 5.569 -45.320 29.521
v 5.567 -45.305 29.520
v 5.571 -45.305 29.516
v 5.569 -45.320 29.524
v 5.570 -45.260 29.500
v 5.569 -45.239 29.497
v 5.572 -45.201 29.486
v 5.570 -45.260 29.509
v 5.569 -45.200 29.491
v 5.571 -45.238 29.502
v 5.571 -45.180 29.487
v 5.571 -45.179 29.479
v 5.572 -45.119 29.464
v 5.570 -45.134 29.468
v 5.573 -45.134 29.472
v 5.572 -45.120 29.467
v 5.573 -45.092 29.457
v 40.939 -17.012 -23.185
v 41.341 -16.591 -22.559
v 41.724 -17.680 -23.196
v 42.458 -17.322 -22.656
v 42.833 -17.934 -23.383
v 43.372 -17.635 -22.945
v 43.696 -17.668 -23.537
v 43.932 -17.104 -23.202
v 41.256 -17.458 -23.752
v 40.831 -16.313 -23.825
v 42.162 -17.681 -24.062
v 43.329 -17.454 -24.276
v 44.199 -16.602 -24.166
v 41.536 -16.929 -24.423
v 42.671 -16.551 -25.098
v 43.815 -16.438 -25.111
v 40.602 -15.572 -22.896
v 41.023 -14.779 -22.156
v 42.130 -15.761 -22.185
v 43.294 -16.551 -22.614
v 44.063 -15.771 -23.290
v 40.535 -14.333 -23.649
v 44.513 -15.149 -24.280
v 41.515 -15.235 -24.875
v 42.257 -13.777 -25.709
v 42.692 -15.108 -25.836
v 43.652 -15.403 -25.894
v 44.426 -15.173 -25.351
v 43.360 -14.162 -26.252
v 44.152 -14.387 -26.154
v 40.374 -13.550 -22.577
v 40.896 -12.869 -21.998
v 41.743 -14.022 -21.957
v 43.004 -14.479 -22.489
v 44.008 -14.042 -23.608
v 40.287 -12.334 -23.206
v 44.441 -13.892 -24.861
v 41.097 -12.874 -24.463
v 42.145 -12.499 -25.296
v 44.447 -13.898 -25.789
v 42.987 -13.077 -25.977
v 43.850 -13.353 -26.061
v 40.351 -11.795 -22.382
v 40.902 -11.521 -22.086
v 41.892 -12.417 -22.195
v 42.327 -11.551 -23.011
v 43.083 -12.821 -22.953
v 40.298 -11.127 -22.885
v 43.514 -12.504 -24.148
v 42.407 -11.407 -23.930
v 40.585 -11.432 -23.577
v 43.021 -12.250 -25.159
v 41.547 -11.436 -24.162
v 44.078 -13.024 -25.381
v 40.683 -10.844 -22.528
v 41.376 -11.100 -22.408
v 40.738 -10.782 -23.194
v 41.438 -10.829 -23.122
v 53.535 -1.069 -6.735
v 53.502 -1.068 -6.624
v 53.527 -1.068 -6.703
v 53.508 -1.019 -6.700
v 53.549 -1.009 -6.826
v 53.387 -1.002 -6.284
v 53.361 -0.967 -6.230
v 53.400 -0.972 -6.335
v 53.435 -1.027 -6.439
v 53.372 -0.988 -6.265
v 53.428 -0.974 -6.473
v 53.474 -1.017 -6.554
v 53.458 -0.948 -6.549
v 53.502 -0.942 -6.750
v 53.535 -0.941 -6.819
v 53.585 -0.923 -7.016
v 53.569 -0.890 -6.987
v 53.564 -0.940 -6.948
v 53.589 -0.892 -7.060
v 53.407 -0.931 -6.406
v 53.379 -0.949 -6.319
v 53.497 -0.903 -6.730
v 53.450 -0.917 -6.587
v 53.541 -0.895 -6.906
v 3.051 -1.914 62.491
v 3.053 -1.914 62.492
v 3.053 -1.915 62.491
v 3.054 -1.914 62.491
v 3.053 -1.914 62.490
v 3.053 -1.913 62.491
v 9.637 19.132 8.167
v 9.638 19.132 8.168
v 9.638 19.131 8.167
v 9.639 19.132 8.167
v 9.638 19.133 8.166
v 9.638 19.134 8.167

# Normal Array
vn -0.952 -0.095 -0.289
vn 0.414 -0.319 -0.853
vn -0.157 0.249 0.956
vn 0.946 0.061 0.319
vn -0.953 -0.084 -0.292
vn -0.937 -0.097 -0.336
vn 0.272 -0.318 -0.908
vn 0.879 -0.145 -0.455
vn -0.259 0.234 0.937
vn -0.781 0.182 0.598
vn -0.999 0.011 -0.030
vn 0.883 0.099 0.459
vn 0.948 0.057 0.312
vn 1.000 -0.006 0.026
vn -0.891 0.130 0.435
vn 0.807 0.144 0.573
vn -0.883 -0.107 -0.456
vn 0.804 -0.170 -0.570
vn -0.270 -0.226 -0.936
vn -0.774 -0.160 -0.613
vn -1.000 0.019 0.019
vn 0.881 -0.127 -0.455
vn 0.950 -0.085 -0.301
vn 1.000 -0.025 -0.018
vn -0.934 0.127 0.334
vn -0.955 0.110 0.275
vn 0.879 0.118 0.463
vn 0.232 0.315 0.920
vn -0.172 -0.244 -0.954
vn 0.947 -0.089 -0.308
vn -0.950 0.126 0.286
vn 0.356 0.314 0.880
vn -0.470 -0.563 0.680
vn -0.074 -0.782 0.619
vn -0.298 -0.558 0.775
vn 0.323 -0.918 0.228
vn -0.071 -0.781 0.620
vn 0.717 -0.553 0.424
vn -0.629 -0.742 0.232
vn -0.907 -0.351 -0.231
vn -0.240 -0.963 -0.121
vn -0.283 -0.949 -0.142
vn 0.212 -0.905 -0.368
vn 0.096 -0.898 -0.429
vn 0.913 -0.407 0.040
vn 0.641 -0.591 -0.490
vn -0.759 -0.318 -0.568
vn -0.385 -0.640 -0.665
vn -0.261 -0.586 -0.767
vn -0.004 -0.675 -0.738
vn 0.056 -0.650 -0.758
vn 0.671 -0.635 -0.383
vn -0.682 -0.271 0.679
vn -0.701 -0.295 0.649
vn -0.121 -0.310 0.943
vn -0.192 -0.245 0.950
vn 0.204 -0.273 0.940
vn 0.181 -0.249 0.951
vn 0.561 -0.205 0.802
vn 0.670 -0.016 0.742
vn -0.974 -0.214 -0.069
vn -0.982 -0.135 -0.135
vn 0.971 -0.080 0.226
vn 0.933 -0.178 0.313
vn -0.803 -0.067 -0.592
vn -0.725 -0.186 -0.663
vn -0.619 -0.128 -0.775
vn -0.563 -0.370 -0.739
vn -0.437 -0.237 -0.867
vn 0.050 -0.598 -0.800
vn -0.190 -0.445 -0.875
vn 0.601 -0.420 -0.680
vn 0.792 -0.460 -0.402
vn 0.973 -0.217 -0.074
vn -0.459 -0.066 -0.886
vn -0.151 -0.306 -0.940
vn 0.043 -0.267 -0.963
vn 0.597 -0.462 -0.656
vn -0.674 -0.106 0.731
vn -0.756 -0.184 0.628
vn -0.110 -0.153 0.982
vn -0.173 -0.093 0.981
vn 0.340 -0.009 0.940
vn 0.377 -0.038 0.925
vn 0.635 0.043 0.771
vn 0.706 0.149 0.692
vn -0.992 -0.100 -0.076
vn -0.992 -0.107 -0.071
vn 0.875 0.114 0.470
vn 0.916 0.211 0.341
vn -0.837 0.017 -0.547
vn -0.793 -0.034 -0.608
vn -0.736 -0.012 -0.677
vn -0.651 0.181 -0.737
vn 0.996 0.020 -0.081
vn 1.000 -0.014 0.007
vn -0.516 0.222 -0.827
vn -0.415 0.087 -0.906
vn 0.160 0.134 -0.978
vn -0.018 0.240 -0.971
vn 0.867 -0.174 -0.467
vn 0.574 0.238 -0.784
vn -0.495 0.059 0.867
vn -0.686 -0.089 0.722
vn 0.134 0.133 0.982
vn 0.166 0.064 0.984
vn 0.585 0.381 0.716
vn 0.573 0.195 0.796
vn 0.416 0.095 0.904
vn 0.702 0.160 0.693
vn -0.995 -0.023 0.092
vn -0.996 -0.014 0.086
vn 0.777 0.481 0.407
vn 0.710 0.684 0.168
vn 0.853 0.395 0.342
vn 0.821 0.406 0.403
vn -0.897 0.121 -0.425
vn -0.831 0.046 -0.555
vn -0.089 0.703 -0.706
vn -0.657 0.346 -0.670
vn -0.491 0.323 -0.809
vn 0.113 0.845 -0.523
vn 0.681 0.717 -0.152
vn 0.578 0.812 -0.078
vn 0.922 0.387 0.004
vn 0.859 0.474 0.193
vn -0.089 0.702 -0.706
vn 0.153 0.692 -0.706
vn 0.438 0.743 -0.506
vn 0.699 0.523 -0.488
vn -0.566 0.315 0.762
vn 0.354 0.283 0.891
vn 0.064 0.560 0.826
vn 0.615 0.355 0.705
vn -0.605 0.796 0.024
vn -0.761 0.350 0.546
vn 0.266 0.893 0.362
vn 0.057 0.994 0.098
vn 0.608 0.775 0.173
vn 0.568 0.752 0.334
vn -0.723 0.470 -0.506
vn -0.438 0.532 -0.725
vn 0.108 0.864 -0.492
vn 0.105 0.864 -0.493
vn 0.573 -0.802 0.171
vn -0.918 -0.294 -0.267
vn 0.964 0.125 0.233
vn -0.914 -0.258 -0.314
vn 0.927 0.174 0.333
vn -0.767 -0.628 -0.133
vn -0.258 -0.866 0.429
vn -0.920 -0.290 -0.264
vn 0.949 0.105 0.298
vn 0.942 0.186 0.279
vn 0.947 0.125 0.295
vn 0.942 0.081 0.325
vn 0.944 -0.116 0.309
vn -0.917 -0.296 -0.268
vn -0.918 -0.292 -0.268
vn -0.925 -0.258 -0.278
vn 0.944 0.186 0.272
vn 0.941 0.217 0.259
vn 0.952 0.168 0.257
vn 0.949 0.166 0.268
vn 0.942 0.203 0.267
vn -0.805 -0.468 -0.364
vn -0.880 -0.358 -0.311
vn -0.919 -0.266 -0.291
vn 0.942 0.231 0.244
vn -0.839 -0.408 -0.360
vn 0.877 0.371 0.305
vn -0.964 -0.145 -0.224
vn 0.006 0.979 0.202
vn -0.942 -0.206 -0.265
vn 0.890 0.362 0.277
vn 0.900 0.330 0.284
vn -0.815 0.560 -0.150
vn -0.217 0.976 0.025
vn -0.946 -0.173 -0.273
vn -0.947 -0.171 -0.272
vn 0.916 0.300 0.267
vn 0.918 0.285 0.274
vn -0.042 0.998 0.037
vn -0.567 0.817 -0.104
vn -0.934 -0.201 -0.295
vn -0.950 -0.140 -0.280
vn -0.629 0.756 -0.182
vn -0.934 -0.202 -0.293
vn -0.588 -0.663 0.463
vn 0.574 -0.675 0.464
vn -0.588 -0.470 -0.658
vn 0.583 -0.489 -0.648
vn -0.575 0.493 0.653
vn 0.593 0.468 0.655
vn -0.568 0.678 -0.466
vn 0.596 0.658 -0.460
vn -0.568 -0.683 0.460
vn 0.559 -0.692 0.457
vn -0.564 -0.485 -0.668
vn 0.568 -0.501 -0.654
vn -0.575 0.474 0.667
vn 0.578 0.457 0.677
vn -0.577 0.658 -0.484
vn 0.593 0.645 -0.482

# Facets
f 1//1 3//1 2//1
f 2//2 4//2 1//2
f 1//3 5//3 3//3
f 4//4 5//4 1//4
f 2//5 7//5 6//5
f 3//6 7//6 2//6
f 6//7 4//7 2//7
f 8//8 4//8 6//8
f 9//9 3//9 5//9
f 9//10 10//10 3//10
f 10//11 7//11 3//11
f 5//12 11//12 9//12
f 5//13 4//13 11//13
f 4//14 8//14 11//14
f 9//15 12//15 10//15
f 11//16 12//16 9//16
f 6//17 7//17 13//17
f 6//18 13//18 8//18
f 13//19 15//19 14//19
f 13//20 7//20 15//20
f 7//21 10//21 15//21
f 14//22 8//22 13//22
f 14//23 16//23 8//23
f 16//24 11//24 8//24
f 10//25 17//25 15//25
f 12//26 17//26 10//26
f 16//27 12//27 11//27
f 17//28 12//28 16//28
f 14//29 15//29 18//29
f 14//30 18//30 16//30
f 15//31 17//31 18//31
f 16//32 18//32 17//32
f 19//33 21//33 20//33
f 22//34 21//34 23//34
f 22//35 20//35 21//35
f 24//36 23//36 25//36
f 24//37 22//37 23//37
f 26//38 24//38 25//38
f 19//39 27//39 21//39
f 19//40 28//40 27//40
f 29//41 23//41 21//41
f 27//42 29//42 21//42
f 30//43 25//43 23//43
f 29//44 30//44 23//44
f 25//45 31//45 26//45
f 25//46 30//46 31//46
f 32//47 27//47 28//47
f 32//48 29//48 27//48
f 32//49 33//49 29//49
f 33//50 30//50 29//50
f 33//51 34//51 30//51
f 34//52 31//52 30//52
f 35//53 20//53 36//53
f 35//54 19//54 20//54
f 20//55 22//55 37//55
f 36//56 20//56 37//56
f 22//57 24//57 38//57
f 37//58 22//58 38//58
f 26//59 38//59 24//59
f 26//60 39//60 38//60
f 28//61 19//61 35//61
f 28//62 35//62 40//62
f 39//63 26//63 31//63
f 41//64 39//64 31//64
f 42//65 28//65 40//65
f 42//66 32//66 28//66
f 43//67 44//67 42//67
f 42//68 44//68 33//68
f 42//69 33//69 32//69
f 34//70 33//70 45//70
f 33//71 44//71 45//71
f 46//72 34//72 45//72
f 31//73 34//73 46//73
f 41//74 31//74 46//74
f 47//75 44//75 43//75
f 47//76 45//76 44//76
f 47//77 48//77 45//77
f 48//78 46//78 45//78
f 49//79 36//79 50//79
f 49//80 35//80 36//80
f 36//81 37//81 51//81
f 50//82 36//82 51//82
f 37//83 38//83 52//83
f 51//84 37//84 52//84
f 39//85 52//85 38//85
f 39//86 53//86 52//86
f 40//87 35//87 49//87
f 40//88 49//88 54//88
f 53//89 39//89 41//89
f 55//90 53//90 41//90
f 56//91 40//91 54//91
f 56//92 42//92 40//92
f 42//93 56//93 43//93
f 56//94 57//94 43//94
f 55//95 41//95 46//95
f 58//96 55//96 46//96
f 59//97 43//97 57//97
f 59//98 47//98 43//98
f 60//99 48//99 47//99
f 60//100 47//100 59//100
f 48//101 58//101 46//101
f 48//102 60//102 58//102
f 61//103 50//103 62//103
f 61//104 49//104 50//104
f 50//105 51//105 63//105
f 62//106 50//106 63//106
f 63//107 65//107 64//107
f 52//108 65//108 63//108
f 51//109 52//109 63//109
f 65//110 52//110 53//110
f 54//111 49//111 61//111
f 54//112 61//112 66//112
f 65//113 67//113 64//113
f 67//114 68//114 64//114
f 67//115 53//115 55//115
f 67//116 65//116 53//116
f 69//117 54//117 66//117
f 69//118 56//118 54//118
f 70//119 57//119 71//119
f 71//120 57//120 56//120
f 71//121 56//121 69//121
f 71//122 68//122 70//122
f 70//123 68//123 67//123
f 70//124 67//124 72//124
f 72//125 55//125 58//125
f 72//126 67//126 55//126
f 59//127 57//127 70//127
f 70//128 60//128 59//128
f 70//129 72//129 60//129
f 72//130 58//130 60//130
f 61//131 62//131 73//131
f 74//132 62//132 63//132
f 74//133 73//133 62//133
f 74//134 63//134 64//134
f 66//135 73//135 75//135
f 66//136 61//136 73//136
f 73//137 74//137 76//137
f 73//138 76//138 75//138
f 76//139 64//139 68//139
f 76//140 74//140 64//140
f 69//141 66//141 75//141
f 75//142 71//142 69//142
f 75//143 76//143 71//143
f 76//144 68//144 71//144
f 77//145 79//145 78//145
f 78//146 80//146 77//146
f 77//147 81//147 79//147
f 80//148 81//148 77//148
f 82//149 84//149 83//149
f 82//150 86//150 85//150
f 83//151 86//151 82//151
f 86//152 87//152 85//152
f 88//153 84//153 82//153
f 89//154 84//154 88//154
f 78//155 79//155 88//155
f 78//156 88//156 85//156
f 85//157 88//157 82//157
f 85//158 80//158 78//158
f 85//159 87//159 80//159
f 87//160 90//160 80//160
f 88//161 91//161 89//161
f 92//162 93//162 91//162
f 81//163 92//163 91//163
f 81//164 91//164 88//164
f 81//165 88//165 79//165
f 81//166 94//166 92//166
f 81//167 80//167 94//167
f 80//168 90//168 94//168
f 92//169 95//169 93//169
f 94//170 95//170 92//170
f 83//171 84//171 96//171
f 83//172 97//172 86//172
f 96//173 97//173 83//173
f 86//174 97//174 87//174
f 96//175 89//175 98//175
f 84//176 89//176 96//176
f 97//177 96//177 99//177
f 99//178 96//178 98//178
f 87//179 99//179 90//179
f 97//180 99//180 87//180
f 89//181 91//181 98//181
f 93//182 98//182 91//182
f 93//183 100//183 98//183
f 100//184 99//184 98//184
f 90//185 100//185 94//185
f 99//186 100//186 90//186
f 93//187 95//187 100//187
f 94//188 100//188 95//188
f 101//189 103//189 102//189
f 104//190 102//190 103//190
f 105//191 103//191 101//191
f 105//192 104//192 103//192
f 101//193 102//193 106//193
f 106//194 102//194 104//194
f 105//195 101//195 106//195
f 106//196 104//196 105//196
f 107//197 109//197 108//197
f 110//198 108//198 109//198
f 111//199 109//199 107//199
f 111//200 110//200 109//200
f 107//201 108//201 112//201
f 112//202 108//202 110//202
f 111//203 107//203 112//203
f 112//204 110//204 111//204

# Thankyou for using Spin3D

