# Created using Spin3D

# Vertex Array
v 1.311 -21.174 24.653
v 1.526 -20.993 25.037
v 1.470 -21.134 24.878
v 1.870 -20.780 25.497
v 1.612 -21.072 24.956
v 2.035 -20.674 25.587
v 1.324 -21.238 24.541
v 1.244 -21.142 24.451
v 1.694 -20.983 24.949
v 1.449 -21.181 24.592
v -10.939 -20.972 19.660
v -10.940 -20.969 19.659
v -10.943 -20.967 19.660
v -10.942 -20.967 19.660
v -10.943 -20.964 19.662
v -10.943 -20.963 19.661
v 1.320 -21.153 24.418
v -10.941 -20.969 19.661
v -10.941 -20.966 19.661
v 2.285 -20.339 26.163
v 2.474 -20.243 26.423
v 2.290 -20.431 26.112
v 2.398 -20.285 26.225
v 1.422 -20.950 24.837
v 1.817 -20.652 25.473
v 2.201 -20.447 25.809
v 1.353 -20.921 24.624
v 1.537 -21.033 24.668
v 1.877 -20.692 25.240
v -10.936 -20.972 19.659
v -10.937 -20.970 19.660
v -10.938 -20.969 19.661
v -10.940 -20.967 19.660
v 1.301 -21.015 24.440
v 1.512 -20.892 24.680
v -10.938 -20.971 19.660
v 2.496 -20.177 26.459
v 1.705 -20.607 25.200
v 2.138 -20.295 25.910
v 2.394 -20.169 26.271
v 2.215 -20.298 25.879
v 1.483 -20.792 24.737
v 2.067 -20.301 25.716
v 1.811 -20.555 25.222
v -10.934 -20.972 19.660
v 2.276 -20.166 26.063

# Normal Array
vn -0.727 -0.368 0.580
vn 0.172 -0.899 0.403
vn -0.548 -0.522 0.653
vn 0.406 -0.871 0.276
vn -0.385 -0.822 0.419
vn -0.834 -0.516 0.196
vn 0.724 -0.679 -0.122
vn 0.377 -0.920 0.106
vn 0.328 -0.934 0.146
vn 0.730 -0.680 -0.061
vn -0.469 -0.370 -0.802
vn -0.263 0.366 -0.893
vn -0.202 0.213 -0.956
vn -0.960 -0.196 -0.199
vn -0.347 -0.778 -0.524
vn 0.521 -0.696 -0.494
vn -0.526 -0.583 0.619
vn -0.463 -0.316 0.828
vn 0.220 0.055 0.974
vn 0.531 0.460 0.712
vn -0.674 -0.382 0.632
vn 0.861 -0.451 -0.236
vn -0.868 0.131 0.479
vn -0.882 0.052 0.469
vn -0.639 -0.395 0.660
vn -0.766 -0.201 0.611
vn -0.743 -0.185 0.643
vn 0.459 -0.870 0.179
vn 0.856 -0.480 -0.195
vn 0.883 -0.388 -0.266
vn -0.924 0.181 0.337
vn -0.924 0.202 0.326
vn 0.856 -0.292 -0.428
vn 0.875 -0.071 -0.478
vn 0.901 -0.166 -0.400
vn 0.882 -0.270 -0.386
vn 0.225 0.407 -0.885
vn -0.196 -0.288 -0.937
vn 0.735 0.668 -0.116
vn -0.009 0.207 -0.978
vn 0.281 0.633 -0.721
vn -0.006 0.155 -0.988
vn -0.908 0.417 0.041
vn -0.388 0.094 -0.917
vn 0.782 -0.157 -0.603
vn 0.697 0.184 -0.693
vn 0.682 0.205 -0.702
vn 0.789 0.192 -0.584
vn 0.199 -0.514 0.834
vn -0.050 -0.425 0.904
vn 0.660 0.689 0.299
vn 0.038 -0.168 0.985
vn 0.504 0.126 0.855
vn 0.686 0.531 0.497
vn -0.796 -0.063 0.602
vn 0.934 -0.130 -0.333
vn -0.868 0.290 0.404
vn -0.869 0.287 0.404
vn -0.847 0.131 0.515
vn -0.831 0.202 0.518
vn -0.847 0.241 0.473
vn 0.862 0.210 -0.461
vn 0.861 0.211 -0.463
vn 0.873 0.140 -0.467
vn -0.738 0.669 0.086
vn -0.869 0.368 0.331
vn -0.822 0.493 0.285
vn -0.376 0.889 -0.262
vn -0.401 0.900 -0.168
vn 0.640 0.496 -0.587
vn 0.760 0.292 -0.581
vn 0.819 0.181 -0.544
vn 0.585 0.635 -0.504
vn 0.617 0.725 -0.307
vn -0.568 0.786 -0.244
vn 0.482 0.533 -0.696
vn 0.565 0.524 -0.638
vn 0.752 0.287 -0.594
vn -0.249 -0.968 -0.018
vn 0.008 -0.165 0.986
vn -0.822 0.320 0.470
vn 0.841 0.266 -0.472
vn -0.804 0.527 0.277
vn 0.632 0.513 -0.581

# Facets
f 1//1 3//1 2//1
f 4//2 3//2 5//2
f 4//3 2//3 3//3
f 6//4 4//4 5//4
f 1//5 7//5 3//5
f 1//6 8//6 7//6
f 5//7 10//7 9//7
f 7//8 10//8 5//8
f 3//9 7//9 5//9
f 9//10 6//10 5//10
f 11//11 13//11 12//11
f 14//12 13//12 15//12
f 14//13 12//13 13//13
f 16//14 14//14 15//14
f 17//15 7//15 8//15
f 17//16 10//16 7//16
f 18//17 13//17 11//17
f 18//18 15//18 13//18
f 18//19 19//19 15//19
f 19//20 16//20 15//20
f 20//21 22//21 21//21
f 23//22 21//22 22//22
f 24//23 2//23 25//23
f 24//24 1//24 2//24
f 22//25 20//25 4//25
f 4//26 20//26 25//26
f 4//27 25//27 2//27
f 6//28 22//28 4//28
f 23//29 22//29 6//29
f 26//30 23//30 6//30
f 8//31 1//31 24//31
f 8//32 24//32 27//32
f 28//33 9//33 10//33
f 29//34 9//34 28//34
f 6//35 9//35 29//35
f 26//36 6//36 29//36
f 30//37 12//37 31//37
f 30//38 11//38 12//38
f 31//39 33//39 32//39
f 14//40 33//40 31//40
f 12//41 14//41 31//41
f 33//42 14//42 16//42
f 34//43 8//43 27//43
f 34//44 17//44 8//44
f 17//45 28//45 10//45
f 35//46 28//46 17//46
f 34//47 35//47 17//47
f 35//48 29//48 28//48
f 36//49 11//49 30//49
f 36//50 18//50 11//50
f 19//51 32//51 33//51
f 36//52 32//52 19//52
f 18//53 36//53 19//53
f 33//54 16//54 19//54
f 20//55 21//55 37//55
f 37//56 21//56 23//56
f 24//57 25//57 38//57
f 38//58 25//58 39//58
f 25//59 20//59 39//59
f 39//60 20//60 40//60
f 40//61 20//61 37//61
f 23//62 40//62 37//62
f 41//63 40//63 23//63
f 26//64 41//64 23//64
f 27//65 38//65 42//65
f 27//66 24//66 38//66
f 39//67 43//67 38//67
f 38//68 43//68 44//68
f 38//69 44//69 42//69
f 41//70 44//70 43//70
f 29//71 44//71 41//71
f 26//72 29//72 41//72
f 30//73 31//73 45//73
f 45//74 31//74 32//74
f 34//75 27//75 42//75
f 42//76 35//76 34//76
f 42//77 44//77 35//77
f 44//78 29//78 35//78
f 36//79 30//79 45//79
f 45//80 32//80 36//80
f 39//81 40//81 46//81
f 46//82 40//82 41//82
f 43//83 39//83 46//83
f 46//84 41//84 43//84

# Thankyou for using Spin3D

