# Created using Spin3D

# Vertex Array
v -6.225 -39.444 4.508
v -6.227 -39.443 4.506
v -6.227 -39.444 4.507
v -6.229 -39.444 4.507
v -6.228 -39.444 4.509
v 44.632 -43.609 34.636
v 44.633 -43.609 34.637
v 44.633 -43.610 34.636
v 44.635 -43.609 34.636
v 44.633 -43.609 34.635
v -18.308 -39.925 23.569
v -18.343 -39.831 23.698
v -18.483 -39.871 23.632
v -18.195 -39.867 23.666
v -18.528 -39.951 23.516
v -18.603 -39.919 23.561
v -18.619 -39.959 23.502
v -18.375 -39.989 23.480
v -18.110 -39.954 23.552
v -18.182 -39.993 23.496
v -18.068 -39.985 23.517
v -18.505 -39.978 23.487
v -18.313 -39.995 23.484
v -18.160 -39.974 23.530
v -6.225 -39.442 4.507
v -6.228 -39.442 4.506
v -6.229 -39.442 4.508
v -6.227 -39.442 4.510
v 44.633 -43.607 34.636
v -18.312 -39.789 23.764
v -18.419 -39.801 23.739
v -18.266 -39.810 23.744
v -18.577 -39.936 23.542
v -18.490 -39.856 23.661
v -18.084 -39.942 23.574
v -18.203 -39.890 23.643
v -18.378 -39.931 23.573
v -6.227 -39.442 4.508
v -18.372 -39.789 23.765
v -18.342 -39.839 23.704
v 50.048 -15.965 -31.955
v 50.227 -15.897 -31.450
v 50.134 -15.992 -31.872
v 50.288 -15.923 -31.452
v 50.227 -15.976 -31.773
v 50.352 -15.887 -31.396
v 50.010 -16.023 -32.229
v 49.967 -15.993 -32.277
v 50.103 -16.019 -32.153
v 50.229 -15.957 -31.904
v 50.007 -16.009 -32.363
v 50.112 -15.989 -32.240
v 18.178 -18.097 -7.017
v 18.180 -18.097 -7.015
v 18.180 -18.098 -7.017
v 18.181 -18.097 -7.017
v 18.180 -18.097 -7.018
v 50.482 -15.736 -30.712
v 50.508 -15.733 -30.690
v 50.415 -15.807 -30.983
v 50.443 -15.783 -31.005
v 50.144 -15.878 -31.598
v 50.338 -15.792 -31.101
v 50.319 -15.863 -31.570
v 50.034 -15.920 -31.993
v 50.178 -15.839 -31.572
v 50.195 -15.929 -32.025
v 49.999 -15.957 -32.268
v 50.087 -15.944 -32.216
v 18.180 -18.096 -7.016
v 50.465 -15.737 -30.804
v 50.318 -15.801 -31.343
v 50.118 -15.880 -31.921
v 50.211 -15.873 -31.853
v 57.171 -1.507 -33.600
v 57.518 -1.438 -33.077
v 57.705 -1.545 -33.416
v 57.961 -1.281 -33.096
v 57.365 -1.232 -34.529
v 56.356 -1.184 -34.439
v 58.202 -0.828 -33.897
v 54.954 -0.038 -36.236
v 55.599 -0.872 -35.232
v 56.243 -0.967 -35.547
v 57.179 -0.603 -35.935
v 58.344 0.129 -35.566
v 56.112 0.109 -36.913
v 57.514 0.439 -36.886
v 56.793 -0.635 -33.566
v 57.731 -0.843 -33.054
v 58.238 -0.464 -33.369
v 53.941 1.653 -35.026
v 55.812 1.481 -33.974
v 55.125 0.012 -34.890
v 58.902 0.887 -34.471
v 49.921 4.254 -38.119
v 50.787 4.334 -36.834
v 51.022 3.055 -37.404
v 52.371 2.975 -35.885
v 53.095 1.517 -36.556
v 59.441 1.759 -35.965
v 50.326 3.419 -38.584
v 51.579 2.717 -38.409
v 50.673 3.501 -39.201
v 54.087 1.767 -38.069
v 56.633 1.748 -38.059
v 58.683 1.993 -37.287
v 51.811 4.116 -39.856
v 55.046 3.626 -39.273
v 57.740 3.563 -38.631
v 57.796 0.753 -33.561
v 54.120 3.092 -34.610
v 55.768 3.367 -33.992
v 57.386 2.963 -33.874
v 58.977 2.785 -34.379
v 59.908 2.944 -35.525
v 59.853 4.480 -35.376
v 49.842 5.281 -37.656
v 50.833 5.787 -36.858
v 52.774 4.811 -35.628
v 59.989 3.291 -36.856
v 60.328 4.364 -36.375
v 50.151 4.307 -39.267
v 49.655 5.544 -38.826
v 59.393 3.780 -37.937
v 60.032 4.825 -37.452
v 50.437 5.433 -40.155
v 50.895 5.801 -41.028
v 51.008 5.297 -40.982
v 51.614 5.345 -40.999
v 53.221 5.608 -40.167
v 56.486 5.254 -39.263
v 58.802 5.080 -38.460
v 51.118 5.637 -41.347
v 54.866 4.483 -34.551
v 56.710 4.695 -34.353
v 58.596 4.573 -34.567
v 49.919 6.315 -37.908
v 50.951 6.801 -37.356
v 52.600 6.516 -36.520
v 55.230 5.993 -35.468
v 57.860 5.951 -35.207
v 59.342 5.665 -35.437
v 59.872 5.710 -36.534
v 49.782 6.582 -38.779
v 59.387 5.950 -37.746
v 50.016 6.295 -39.536
v 51.502 5.850 -41.045
v 51.239 6.393 -40.149
v 53.016 6.862 -39.518
v 55.231 6.653 -39.106
v 57.753 6.358 -38.426
v 50.562 7.070 -38.296
v 52.226 7.284 -37.699
v 54.579 7.145 -36.974
v 57.105 6.862 -36.374
v 58.866 6.458 -36.079
v 50.407 6.904 -39.214
v 51.731 7.219 -38.946
v 53.859 7.336 -38.398
v 56.357 7.140 -37.798
v 58.548 6.697 -37.200
v -7.509 73.161 -4.338
v -7.508 73.161 -4.337
v -7.508 73.160 -4.338
v -7.507 73.161 -4.338
v -7.508 73.162 -4.339
v -7.508 73.163 -4.338

# Normal Array
vn 0.219 -0.930 -0.295
vn -0.160 -0.911 -0.381
vn 0.130 -0.988 0.079
vn -0.248 -0.969 -0.008
vn -0.611 -0.651 0.450
vn 0.550 -0.687 0.475
vn -0.559 -0.506 -0.657
vn 0.567 -0.503 -0.652
vn 0.043 0.812 -0.583
vn 0.073 0.814 -0.576
vn 0.015 0.825 -0.566
vn 0.010 0.821 -0.571
vn 0.045 0.813 -0.580
vn 0.053 0.795 -0.605
vn 0.069 0.817 -0.573
vn 0.061 0.786 -0.615
vn 0.066 0.789 -0.610
vn 0.066 0.782 -0.619
vn 0.036 0.749 -0.662
vn 0.027 0.746 -0.666
vn -0.091 -0.988 -0.123
vn 0.085 0.197 -0.977
vn -0.028 -0.871 0.490
vn -0.037 -0.868 0.495
vn 0.513 0.399 -0.760
vn 0.814 -0.198 -0.546
vn -0.512 -0.137 -0.848
vn -0.801 0.363 -0.475
vn 0.812 0.175 0.556
vn 0.503 -0.411 0.760
vn -0.821 -0.340 0.459
vn -0.516 0.148 0.843
vn -0.557 0.483 0.676
vn 0.545 0.487 0.682
vn -0.529 0.672 -0.518
vn 0.595 0.637 -0.491
vn 0.035 0.839 -0.543
vn 0.025 0.831 -0.556
vn 0.081 0.826 -0.557
vn 0.196 0.869 -0.453
vn -0.123 -0.804 0.582
vn -0.098 -0.792 0.603
vn -0.083 0.885 -0.457
vn -0.162 0.868 -0.469
vn 0.100 0.825 -0.556
vn 0.085 -0.717 0.692
vn 0.165 -0.723 0.671
vn 0.123 0.809 -0.575
vn -0.066 -0.838 0.542
vn -0.068 -0.804 0.590
vn -0.061 -0.835 0.547
vn -0.066 -0.831 0.552
vn -0.010 -0.805 0.594
vn -0.046 -0.810 0.584
vn -0.054 -0.828 0.558
vn -0.014 -0.801 0.599
vn 0.166 0.977 -0.132
vn -0.254 0.966 -0.041
vn 0.272 0.904 0.330
vn -0.155 0.893 0.422
vn -0.006 0.915 -0.403
vn 0.008 -0.678 0.735
vn -0.081 -0.792 0.605
vn -0.198 -0.705 0.681
vn -0.024 -0.793 0.609
vn -0.034 -0.783 0.621
vn -0.073 -0.807 0.586
vn -0.044 -0.812 0.581
vn -0.534 -0.792 0.296
vn -0.012 -0.986 0.166
vn -0.369 -0.886 0.281
vn 0.444 -0.894 0.065
vn -0.498 -0.831 0.246
vn -0.721 -0.650 0.238
vn 0.072 -0.994 0.088
vn -0.033 -0.994 0.099
vn 0.741 -0.666 -0.088
vn 0.604 -0.790 -0.109
vn -0.509 -0.857 -0.084
vn 0.136 -0.985 -0.110
vn 0.447 -0.860 -0.246
vn 0.685 -0.709 -0.170
vn -0.632 -0.647 0.425
vn 0.559 -0.693 0.455
vn -0.620 -0.469 -0.629
vn 0.563 -0.494 -0.662
vn -0.137 -0.950 0.282
vn 0.656 -0.755 -0.018
vn -0.741 -0.578 0.341
vn -0.645 -0.686 0.337
vn -0.717 -0.570 0.400
vn -0.364 -0.876 0.316
vn -0.803 -0.450 0.391
vn 0.409 -0.905 0.112
vn 0.680 -0.732 0.038
vn 0.975 -0.103 -0.198
vn -0.792 0.590 0.159
vn -0.959 -0.069 0.276
vn -0.964 -0.092 0.250
vn -0.800 0.560 0.215
vn 0.960 -0.187 -0.207
vn 0.964 0.020 -0.265
vn -0.747 0.665 0.005
vn -0.627 0.660 -0.414
vn 0.551 0.611 -0.568
vn 0.142 0.875 -0.463
vn 0.931 -0.198 -0.307
vn 0.671 0.603 -0.431
vn -0.565 0.503 0.654
vn 0.590 0.437 0.679
vn -0.555 0.687 -0.468
vn 0.597 0.622 -0.506
vn -0.112 0.994 0.013
vn 0.578 0.779 -0.242
vn -0.396 0.918 -0.002
vn -0.584 0.806 0.100
vn 0.488 0.843 -0.227
vn 0.538 0.807 -0.244
vn -0.406 0.913 -0.036
vn -0.235 0.972 -0.017
vn -0.109 0.989 -0.097
vn 0.038 0.988 -0.148
vn 0.668 0.689 -0.281
vn 0.507 0.832 -0.224
vn -0.377 0.923 -0.076
vn -0.022 0.977 -0.210
vn 0.093 0.971 -0.221
vn 0.424 0.851 -0.310
vn -0.146 -0.963 0.225
vn 0.316 -0.840 0.442
vn 0.028 -0.960 -0.278
vn -0.072 -0.952 -0.297
vn 0.780 -0.616 -0.114
vn 0.620 -0.685 -0.382
vn -0.345 -0.819 -0.459
vn -0.223 -0.961 -0.165
vn -0.064 -0.981 -0.185
vn 0.172 -0.890 -0.421
vn 0.610 -0.709 -0.354
vn 0.575 -0.716 -0.396
vn -0.244 -0.773 -0.586
vn 0.047 -0.783 -0.621
vn 0.177 -0.694 -0.698
vn 0.568 -0.647 -0.509
vn -0.453 0.127 0.882
vn -0.758 -0.350 0.550
vn 0.063 -0.062 0.996
vn 0.441 0.147 0.886
vn -0.489 -0.285 0.824
vn -0.651 -0.158 0.742
vn -0.656 -0.446 0.608
vn -0.737 -0.342 0.583
vn 0.952 -0.280 0.128
vn 0.931 -0.327 0.161
vn -0.757 -0.377 0.534
vn -0.634 -0.560 0.533
vn -0.697 -0.395 0.598
vn -0.707 -0.554 0.440
vn -0.740 -0.496 0.454
vn -0.649 -0.753 0.110
vn -0.853 -0.507 0.127
vn -0.701 -0.551 0.453
vn 0.893 -0.420 -0.164
vn 0.826 -0.563 -0.031
vn -0.785 -0.545 0.295
vn -0.420 -0.838 -0.348
vn -0.491 -0.871 0.022
vn -0.582 -0.811 -0.049
vn -0.262 -0.747 -0.611
vn -0.521 -0.718 -0.461
vn -0.292 -0.894 -0.340
vn 0.156 -0.599 -0.785
vn -0.001 -0.573 -0.820
vn 0.359 -0.477 -0.802
vn 0.610 -0.594 -0.524
vn 0.667 -0.567 -0.483
vn -0.012 -0.718 -0.696
vn -0.169 -0.695 -0.699
vn 0.063 -0.565 -0.823
vn -0.001 -0.543 -0.839
vn 0.203 -0.405 -0.892
vn 0.360 -0.473 -0.804
vn -0.408 0.291 0.865
vn 0.354 0.270 0.895
vn -0.351 0.001 0.936
vn -0.494 -0.184 0.850
vn -0.163 0.114 0.980
vn -0.165 0.108 0.980
vn -0.071 0.008 0.997
vn 0.576 0.327 0.749
vn 0.638 -0.063 0.767
vn 0.316 0.190 0.929
vn 0.779 -0.061 0.624
vn 0.778 -0.033 0.627
vn -0.637 0.032 0.770
vn -0.781 -0.305 0.545
vn -0.518 -0.006 0.855
vn -0.524 0.030 0.851
vn -0.574 -0.161 0.803
vn -0.590 0.016 0.807
vn 0.934 -0.355 -0.035
vn 0.913 -0.396 0.098
vn 0.903 -0.009 0.431
vn 0.956 -0.294 -0.018
vn -0.921 -0.335 -0.200
vn -0.932 -0.303 -0.201
vn -0.983 -0.133 0.128
vn -0.722 -0.505 -0.473
vn 0.662 -0.474 -0.580
vn 0.690 -0.532 -0.490
vn 0.935 -0.151 -0.322
vn 0.802 -0.236 -0.549
vn -0.855 -0.169 -0.490
vn -0.818 -0.231 -0.527
vn -0.622 -0.719 -0.311
vn -0.338 -0.529 -0.779
vn -0.350 -0.299 -0.888
vn 0.033 -0.678 -0.735
vn 0.450 -0.569 -0.689
vn 0.123 -0.312 -0.942
vn 0.223 -0.192 -0.956
vn 0.240 -0.207 -0.948
vn 0.395 -0.449 -0.801
vn 0.401 -0.179 -0.898
vn 0.318 -0.116 -0.941
vn 0.630 -0.025 -0.776
vn -0.850 -0.233 -0.473
vn 0.040 -0.737 -0.675
vn -0.370 0.160 0.915
vn -0.004 0.265 0.964
vn -0.140 0.351 0.926
vn 0.315 0.166 0.935
vn 0.127 0.310 0.942
vn 0.541 0.201 0.817
vn -0.573 0.415 0.707
vn -0.678 0.221 0.701
vn -0.332 0.410 0.849
vn -0.342 0.447 0.827
vn -0.425 0.191 0.885
vn -0.314 0.547 0.776
vn -0.262 0.426 0.866
vn -0.151 0.539 0.829
vn -0.069 0.603 0.795
vn 0.129 0.473 0.871
vn 0.227 0.507 0.832
vn 0.535 0.271 0.800
vn 0.828 0.378 0.415
vn 0.865 0.337 0.372
vn -0.976 0.117 0.183
vn -0.976 0.111 0.188
vn 0.944 0.304 -0.129
vn 0.865 0.427 -0.262
vn -0.932 0.129 -0.337
vn -0.862 -0.060 -0.503
vn -0.082 0.841 -0.534
vn -0.761 0.636 -0.131
vn -0.440 0.372 -0.817
vn 0.457 0.021 -0.889
vn 0.331 0.847 -0.416
vn 0.180 0.475 -0.861
vn 0.285 0.356 -0.890
vn 0.204 0.476 -0.855
vn 0.333 0.297 -0.895
vn 0.282 0.353 -0.892
vn 0.645 0.176 -0.743
vn 0.435 0.378 -0.817
vn -0.083 0.862 -0.500
vn 0.597 0.060 -0.800
vn -0.563 0.703 0.435
vn -0.151 0.806 0.572
vn -0.244 0.901 0.359
vn -0.100 0.769 0.631
vn -0.128 0.812 0.569
vn -0.051 0.771 0.634
vn -0.060 0.780 0.623
vn 0.239 0.694 0.679
vn 0.090 0.813 0.576
vn 0.655 0.673 0.344
vn -0.497 0.865 -0.073
vn -0.636 0.704 0.316
vn -0.127 0.992 -0.001
vn -0.202 0.969 -0.141
vn 0.020 0.992 0.123
vn -0.046 0.998 -0.033
vn 0.074 0.985 0.154
vn 0.052 0.993 0.107
vn 0.197 0.969 0.151
vn 0.170 0.980 0.102
vn 0.626 0.774 -0.097
vn 0.597 0.802 0.002
vn -0.633 0.638 -0.438
vn -0.392 0.614 -0.685
vn -0.091 0.838 -0.538
vn -0.019 0.828 -0.561
vn 0.061 0.902 -0.428
vn 0.172 0.854 -0.491
vn 0.182 0.860 -0.477
vn 0.234 0.828 -0.510
vn 0.290 0.858 -0.425
vn 0.393 0.788 -0.473
vn -0.590 -0.648 0.481
vn 0.575 -0.661 0.482
vn -0.583 -0.458 -0.671
vn 0.581 -0.476 -0.661
vn -0.582 0.472 0.662
vn 0.578 0.457 0.676
vn -0.580 0.660 -0.478
vn 0.589 0.651 -0.479

# Facets
f 1//1 3//1 2//1
f 4//2 2//2 3//2
f 5//3 3//3 1//3
f 5//4 4//4 3//4
f 6//5 8//5 7//5
f 9//6 7//6 8//6
f 10//7 8//7 6//7
f 10//8 9//8 8//8
f 11//9 13//9 12//9
f 12//10 14//10 11//10
f 15//11 17//11 16//11
f 13//12 15//12 16//12
f 13//13 11//13 15//13
f 11//14 18//14 15//14
f 19//15 11//15 14//15
f 19//16 20//16 11//16
f 20//17 18//17 11//17
f 19//18 21//18 20//18
f 15//19 22//19 17//19
f 18//20 22//20 15//20
f 23//21 22//21 18//21
f 20//22 23//22 18//22
f 24//23 23//23 20//23
f 21//24 24//24 20//24
f 25//25 2//25 26//25
f 25//26 1//26 2//26
f 4//27 26//27 2//27
f 4//28 27//28 26//28
f 28//29 1//29 25//29
f 28//30 5//30 1//30
f 5//31 27//31 4//31
f 5//32 28//32 27//32
f 6//33 7//33 29//33
f 29//34 7//34 9//34
f 10//35 6//35 29//35
f 29//36 9//36 10//36
f 12//37 31//37 30//37
f 13//38 31//38 12//38
f 30//39 14//39 12//39
f 32//40 14//40 30//40
f 16//41 17//41 33//41
f 16//42 33//42 34//42
f 16//43 34//43 13//43
f 13//44 34//44 31//44
f 35//45 19//45 14//45
f 35//46 14//46 36//46
f 36//47 14//47 32//47
f 19//48 35//48 21//48
f 17//49 22//49 33//49
f 33//50 37//50 34//50
f 33//51 22//51 37//51
f 22//52 23//52 37//52
f 36//53 24//53 35//53
f 36//54 37//54 24//54
f 37//55 23//55 24//55
f 21//56 35//56 24//56
f 25//57 26//57 38//57
f 38//58 26//58 27//58
f 28//59 25//59 38//59
f 38//60 27//60 28//60
f 30//61 31//61 39//61
f 30//62 39//62 32//62
f 39//63 34//63 40//63
f 31//64 34//64 39//64
f 32//65 40//65 36//65
f 39//66 40//66 32//66
f 34//67 37//67 40//67
f 36//68 40//68 37//68
f 41//69 43//69 42//69
f 44//70 43//70 45//70
f 44//71 42//71 43//71
f 46//72 44//72 45//72
f 41//73 47//73 43//73
f 41//74 48//74 47//74
f 49//75 45//75 43//75
f 47//76 49//76 43//76
f 45//77 50//77 46//77
f 45//78 49//78 50//78
f 51//79 47//79 48//79
f 51//80 49//80 47//80
f 51//81 52//81 49//81
f 52//82 50//82 49//82
f 53//83 55//83 54//83
f 56//84 54//84 55//84
f 57//85 55//85 53//85
f 57//86 56//86 55//86
f 58//87 60//87 59//87
f 61//88 59//88 60//88
f 41//89 42//89 62//89
f 63//90 60//90 58//90
f 42//91 60//91 63//91
f 44//92 60//92 42//92
f 63//93 62//93 42//93
f 46//94 60//94 44//94
f 61//95 60//95 46//95
f 64//96 61//96 46//96
f 65//97 62//97 66//97
f 41//98 62//98 65//98
f 48//99 41//99 65//99
f 62//100 63//100 66//100
f 64//101 46//101 50//101
f 67//102 64//102 50//102
f 68//103 48//103 65//103
f 68//104 51//104 48//104
f 69//105 52//105 51//105
f 69//106 51//106 68//106
f 52//107 67//107 50//107
f 52//108 69//108 67//108
f 53//109 54//109 70//109
f 70//110 54//110 56//110
f 57//111 53//111 70//111
f 70//112 56//112 57//112
f 58//113 59//113 71//113
f 71//114 59//114 61//114
f 63//115 71//115 72//115
f 63//116 58//116 71//116
f 72//117 61//117 64//117
f 72//118 71//118 61//118
f 65//119 66//119 73//119
f 72//120 66//120 63//120
f 73//121 66//121 72//121
f 74//122 73//122 72//122
f 74//123 64//123 67//123
f 74//124 72//124 64//124
f 68//125 65//125 73//125
f 73//126 69//126 68//126
f 73//127 74//127 69//127
f 74//128 67//128 69//128
f 75//129 77//129 76//129
f 78//130 76//130 77//130
f 75//131 79//131 77//131
f 75//132 80//132 79//132
f 77//133 81//133 78//133
f 77//134 79//134 81//134
f 82//135 84//135 83//135
f 84//136 80//136 83//136
f 79//137 80//137 84//137
f 85//138 79//138 84//138
f 79//139 86//139 81//139
f 79//140 85//140 86//140
f 87//141 84//141 82//141
f 87//142 85//142 84//142
f 87//143 88//143 85//143
f 88//144 86//144 85//144
f 89//145 76//145 90//145
f 89//146 75//146 76//146
f 78//147 90//147 76//147
f 78//148 91//148 90//148
f 92//149 94//149 93//149
f 93//150 94//150 89//150
f 89//151 94//151 80//151
f 89//152 80//152 75//152
f 91//153 78//153 81//153
f 95//154 91//154 81//154
f 96//155 98//155 97//155
f 99//156 98//156 100//156
f 99//157 97//157 98//157
f 100//158 92//158 99//158
f 100//159 94//159 92//159
f 82//160 94//160 100//160
f 83//161 94//161 82//161
f 83//162 80//162 94//162
f 95//163 81//163 86//163
f 101//164 95//164 86//164
f 102//165 98//165 96//165
f 103//166 102//166 104//166
f 98//167 102//167 103//167
f 100//168 98//168 103//168
f 87//169 82//169 105//169
f 105//170 82//170 100//170
f 105//171 100//171 103//171
f 88//172 87//172 106//172
f 87//173 105//173 106//173
f 107//174 88//174 106//174
f 86//175 88//175 107//175
f 101//176 86//176 107//176
f 108//177 103//177 104//177
f 108//178 105//178 103//178
f 108//179 109//179 105//179
f 109//180 106//180 105//180
f 109//181 110//181 106//181
f 110//182 107//182 106//182
f 89//183 90//183 111//183
f 111//184 90//184 91//184
f 112//185 93//185 113//185
f 112//186 92//186 93//186
f 89//187 111//187 93//187
f 93//188 111//188 114//188
f 93//189 114//189 113//189
f 95//190 111//190 91//190
f 115//191 111//191 95//191
f 114//192 111//192 115//192
f 95//193 116//193 115//193
f 117//194 115//194 116//194
f 118//195 97//195 119//195
f 118//196 96//196 97//196
f 97//197 99//197 120//197
f 119//198 97//198 120//198
f 92//199 112//199 99//199
f 112//200 120//200 99//200
f 121//201 116//201 101//201
f 116//202 95//202 101//202
f 116//203 122//203 117//203
f 116//204 121//204 122//204
f 96//205 123//205 102//205
f 124//206 123//206 96//206
f 118//207 124//207 96//207
f 104//208 102//208 123//208
f 125//209 121//209 107//209
f 121//210 101//210 107//210
f 121//211 126//211 122//211
f 121//212 125//212 126//212
f 127//213 123//213 124//213
f 128//214 129//214 127//214
f 129//215 108//215 127//215
f 127//216 108//216 123//216
f 123//217 108//217 104//217
f 129//218 130//218 108//218
f 108//219 130//219 131//219
f 108//220 131//220 109//220
f 132//221 110//221 109//221
f 132//222 109//222 131//222
f 110//223 125//223 107//223
f 133//224 125//224 110//224
f 132//225 133//225 110//225
f 133//226 126//226 125//226
f 134//227 129//227 128//227
f 134//228 130//228 129//228
f 112//229 113//229 135//229
f 136//230 113//230 114//230
f 136//231 135//231 113//231
f 137//232 114//232 115//232
f 137//233 136//233 114//233
f 137//234 115//234 117//234
f 138//235 119//235 139//235
f 138//236 118//236 119//236
f 119//237 120//237 140//237
f 139//238 119//238 140//238
f 112//239 135//239 120//239
f 120//240 135//240 141//240
f 120//241 141//241 140//241
f 135//242 136//242 141//242
f 136//243 142//243 141//243
f 136//244 137//244 142//244
f 137//245 143//245 142//245
f 117//246 143//246 137//246
f 144//247 143//247 117//247
f 122//248 144//248 117//248
f 124//249 118//249 138//249
f 124//250 138//250 145//250
f 144//251 122//251 126//251
f 146//252 144//252 126//252
f 147//253 124//253 145//253
f 147//254 127//254 124//254
f 148//255 128//255 149//255
f 149//256 128//256 127//256
f 149//257 127//257 147//257
f 130//258 148//258 131//258
f 131//259 148//259 149//259
f 131//260 149//260 150//260
f 151//261 132//261 131//261
f 151//262 131//262 150//262
f 152//263 133//263 132//263
f 152//264 132//264 151//264
f 133//265 146//265 126//265
f 133//266 152//266 146//266
f 134//267 128//267 148//267
f 148//268 130//268 134//268
f 138//269 139//269 153//269
f 154//270 139//270 140//270
f 154//271 153//271 139//271
f 155//272 140//272 141//272
f 155//273 154//273 140//273
f 156//274 141//274 142//274
f 156//275 155//275 141//275
f 157//276 142//276 143//276
f 157//277 156//277 142//277
f 157//278 143//278 144//278
f 145//279 153//279 158//279
f 145//280 138//280 153//280
f 153//281 154//281 159//281
f 153//282 159//282 158//282
f 154//283 155//283 160//283
f 154//284 160//284 159//284
f 155//285 156//285 161//285
f 155//286 161//286 160//286
f 156//287 157//287 162//287
f 156//288 162//288 161//288
f 162//289 144//289 146//289
f 162//290 157//290 144//290
f 147//291 145//291 158//291
f 158//292 149//292 147//292
f 158//293 159//293 149//293
f 159//294 150//294 149//294
f 159//295 160//295 150//295
f 160//296 151//296 150//296
f 160//297 161//297 151//297
f 161//298 152//298 151//298
f 161//299 162//299 152//299
f 162//300 146//300 152//300
f 163//301 165//301 164//301
f 166//302 164//302 165//302
f 167//303 165//303 163//303
f 167//304 166//304 165//304
f 163//305 164//305 168//305
f 168//306 164//306 166//306
f 167//307 163//307 168//307
f 168//308 166//308 167//308

# Thankyou for using Spin3D

