# Created using Spin3D

# Vertex Array
v 50.383 -14.047 -25.755
v 50.268 -14.031 -25.494
v 50.552 -14.082 -26.003
v 50.420 -14.063 -25.712
v 50.731 -14.112 -26.267
v 50.610 -14.085 -26.025
v 50.718 -14.098 -26.359
v 51.216 -14.178 -27.191
v 51.116 -14.148 -27.081
v 51.073 -14.151 -26.873
v -37.168 -11.848 -30.749
v -37.171 -11.848 -30.748
v -37.172 -11.844 -30.749
v -37.175 -11.844 -30.747
v -37.175 -11.844 -30.749
v -37.177 -11.845 -30.749
v 51.636 -14.232 -27.979
v 51.551 -14.205 -27.838
v 51.785 -14.258 -28.173
v 51.950 -14.285 -28.499
v 52.176 -14.320 -28.878
v -37.172 -11.846 -30.750
v -37.177 -11.845 -30.751
v 51.962 -14.278 -28.543
v 52.180 -14.317 -28.903
v 50.284 -14.020 -25.582
v 50.258 -14.013 -25.493
v 50.366 -14.039 -25.624
v 50.742 -14.087 -26.286
v 50.587 -14.065 -26.153
v 50.977 -14.110 -26.827
v 51.320 -14.172 -27.345
v -37.168 -11.851 -30.750
v -37.170 -11.853 -30.749
v -37.174 -11.848 -30.748
v -37.176 -11.849 -30.749
v 51.871 -14.259 -28.360
v 51.357 -14.168 -27.462
v 52.158 -14.314 -28.846
v -37.168 -11.850 -30.751
v -37.173 -11.849 -30.751
v 50.486 -14.038 -25.938
v 50.458 -14.036 -25.828
v 50.861 -14.091 -26.566
v -37.169 -11.853 -30.750
v -37.173 -11.852 -30.750
v 11.349 -12.552 29.360
v 11.052 -12.213 29.590
v 11.665 -12.788 29.497
v 11.580 -12.284 29.596
v 11.653 -12.508 29.375
v 8.723 -10.330 29.198
v 9.312 -10.358 29.792
v 10.319 -11.669 29.299
v 10.862 -11.459 29.810
v 11.238 -11.227 29.736
v 9.754 -10.944 28.927
v 8.655 -9.823 28.813
v 10.925 -11.659 29.086
v 11.432 -11.411 29.364
v 9.706 -9.915 28.749
v 10.833 -10.510 28.983
v 5.763 -7.727 29.905
v 7.044 -7.808 30.191
v 7.146 -8.944 29.618
v 8.757 -8.874 30.186
v 10.094 -9.771 30.004
v 10.922 -9.972 29.652
v 4.820 -6.427 29.548
v 4.921 -6.957 29.838
v 5.699 -7.735 29.490
v 7.212 -8.822 29.076
v 10.958 -9.924 29.235
v 5.989 -7.140 29.114
v 7.897 -8.197 28.775
v 9.079 -8.456 28.702
v 9.987 -8.758 28.949
v 4.687 -5.985 29.965
v 5.691 -5.839 30.303
v 5.334 -6.852 30.126
v 6.906 -6.402 30.437
v 8.393 -7.213 30.284
v 9.064 -6.521 29.873
v 9.953 -8.361 29.926
v 4.523 -5.401 29.693
v 10.278 -8.409 29.474
v 9.366 -7.083 29.305
v 5.119 -5.617 29.347
v 6.548 -6.121 29.054
v 8.369 -6.895 28.977
v 4.848 -4.939 30.001
v 5.651 -4.617 30.228
v 6.849 -5.202 30.393
v 7.323 -4.472 30.220
v 8.011 -5.403 30.265
v 4.830 -4.762 29.655
v 5.402 -4.264 29.883
v 8.070 -4.938 30.008
v 8.279 -5.537 29.537
v 5.675 -4.729 29.449
v 7.017 -5.021 29.368
v 6.365 -4.172 30.118
v 6.237 -4.168 29.728
v 7.224 -4.363 29.851

# Normal Array
vn -0.329 -0.940 -0.088
vn -0.190 -0.982 -0.020
vn -0.307 -0.949 -0.075
vn 0.346 -0.898 0.272
vn -0.417 -0.896 -0.155
vn -0.497 -0.840 -0.217
vn -0.362 -0.923 -0.128
vn -0.246 -0.967 -0.059
vn 0.541 -0.762 0.355
vn 0.186 -0.968 0.168
vn 0.362 0.277 0.890
vn 0.101 0.993 -0.058
vn 0.533 0.297 0.793
vn -0.709 0.577 0.406
vn -0.482 -0.853 -0.199
vn -0.859 -0.177 -0.481
vn 0.043 -0.993 0.106
vn 0.049 -0.993 0.109
vn -0.434 -0.884 -0.172
vn -0.074 -0.996 0.047
vn 0.429 0.481 -0.765
vn -0.020 0.609 -0.793
vn 0.100 0.696 -0.711
vn -0.628 0.758 -0.177
vn -0.859 -0.168 -0.483
vn -0.607 -0.739 -0.291
vn -0.611 -0.736 -0.291
vn -0.462 -0.865 -0.196
vn -0.866 -0.453 -0.212
vn -0.559 -0.805 -0.198
vn 0.685 -0.477 0.551
vn 0.749 0.376 0.545
vn 0.856 0.044 0.515
vn 0.679 0.652 0.338
vn -0.803 -0.448 -0.392
vn -0.664 -0.680 -0.310
vn -0.706 -0.618 -0.347
vn -0.813 0.314 -0.491
vn 0.791 0.467 0.396
vn 0.780 0.492 0.387
vn 0.570 -0.042 0.821
vn 0.461 -0.178 0.869
vn -0.017 -0.206 0.979
vn -0.022 -0.124 0.992
vn -0.580 -0.224 0.784
vn -0.466 -0.109 0.878
vn 0.050 0.996 -0.073
vn -0.110 0.982 -0.155
vn -0.807 0.329 -0.490
vn 0.605 0.747 0.274
vn 0.664 0.685 0.301
vn 0.782 0.488 0.388
vn 0.450 0.877 0.169
vn 0.875 0.035 0.482
vn 0.966 0.017 0.258
vn 0.444 0.637 -0.631
vn 0.041 0.170 -0.985
vn -0.019 0.176 -0.984
vn -0.967 -0.098 0.233
vn -0.434 -0.398 -0.809
vn 0.038 0.996 -0.080
vn 0.080 0.995 -0.060
vn 0.280 0.958 0.058
vn 0.637 0.741 0.211
vn -0.090 0.991 -0.101
vn 0.477 0.849 0.228
vn 0.131 0.991 0.012
vn 0.581 0.766 0.274
vn -0.577 0.731 -0.364
vn -0.457 0.830 -0.320
vn 0.059 0.997 -0.048
vn 0.179 0.983 0.025
vn 0.482 0.854 0.195
vn 0.452 0.873 0.182
vn 0.699 -0.685 0.205
vn -0.555 -0.529 0.642
vn -0.102 -0.914 -0.392
vn -0.366 -0.539 0.759
vn 0.099 0.995 -0.031
vn 0.435 0.885 0.164
vn 0.619 -0.650 -0.440
vn -0.087 -0.412 -0.907
vn 0.007 -0.328 -0.945
vn -0.424 -0.223 -0.878
vn -0.645 -0.726 0.238
vn -0.036 -0.197 0.980
vn 0.101 -0.396 -0.913
vn 0.973 0.127 0.191
vn -0.564 -0.633 0.530
vn -0.639 -0.728 0.248
vn -0.643 -0.648 0.408
vn -0.243 -0.327 0.913
vn -0.048 -0.291 0.956
vn 0.226 -0.056 0.972
vn -0.536 -0.677 -0.505
vn -0.507 -0.563 -0.653
vn 0.083 -0.256 -0.963
vn -0.297 -0.406 -0.864
vn -0.259 -0.593 -0.762
vn 0.448 0.082 -0.890
vn 0.973 0.197 0.119
vn 0.904 0.247 0.350
vn -0.076 -0.174 -0.982
vn 0.030 -0.169 -0.985
vn 0.166 -0.074 -0.983
vn 0.495 -0.038 -0.868
vn -0.221 -0.454 0.863
vn -0.508 -0.721 0.471
vn -0.357 -0.446 0.821
vn -0.196 -0.319 0.927
vn -0.134 -0.173 0.976
vn -0.054 -0.275 0.960
vn 0.205 -0.019 0.979
vn 0.420 0.165 0.893
vn -0.695 -0.443 -0.566
vn -0.675 -0.728 0.118
vn -0.643 -0.757 0.114
vn -0.609 -0.754 -0.245
vn -0.509 -0.562 -0.651
vn -0.676 -0.697 -0.240
vn 0.904 0.251 0.348
vn 0.943 0.311 0.117
vn -0.482 -0.288 -0.827
vn -0.451 -0.309 -0.837
vn -0.263 -0.170 -0.950
vn -0.279 -0.153 -0.948
vn -0.066 -0.055 -0.996
vn -0.075 -0.065 -0.995
vn 0.255 0.105 -0.961
vn 0.291 0.094 -0.952
vn 0.687 0.157 -0.709
vn 0.526 0.238 -0.817
vn -0.312 -0.056 0.948
vn -0.225 -0.341 0.913
vn -0.111 -0.133 0.985
vn -0.192 -0.187 0.963
vn -0.039 -0.068 0.997
vn 0.007 -0.172 0.985
vn 0.356 0.198 0.914
vn 0.280 0.081 0.957
vn 0.112 -0.034 0.993
vn 0.408 0.091 0.908
vn -0.517 -0.232 0.824
vn -0.972 -0.225 -0.072
vn -0.961 -0.276 -0.014
vn -0.446 -0.419 0.791
vn 0.768 0.386 0.511
vn 0.826 0.554 -0.109
vn 0.912 0.390 0.123
vn 0.771 0.376 0.514
vn -0.509 -0.025 -0.861
vn -0.390 -0.082 -0.917
vn -0.159 0.029 -0.987
vn -0.186 0.044 -0.982
vn -0.025 0.163 -0.986
vn 0.021 0.146 -0.989
vn 0.676 0.384 -0.629
vn 0.349 0.317 -0.882
vn 0.345 0.313 -0.885
vn 0.664 0.398 -0.633
vn -0.322 0.017 0.947
vn -0.290 0.049 0.956
vn -0.109 0.057 0.992
vn -0.095 0.031 0.995
vn 0.133 0.146 0.980
vn 0.116 0.035 0.993
vn 0.125 0.042 0.991
vn 0.441 0.102 0.892
vn -0.863 0.431 0.264
vn -0.751 0.093 0.653
vn -0.410 0.473 0.780
vn -0.690 0.629 0.357
vn 0.466 0.383 0.798
vn 0.612 0.323 0.722
vn 0.792 0.524 -0.314
vn 0.797 0.584 -0.153
vn -0.450 0.164 -0.878
vn -0.213 0.597 -0.773
vn -0.239 0.257 -0.936
vn -0.132 0.194 -0.972
vn 0.065 0.249 -0.966
vn 0.002 0.274 -0.962
vn 0.352 0.376 -0.857
vn 0.274 0.382 -0.883
vn -0.009 0.255 0.967
vn -0.026 0.247 0.969
vn -0.106 0.993 0.045
vn -0.244 0.584 0.774
vn 0.547 0.831 0.098
vn 0.273 0.940 0.204
vn 0.201 0.978 -0.056
vn 0.534 0.630 -0.564
vn -0.213 0.597 -0.773
vn 0.036 0.415 -0.909
vn 0.208 0.535 -0.819
vn 0.311 0.497 -0.810

# Facets
f 1//1 3//1 2//1
f 4//2 3//2 5//2
f 4//3 2//3 3//3
f 6//4 4//4 5//4
f 7//5 3//5 1//5
f 8//6 7//6 9//6
f 3//7 7//7 8//7
f 5//8 3//8 8//8
f 5//9 10//9 6//9
f 5//10 8//10 10//10
f 11//11 13//11 12//11
f 14//12 13//12 15//12
f 14//13 12//13 13//13
f 16//14 14//14 15//14
f 9//15 17//15 8//15
f 9//16 18//16 17//16
f 8//17 19//17 10//17
f 20//18 19//18 8//18
f 17//19 20//19 8//19
f 21//20 19//20 20//20
f 22//21 13//21 11//21
f 22//22 15//22 13//22
f 22//23 23//23 15//23
f 23//24 16//24 15//24
f 24//25 17//25 18//25
f 24//26 20//26 17//26
f 24//27 25//27 20//27
f 25//28 21//28 20//28
f 26//29 2//29 27//29
f 26//30 1//30 2//30
f 2//31 4//31 28//31
f 27//32 2//32 28//32
f 6//33 28//33 4//33
f 6//34 29//34 28//34
f 30//35 1//35 26//35
f 30//36 7//36 1//36
f 7//37 30//37 9//37
f 30//38 31//38 9//38
f 29//39 6//39 10//39
f 32//40 29//40 10//40
f 33//41 12//41 34//41
f 33//42 11//42 12//42
f 12//43 14//43 35//43
f 34//44 12//44 35//44
f 16//45 35//45 14//45
f 16//46 36//46 35//46
f 18//47 38//47 37//47
f 31//48 38//48 18//48
f 9//49 31//49 18//49
f 37//50 19//50 39//50
f 32//51 19//51 37//51
f 10//52 19//52 32//52
f 37//53 38//53 32//53
f 39//54 19//54 21//54
f 40//55 11//55 33//55
f 40//56 22//56 11//56
f 41//57 23//57 22//57
f 41//58 22//58 40//58
f 23//59 36//59 16//59
f 23//60 41//60 36//60
f 24//61 18//61 37//61
f 37//62 25//62 24//62
f 37//63 39//63 25//63
f 39//64 21//64 25//64
f 26//65 27//65 42//65
f 43//66 27//66 28//66
f 43//67 42//67 27//67
f 43//68 28//68 29//68
f 30//69 26//69 42//69
f 42//70 31//70 30//70
f 44//71 31//71 42//71
f 43//72 44//72 42//72
f 44//73 29//73 32//73
f 44//74 43//74 29//74
f 33//75 34//75 45//75
f 46//76 34//76 35//76
f 46//77 45//77 34//77
f 46//78 35//78 36//78
f 38//79 31//79 44//79
f 44//80 32//80 38//80
f 40//81 33//81 45//81
f 45//82 41//82 40//82
f 45//83 46//83 41//83
f 46//84 36//84 41//84
f 47//85 49//85 48//85
f 50//86 48//86 49//86
f 51//87 49//87 47//87
f 51//88 50//88 49//88
f 52//89 54//89 53//89
f 48//90 54//90 47//90
f 53//91 54//91 48//91
f 55//92 53//92 48//92
f 50//93 55//93 48//93
f 50//94 56//94 55//94
f 52//95 57//95 54//95
f 52//96 58//96 57//96
f 51//97 47//97 59//97
f 59//98 47//98 54//98
f 59//99 54//99 57//99
f 60//100 51//100 59//100
f 50//101 51//101 60//101
f 56//102 50//102 60//102
f 61//103 57//103 58//103
f 61//104 59//104 57//104
f 61//105 62//105 59//105
f 62//106 60//106 59//106
f 63//107 65//107 64//107
f 53//108 65//108 52//108
f 64//109 65//109 53//109
f 66//110 64//110 53//110
f 53//111 55//111 67//111
f 66//112 53//112 67//112
f 56//113 67//113 55//113
f 56//114 68//114 67//114
f 69//115 71//115 70//115
f 71//116 63//116 70//116
f 65//117 63//117 71//117
f 72//118 65//118 71//118
f 58//119 52//119 72//119
f 52//120 65//120 72//120
f 68//121 56//121 60//121
f 73//122 68//122 60//122
f 74//123 71//123 69//123
f 74//124 72//124 71//124
f 74//125 75//125 72//125
f 75//126 58//126 72//126
f 61//127 58//127 75//127
f 76//128 61//128 75//128
f 77//129 62//129 61//129
f 77//130 61//130 76//130
f 62//131 73//131 60//131
f 62//132 77//132 73//132
f 78//133 80//133 79//133
f 64//134 80//134 63//134
f 79//135 80//135 64//135
f 81//136 79//136 64//136
f 64//137 66//137 82//137
f 81//138 64//138 82//138
f 82//139 84//139 83//139
f 67//140 84//140 82//140
f 66//141 67//141 82//141
f 84//142 67//142 68//142
f 78//143 70//143 80//143
f 69//144 70//144 78//144
f 85//145 69//145 78//145
f 70//146 63//146 80//146
f 84//147 86//147 83//147
f 86//148 87//148 83//148
f 86//149 68//149 73//149
f 86//150 84//150 68//150
f 88//151 69//151 85//151
f 88//152 74//152 69//152
f 89//153 75//153 74//153
f 89//154 74//154 88//154
f 90//155 76//155 75//155
f 90//156 75//156 89//156
f 77//157 87//157 86//157
f 90//158 87//158 77//158
f 76//159 90//159 77//159
f 86//160 73//160 77//160
f 78//161 79//161 91//161
f 79//162 92//162 91//162
f 93//163 92//163 79//163
f 81//164 93//164 79//164
f 93//165 95//165 94//165
f 82//166 95//166 93//166
f 81//167 82//167 93//167
f 95//168 82//168 83//168
f 85//169 91//169 96//169
f 85//170 78//170 91//170
f 92//171 97//171 91//171
f 97//172 96//172 91//172
f 94//173 95//173 98//173
f 83//174 98//174 95//174
f 99//175 98//175 83//175
f 87//176 99//176 83//176
f 88//177 85//177 96//177
f 100//178 96//178 97//178
f 88//179 96//179 100//179
f 89//180 88//180 100//180
f 101//181 90//181 89//181
f 101//182 89//182 100//182
f 90//183 99//183 87//183
f 90//184 101//184 99//184
f 92//185 93//185 102//185
f 102//186 93//186 94//186
f 97//187 102//187 103//187
f 97//188 92//188 102//188
f 104//189 94//189 98//189
f 102//190 94//190 104//190
f 103//191 102//191 104//191
f 104//192 98//192 99//192
f 100//193 97//193 103//193
f 103//194 101//194 100//194
f 103//195 104//195 101//195
f 104//196 99//196 101//196

# Thankyou for using Spin3D

