# Created using Spin3D

# Vertex Array
v 20.961 -45.805 18.994
v 21.535 -45.909 19.511
v 21.288 -45.913 19.110
v 21.786 -45.925 19.577
v 21.755 -45.898 19.336
v 21.940 -45.825 19.499
v 19.876 -45.689 17.911
v 20.219 -45.707 18.301
v 20.441 -45.806 18.377
v 20.877 -45.864 18.586
v 21.305 -45.816 18.756
v 21.798 -45.786 19.146
v 19.957 -45.698 17.819
v 19.740 -45.604 17.644
v 20.519 -45.732 18.099
v 21.467 -45.645 18.653
v 20.968 -45.649 18.227
v 20.016 -45.583 17.659
v 20.502 -45.571 17.854
v 21.463 -45.834 19.469
v 21.761 -45.838 19.601
v 19.928 -45.580 17.904
v 20.529 -45.605 18.482
v 21.311 -45.682 19.150
v 21.781 -45.702 19.372
v 21.781 -45.655 19.094
v 19.904 -45.508 17.657
v 20.316 -45.470 18.021
v 21.392 -45.515 18.593
v 20.948 -45.510 18.143
v 20.344 -45.470 17.798
v 20.888 -45.502 18.558
v 21.427 -45.543 18.881
v 20.889 -45.444 18.271
v 6.487 -24.545 24.097
v 6.474 -24.450 25.161
v 6.852 -25.149 24.316
v 7.164 -24.451 25.736
v 7.701 -24.857 24.362
v 8.521 -23.888 25.476
v 6.811 -25.231 23.441
v 7.440 -25.127 23.332
v 7.125 -25.134 22.935
v 9.034 -23.885 23.099
v 7.859 -24.404 22.491
v 7.173 -23.512 27.088
v 7.868 -22.683 27.727
v 7.850 -23.741 26.790
v 9.008 -22.449 27.140
v 6.313 -23.329 25.121
v 6.559 -23.032 26.468
v 10.707 -21.966 25.379
v 7.009 -24.404 23.055
v 6.736 -22.705 23.909
v 11.256 -21.765 22.463
v 8.137 -22.604 22.346
v 9.482 -22.619 21.093
v 9.110 -23.564 21.256
v 9.971 -23.361 21.023
v 9.825 -23.514 20.240
v 10.104 -23.423 20.146
v 9.752 -23.232 20.367
v 10.092 -23.265 20.086
v 7.174 -21.976 27.887
v 8.679 -20.215 28.650
v 10.660 -20.485 27.737
v 6.526 -20.488 26.018
v 6.601 -20.950 27.569
v 13.407 -20.119 24.594
v 12.753 -19.545 26.801
v 14.503 -18.958 25.812
v 7.334 -21.514 23.268
v 7.045 -20.484 24.225
v 8.348 -19.702 23.281
v 13.328 -20.111 23.284
v 15.454 -18.467 24.845
v 14.737 -19.025 23.723
v 16.060 -18.034 23.955
v 10.236 -22.517 20.819
v 10.380 -20.504 22.138
v 13.335 -19.098 22.878
v 10.373 -23.002 20.597
v 15.563 -17.858 23.408
v 30.113 -16.937 15.620
v 30.113 -16.940 15.620
v 30.113 -16.937 15.624
v 30.112 -16.938 15.621
v 30.112 -16.937 15.623
v 6.749 -18.369 28.129
v 7.910 -17.016 29.412
v 7.220 -19.872 28.560
v 9.501 -17.262 29.657
v 10.768 -18.451 28.957
v 11.819 -19.076 28.174
v 12.691 -17.286 28.208
v 6.797 -16.379 27.336
v 14.482 -17.903 26.675
v 15.321 -18.183 25.809
v 15.790 -17.112 25.664
v 7.602 -17.469 25.249
v 9.110 -17.017 24.025
v 16.545 -17.319 24.467
v 16.592 -17.311 23.800
v 16.878 -16.688 24.084
v 10.117 -18.010 23.070
v 12.349 -17.222 23.098
v 14.783 -16.952 23.308
v 16.337 -16.705 23.658
v 30.113 -16.942 15.616
v 30.112 -16.944 15.614
v 30.112 -16.941 15.618
v 30.112 -16.941 15.615
v 30.114 -16.939 15.617
v 30.112 -16.939 15.618
v 30.113 -16.936 15.620
v 7.020 -15.030 28.952
v 7.998 -13.494 29.993
v 9.351 -14.649 30.140
v 10.990 -15.743 29.571
v 12.491 -14.081 28.666
v 6.963 -13.192 28.413
v 14.427 -15.958 27.025
v 15.632 -15.646 25.793
v 7.647 -13.956 27.001
v 10.791 -15.864 23.909
v 9.435 -14.474 25.506
v 12.461 -15.195 23.986
v 11.464 -14.179 24.912
v 13.170 -14.124 25.025
v 16.567 -16.284 24.808
v 16.619 -16.048 24.192
v -5.907 -13.193 20.983
v -5.906 -13.193 20.984
v -5.906 -13.194 20.983
v -5.905 -13.193 20.983
v 14.079 -15.507 23.865
v 15.714 -15.748 23.987
v -5.906 -13.193 20.982
v 30.113 -16.943 15.614
v 30.112 -16.940 15.615
v 7.252 -12.167 29.510
v 8.154 -11.004 30.173
v 9.259 -11.929 30.398
v 10.719 -12.964 30.033
v 11.431 -11.730 29.580
v 7.157 -11.201 29.053
v 13.946 -14.072 26.448
v 11.987 -11.888 28.385
v 7.568 -11.462 28.282
v 8.911 -11.803 27.414
v 11.269 -12.370 26.810
v 14.819 -14.763 24.758
v 15.872 -15.288 24.937
v -5.906 -13.192 20.983
v 7.621 -10.309 29.669
v 8.382 -9.661 30.049
v 9.192 -10.037 30.320
v 10.325 -10.788 30.212
v 10.899 -10.308 29.529
v 7.615 -10.176 29.084
v 8.270 -9.427 29.510
v 10.895 -10.494 28.579
v 8.423 -10.054 28.674
v 9.774 -10.218 28.382
v 9.145 -9.203 29.884
v 9.980 -9.591 30.039
v 9.097 -9.291 29.234
v 10.023 -9.463 29.382

# Normal Array
vn -0.380 -0.893 0.241
vn 0.090 -0.988 -0.123
vn -0.077 -0.995 0.056
vn 0.479 -0.863 -0.159
vn -0.484 -0.784 0.390
vn -0.486 -0.771 0.411
vn -0.401 -0.850 0.340
vn -0.138 -0.990 0.016
vn 0.153 -0.955 -0.255
vn 0.207 -0.946 -0.250
vn 0.574 -0.756 -0.315
vn 0.371 -0.835 -0.407
vn -0.164 -0.985 -0.049
vn -0.283 -0.946 -0.156
vn -0.002 -0.965 -0.261
vn 0.064 -0.968 -0.243
vn 0.445 -0.734 -0.513
vn 0.283 -0.849 -0.446
vn 0.270 -0.860 -0.433
vn 0.447 -0.735 -0.511
vn 0.093 -0.825 -0.558
vn 0.209 -0.829 -0.518
vn 0.240 -0.804 -0.544
vn 0.298 -0.789 -0.538
vn -0.673 -0.251 0.696
vn -0.258 -0.330 0.908
vn -0.401 0.127 0.907
vn 0.502 -0.102 0.859
vn -0.690 0.368 0.623
vn -0.541 0.601 0.589
vn -0.553 0.505 0.663
vn -0.493 0.585 0.644
vn -0.485 0.675 0.556
vn -0.214 0.837 0.503
vn -0.194 0.851 0.489
vn 0.235 0.827 0.511
vn 0.533 0.834 0.142
vn 0.925 -0.033 -0.378
vn -0.501 0.817 0.285
vn -0.762 0.394 0.514
vn -0.360 0.837 0.411
vn -0.340 0.894 0.291
vn 0.709 0.088 -0.700
vn 0.612 -0.339 -0.714
vn 0.807 -0.126 -0.577
vn 0.800 0.203 -0.564
vn 0.052 0.043 -0.998
vn -0.083 0.997 -0.010
vn 0.257 0.355 -0.899
vn 0.370 0.062 -0.927
vn 0.541 -0.373 -0.754
vn 0.488 0.310 -0.816
vn -0.334 0.809 0.484
vn -0.151 0.903 0.402
vn -0.168 0.903 0.394
vn 0.206 0.965 0.163
vn -0.131 0.971 0.197
vn -0.330 0.854 0.402
vn 0.327 0.892 -0.312
vn 0.087 0.993 0.085
vn -0.046 0.979 0.199
vn 0.267 0.962 0.060
vn -0.044 0.999 -0.005
vn 0.258 0.901 -0.348
vn -0.861 -0.507 0.034
vn 0.284 -0.884 0.372
vn -0.395 -0.787 0.474
vn 0.416 -0.815 0.403
vn -0.867 -0.491 0.086
vn 0.146 -0.984 -0.098
vn 0.177 -0.981 0.083
vn 0.313 -0.935 0.166
vn 0.668 -0.730 0.144
vn 0.618 -0.784 0.049
vn 0.516 -0.759 -0.396
vn 0.532 -0.755 -0.384
vn 0.105 -0.661 0.743
vn 0.461 -0.593 0.660
vn -0.970 -0.131 0.206
vn -0.990 -0.142 -0.000
vn -0.025 -0.821 0.570
vn -0.774 -0.518 0.365
vn -0.532 -0.556 0.639
vn 0.415 -0.856 0.307
vn 0.628 -0.670 0.395
vn 0.613 -0.678 0.406
vn -0.895 0.006 -0.447
vn -0.896 0.076 -0.438
vn -0.954 0.100 -0.281
vn -0.844 -0.047 -0.534
vn 0.657 -0.741 0.141
vn 0.700 -0.709 0.083
vn -0.735 0.206 -0.646
vn -0.674 0.141 -0.725
vn -0.720 0.055 -0.692
vn -0.553 0.018 -0.833
vn -0.552 0.049 -0.832
vn 0.704 -0.696 0.142
vn 0.185 -0.969 -0.161
vn 0.262 -0.955 0.138
vn 0.457 -0.879 -0.134
vn 0.346 -0.931 0.118
vn -0.828 0.238 -0.508
vn -0.818 0.044 -0.574
vn -0.616 0.183 -0.766
vn -0.190 -0.362 -0.912
vn -0.106 -0.317 0.942
vn -0.256 -0.446 0.858
vn 0.480 -0.441 0.758
vn 0.305 -0.502 0.809
vn -0.999 -0.005 0.047
vn -0.984 0.018 0.176
vn -0.783 -0.287 0.552
vn -0.792 -0.273 0.546
vn 0.596 -0.717 0.363
vn 0.527 -0.715 0.460
vn 0.626 -0.655 0.424
vn 0.469 -0.811 0.350
vn -0.867 0.187 -0.462
vn -0.946 0.171 -0.274
vn -0.955 0.152 -0.255
vn -0.682 0.386 -0.621
vn 0.634 -0.772 -0.043
vn 0.574 -0.817 0.052
vn 0.601 -0.775 0.198
vn 0.629 -0.777 -0.016
vn 0.618 -0.785 -0.042
vn 0.598 -0.801 0.016
vn -0.745 0.015 -0.667
vn -0.352 0.530 -0.771
vn -0.568 0.546 -0.616
vn -0.370 0.309 -0.876
vn -0.519 0.296 -0.802
vn 0.269 -0.060 -0.961
vn 0.555 -0.313 -0.771
vn 0.719 0.345 -0.604
vn 0.723 -0.682 0.110
vn 0.644 0.461 -0.610
vn 0.461 -0.520 -0.719
vn 0.501 -0.325 -0.802
vn 0.745 -0.648 0.159
vn 0.524 -0.547 -0.652
vn -0.335 0.655 -0.677
vn -0.432 0.673 -0.601
vn 0.657 0.459 -0.598
vn 0.892 -0.100 -0.440
vn 1.000 0.000 -0.000
vn -0.486 -0.727 0.485
vn 0.198 0.977 -0.074
vn -0.641 -0.607 0.470
vn -0.725 -0.030 0.688
vn -0.129 -0.299 0.945
vn -0.120 -0.257 0.959
vn -0.188 -0.270 0.944
vn 0.305 -0.502 0.810
vn 0.305 -0.502 0.810
vn 0.169 -0.360 0.917
vn 0.479 -0.249 0.842
vn -0.802 -0.082 0.591
vn -0.997 0.044 0.061
vn -0.997 0.047 0.058
vn -0.721 -0.196 0.665
vn 0.535 -0.619 0.575
vn 0.512 -0.538 0.670
vn 0.545 -0.524 0.654
vn 0.485 -0.453 0.748
vn 0.711 -0.358 0.606
vn 0.671 -0.197 0.714
vn -0.875 0.199 -0.442
vn -0.927 0.262 -0.268
vn -0.678 0.346 -0.649
vn -0.650 0.369 -0.665
vn 0.658 -0.693 0.295
vn 0.809 -0.585 0.050
vn 0.742 -0.642 0.192
vn 0.697 -0.489 0.524
vn 0.902 -0.364 0.232
vn 0.897 -0.438 0.058
vn -0.437 0.353 -0.827
vn -0.380 0.288 -0.879
vn 0.151 0.193 -0.970
vn -0.108 0.338 -0.935
vn 0.198 0.062 -0.978
vn 0.068 0.151 -0.986
vn 0.534 -0.534 -0.656
vn 0.381 -0.056 -0.923
vn 0.208 0.071 -0.975
vn 0.616 0.075 -0.784
vn 0.432 -0.706 0.561
vn -0.999 0.040 -0.032
vn 0.217 -0.834 0.508
vn 0.998 -0.005 0.057
vn 0.832 -0.333 0.444
vn -0.287 -0.735 0.615
vn -0.999 0.011 -0.039
vn -0.840 -0.516 0.170
vn 0.984 0.144 0.107
vn 0.944 0.193 0.267
vn -0.954 -0.254 0.158
vn -0.856 0.499 -0.136
vn -0.638 -0.110 0.762
vn -0.664 -0.128 0.736
vn -0.178 -0.188 0.966
vn -0.234 -0.153 0.960
vn 0.293 -0.234 0.927
vn 0.223 -0.165 0.961
vn 0.472 -0.232 0.851
vn 0.578 -0.080 0.812
vn -0.994 0.059 0.088
vn -0.991 0.008 0.130
vn 0.601 -0.076 0.796
vn 0.621 -0.122 0.774
vn 0.650 -0.116 0.751
vn 0.713 0.015 0.701
vn -0.827 0.219 -0.519
vn -0.858 0.238 -0.456
vn -0.396 0.499 -0.771
vn -0.641 0.446 -0.625
vn -0.524 0.386 -0.760
vn -0.186 0.556 -0.810
vn -0.306 0.574 -0.760
vn 0.026 0.687 -0.726
vn 0.731 0.019 0.682
vn 0.813 -0.198 0.547
vn 0.867 -0.173 0.467
vn 0.919 0.336 0.206
vn -0.594 -0.652 0.470
vn 0.581 -0.664 0.470
vn -0.356 0.435 -0.827
vn -0.128 0.396 -0.909
vn -0.120 0.404 -0.907
vn 0.074 0.669 -0.740
vn 0.009 0.401 -0.916
vn 0.038 0.376 -0.926
vn 0.140 0.403 -0.905
vn 0.128 0.411 -0.903
vn 0.572 0.356 -0.739
vn 0.345 0.499 -0.795
vn -0.591 -0.460 -0.663
vn 0.584 -0.480 -0.655
vn 0.632 -0.650 0.422
vn -0.228 0.371 -0.900
vn 0.877 0.267 -0.399
vn 0.954 -0.233 0.187
vn -0.970 0.043 -0.238
vn -0.919 -0.131 -0.373
vn 0.760 0.505 -0.409
vn -0.712 0.589 -0.381
vn -0.572 -0.023 0.820
vn -0.653 -0.093 0.752
vn -0.190 -0.099 0.977
vn -0.243 -0.055 0.969
vn 0.242 -0.136 0.961
vn 0.183 -0.087 0.979
vn 0.577 -0.079 0.813
vn 0.592 -0.047 0.805
vn -0.974 0.036 0.223
vn -0.971 0.018 0.239
vn 0.781 0.356 0.514
vn 0.808 0.253 0.531
vn 0.890 0.253 0.381
vn 0.615 0.370 0.696
vn -0.818 0.247 -0.519
vn -0.814 0.245 -0.527
vn -0.499 0.436 -0.748
vn -0.422 0.403 -0.812
vn -0.296 0.676 -0.675
vn -0.072 0.570 -0.818
vn 0.323 0.923 -0.210
vn 0.484 0.824 -0.294
vn 0.022 0.725 -0.689
vn 0.439 0.784 -0.440
vn 0.769 0.483 0.418
vn 0.699 0.569 0.434
vn 0.459 0.880 -0.122
vn 0.806 0.527 0.270
vn -0.587 0.479 0.653
vn 0.587 0.462 0.665
vn 0.154 0.693 -0.705
vn 0.155 0.692 -0.705
vn 0.459 0.767 -0.449
vn 0.371 0.810 -0.455
vn -0.584 0.662 -0.469
vn 0.590 0.655 -0.472
vn -0.642 0.062 0.764
vn -0.552 0.169 0.817
vn -0.258 0.132 0.957
vn -0.171 0.034 0.985
vn 0.214 -0.042 0.976
vn 0.124 0.045 0.991
vn 0.509 0.021 0.860
vn 0.639 0.266 0.722
vn -0.910 0.403 0.102
vn -0.875 0.134 0.465
vn -0.702 0.589 0.400
vn -0.784 0.604 0.146
vn 0.869 0.339 0.360
vn 0.773 0.623 -0.124
vn -0.768 0.359 -0.531
vn -0.406 0.694 -0.595
vn -0.453 0.484 -0.749
vn -0.396 0.462 -0.794
vn -0.080 0.551 -0.831
vn -0.110 0.561 -0.821
vn 0.658 0.582 -0.478
vn 0.287 0.687 -0.668
vn -0.083 0.458 0.885
vn 0.225 0.203 0.953
vn 0.052 0.465 0.884
vn 0.626 0.285 0.726
vn -0.199 0.973 -0.118
vn -0.393 0.811 0.432
vn 0.382 0.902 0.200
vn 0.203 0.968 -0.146
vn 0.700 0.701 -0.139
vn 0.667 0.722 0.184
vn -0.321 0.728 -0.605
vn -0.088 0.639 -0.764
vn 0.238 0.746 -0.622
vn 0.289 0.729 -0.621

# Facets
f 1//1 3//1 2//1
f 4//2 3//2 5//2
f 4//3 2//3 3//3
f 6//4 4//4 5//4
f 7//5 9//5 8//5
f 9//6 1//6 8//6
f 3//7 1//7 9//7
f 10//8 3//8 9//8
f 11//9 5//9 3//9
f 10//10 11//10 3//10
f 5//11 12//11 6//11
f 5//12 11//12 12//12
f 7//13 13//13 9//13
f 7//14 14//14 13//14
f 15//15 10//15 9//15
f 13//16 15//16 9//16
f 11//17 17//17 16//17
f 15//18 17//18 11//18
f 10//19 15//19 11//19
f 16//20 12//20 11//20
f 18//21 13//21 14//21
f 18//22 15//22 13//22
f 18//23 19//23 15//23
f 19//24 17//24 15//24
f 1//25 2//25 20//25
f 21//26 2//26 4//26
f 21//27 20//27 2//27
f 21//28 4//28 6//28
f 7//29 8//29 22//29
f 22//30 8//30 23//30
f 8//31 1//31 23//31
f 23//32 1//32 24//32
f 24//33 1//33 20//33
f 20//34 21//34 24//34
f 21//35 25//35 24//35
f 6//36 25//36 21//36
f 26//37 25//37 6//37
f 12//38 26//38 6//38
f 14//39 22//39 27//39
f 14//40 7//40 22//40
f 23//41 28//41 22//41
f 28//42 27//42 22//42
f 29//43 16//43 30//43
f 16//44 17//44 30//44
f 16//45 26//45 12//45
f 16//46 29//46 26//46
f 18//47 14//47 27//47
f 31//48 27//48 28//48
f 18//49 27//49 31//49
f 19//50 18//50 31//50
f 19//51 30//51 17//51
f 19//52 31//52 30//52
f 23//53 24//53 32//53
f 33//54 24//54 25//54
f 33//55 32//55 24//55
f 33//56 25//56 26//56
f 28//57 32//57 34//57
f 28//58 23//58 32//58
f 34//59 29//59 30//59
f 33//60 29//60 34//60
f 32//61 33//61 34//61
f 33//62 26//62 29//62
f 31//63 28//63 34//63
f 34//64 30//64 31//64
f 35//65 37//65 36//65
f 38//66 37//66 39//66
f 38//67 36//67 37//67
f 40//68 38//68 39//68
f 41//69 37//69 35//69
f 42//70 41//70 43//70
f 37//71 41//71 42//71
f 39//72 37//72 42//72
f 39//73 44//73 40//73
f 39//74 42//74 44//74
f 45//75 42//75 43//75
f 45//76 44//76 42//76
f 46//77 48//77 47//77
f 49//78 47//78 48//78
f 50//79 36//79 51//79
f 50//80 35//80 36//80
f 48//81 46//81 38//81
f 38//82 46//82 51//82
f 38//83 51//83 36//83
f 40//84 48//84 38//84
f 49//85 48//85 40//85
f 52//86 49//86 40//86
f 35//87 53//87 41//87
f 54//88 53//88 35//88
f 50//89 54//89 35//89
f 43//90 41//90 53//90
f 52//91 40//91 44//91
f 55//92 52//92 44//92
f 56//93 53//93 54//93
f 57//94 58//94 56//94
f 58//95 45//95 56//95
f 56//96 45//96 53//96
f 53//97 45//97 43//97
f 44//98 59//98 55//98
f 58//99 59//99 44//99
f 60//100 59//100 58//100
f 45//101 58//101 44//101
f 61//102 59//102 60//102
f 62//103 58//103 57//103
f 62//104 60//104 58//104
f 62//105 63//105 60//105
f 63//106 61//106 60//106
f 64//107 47//107 65//107
f 64//108 46//108 47//108
f 49//109 65//109 47//109
f 49//110 66//110 65//110
f 67//111 51//111 68//111
f 67//112 50//112 51//112
f 46//113 64//113 51//113
f 64//114 68//114 51//114
f 69//115 70//115 52//115
f 52//116 70//116 66//116
f 52//117 66//117 49//117
f 71//118 70//118 69//118
f 54//119 73//119 72//119
f 67//120 73//120 54//120
f 50//121 67//121 54//121
f 72//122 73//122 74//122
f 75//123 69//123 55//123
f 69//124 52//124 55//124
f 69//125 76//125 71//125
f 77//126 76//126 69//126
f 75//127 77//127 69//127
f 78//128 76//128 77//128
f 56//129 54//129 72//129
f 79//130 57//130 80//130
f 57//131 56//131 80//131
f 80//132 56//132 74//132
f 74//133 56//133 72//133
f 80//134 81//134 55//134
f 55//135 81//135 75//135
f 79//136 80//136 55//136
f 55//137 59//137 82//137
f 82//138 79//138 55//138
f 77//139 81//139 83//139
f 75//140 81//140 77//140
f 82//141 59//141 61//141
f 83//142 78//142 77//142
f 62//143 57//143 79//143
f 79//144 63//144 62//144
f 79//145 82//145 63//145
f 82//146 61//146 63//146
f 84//147 86//147 85//147
f 87//148 85//148 86//148
f 88//149 86//149 84//149
f 88//150 87//150 86//150
f 89//151 91//151 90//151
f 65//152 91//152 64//152
f 90//153 91//153 65//153
f 92//154 90//154 65//154
f 93//155 66//155 94//155
f 65//156 66//156 93//156
f 92//157 65//157 93//157
f 95//158 93//158 94//158
f 89//159 68//159 91//159
f 67//160 68//160 89//160
f 96//161 67//161 89//161
f 68//162 64//162 91//162
f 94//163 66//163 70//163
f 97//164 71//164 98//164
f 97//165 70//165 71//165
f 95//166 70//166 97//166
f 94//167 70//167 95//167
f 99//168 97//168 98//168
f 100//169 67//169 96//169
f 100//170 73//170 67//170
f 73//171 100//171 74//171
f 100//172 101//172 74//172
f 98//173 71//173 76//173
f 102//174 78//174 103//174
f 102//175 76//175 78//175
f 99//176 76//176 102//176
f 98//177 76//177 99//177
f 104//178 102//178 103//178
f 105//179 74//179 101//179
f 105//180 80//180 74//180
f 106//181 81//181 80//181
f 106//182 80//182 105//182
f 107//183 83//183 81//183
f 107//184 81//184 106//184
f 83//185 103//185 78//185
f 108//186 103//186 83//186
f 107//187 108//187 83//187
f 108//188 104//188 103//188
f 109//189 111//189 110//189
f 112//190 110//190 111//190
f 109//191 85//191 111//191
f 84//192 85//192 109//192
f 113//193 84//193 109//193
f 87//194 111//194 85//194
f 112//195 111//195 87//195
f 114//196 112//196 87//196
f 115//197 84//197 113//197
f 115//198 88//198 84//198
f 88//199 114//199 87//199
f 88//200 115//200 114//200
f 116//201 90//201 117//201
f 116//202 89//202 90//202
f 90//203 92//203 118//203
f 117//204 90//204 118//204
f 92//205 93//205 119//205
f 118//206 92//206 119//206
f 95//207 119//207 93//207
f 95//208 120//208 119//208
f 96//209 89//209 116//209
f 96//210 116//210 121//210
f 120//211 95//211 122//211
f 95//212 97//212 122//212
f 99//213 122//213 97//213
f 99//214 123//214 122//214
f 124//215 96//215 121//215
f 124//216 100//216 96//216
f 125//217 101//217 126//217
f 126//218 101//218 100//218
f 126//219 100//219 124//219
f 127//220 125//220 128//220
f 125//221 126//221 128//221
f 127//222 128//222 129//222
f 123//223 99//223 130//223
f 99//224 102//224 130//224
f 104//225 130//225 102//225
f 104//226 131//226 130//226
f 132//227 134//227 133//227
f 135//228 133//228 134//228
f 105//229 101//229 125//229
f 125//230 106//230 105//230
f 125//231 127//231 106//231
f 136//232 127//232 129//232
f 106//233 127//233 136//233
f 107//234 106//234 136//234
f 137//235 108//235 107//235
f 137//236 107//236 136//236
f 108//237 131//237 104//237
f 108//238 137//238 131//238
f 138//239 134//239 132//239
f 138//240 135//240 134//240
f 109//241 110//241 139//241
f 139//242 110//242 112//242
f 113//243 139//243 140//243
f 113//244 109//244 139//244
f 140//245 112//245 114//245
f 140//246 139//246 112//246
f 115//247 113//247 140//247
f 140//248 114//248 115//248
f 141//249 117//249 142//249
f 141//250 116//250 117//250
f 117//251 118//251 143//251
f 142//252 117//252 143//252
f 118//253 119//253 144//253
f 143//254 118//254 144//254
f 120//255 144//255 119//255
f 120//256 145//256 144//256
f 121//257 116//257 141//257
f 121//258 141//258 146//258
f 122//259 147//259 120//259
f 120//260 147//260 148//260
f 120//261 148//261 145//261
f 147//262 122//262 123//262
f 149//263 121//263 146//263
f 149//264 124//264 121//264
f 150//265 126//265 124//265
f 150//266 124//266 149//266
f 151//267 128//267 126//267
f 151//268 126//268 150//268
f 152//269 129//269 147//269
f 147//270 129//270 151//270
f 151//271 129//271 128//271
f 147//272 151//272 148//272
f 153//273 123//273 130//273
f 147//274 123//274 153//274
f 152//275 147//275 153//275
f 153//276 130//276 131//276
f 132//277 133//277 154//277
f 154//278 133//278 135//278
f 136//279 129//279 152//279
f 152//280 137//280 136//280
f 152//281 153//281 137//281
f 153//282 131//282 137//282
f 138//283 132//283 154//283
f 154//284 135//284 138//284
f 141//285 142//285 155//285
f 142//286 156//286 155//286
f 157//287 156//287 142//287
f 143//288 157//288 142//288
f 143//289 144//289 158//289
f 157//290 143//290 158//290
f 145//291 158//291 144//291
f 145//292 159//292 158//292
f 146//293 155//293 160//293
f 146//294 141//294 155//294
f 156//295 161//295 155//295
f 161//296 160//296 155//296
f 159//297 145//297 148//297
f 162//298 159//298 148//298
f 149//299 146//299 160//299
f 163//300 160//300 161//300
f 149//301 160//301 163//301
f 150//302 149//302 163//302
f 164//303 151//303 150//303
f 164//304 150//304 163//304
f 151//305 162//305 148//305
f 151//306 164//306 162//306
f 156//307 157//307 165//307
f 166//308 157//308 158//308
f 166//309 165//309 157//309
f 166//310 158//310 159//310
f 161//311 165//311 167//311
f 161//312 156//312 165//312
f 165//313 166//313 168//313
f 165//314 168//314 167//314
f 168//315 159//315 162//315
f 168//316 166//316 159//316
f 163//317 161//317 167//317
f 167//318 164//318 163//318
f 167//319 168//319 164//319
f 168//320 162//320 164//320

# Thankyou for using Spin3D

