# Created using Spin3D

# Vertex Array
v 3.346 -43.694 30.080
v 4.350 -43.048 30.928
v 4.802 -44.363 30.188
v 6.317 -43.818 31.028
v 6.694 -44.766 30.058
v 8.120 -44.201 30.698
v 8.230 -44.764 29.860
v 9.236 -44.182 30.094
v 3.708 -44.139 29.360
v 2.681 -43.271 29.320
v 5.310 -44.490 29.061
v 7.384 -44.654 28.964
v 9.077 -44.182 29.091
v 3.614 -43.033 28.104
v 6.346 -43.682 27.811
v 8.314 -43.783 28.036
v 2.507 -41.997 30.165
v 4.102 -40.843 31.322
v 6.063 -42.006 31.666
v 7.987 -42.705 31.418
v 9.500 -43.078 30.692
v 10.170 -43.148 29.569
v 10.521 -41.940 30.176
v 1.006 -40.589 28.561
v 1.129 -40.560 29.438
v 1.795 -41.960 28.857
v 9.938 -42.649 28.026
v 10.967 -41.552 28.952
v 2.031 -41.091 27.756
v 2.842 -39.704 26.862
v 3.496 -41.346 26.887
v 5.466 -42.011 26.723
v 8.156 -42.240 26.861
v 10.017 -41.382 26.841
v 10.961 -40.912 27.562
v 4.723 -40.134 26.191
v 7.007 -40.478 26.030
v 9.143 -40.402 26.228
v 10.500 -40.218 26.679
v 2.301 -39.241 30.462
v 4.291 -38.533 31.436
v 6.086 -39.776 31.833
v 7.678 -40.933 31.792
v 9.490 -41.046 31.094
v 10.808 -40.331 29.891
v 0.634 -39.742 28.898
v 0.902 -39.311 29.468
v 11.202 -39.838 28.458
v 1.479 -39.114 28.147
v 2.794 -38.096 27.180
v 10.977 -39.574 27.289
v 4.138 -38.348 26.417
v 6.193 -38.661 26.065
v 8.124 -39.086 26.048
v 9.790 -38.822 26.685
v 3.290 -37.732 30.993
v 4.512 -36.684 30.911
v 6.189 -37.645 31.514
v 8.186 -38.894 31.431
v 9.122 -37.568 30.291
v 9.938 -39.168 30.609
v 0.765 -39.024 28.960
v 1.649 -38.081 29.351
v 2.811 -37.180 30.297
v 10.552 -38.582 29.386
v 9.524 -37.152 28.793
v 3.806 -37.087 27.080
v 2.955 -36.850 28.358
v 4.537 -36.178 27.664
v 10.601 -38.401 27.920
v 9.465 -37.424 27.507
v 5.420 -37.041 26.781
v 7.790 -37.422 26.801
v 6.286 -36.247 30.833
v 7.586 -37.004 30.964
v 2.583 -36.753 29.489
v 3.852 -35.892 29.717
v 5.454 -35.485 30.105
v 5.766 -35.210 29.243
v 7.428 -36.039 29.622
v 6.314 -35.929 28.040
v 4.650 -35.495 28.738
v 8.293 -36.489 28.066
v 4.888 -35.117 29.518
v 16.602 -23.149 19.697
v 16.849 -23.166 20.084
v 17.050 -23.348 19.426
v 17.593 -22.926 19.989
v 17.634 -23.246 19.143
v 18.269 -22.764 19.190
v 16.880 -23.223 19.104
v 17.383 -23.254 18.810
v 17.302 -22.795 18.782
v 17.953 -23.032 18.737
v 17.836 -22.821 18.564
v 16.627 -22.819 20.346
v 17.003 -22.326 20.781
v 17.050 -22.810 20.627
v 17.374 -22.391 20.892
v 17.468 -22.649 20.686
v 17.996 -22.169 20.518
v 16.521 -22.708 19.915
v 18.566 -22.245 19.763
v 18.876 -22.150 19.198
v 19.097 -21.730 19.508
v 16.762 -22.765 19.329
v 17.418 -22.007 19.158
v 19.082 -21.634 19.106
v 18.497 -22.335 18.757
v 18.011 -22.159 18.676
v 16.781 -22.234 20.320
v 17.259 -21.791 20.589
v 17.616 -21.860 20.788
v 18.276 -21.510 20.440
v 16.819 -22.251 19.732
v 17.398 -21.603 19.936
v 18.784 -21.598 20.006
v 19.137 -21.326 19.538
v 17.943 -21.305 19.364
v 19.005 -21.192 19.272
v 18.681 -21.553 18.876
v 18.164 -21.505 18.947
v 17.909 -21.353 20.346
v 18.137 -21.111 19.773
v 18.674 -21.140 19.847
v 18.539 -21.116 19.283

# Normal Array
vn -0.308 -0.545 0.780
vn -0.110 -0.732 0.672
vn -0.252 -0.539 0.804
vn 0.074 -0.823 0.563
vn -0.026 -0.720 0.694
vn 0.315 -0.768 0.558
vn -0.415 -0.853 0.318
vn -0.642 -0.753 0.142
vn -0.207 -0.978 0.017
vn -0.211 -0.977 0.015
vn -0.013 -0.994 -0.110
vn -0.085 -0.984 -0.154
vn 0.514 -0.854 -0.081
vn 0.275 -0.888 -0.369
vn -0.532 -0.655 -0.536
vn -0.277 -0.732 -0.623
vn -0.240 -0.713 -0.659
vn -0.091 -0.800 -0.593
vn 0.037 -0.747 -0.664
vn 0.267 -0.822 -0.503
vn -0.473 -0.206 0.857
vn -0.502 -0.289 0.815
vn -0.183 -0.349 0.919
vn -0.283 -0.200 0.938
vn 0.074 -0.428 0.901
vn 0.001 -0.332 0.943
vn 0.758 -0.442 0.480
vn 0.417 -0.509 0.754
vn 0.319 -0.388 0.865
vn 0.751 -0.457 0.477
vn -0.871 -0.471 0.137
vn -0.754 -0.523 0.396
vn -0.811 -0.396 0.431
vn -0.787 -0.412 0.460
vn 0.721 -0.620 -0.309
vn 0.708 -0.697 -0.112
vn 0.904 -0.369 0.213
vn 0.807 -0.515 -0.288
vn -0.673 -0.504 -0.542
vn -0.526 -0.222 -0.821
vn -0.499 -0.530 -0.686
vn -0.579 -0.575 -0.578
vn -0.580 -0.591 -0.561
vn -0.226 -0.612 -0.757
vn -0.259 -0.577 -0.775
vn 0.060 -0.601 -0.797
vn -0.004 -0.547 -0.837
vn 0.462 -0.666 -0.586
vn 0.371 -0.538 -0.757
vn 0.298 -0.662 -0.688
vn 0.803 -0.540 -0.253
vn 0.665 -0.532 -0.524
vn -0.364 -0.159 -0.918
vn -0.191 -0.337 -0.922
vn -0.113 -0.313 -0.943
vn 0.011 -0.421 -0.907
vn 0.099 -0.371 -0.923
vn 0.177 -0.404 -0.897
vn 0.336 -0.266 -0.903
vn 0.673 -0.369 -0.641
vn -0.437 -0.008 0.899
vn -0.519 -0.130 0.845
vn -0.213 -0.071 0.975
vn -0.235 -0.029 0.972
vn 0.054 -0.197 0.979
vn -0.029 -0.075 0.997
vn 0.390 -0.177 0.904
vn 0.349 -0.135 0.927
vn 0.578 -0.156 0.801
vn 0.670 0.012 0.742
vn -0.839 -0.165 0.519
vn -0.885 -0.444 0.139
vn -0.565 -0.130 0.815
vn -0.570 -0.123 0.812
vn 0.944 -0.114 0.309
vn 0.968 -0.062 0.245
vn -0.666 0.004 -0.746
vn -0.624 -0.020 -0.782
vn -0.697 -0.053 -0.715
vn -0.650 0.129 -0.749
vn 0.985 -0.157 -0.077
vn 0.978 -0.053 -0.200
vn -0.464 0.158 -0.871
vn -0.334 0.010 -0.942
vn -0.072 -0.013 -0.997
vn -0.158 0.073 -0.985
vn 0.094 -0.063 -0.994
vn -0.005 0.017 -1.000
vn 0.293 0.153 -0.944
vn 0.336 0.133 -0.933
vn 0.839 -0.119 -0.531
vn 0.575 0.296 -0.762
vn -0.429 -0.037 0.903
vn -0.185 0.289 0.939
vn -0.173 0.288 0.942
vn -0.112 0.153 0.982
vn 0.128 0.142 0.982
vn 0.129 0.141 0.982
vn 0.441 0.386 0.810
vn 0.437 0.126 0.890
vn 0.363 0.074 0.929
vn 0.663 0.035 0.748
vn -0.933 0.140 0.333
vn -0.731 0.489 0.475
vn -0.544 0.401 0.737
vn -0.715 0.230 0.660
vn -0.708 0.229 0.668
vn -0.421 0.547 0.724
vn 0.684 0.461 0.565
vn 0.680 0.639 0.360
vn 0.915 0.229 0.331
vn 0.802 0.271 0.533
vn -0.727 0.189 -0.660
vn -0.626 0.577 -0.525
vn -0.730 0.517 -0.448
vn -0.770 0.534 -0.350
vn -0.505 0.689 -0.520
vn -0.512 0.716 -0.474
vn 0.787 0.608 0.101
vn 0.678 0.712 -0.182
vn 0.931 0.352 -0.100
vn 0.908 0.411 0.081
vn -0.417 0.335 -0.845
vn -0.160 0.621 -0.767
vn -0.177 0.421 -0.890
vn -0.104 0.360 -0.927
vn 0.086 0.425 -0.901
vn 0.077 0.434 -0.898
vn 0.639 0.495 -0.589
vn 0.329 0.534 -0.779
vn 0.259 0.441 -0.859
vn 0.625 0.516 -0.586
vn -0.069 0.441 0.895
vn 0.227 0.301 0.926
vn 0.157 0.423 0.892
vn 0.481 0.351 0.803
vn -0.747 0.477 0.463
vn -0.545 0.668 0.507
vn -0.420 0.632 0.651
vn -0.331 0.692 0.642
vn -0.117 0.616 0.779
vn 0.337 0.855 0.394
vn 0.343 0.817 0.463
vn 0.396 0.767 0.505
vn 0.544 0.759 0.357
vn 0.479 0.738 0.475
vn -0.765 0.569 -0.300
vn -0.005 0.844 -0.536
vn -0.505 0.752 -0.424
vn -0.593 0.788 -0.164
vn -0.515 0.823 -0.240
vn 0.011 0.860 -0.510
vn 0.479 0.832 -0.280
vn 0.271 0.954 -0.125
vn 0.553 0.810 -0.197
vn 0.471 0.882 0.007
vn 0.041 0.734 -0.677
vn 0.118 0.701 -0.703
vn 0.218 0.742 -0.634
vn 0.270 0.720 -0.639
vn -0.330 0.623 0.709
vn 0.211 0.907 0.365
vn -0.611 0.769 -0.187
vn -0.038 0.903 -0.427
vn -0.317 -0.934 0.163
vn 0.324 -0.880 0.348
vn 0.328 -0.880 0.345
vn 0.558 -0.767 0.317
vn -0.455 -0.884 -0.104
vn -0.507 -0.140 -0.851
vn -0.207 -0.944 -0.257
vn 0.136 -0.988 -0.079
vn 0.601 -0.798 0.052
vn 0.328 -0.917 -0.225
vn -0.381 -0.122 -0.916
vn 0.126 -0.586 -0.800
vn -0.523 -0.304 0.796
vn 0.117 -0.593 0.797
vn -0.321 -0.315 0.893
vn 0.572 -0.375 0.730
vn -0.385 -0.701 0.601
vn -0.628 -0.683 0.372
vn -0.952 -0.258 0.168
vn 0.326 -0.842 0.430
vn 0.281 -0.874 0.397
vn 0.685 -0.680 0.262
vn 0.590 -0.726 0.353
vn 0.572 -0.652 0.497
vn 0.686 -0.625 0.372
vn 0.734 -0.608 0.301
vn -0.924 0.020 -0.382
vn -0.906 -0.027 -0.423
vn -0.697 0.163 -0.698
vn -0.639 0.405 -0.654
vn 0.772 -0.396 -0.497
vn 0.680 -0.668 -0.303
vn 0.777 -0.602 -0.186
vn 0.914 -0.386 -0.127
vn -0.500 0.431 -0.751
vn -0.357 0.247 -0.901
vn 0.498 -0.367 -0.785
vn 0.203 0.111 -0.973
vn -0.854 0.244 0.460
vn -0.729 0.512 0.454
vn -0.362 0.464 0.809
vn -0.228 0.285 0.931
vn 0.534 -0.079 0.842
vn 0.511 -0.116 0.852
vn -0.848 0.525 -0.071
vn -0.922 0.255 0.293
vn -0.695 0.716 0.058
vn -0.733 0.677 -0.068
vn 0.623 -0.174 0.763
vn 0.692 -0.446 0.567
vn 0.700 -0.446 0.558
vn 0.825 -0.123 0.552
vn -0.837 0.392 -0.382
vn -0.699 0.487 -0.523
vn -0.631 0.682 -0.370
vn -0.701 0.625 -0.342
vn 0.517 0.378 -0.768
vn 0.500 0.014 -0.866
vn 0.994 -0.094 -0.060
vn 0.910 0.274 -0.311
vn -0.562 0.591 -0.579
vn -0.501 0.429 -0.751
vn 0.200 0.101 -0.975
vn -0.087 0.398 -0.913
vn -0.232 0.712 0.663
vn 0.073 0.631 0.772
vn -0.526 0.838 0.143
vn -0.520 0.844 0.132
vn 0.638 0.384 0.667
vn 0.178 0.777 0.604
vn -0.004 0.922 0.387
vn 0.614 0.386 0.689
vn -0.324 0.905 -0.276
vn -0.568 0.814 -0.117
vn 0.096 0.695 -0.712
vn 0.161 0.987 0.003
vn 0.049 0.998 0.030
vn 0.475 0.858 0.196
vn -0.320 0.778 -0.541
vn -0.037 0.675 -0.737

# Facets
f 1//1 3//1 2//1
f 4//2 3//2 5//2
f 4//3 2//3 3//3
f 6//4 5//4 7//4
f 6//5 4//5 5//5
f 8//6 6//6 7//6
f 1//7 9//7 3//7
f 1//8 10//8 9//8
f 11//9 5//9 3//9
f 9//10 11//10 3//10
f 12//11 7//11 5//11
f 11//12 12//12 5//12
f 7//13 13//13 8//13
f 7//14 12//14 13//14
f 14//15 9//15 10//15
f 14//16 11//16 9//16
f 14//17 15//17 11//17
f 15//18 12//18 11//18
f 15//19 16//19 12//19
f 16//20 13//20 12//20
f 17//21 2//21 18//21
f 17//22 1//22 2//22
f 2//23 4//23 19//23
f 18//24 2//24 19//24
f 4//25 6//25 20//25
f 19//26 4//26 20//26
f 21//27 8//27 22//27
f 6//28 8//28 21//28
f 20//29 6//29 21//29
f 23//30 21//30 22//30
f 24//31 26//31 25//31
f 25//32 26//32 17//32
f 17//33 26//33 10//33
f 17//34 10//34 1//34
f 27//35 22//35 13//35
f 22//36 8//36 13//36
f 22//37 28//37 23//37
f 22//38 27//38 28//38
f 29//39 26//39 24//39
f 30//40 31//40 29//40
f 31//41 14//41 29//41
f 29//42 14//42 26//42
f 26//43 14//43 10//43
f 15//44 14//44 32//44
f 14//45 31//45 32//45
f 16//46 15//46 33//46
f 15//47 32//47 33//47
f 13//48 16//48 27//48
f 27//49 16//49 33//49
f 27//50 33//50 34//50
f 27//51 35//51 28//51
f 27//52 34//52 35//52
f 36//53 31//53 30//53
f 36//54 32//54 31//54
f 36//55 37//55 32//55
f 37//56 33//56 32//56
f 37//57 38//57 33//57
f 38//58 34//58 33//58
f 38//59 39//59 34//59
f 39//60 35//60 34//60
f 40//61 18//61 41//61
f 40//62 17//62 18//62
f 18//63 19//63 42//63
f 41//64 18//64 42//64
f 19//65 20//65 43//65
f 42//66 19//66 43//66
f 20//67 21//67 44//67
f 43//68 20//68 44//68
f 23//69 44//69 21//69
f 23//70 45//70 44//70
f 46//71 25//71 47//71
f 46//72 24//72 25//72
f 17//73 40//73 25//73
f 40//74 47//74 25//74
f 45//75 23//75 28//75
f 48//76 45//76 28//76
f 49//77 24//77 46//77
f 49//78 29//78 24//78
f 29//79 49//79 30//79
f 49//80 50//80 30//80
f 48//81 28//81 35//81
f 51//82 48//82 35//82
f 52//83 30//83 50//83
f 52//84 36//84 30//84
f 53//85 37//85 36//85
f 53//86 36//86 52//86
f 54//87 38//87 37//87
f 54//88 37//88 53//88
f 55//89 39//89 38//89
f 55//90 38//90 54//90
f 39//91 51//91 35//91
f 39//92 55//92 51//92
f 40//93 41//93 56//93
f 41//94 57//94 56//94
f 58//95 57//95 41//95
f 42//96 58//96 41//96
f 42//97 43//97 59//97
f 58//98 42//98 59//98
f 59//99 61//99 60//99
f 44//100 61//100 59//100
f 43//101 44//101 59//101
f 61//102 44//102 45//102
f 46//103 47//103 62//103
f 62//104 47//104 63//104
f 47//105 40//105 63//105
f 63//106 40//106 64//106
f 64//107 40//107 56//107
f 56//108 57//108 64//108
f 61//109 65//109 60//109
f 65//110 66//110 60//110
f 65//111 45//111 48//111
f 65//112 61//112 45//112
f 49//113 46//113 62//113
f 67//114 50//114 68//114
f 50//115 49//115 68//115
f 68//116 49//116 63//116
f 63//117 49//117 62//117
f 67//118 68//118 69//118
f 65//119 70//119 66//119
f 70//120 71//120 66//120
f 70//121 48//121 51//121
f 70//122 65//122 48//122
f 52//123 50//123 67//123
f 72//124 67//124 69//124
f 52//125 67//125 72//125
f 53//126 52//126 72//126
f 73//127 54//127 53//127
f 73//128 53//128 72//128
f 55//129 71//129 70//129
f 73//130 71//130 55//130
f 54//131 73//131 55//131
f 70//132 51//132 55//132
f 57//133 58//133 74//133
f 75//134 58//134 59//134
f 75//135 74//135 58//135
f 75//136 59//136 60//136
f 63//137 64//137 76//137
f 76//138 64//138 77//138
f 64//139 57//139 77//139
f 77//140 57//140 78//140
f 78//141 57//141 74//141
f 79//142 78//142 80//142
f 80//143 78//143 74//143
f 80//144 74//144 75//144
f 80//145 60//145 66//145
f 80//146 75//146 60//146
f 68//147 63//147 76//147
f 81//148 69//148 82//148
f 69//149 68//149 82//149
f 82//150 68//150 77//150
f 77//151 68//151 76//151
f 82//152 79//152 81//152
f 81//153 79//153 80//153
f 81//154 80//154 83//154
f 83//155 66//155 71//155
f 83//156 80//156 66//156
f 72//157 69//157 81//157
f 81//158 73//158 72//158
f 81//159 83//159 73//159
f 83//160 71//160 73//160
f 77//161 78//161 84//161
f 84//162 78//162 79//162
f 82//163 77//163 84//163
f 84//164 79//164 82//164
f 85//165 87//165 86//165
f 88//166 87//166 89//166
f 88//167 86//167 87//167
f 90//168 88//168 89//168
f 91//169 87//169 85//169
f 92//170 91//170 93//170
f 87//171 91//171 92//171
f 89//172 87//172 92//172
f 89//173 94//173 90//173
f 89//174 92//174 94//174
f 95//175 92//175 93//175
f 95//176 94//176 92//176
f 96//177 98//177 97//177
f 99//178 98//178 100//178
f 99//179 97//179 98//179
f 101//180 99//180 100//180
f 96//181 86//181 98//181
f 85//182 86//182 96//182
f 102//183 85//183 96//183
f 86//184 88//184 98//184
f 88//185 100//185 98//185
f 103//186 90//186 104//186
f 103//187 88//187 90//187
f 101//188 88//188 103//188
f 100//189 88//189 101//189
f 105//190 103//190 104//190
f 106//191 85//191 102//191
f 106//192 91//192 85//192
f 91//193 106//193 93//193
f 106//194 107//194 93//194
f 108//195 104//195 109//195
f 109//196 104//196 90//196
f 109//197 90//197 94//197
f 108//198 105//198 104//198
f 110//199 93//199 107//199
f 110//200 95//200 93//200
f 95//201 109//201 94//201
f 95//202 110//202 109//202
f 96//203 97//203 111//203
f 97//204 112//204 111//204
f 113//205 112//205 97//205
f 99//206 113//206 97//206
f 101//207 113//207 99//207
f 101//208 114//208 113//208
f 102//209 111//209 115//209
f 102//210 96//210 111//210
f 112//211 116//211 111//211
f 116//212 115//212 111//212
f 114//213 101//213 117//213
f 101//214 103//214 117//214
f 105//215 117//215 103//215
f 105//216 118//216 117//216
f 106//217 102//217 115//217
f 106//218 115//218 107//218
f 107//219 115//219 116//219
f 107//220 116//220 119//220
f 120//221 108//221 121//221
f 108//222 109//222 121//222
f 108//223 118//223 105//223
f 108//224 120//224 118//224
f 122//225 107//225 119//225
f 122//226 110//226 107//226
f 110//227 121//227 109//227
f 110//228 122//228 121//228
f 112//229 113//229 123//229
f 123//230 113//230 114//230
f 116//231 123//231 124//231
f 116//232 112//232 123//232
f 125//233 114//233 117//233
f 123//234 114//234 125//234
f 124//235 123//235 125//235
f 125//236 117//236 118//236
f 119//237 124//237 126//237
f 119//238 116//238 124//238
f 126//239 120//239 121//239
f 125//240 120//240 126//240
f 124//241 125//241 126//241
f 125//242 118//242 120//242
f 122//243 119//243 126//243
f 126//244 121//244 122//244

# Thankyou for using Spin3D

