# Created using Spin3D

# Vertex Array
v -21.438 -47.035 24.446
v -21.437 -47.035 24.447
v -21.437 -47.036 24.445
v -21.436 -47.035 24.446
v -21.437 -47.035 24.444
v 20.651 -46.686 18.722
v 20.653 -46.686 18.724
v 20.653 -46.687 18.722
v 20.654 -46.686 18.722
v 8.660 -46.018 15.700
v 8.661 -46.018 15.702
v 8.661 -46.019 15.700
v 8.662 -46.018 15.700
v 20.653 -46.685 18.721
v 8.661 -46.018 15.699
v -21.437 -47.034 24.446
v 20.653 -46.684 18.723
v 8.661 -46.016 15.701
v 6.560 -25.069 26.250
v 6.559 -25.069 26.247
v 6.688 -24.755 26.233
v 6.588 -24.990 26.246
v 6.714 -24.687 26.231
v 6.911 -24.188 26.206
v 6.823 -24.398 26.217
v 7.047 -23.831 26.189
v 6.858 -24.314 26.211
v 7.467 -22.773 26.131
v 7.100 -23.710 26.181
v 7.308 -23.164 26.151
v 7.247 -23.315 26.161
v 7.633 -22.330 26.107
v 7.343 -23.084 26.149
v 7.552 -22.542 26.120
v 44.266 -16.166 -20.660
v 44.262 -16.165 -20.664
v 44.266 -16.165 -20.663
v 44.263 -16.166 -20.664
v 44.271 -16.167 -20.655
v 44.268 -16.167 -20.659
v 44.269 -16.166 -20.658
v 44.269 -16.165 -20.660
v 44.267 -16.165 -20.664
v 44.271 -16.166 -20.656
v 44.271 -16.166 -20.659
v 7.588 -22.466 26.116
v 7.996 -21.428 26.058
v 7.927 -21.596 26.066
v 8.022 -21.351 26.052
v 7.940 -21.566 26.065
v 44.265 -16.166 -20.662
v 44.270 -16.167 -20.659
v 44.268 -16.167 -20.661
v 8.317 -20.607 26.008
v 8.311 -20.625 26.013
v 8.321 -20.600 26.009
v 8.315 -20.618 26.013
v 8.445 -20.286 25.992
v -38.607 -2.397 -13.986
v -38.609 -2.396 -13.988
v -38.609 -2.397 -13.986
v -38.611 -2.397 -13.986
v -38.610 -2.397 -13.984
v -38.607 -2.395 -13.986
v -38.610 -2.395 -13.988
v -38.611 -2.395 -13.985
v -38.609 -2.395 -13.984
v -38.609 -2.395 -13.986

# Normal Array
vn -0.630 -0.616 0.473
vn 0.569 -0.652 0.501
vn -0.560 -0.454 -0.693
vn 0.599 -0.494 -0.631
vn -0.582 -0.662 0.473
vn 0.582 -0.662 0.473
vn -0.611 -0.664 0.431
vn 0.564 -0.696 0.444
vn -0.582 -0.472 -0.662
vn 0.582 -0.472 -0.662
vn -0.604 -0.478 -0.638
vn 0.573 -0.509 -0.643
vn -0.583 0.523 0.622
vn 0.546 0.484 0.685
vn -0.550 0.687 -0.475
vn 0.609 0.652 -0.451
vn -0.583 0.472 0.661
vn 0.583 0.472 0.661
vn -0.561 0.489 0.668
vn 0.591 0.460 0.662
vn -0.583 0.661 -0.472
vn 0.583 0.661 -0.472
vn -0.546 0.683 -0.485
vn 0.594 0.652 -0.472
vn -0.889 0.375 0.262
vn 0.901 -0.335 -0.276
vn -0.893 0.346 -0.286
vn -0.931 0.365 -0.026
vn 0.038 -0.064 -0.997
vn 0.012 -0.054 -0.998
vn -0.194 0.026 -0.981
vn -0.042 -0.034 -0.999
vn -0.137 0.100 0.986
vn 0.793 -0.289 0.536
vn -0.405 0.207 0.891
vn 0.145 -0.008 0.989
vn -0.895 0.338 -0.291
vn 0.795 -0.290 0.533
vn 0.635 -0.209 0.744
vn -0.034 0.066 0.997
vn 0.714 -0.246 0.655
vn 0.671 -0.224 0.706
vn -0.173 0.017 -0.985
vn -0.278 0.059 -0.959
vn 0.341 -0.181 -0.922
vn -0.052 -0.033 -0.998
vn 0.049 -0.072 -0.996
vn 0.621 -0.284 -0.730
vn 0.012 0.986 0.166
vn 0.228 0.342 -0.912
vn -0.679 0.326 0.658
vn -0.650 0.100 0.753
vn -0.048 0.986 0.161
vn -0.489 0.782 0.387
vn -0.196 0.956 -0.216
vn 0.031 0.994 -0.108
vn -0.476 0.592 0.650
vn -0.195 0.914 0.355
vn 0.478 0.877 -0.055
vn 0.542 0.749 -0.380
vn -0.775 0.333 0.537
vn -0.871 0.361 0.334
vn -0.498 0.241 0.833
vn -0.223 0.141 0.965
vn 0.377 -0.099 0.921
vn 0.069 0.029 0.997
vn -0.337 0.083 -0.938
vn 0.428 -0.217 -0.877
vn 0.436 -0.220 -0.873
vn -0.245 0.043 -0.969
vn 0.365 -0.196 -0.910
vn 0.290 -0.169 -0.942
vn -0.624 -0.488 0.611
vn -0.590 -0.692 0.415
vn -0.006 -0.988 -0.154
vn -0.740 -0.279 0.612
vn -0.005 -0.993 -0.120
vn -0.280 -0.892 0.354
vn 0.206 -0.772 -0.602
vn -0.229 -0.970 0.083
vn 0.937 -0.236 -0.259
vn 0.339 -0.939 0.059
vn 0.245 -0.956 -0.165
vn 0.475 -0.616 -0.629
vn -0.899 0.369 0.235
vn -0.559 0.264 0.786
vn 0.338 -0.079 0.938
vn 0.779 -0.340 -0.526
vn -0.753 0.328 0.571
vn 0.425 -0.216 -0.879
vn 0.249 -0.154 -0.956
vn 0.899 -0.368 -0.237
vn -0.899 0.369 0.235
vn 0.768 -0.332 -0.547
vn -0.760 0.333 0.558
vn 0.901 -0.367 -0.232
vn 0.251 -0.916 -0.313
vn -0.169 -0.902 -0.397
vn 0.153 -0.982 0.107
vn -0.265 -0.964 0.001
vn 0.519 0.401 -0.755
vn 0.806 -0.235 -0.544
vn -0.521 -0.102 -0.847
vn -0.789 0.373 -0.488
vn 0.799 0.155 0.580
vn 0.512 -0.391 0.765
vn -0.821 -0.346 0.454
vn -0.506 0.183 0.843
vn 0.173 0.981 -0.093
vn -0.240 0.971 -0.010
vn 0.264 0.907 0.329
vn -0.157 0.895 0.418

# Facets
f 1//1 3//1 2//1
f 4//2 2//2 3//2
f 5//3 3//3 1//3
f 5//4 4//4 3//4
f 6//5 8//5 7//5
f 9//6 7//6 8//6
f 10//7 12//7 11//7
f 13//8 11//8 12//8
f 14//9 8//9 6//9
f 14//10 9//10 8//10
f 15//11 12//11 10//11
f 15//12 13//12 12//12
f 1//13 2//13 16//13
f 16//14 2//14 4//14
f 5//15 1//15 16//15
f 16//16 4//16 5//16
f 6//17 7//17 17//17
f 17//18 7//18 9//18
f 10//19 11//19 18//19
f 18//20 11//20 13//20
f 14//21 6//21 17//21
f 17//22 9//22 14//22
f 15//23 10//23 18//23
f 18//24 13//24 15//24
f 19//25 21//25 20//25
f 20//26 22//26 19//26
f 23//27 21//27 19//27
f 24//28 21//28 23//28
f 25//29 19//29 22//29
f 23//30 19//30 25//30
f 23//31 26//31 24//31
f 25//32 26//32 23//32
f 20//33 21//33 27//33
f 20//34 27//34 22//34
f 27//35 29//35 28//35
f 27//36 21//36 29//36
f 21//37 24//37 29//37
f 27//38 25//38 22//38
f 27//39 30//39 25//39
f 27//40 28//40 30//40
f 31//41 25//41 30//41
f 30//42 32//42 31//42
f 24//43 33//43 29//43
f 26//44 33//44 24//44
f 31//45 26//45 25//45
f 31//46 34//46 26//46
f 34//47 33//47 26//47
f 32//48 34//48 31//48
f 35//49 37//49 36//49
f 38//50 36//50 37//50
f 39//51 41//51 40//51
f 41//52 35//52 40//52
f 37//53 35//53 41//53
f 42//54 37//54 41//54
f 37//55 43//55 38//55
f 37//56 42//56 43//56
f 44//57 41//57 39//57
f 44//58 42//58 41//58
f 44//59 45//59 42//59
f 45//60 43//60 42//60
f 28//61 29//61 46//61
f 47//62 28//62 46//62
f 47//63 48//63 28//63
f 48//64 30//64 28//64
f 48//65 32//65 30//65
f 49//66 32//66 48//66
f 29//67 33//67 46//67
f 46//68 50//68 47//68
f 46//69 33//69 50//69
f 33//70 34//70 50//70
f 49//71 34//71 32//71
f 50//72 34//72 49//72
f 35//73 36//73 51//73
f 51//74 36//74 38//74
f 39//75 40//75 52//75
f 51//76 40//76 35//76
f 52//77 40//77 51//77
f 53//78 52//78 51//78
f 53//79 38//79 43//79
f 53//80 51//80 38//80
f 44//81 39//81 52//81
f 52//82 45//82 44//82
f 52//83 53//83 45//83
f 53//84 43//84 45//84
f 48//85 55//85 54//85
f 47//86 55//86 48//86
f 54//87 49//87 48//87
f 56//88 49//88 54//88
f 47//89 57//89 55//89
f 50//90 57//90 47//90
f 56//91 50//91 49//91
f 57//92 50//92 56//92
f 54//93 55//93 58//93
f 54//94 58//94 56//94
f 55//95 57//95 58//95
f 56//96 58//96 57//96
f 59//97 61//97 60//97
f 62//98 60//98 61//98
f 63//99 61//99 59//99
f 63//100 62//100 61//100
f 64//101 60//101 65//101
f 64//102 59//102 60//102
f 62//103 65//103 60//103
f 62//104 66//104 65//104
f 67//105 59//105 64//105
f 67//106 63//106 59//106
f 63//107 66//107 62//107
f 63//108 67//108 66//108
f 64//109 65//109 68//109
f 68//110 65//110 66//110
f 67//111 64//111 68//111
f 68//112 66//112 67//112

# Thankyou for using Spin3D

