# Created using Spin3D

# Vertex Array
v -4.907 -47.255 24.476
v -4.906 -47.255 24.474
v -4.906 -47.253 24.476
v -4.905 -47.254 24.474
v -4.905 -47.253 24.477
v -4.904 -47.255 24.476
v -4.906 -47.255 24.478
v -4.905 -47.256 24.478
v -4.906 -47.257 24.476
v -4.905 -47.257 24.475
v -10.596 -43.828 59.565
v -10.600 -43.828 59.561
v -10.596 -43.828 59.562
v -10.599 -43.829 59.561
v -10.591 -43.830 59.570
v -10.594 -43.829 59.566
v -10.593 -43.829 59.568
v -10.594 -43.828 59.565
v -10.596 -43.828 59.562
v -10.591 -43.829 59.569
v -10.591 -43.829 59.566
v -10.597 -43.829 59.563
v -10.592 -43.829 59.566
v -10.594 -43.830 59.564

# Normal Array
vn -0.948 0.221 -0.229
vn 0.318 0.873 -0.370
vn -0.235 0.654 -0.719
vn 0.952 0.282 -0.123
vn -0.949 0.242 0.201
vn -0.271 0.716 0.643
vn 0.267 0.371 0.890
vn 0.954 0.101 0.283
vn -0.955 -0.211 -0.209
vn 0.294 -0.376 -0.879
vn -0.277 -0.710 -0.648
vn 0.949 -0.135 -0.284
vn -0.956 -0.190 0.225
vn -0.314 -0.634 0.707
vn 0.242 -0.893 0.379
vn 0.951 -0.285 0.121
vn 0.012 0.986 0.166
vn 0.226 0.379 -0.897
vn -0.691 0.289 0.663
vn -0.667 0.058 0.743
vn -0.052 0.986 0.160
vn -0.505 0.771 0.388
vn -0.207 0.973 -0.103
vn -0.055 0.998 -0.027
vn -0.479 0.586 0.653
vn -0.195 0.914 0.355
vn 0.476 0.878 -0.054
vn 0.527 0.778 -0.340
vn -0.608 -0.536 0.585
vn -0.562 -0.731 0.387
vn -0.006 -0.988 -0.155
vn -0.733 -0.316 0.602
vn -0.005 -0.993 -0.120
vn -0.281 -0.891 0.356
vn 0.207 -0.771 -0.603
vn -0.230 -0.970 0.085
vn 0.937 -0.232 -0.259
vn 0.240 -0.969 0.059
vn 0.175 -0.980 -0.092
vn 0.457 -0.628 -0.629

# Facets
f 1//1 3//1 2//1
f 4//2 3//2 5//2
f 4//3 2//3 3//3
f 6//4 4//4 5//4
f 7//5 3//5 1//5
f 7//6 5//6 3//6
f 7//7 8//7 5//7
f 8//8 6//8 5//8
f 1//9 2//9 9//9
f 10//10 2//10 4//10
f 10//11 9//11 2//11
f 10//12 4//12 6//12
f 7//13 1//13 9//13
f 9//14 8//14 7//14
f 9//15 10//15 8//15
f 10//16 6//16 8//16
f 11//17 13//17 12//17
f 14//18 12//18 13//18
f 15//19 17//19 16//19
f 17//20 11//20 16//20
f 13//21 11//21 17//21
f 18//22 13//22 17//22
f 13//23 19//23 14//23
f 13//24 18//24 19//24
f 20//25 17//25 15//25
f 20//26 18//26 17//26
f 20//27 21//27 18//27
f 21//28 19//28 18//28
f 11//29 12//29 22//29
f 22//30 12//30 14//30
f 15//31 16//31 23//31
f 22//32 16//32 11//32
f 23//33 16//33 22//33
f 24//34 23//34 22//34
f 24//35 14//35 19//35
f 24//36 22//36 14//36
f 20//37 15//37 23//37
f 23//38 21//38 20//38
f 23//39 24//39 21//39
f 24//40 19//40 21//40

# Thankyou for using Spin3D

