# Created using Spin3D

# Vertex Array
v -12.618 -51.592 51.092
v -12.617 -51.593 51.093
v -12.617 -51.594 51.092
v -12.616 -51.593 51.092
v -12.617 -51.592 51.091
v -12.617 -51.591 51.092
v 6.282 8.383 55.029
v 6.283 8.383 55.030
v 6.283 8.382 55.028
v 6.285 8.383 55.029
v 6.283 8.383 55.028
v 6.283 8.384 55.029
v 5.941 22.688 67.782
v 6.756 23.285 68.696
v 7.044 22.336 67.492
v 7.786 22.711 68.532
v 8.118 22.495 67.830
v 8.431 23.037 68.438
v 4.741 23.589 66.176
v 5.141 23.140 67.341
v 5.769 22.517 66.318
v 6.854 22.246 65.882
v 7.865 22.525 66.473
v 8.617 23.218 67.366
v 5.328 23.164 64.692
v 4.676 24.405 64.886
v 6.235 22.533 64.796
v 7.316 22.885 64.505
v 8.407 23.586 65.601
v 5.366 24.007 63.604
v 6.246 23.288 63.325
v 6.040 24.330 62.575
v 7.932 24.076 63.768
v 7.159 23.561 62.926
v 6.692 23.913 62.261
v 4.736 24.536 67.591
v 5.875 24.937 68.782
v 5.538 23.534 68.251
v 7.166 24.521 69.225
v 7.946 23.652 68.990
v 8.625 24.136 68.307
v 4.302 24.877 66.262
v 8.824 24.613 66.821
v 4.459 25.858 65.526
v 8.585 25.047 65.043
v 5.360 25.488 63.893
v 6.342 25.183 62.570
v 7.841 25.483 63.577
v 7.312 24.413 62.460
v 6.693 24.566 62.043
v 4.887 26.017 68.199
v 5.763 26.879 68.533
v 6.960 25.918 69.087
v 7.989 25.069 68.986
v 8.463 25.690 67.912
v 4.364 26.227 67.120
v 4.747 27.056 67.934
v 8.579 26.117 66.297
v 4.850 26.546 65.094
v 4.772 27.191 66.341
v 5.630 27.033 65.093
v 8.402 26.226 64.898
v 7.041 25.205 62.493
v 6.728 26.219 63.719
v 7.753 26.683 64.538
v 6.932 27.102 68.546
v 7.739 26.370 68.631
v 4.549 27.305 67.356
v 5.262 27.822 67.573
v 6.321 27.907 67.918
v 6.521 28.137 67.059
v 7.587 27.237 67.334
v 6.927 27.465 65.656
v 5.762 27.989 66.554
v 8.053 26.988 65.694
v 5.912 28.328 67.398
v -3.772 45.109 73.187
v -3.772 45.109 73.185
v -3.772 45.111 73.187
v -3.770 45.110 73.185
v -3.770 45.111 73.188
v -3.770 45.109 73.187
v -3.772 45.109 73.189
v -3.770 45.108 73.189
v -3.772 45.107 73.187
v -3.770 45.107 73.186

# Normal Array
vn -0.613 -0.649 0.449
vn 0.549 -0.687 0.476
vn -0.560 -0.505 -0.657
vn 0.568 -0.501 -0.652
vn -0.556 0.483 0.676
vn 0.544 0.487 0.683
vn -0.529 0.673 -0.517
vn 0.597 0.636 -0.489
vn -0.576 -0.651 0.495
vn 0.555 -0.666 0.498
vn -0.591 -0.469 -0.656
vn 0.580 -0.491 -0.650
vn -0.557 0.467 0.687
vn 0.570 0.450 0.687
vn -0.566 0.678 -0.470
vn 0.591 0.663 -0.459
vn -0.095 -0.793 0.602
vn 0.042 -0.949 0.312
vn -0.348 -0.775 0.528
vn 0.454 -0.768 0.451
vn -0.721 -0.693 -0.020
vn -0.551 -0.819 0.161
vn -0.267 -0.953 0.143
vn -0.211 -0.974 0.079
vn 0.162 -0.985 -0.052
vn 0.253 -0.967 0.024
vn 0.837 -0.544 0.054
vn 0.763 -0.627 -0.156
vn -0.714 -0.695 -0.083
vn -0.877 -0.425 -0.225
vn -0.277 -0.956 -0.095
vn -0.548 -0.817 -0.177
vn 0.400 -0.875 -0.272
vn 0.201 -0.913 -0.356
vn 0.787 -0.578 -0.214
vn 0.716 -0.624 -0.314
vn -0.854 -0.396 -0.337
vn -0.620 -0.535 -0.574
vn -0.641 -0.596 -0.484
vn -0.492 -0.773 -0.401
vn 0.743 -0.585 -0.325
vn 0.098 -0.911 -0.400
vn 0.165 -0.878 -0.449
vn 0.728 -0.591 -0.347
vn -0.620 -0.535 -0.574
vn 0.046 -0.870 -0.491
vn -0.702 -0.099 0.705
vn -0.382 -0.580 0.720
vn -0.377 -0.247 0.892
vn -0.386 -0.252 0.888
vn -0.092 -0.422 0.902
vn -0.119 -0.357 0.926
vn 0.350 -0.457 0.818
vn 0.725 -0.046 0.688
vn -0.808 -0.323 0.493
vn -0.931 -0.306 0.201
vn -0.920 -0.328 0.216
vn -0.619 -0.584 0.524
vn 0.977 -0.156 0.143
vn 0.989 -0.109 0.097
vn -0.939 -0.310 -0.149
vn -0.967 -0.034 -0.251
vn 0.966 -0.205 -0.158
vn 0.967 -0.185 -0.175
vn -0.863 0.089 -0.497
vn -0.865 0.093 -0.494
vn -0.846 0.099 -0.524
vn -0.745 0.260 -0.614
vn 0.904 0.000 -0.428
vn 0.784 -0.401 -0.475
vn 0.926 -0.228 -0.301
vn 0.891 -0.004 -0.453
vn -0.664 0.231 -0.712
vn -0.551 -0.263 -0.792
vn 0.588 -0.467 -0.660
vn 0.489 -0.277 -0.827
vn -0.665 -0.225 0.712
vn -0.431 0.090 0.898
vn -0.351 0.099 0.931
vn -0.310 0.048 0.949
vn 0.283 -0.006 0.959
vn 0.199 0.126 0.972
vn 0.716 -0.020 0.698
vn 0.842 0.214 0.495
vn -0.901 -0.010 0.435
vn -0.903 -0.081 0.422
vn -0.952 -0.132 0.277
vn -0.482 0.156 0.862
vn 0.973 0.146 0.177
vn 0.972 0.201 0.123
vn -0.901 0.360 -0.243
vn -0.946 0.299 -0.126
vn -0.992 0.097 -0.081
vn -0.479 0.767 -0.427
vn 0.987 0.125 -0.102
vn 0.984 0.139 -0.114
vn -0.847 0.165 -0.505
vn -0.096 0.755 -0.649
vn -0.456 0.732 -0.507
vn -0.409 0.603 -0.684
vn -0.381 0.608 -0.697
vn 0.738 0.277 -0.615
vn 0.429 0.747 -0.508
vn 0.309 0.609 -0.731
vn 0.899 0.086 -0.430
vn 0.661 0.498 -0.561
vn -0.107 0.610 -0.785
vn 0.583 0.231 -0.779
vn -0.089 0.412 0.907
vn 0.341 0.308 0.888
vn 0.276 0.404 0.872
vn 0.798 0.296 0.524
vn -0.931 0.083 0.355
vn -0.606 0.633 0.481
vn -0.338 0.577 0.743
vn -0.290 0.603 0.743
vn -0.115 0.555 0.824
vn 0.557 0.761 0.334
vn 0.565 0.730 0.386
vn 0.593 0.700 0.398
vn 0.818 0.539 0.201
vn 0.789 0.550 0.275
vn -0.949 0.214 -0.232
vn -0.043 0.838 -0.544
vn -0.504 0.743 -0.441
vn -0.597 0.785 -0.164
vn -0.531 0.821 -0.209
vn 0.094 0.908 -0.408
vn 0.661 0.733 -0.160
vn 0.391 0.920 -0.028
vn 0.875 0.478 -0.073
vn 0.802 0.581 0.140
vn -0.048 0.842 -0.537
vn 0.057 0.837 -0.544
vn 0.378 0.866 -0.327
vn 0.660 0.666 -0.347
vn -0.287 0.621 0.729
vn 0.443 0.834 0.327
vn -0.634 0.750 -0.188
vn 0.075 0.921 -0.383
vn -0.949 0.216 -0.229
vn 0.280 0.871 -0.402
vn -0.235 0.653 -0.720
vn 0.953 0.274 -0.127
vn -0.951 0.238 0.197
vn -0.313 0.707 0.634
vn 0.259 0.361 0.896
vn 0.954 0.101 0.284
vn -0.955 -0.211 -0.209
vn 0.294 -0.376 -0.879
vn -0.275 -0.710 -0.648
vn 0.949 -0.135 -0.284
vn -0.957 -0.190 0.220
vn -0.314 -0.635 0.706
vn 0.243 -0.894 0.377
vn 0.951 -0.285 0.120

# Facets
f 1//1 3//1 2//1
f 4//2 2//2 3//2
f 5//3 3//3 1//3
f 5//4 4//4 3//4
f 1//5 2//5 6//5
f 6//6 2//6 4//6
f 5//7 1//7 6//7
f 6//8 4//8 5//8
f 7//9 9//9 8//9
f 10//10 8//10 9//10
f 11//11 9//11 7//11
f 11//12 10//12 9//12
f 7//13 8//13 12//13
f 12//14 8//14 10//14
f 11//15 7//15 12//15
f 12//16 10//16 11//16
f 13//17 15//17 14//17
f 16//18 15//18 17//18
f 16//19 14//19 15//19
f 18//20 16//20 17//20
f 19//21 21//21 20//21
f 21//22 13//22 20//22
f 15//23 13//23 21//23
f 22//24 15//24 21//24
f 23//25 17//25 15//25
f 22//26 23//26 15//26
f 17//27 24//27 18//27
f 17//28 23//28 24//28
f 19//29 25//29 21//29
f 19//30 26//30 25//30
f 27//31 22//31 21//31
f 25//32 27//32 21//32
f 28//33 23//33 22//33
f 27//34 28//34 22//34
f 23//35 29//35 24//35
f 23//36 28//36 29//36
f 30//37 25//37 26//37
f 31//38 30//38 32//38
f 25//39 30//39 31//39
f 27//40 25//40 31//40
f 28//41 34//41 33//41
f 31//42 34//42 28//42
f 27//43 31//43 28//43
f 33//44 29//44 28//44
f 35//45 31//45 32//45
f 35//46 34//46 31//46
f 36//47 38//47 37//47
f 14//48 38//48 13//48
f 37//49 38//49 14//49
f 39//50 37//50 14//50
f 14//51 16//51 40//51
f 39//52 14//52 40//52
f 18//53 40//53 16//53
f 18//54 41//54 40//54
f 36//55 20//55 38//55
f 19//56 20//56 36//56
f 42//57 19//57 36//57
f 20//58 13//58 38//58
f 41//59 18//59 24//59
f 43//60 41//60 24//60
f 26//61 19//61 42//61
f 26//62 42//62 44//62
f 43//63 24//63 29//63
f 45//64 43//64 29//64
f 46//65 26//65 44//65
f 46//66 30//66 26//66
f 30//67 46//67 32//67
f 46//68 47//68 32//68
f 48//69 33//69 49//69
f 33//70 34//70 49//70
f 33//71 45//71 29//71
f 33//72 48//72 45//72
f 50//73 32//73 47//73
f 50//74 35//74 32//74
f 35//75 49//75 34//75
f 35//76 50//76 49//76
f 36//77 37//77 51//77
f 37//78 52//78 51//78
f 53//79 52//79 37//79
f 39//80 53//80 37//80
f 39//81 40//81 54//81
f 53//82 39//82 54//82
f 41//83 54//83 40//83
f 41//84 55//84 54//84
f 56//85 51//85 57//85
f 36//86 51//86 56//86
f 42//87 36//87 56//87
f 51//88 52//88 57//88
f 55//89 41//89 43//89
f 58//90 55//90 43//90
f 44//91 60//91 59//91
f 56//92 60//92 44//92
f 42//93 56//93 44//93
f 59//94 60//94 61//94
f 58//95 43//95 45//95
f 62//96 58//96 45//96
f 46//97 44//97 59//97
f 63//98 47//98 64//98
f 47//99 46//99 64//99
f 64//100 46//100 61//100
f 61//101 46//101 59//101
f 49//102 63//102 48//102
f 48//103 63//103 64//103
f 48//104 64//104 65//104
f 48//105 62//105 45//105
f 48//106 65//106 62//106
f 50//107 47//107 63//107
f 63//108 49//108 50//108
f 52//109 53//109 66//109
f 67//110 53//110 54//110
f 67//111 66//111 53//111
f 67//112 54//112 55//112
f 56//113 57//113 68//113
f 68//114 57//114 69//114
f 57//115 52//115 69//115
f 69//116 52//116 70//116
f 70//117 52//117 66//117
f 71//118 70//118 72//118
f 72//119 70//119 66//119
f 72//120 66//120 67//120
f 72//121 55//121 58//121
f 72//122 67//122 55//122
f 60//123 56//123 68//123
f 73//124 61//124 74//124
f 61//125 60//125 74//125
f 74//126 60//126 69//126
f 69//127 60//127 68//127
f 74//128 71//128 73//128
f 73//129 71//129 72//129
f 73//130 72//130 75//130
f 75//131 58//131 62//131
f 75//132 72//132 58//132
f 64//133 61//133 73//133
f 73//134 65//134 64//134
f 73//135 75//135 65//135
f 75//136 62//136 65//136
f 69//137 70//137 76//137
f 76//138 70//138 71//138
f 74//139 69//139 76//139
f 76//140 71//140 74//140
f 77//141 79//141 78//141
f 80//142 79//142 81//142
f 80//143 78//143 79//143
f 82//144 80//144 81//144
f 83//145 79//145 77//145
f 83//146 81//146 79//146
f 83//147 84//147 81//147
f 84//148 82//148 81//148
f 77//149 78//149 85//149
f 86//150 78//150 80//150
f 86//151 85//151 78//151
f 86//152 80//152 82//152
f 83//153 77//153 85//153
f 85//154 84//154 83//154
f 85//155 86//155 84//155
f 86//156 82//156 84//156

# Thankyou for using Spin3D

