# Created using Spin3D

# Vertex Array
v 20.760 -43.730 0.943
v 20.761 -43.730 0.944
v 20.761 -43.731 0.942
v 20.762 -43.730 0.943
v 20.761 -43.730 0.942
v 20.761 -43.729 0.943

# Normal Array
vn -0.560 -0.690 0.458
vn 0.557 -0.692 0.459
vn -0.558 -0.496 -0.665
vn 0.562 -0.495 -0.663
vn -0.577 0.465 0.671
vn 0.573 0.467 0.674
vn -0.578 0.657 -0.484
vn 0.581 0.655 -0.483

# Facets
f 1//1 3//1 2//1
f 4//2 2//2 3//2
f 5//3 3//3 1//3
f 5//4 4//4 3//4
f 1//5 2//5 6//5
f 6//6 2//6 4//6
f 5//7 1//7 6//7
f 6//8 4//8 5//8

# Thankyou for using Spin3D

