# Created using Spin3D

# Vertex Array
v 5.612 -42.024 28.519
v 5.614 -42.025 28.521
v 5.614 -42.026 28.519
v 5.615 -42.024 28.519
v 5.614 -42.024 28.518
v 5.614 -42.023 28.520
v 43.795 -16.010 -21.711
v 43.796 -16.011 -21.713
v 43.796 -16.008 -21.711
v 43.797 -16.010 -21.712
v 43.797 -16.009 -21.710
v 43.798 -16.010 -21.711
v 43.796 -16.010 -21.709
v 43.797 -16.011 -21.709
v 43.795 -16.013 -21.711
v 43.797 -16.012 -21.711
v 52.052 -0.361 -11.049
v 52.074 -0.165 -10.961
v 52.023 -0.302 -11.034
v 52.120 -0.209 -10.960
v 52.025 -0.390 -11.065
v 52.020 -0.219 -10.992
v 52.069 -0.347 -11.031
v 52.048 -0.294 -11.011
v 54.595 0.360 -29.587
v 54.593 0.359 -29.587
v 54.593 0.361 -29.587
v 54.591 0.359 -29.587
v 54.593 0.361 -29.589
v 54.595 0.359 -29.589
v 54.591 0.360 -29.589
v 54.593 0.360 -29.590
v 52.090 0.098 -10.845
v 52.037 -0.047 -10.921
v 52.192 -0.047 -10.865
v 52.156 0.035 -10.847
v 52.211 0.056 -10.816
v 52.048 0.087 -10.853
v 52.130 -0.101 -10.904
v 52.204 0.027 -10.828
v 52.061 -0.091 -10.919
v 54.593 0.357 -29.588
v 54.593 0.358 -29.589
v 52.121 0.282 -10.752
v 52.069 0.252 -10.782
v 52.167 0.153 -10.787
v 52.116 0.348 -10.721
v 52.079 0.328 -10.740
v 52.100 0.161 -10.801
v 52.093 0.396 -10.710
v 66.516 16.346 38.587
v 66.517 16.346 38.588
v 66.517 16.345 38.587
v 66.518 16.346 38.587
v 66.517 16.347 38.586
v 66.517 16.348 38.587
v 6.677 26.345 20.011
v 6.675 26.345 20.011
v 6.675 26.347 20.011
v 6.673 26.345 20.010
v 6.676 26.347 20.009
v 6.677 26.345 20.009
v 6.673 26.346 20.009
v 6.675 26.345 20.009
v 6.676 26.343 20.010
v 6.675 26.343 20.009

# Normal Array
vn -0.577 -0.645 0.500
vn 0.574 -0.651 0.496
vn -0.588 -0.462 -0.664
vn 0.591 -0.477 -0.650
vn -0.566 0.452 0.690
vn 0.572 0.438 0.694
vn -0.582 0.662 -0.473
vn 0.595 0.654 -0.467
vn -0.942 0.225 -0.248
vn 0.268 0.887 -0.376
vn -0.273 0.645 -0.713
vn 0.963 0.247 -0.105
vn -0.942 0.248 0.225
vn -0.314 0.704 0.637
vn 0.260 0.365 0.894
vn 0.964 0.100 0.245
vn -0.952 -0.202 -0.230
vn 0.312 -0.359 -0.880
vn -0.265 -0.708 -0.654
vn 0.960 -0.106 -0.261
vn -0.952 -0.178 0.249
vn -0.310 -0.630 0.713
vn 0.231 -0.896 0.379
vn 0.965 -0.241 0.102
vn 0.270 0.367 -0.890
vn 0.352 0.348 -0.869
vn 0.202 0.340 -0.918
vn -1.000 -0.026 -0.011
vn 0.662 0.134 -0.738
vn 0.781 -0.536 -0.320
vn -0.439 -0.367 0.821
vn -0.250 -0.436 0.864
vn 0.176 0.083 0.981
vn -0.243 0.000 0.970
vn 0.527 0.744 0.410
vn 0.815 0.546 -0.195
vn -0.807 0.497 0.321
vn -0.501 0.853 -0.148
vn 0.268 0.321 -0.908
vn -0.147 0.426 -0.892
vn 0.240 0.382 -0.893
vn 0.237 0.381 -0.894
vn 0.358 0.350 -0.866
vn 0.355 0.351 -0.867
vn 0.322 0.368 -0.872
vn 0.356 0.349 -0.867
vn -0.515 0.371 -0.773
vn -0.961 0.181 -0.207
vn -0.196 -0.411 0.890
vn -0.158 -0.448 0.880
vn 0.039 -0.468 0.883
vn 0.756 -0.394 0.523
vn -0.423 -0.343 0.838
vn -0.395 -0.357 0.847
vn -0.176 -0.418 0.891
vn -0.252 -0.384 0.888
vn 0.261 -0.333 0.906
vn -0.155 -0.418 0.895
vn 0.514 -0.765 -0.387
vn 0.791 -0.576 0.206
vn -0.808 -0.444 -0.388
vn -0.524 -0.844 0.117
vn 0.174 -0.084 -0.981
vn -0.254 0.002 -0.967
vn 0.270 0.396 -0.878
vn 0.208 0.394 -0.895
vn 0.543 0.396 -0.741
vn 0.427 0.376 -0.822
vn 0.332 0.378 -0.864
vn 0.329 0.401 -0.855
vn -0.349 -0.359 0.866
vn -0.989 0.146 -0.035
vn -0.777 0.333 -0.534
vn -0.278 -0.359 0.891
vn -0.230 -0.368 0.901
vn -0.231 -0.378 0.897
vn -0.267 -0.370 0.890
vn -0.184 -0.354 0.917
vn -0.362 -0.349 0.865
vn -0.252 -0.378 0.891
vn 0.271 0.394 -0.878
vn 0.486 0.407 -0.773
vn -0.713 0.404 -0.573
vn -0.290 -0.341 0.894
vn -0.582 -0.661 0.473
vn 0.580 -0.663 0.474
vn -0.584 -0.472 -0.661
vn 0.582 -0.473 -0.662
vn -0.583 0.472 0.661
vn 0.581 0.473 0.663
vn -0.584 0.660 -0.472
vn 0.582 0.662 -0.473
vn 0.166 0.132 0.977
vn -0.298 0.034 0.954
vn 0.517 0.764 0.385
vn 0.815 0.546 -0.193
vn -0.802 0.478 0.358
vn -0.484 0.860 -0.165
vn 0.264 0.289 -0.920
vn -0.152 0.393 -0.907
vn 0.268 -0.323 0.908
vn -0.207 -0.419 0.884
vn 0.515 -0.746 -0.423
vn 0.810 -0.553 0.195
vn -0.820 -0.442 -0.364
vn -0.544 -0.827 0.144
vn 0.179 -0.091 -0.980
vn -0.246 0.011 -0.969

# Facets
f 1//1 3//1 2//1
f 4//2 2//2 3//2
f 5//3 3//3 1//3
f 5//4 4//4 3//4
f 1//5 2//5 6//5
f 6//6 2//6 4//6
f 5//7 1//7 6//7
f 6//8 4//8 5//8
f 7//9 9//9 8//9
f 10//10 9//10 11//10
f 10//11 8//11 9//11
f 12//12 10//12 11//12
f 13//13 9//13 7//13
f 13//14 11//14 9//14
f 13//15 14//15 11//15
f 14//16 12//16 11//16
f 7//17 8//17 15//17
f 16//18 8//18 10//18
f 16//19 15//19 8//19
f 16//20 10//20 12//20
f 13//21 7//21 15//21
f 15//22 14//22 13//22
f 15//23 16//23 14//23
f 16//24 12//24 14//24
f 17//25 19//25 18//25
f 18//26 20//26 17//26
f 21//27 19//27 17//27
f 22//28 19//28 21//28
f 23//29 17//29 20//29
f 21//30 17//30 23//30
f 21//31 24//31 22//31
f 23//32 24//32 21//32
f 25//33 27//33 26//33
f 28//34 26//34 27//34
f 25//35 29//35 27//35
f 25//36 30//36 29//36
f 27//37 31//37 28//37
f 27//38 29//38 31//38
f 32//39 29//39 30//39
f 32//40 31//40 29//40
f 18//41 34//41 33//41
f 19//42 34//42 18//42
f 20//43 36//43 35//43
f 20//44 18//44 36//44
f 18//45 33//45 36//45
f 36//46 37//46 35//46
f 19//47 22//47 34//47
f 34//48 22//48 38//48
f 35//49 40//49 39//49
f 35//50 39//50 20//50
f 20//51 39//51 23//51
f 37//52 40//52 35//52
f 22//53 41//53 38//53
f 24//54 41//54 22//54
f 39//55 24//55 23//55
f 41//56 24//56 39//56
f 25//57 26//57 42//57
f 42//58 26//58 28//58
f 30//59 42//59 43//59
f 30//60 25//60 42//60
f 43//61 28//61 31//61
f 43//62 42//62 28//62
f 32//63 30//63 43//63
f 43//64 31//64 32//64
f 33//65 45//65 44//65
f 34//66 45//66 33//66
f 46//67 44//67 47//67
f 46//68 36//68 44//68
f 36//69 33//69 44//69
f 36//70 46//70 37//70
f 48//71 38//71 49//71
f 48//72 45//72 38//72
f 45//73 34//73 38//73
f 47//74 48//74 49//74
f 46//75 47//75 49//75
f 46//76 49//76 39//76
f 46//77 39//77 40//77
f 37//78 46//78 40//78
f 38//79 41//79 49//79
f 39//80 49//80 41//80
f 44//81 45//81 50//81
f 44//82 50//82 47//82
f 45//83 48//83 50//83
f 47//84 50//84 48//84
f 51//85 53//85 52//85
f 54//86 52//86 53//86
f 55//87 53//87 51//87
f 55//88 54//88 53//88
f 51//89 52//89 56//89
f 56//90 52//90 54//90
f 55//91 51//91 56//91
f 56//92 54//92 55//92
f 57//93 59//93 58//93
f 60//94 58//94 59//94
f 57//95 61//95 59//95
f 57//96 62//96 61//96
f 59//97 63//97 60//97
f 59//98 61//98 63//98
f 64//99 61//99 62//99
f 64//100 63//100 61//100
f 57//101 58//101 65//101
f 65//102 58//102 60//102
f 62//103 65//103 66//103
f 62//104 57//104 65//104
f 66//105 60//105 63//105
f 66//106 65//106 60//106
f 64//107 62//107 66//107
f 66//108 63//108 64//108

# Thankyou for using Spin3D

