# Created using Spin3D

# Vertex Array
v 40.805 -15.969 -21.720
v 40.805 -15.969 -21.722
v 40.805 -15.967 -21.720
v 40.807 -15.968 -21.722
v 40.807 -15.967 -21.719
v 40.807 -15.969 -21.720
v 40.805 -15.969 -21.718
v 40.807 -15.969 -21.718
v 40.805 -15.971 -21.720
v 40.807 -15.970 -21.721
v 46.354 -7.648 -27.781
v 46.890 -7.004 -27.284
v 46.975 -7.670 -27.587
v 47.560 -7.091 -27.077
v 46.538 -7.885 -28.120
v 46.331 -7.365 -28.374
v 48.313 -6.876 -27.536
v 47.416 -7.525 -28.263
v 48.803 -6.535 -28.530
v 46.857 -7.472 -28.671
v 48.027 -6.673 -29.138
v 46.389 -6.748 -27.859
v 47.259 -5.477 -27.354
v 48.146 -5.860 -26.872
v 48.224 -6.639 -26.941
v 49.240 -5.718 -27.047
v 46.427 -6.387 -28.546
v 50.564 -4.942 -28.059
v 49.975 -5.271 -29.540
v 52.051 -3.679 -29.361
v 47.139 -6.295 -29.184
v 48.230 -4.151 -29.802
v 48.789 -5.260 -29.987
v 50.184 -4.472 -30.453
v 51.249 -3.998 -30.237
v 49.803 -3.718 -30.549
v 51.036 -3.473 -30.636
v -4.843 -8.667 23.713
v -4.387 -8.495 24.307
v -3.863 -9.069 23.672
v -3.256 -8.830 24.304
v -2.207 -9.174 23.429
v -2.093 -8.930 24.159
v -4.341 -9.033 23.116
v -2.723 -9.113 22.419
v -4.041 -8.799 22.486
v -0.618 -8.801 23.318
v 0.146 -9.032 21.818
v 1.473 -8.604 22.060
v -2.785 -8.491 21.520
v -0.511 -8.742 20.729
v -1.133 -7.944 20.276
v 3.288 -8.572 20.799
v 2.809 -8.691 19.628
v 5.404 -8.373 19.492
v 6.048 -8.359 17.932
v 8.124 -7.748 19.052
v 8.146 -8.044 17.431
v 9.521 -7.410 18.147
v 1.392 -8.128 19.154
v 3.897 -8.216 18.051
v 5.789 -7.980 16.607
v 7.486 -8.121 16.293
v 7.212 -7.838 15.417
v 8.764 -7.724 16.458
v 8.129 -7.785 15.379
v 46.812 -5.292 -28.192
v 47.840 -3.667 -27.775
v 48.823 -3.669 -27.008
v 49.849 -4.278 -26.854
v 50.416 -4.606 -27.147
v 51.700 -3.093 -27.381
v 46.980 -5.263 -28.987
v 47.680 -3.708 -28.829
v 53.308 -2.551 -28.400
v 53.624 -2.269 -29.246
v 54.618 -1.498 -28.785
v 48.812 -2.257 -29.548
v 54.160 -1.230 -29.248
v 52.452 -2.584 -30.054
v 49.712 -2.376 -30.287
v 51.142 -2.355 -30.487
v -4.924 -8.061 24.077
v -4.319 -7.663 24.368
v -3.635 -8.142 24.561
v -2.327 -8.283 24.393
v -1.556 -8.708 24.184
v -0.931 -8.261 23.840
v -4.780 -8.615 23.053
v -4.943 -8.015 23.415
v 1.201 -7.742 22.434
v 3.348 -8.066 21.372
v 4.184 -7.340 20.884
v 9.784 -6.759 20.407
v 11.250 -6.307 20.866
v 10.574 -6.802 19.882
v 11.640 -6.242 20.720
v 11.536 -6.314 20.258
v 11.937 -5.993 20.762
v -4.134 -7.989 22.360
v -2.776 -7.652 21.223
v -1.515 -7.008 20.460
v 6.355 -7.564 20.232
v 10.801 -6.611 19.184
v 11.636 -6.029 20.185
v 0.357 -7.338 19.328
v 3.314 -7.222 17.857
v 5.975 -6.839 16.129
v 6.282 -7.402 15.615
v 10.684 -6.168 19.220
v 9.601 -6.940 17.316
v 7.125 -7.020 14.848
v 7.309 -6.743 15.062
v 7.770 -7.360 14.781
v 8.678 -7.313 15.471
v 7.801 -6.929 14.509
v 8.289 -7.007 14.775
v 48.895 -2.323 -27.462
v 49.837 -1.955 -27.172
v 50.671 -2.467 -27.036
v 52.287 -1.546 -27.467
v 48.858 -1.934 -28.424
v 49.796 -1.318 -27.722
v 53.673 -1.449 -27.889
v 54.887 -1.124 -28.334
v 55.175 -0.837 -28.660
v 55.331 -0.605 -28.403
v 49.593 -1.088 -29.271
v 53.614 -0.596 -29.053
v 52.561 -1.237 -29.825
v 54.760 -0.549 -28.613
v 49.828 -1.277 -29.903
v 50.977 -1.186 -30.044
v -4.660 -7.347 23.808
v -3.912 -6.904 23.969
v -2.963 -7.233 24.195
v -1.613 -6.534 23.358
v -1.125 -7.385 23.660
v -4.418 -7.286 22.988
v -3.762 -6.634 23.138
v 0.253 -6.594 22.336
v 1.266 -6.130 20.712
v 3.000 -6.707 20.748
v 11.018 -6.254 20.991
v 11.500 -6.010 21.145
v 11.849 -5.941 21.066
v 11.928 -5.757 20.815
v -3.153 -6.863 21.891
v -1.574 -6.291 20.967
v 4.201 -6.493 18.558
v 1.691 -6.286 19.441
v 6.702 -6.639 19.299
v 9.199 -6.458 20.218
v 10.839 -6.118 20.864
v 11.608 -5.763 20.300
v 0.221 -6.532 19.702
v 7.194 -6.578 16.591
v 9.746 -6.128 19.556
v 8.906 -6.465 17.858
v 11.106 -5.791 20.128
v 7.954 -6.740 15.016
v 8.582 -6.799 15.898
v 48.545 2.203 -12.579
v 48.543 2.204 -12.581
v 48.543 2.203 -12.579
v 48.541 2.203 -12.580
v 48.542 2.203 -12.577
v 51.237 -1.019 -27.643
v 50.528 -0.683 -28.557
v 51.855 -0.395 -28.337
v 53.263 -0.594 -28.223
v 54.767 -0.666 -28.215
v 50.546 -0.654 -29.494
v 52.010 -0.488 -29.135
v -2.750 -6.359 23.346
v -2.269 -6.116 22.135
v -1.009 -6.032 22.234
v 11.629 -5.785 21.011
v -0.375 -5.981 20.854
v 10.873 -5.874 20.518
v 11.630 -5.661 20.679
v 48.545 2.205 -12.579
v 48.542 2.205 -12.581
v 48.541 2.205 -12.578
v 48.543 2.205 -12.577
v 48.543 2.205 -12.579
v 6.770 18.121 -22.438
v 6.771 18.121 -22.437
v 6.771 18.120 -22.438
v 6.772 18.121 -22.438
v 6.771 18.121 -22.439
v 6.771 18.122 -22.438

# Normal Array
vn -0.962 0.183 -0.202
vn 0.245 0.893 -0.378
vn -0.315 0.637 -0.704
vn 0.947 0.295 -0.125
vn -0.962 0.202 0.183
vn -0.279 0.712 0.644
vn 0.296 0.372 0.880
vn 0.941 0.132 0.313
vn -0.962 -0.202 -0.183
vn 0.261 -0.364 -0.894
vn -0.315 -0.704 -0.637
vn 0.946 -0.122 -0.300
vn -0.962 -0.183 0.202
vn -0.236 -0.652 0.721
vn 0.281 -0.871 0.402
vn 0.941 -0.307 0.142
vn -0.284 -0.427 0.858
vn -0.316 -0.427 0.847
vn -0.186 -0.849 0.495
vn -0.883 -0.436 -0.172
vn 0.461 -0.801 0.381
vn 0.501 -0.853 0.143
vn 0.386 -0.921 0.054
vn 0.582 -0.813 0.008
vn -0.496 -0.532 -0.686
vn 0.267 -0.839 -0.474
vn 0.319 -0.781 -0.537
vn 0.470 -0.774 -0.425
vn -0.693 0.199 0.693
vn -0.732 0.086 0.676
vn -0.134 -0.101 0.986
vn -0.296 -0.018 0.955
vn -0.424 0.143 0.894
vn 0.167 -0.071 0.983
vn -0.997 0.043 0.061
vn -0.995 0.097 -0.005
vn 0.464 -0.797 0.387
vn 0.683 -0.722 -0.111
vn 0.659 -0.749 0.068
vn 0.656 -0.671 0.344
vn 0.646 -0.671 0.364
vn 0.611 -0.789 -0.068
vn -0.661 -0.067 -0.747
vn -0.514 -0.237 -0.825
vn -0.409 -0.054 -0.911
vn -0.146 -0.451 -0.881
vn -0.111 -0.375 -0.920
vn 0.470 -0.774 -0.425
vn 0.277 -0.600 -0.750
vn 0.224 -0.758 -0.612
vn 0.600 -0.751 -0.275
vn 0.431 -0.726 -0.536
vn -0.415 -0.058 -0.908
vn -0.195 -0.220 -0.956
vn -0.041 -0.146 -0.988
vn 0.369 -0.462 -0.806
vn -0.316 -0.819 0.480
vn -0.006 -0.933 0.359
vn -0.239 -0.810 0.536
vn -0.040 -0.945 0.323
vn -0.359 -0.899 0.250
vn -0.230 -0.872 -0.433
vn -0.057 -0.998 -0.017
vn -0.067 -0.997 -0.026
vn 0.238 -0.932 0.275
vn 0.238 -0.934 0.265
vn 0.014 -0.998 -0.068
vn 0.251 -0.929 0.271
vn -0.221 -0.809 -0.545
vn -0.314 -0.642 -0.699
vn -0.274 -0.800 -0.534
vn -0.024 -0.970 -0.244
vn 0.238 -0.917 0.319
vn 0.156 -0.987 0.036
vn -0.059 -0.973 -0.223
vn 0.124 -0.991 0.042
vn 0.124 -0.991 0.050
vn 0.188 -0.966 0.179
vn 0.237 -0.968 0.089
vn 0.337 -0.926 0.173
vn -0.347 -0.653 -0.674
vn -0.160 -0.839 -0.520
vn -0.213 -0.885 -0.414
vn -0.081 -0.937 -0.339
vn -0.079 -0.962 -0.260
vn -0.128 -0.955 -0.267
vn -0.126 -0.960 -0.250
vn 0.145 -0.989 -0.017
vn 0.429 -0.903 -0.024
vn 0.308 -0.944 -0.115
vn 0.042 -0.947 -0.318
vn 0.309 -0.942 -0.129
vn -0.795 0.345 0.500
vn -0.784 0.368 0.499
vn -0.574 0.356 0.737
vn -0.408 0.182 0.895
vn 0.323 -0.258 0.911
vn 0.181 -0.205 0.962
vn -0.095 0.091 0.991
vn 0.371 -0.175 0.912
vn -0.909 0.377 -0.179
vn -0.948 0.299 0.104
vn -0.852 0.511 0.110
vn -0.891 0.419 -0.174
vn 0.659 -0.664 0.353
vn 0.667 -0.745 0.002
vn 0.658 -0.752 0.022
vn 0.569 -0.567 0.595
vn 0.743 -0.579 0.335
vn 0.621 -0.783 -0.028
vn -0.669 0.038 -0.742
vn -0.585 0.064 -0.809
vn -0.719 0.383 -0.580
vn -0.760 0.310 -0.571
vn 0.595 -0.308 -0.743
vn 0.562 -0.580 -0.590
vn 0.708 -0.544 -0.450
vn 0.585 -0.303 -0.753
vn -0.586 0.282 -0.760
vn -0.456 0.140 -0.879
vn -0.097 0.140 -0.985
vn -0.139 0.181 -0.974
vn 0.539 -0.360 -0.762
vn 0.327 0.094 -0.940
vn -0.415 -0.033 0.909
vn -0.636 -0.459 0.621
vn -0.117 -0.403 0.908
vn -0.300 -0.046 0.953
vn 0.085 -0.312 0.946
vn 0.092 -0.310 0.946
vn 0.089 -0.305 0.948
vn 0.358 0.200 0.912
vn -0.675 -0.728 -0.121
vn -0.974 -0.199 -0.108
vn -0.989 -0.144 0.018
vn -0.554 -0.659 -0.508
vn 0.325 -0.836 0.442
vn 0.397 -0.256 0.881
vn 0.519 -0.197 0.832
vn 0.572 -0.374 0.730
vn 0.624 -0.325 0.711
vn 0.451 0.078 0.889
vn 0.177 -0.923 0.343
vn 0.440 -0.897 0.040
vn 0.260 -0.922 0.286
vn 0.644 -0.764 -0.026
vn -0.787 0.148 -0.599
vn -0.627 -0.190 -0.756
vn -0.569 -0.190 -0.800
vn -0.579 -0.266 -0.771
vn -0.517 -0.280 -0.809
vn -0.504 -0.035 -0.863
vn 0.414 -0.703 0.578
vn 0.302 0.267 0.915
vn 0.348 -0.720 0.600
vn 0.353 -0.823 0.446
vn 0.212 -0.895 0.393
vn 0.187 -0.888 0.419
vn 0.270 -0.803 0.531
vn 0.316 -0.939 0.137
vn 0.556 -0.830 -0.047
vn 0.477 -0.875 -0.085
vn 0.825 -0.395 -0.405
vn 0.805 -0.397 -0.441
vn -0.523 -0.045 -0.851
vn -0.402 -0.341 -0.850
vn -0.383 -0.388 -0.838
vn -0.407 -0.348 -0.845
vn -0.541 0.388 -0.747
vn -0.497 -0.620 -0.608
vn -0.508 -0.443 -0.739
vn -0.440 -0.664 -0.605
vn 0.792 0.255 -0.554
vn 0.672 -0.671 -0.314
vn 0.785 -0.569 -0.246
vn 0.675 0.236 -0.699
vn -0.709 0.224 -0.668
vn -0.469 0.713 -0.521
vn 0.023 -0.808 -0.589
vn -0.405 -0.524 -0.749
vn -0.383 -0.587 -0.713
vn 0.541 -0.497 -0.679
vn 0.645 -0.684 -0.341
vn 0.796 -0.532 -0.291
vn -0.390 0.710 -0.586
vn -0.339 -0.486 -0.806
vn 0.344 -0.520 -0.782
vn 0.461 -0.688 -0.560
vn -0.589 0.286 0.756
vn -0.388 0.313 0.867
vn -0.076 0.140 0.987
vn -0.071 0.131 0.989
vn 0.297 -0.039 0.954
vn 0.287 -0.056 0.956
vn -0.670 0.679 0.300
vn -0.789 0.559 0.256
vn -0.839 0.533 0.107
vn -0.436 0.571 0.695
vn 0.295 -0.059 0.954
vn 0.578 -0.493 0.650
vn 0.752 -0.652 0.093
vn 0.649 -0.729 0.218
vn 0.413 -0.492 0.766
vn 0.762 -0.637 0.114
vn -0.812 0.569 -0.130
vn -0.810 0.572 -0.131
vn 0.292 0.502 -0.814
vn 0.336 0.132 -0.933
vn 0.566 -0.335 -0.753
vn 0.268 0.520 -0.811
vn 0.292 0.502 -0.814
vn 0.328 0.593 -0.735
vn -0.700 0.570 -0.430
vn -0.574 0.324 -0.752
vn -0.135 0.334 -0.933
vn -0.141 0.340 -0.930
vn 0.332 0.132 -0.934
vn 0.139 0.368 -0.919
vn -0.613 0.467 0.637
vn -0.490 0.596 0.636
vn -0.041 0.482 0.875
vn 0.000 0.374 0.927
vn 0.283 0.460 0.841
vn 0.288 0.344 0.894
vn 0.151 0.271 0.950
vn 0.351 0.263 0.898
vn -0.848 0.484 -0.215
vn -0.930 0.363 0.051
vn -0.529 0.830 0.174
vn -0.680 0.718 -0.148
vn 0.426 0.509 0.748
vn 0.279 0.864 0.420
vn 0.462 0.446 0.767
vn 0.469 0.451 0.759
vn 0.481 0.278 0.831
vn 0.274 0.662 0.698
vn 0.093 -0.842 0.532
vn 0.173 -0.748 0.641
vn 0.281 -0.772 0.570
vn 0.321 -0.802 0.504
vn 0.589 -0.752 0.298
vn 0.959 -0.023 0.282
vn -0.778 0.214 -0.591
vn -0.592 0.691 -0.416
vn -0.680 0.317 -0.662
vn -0.656 0.280 -0.701
vn -0.605 0.325 -0.726
vn -0.567 0.444 -0.694
vn 0.301 0.919 0.255
vn 0.044 0.993 -0.107
vn 0.283 0.626 0.727
vn 0.266 0.651 0.711
vn 0.025 0.993 0.111
vn -0.282 0.731 0.621
vn -0.127 0.338 0.932
vn -0.348 -0.092 0.933
vn -0.478 0.173 0.861
vn -0.413 0.267 0.871
vn 0.874 0.140 -0.465
vn 0.807 0.305 -0.506
vn -0.458 0.487 -0.743
vn -0.451 0.313 -0.836
vn -0.152 0.775 -0.614
vn -0.237 0.710 -0.663
vn -0.432 0.319 -0.843
vn -0.377 0.838 -0.395
vn -0.121 0.967 -0.226
vn 0.049 0.998 0.031
vn -0.183 0.932 0.314
vn -0.155 0.981 -0.118
vn -0.073 0.997 0.009
vn 0.218 0.855 -0.471
vn -0.024 0.983 -0.184
vn -0.085 0.934 -0.348
vn 0.637 0.362 -0.680
vn 0.094 0.903 -0.419
vn -0.013 0.994 -0.108
vn -0.165 0.979 -0.118
vn 0.067 0.982 -0.178
vn 0.140 0.990 -0.034
vn 0.718 0.519 -0.464
vn 0.428 0.877 -0.220
vn -0.029 0.940 -0.341
vn 0.362 0.833 -0.419
vn 0.469 0.839 -0.278
vn 0.861 0.410 -0.301
vn 0.255 -0.914 -0.315
vn -0.189 -0.885 -0.426
vn 0.143 -0.985 0.098
vn -0.280 -0.960 0.011
vn 0.070 0.363 0.929
vn 0.033 0.376 0.926
vn -0.593 0.800 0.090
vn -0.173 0.637 0.751
vn -0.204 0.857 0.474
vn -0.262 0.822 0.506
vn 0.232 0.448 0.863
vn 0.127 0.534 0.836
vn 0.046 0.722 0.691
vn 0.374 -0.140 0.917
vn 0.013 0.369 0.929
vn 0.327 -0.156 0.932
vn -0.411 0.912 0.019
vn -0.559 0.777 0.291
vn -0.186 0.971 -0.150
vn -0.120 0.992 0.028
vn 0.084 0.708 -0.701
vn 0.066 0.997 0.026
vn 0.147 0.985 -0.086
vn -0.035 0.999 -0.017
vn 0.044 0.958 0.282
vn -0.009 0.959 0.283
vn -0.456 0.792 -0.405
vn -0.143 0.653 -0.743
vn 0.077 0.746 -0.661
vn 0.118 0.718 -0.686
vn 0.067 0.687 0.724
vn 0.097 0.681 0.726
vn -0.277 0.957 0.082
vn -0.301 0.922 0.245
vn 0.311 0.794 0.522
vn 0.130 0.877 0.462
vn -0.078 0.983 0.167
vn 0.334 0.831 0.445
vn 0.109 0.461 0.880
vn 0.344 0.702 0.623
vn -0.527 0.752 -0.395
vn -0.516 0.747 -0.419
vn -0.265 0.918 -0.296
vn -0.066 0.998 0.007
vn 0.082 0.992 -0.094
vn 0.097 0.992 0.082
vn -0.364 0.778 0.512
vn -0.389 0.625 0.677
vn -0.413 0.763 0.497
vn -0.320 0.888 0.330
vn 0.400 0.879 -0.260
vn 0.140 0.928 0.346
vn -0.259 0.812 -0.523
vn -0.230 0.826 -0.514
vn -0.352 0.921 0.169
vn -0.260 0.964 0.050
vn -0.278 0.960 0.038
vn 0.037 0.964 -0.262
vn 0.521 0.388 -0.760
vn 0.810 -0.220 -0.543
vn -0.510 -0.182 -0.841
vn -0.818 0.348 -0.459
vn 0.812 0.219 0.541
vn 0.484 -0.424 0.766
vn -0.811 -0.354 0.466
vn -0.514 0.132 0.848
vn 0.170 0.981 -0.089
vn -0.246 0.969 -0.008
vn 0.276 0.909 0.312
vn -0.158 0.891 0.425
vn -0.578 -0.646 0.498
vn 0.533 -0.670 0.517
vn -0.589 -0.464 -0.662
vn 0.562 -0.486 -0.669
vn -0.555 0.482 0.678
vn 0.584 0.452 0.674
vn -0.565 0.696 -0.444
vn 0.612 0.663 -0.431

# Facets
f 1//1 3//1 2//1
f 4//2 3//2 5//2
f 4//3 2//3 3//3
f 6//4 4//4 5//4
f 7//5 3//5 1//5
f 7//6 5//6 3//6
f 7//7 8//7 5//7
f 8//8 6//8 5//8
f 1//9 2//9 9//9
f 10//10 2//10 4//10
f 10//11 9//11 2//11
f 10//12 4//12 6//12
f 7//13 1//13 9//13
f 9//14 8//14 7//14
f 9//15 10//15 8//15
f 10//16 6//16 8//16
f 11//17 13//17 12//17
f 14//18 12//18 13//18
f 11//19 15//19 13//19
f 11//20 16//20 15//20
f 13//21 17//21 14//21
f 18//22 17//22 13//22
f 15//23 18//23 13//23
f 19//24 17//24 18//24
f 20//25 15//25 16//25
f 20//26 18//26 15//26
f 20//27 21//27 18//27
f 21//28 19//28 18//28
f 22//29 12//29 23//29
f 22//30 11//30 12//30
f 24//31 14//31 25//31
f 12//32 14//32 24//32
f 23//33 12//33 24//33
f 26//34 24//34 25//34
f 16//35 11//35 22//35
f 16//36 22//36 27//36
f 25//37 14//37 17//37
f 28//38 19//38 29//38
f 28//39 17//39 19//39
f 26//40 17//40 28//40
f 25//41 17//41 26//41
f 30//42 28//42 29//42
f 31//43 16//43 27//43
f 31//44 20//44 16//44
f 32//45 33//45 31//45
f 31//46 33//46 21//46
f 31//47 21//47 20//47
f 19//48 21//48 29//48
f 29//49 21//49 33//49
f 29//50 33//50 34//50
f 29//51 35//51 30//51
f 29//52 34//52 35//52
f 36//53 33//53 32//53
f 36//54 34//54 33//54
f 36//55 37//55 34//55
f 37//56 35//56 34//56
f 38//57 40//57 39//57
f 41//58 40//58 42//58
f 41//59 39//59 40//59
f 43//60 41//60 42//60
f 44//61 40//61 38//61
f 45//62 44//62 46//62
f 40//63 44//63 45//63
f 42//64 40//64 45//64
f 42//65 47//65 43//65
f 48//66 47//66 42//66
f 45//67 48//67 42//67
f 49//68 47//68 48//68
f 50//69 45//69 46//69
f 51//70 50//70 52//70
f 45//71 50//71 51//71
f 48//72 45//72 51//72
f 48//73 53//73 49//73
f 54//74 53//74 48//74
f 51//75 54//75 48//75
f 55//76 54//76 56//76
f 55//77 53//77 54//77
f 57//78 56//78 58//78
f 57//79 55//79 56//79
f 59//80 57//80 58//80
f 60//81 51//81 52//81
f 60//82 54//82 51//82
f 60//83 61//83 54//83
f 61//84 56//84 54//84
f 61//85 62//85 56//85
f 63//86 62//86 64//86
f 56//87 62//87 63//87
f 58//88 56//88 63//88
f 58//89 65//89 59//89
f 58//90 63//90 65//90
f 66//91 63//91 64//91
f 66//92 65//92 63//92
f 22//93 23//93 67//93
f 23//94 68//94 67//94
f 69//95 68//95 23//95
f 24//96 69//96 23//96
f 70//97 26//97 71//97
f 24//98 26//98 70//98
f 69//99 24//99 70//99
f 72//100 70//100 71//100
f 27//101 67//101 73//101
f 27//102 22//102 67//102
f 68//103 74//103 67//103
f 74//104 73//104 67//104
f 71//105 26//105 28//105
f 75//106 30//106 76//106
f 75//107 28//107 30//107
f 72//108 28//108 75//108
f 71//109 28//109 72//109
f 77//110 75//110 76//110
f 31//111 27//111 73//111
f 31//112 73//112 32//112
f 32//113 73//113 74//113
f 32//114 74//114 78//114
f 79//115 76//115 80//115
f 80//116 76//116 30//116
f 80//117 30//117 35//117
f 79//118 77//118 76//118
f 81//119 32//119 78//119
f 81//120 36//120 32//120
f 82//121 37//121 36//121
f 82//122 36//122 81//122
f 37//123 80//123 35//123
f 37//124 82//124 80//124
f 83//125 39//125 84//125
f 83//126 38//126 39//126
f 39//127 41//127 85//127
f 84//128 39//128 85//128
f 86//129 43//129 87//129
f 41//130 43//130 86//130
f 85//131 41//131 86//131
f 88//132 86//132 87//132
f 38//133 89//133 44//133
f 90//134 89//134 38//134
f 83//135 90//135 38//135
f 46//136 44//136 89//136
f 87//137 43//137 47//137
f 91//138 49//138 92//138
f 91//139 47//139 49//139
f 88//140 47//140 91//140
f 87//141 47//141 88//141
f 93//142 91//142 92//142
f 94//143 96//143 95//143
f 97//144 96//144 98//144
f 97//145 95//145 96//145
f 99//146 97//146 98//146
f 100//147 89//147 90//147
f 100//148 46//148 89//148
f 50//149 46//149 100//149
f 101//150 50//150 100//150
f 50//151 101//151 52//151
f 101//152 102//152 52//152
f 92//153 49//153 53//153
f 93//154 92//154 103//154
f 103//155 92//155 53//155
f 103//156 53//156 55//156
f 96//157 94//157 57//157
f 57//158 94//158 103//158
f 57//159 103//159 55//159
f 57//160 59//160 96//160
f 96//161 59//161 104//161
f 96//162 104//162 98//162
f 98//163 105//163 99//163
f 98//164 104//164 105//164
f 106//165 52//165 102//165
f 106//166 60//166 52//166
f 107//167 61//167 60//167
f 107//168 60//168 106//168
f 108//169 109//169 107//169
f 107//170 109//170 62//170
f 107//171 62//171 61//171
f 64//172 62//172 109//172
f 110//173 104//173 111//173
f 111//174 104//174 59//174
f 111//175 59//175 65//175
f 110//176 105//176 104//176
f 108//177 112//177 109//177
f 108//178 113//178 112//178
f 66//179 64//179 114//179
f 114//180 64//180 109//180
f 114//181 109//181 112//181
f 115//182 66//182 114//182
f 65//183 66//183 115//183
f 111//184 65//184 115//184
f 116//185 112//185 113//185
f 116//186 114//186 112//186
f 116//187 117//187 114//187
f 117//188 115//188 114//188
f 68//189 69//189 118//189
f 69//190 119//190 118//190
f 120//191 119//191 69//191
f 70//192 120//192 69//192
f 72//193 120//193 70//193
f 72//194 121//194 120//194
f 122//195 118//195 123//195
f 68//196 118//196 122//196
f 74//197 68//197 122//197
f 118//198 119//198 123//198
f 121//199 72//199 124//199
f 72//200 75//200 124//200
f 125//201 77//201 126//201
f 75//202 77//202 125//202
f 124//203 75//203 125//203
f 127//204 125//204 126//204
f 78//205 74//205 122//205
f 78//206 122//206 128//206
f 129//207 79//207 130//207
f 79//208 80//208 130//208
f 79//209 126//209 77//209
f 131//210 126//210 79//210
f 129//211 131//211 79//211
f 131//212 127//212 126//212
f 132//213 78//213 128//213
f 132//214 81//214 78//214
f 133//215 82//215 81//215
f 133//216 81//216 132//216
f 82//217 130//217 80//217
f 82//218 133//218 130//218
f 83//219 84//219 134//219
f 84//220 135//220 134//220
f 136//221 135//221 84//221
f 85//222 136//222 84//222
f 136//223 138//223 137//223
f 86//224 138//224 136//224
f 85//225 86//225 136//225
f 138//226 86//226 88//226
f 90//227 134//227 139//227
f 90//228 83//228 134//228
f 135//229 140//229 134//229
f 140//230 139//230 134//230
f 137//231 138//231 141//231
f 141//232 143//232 142//232
f 141//233 91//233 143//233
f 138//234 91//234 141//234
f 88//235 91//235 138//235
f 143//236 91//236 93//236
f 94//237 95//237 144//237
f 95//238 145//238 144//238
f 146//239 145//239 95//239
f 97//240 146//240 95//240
f 99//241 146//241 97//241
f 99//242 147//242 146//242
f 100//243 90//243 139//243
f 148//244 139//244 140//244
f 100//245 139//245 148//245
f 101//246 100//246 148//246
f 101//247 148//247 102//247
f 148//248 149//248 102//248
f 143//249 150//249 142//249
f 150//250 151//250 142//250
f 152//251 93//251 103//251
f 143//252 93//252 152//252
f 150//253 143//253 152//253
f 152//254 103//254 153//254
f 103//255 94//255 153//255
f 153//256 94//256 154//256
f 154//257 94//257 144//257
f 144//258 145//258 154//258
f 147//259 99//259 105//259
f 155//260 147//260 105//260
f 156//261 102//261 149//261
f 156//262 106//262 102//262
f 107//263 151//263 150//263
f 156//264 151//264 107//264
f 106//265 156//265 107//265
f 150//266 108//266 107//266
f 157//267 108//267 150//267
f 152//268 157//268 150//268
f 153//269 158//269 152//269
f 152//270 158//270 159//270
f 152//271 159//271 157//271
f 111//272 159//272 110//272
f 110//273 159//273 158//273
f 110//274 158//274 160//274
f 110//275 155//275 105//275
f 110//276 160//276 155//276
f 113//277 157//277 161//277
f 113//278 108//278 157//278
f 157//279 159//279 162//279
f 157//280 162//280 161//280
f 162//281 111//281 115//281
f 162//282 159//282 111//282
f 116//283 113//283 161//283
f 161//284 117//284 116//284
f 161//285 162//285 117//285
f 162//286 115//286 117//286
f 163//287 165//287 164//287
f 166//288 164//288 165//288
f 167//289 165//289 163//289
f 167//290 166//290 165//290
f 119//291 120//291 168//291
f 168//292 120//292 121//292
f 122//293 123//293 169//293
f 168//294 123//294 119//294
f 169//295 123//295 168//295
f 170//296 169//296 168//296
f 171//297 121//297 124//297
f 168//298 121//298 171//298
f 170//299 168//299 171//299
f 172//300 124//300 125//300
f 172//301 171//301 124//301
f 172//302 125//302 127//302
f 128//303 169//303 173//303
f 128//304 122//304 169//304
f 169//305 170//305 174//305
f 169//306 174//306 173//306
f 174//307 129//307 130//307
f 171//308 129//308 174//308
f 170//309 171//309 174//309
f 171//310 131//310 129//310
f 171//311 172//311 131//311
f 172//312 127//312 131//312
f 132//313 128//313 173//313
f 173//314 133//314 132//314
f 173//315 174//315 133//315
f 174//316 130//316 133//316
f 135//317 136//317 175//317
f 175//318 136//318 137//318
f 140//319 175//319 176//319
f 140//320 135//320 175//320
f 177//321 137//321 141//321
f 175//322 137//322 177//322
f 176//323 175//323 177//323
f 177//324 141//324 142//324
f 145//325 146//325 178//325
f 178//326 146//326 147//326
f 148//327 140//327 176//327
f 176//328 149//328 148//328
f 179//329 149//329 176//329
f 177//330 179//330 176//330
f 179//331 142//331 151//331
f 179//332 177//332 142//332
f 153//333 154//333 180//333
f 178//334 154//334 145//334
f 180//335 154//335 178//335
f 181//336 180//336 178//336
f 181//337 147//337 155//337
f 181//338 178//338 147//338
f 156//339 149//339 179//339
f 179//340 151//340 156//340
f 158//341 153//341 180//341
f 180//342 160//342 158//342
f 180//343 181//343 160//343
f 181//344 155//344 160//344
f 182//345 164//345 183//345
f 182//346 163//346 164//346
f 166//347 183//347 164//347
f 166//348 184//348 183//348
f 185//349 163//349 182//349
f 185//350 167//350 163//350
f 167//351 184//351 166//351
f 167//352 185//352 184//352
f 182//353 183//353 186//353
f 186//354 183//354 184//354
f 185//355 182//355 186//355
f 186//356 184//356 185//356
f 187//357 189//357 188//357
f 190//358 188//358 189//358
f 191//359 189//359 187//359
f 191//360 190//360 189//360
f 187//361 188//361 192//361
f 192//362 188//362 190//362
f 191//363 187//363 192//363
f 192//364 190//364 191//364

# Thankyou for using Spin3D

