# Created using Spin3D

# Vertex Array
v 6.691 9.701 -26.806
v 6.691 9.697 -26.792
v 6.689 9.700 -26.806
v 6.690 9.698 -26.807
v 6.691 9.707 -26.838
v 6.693 9.705 -26.838
v 6.689 9.705 -26.838
v 6.693 9.711 -26.870
v 6.692 9.708 -26.871
v 6.691 9.712 -26.870
v 6.691 9.712 -26.885
v 6.693 9.699 -26.806
v 6.691 9.703 -26.839
v 6.690 9.710 -26.870

# Normal Array
vn -0.460 0.859 0.226
vn -0.884 -0.467 0.003
vn -0.461 0.874 0.154
vn 0.717 0.688 0.112
vn -0.888 -0.456 -0.068
vn -0.697 0.710 0.105
vn 0.717 0.686 0.125
vn 0.875 -0.476 -0.085
vn -0.697 0.708 0.118
vn 0.487 0.863 0.133
vn 0.873 -0.462 -0.157
vn 0.486 0.872 0.060
vn 0.885 0.436 0.165
vn 0.459 -0.887 -0.057
vn 0.697 -0.708 -0.118
vn 0.888 0.451 0.094
vn -0.717 -0.686 -0.125
vn 0.461 -0.878 -0.128
vn -0.487 -0.859 -0.158
vn 0.697 -0.710 -0.105
vn -0.875 0.481 0.060
vn -0.717 -0.688 -0.112
vn -0.486 -0.843 -0.230
vn -0.870 0.492 -0.012

# Facets
f 1//1 3//1 2//1
f 4//2 2//2 3//2
f 1//3 5//3 3//3
f 1//4 6//4 5//4
f 3//5 7//5 4//5
f 3//6 5//6 7//6
f 6//7 8//7 5//7
f 6//8 9//8 8//8
f 5//9 10//9 7//9
f 5//10 8//10 10//10
f 11//11 8//11 9//11
f 11//12 10//12 8//12
f 1//13 2//13 12//13
f 12//14 2//14 4//14
f 6//15 12//15 13//15
f 6//16 1//16 12//16
f 13//17 4//17 7//17
f 13//18 12//18 4//18
f 9//19 13//19 14//19
f 9//20 6//20 13//20
f 14//21 7//21 10//21
f 14//22 13//22 7//22
f 11//23 9//23 14//23
f 14//24 10//24 11//24

# Thankyou for using Spin3D

