# Created using Spin3D

# Vertex Array
v -11.965 -20.577 10.656
v -11.963 -20.577 10.657
v -11.963 -20.578 10.655
v -11.962 -20.577 10.656
v -11.963 -20.577 10.654
v -11.963 -20.576 10.656
v 10.748 8.183 -22.867
v 10.753 8.192 -22.863
v 10.727 8.175 -22.885
v 10.758 8.198 -22.854
v 10.756 8.193 -22.855
v 10.804 8.223 -22.818
v 10.873 8.275 -22.752
v 10.829 8.248 -22.790
v 10.902 8.301 -22.719
v 10.885 8.290 -22.734
v 10.914 8.309 -22.703
v 10.793 8.211 -22.824
v 10.819 8.242 -22.793
v 10.877 8.284 -22.735
v 10.776 8.201 -22.837
v 10.821 8.238 -22.790
v 10.857 8.259 -22.765
v 10.906 8.301 -22.713
v 10.827 8.237 -22.789
v 10.884 8.282 -22.733
v 7.818 27.940 -66.600
v 8.047 27.653 -66.033
v 8.226 27.181 -66.569
v 8.527 27.300 -66.657
v 8.432 27.382 -66.975
v 7.346 28.298 -65.667
v 7.276 28.973 -65.109
v 7.642 28.155 -65.413
v 7.976 29.121 -65.357
v 6.974 29.222 -66.124
v 8.702 28.161 -66.377
v 8.945 27.976 -67.272
v 9.253 28.906 -66.978
v 8.418 28.346 -67.480
v 7.379 29.984 -67.151
v 9.051 28.758 -67.966
v 9.428 29.168 -67.763
v 8.525 29.867 -68.033
v 9.250 29.711 -68.227
v 15.110 18.818 9.444
v 15.107 18.818 9.443
v 15.008 18.817 9.454
v 15.296 18.821 9.434
v 15.228 18.822 9.433
v 15.357 18.822 9.427
v 15.013 18.816 9.455
v 14.988 18.815 9.460
v 15.161 18.818 9.446
v 15.429 18.822 9.427
v 15.358 18.821 9.436
v 15.451 18.822 9.428
v 15.050 18.815 9.457
v 15.210 18.818 9.448
v 15.373 18.822 9.435
v 6.650 29.968 -65.238
v 7.010 30.931 -64.615
v 8.015 32.109 -64.770
v 6.118 31.463 -65.968
v 8.884 29.910 -66.042
v 9.441 30.568 -67.057
v 6.442 32.419 -67.038
v 9.469 30.423 -67.962
v 7.588 32.355 -67.771
v 8.879 31.302 -68.098
v 15.075 18.817 9.452
v 15.242 18.821 9.435
v 15.078 18.815 9.457
v 15.236 18.819 9.442
v 15.397 18.822 9.428
v 5.833 32.624 -64.562
v 6.594 34.146 -63.689
v 7.569 34.969 -63.760
v 4.769 35.527 -65.096
v 4.982 34.559 -64.400
v 5.194 33.500 -65.230
v 9.001 31.888 -65.871
v 8.422 34.748 -65.037
v 5.428 34.006 -66.204
v 5.027 36.706 -66.029
v 9.224 32.631 -66.491
v 9.235 32.111 -67.477
v 6.217 35.021 -67.114
v 7.250 34.611 -67.586
v 8.214 34.060 -67.411
v 4.880 36.629 -63.926
v 5.786 37.361 -62.993
v 5.436 34.996 -63.720
v 6.846 36.599 -62.996
v 7.539 37.292 -63.357
v 4.644 38.071 -64.721
v 7.840 37.937 -64.140
v 4.822 39.342 -65.559
v 8.817 34.105 -66.570
v 7.907 36.947 -65.740
v 5.554 38.175 -66.507
v 6.866 37.048 -66.811
v 5.019 39.278 -63.387
v 5.805 40.502 -62.408
v 6.647 39.020 -62.531
v 7.223 39.890 -62.948
v 4.778 40.585 -64.227
v 7.311 40.089 -64.075
v 4.941 41.429 -65.003
v 6.831 39.891 -65.409
v 5.200 40.323 -65.918
v 5.946 40.002 -66.081
v 5.280 41.790 -62.911
v 5.954 42.803 -62.022
v 6.518 41.574 -62.134
v 6.821 42.157 -62.674
v 5.115 42.527 -63.777
v 6.514 42.337 -63.818
v 5.439 41.758 -65.317
v 5.247 42.701 -64.471
v 6.089 41.652 -65.120
v 5.764 42.915 -64.276
v 5.692 43.570 -62.576
v 6.122 44.053 -61.793
v 6.410 43.458 -61.851
v 6.423 43.744 -62.336
v 5.501 43.421 -63.595
v 6.137 44.264 -62.075
v 6.008 43.735 -63.011
v 6.319 44.274 -61.751

# Normal Array
vn -0.563 -0.696 0.446
vn 0.563 -0.696 0.446
vn -0.568 -0.502 -0.652
vn 0.568 -0.502 -0.652
vn -0.583 0.472 0.661
vn 0.583 0.472 0.661
vn -0.583 0.661 -0.472
vn 0.583 0.661 -0.472
vn 0.668 -0.032 -0.743
vn -0.142 0.864 -0.483
vn -0.444 -0.519 0.730
vn -0.752 0.122 0.648
vn 0.324 0.555 -0.766
vn -0.134 0.850 -0.509
vn 0.275 0.606 -0.746
vn -0.567 0.823 0.040
vn 0.331 0.549 -0.767
vn 0.666 -0.029 -0.746
vn 0.744 -0.365 -0.560
vn -0.201 0.869 -0.452
vn -0.462 0.872 -0.162
vn -0.447 0.869 -0.213
vn -0.657 0.732 0.178
vn -0.658 0.743 0.125
vn 0.413 -0.900 0.141
vn -0.459 -0.506 0.730
vn -0.741 0.112 0.662
vn -0.722 0.051 0.690
vn -0.598 -0.239 0.765
vn -0.720 0.054 0.691
vn 0.765 -0.265 -0.587
vn 0.805 -0.225 -0.549
vn 0.797 -0.475 -0.373
vn 0.833 -0.071 -0.549
vn 0.533 -0.839 0.108
vn 0.767 -0.422 -0.484
vn 0.604 -0.794 0.066
vn 0.426 -0.865 0.266
vn -0.362 -0.494 0.790
vn 0.435 -0.846 0.309
vn 0.124 -0.853 0.507
vn -0.226 -0.649 0.727
vn -0.224 -0.634 0.741
vn -0.362 -0.498 0.788
vn -0.877 -0.467 0.117
vn 0.433 -0.600 0.673
vn -0.717 -0.409 -0.565
vn 0.266 -0.911 -0.315
vn -0.689 -0.502 0.522
vn 0.362 -0.178 0.915
vn -0.583 -0.774 0.246
vn -0.697 -0.713 -0.080
vn -0.849 -0.465 -0.251
vn 0.909 -0.284 0.305
vn 0.635 -0.352 0.688
vn 0.617 -0.304 0.726
vn 0.686 -0.276 0.673
vn 0.867 -0.387 0.315
vn -0.696 -0.341 -0.632
vn -0.707 -0.322 -0.630
vn -0.781 -0.314 -0.541
vn 0.607 -0.706 -0.364
vn 0.024 -0.464 -0.886
vn -0.156 -0.644 -0.749
vn 0.936 -0.340 0.095
vn 0.761 -0.486 -0.430
vn -0.608 -0.233 -0.759
vn -0.468 -0.272 -0.841
vn -0.293 -0.195 -0.936
vn 0.696 -0.321 -0.642
vn -0.004 -0.989 -0.149
vn -0.010 -0.912 -0.410
vn 0.008 -0.977 -0.212
vn -0.012 -0.965 -0.263
vn -0.046 -0.839 -0.542
vn -0.054 -0.859 -0.510
vn 0.002 -0.980 -0.197
vn 0.000 -0.985 -0.172
vn 0.006 -0.993 -0.117
vn 0.008 -0.996 -0.085
vn 0.009 -0.992 -0.125
vn 0.005 -0.995 -0.103
vn -0.008 -0.953 -0.302
vn -0.008 -0.952 -0.306
vn 0.005 -0.982 -0.187
vn 0.005 -0.981 -0.194
vn 0.079 -0.541 0.838
vn 0.078 -0.509 0.857
vn -0.589 -0.272 0.761
vn -0.787 -0.439 0.433
vn 0.363 -0.181 0.914
vn 0.358 -0.185 0.915
vn -0.925 -0.380 -0.018
vn -0.934 -0.354 -0.044
vn 0.675 -0.151 0.722
vn 0.696 -0.204 0.688
vn 0.829 -0.187 0.528
vn 0.895 -0.080 0.439
vn -0.809 -0.273 -0.521
vn -0.813 -0.290 -0.505
vn 0.978 -0.101 0.184
vn 0.999 -0.027 0.036
vn -0.538 -0.169 -0.826
vn -0.613 -0.149 -0.776
vn -0.255 0.019 -0.967
vn -0.235 0.014 -0.972
vn 0.883 -0.102 -0.458
vn 0.466 0.179 -0.867
vn 0.005 0.987 0.158
vn -0.000 0.952 0.305
vn -0.014 0.996 0.087
vn 0.010 0.974 0.225
vn 0.007 0.944 0.330
vn 0.014 0.917 0.398
vn 0.003 0.968 0.252
vn 0.008 0.944 0.329
vn -0.005 0.970 -0.244
vn -0.011 0.999 -0.052
vn 0.004 0.968 0.252
vn 0.002 0.999 -0.038
vn 0.010 -0.994 0.113
vn 0.001 -0.969 -0.247
vn -0.002 0.974 0.228
vn -0.007 0.979 0.203
vn -0.018 1.000 0.022
vn 0.002 0.996 0.091
vn -0.394 -0.301 0.869
vn -0.468 -0.351 0.811
vn 0.384 -0.209 0.899
vn 0.299 -0.276 0.913
vn -0.978 -0.206 0.013
vn -0.865 -0.405 0.296
vn -0.859 -0.466 0.211
vn -0.949 -0.308 0.062
vn 0.731 -0.102 0.675
vn 0.739 -0.046 0.672
vn 0.824 -0.070 0.562
vn 0.897 -0.090 0.433
vn -0.933 -0.175 -0.315
vn -0.913 -0.110 -0.392
vn -0.828 -0.270 -0.492
vn -0.893 -0.275 -0.357
vn 0.911 0.066 0.406
vn 0.939 0.005 0.343
vn 0.992 0.118 -0.051
vn 0.991 0.135 0.010
vn -0.719 -0.062 -0.693
vn -0.706 -0.081 -0.704
vn -0.540 -0.071 -0.839
vn -0.411 0.013 -0.911
vn -0.061 0.227 -0.972
vn 0.241 0.115 -0.964
vn 0.610 0.296 -0.735
vn 0.572 0.326 -0.753
vn -0.658 -0.130 0.741
vn -0.290 -0.363 0.886
vn -0.214 -0.258 0.942
vn -0.177 -0.251 0.952
vn 0.309 -0.288 0.907
vn 0.560 -0.134 0.817
vn -0.761 -0.180 0.623
vn -0.980 -0.089 0.177
vn -0.984 -0.072 0.162
vn -0.662 -0.347 0.664
vn 0.821 -0.087 0.564
vn 0.916 0.055 0.397
vn -0.961 -0.007 -0.275
vn -0.967 -0.030 -0.252
vn 0.954 0.271 0.132
vn 0.954 0.266 0.134
vn 0.976 0.202 -0.084
vn 0.958 0.258 -0.125
vn -0.755 0.058 -0.653
vn -0.673 0.000 -0.739
vn -0.323 0.240 -0.915
vn -0.079 0.172 -0.982
vn 0.736 0.396 -0.549
vn 0.669 0.424 -0.610
vn 0.349 0.333 -0.876
vn 0.734 0.403 -0.547
vn -0.689 -0.129 0.714
vn -0.666 -0.115 0.737
vn -0.139 -0.198 0.970
vn -0.174 -0.179 0.968
vn 0.547 -0.114 0.830
vn 0.630 -0.046 0.776
vn -0.961 -0.006 0.276
vn -0.962 -0.002 0.272
vn 0.918 0.050 0.394
vn 0.965 0.234 0.117
vn -0.992 0.073 -0.101
vn -0.990 0.086 -0.113
vn 0.965 0.240 -0.108
vn 0.861 0.356 -0.363
vn -0.875 0.170 -0.454
vn -0.758 0.054 -0.650
vn -0.025 0.232 -0.972
vn -0.103 0.247 -0.963
vn 0.693 0.326 -0.643
vn 0.592 0.362 -0.720
vn -0.762 -0.059 0.645
vn -0.749 -0.047 0.661
vn -0.138 -0.159 0.978
vn -0.144 -0.155 0.977
vn 0.663 -0.083 0.744
vn 0.830 0.081 0.552
vn -0.944 0.036 0.327
vn -0.957 0.103 0.270
vn 0.981 0.161 0.105
vn 0.918 0.347 -0.192
vn -0.665 0.418 -0.618
vn -0.955 0.276 -0.112
vn -0.985 0.174 -0.016
vn 0.322 0.582 -0.747
vn 0.005 0.668 -0.744
vn 0.700 0.512 -0.498
vn 0.783 0.407 -0.470
vn 0.864 0.348 -0.363
vn -0.659 0.381 -0.648
vn -0.032 0.391 -0.920
vn 0.327 0.455 -0.829
vn 0.592 0.367 -0.718
vn -0.842 0.095 0.531
vn -0.885 0.033 0.465
vn -0.137 -0.161 0.977
vn -0.145 -0.155 0.977
vn 0.882 -0.020 0.472
vn 0.966 0.210 0.151
vn -0.920 0.373 0.118
vn -0.936 0.158 0.313
vn -0.887 0.391 0.246
vn -0.710 0.650 -0.270
vn -0.498 0.867 -0.033
vn 0.684 0.591 -0.428
vn 0.723 0.522 -0.452
vn 0.938 0.279 -0.208
vn -0.910 0.408 -0.071
vn -0.091 0.783 -0.616
vn 0.133 0.820 -0.557
vn 0.701 0.529 -0.478
vn -0.067 -0.128 0.990
vn 0.991 0.099 0.086
vn -0.723 0.571 0.390
vn 0.696 0.589 -0.410

# Facets
f 1//1 3//1 2//1
f 4//2 2//2 3//2
f 5//3 3//3 1//3
f 5//4 4//4 3//4
f 1//5 2//5 6//5
f 6//6 2//6 4//6
f 5//7 1//7 6//7
f 6//8 4//8 5//8
f 7//9 9//9 8//9
f 10//10 8//10 9//10
f 11//11 9//11 7//11
f 11//12 10//12 9//12
f 12//13 14//13 13//13
f 15//14 14//14 16//14
f 15//15 13//15 14//15
f 17//16 15//16 16//16
f 12//17 8//17 14//17
f 7//18 8//18 12//18
f 18//19 7//19 12//19
f 8//20 10//20 14//20
f 14//21 10//21 19//21
f 14//22 19//22 16//22
f 16//23 20//23 17//23
f 16//24 19//24 20//24
f 21//25 7//25 18//25
f 21//26 11//26 7//26
f 11//27 19//27 10//27
f 22//28 19//28 11//28
f 21//29 22//29 11//29
f 22//30 20//30 19//30
f 12//31 13//31 23//31
f 24//32 13//32 15//32
f 24//33 23//33 13//33
f 24//34 15//34 17//34
f 18//35 23//35 25//35
f 18//36 12//36 23//36
f 23//37 24//37 26//37
f 23//38 26//38 25//38
f 26//39 17//39 20//39
f 26//40 24//40 17//40
f 21//41 18//41 25//41
f 25//42 22//42 21//42
f 25//43 26//43 22//43
f 26//44 20//44 22//44
f 27//45 29//45 28//45
f 30//46 28//46 29//46
f 31//47 29//47 27//47
f 31//48 30//48 29//48
f 32//49 34//49 33//49
f 35//50 33//50 34//50
f 32//51 28//51 34//51
f 27//52 28//52 32//52
f 36//53 27//53 32//53
f 37//54 30//54 38//54
f 37//55 28//55 30//55
f 35//56 28//56 37//56
f 34//57 28//57 35//57
f 39//58 37//58 38//58
f 27//59 40//59 31//59
f 41//60 40//60 27//60
f 36//61 41//61 27//61
f 30//62 31//62 38//62
f 38//63 31//63 40//63
f 38//64 40//64 42//64
f 38//65 43//65 39//65
f 38//66 42//66 43//66
f 44//67 40//67 41//67
f 44//68 42//68 40//68
f 44//69 45//69 42//69
f 45//70 43//70 42//70
f 46//71 48//71 47//71
f 46//72 50//72 49//72
f 47//73 50//73 46//73
f 50//74 51//74 49//74
f 52//75 48//75 46//75
f 53//76 48//76 52//76
f 49//77 54//77 46//77
f 54//78 52//78 46//78
f 55//79 49//79 51//79
f 55//80 56//80 49//80
f 56//81 54//81 49//81
f 55//82 57//82 56//82
f 52//83 58//83 53//83
f 54//84 58//84 52//84
f 59//85 58//85 54//85
f 56//86 59//86 54//86
f 60//87 59//87 56//87
f 57//88 60//88 56//88
f 61//89 33//89 62//89
f 61//90 32//90 33//90
f 35//91 62//91 33//91
f 35//92 63//92 62//92
f 36//93 32//93 61//93
f 36//94 61//94 64//94
f 63//95 35//95 65//95
f 35//96 37//96 65//96
f 39//97 65//97 37//97
f 39//98 66//98 65//98
f 41//99 36//99 64//99
f 41//100 64//100 67//100
f 66//101 39//101 43//101
f 68//102 66//102 43//102
f 69//103 41//103 67//103
f 69//104 44//104 41//104
f 70//105 45//105 44//105
f 70//106 44//106 69//106
f 45//107 68//107 43//107
f 45//108 70//108 68//108
f 47//109 48//109 71//109
f 47//110 72//110 50//110
f 71//111 72//111 47//111
f 50//112 72//112 51//112
f 71//113 53//113 73//113
f 48//114 53//114 71//114
f 72//115 71//115 74//115
f 74//116 71//116 73//116
f 51//117 75//117 55//117
f 51//118 72//118 75//118
f 72//119 74//119 75//119
f 55//120 75//120 57//120
f 53//121 58//121 73//121
f 59//122 73//122 58//122
f 74//123 73//123 59//123
f 60//124 74//124 59//124
f 75//125 74//125 60//125
f 57//126 75//126 60//126
f 76//127 62//127 77//127
f 76//128 61//128 62//128
f 63//129 77//129 62//129
f 63//130 78//130 77//130
f 79//131 81//131 80//131
f 80//132 81//132 76//132
f 76//133 81//133 64//133
f 76//134 64//134 61//134
f 65//135 82//135 63//135
f 63//136 82//136 83//136
f 63//137 83//137 78//137
f 82//138 65//138 66//138
f 79//139 84//139 81//139
f 79//140 85//140 84//140
f 67//141 64//141 84//141
f 64//142 81//142 84//142
f 83//143 82//143 86//143
f 66//144 86//144 82//144
f 87//145 86//145 66//145
f 68//146 87//146 66//146
f 88//147 84//147 85//147
f 88//148 67//148 84//148
f 69//149 67//149 88//149
f 89//150 69//150 88//150
f 90//151 70//151 69//151
f 90//152 69//152 89//152
f 70//153 87//153 68//153
f 70//154 90//154 87//154
f 91//155 93//155 92//155
f 77//156 93//156 76//156
f 92//157 93//157 77//157
f 94//158 92//158 77//158
f 78//159 94//159 77//159
f 78//160 95//160 94//160
f 91//161 80//161 93//161
f 79//162 80//162 91//162
f 96//163 79//163 91//163
f 80//164 76//164 93//164
f 95//165 78//165 83//165
f 97//166 95//166 83//166
f 85//167 79//167 96//167
f 85//168 96//168 98//168
f 86//169 99//169 83//169
f 83//170 99//170 100//170
f 83//171 100//171 97//171
f 99//172 86//172 87//172
f 101//173 85//173 98//173
f 101//174 88//174 85//174
f 102//175 89//175 88//175
f 102//176 88//176 101//176
f 90//177 100//177 99//177
f 102//178 100//178 90//178
f 89//179 102//179 90//179
f 99//180 87//180 90//180
f 103//181 92//181 104//181
f 103//182 91//182 92//182
f 92//183 94//183 105//183
f 104//184 92//184 105//184
f 95//185 105//185 94//185
f 95//186 106//186 105//186
f 96//187 91//187 103//187
f 96//188 103//188 107//188
f 106//189 95//189 97//189
f 108//190 106//190 97//190
f 98//191 96//191 107//191
f 98//192 107//192 109//192
f 108//193 97//193 100//193
f 110//194 108//194 100//194
f 111//195 98//195 109//195
f 111//196 101//196 98//196
f 112//197 102//197 101//197
f 112//198 101//198 111//198
f 102//199 110//199 100//199
f 102//200 112//200 110//200
f 113//201 104//201 114//201
f 113//202 103//202 104//202
f 104//203 105//203 115//203
f 114//204 104//204 115//204
f 106//205 115//205 105//205
f 106//206 116//206 115//206
f 107//207 103//207 113//207
f 107//208 113//208 117//208
f 116//209 106//209 108//209
f 118//210 116//210 108//210
f 109//211 120//211 119//211
f 117//212 120//212 109//212
f 107//213 117//213 109//213
f 121//214 119//214 122//214
f 119//215 120//215 122//215
f 118//216 121//216 122//216
f 110//217 121//217 118//217
f 108//218 110//218 118//218
f 111//219 109//219 119//219
f 119//220 112//220 111//220
f 119//221 121//221 112//221
f 121//222 110//222 112//222
f 113//223 114//223 123//223
f 114//224 124//224 123//224
f 125//225 124//225 114//225
f 115//226 125//226 114//226
f 116//227 125//227 115//227
f 116//228 126//228 125//228
f 117//229 123//229 127//229
f 117//230 113//230 123//230
f 124//231 128//231 123//231
f 123//232 128//232 129//232
f 123//233 129//233 127//233
f 126//234 129//234 128//234
f 118//235 129//235 126//235
f 116//236 118//236 126//236
f 120//237 117//237 127//237
f 127//238 122//238 120//238
f 127//239 129//239 122//239
f 129//240 118//240 122//240
f 124//241 125//241 130//241
f 130//242 125//242 126//242
f 128//243 124//243 130//243
f 130//244 126//244 128//244

# Thankyou for using Spin3D

