# Created using Spin3D

# Vertex Array
v 29.733 -40.409 16.785
v 29.735 -40.409 16.786
v 29.735 -40.410 16.785
v 29.736 -40.409 16.785
v 29.735 -40.409 16.784
v 29.735 -40.408 16.785
v 20.914 -29.919 9.317
v 20.915 -29.919 9.318
v 20.915 -29.920 9.317
v 20.916 -29.919 9.317
v 20.915 -29.918 9.316
v 20.915 -29.917 9.317
v 50.054 -19.197 -28.937
v 50.070 -19.177 -28.955
v 50.072 -19.175 -28.952
v 50.066 -19.169 -28.951
v 50.063 -19.179 -28.950
v 50.095 -19.117 -28.988
v 50.073 -19.167 -28.954
v 50.104 -19.104 -28.993
v 50.102 -19.125 -28.992
v 50.094 -19.139 -28.980
v 50.093 -19.129 -28.986
v 50.125 -19.066 -29.024
v 50.113 -19.101 -28.997
v 50.146 -19.033 -29.037
v 50.156 -19.022 -29.045
v 50.140 -19.039 -29.036
v 50.164 -19.002 -29.057
v 17.115 -17.862 -8.073
v 17.115 -17.863 -8.072
v 17.114 -17.863 -8.069
v 17.115 -17.863 -8.069
v 17.111 -17.863 -8.067
v 17.110 -17.864 -8.065
v 17.111 -17.863 -8.069
v 17.109 -17.863 -8.066
v 17.110 -17.864 -8.068
v 17.107 -17.863 -8.064
v 17.106 -17.864 -8.064
v 50.131 -19.073 -29.021
v 50.126 -19.075 -29.023
v 50.153 -19.024 -29.049
v 17.113 -17.864 -8.071
v 17.112 -17.864 -8.068
v 17.110 -17.864 -8.065
v 9.088 -10.446 30.707
v 9.086 -10.446 30.704
v 9.086 -10.447 30.706
v 9.084 -10.446 30.706
v 9.085 -10.446 30.708
v 9.088 -10.445 30.706
v 9.085 -10.444 30.704
v 9.084 -10.445 30.707
v 9.086 -10.445 30.708
v 9.086 -10.444 30.706

# Normal Array
vn -0.583 -0.661 0.472
vn 0.546 -0.682 0.487
vn -0.562 -0.447 -0.696
vn 0.537 -0.456 -0.710
vn -0.567 0.502 0.653
vn 0.595 0.490 0.637
vn -0.549 0.687 -0.476
vn 0.587 0.665 -0.461
vn -0.582 -0.655 0.482
vn 0.542 -0.677 0.498
vn -0.583 -0.486 -0.651
vn 0.560 -0.495 -0.664
vn -0.565 0.497 0.659
vn 0.589 0.487 0.645
vn -0.538 0.678 -0.502
vn 0.579 0.655 -0.485
vn -0.756 0.649 0.088
vn 0.932 -0.311 0.188
vn 0.421 0.392 0.818
vn 0.911 -0.293 0.289
vn -0.474 -0.190 -0.859
vn -0.260 -0.348 -0.901
vn -0.222 -0.424 -0.878
vn 0.697 -0.625 -0.352
vn -0.614 0.676 0.408
vn -0.784 0.606 0.131
vn 0.453 0.322 0.831
vn 0.419 0.345 0.840
vn 0.773 -0.012 0.635
vn 0.765 -0.009 0.644
vn -0.878 0.234 -0.417
vn -0.615 -0.136 -0.776
vn -0.399 -0.306 -0.864
vn -0.378 -0.319 -0.869
vn -0.368 -0.343 -0.864
vn 0.576 -0.651 -0.494
vn 0.696 -0.625 -0.355
vn 0.895 -0.399 0.202
vn -0.315 -0.384 -0.868
vn 0.581 -0.655 -0.483
vn 0.950 0.158 0.270
vn 0.242 0.956 0.164
vn 0.339 0.939 -0.057
vn 0.458 0.646 0.610
vn -0.009 0.992 0.128
vn -0.727 0.322 -0.606
vn -0.006 0.996 0.088
vn -0.240 0.916 -0.321
vn 0.218 0.785 0.580
vn -0.201 0.973 -0.116
vn -0.576 0.563 -0.593
vn -0.528 0.745 -0.407
vn -0.838 0.534 0.112
vn 0.438 0.311 0.843
vn -0.473 0.616 0.630
vn 0.681 0.085 0.727
vn -0.890 0.260 -0.374
vn -0.889 0.253 -0.382
vn -0.751 0.544 0.374
vn -0.472 0.585 0.660
vn 0.820 -0.210 0.532
vn 0.599 0.091 0.795
vn -0.753 0.538 0.379
vn 0.835 -0.268 0.480
vn -0.487 -0.572 -0.660
vn 0.434 -0.899 0.055
vn -0.170 -0.930 -0.327
vn 0.488 -0.806 0.334
vn -0.679 -0.294 -0.673
vn -0.649 -0.085 -0.756
vn -0.077 -0.984 -0.160
vn -0.479 -0.792 -0.379
vn -0.227 -0.944 0.240
vn 0.024 -0.995 0.102
vn -0.037 -0.986 -0.162
vn 0.209 -0.369 0.906
vn 0.286 -0.901 -0.327
vn -0.201 -0.875 -0.441
vn 0.160 -0.978 0.134
vn -0.298 -0.954 0.029
vn 0.548 0.386 -0.742
vn 0.816 -0.206 -0.541
vn -0.510 -0.170 -0.843
vn -0.810 0.366 -0.458
vn 0.803 0.186 0.567
vn 0.480 -0.439 0.760
vn -0.809 -0.360 0.465
vn -0.514 0.139 0.847
vn 0.180 0.980 -0.084
vn -0.246 0.969 0.004
vn 0.272 0.901 0.337
vn -0.160 0.888 0.432

# Facets
f 1//1 3//1 2//1
f 4//2 2//2 3//2
f 5//3 3//3 1//3
f 5//4 4//4 3//4
f 1//5 2//5 6//5
f 6//6 2//6 4//6
f 5//7 1//7 6//7
f 6//8 4//8 5//8
f 7//9 9//9 8//9
f 10//10 8//10 9//10
f 11//11 9//11 7//11
f 11//12 10//12 9//12
f 7//13 8//13 12//13
f 12//14 8//14 10//14
f 11//15 7//15 12//15
f 12//16 10//16 11//16
f 13//17 15//17 14//17
f 13//18 17//18 16//18
f 14//19 17//19 13//19
f 17//20 18//20 16//20
f 13//21 19//21 15//21
f 16//22 19//22 13//22
f 20//23 19//23 16//23
f 18//24 20//24 16//24
f 14//25 22//25 21//25
f 15//26 22//26 14//26
f 17//27 14//27 23//27
f 14//28 21//28 23//28
f 23//29 18//29 17//29
f 24//30 18//30 23//30
f 15//31 25//31 22//31
f 19//32 25//32 15//32
f 26//33 27//33 25//33
f 26//34 25//34 20//34
f 20//35 25//35 19//35
f 20//36 28//36 26//36
f 20//37 18//37 28//37
f 18//38 24//38 28//38
f 26//39 29//39 27//39
f 28//40 29//40 26//40
f 30//41 32//41 31//41
f 33//42 32//42 34//42
f 33//43 31//43 32//43
f 35//44 33//44 34//44
f 36//45 32//45 30//45
f 37//46 36//46 38//46
f 32//47 36//47 37//47
f 34//48 32//48 37//48
f 34//49 39//49 35//49
f 34//50 37//50 39//50
f 40//51 37//51 38//51
f 40//52 39//52 37//52
f 21//53 22//53 41//53
f 21//54 42//54 23//54
f 41//55 42//55 21//55
f 23//56 42//56 24//56
f 22//57 25//57 41//57
f 27//58 41//58 25//58
f 27//59 43//59 41//59
f 43//60 42//60 41//60
f 24//61 43//61 28//61
f 42//62 43//62 24//62
f 27//63 29//63 43//63
f 28//64 43//64 29//64
f 30//65 31//65 44//65
f 45//66 31//66 33//66
f 45//67 44//67 31//67
f 45//68 33//68 35//68
f 36//69 30//69 44//69
f 44//70 38//70 36//70
f 46//71 38//71 44//71
f 45//72 46//72 44//72
f 46//73 35//73 39//73
f 46//74 45//74 35//74
f 40//75 38//75 46//75
f 46//76 39//76 40//76
f 47//77 49//77 48//77
f 50//78 48//78 49//78
f 51//79 49//79 47//79
f 51//80 50//80 49//80
f 52//81 48//81 53//81
f 52//82 47//82 48//82
f 50//83 53//83 48//83
f 50//84 54//84 53//84
f 55//85 47//85 52//85
f 55//86 51//86 47//86
f 51//87 54//87 50//87
f 51//88 55//88 54//88
f 52//89 53//89 56//89
f 56//90 53//90 54//90
f 55//91 52//91 56//91
f 56//92 54//92 55//92

# Thankyou for using Spin3D

