# Created using Spin3D

# Vertex Array
v 40.723 -23.868 -29.149
v 40.723 -23.868 -29.151
v 40.723 -23.866 -29.149
v 40.725 -23.868 -29.151
v 40.725 -23.866 -29.148
v 40.725 -23.868 -29.149
v 40.723 -23.868 -29.147
v 40.725 -23.869 -29.147
v 40.657 -19.302 -25.146
v 40.456 -18.612 -24.754
v 40.498 -18.742 -24.823
v 40.725 -19.537 -25.282
v 40.634 -19.228 -25.108
v 40.650 -19.288 -25.139
v 40.723 -23.870 -29.149
v 40.575 -19.020 -24.980
v 40.657 -19.312 -25.149
v 40.725 -23.870 -29.150
v 40.156 -17.587 -24.171
v 40.178 -17.654 -24.203
v 40.368 -18.329 -24.591
v 40.536 -18.912 -24.921
v 40.379 -18.343 -24.593
v 40.402 -18.447 -24.652
v 39.918 -16.796 -23.718
v 39.637 -15.845 -23.175
v 39.836 -16.507 -23.552
v 39.673 -15.974 -23.247
v 39.785 -16.339 -23.450
v 40.001 -17.087 -23.878
v 40.353 -18.294 -24.567
v 40.078 -17.330 -24.013
v 39.509 -15.417 -22.928
v 39.561 -15.589 -23.025
v 39.593 -15.709 -23.093
v 39.561 -15.593 -23.026
v 39.756 -16.253 -23.400
v 0.699 -22.293 74.509
v 0.745 -22.323 74.638
v 0.637 -22.450 74.507
v 0.885 -22.158 74.468
v 0.685 -22.354 74.418
v 39.474 -15.297 -22.859
v 0.918 -21.997 74.758
v 1.149 -21.786 74.997
v 1.067 -21.981 74.810
v 1.315 -21.667 74.998
v 1.386 -21.637 74.821
v 1.541 -21.345 74.835
v 0.911 -21.890 74.464
v 1.310 -21.691 74.520
v 1.565 -21.359 74.587
v 0.945 -21.917 74.270
v 1.287 -21.568 74.167
v 1.378 -21.267 73.980
v 1.590 -21.222 74.226
v 1.581 -21.096 73.948
v 1.181 -21.604 74.898
v 1.383 -21.441 74.973
v 1.153 -21.525 74.588
v 1.419 -21.223 74.723
v 1.589 -21.117 74.746
v 1.696 -21.012 74.423
v 1.208 -21.416 74.218
v 1.511 -20.997 74.012
v 1.721 -20.903 74.030
v 1.639 -20.905 73.897
v 5.149 -10.633 27.986
v 5.347 -10.544 28.381
v 5.389 -10.793 27.926
v 5.872 -10.334 28.226
v 5.569 -10.019 27.609
v 1.460 -21.066 74.327
v 1.629 -20.941 74.471
v 1.679 -20.842 74.121
v 3.974 -8.300 29.527
v 4.230 -7.726 30.895
v 4.742 -8.866 30.198
v 5.597 -7.786 32.135
v 6.070 -9.396 29.735
v 7.432 -7.997 32.265
v 8.021 -8.371 30.224
v 9.086 -7.063 32.005
v 4.774 -9.563 28.489
v 3.832 -7.309 27.993
v 7.316 -8.984 27.998
v 9.807 -7.001 29.008
v 4.879 -8.613 27.016
v 5.456 -7.466 25.942
v 6.282 -8.584 26.558
v 7.739 -7.999 26.430
v 8.939 -7.638 27.085
v 7.109 -6.578 25.479
v 8.802 -6.851 26.015
v 7.894 -5.958 36.282
v 8.513 -5.645 36.768
v 8.506 -6.241 35.721
v 8.990 -5.449 36.247
v 5.893 -6.122 34.028
v 6.996 -5.382 35.678
v 7.244 -6.824 34.590
v 8.431 -6.964 34.034
v 9.407 -5.689 34.358
v 3.584 -6.595 29.964
v 4.481 -5.831 32.141
v 10.499 -5.122 31.343
v 3.295 -5.053 28.529
v 11.277 -5.744 27.859
v 11.314 -5.337 29.090
v 11.846 -4.525 27.910
v 4.428 -6.872 26.379
v 3.841 -4.419 26.445
v 11.518 -5.071 26.952
v 10.320 -6.141 26.761
v 5.293 -5.362 25.289
v 7.002 -3.437 24.357
v 9.267 -4.832 25.370
v 8.028 -5.045 36.774
v 8.723 -4.970 36.829
v 9.172 -4.217 35.699
v 5.767 -4.063 34.237
v 7.380 -3.736 36.024
v 9.996 -3.940 33.558
v 3.548 -4.153 30.275
v 4.436 -3.401 32.134
v 10.528 -2.435 31.182
v 3.378 -2.093 27.918
v 11.526 -3.779 29.379
v 11.714 -3.111 27.827
v 3.772 -0.984 25.400
v 10.930 -4.723 26.136
v 11.545 -3.746 26.737
v 4.922 -2.309 24.393
v 5.311 -0.207 23.376
v 6.156 -1.289 23.491
v 7.388 -1.128 23.584
v 9.018 -1.882 24.655
v 10.552 -3.370 25.724
v 6.570 0.768 23.105
v 8.413 -4.190 36.632
v 6.608 -2.425 34.850
v 7.546 -2.257 35.494
v 8.405 -2.967 35.815
v 9.296 -2.216 33.970
v 4.063 -1.519 30.264
v 5.582 -1.436 32.670
v 9.416 -0.582 31.629
v 3.821 0.317 28.265
v 5.275 1.233 29.456
v 11.188 -2.060 28.745
v 9.880 0.165 28.649
v 3.638 1.200 26.173
v 4.172 2.132 27.204
v 10.651 -1.496 26.602
v 9.863 0.641 26.440
v 4.446 0.009 23.931
v 4.149 1.689 24.298
v 8.052 0.223 23.665
v 9.089 0.853 24.819
v 5.194 1.740 23.246
v 6.360 3.411 22.862
v 7.683 2.167 23.409
v 7.147 -1.130 34.108
v 8.190 -1.652 34.829
v 6.841 0.397 31.847
v 8.260 -0.468 33.054
v 6.786 1.673 30.087
v 8.179 1.154 30.335
v 4.087 3.141 25.784
v 5.220 3.766 26.210
v 6.911 2.854 28.092
v 8.449 2.294 27.926
v 8.809 2.385 26.006
v 4.112 3.335 24.655
v 4.445 4.185 24.893
v 8.159 2.975 24.164
v 5.132 4.172 23.332
v 5.879 5.438 22.678
v 6.039 4.953 22.596
v 6.619 4.909 22.831
v 7.288 3.835 23.273
v 6.242 5.510 22.512
v 51.563 7.627 0.477
v 51.564 7.627 0.478
v 51.564 7.626 0.477
v 51.566 7.627 0.477
v 51.564 7.627 0.476
v 6.626 4.279 25.823
v 7.704 3.569 26.378
v 4.550 4.419 24.119
v 5.163 4.981 24.136
v 6.009 5.118 24.477
v 6.211 5.605 23.520
v 7.170 4.542 24.225
v 6.336 5.566 22.938
v 5.715 5.539 23.182
v 51.564 7.628 0.477
v 5.747 5.635 23.667

# Normal Array
vn -0.940 0.223 -0.259
vn 0.297 0.880 -0.372
vn -0.306 0.622 -0.721
vn 0.965 0.241 -0.102
vn -0.952 0.249 0.178
vn -0.233 0.727 0.646
vn 0.300 0.371 0.879
vn 0.961 0.108 0.256
vn -0.669 -0.505 0.546
vn -0.788 -0.462 0.408
vn -0.789 -0.461 0.406
vn 0.784 -0.112 0.610
vn -0.954 -0.202 -0.220
vn -0.825 0.087 -0.559
vn -0.625 0.248 -0.740
vn -0.634 0.246 -0.733
vn 0.271 -0.384 -0.883
vn -0.308 -0.715 -0.627
vn 0.918 0.366 -0.155
vn 0.953 -0.148 -0.263
vn -0.962 -0.183 0.202
vn -0.259 -0.648 0.716
vn 0.262 -0.892 0.368
vn 0.948 -0.304 0.093
vn -0.842 -0.431 0.325
vn -0.707 -0.496 0.504
vn -0.039 -0.506 0.862
vn 0.241 -0.426 0.872
vn 0.855 -0.044 0.516
vn 0.693 -0.194 0.695
vn -0.876 0.017 -0.483
vn -0.515 0.308 -0.800
vn 0.371 0.543 -0.754
vn -0.004 0.495 -0.869
vn 0.918 0.365 -0.153
vn 0.462 0.541 -0.703
vn -0.095 -0.515 0.852
vn 0.672 -0.207 0.711
vn 0.051 -0.485 0.873
vn -0.861 -0.420 0.287
vn -0.965 -0.254 -0.060
vn 0.352 -0.383 0.854
vn 0.901 0.018 0.434
vn 0.852 -0.045 0.522
vn 0.624 -0.242 0.743
vn 0.631 -0.236 0.739
vn -0.833 0.066 -0.550
vn -0.789 0.111 -0.604
vn 0.415 0.539 -0.733
vn 0.379 0.540 -0.752
vn -0.007 0.495 -0.869
vn 0.520 0.536 -0.666
vn -0.854 -0.426 0.298
vn -0.829 -0.444 0.341
vn 0.731 -0.164 0.663
vn 0.798 -0.105 0.594
vn -0.160 0.451 -0.878
vn -0.618 0.240 -0.749
vn -0.964 -0.263 -0.044
vn 0.680 0.504 -0.533
vn 0.703 0.497 -0.508
vn 0.916 0.043 0.399
vn -0.152 0.454 -0.878
vn 0.435 0.540 -0.720
vn -0.860 0.338 0.383
vn 0.762 -0.648 0.000
vn -0.924 0.369 -0.103
vn 0.704 -0.640 -0.307
vn -0.793 -0.462 0.396
vn 0.931 0.066 0.359
vn -0.619 0.240 -0.748
vn 0.833 0.436 -0.340
vn -0.190 -0.637 0.747
vn 0.719 -0.673 0.174
vn 0.497 -0.700 0.513
vn 0.847 -0.463 0.261
vn -0.306 -0.182 0.935
vn -0.867 0.321 0.381
vn -0.859 0.474 0.192
vn 0.738 -0.673 -0.044
vn 0.741 -0.669 -0.048
vn 0.733 -0.678 -0.063
vn 0.875 -0.470 0.113
vn 0.798 -0.595 -0.095
vn -0.874 0.437 -0.213
vn -0.871 0.460 -0.172
vn 0.672 -0.563 -0.480
vn 0.456 -0.631 -0.628
vn 0.727 -0.632 -0.268
vn 0.361 -0.570 -0.738
vn 0.798 -0.580 -0.165
vn 0.747 -0.611 -0.262
vn 0.367 -0.570 -0.735
vn 0.742 -0.600 -0.298
vn -0.811 0.387 0.439
vn -0.104 0.138 0.985
vn -0.613 0.461 0.641
vn 0.700 -0.136 0.702
vn -0.779 0.586 0.222
vn -0.845 0.494 0.205
vn -0.847 0.493 0.199
vn -0.659 0.611 0.439
vn -0.497 0.688 0.529
vn 0.582 0.186 0.791
vn 0.954 -0.090 0.286
vn 0.946 -0.304 0.111
vn -0.839 0.543 0.035
vn -0.874 0.436 -0.213
vn -0.844 0.406 -0.350
vn -0.835 0.448 -0.318
vn 0.919 -0.385 -0.082
vn 0.912 -0.407 -0.054
vn -0.754 0.429 -0.497
vn 0.088 -0.282 -0.956
vn 0.830 -0.497 -0.254
vn 0.792 -0.372 -0.484
vn -0.437 -0.805 0.402
vn 0.443 -0.768 0.462
vn -0.397 -0.267 -0.878
vn 0.725 -0.398 -0.561
vn -0.776 0.610 0.160
vn -0.520 0.751 0.406
vn -0.689 0.696 0.203
vn 0.785 0.464 0.411
vn -0.817 0.574 0.048
vn -0.811 0.585 -0.003
vn -0.693 0.720 0.046
vn -0.654 0.747 0.117
vn 0.911 0.379 0.164
vn 0.785 0.557 0.271
vn -0.638 0.763 -0.101
vn 0.491 0.811 -0.318
vn -0.739 -0.560 0.373
vn -0.148 -0.835 0.531
vn -0.551 -0.601 0.579
vn 0.392 -0.878 0.274
vn -0.134 -0.835 0.534
vn 0.505 -0.812 0.295
vn -0.708 -0.658 0.255
vn -0.892 -0.413 -0.184
vn -0.734 -0.482 0.478
vn -0.599 -0.425 0.679
vn -0.233 -0.902 0.363
vn 0.441 -0.787 0.432
vn 0.673 -0.665 0.325
vn 0.441 -0.891 0.105
vn 0.662 -0.735 0.144
vn 0.618 -0.786 0.021
vn -0.841 -0.425 -0.334
vn -0.238 -0.597 -0.766
vn -0.263 -0.482 -0.836
vn -0.746 -0.534 -0.398
vn -0.722 0.071 -0.689
vn 0.507 -0.640 -0.577
vn 0.512 -0.658 -0.551
vn 0.299 -0.842 -0.449
vn 0.629 -0.777 -0.027
vn 0.452 -0.805 -0.384
vn 0.010 -0.477 -0.879
vn 0.130 -0.511 -0.850
vn 0.192 -0.486 -0.853
vn 0.502 -0.665 -0.553
vn 0.051 -0.868 0.494
vn 0.666 -0.650 0.366
vn -0.549 -0.561 0.619
vn -0.680 -0.512 0.524
vn 0.005 -0.891 0.454
vn 0.075 -0.918 0.390
vn 0.747 -0.619 0.243
vn 0.742 -0.628 0.236
vn -0.891 -0.160 0.424
vn -0.914 -0.283 0.290
vn -0.551 -0.582 0.598
vn -0.753 -0.431 0.497
vn -0.634 -0.364 0.682
vn -0.133 -0.889 0.438
vn 0.109 -0.884 0.455
vn 0.506 -0.838 0.204
vn 0.731 -0.628 0.267
vn 0.823 -0.532 0.198
vn -0.976 -0.212 -0.046
vn -0.974 -0.222 -0.042
vn 0.722 -0.663 0.198
vn 0.696 -0.646 0.313
vn 0.823 -0.536 0.187
vn 0.899 -0.424 0.113
vn -0.836 -0.366 -0.408
vn -0.899 -0.205 -0.388
vn -0.943 -0.155 -0.294
vn -0.547 -0.409 -0.730
vn 0.658 -0.678 -0.328
vn 0.551 -0.814 -0.185
vn 0.721 -0.686 -0.098
vn 0.905 -0.419 -0.071
vn -0.671 -0.141 -0.728
vn -0.512 -0.291 -0.809
vn -0.103 -0.302 -0.948
vn -0.128 -0.338 -0.932
vn 0.233 -0.344 -0.910
vn 0.214 -0.322 -0.922
vn 0.559 -0.632 -0.537
vn 0.542 -0.366 -0.756
vn -0.072 -0.069 0.995
vn -0.449 -0.372 0.812
vn 0.758 -0.289 0.585
vn 0.920 0.038 0.391
vn -0.745 0.034 0.666
vn -0.803 -0.108 0.585
vn -0.653 -0.283 0.702
vn -0.732 0.028 0.681
vn 0.974 -0.046 0.221
vn 0.928 -0.159 0.337
vn -0.900 -0.016 0.436
vn -0.914 -0.064 0.399
vn -0.804 -0.108 0.585
vn -0.847 -0.014 0.532
vn 0.936 -0.175 0.306
vn 0.976 0.003 0.220
vn -0.986 -0.035 0.161
vn -0.992 0.052 0.117
vn 0.881 0.019 0.474
vn 0.917 -0.190 0.350
vn 0.937 -0.183 0.297
vn 0.982 0.102 0.162
vn -0.965 -0.027 -0.261
vn -0.979 -0.077 -0.187
vn 0.570 -0.524 -0.633
vn 0.782 -0.116 -0.612
vn 0.955 -0.067 -0.289
vn 0.977 0.080 -0.197
vn -0.766 -0.201 -0.610
vn -0.702 -0.278 -0.655
vn -0.340 -0.358 -0.870
vn -0.257 -0.446 -0.857
vn -0.177 -0.297 -0.938
vn 0.114 -0.332 -0.936
vn 0.396 -0.350 -0.849
vn 0.294 -0.202 -0.934
vn 0.388 -0.506 -0.770
vn 0.422 -0.155 -0.894
vn 0.442 -0.176 -0.880
vn 0.711 -0.016 -0.703
vn -0.081 -0.168 -0.982
vn 0.100 -0.203 -0.974
vn -0.099 0.207 0.973
vn 0.708 0.424 0.564
vn -0.573 0.333 0.749
vn -0.748 0.141 0.649
vn -0.375 0.314 0.872
vn -0.239 0.538 0.808
vn -0.067 0.343 0.937
vn 0.720 0.389 0.575
vn 0.746 0.409 0.526
vn 0.886 0.270 0.376
vn -0.914 0.180 0.364
vn -0.802 0.333 0.495
vn -0.765 0.289 0.575
vn -0.832 0.240 0.500
vn 0.888 0.272 0.371
vn 0.841 0.423 0.338
vn -0.959 0.141 0.246
vn -0.954 0.187 0.233
vn -0.755 0.467 0.460
vn -0.718 0.468 0.516
vn 0.912 0.287 0.292
vn 0.817 0.493 0.298
vn 0.856 0.454 0.247
vn 0.936 0.268 0.228
vn -0.930 0.302 0.209
vn -0.976 0.158 0.152
vn -0.988 -0.005 -0.157
vn -0.718 0.449 0.531
vn 0.861 0.502 -0.084
vn 0.934 0.350 0.068
vn 0.884 0.332 -0.330
vn 0.860 0.503 -0.083
vn -0.792 -0.272 -0.547
vn -0.891 -0.060 -0.449
vn -0.966 0.031 -0.255
vn -0.567 -0.271 -0.778
vn 0.479 -0.184 -0.858
vn 0.877 0.294 -0.380
vn 0.764 0.019 -0.645
vn 0.712 0.267 -0.650
vn 0.738 0.021 -0.675
vn 0.736 0.255 -0.627
vn -0.710 0.028 -0.704
vn -0.553 -0.089 -0.828
vn -0.154 -0.075 -0.985
vn -0.174 -0.104 -0.979
vn 0.319 -0.100 -0.942
vn 0.333 -0.061 -0.941
vn 0.332 -0.060 -0.941
vn 0.730 0.048 -0.682
vn -0.530 0.577 0.622
vn 0.217 0.608 0.763
vn -0.059 0.766 0.640
vn 0.674 0.510 0.533
vn -0.588 0.631 0.506
vn -0.614 0.569 0.547
vn 0.032 0.831 0.556
vn 0.033 0.830 0.556
vn 0.633 0.619 0.464
vn 0.654 0.617 0.437
vn -0.434 0.723 0.537
vn -0.536 0.624 0.569
vn 0.090 0.856 0.508
vn 0.195 0.797 0.572
vn 0.673 0.686 0.277
vn 0.572 0.711 0.408
vn -0.933 0.265 0.244
vn -0.554 0.662 0.504
vn -0.534 0.662 0.526
vn -0.255 0.760 0.597
vn -0.416 0.794 0.444
vn 0.220 0.833 0.507
vn 0.349 0.831 0.433
vn 0.711 0.601 0.364
vn 0.788 0.590 0.176
vn 0.839 0.534 0.109
vn -0.934 0.354 0.040
vn -0.973 0.229 0.018
vn -0.967 0.034 -0.254
vn -0.553 0.642 0.531
vn 0.839 0.421 -0.346
vn 0.917 0.335 -0.216
vn -0.819 0.104 -0.565
vn -0.709 0.007 -0.705
vn -0.596 -0.062 -0.800
vn -0.475 -0.245 -0.845
vn -0.344 0.024 -0.939
vn 0.370 -0.083 -0.925
vn 0.438 -0.095 -0.894
vn 0.397 0.019 -0.918
vn 0.763 0.140 -0.631
vn 0.769 0.131 -0.625
vn -0.417 0.016 -0.909
vn 0.346 -0.261 -0.901
vn -0.595 -0.632 0.496
vn 0.544 -0.701 0.462
vn -0.592 -0.445 -0.672
vn 0.552 -0.517 -0.654
vn -0.154 0.828 0.540
vn 0.344 0.799 0.493
vn 0.296 0.825 0.481
vn 0.746 0.643 0.170
vn -0.930 0.368 -0.015
vn -0.672 0.729 0.129
vn -0.378 0.794 0.476
vn -0.328 0.811 0.484
vn -0.140 0.810 0.569
vn 0.472 0.742 0.476
vn 0.476 0.828 0.298
vn 0.421 0.861 0.285
vn 0.837 0.533 -0.125
vn 0.744 0.659 0.113
vn -0.800 0.026 -0.600
vn -0.134 0.962 -0.236
vn -0.874 0.334 -0.352
vn -0.886 0.343 -0.311
vn -0.538 0.604 -0.587
vn -0.075 0.994 -0.083
vn 0.703 0.703 0.104
vn 0.877 0.417 -0.237
vn 0.866 0.446 -0.225
vn 0.805 0.519 -0.286
vn -0.227 0.971 -0.077
vn 0.874 0.417 -0.247
vn -0.569 0.478 0.669
vn 0.575 0.476 0.666
vn -0.565 0.671 -0.481
vn 0.581 0.661 -0.474
vn -0.354 0.733 0.581
vn 0.206 0.854 0.477
vn -0.770 0.634 -0.074
vn 0.001 0.981 -0.193

# Facets
f 1//1 3//1 2//1
f 4//2 3//2 5//2
f 4//3 2//3 3//3
f 6//4 4//4 5//4
f 7//5 3//5 1//5
f 7//6 5//6 3//6
f 7//7 8//7 5//7
f 8//8 6//8 5//8
f 9//9 11//9 10//9
f 9//10 13//10 12//10
f 10//11 13//11 9//11
f 13//12 14//12 12//12
f 1//13 2//13 15//13
f 9//14 16//14 11//14
f 12//15 17//15 9//15
f 9//16 17//16 16//16
f 4//17 18//17 2//17
f 2//18 18//18 15//18
f 12//19 14//19 17//19
f 18//20 4//20 6//20
f 7//21 1//21 15//21
f 15//22 8//22 7//22
f 15//23 18//23 8//23
f 18//24 6//24 8//24
f 10//25 20//25 19//25
f 11//26 20//26 10//26
f 13//27 10//27 21//27
f 10//28 19//28 21//28
f 21//29 14//29 13//29
f 22//30 14//30 21//30
f 11//31 23//31 20//31
f 16//32 23//32 11//32
f 17//33 24//33 16//33
f 16//34 24//34 23//34
f 22//35 17//35 14//35
f 24//36 17//36 22//36
f 25//37 27//37 26//37
f 26//38 28//38 25//38
f 19//39 27//39 25//39
f 19//40 20//40 27//40
f 20//41 29//41 27//41
f 25//42 21//42 19//42
f 25//43 30//43 21//43
f 25//44 28//44 30//44
f 30//45 31//45 21//45
f 21//46 31//46 22//46
f 20//47 32//47 29//47
f 23//48 32//48 20//48
f 30//49 24//49 31//49
f 30//50 32//50 24//50
f 32//51 23//51 24//51
f 22//52 31//52 24//52
f 26//53 34//53 33//53
f 27//54 34//54 26//54
f 33//55 28//55 26//55
f 35//56 28//56 33//56
f 36//57 29//57 37//57
f 36//58 34//58 29//58
f 34//59 27//59 29//59
f 37//60 35//60 36//60
f 37//61 30//61 35//61
f 30//62 28//62 35//62
f 29//63 32//63 37//63
f 30//64 37//64 32//64
f 38//65 40//65 39//65
f 41//66 39//66 40//66
f 42//67 40//67 38//67
f 42//68 41//68 40//68
f 33//69 34//69 43//69
f 33//70 43//70 35//70
f 34//71 36//71 43//71
f 35//72 43//72 36//72
f 44//73 46//73 45//73
f 47//74 46//74 48//74
f 47//75 45//75 46//75
f 49//76 47//76 48//76
f 44//77 39//77 46//77
f 38//78 39//78 44//78
f 50//79 38//79 44//79
f 39//80 41//80 46//80
f 46//81 41//81 51//81
f 46//82 51//82 48//82
f 48//83 52//83 49//83
f 48//84 51//84 52//84
f 53//85 38//85 50//85
f 53//86 42//86 38//86
f 53//87 41//87 42//87
f 54//88 41//88 53//88
f 51//89 41//89 54//89
f 53//90 55//90 54//90
f 51//91 56//91 52//91
f 51//92 54//92 56//92
f 57//93 54//93 55//93
f 57//94 56//94 54//94
f 44//95 45//95 58//95
f 59//96 45//96 47//96
f 59//97 58//97 45//97
f 59//98 47//98 49//98
f 60//99 58//99 61//99
f 44//100 58//100 60//100
f 50//101 44//101 60//101
f 58//102 59//102 61//102
f 59//103 62//103 61//103
f 49//104 62//104 59//104
f 63//105 62//105 49//105
f 52//106 63//106 49//106
f 64//107 50//107 60//107
f 64//108 53//108 50//108
f 53//109 64//109 55//109
f 64//110 65//110 55//110
f 63//111 52//111 56//111
f 66//112 63//112 56//112
f 67//113 55//113 65//113
f 67//114 57//114 55//114
f 57//115 66//115 56//115
f 57//116 67//116 66//116
f 68//117 70//117 69//117
f 71//118 69//118 70//118
f 72//119 70//119 68//119
f 72//120 71//120 70//120
f 60//121 61//121 73//121
f 74//122 61//122 62//122
f 74//123 73//123 61//123
f 74//124 62//124 63//124
f 64//125 60//125 73//125
f 73//126 65//126 64//126
f 75//127 65//127 73//127
f 74//128 75//128 73//128
f 75//129 63//129 66//129
f 75//130 74//130 63//130
f 67//131 65//131 75//131
f 75//132 66//132 67//132
f 76//133 78//133 77//133
f 79//134 78//134 80//134
f 79//135 77//135 78//135
f 81//136 80//136 82//136
f 81//137 79//137 80//137
f 83//138 81//138 82//138
f 76//139 84//139 78//139
f 76//140 85//140 84//140
f 68//141 69//141 84//141
f 84//142 69//142 80//142
f 84//143 80//143 78//143
f 69//144 71//144 80//144
f 80//145 71//145 86//145
f 80//146 86//146 82//146
f 82//147 87//147 83//147
f 82//148 86//148 87//148
f 88//149 84//149 85//149
f 89//150 90//150 88//150
f 90//151 72//151 88//151
f 88//152 72//152 84//152
f 84//153 72//153 68//153
f 71//154 72//154 86//154
f 86//155 72//155 90//155
f 86//156 90//156 91//156
f 86//157 92//157 87//157
f 86//158 91//158 92//158
f 93//159 90//159 89//159
f 93//160 91//160 90//160
f 93//161 94//161 91//161
f 94//162 92//162 91//162
f 95//163 97//163 96//163
f 98//164 96//164 97//164
f 99//165 101//165 100//165
f 101//166 95//166 100//166
f 97//167 95//167 101//167
f 102//168 97//168 101//168
f 97//169 103//169 98//169
f 97//170 102//170 103//170
f 104//171 77//171 105//171
f 104//172 76//172 77//172
f 101//173 99//173 79//173
f 79//174 99//174 105//174
f 79//175 105//175 77//175
f 79//176 81//176 101//176
f 81//177 102//177 101//177
f 83//178 102//178 81//178
f 103//179 102//179 83//179
f 106//180 103//180 83//180
f 85//181 76//181 104//181
f 85//182 104//182 107//182
f 108//183 109//183 87//183
f 87//184 109//184 106//184
f 87//185 106//185 83//185
f 110//186 109//186 108//186
f 85//187 111//187 88//187
f 112//188 111//188 85//188
f 107//189 112//189 85//189
f 89//190 88//190 111//190
f 113//191 108//191 114//191
f 114//192 108//192 87//192
f 114//193 87//193 92//193
f 113//194 110//194 108//194
f 115//195 111//195 112//195
f 115//196 89//196 111//196
f 93//197 89//197 115//197
f 116//198 93//198 115//198
f 117//199 94//199 93//199
f 117//200 93//200 116//200
f 94//201 114//201 92//201
f 94//202 117//202 114//202
f 118//203 96//203 119//203
f 118//204 95//204 96//204
f 98//205 119//205 96//205
f 98//206 120//206 119//206
f 121//207 100//207 122//207
f 121//208 99//208 100//208
f 95//209 118//209 100//209
f 118//210 122//210 100//210
f 120//211 98//211 103//211
f 123//212 120//212 103//212
f 124//213 105//213 125//213
f 124//214 104//214 105//214
f 99//215 121//215 105//215
f 121//216 125//216 105//216
f 123//217 103//217 106//217
f 126//218 123//218 106//218
f 107//219 104//219 124//219
f 107//220 124//220 127//220
f 126//221 106//221 128//221
f 106//222 109//222 128//222
f 110//223 128//223 109//223
f 110//224 129//224 128//224
f 112//225 107//225 127//225
f 112//226 127//226 130//226
f 131//227 113//227 114//227
f 132//228 113//228 131//228
f 110//229 113//229 132//229
f 129//230 110//230 132//230
f 133//231 112//231 130//231
f 133//232 115//232 112//232
f 134//233 135//233 133//233
f 133//234 135//234 116//234
f 133//235 116//235 115//235
f 135//236 136//236 116//236
f 116//237 136//237 137//237
f 116//238 137//238 117//238
f 117//239 131//239 114//239
f 138//240 131//240 117//240
f 137//241 138//241 117//241
f 138//242 132//242 131//242
f 139//243 135//243 134//243
f 139//244 136//244 135//244
f 118//245 119//245 140//245
f 140//246 119//246 120//246
f 141//247 122//247 142//247
f 141//248 121//248 122//248
f 118//249 140//249 122//249
f 122//250 140//250 143//250
f 122//251 143//251 142//251
f 120//252 143//252 140//252
f 144//253 143//253 120//253
f 123//254 144//254 120//254
f 124//255 125//255 145//255
f 145//256 125//256 146//256
f 146//257 125//257 121//257
f 146//258 121//258 141//258
f 144//259 123//259 126//259
f 147//260 144//260 126//260
f 127//261 145//261 148//261
f 127//262 124//262 145//262
f 146//263 149//263 145//263
f 149//264 148//264 145//264
f 128//265 150//265 126//265
f 126//266 150//266 151//266
f 126//267 151//267 147//267
f 150//268 128//268 129//268
f 152//269 148//269 153//269
f 127//270 148//270 152//270
f 130//271 127//271 152//271
f 148//272 149//272 153//272
f 150//273 154//273 151//273
f 154//274 155//274 151//274
f 154//275 129//275 132//275
f 154//276 150//276 129//276
f 130//277 156//277 133//277
f 157//278 156//278 130//278
f 152//279 157//279 130//279
f 134//280 133//280 156//280
f 158//281 137//281 136//281
f 155//282 154//282 159//282
f 159//283 154//283 137//283
f 137//284 154//284 138//284
f 137//285 158//285 159//285
f 154//286 132//286 138//286
f 160//287 156//287 157//287
f 160//288 134//288 156//288
f 139//289 134//289 160//289
f 161//290 139//290 160//290
f 139//291 158//291 136//291
f 162//292 158//292 139//292
f 161//293 162//293 139//293
f 162//294 159//294 158//294
f 141//295 142//295 163//295
f 164//296 142//296 143//296
f 164//297 163//297 142//297
f 164//298 143//298 144//298
f 146//299 163//299 165//299
f 146//300 141//300 163//300
f 163//301 164//301 166//301
f 163//302 166//302 165//302
f 166//303 144//303 147//303
f 166//304 164//304 144//304
f 149//305 165//305 167//305
f 149//306 146//306 165//306
f 165//307 166//307 168//307
f 165//308 168//308 167//308
f 168//309 147//309 151//309
f 168//310 166//310 147//310
f 152//311 153//311 169//311
f 169//312 153//312 170//312
f 153//313 149//313 170//313
f 170//314 149//314 171//314
f 171//315 149//315 167//315
f 167//316 168//316 171//316
f 168//317 172//317 171//317
f 151//318 172//318 168//318
f 173//319 172//319 151//319
f 155//320 173//320 151//320
f 174//321 169//321 175//321
f 152//322 169//322 174//322
f 157//323 152//323 174//323
f 169//324 170//324 175//324
f 173//325 155//325 159//325
f 176//326 173//326 159//326
f 177//327 157//327 174//327
f 177//328 160//328 157//328
f 178//329 179//329 177//329
f 177//330 179//330 161//330
f 177//331 161//331 160//331
f 179//332 180//332 161//332
f 161//333 180//333 181//333
f 161//334 181//334 162//334
f 162//335 176//335 159//335
f 162//336 181//336 176//336
f 182//337 179//337 178//337
f 182//338 180//338 179//338
f 183//339 185//339 184//339
f 186//340 184//340 185//340
f 187//341 185//341 183//341
f 187//342 186//342 185//342
f 170//343 171//343 188//343
f 189//344 171//344 172//344
f 189//345 188//345 171//345
f 189//346 172//346 173//346
f 174//347 175//347 190//347
f 190//348 175//348 191//348
f 175//349 170//349 191//349
f 191//350 170//350 192//350
f 192//351 170//351 188//351
f 193//352 192//352 194//352
f 194//353 192//353 188//353
f 194//354 188//354 189//354
f 194//355 173//355 176//355
f 194//356 189//356 173//356
f 177//357 174//357 190//357
f 195//358 178//358 196//358
f 178//359 177//359 196//359
f 196//360 177//360 191//360
f 191//361 177//361 190//361
f 196//362 193//362 195//362
f 193//363 194//363 195//363
f 195//364 194//364 180//364
f 180//365 194//365 181//365
f 194//366 176//366 181//366
f 182//367 178//367 195//367
f 195//368 180//368 182//368
f 183//369 184//369 197//369
f 197//370 184//370 186//370
f 187//371 183//371 197//371
f 197//372 186//372 187//372
f 191//373 192//373 198//373
f 198//374 192//374 193//374
f 196//375 191//375 198//375
f 198//376 193//376 196//376

# Thankyou for using Spin3D

