# Created using Spin3D

# Vertex Array
v 24.621 -22.120 16.104
v 24.743 -21.977 16.550
v 24.564 -22.435 16.357
v 24.994 -22.087 16.512
v 24.840 -22.272 16.166
v 24.665 -21.617 16.245
v 25.036 -21.212 16.651
v 25.988 -20.818 17.066
v 25.786 -21.491 16.147
v 26.922 -20.458 16.386
v 25.265 -21.667 15.714
v 25.148 -21.049 15.648
v 26.209 -21.001 15.434
v 27.081 -20.399 15.621
v 26.108 -20.543 15.116
v 27.263 -19.842 14.944
v 8.971 -20.331 26.009
v 8.972 -20.331 26.010
v 8.972 -20.332 26.009
v 8.973 -20.331 26.009
v 8.972 -20.330 26.008
v 26.699 -19.698 17.465
v 26.762 -19.894 18.036
v 26.501 -20.182 17.897
v 26.799 -20.028 17.790
v 25.137 -20.666 16.165
v 25.820 -20.147 16.753
v 27.691 -19.404 16.809
v 28.094 -19.407 15.862
v 28.758 -18.598 15.942
v 25.619 -19.961 15.547
v 28.201 -19.191 15.115
v 29.351 -17.913 15.050
v 26.323 -19.605 14.989
v 27.280 -19.194 14.636
v 28.787 -18.046 14.408
v 8.972 -20.330 26.009
v 27.195 -19.503 17.640
v 26.101 -19.387 15.936
v 27.057 -18.764 16.409
v 28.049 -18.413 16.632
v 29.462 -17.011 15.559
v 29.330 -17.656 15.727
v 26.596 -18.894 15.190
v 27.571 -18.002 15.329
v 30.325 -16.406 14.950
v 30.530 -16.454 14.584
v 30.549 -16.314 13.918
v 31.190 -15.635 13.870
v 28.207 -17.758 14.437
v 29.913 -16.158 13.777
v 30.034 -16.381 13.693
v 31.028 -15.537 13.355
v 31.318 -15.375 13.466
v 30.778 -15.531 13.376
v 31.246 -15.218 13.339
v 28.652 -17.319 15.554
v 29.278 -16.613 14.487
v 30.254 -16.068 14.571
v 30.959 -15.762 14.272
v 30.638 -15.573 13.730
v 31.195 -15.355 13.739
v 30.209 -11.788 9.307
v 30.208 -11.786 9.307
v 30.209 -11.787 9.308
v 30.210 -11.786 9.307
v 30.209 -11.786 9.306
v 30.209 -11.785 9.307

# Normal Array
vn -0.940 0.299 0.163
vn -0.028 -0.379 0.925
vn -0.192 -0.593 -0.782
vn 0.583 -0.795 0.165
vn -0.825 0.249 0.507
vn -0.965 0.011 0.262
vn 0.661 -0.667 0.343
vn -0.029 -0.381 0.924
vn -0.412 0.037 0.910
vn 0.568 -0.719 0.401
vn -0.134 -0.531 -0.837
vn -0.417 -0.175 -0.892
vn -0.848 0.211 -0.486
vn 0.633 -0.764 0.125
vn 0.577 -0.709 -0.405
vn 0.502 -0.823 -0.268
vn 0.661 -0.746 0.080
vn 0.585 -0.788 -0.195
vn -0.405 -0.173 -0.898
vn 0.139 -0.544 -0.827
vn 0.198 -0.530 -0.825
vn 0.574 -0.701 -0.423
vn -0.578 -0.647 0.498
vn 0.533 -0.670 0.516
vn -0.602 -0.481 -0.638
vn 0.575 -0.504 -0.645
vn -0.775 0.567 0.280
vn 0.533 -0.707 0.465
vn -0.750 0.512 0.419
vn -0.836 0.443 0.323
vn -0.858 0.490 0.155
vn -0.671 0.169 0.722
vn -0.477 0.270 0.836
vn 0.708 -0.638 0.304
vn 0.600 -0.633 0.489
vn 0.645 -0.757 0.105
vn 0.520 -0.802 0.293
vn 0.720 -0.622 0.309
vn -0.860 0.401 -0.314
vn -0.889 0.359 -0.284
vn 0.708 -0.698 -0.102
vn 0.686 -0.722 0.087
vn 0.771 -0.636 0.024
vn 0.738 -0.669 -0.089
vn -0.673 0.226 -0.704
vn -0.480 -0.009 -0.877
vn 0.126 -0.428 -0.895
vn -0.326 -0.053 -0.944
vn 0.567 -0.704 -0.427
vn 0.537 -0.625 -0.566
vn 0.189 -0.425 -0.885
vn 0.653 -0.611 -0.447
vn -0.555 0.482 0.677
vn 0.585 0.453 0.673
vn -0.546 0.684 -0.484
vn 0.594 0.653 -0.470
vn -0.444 0.832 0.333
vn 0.786 -0.485 0.383
vn -0.731 0.606 0.313
vn -0.631 0.664 0.401
vn -0.643 0.669 0.373
vn -0.387 0.752 0.534
vn -0.459 0.769 0.445
vn 0.530 0.110 0.841
vn 0.606 -0.078 0.792
vn 0.849 -0.221 0.480
vn 0.780 -0.474 0.408
vn 0.728 -0.300 0.617
vn -0.746 0.664 -0.056
vn -0.789 0.609 0.079
vn -0.610 0.754 0.242
vn -0.677 0.735 0.035
vn 0.518 0.114 0.848
vn 0.857 -0.472 0.206
vn 0.791 -0.563 0.238
vn 0.804 -0.333 0.493
vn 0.755 -0.646 -0.114
vn 0.717 -0.686 -0.123
vn -0.684 0.429 -0.589
vn -0.634 0.732 -0.252
vn -0.611 0.424 -0.668
vn -0.391 0.126 -0.912
vn -0.438 0.098 -0.894
vn -0.182 -0.270 -0.946
vn -0.089 -0.080 -0.993
vn 0.595 -0.711 -0.375
vn 0.385 -0.592 -0.708
vn 0.364 -0.683 -0.633
vn 0.703 -0.678 -0.214
vn 0.561 -0.684 -0.467
vn -0.466 0.079 -0.881
vn -0.086 -0.282 -0.956
vn -0.082 0.006 -0.997
vn 0.511 -0.387 -0.767
vn -0.387 0.747 0.541
vn -0.288 0.748 0.598
vn -0.553 0.806 0.209
vn -0.554 0.781 0.288
vn -0.048 0.741 0.669
vn -0.307 0.799 0.517
vn -0.487 0.832 0.265
vn 0.820 -0.285 0.496
vn -0.039 0.743 0.669
vn 0.854 -0.360 0.376
vn -0.688 0.656 -0.311
vn -0.710 0.673 -0.206
vn -0.629 0.774 -0.068
vn -0.487 0.832 0.267
vn -0.111 0.813 0.571
vn -0.346 0.869 0.354
vn 0.904 0.165 0.394
vn 0.809 0.235 0.538
vn -0.627 0.764 -0.156
vn -0.600 -0.666 0.444
vn -0.356 0.897 0.263
vn -0.558 0.821 -0.122
vn 0.560 -0.689 0.460
vn 0.756 0.584 0.295
vn -0.585 -0.488 -0.648
vn 0.561 -0.498 -0.661
vn -0.550 0.475 0.686
vn 0.573 0.467 0.674
vn -0.539 0.679 -0.499
vn 0.580 0.656 -0.482

# Facets
f 1//1 3//1 2//1
f 4//2 2//2 3//2
f 5//3 3//3 1//3
f 5//4 4//4 3//4
f 6//5 2//5 7//5
f 6//6 1//6 2//6
f 8//7 4//7 9//7
f 2//8 4//8 8//8
f 7//9 2//9 8//9
f 10//10 8//10 9//10
f 1//11 11//11 5//11
f 12//12 11//12 1//12
f 6//13 12//13 1//13
f 4//14 5//14 9//14
f 9//15 5//15 11//15
f 9//16 11//16 13//16
f 9//17 14//17 10//17
f 9//18 13//18 14//18
f 15//19 11//19 12//19
f 15//20 13//20 11//20
f 15//21 16//21 13//21
f 16//22 14//22 13//22
f 17//23 19//23 18//23
f 20//24 18//24 19//24
f 21//25 19//25 17//25
f 21//26 20//26 19//26
f 22//27 24//27 23//27
f 25//28 23//28 24//28
f 26//29 7//29 27//29
f 26//30 6//30 7//30
f 24//31 22//31 8//31
f 8//32 22//32 27//32
f 8//33 27//33 7//33
f 28//34 10//34 29//34
f 28//35 8//35 10//35
f 25//36 8//36 28//36
f 24//37 8//37 25//37
f 30//38 28//38 29//38
f 12//39 6//39 26//39
f 12//40 26//40 31//40
f 32//41 29//41 14//41
f 29//42 10//42 14//42
f 29//43 33//43 30//43
f 29//44 32//44 33//44
f 34//45 12//45 31//45
f 34//46 15//46 12//46
f 35//47 16//47 15//47
f 35//48 15//48 34//48
f 16//49 32//49 14//49
f 36//50 32//50 16//50
f 35//51 36//51 16//51
f 36//52 33//52 32//52
f 17//53 18//53 37//53
f 37//54 18//54 20//54
f 21//55 17//55 37//55
f 37//56 20//56 21//56
f 22//57 23//57 38//57
f 38//58 23//58 25//58
f 26//59 27//59 39//59
f 39//60 27//60 40//60
f 27//61 22//61 40//61
f 40//62 22//62 41//62
f 41//63 22//63 38//63
f 41//64 43//64 42//64
f 41//65 28//65 43//65
f 38//66 28//66 41//66
f 25//67 28//67 38//67
f 43//68 28//68 30//68
f 31//69 39//69 44//69
f 31//70 26//70 39//70
f 40//71 45//71 39//71
f 45//72 44//72 39//72
f 42//73 43//73 46//73
f 33//74 43//74 30//74
f 47//75 43//75 33//75
f 46//76 43//76 47//76
f 33//77 48//77 47//77
f 49//78 47//78 48//78
f 34//79 31//79 44//79
f 50//80 44//80 45//80
f 34//81 44//81 50//81
f 35//82 34//82 50//82
f 51//83 52//83 50//83
f 50//84 52//84 36//84
f 50//85 36//85 35//85
f 33//86 36//86 48//86
f 48//87 36//87 52//87
f 48//88 52//88 53//88
f 48//89 54//89 49//89
f 48//90 53//90 54//90
f 55//91 52//91 51//91
f 55//92 53//92 52//92
f 55//93 56//93 53//93
f 56//94 54//94 53//94
f 40//95 41//95 57//95
f 57//96 41//96 42//96
f 45//97 57//97 58//97
f 45//98 40//98 57//98
f 59//99 42//99 46//99
f 57//100 42//100 59//100
f 58//101 57//101 59//101
f 60//102 46//102 47//102
f 60//103 59//103 46//103
f 60//104 47//104 49//104
f 50//105 45//105 58//105
f 58//106 51//106 50//106
f 61//107 51//107 58//107
f 59//108 61//108 58//108
f 59//109 60//109 62//109
f 59//110 62//110 61//110
f 62//111 49//111 54//111
f 62//112 60//112 49//112
f 51//113 61//113 55//113
f 63//114 65//114 64//114
f 56//115 61//115 62//115
f 55//116 61//116 56//116
f 65//117 63//117 66//117
f 62//118 54//118 56//118
f 67//119 63//119 64//119
f 67//120 66//120 63//120
f 64//121 65//121 68//121
f 68//122 65//122 66//122
f 67//123 64//123 68//123
f 68//124 66//124 67//124

# Thankyou for using Spin3D

