# Created using Spin3D

# Vertex Array
v 22.126 -47.209 21.680
v 22.126 -47.209 21.678
v 22.126 -47.207 21.680
v 22.128 -47.208 21.678
v 22.128 -47.207 21.681
v 22.128 -47.209 21.680
v 22.126 -47.209 21.682
v 22.128 -47.210 21.682
v 22.126 -47.211 21.680
v 22.128 -47.211 21.679
v 6.397 -39.707 28.458
v 6.466 -39.514 28.511
v 6.558 -39.910 28.532
v 6.702 -39.896 28.600
v 6.706 -39.864 28.513
v 6.817 -39.626 28.519
v 6.442 -39.221 28.236
v 6.756 -39.354 28.355
v 6.020 -38.648 28.171
v 6.197 -38.438 28.233
v 6.203 -39.189 28.315
v 6.515 -38.676 28.403
v 6.726 -39.251 28.509
v 6.817 -38.613 28.269
v 6.077 -38.508 28.045
v 6.086 -37.270 27.716
v 6.222 -38.132 27.854
v 6.439 -38.158 27.851
v 6.670 -38.455 28.040
v 6.302 -37.227 27.623
v 6.008 -37.993 27.999
v 6.163 -36.940 27.826
v 6.434 -37.537 28.124
v 6.702 -38.114 28.282
v 6.761 -37.425 28.047
v 6.149 -36.155 27.526
v 6.544 -37.480 27.727
v 6.704 -37.380 27.866
v 6.216 -36.340 27.480
v 6.453 -36.361 27.539
v 6.416 -36.289 27.772
v 6.624 -37.018 28.010
v 6.270 -35.671 27.521
v 6.416 -35.491 27.519
v 6.429 -35.492 27.447
v 6.585 -36.292 27.714
v 6.290 -35.591 27.407
v 6.345 -35.228 27.403
v 44.800 -15.589 -29.088
v 45.088 -15.305 -28.814
v 45.041 -15.611 -29.016
v 45.321 -15.394 -28.795
v 44.882 -15.713 -29.139
v 44.709 -15.642 -29.164
v 45.107 -15.603 -28.996
v 44.905 -15.573 -29.059
v 44.680 -15.156 -28.880
v 44.960 -14.959 -28.656
v 44.769 -15.319 -28.937
v 45.218 -14.985 -28.574
v 45.447 -15.074 -28.556
v 45.581 -15.198 -28.592
v 45.648 -15.066 -28.488
v 44.618 -15.443 -29.073
v 44.622 -15.213 -28.945
v 45.614 -15.113 -28.533
v 45.301 -15.275 -28.743
v 44.678 -15.429 -29.058
v 44.918 -15.287 -28.893
v 44.838 -14.883 -28.670
v 45.044 -14.630 -28.438
v 45.251 -14.733 -28.424
v 45.233 -14.630 -28.381
v 45.449 -14.929 -28.479
v 44.764 -15.134 -28.855
v 45.065 -14.600 -28.420
v 45.083 -14.911 -28.606
v -3.201 -22.080 56.080
v -3.200 -22.080 56.082
v -3.200 -22.081 56.080
v -3.198 -22.080 56.080
v -3.200 -22.080 56.079
v 7.971 -15.933 29.777
v 7.969 -15.931 29.776
v 7.967 -15.929 29.778
v 7.968 -15.929 29.777
v 7.971 -15.930 29.777
v -37.699 -8.868 -10.802
v -37.434 -8.774 -10.275
v -37.342 -9.427 -10.609
v -37.068 -9.272 -10.198
v -36.907 -9.328 -10.554
v -36.673 -8.830 -10.284
v -37.531 -9.055 -11.181
v -37.800 -7.860 -11.525
v -37.061 -9.109 -11.147
v -36.428 -8.231 -10.987
v -37.314 -8.364 -11.798
v -36.756 -8.200 -11.727
v 45.161 -14.518 -28.333
v -3.200 -22.079 56.081
v 7.976 -15.938 29.775
v 7.975 -15.934 29.776
v 7.972 -15.934 29.776
v 7.972 -15.932 29.776
v 7.971 -15.929 29.777
v 7.974 -15.936 29.777
v 7.973 -15.933 29.778
v -37.795 -7.728 -10.738
v -37.309 -7.351 -10.191
v -36.891 -8.312 -10.040
v -36.256 -7.514 -10.360
v -37.979 -6.565 -11.393
v -35.636 -6.057 -11.148
v -37.490 -7.157 -12.272
v -37.799 -5.843 -12.219
v -36.899 -7.179 -12.334
v -36.209 -6.811 -11.908
v -37.161 -5.786 -12.700
v -36.454 -5.789 -12.553
v 7.975 -15.937 29.777
v 7.975 -15.934 29.776
v -37.656 -5.901 -10.839
v -37.018 -5.891 -10.302
v -36.566 -6.721 -10.118
v -35.854 -5.941 -10.489
v -37.920 -5.190 -11.688
v -34.996 -4.476 -11.442
v -35.234 -4.509 -11.011
v -34.761 -3.925 -11.346
v -37.756 -4.066 -12.332
v -34.942 -3.808 -11.656
v -35.665 -4.662 -12.092
v -37.386 -4.260 -12.789
v -36.606 -4.393 -12.784
v -37.064 -4.706 -10.771
v -36.224 -4.875 -10.581
v 51.498 -1.160 -8.130
v 51.463 -1.067 -7.999
v 51.350 -1.138 -8.089
v 51.638 -1.113 -8.068
v -37.479 -3.985 -11.588
v -36.599 -3.569 -11.258
v -35.663 -3.563 -11.259
v -35.572 -3.287 -11.915
v -34.991 -3.607 -11.406
v 51.467 -1.208 -8.191
v 51.420 -1.195 -8.166
v 51.574 -1.191 -8.170
v -37.463 -3.181 -12.734
v -37.492 -3.060 -12.345
v -37.137 -2.682 -12.589
v -36.172 -3.428 -12.543
v 51.527 -1.210 -8.190
v -36.912 -3.189 -12.816
v 51.264 -1.055 -7.970
v 51.337 -1.016 -7.915
v 51.222 -1.032 -7.931
v 51.529 -1.004 -7.910
v 51.758 -1.064 -7.998
v 51.682 -1.030 -7.954
v 51.775 -1.022 -7.941
v -36.952 -2.846 -12.026
v -36.195 -2.904 -11.773
v 51.238 -1.072 -7.990
v 51.357 -1.123 -8.059
v 51.645 -1.136 -8.091
v 51.732 -1.052 -7.976
v -36.471 -2.747 -12.378
v 51.496 -1.168 -8.124
v 51.314 -1.042 -7.944
v 51.467 -1.009 -7.906
v 51.660 -1.011 -7.920
v 51.533 -1.074 -7.994
v -11.498 16.270 27.333
v -11.500 16.269 27.333
v -11.500 16.271 27.333
v -11.502 16.269 27.333
v -11.500 16.272 27.332
v -11.498 16.269 27.331
v -11.502 16.270 27.331
v -11.500 16.270 27.331
v -11.500 16.267 27.333
v -11.500 16.268 27.331

# Normal Array
vn -0.953 0.228 -0.202
vn 0.321 0.867 -0.380
vn -0.240 0.657 -0.715
vn 0.954 0.262 -0.148
vn -0.953 0.247 0.178
vn -0.270 0.720 0.639
vn 0.262 0.367 0.892
vn 0.956 0.082 0.281
vn -0.963 -0.201 -0.182
vn 0.296 -0.372 -0.880
vn -0.277 -0.713 -0.645
vn 0.937 -0.136 -0.321
vn -0.963 -0.181 0.201
vn -0.314 -0.637 0.704
vn 0.246 -0.893 0.377
vn 0.940 -0.313 0.132
vn -0.483 -0.065 0.873
vn 0.239 -0.914 -0.327
vn -0.421 -0.049 0.906
vn 0.901 -0.418 -0.115
vn -0.094 -0.406 -0.909
vn -0.001 -0.395 -0.919
vn 0.219 -0.308 -0.926
vn 0.647 -0.283 -0.708
vn -0.428 0.094 0.899
vn -0.600 -0.003 0.800
vn -0.524 0.087 0.847
vn -0.383 0.140 0.913
vn -0.138 0.142 0.980
vn -0.130 0.134 0.983
vn 0.373 0.115 0.921
vn 0.660 0.180 0.729
vn -0.599 -0.389 -0.700
vn -0.524 -0.215 -0.824
vn -0.237 -0.364 -0.901
vn -0.334 -0.401 -0.853
vn -0.335 -0.365 -0.869
vn -0.057 -0.340 -0.939
vn 0.317 -0.322 -0.892
vn 0.222 -0.303 -0.927
vn 0.839 -0.130 -0.528
vn 0.789 -0.134 -0.599
vn -0.353 -0.203 -0.914
vn -0.045 -0.244 -0.969
vn -0.533 0.206 0.821
vn -0.523 0.213 0.825
vn -0.454 0.224 0.862
vn -0.340 0.201 0.919
vn 0.043 0.196 0.980
vn -0.072 0.233 0.970
vn 0.726 0.149 0.671
vn 0.750 0.155 0.642
vn -0.822 -0.159 -0.547
vn -0.771 -0.158 -0.617
vn -0.971 0.171 0.168
vn -0.938 0.109 0.329
vn 0.427 -0.226 -0.876
vn 0.699 -0.135 -0.702
vn 0.795 -0.121 -0.594
vn 0.952 -0.013 -0.307
vn -0.703 -0.080 -0.706
vn -0.358 -0.182 -0.916
vn 0.198 -0.206 -0.958
vn 0.267 -0.139 -0.954
vn 0.227 -0.133 -0.965
vn 0.680 -0.067 -0.730
vn -0.430 0.239 0.871
vn -0.065 0.236 0.970
vn -0.156 0.266 0.951
vn 0.493 0.243 0.836
vn -0.335 0.285 0.898
vn -0.445 0.244 0.861
vn -0.797 0.204 0.569
vn 0.955 0.243 0.169
vn 0.318 0.287 0.904
vn 0.309 0.373 0.875
vn 0.955 0.064 -0.290
vn 0.709 0.298 0.639
vn -0.970 0.241 -0.002
vn -0.599 -0.020 -0.800
vn 0.805 -0.041 -0.591
vn 0.334 -0.090 -0.938
vn 0.228 -0.118 -0.966
vn 0.798 0.003 -0.603
vn -0.349 0.297 0.889
vn 0.931 0.325 0.165
vn -0.986 0.148 -0.070
vn 0.314 -0.058 -0.948
vn -0.288 -0.498 0.818
vn -0.258 -0.506 0.823
vn -0.286 -0.521 0.804
vn -0.329 -0.538 0.776
vn -0.178 -0.581 0.795
vn -0.153 -0.653 0.742
vn 0.298 0.434 -0.850
vn 0.329 0.425 -0.843
vn -0.330 -0.464 0.822
vn -0.294 -0.493 0.819
vn -0.296 -0.484 0.824
vn -0.310 -0.486 0.817
vn -0.254 -0.513 0.820
vn -0.259 -0.511 0.820
vn -0.262 -0.508 0.821
vn -0.255 -0.515 0.819
vn -0.347 -0.470 0.812
vn -0.450 -0.428 0.783
vn -0.348 -0.516 0.783
vn -0.326 -0.491 0.808
vn 0.322 0.454 -0.831
vn 0.334 0.428 -0.840
vn 0.360 0.427 -0.829
vn 0.573 0.306 -0.760
vn 0.107 0.482 -0.869
vn 0.116 0.456 -0.882
vn 0.284 0.460 -0.841
vn 0.291 0.472 -0.832
vn 0.329 0.447 -0.832
vn 0.309 0.469 -0.827
vn -0.357 -0.433 0.828
vn -0.365 -0.449 0.815
vn -0.293 -0.477 0.829
vn -0.312 -0.457 0.833
vn -0.146 -0.405 0.902
vn -0.206 -0.455 0.866
vn -0.250 -0.472 0.845
vn -0.270 -0.447 0.853
vn 0.221 0.535 -0.815
vn -0.620 -0.222 0.752
vn -0.856 0.397 0.330
vn 0.270 0.507 -0.819
vn 0.269 0.519 -0.812
vn 0.281 0.506 -0.816
vn 0.306 0.492 -0.815
vn 0.306 0.490 -0.816
vn 0.290 0.498 -0.817
vn 0.322 0.519 -0.792
vn 0.251 0.498 -0.830
vn 0.278 0.488 -0.827
vn 0.289 0.497 -0.818
vn 0.305 0.490 -0.817
vn -0.592 -0.654 0.472
vn 0.546 -0.683 0.485
vn -0.600 -0.479 -0.641
vn 0.572 -0.508 -0.644
vn -0.611 -0.599 -0.518
vn -0.561 -0.383 -0.734
vn -0.012 -0.163 0.987
vn 0.220 0.902 0.372
vn -0.808 -0.354 0.471
vn 0.187 -0.954 0.236
vn -0.682 -0.407 0.608
vn 0.718 -0.560 0.414
vn -0.825 -0.558 -0.090
vn -0.921 -0.284 -0.268
vn 0.251 -0.885 -0.392
vn -0.058 -0.846 -0.531
vn 0.912 -0.410 -0.031
vn 0.781 -0.492 -0.385
vn -0.703 -0.338 -0.626
vn -0.022 -0.662 -0.749
vn 0.268 -0.580 -0.769
vn 0.785 -0.498 -0.369
vn -0.292 -0.473 0.831
vn 0.006 -0.386 0.922
vn -0.691 0.043 0.722
vn 0.282 0.521 -0.806
vn -0.572 0.506 0.646
vn 0.603 0.481 0.637
vn -0.543 0.683 -0.488
vn 0.592 0.656 -0.468
vn -0.012 0.150 -0.989
vn -0.751 -0.601 -0.275
vn -0.007 0.085 -0.996
vn -0.244 -0.321 -0.915
vn -0.187 -0.046 -0.981
vn 0.229 0.606 -0.762
vn -0.678 -0.660 0.323
vn -0.660 -0.736 0.152
vn -0.081 -0.157 0.984
vn -0.486 -0.365 0.794
vn -0.233 0.131 0.964
vn -0.053 0.030 0.998
vn -0.757 0.028 0.653
vn -0.881 -0.100 0.462
vn -0.327 -0.094 0.940
vn -0.382 -0.021 0.924
vn 0.441 -0.224 0.869
vn 0.577 -0.137 0.806
vn -0.996 -0.085 0.020
vn -0.990 -0.140 0.029
vn 0.951 -0.298 0.079
vn 0.935 -0.332 0.122
vn -0.706 -0.346 -0.618
vn -0.840 -0.176 -0.514
vn -0.950 -0.101 -0.295
vn 0.245 -0.470 -0.848
vn -0.111 -0.377 -0.919
vn 0.618 -0.336 -0.710
vn 0.839 -0.381 -0.388
vn 0.881 -0.345 -0.323
vn -0.592 -0.107 -0.799
vn -0.111 -0.271 -0.956
vn 0.197 -0.214 -0.957
vn 0.614 -0.311 -0.726
vn 0.959 0.238 -0.155
vn 0.255 0.176 -0.951
vn 0.361 -0.061 -0.931
vn 0.482 0.627 -0.612
vn -0.501 -0.656 0.564
vn -0.170 -0.321 0.932
vn 0.446 0.049 0.894
vn 0.501 0.317 0.806
vn -0.635 0.183 0.751
vn -0.775 0.093 0.625
vn -0.167 0.082 0.983
vn -0.191 0.112 0.975
vn 0.510 -0.063 0.858
vn 0.513 -0.061 0.856
vn -0.904 0.092 0.417
vn -0.914 0.122 0.386
vn 0.853 -0.261 0.451
vn 0.901 -0.264 0.345
vn 0.918 -0.207 0.340
vn 0.809 -0.418 0.414
vn -0.976 -0.005 -0.217
vn -0.973 0.009 -0.233
vn 0.709 -0.266 -0.653
vn 0.695 -0.393 -0.602
vn 0.877 -0.257 -0.406
vn 0.795 -0.242 -0.557
vn -0.781 -0.021 -0.624
vn -0.589 -0.133 -0.797
vn 0.200 -0.138 -0.970
vn -0.003 -0.059 -0.998
vn 0.720 -0.238 -0.651
vn 0.577 -0.071 -0.814
vn -0.623 0.267 0.735
vn 0.040 0.237 0.971
vn -0.136 0.360 0.923
vn 0.291 0.182 0.939
vn -0.044 0.809 -0.587
vn -0.014 0.813 -0.582
vn -0.502 0.506 0.701
vn -0.706 0.314 0.635
vn -0.835 0.265 0.481
vn -0.115 0.431 0.895
vn -0.002 0.459 0.888
vn 0.147 0.904 0.401
vn 0.222 0.340 0.914
vn 0.260 0.353 0.899
vn 0.329 0.194 0.924
vn 0.230 0.338 0.913
vn -0.051 0.794 -0.605
vn -0.169 0.711 -0.683
vn 0.005 0.793 -0.609
vn -0.005 0.784 -0.621
vn -0.957 0.250 -0.149
vn -0.917 0.245 0.314
vn -0.903 0.305 0.303
vn -0.781 0.578 -0.237
vn 0.677 0.632 -0.377
vn 0.438 0.086 -0.895
vn 0.718 0.042 -0.695
vn 0.804 0.530 -0.271
vn -0.038 -0.914 0.404
vn 0.036 0.676 -0.736
vn -0.782 -0.024 -0.623
vn -0.132 0.355 -0.925
vn -0.146 0.040 -0.988
vn 0.002 -0.026 -1.000
vn 0.580 -0.058 -0.813
vn 0.364 0.068 -0.929
vn -0.036 0.839 -0.543
vn -0.039 0.806 -0.590
vn -0.031 0.836 -0.548
vn -0.036 0.833 -0.552
vn 0.020 0.804 -0.594
vn -0.015 0.811 -0.585
vn -0.024 0.829 -0.559
vn 0.015 0.800 -0.599
vn -0.502 0.503 0.703
vn -0.003 0.614 0.790
vn -0.189 0.670 0.717
vn 0.545 0.743 0.388
vn -0.092 0.807 -0.583
vn -0.068 0.794 -0.604
vn -0.114 -0.883 0.456
vn -0.193 -0.863 0.467
vn 0.068 -0.827 0.558
vn 0.113 0.714 -0.691
vn 0.193 0.718 -0.669
vn 0.092 -0.812 0.577
vn -0.578 0.512 0.636
vn -0.530 0.752 0.393
vn 0.005 0.961 0.278
vn -0.012 0.967 0.256
vn 0.604 0.428 -0.673
vn 0.521 0.854 -0.016
vn -0.005 -0.831 0.556
vn 0.004 -0.840 0.543
vn 0.168 -0.876 0.453
vn 0.051 -0.829 0.558
vn 0.305 0.499 -0.811
vn 0.426 0.385 -0.818
vn 0.007 -0.749 0.663
vn -0.063 0.991 0.122
vn -0.002 -0.745 0.667
vn 0.003 0.871 -0.492
vn 0.069 -0.203 0.977
vn -0.006 0.868 -0.496
vn -0.015 -0.825 0.566
vn -0.020 -0.821 0.571
vn 0.015 -0.814 0.580
vn 0.024 -0.796 0.605
vn 0.039 -0.818 0.574
vn 0.031 -0.787 0.616
vn 0.036 -0.791 0.611
vn 0.037 -0.784 0.620
vn 0.014 -0.812 0.583
vn 0.044 -0.815 0.577
vn 0.129 0.075 0.989
vn -0.242 -0.000 0.970
vn 0.513 0.768 0.384
vn 0.813 0.543 -0.211
vn -0.805 0.478 0.352
vn -0.487 0.858 -0.166
vn 0.279 0.325 -0.904
vn -0.185 0.442 -0.878
vn 0.214 -0.298 0.930
vn -0.155 -0.370 0.916
vn 0.488 -0.781 -0.390
vn 0.794 -0.566 0.220
vn -0.798 -0.428 -0.424
vn -0.521 -0.847 0.102
vn 0.157 -0.129 -0.979
vn -0.308 -0.034 -0.951

# Facets
f 1//1 3//1 2//1
f 4//2 3//2 5//2
f 4//3 2//3 3//3
f 6//4 4//4 5//4
f 7//5 3//5 1//5
f 7//6 5//6 3//6
f 7//7 8//7 5//7
f 8//8 6//8 5//8
f 1//9 2//9 9//9
f 10//10 2//10 4//10
f 10//11 9//11 2//11
f 10//12 4//12 6//12
f 7//13 1//13 9//13
f 9//14 8//14 7//14
f 9//15 10//15 8//15
f 10//16 6//16 8//16
f 11//17 13//17 12//17
f 14//18 13//18 15//18
f 14//19 12//19 13//19
f 16//20 14//20 15//20
f 17//21 13//21 11//21
f 17//22 15//22 13//22
f 17//23 18//23 15//23
f 18//24 16//24 15//24
f 19//25 21//25 20//25
f 12//26 21//26 11//26
f 20//27 21//27 12//27
f 22//28 20//28 12//28
f 12//29 14//29 23//29
f 22//30 12//30 23//30
f 16//31 23//31 14//31
f 16//32 24//32 23//32
f 25//33 21//33 19//33
f 26//34 27//34 25//34
f 27//35 17//35 25//35
f 25//36 17//36 21//36
f 21//37 17//37 11//37
f 27//38 28//38 17//38
f 17//39 28//39 29//39
f 17//40 29//40 18//40
f 18//41 24//41 16//41
f 18//42 29//42 24//42
f 30//43 27//43 26//43
f 30//44 28//44 27//44
f 19//45 20//45 31//45
f 20//46 32//46 31//46
f 33//47 32//47 20//47
f 22//48 33//48 20//48
f 22//49 23//49 34//49
f 33//50 22//50 34//50
f 24//51 34//51 23//51
f 24//52 35//52 34//52
f 25//53 19//53 31//53
f 25//54 31//54 26//54
f 26//55 31//55 32//55
f 26//56 32//56 36//56
f 37//57 29//57 28//57
f 38//58 29//58 37//58
f 24//59 29//59 38//59
f 35//60 24//60 38//60
f 39//61 26//61 36//61
f 39//62 30//62 26//62
f 30//63 37//63 28//63
f 40//64 37//64 30//64
f 39//65 40//65 30//65
f 40//66 38//66 37//66
f 32//67 33//67 41//67
f 42//68 33//68 34//68
f 42//69 41//69 33//69
f 42//70 34//70 35//70
f 43//71 41//71 44//71
f 32//72 41//72 43//72
f 36//73 32//73 43//73
f 45//74 44//74 46//74
f 46//75 44//75 41//75
f 46//76 41//76 42//76
f 46//77 35//77 38//77
f 46//78 42//78 35//78
f 47//79 36//79 43//79
f 47//80 39//80 36//80
f 40//81 45//81 46//81
f 47//82 45//82 40//82
f 39//83 47//83 40//83
f 46//84 38//84 40//84
f 43//85 44//85 48//85
f 48//86 44//86 45//86
f 47//87 43//87 48//87
f 48//88 45//88 47//88
f 49//89 51//89 50//89
f 52//90 50//90 51//90
f 49//91 53//91 51//91
f 49//92 54//92 53//92
f 51//93 55//93 52//93
f 51//94 53//94 55//94
f 56//95 53//95 54//95
f 56//96 55//96 53//96
f 57//97 59//97 58//97
f 50//98 59//98 49//98
f 58//99 59//99 50//99
f 60//100 58//100 50//100
f 61//101 52//101 62//101
f 50//102 52//102 61//102
f 60//103 50//103 61//103
f 63//104 61//104 62//104
f 57//105 64//105 59//105
f 57//106 65//106 64//106
f 54//107 49//107 64//107
f 49//108 59//108 64//108
f 66//109 62//109 67//109
f 67//110 62//110 52//110
f 67//111 52//111 55//111
f 66//112 63//112 62//112
f 68//113 64//113 65//113
f 68//114 54//114 64//114
f 56//115 54//115 68//115
f 69//116 56//116 68//116
f 56//117 67//117 55//117
f 56//118 69//118 67//118
f 57//119 58//119 70//119
f 58//120 71//120 70//120
f 72//121 71//121 58//121
f 60//122 72//122 58//122
f 72//123 74//123 73//123
f 61//124 74//124 72//124
f 60//125 61//125 72//125
f 74//126 61//126 63//126
f 65//127 70//127 75//127
f 65//128 57//128 70//128
f 71//129 76//129 70//129
f 70//130 76//130 77//130
f 70//131 77//131 75//131
f 76//132 73//132 77//132
f 73//133 74//133 77//133
f 77//134 74//134 67//134
f 67//135 74//135 66//135
f 74//136 63//136 66//136
f 68//137 65//137 75//137
f 75//138 69//138 68//138
f 75//139 77//139 69//139
f 77//140 67//140 69//140
f 78//141 80//141 79//141
f 81//142 79//142 80//142
f 82//143 80//143 78//143
f 82//144 81//144 80//144
f 83//145 85//145 84//145
f 86//146 84//146 85//146
f 87//147 85//147 83//147
f 87//148 86//148 85//148
f 88//149 90//149 89//149
f 91//150 90//150 92//150
f 91//151 89//151 90//151
f 93//152 91//152 92//152
f 88//153 94//153 90//153
f 88//154 95//154 94//154
f 96//155 92//155 90//155
f 94//156 96//156 90//156
f 92//157 97//157 93//157
f 92//158 96//158 97//158
f 98//159 94//159 95//159
f 98//160 96//160 94//160
f 98//161 99//161 96//161
f 99//162 97//162 96//162
f 71//163 72//163 100//163
f 100//164 72//164 73//164
f 76//165 71//165 100//165
f 100//166 73//166 76//166
f 78//167 79//167 101//167
f 101//168 79//168 81//168
f 82//169 78//169 101//169
f 101//170 81//170 82//170
f 102//171 104//171 103//171
f 84//172 104//172 83//172
f 103//173 104//173 84//173
f 105//174 103//174 84//174
f 86//175 105//175 84//175
f 86//176 106//176 105//176
f 107//177 104//177 102//177
f 107//178 83//178 104//178
f 87//179 83//179 107//179
f 108//180 87//180 107//180
f 87//181 106//181 86//181
f 87//182 108//182 106//182
f 109//183 89//183 110//183
f 109//184 88//184 89//184
f 89//185 91//185 111//185
f 110//186 89//186 111//186
f 93//187 111//187 91//187
f 93//188 112//188 111//188
f 95//189 88//189 109//189
f 95//190 109//190 113//190
f 112//191 93//191 97//191
f 114//192 112//192 97//192
f 95//193 115//193 98//193
f 116//194 115//194 95//194
f 113//195 116//195 95//195
f 99//196 98//196 117//196
f 98//197 115//197 117//197
f 118//198 99//198 117//198
f 97//199 99//199 118//199
f 114//200 97//200 118//200
f 119//201 115//201 116//201
f 119//202 117//202 115//202
f 119//203 120//203 117//203
f 120//204 118//204 117//204
f 102//205 103//205 121//205
f 122//206 103//206 105//206
f 122//207 121//207 103//207
f 122//208 105//208 106//208
f 107//209 102//209 121//209
f 121//210 108//210 107//210
f 121//211 122//211 108//211
f 122//212 106//212 108//212
f 123//213 110//213 124//213
f 123//214 109//214 110//214
f 110//215 111//215 125//215
f 124//216 110//216 125//216
f 112//217 125//217 111//217
f 112//218 126//218 125//218
f 113//219 109//219 123//219
f 113//220 123//220 127//220
f 128//221 129//221 114//221
f 114//222 129//222 126//222
f 114//223 126//223 112//223
f 130//224 129//224 128//224
f 116//225 113//225 127//225
f 116//226 127//226 131//226
f 132//227 128//227 133//227
f 133//228 128//228 114//228
f 133//229 114//229 118//229
f 132//230 130//230 128//230
f 134//231 116//231 131//231
f 134//232 119//232 116//232
f 135//233 120//233 119//233
f 135//234 119//234 134//234
f 120//235 133//235 118//235
f 120//236 135//236 133//236
f 123//237 124//237 136//237
f 137//238 124//238 125//238
f 137//239 136//239 124//239
f 137//240 125//240 126//240
f 138//241 140//241 139//241
f 139//242 141//242 138//242
f 142//243 136//243 143//243
f 123//244 136//244 142//244
f 127//245 123//245 142//245
f 136//246 137//246 143//246
f 137//247 144//247 143//247
f 144//248 146//248 145//248
f 144//249 129//249 146//249
f 137//250 129//250 144//250
f 126//251 129//251 137//251
f 146//252 129//252 130//252
f 147//253 140//253 138//253
f 148//254 140//254 147//254
f 149//255 138//255 141//255
f 147//256 138//256 149//256
f 131//257 151//257 150//257
f 142//258 151//258 131//258
f 127//259 142//259 131//259
f 150//260 151//260 152//260
f 146//261 132//261 145//261
f 145//262 132//262 133//262
f 145//263 133//263 153//263
f 146//264 130//264 132//264
f 147//265 154//265 148//265
f 149//266 154//266 147//266
f 134//267 131//267 150//267
f 155//268 150//268 152//268
f 134//269 150//269 155//269
f 135//270 134//270 155//270
f 135//271 153//271 133//271
f 135//272 155//272 153//272
f 156//273 158//273 157//273
f 156//274 139//274 140//274
f 156//275 157//275 139//275
f 157//276 159//276 139//276
f 141//277 161//277 160//277
f 141//278 139//278 161//278
f 139//279 159//279 161//279
f 161//280 162//280 160//280
f 142//281 143//281 163//281
f 164//282 143//282 144//282
f 164//283 163//283 143//283
f 164//284 144//284 145//284
f 156//285 165//285 158//285
f 165//286 156//286 140//286
f 165//287 140//287 166//287
f 166//288 140//288 148//288
f 160//289 168//289 167//289
f 160//290 167//290 141//290
f 141//291 167//291 149//291
f 162//292 168//292 160//292
f 151//293 142//293 163//293
f 163//294 152//294 151//294
f 169//295 152//295 163//295
f 164//296 169//296 163//296
f 169//297 145//297 153//297
f 169//298 164//298 145//298
f 148//299 170//299 166//299
f 154//300 170//300 148//300
f 167//301 154//301 149//301
f 170//302 154//302 167//302
f 155//303 152//303 169//303
f 169//304 153//304 155//304
f 157//305 158//305 171//305
f 157//306 172//306 159//306
f 171//307 172//307 157//307
f 159//308 173//308 161//308
f 172//309 173//309 159//309
f 161//310 173//310 162//310
f 158//311 165//311 171//311
f 166//312 171//312 165//312
f 166//313 174//313 171//313
f 174//314 172//314 171//314
f 168//315 174//315 167//315
f 168//316 173//316 174//316
f 173//317 172//317 174//317
f 162//318 173//318 168//318
f 166//319 170//319 174//319
f 167//320 174//320 170//320
f 175//321 177//321 176//321
f 178//322 176//322 177//322
f 175//323 179//323 177//323
f 175//324 180//324 179//324
f 177//325 181//325 178//325
f 177//326 179//326 181//326
f 182//327 179//327 180//327
f 182//328 181//328 179//328
f 175//329 176//329 183//329
f 183//330 176//330 178//330
f 180//331 183//331 184//331
f 180//332 175//332 183//332
f 184//333 178//333 181//333
f 184//334 183//334 178//334
f 182//335 180//335 184//335
f 184//336 181//336 182//336

# Thankyou for using Spin3D

