# Created using Spin3D

# Vertex Array
v -16.328 -41.003 14.037
v -16.048 -41.015 14.446
v -15.754 -41.181 14.070
v -15.453 -41.162 14.440
v -14.951 -41.223 13.965
v -14.844 -41.079 14.270
v -16.025 -41.014 13.455
v -16.470 -40.771 13.529
v -15.198 -41.131 13.342
v -14.363 -41.118 13.790
v -14.399 -41.099 13.267
v -14.050 -40.960 13.304
v -16.134 -40.748 12.934
v -15.480 -40.858 12.711
v -15.714 -40.532 12.404
v -14.632 -40.900 12.610
v -14.076 -40.821 12.700
v -14.955 -40.597 12.183
v -14.331 -40.641 12.230
v 6.841 -40.109 28.061
v 6.893 -40.163 28.098
v 6.908 -40.177 28.114
v 6.941 -40.215 28.141
v 6.937 -40.209 28.141
v 6.948 -40.226 28.149
v 6.865 -40.138 28.086
v 6.920 -40.195 28.130
v -16.427 -40.761 14.096
v -16.025 -40.754 14.385
v -15.490 -40.929 14.511
v -14.894 -40.815 14.196
v -16.434 -40.527 13.529
v -14.332 -40.887 13.769
v -14.112 -40.679 13.035
v -16.245 -40.493 12.920
v -15.770 -40.314 12.468
v -14.156 -40.549 12.424
v -15.261 -40.351 12.153
v -14.644 -40.403 12.181
v 6.831 -40.103 28.049
v 6.863 -40.139 28.075
v 6.919 -40.195 28.122
v 6.912 -40.194 28.123
v 6.791 -40.064 28.029
v 6.786 -40.060 28.020
v 6.796 -40.074 28.035
v 6.855 -40.135 28.080
v 6.766 -40.042 28.012
v -16.076 -40.499 13.843
v -15.447 -40.615 14.109
v -15.967 -40.324 13.058
v -15.340 -40.360 13.312
v -14.681 -40.578 13.573
v -15.250 -40.262 12.520
v -14.575 -40.396 12.745
v 6.814 -40.091 28.039
v 6.858 -40.138 28.076
v 6.794 -40.072 28.030
v 7.526 25.858 19.149
v 7.665 25.777 19.305
v 7.665 25.672 19.282
v 7.787 25.635 19.391
v 7.539 25.823 19.119
v 7.358 26.170 18.913
v 7.702 25.766 19.236
v 7.460 26.026 18.978
v 7.435 26.187 19.037
v 7.633 26.003 19.255
v 7.794 25.773 19.399
v 7.860 25.695 19.407
v 7.803 25.898 19.346
v 7.267 26.455 18.813
v 7.843 25.742 19.342
v 7.821 25.869 19.319
v 7.315 26.323 18.795
v 7.222 26.592 18.705
v 7.466 26.222 18.931
v 7.721 25.943 19.199
v 7.278 26.499 18.726
v 7.476 26.368 19.036
v 7.688 26.056 19.262
v 7.254 26.681 18.773
v 7.321 26.728 18.817
v 7.272 26.816 18.731
v 7.553 26.314 19.044
v 7.291 26.638 18.738
v 7.192 26.858 18.654
v 7.206 26.914 18.681

# Normal Array
vn -0.301 -0.937 0.179
vn -0.040 -0.996 0.085
vn -0.231 -0.944 0.237
vn 0.222 -0.909 0.351
vn -0.287 -0.949 -0.132
vn -0.495 -0.835 -0.242
vn -0.066 -0.991 -0.119
vn -0.164 -0.968 -0.192
vn 0.261 -0.905 0.336
vn 0.161 -0.986 -0.047
vn 0.025 -0.988 -0.155
vn 0.375 -0.925 -0.059
vn -0.494 -0.812 -0.311
vn -0.320 -0.761 -0.564
vn -0.280 -0.878 -0.389
vn -0.177 -0.929 -0.324
vn 0.011 -0.956 -0.294
vn -0.090 -0.928 -0.363
vn 0.381 -0.897 -0.222
vn 0.186 -0.920 -0.345
vn -0.243 -0.752 -0.613
vn -0.105 -0.846 -0.522
vn -0.016 -0.821 -0.571
vn 0.195 -0.876 -0.441
vn 0.777 0.576 -0.253
vn 0.813 0.547 -0.198
vn 0.810 0.370 -0.455
vn 0.837 0.545 -0.050
vn 0.317 0.761 0.566
vn 0.268 0.743 0.613
vn -0.157 0.503 0.850
vn -0.591 -0.044 0.805
vn -0.571 0.234 0.787
vn -0.752 -0.428 0.502
vn -0.063 -0.299 0.952
vn -0.147 0.237 0.960
vn 0.290 -0.236 0.927
vn 0.395 0.316 0.863
vn -0.916 -0.393 0.077
vn -0.987 0.145 0.072
vn 0.599 0.319 0.734
vn 0.705 -0.032 0.708
vn 0.848 -0.069 0.525
vn 0.760 0.529 0.378
vn -0.948 0.140 -0.286
vn -0.800 -0.375 -0.467
vn -0.670 -0.329 -0.665
vn -0.695 0.034 -0.718
vn 0.975 0.223 0.008
vn 0.963 0.268 -0.012
vn -0.517 0.117 -0.848
vn -0.284 -0.459 -0.842
vn 0.065 -0.117 -0.991
vn 0.039 -0.075 -0.996
vn 0.773 -0.326 -0.544
vn 0.500 0.513 -0.698
vn 0.536 -0.132 -0.834
vn 0.780 0.473 -0.409
vn 0.618 -0.075 -0.783
vn 0.435 -0.276 -0.857
vn 0.432 -0.330 -0.839
vn -0.355 -0.786 -0.507
vn 0.325 0.763 0.559
vn 0.677 0.735 -0.026
vn 0.756 0.551 -0.352
vn -0.208 0.459 0.864
vn -0.479 0.164 0.862
vn -0.463 0.218 0.859
vn -0.675 -0.173 0.717
vn -0.675 -0.122 0.728
vn 0.676 0.736 -0.025
vn -0.161 0.482 0.861
vn -0.321 0.846 0.427
vn 0.109 0.778 0.619
vn -0.014 0.905 0.426
vn 0.180 0.766 0.617
vn -0.232 0.956 0.181
vn -0.378 0.854 0.357
vn 0.043 0.950 0.309
vn -0.031 0.976 0.214
vn 0.440 0.779 0.447
vn 0.250 0.873 0.418
vn 0.180 0.930 0.321
vn 0.491 0.788 0.371
vn -0.480 0.872 -0.100
vn -0.463 0.876 -0.139
vn -0.098 0.995 -0.015
vn 0.006 0.992 0.124
vn 0.219 0.947 0.236
vn 0.148 0.979 0.138
vn 0.442 0.883 0.156
vn 0.389 0.888 0.245
vn -0.074 0.969 -0.234
vn 0.092 0.967 -0.239
vn 0.207 0.978 -0.038
vn 0.309 0.950 -0.050
vn 0.115 -0.524 -0.844
vn -0.208 -0.735 -0.646
vn -0.209 -0.720 -0.662
vn -0.355 -0.783 -0.510
vn -0.456 -0.725 -0.517
vn 0.416 -0.159 -0.895
vn -0.750 -0.654 0.100
vn -0.730 -0.682 0.039
vn -0.602 -0.759 -0.250
vn -0.729 -0.683 0.041
vn -0.432 -0.725 -0.537
vn -0.761 -0.639 0.109
vn -0.774 -0.136 0.618
vn -0.685 -0.156 0.712
vn -0.849 -0.488 0.203
vn -0.905 -0.415 0.095
vn 0.471 -0.528 -0.706
vn 0.370 -0.520 -0.770
vn -0.480 -0.619 -0.622
vn 0.443 -0.389 -0.808
vn -0.717 0.052 0.695
vn -0.741 0.023 0.671
vn -0.171 -0.052 0.984
vn -0.591 -0.018 0.806
vn -0.586 0.095 0.805
vn 0.322 0.355 0.877
vn -0.846 -0.054 0.531
vn -0.842 -0.085 0.533
vn 0.334 -0.719 -0.609
vn 0.541 -0.472 -0.696
vn 0.911 0.331 0.246
vn 0.977 0.139 -0.164
vn -0.481 -0.619 -0.620
vn -0.925 -0.359 -0.122
vn -0.952 -0.308 -0.001
vn 0.573 -0.209 -0.793
vn 0.602 -0.205 -0.772
vn 0.583 -0.222 -0.782
vn 0.563 -0.223 -0.796
vn 0.771 0.017 -0.637
vn -0.382 -0.407 -0.830
vn 0.586 -0.185 -0.789
vn -0.665 0.151 0.732
vn -0.390 0.279 0.878
vn -0.427 0.322 0.845
vn -0.112 0.399 0.910
vn -0.627 0.191 0.755
vn -0.661 0.150 0.735
vn -0.750 0.076 0.657
vn 0.870 0.493 0.010
vn 0.340 0.592 0.731
vn 0.433 0.703 0.563
vn 0.854 0.521 0.011
vn 0.626 0.668 0.402
vn 0.489 -0.111 -0.865
vn -0.895 -0.017 0.446
vn -0.915 0.022 0.404
vn 0.706 0.047 -0.707
vn 0.787 0.059 -0.614
vn 0.778 0.038 -0.627
vn 0.762 0.074 -0.644
vn 0.793 0.106 -0.600
vn 0.408 0.045 -0.912
vn 0.731 -0.007 -0.682
vn -0.621 0.173 0.764
vn 0.767 0.613 0.192
vn -0.885 -0.000 0.465
vn 0.725 0.143 -0.674

# Facets
f 1//1 3//1 2//1
f 4//2 3//2 5//2
f 4//3 2//3 3//3
f 6//4 4//4 5//4
f 1//5 7//5 3//5
f 1//6 8//6 7//6
f 9//7 5//7 3//7
f 7//8 9//8 3//8
f 5//9 10//9 6//9
f 11//10 10//10 5//10
f 9//11 11//11 5//11
f 12//12 10//12 11//12
f 13//13 7//13 8//13
f 14//14 13//14 15//14
f 7//15 13//15 14//15
f 9//16 7//16 14//16
f 16//17 11//17 9//17
f 14//18 16//18 9//18
f 11//19 17//19 12//19
f 11//20 16//20 17//20
f 18//21 14//21 15//21
f 18//22 16//22 14//22
f 18//23 19//23 16//23
f 19//24 17//24 16//24
f 20//25 22//25 21//25
f 23//26 22//26 24//26
f 23//27 21//27 22//27
f 25//28 23//28 24//28
f 26//29 22//29 20//29
f 26//30 24//30 22//30
f 26//31 27//31 24//31
f 27//32 25//32 24//32
f 28//33 2//33 29//33
f 28//34 1//34 2//34
f 2//35 4//35 30//35
f 29//36 2//36 30//36
f 6//37 30//37 4//37
f 6//38 31//38 30//38
f 8//39 1//39 28//39
f 8//40 28//40 32//40
f 31//41 6//41 33//41
f 6//42 10//42 33//42
f 12//43 33//43 10//43
f 12//44 34//44 33//44
f 35//45 8//45 32//45
f 35//46 13//46 8//46
f 13//47 35//47 15//47
f 35//48 36//48 15//48
f 34//49 12//49 17//49
f 37//50 34//50 17//50
f 38//51 15//51 36//51
f 38//52 18//52 15//52
f 39//53 19//53 18//53
f 39//54 18//54 38//54
f 19//55 37//55 17//55
f 19//56 39//56 37//56
f 40//57 21//57 41//57
f 40//58 20//58 21//58
f 21//59 23//59 42//59
f 41//60 21//60 42//60
f 25//61 42//61 23//61
f 25//62 43//62 42//62
f 20//63 44//63 26//63
f 45//64 44//64 20//64
f 40//65 45//65 20//65
f 44//66 46//66 26//66
f 26//67 46//67 47//67
f 26//68 47//68 27//68
f 27//69 43//69 25//69
f 27//70 47//70 43//70
f 48//71 44//71 45//71
f 48//72 46//72 44//72
f 28//73 29//73 49//73
f 50//74 29//74 30//74
f 50//75 49//75 29//75
f 50//76 30//76 31//76
f 32//77 49//77 51//77
f 32//78 28//78 49//78
f 49//79 50//79 52//79
f 49//80 52//80 51//80
f 53//81 31//81 33//81
f 50//82 31//82 53//82
f 52//83 50//83 53//83
f 53//84 33//84 34//84
f 35//85 32//85 51//85
f 51//86 36//86 35//86
f 54//87 36//87 51//87
f 52//88 54//88 51//88
f 52//89 53//89 55//89
f 52//90 55//90 54//90
f 55//91 34//91 37//91
f 55//92 53//92 34//92
f 38//93 36//93 54//93
f 54//94 39//94 38//94
f 54//95 55//95 39//95
f 55//96 37//96 39//96
f 40//97 41//97 56//97
f 57//98 41//98 42//98
f 57//99 56//99 41//99
f 57//100 42//100 43//100
f 45//101 56//101 58//101
f 45//102 40//102 56//102
f 58//103 47//103 46//103
f 57//104 47//104 58//104
f 56//105 57//105 58//105
f 57//106 43//106 47//106
f 48//107 45//107 58//107
f 58//108 46//108 48//108
f 59//109 61//109 60//109
f 62//110 60//110 61//110
f 59//111 63//111 61//111
f 59//112 64//112 63//112
f 61//113 65//113 62//113
f 61//114 63//114 65//114
f 66//115 63//115 64//115
f 66//116 65//116 63//116
f 67//117 60//117 68//117
f 67//118 59//118 60//118
f 69//119 62//119 70//119
f 60//120 62//120 69//120
f 68//121 60//121 69//121
f 71//122 69//122 70//122
f 64//123 59//123 67//123
f 64//124 67//124 72//124
f 73//125 70//125 65//125
f 70//126 62//126 65//126
f 70//127 74//127 71//127
f 70//128 73//128 74//128
f 64//129 75//129 66//129
f 76//130 75//130 64//130
f 72//131 76//131 64//131
f 77//132 66//132 75//132
f 77//133 65//133 66//133
f 78//134 65//134 77//134
f 73//135 65//135 78//135
f 78//136 74//136 73//136
f 79//137 75//137 76//137
f 79//138 77//138 75//138
f 67//139 68//139 80//139
f 81//140 68//140 69//140
f 81//141 80//141 68//141
f 81//142 69//142 71//142
f 82//143 80//143 83//143
f 67//144 80//144 82//144
f 72//145 67//145 82//145
f 84//146 83//146 85//146
f 85//147 83//147 80//147
f 85//148 80//148 81//148
f 85//149 71//149 74//149
f 85//150 81//150 71//150
f 76//151 87//151 86//151
f 82//152 87//152 76//152
f 72//153 82//153 76//153
f 87//154 84//154 86//154
f 84//155 85//155 86//155
f 86//156 85//156 77//156
f 77//157 85//157 78//157
f 85//158 74//158 78//158
f 79//159 76//159 86//159
f 86//160 77//160 79//160
f 82//161 83//161 88//161
f 88//162 83//162 84//162
f 87//163 82//163 88//163
f 88//164 84//164 87//164

# Thankyou for using Spin3D

