# Created using Spin3D

# Vertex Array
v 38.234 -14.318 -22.572
v 38.214 -14.318 -22.549
v 38.215 -14.307 -22.562
v 38.259 -14.323 -22.591
v 38.237 -14.329 -22.564
v 38.261 -14.321 -22.591
v 38.239 -14.300 -22.595
v 38.266 -14.281 -22.638
v 38.268 -14.303 -22.618
v 38.283 -14.303 -22.630
v 38.290 -14.285 -22.656
v 24.052 -19.139 17.175
v 24.053 -19.139 17.177
v 24.053 -19.140 17.175
v 24.054 -19.139 17.175
v 24.053 -19.139 17.174
v 38.216 -14.307 -22.563
v 38.208 -14.301 -22.562
v 38.235 -14.318 -22.570
v 38.268 -14.301 -22.617
v 38.230 -14.289 -22.598
v 38.257 -14.274 -22.636
v 38.291 -14.286 -22.657
v 38.284 -14.273 -22.662
v 24.053 -19.138 17.176
v 38.229 -14.288 -22.596
v 38.241 -14.298 -22.595
v 38.265 -14.280 -22.638
v 6.495 9.754 9.633
v 6.496 9.754 9.634
v 6.496 9.753 9.633
v 6.498 9.754 9.633
v 6.496 9.755 9.632
v 6.496 9.756 9.633
v 10.792 31.151 76.224
v 11.113 31.086 77.018
v 11.213 30.905 76.757
v 11.655 31.051 77.599
v 11.550 31.145 76.624
v 12.019 31.386 77.425
v 10.936 31.289 75.753
v 10.258 31.967 74.903
v 11.816 31.576 76.378
v 11.218 31.914 75.276
v 10.517 32.086 74.479
v 11.898 31.220 78.297
v 12.105 31.293 78.509
v 12.062 31.195 78.231
v 12.103 31.630 78.052
v 10.621 31.698 76.214
v 11.350 31.640 77.487
v 12.128 31.865 77.424
v 9.968 32.671 74.858
v 11.681 32.057 75.745
v 11.896 32.169 76.443
v 9.872 32.876 73.407
v 9.378 33.437 73.162
v 10.193 33.408 73.179
v 11.145 33.073 74.711
v 6.752 36.827 68.337
v 7.070 36.094 69.044
v 6.939 36.112 68.465
v 9.055 34.351 71.570
v 7.314 35.829 68.928
v 7.117 36.219 68.308
v 11.927 31.504 78.296
v 10.482 32.680 75.950
v 11.134 32.600 76.928
v 11.713 32.121 77.687
v 11.815 32.530 76.991
v 9.369 34.198 73.609
v 11.433 33.217 75.623
v 6.957 36.867 69.525
v 7.932 36.494 71.246
v 8.039 35.340 70.687
v 10.476 34.481 73.898
v 10.059 34.652 72.683
v 6.261 38.172 68.624
v 7.895 36.003 69.045
v 8.985 35.670 70.593
v 7.147 36.896 67.846
v 6.688 37.826 67.762
v 7.589 37.120 67.734
v 8.085 37.107 68.372
v 7.182 37.662 67.382
v 7.570 37.902 67.451
v 10.518 33.617 75.526
v 11.337 32.963 76.765
v 9.532 35.260 73.287
v 10.977 33.748 75.510
v 6.571 38.215 69.633
v 7.366 37.908 70.441
v 8.277 37.014 71.356
v 8.920 36.523 71.271
v 5.761 39.330 68.855
v 6.025 39.142 69.134
v 5.872 38.973 68.971
v 8.249 37.532 69.071
v 5.879 39.080 68.611
v 6.364 38.758 68.098
v 7.659 38.496 68.177
v 7.443 38.522 67.580
v 7.871 38.059 67.870
v 7.004 38.386 67.502
v 6.774 38.818 69.465
v 7.747 37.969 70.353
v 6.197 39.251 68.691
v 6.786 39.107 68.818
v 7.575 38.428 69.237
v 6.957 38.920 68.149
v 30.031 72.594 -4.190
v 30.031 72.594 -4.192
v 30.031 72.596 -4.191
v 30.032 72.595 -4.192
v 30.032 72.596 -4.190
v 30.033 72.594 -4.190
v 30.031 72.594 -4.188
v 30.032 72.593 -4.189
v 30.031 72.592 -4.190
v 30.032 72.592 -4.191

# Normal Array
vn 0.627 0.556 0.545
vn 0.557 0.604 0.570
vn 0.610 0.589 0.530
vn -0.443 0.885 -0.144
vn 0.626 0.535 0.567
vn 0.554 0.584 0.593
vn 0.553 0.587 0.592
vn 0.571 0.563 0.597
vn -0.470 0.871 0.144
vn 0.481 0.626 0.614
vn 0.551 0.586 0.594
vn 0.456 0.674 0.581
vn -0.568 -0.652 0.502
vn 0.568 -0.652 0.502
vn -0.583 -0.472 -0.661
vn 0.583 -0.472 -0.661
vn -0.526 -0.627 -0.574
vn 0.489 0.634 0.600
vn -0.617 -0.462 -0.637
vn -0.548 -0.615 -0.567
vn -0.597 -0.466 -0.653
vn -0.567 -0.564 -0.600
vn 0.515 0.662 0.544
vn 0.568 0.618 0.543
vn 0.538 0.602 0.591
vn 0.583 0.528 0.618
vn -0.613 -0.530 -0.586
vn -0.592 -0.587 -0.552
vn 0.576 0.517 0.633
vn 0.570 0.526 0.632
vn 0.715 0.475 0.513
vn 0.705 0.517 0.485
vn -0.564 0.447 0.695
vn 0.564 0.447 0.695
vn -0.583 0.661 -0.473
vn 0.583 0.661 -0.473
vn -0.527 -0.627 -0.574
vn -0.544 -0.590 -0.597
vn -0.495 -0.652 -0.575
vn -0.549 -0.587 -0.595
vn 0.816 -0.485 0.314
vn 0.771 -0.543 0.333
vn -0.558 -0.584 -0.590
vn -0.504 -0.660 -0.557
vn -0.555 -0.627 -0.547
vn -0.528 -0.637 -0.561
vn -0.551 -0.571 -0.609
vn -0.590 -0.516 -0.621
vn -0.591 -0.656 0.469
vn 0.564 -0.676 0.474
vn -0.586 -0.470 -0.660
vn 0.573 -0.487 -0.660
vn -0.578 0.483 0.658
vn 0.584 0.469 0.663
vn -0.568 0.671 -0.476
vn 0.589 0.655 -0.473
vn -0.684 -0.695 0.219
vn 0.537 -0.833 -0.137
vn -0.458 -0.803 0.380
vn 0.632 -0.762 -0.141
vn -0.145 -0.937 -0.318
vn -0.389 -0.846 -0.365
vn 0.574 -0.643 -0.508
vn 0.570 -0.646 -0.509
vn 0.408 -0.810 -0.422
vn 0.751 -0.609 -0.257
vn -0.313 -0.848 -0.428
vn 0.489 -0.658 -0.573
vn -0.013 -0.942 0.336
vn 0.985 -0.136 -0.105
vn -0.868 -0.047 0.495
vn -0.899 -0.275 0.340
vn -0.050 -0.967 0.252
vn -0.848 -0.366 0.383
vn -0.716 -0.246 0.654
vn 0.603 -0.769 -0.214
vn 0.988 -0.127 -0.082
vn 0.974 -0.221 -0.044
vn -0.936 -0.290 0.200
vn -0.914 -0.366 0.178
vn 0.688 -0.499 -0.526
vn 0.955 -0.099 -0.279
vn 0.972 -0.108 -0.209
vn 0.934 -0.212 -0.287
vn -0.319 -0.844 -0.431
vn -0.668 -0.700 -0.252
vn -0.917 -0.369 0.153
vn 0.451 -0.567 -0.689
vn 0.605 -0.478 -0.636
vn 0.807 -0.217 -0.549
vn 0.726 -0.264 -0.635
vn 0.933 0.171 -0.315
vn -0.954 -0.213 0.209
vn -0.661 -0.700 -0.268
vn -0.698 -0.703 0.136
vn 0.473 -0.572 -0.670
vn -0.533 -0.282 -0.797
vn 0.030 -0.842 -0.538
vn -0.727 0.078 0.683
vn 0.235 0.783 0.576
vn -0.819 0.140 0.557
vn -0.868 0.010 0.497
vn -0.804 0.086 0.588
vn -0.745 0.319 0.586
vn -0.693 0.240 0.680
vn 0.332 0.718 0.612
vn 0.459 0.735 0.499
vn 0.813 0.534 0.232
vn -0.905 -0.014 0.426
vn -0.905 -0.006 0.426
vn 0.924 0.367 -0.105
vn 0.935 0.344 -0.088
vn -0.859 -0.285 0.425
vn -0.915 -0.241 0.322
vn -0.918 -0.208 0.337
vn -0.952 -0.162 0.258
vn 0.920 0.277 -0.277
vn 0.830 -0.127 -0.544
vn 0.933 0.161 -0.320
vn 0.913 0.245 -0.327
vn -0.869 -0.347 0.354
vn -0.953 -0.247 0.174
vn -0.913 -0.369 0.171
vn -0.709 -0.698 0.098
vn 0.333 -0.864 -0.378
vn -0.463 -0.806 -0.369
vn -0.537 -0.797 -0.275
vn 0.709 -0.395 -0.584
vn 0.565 -0.472 -0.677
vn 0.863 -0.104 -0.494
vn -0.691 -0.386 -0.611
vn -0.688 -0.395 -0.610
vn -0.903 -0.256 -0.344
vn 0.338 -0.745 -0.575
vn 0.520 -0.496 -0.695
vn 0.197 -0.723 -0.662
vn 0.673 -0.466 -0.574
vn 0.698 -0.457 -0.552
vn -0.640 -0.377 -0.669
vn 0.046 -0.520 -0.853
vn 0.350 -0.311 -0.884
vn 0.771 -0.199 -0.604
vn -0.789 0.279 0.548
vn -0.446 0.563 0.696
vn -0.510 0.574 0.641
vn 0.438 0.746 0.502
vn -0.780 0.288 0.555
vn -0.783 0.281 0.555
vn -0.208 0.801 0.561
vn -0.191 0.749 0.634
vn 0.739 0.662 0.127
vn 0.545 0.772 0.327
vn -0.679 0.139 0.721
vn -0.860 -0.281 0.426
vn -0.648 0.310 0.695
vn -0.660 0.291 0.693
vn -0.578 0.216 0.787
vn 0.899 0.351 -0.260
vn 0.428 0.819 0.383
vn 0.542 0.816 0.203
vn 0.606 0.744 0.282
vn 0.750 0.658 0.066
vn -0.727 -0.003 0.686
vn -0.709 -0.038 0.705
vn -0.814 -0.513 0.272
vn -0.913 -0.285 0.292
vn 0.898 0.314 -0.308
vn 0.956 0.224 -0.189
vn -0.937 -0.329 -0.117
vn -0.913 -0.386 -0.134
vn -0.780 -0.336 -0.527
vn -0.908 -0.179 -0.378
vn 0.785 0.563 -0.259
vn 0.878 0.474 -0.068
vn 0.960 0.073 -0.270
vn 0.945 0.128 -0.300
vn -0.671 0.034 -0.741
vn -0.614 -0.020 -0.789
vn 0.726 0.278 -0.629
vn 0.104 0.222 -0.970
vn 0.065 0.178 -0.982
vn 0.825 -0.107 -0.555
vn -0.575 0.395 0.717
vn 0.039 0.734 0.678
vn 0.035 0.742 0.670
vn 0.595 0.715 0.367
vn 0.288 0.898 0.332
vn -0.253 0.339 0.906
vn 0.252 0.912 0.322
vn 0.132 0.904 0.407
vn 0.482 0.834 0.268
vn 0.490 0.792 0.364
vn 0.801 0.597 0.030
vn 0.709 0.684 0.172
vn -0.161 0.649 -0.744
vn -0.220 0.719 -0.659
vn -0.145 0.740 -0.656
vn 0.272 0.942 -0.195
vn 0.515 0.844 -0.149
vn 0.511 0.854 0.096
vn 0.664 0.747 -0.040
vn 0.804 0.586 0.102
vn -0.152 0.758 -0.635
vn -0.123 0.762 -0.636
vn -0.963 0.179 -0.201
vn 0.264 0.888 -0.376
vn -0.290 0.635 -0.715
vn 0.946 0.299 -0.127
vn -0.962 0.204 0.182
vn -0.308 0.710 0.633
vn 0.266 0.375 0.888
vn 0.943 0.130 0.307
vn -0.963 -0.202 -0.181
vn 0.286 -0.360 -0.888
vn -0.302 -0.710 -0.636
vn 0.944 -0.124 -0.306
vn -0.963 -0.179 0.201
vn -0.259 -0.643 0.720
vn 0.278 -0.874 0.399
vn 0.942 -0.306 0.140

# Facets
f 1//1 3//1 2//1
f 1//2 5//2 4//2
f 2//3 5//3 1//3
f 5//4 6//4 4//4
f 1//5 7//5 3//5
f 7//6 9//6 8//6
f 7//7 1//7 9//7
f 1//8 4//8 9//8
f 10//9 4//9 6//9
f 9//10 4//10 10//10
f 9//11 11//11 8//11
f 10//12 11//12 9//12
f 12//13 14//13 13//13
f 15//14 13//14 14//14
f 16//15 14//15 12//15
f 16//16 15//16 14//16
f 2//17 18//17 17//17
f 3//18 18//18 2//18
f 5//19 2//19 19//19
f 2//20 17//20 19//20
f 19//21 6//21 5//21
f 20//22 6//22 19//22
f 3//23 21//23 18//23
f 7//24 21//24 3//24
f 21//25 7//25 8//25
f 22//26 21//26 8//26
f 6//27 20//27 10//27
f 20//28 23//28 10//28
f 8//29 24//29 22//29
f 11//30 24//30 8//30
f 23//31 11//31 10//31
f 24//32 11//32 23//32
f 12//33 13//33 25//33
f 25//34 13//34 15//34
f 16//35 12//35 25//35
f 25//36 15//36 16//36
f 17//37 18//37 26//37
f 17//38 27//38 19//38
f 26//39 27//39 17//39
f 19//40 27//40 20//40
f 18//41 21//41 26//41
f 22//42 26//42 21//42
f 22//43 28//43 26//43
f 28//44 27//44 26//44
f 20//45 28//45 23//45
f 27//46 28//46 20//46
f 22//47 24//47 28//47
f 23//48 28//48 24//48
f 29//49 31//49 30//49
f 32//50 30//50 31//50
f 33//51 31//51 29//51
f 33//52 32//52 31//52
f 29//53 30//53 34//53
f 34//54 30//54 32//54
f 33//55 29//55 34//55
f 34//56 32//56 33//56
f 35//57 37//57 36//57
f 38//58 37//58 39//58
f 38//59 36//59 37//59
f 40//60 38//60 39//60
f 35//61 41//61 37//61
f 35//62 42//62 41//62
f 39//63 44//63 43//63
f 41//64 44//64 39//64
f 37//65 41//65 39//65
f 43//66 40//66 39//66
f 45//67 41//67 42//67
f 45//68 44//68 41//68
f 46//69 48//69 47//69
f 49//70 47//70 48//70
f 50//71 36//71 51//71
f 50//72 35//72 36//72
f 48//73 46//73 38//73
f 38//74 46//74 51//74
f 38//75 51//75 36//75
f 40//76 48//76 38//76
f 49//77 48//77 40//77
f 52//78 49//78 40//78
f 42//79 35//79 50//79
f 42//80 50//80 53//80
f 54//81 43//81 44//81
f 55//82 43//82 54//82
f 40//83 43//83 55//83
f 52//84 40//84 55//84
f 42//85 56//85 45//85
f 57//86 56//86 42//86
f 53//87 57//87 42//87
f 58//88 45//88 56//88
f 58//89 44//89 45//89
f 59//90 44//90 58//90
f 54//91 44//91 59//91
f 59//92 55//92 54//92
f 60//93 62//93 61//93
f 56//94 57//94 63//94
f 64//95 61//95 62//95
f 63//96 58//96 56//96
f 65//97 62//97 60//97
f 65//98 64//98 62//98
f 46//99 47//99 66//99
f 66//100 47//100 49//100
f 67//101 51//101 68//101
f 67//102 50//102 51//102
f 46//103 66//103 51//103
f 51//104 66//104 69//104
f 51//105 69//105 68//105
f 49//106 69//106 66//106
f 70//107 69//107 49//107
f 52//108 70//108 49//108
f 53//109 50//109 67//109
f 53//110 67//110 71//110
f 70//111 52//111 55//111
f 72//112 70//112 55//112
f 73//113 75//113 74//113
f 74//114 75//114 71//114
f 71//115 75//115 57//115
f 71//116 57//116 53//116
f 76//117 59//117 77//117
f 59//118 58//118 77//118
f 59//119 72//119 55//119
f 59//120 76//120 72//120
f 73//121 61//121 75//121
f 60//122 61//122 73//122
f 78//123 60//123 73//123
f 61//124 64//124 75//124
f 75//125 64//125 79//125
f 63//126 57//126 75//126
f 79//127 63//127 75//127
f 80//128 63//128 79//128
f 58//129 63//129 80//129
f 77//130 58//130 80//130
f 60//131 81//131 65//131
f 82//132 81//132 60//132
f 78//133 82//133 60//133
f 64//134 65//134 79//134
f 79//135 65//135 81//135
f 79//136 81//136 83//136
f 79//137 84//137 80//137
f 79//138 83//138 84//138
f 85//139 81//139 82//139
f 85//140 83//140 81//140
f 85//141 86//141 83//141
f 86//142 84//142 83//142
f 67//143 68//143 87//143
f 88//144 68//144 69//144
f 88//145 87//145 68//145
f 88//146 69//146 70//146
f 71//147 87//147 89//147
f 71//148 67//148 87//148
f 87//149 88//149 90//149
f 87//150 90//150 89//150
f 90//151 70//151 72//151
f 90//152 88//152 70//152
f 91//153 74//153 92//153
f 91//154 73//154 74//154
f 71//155 89//155 74//155
f 74//156 89//156 93//156
f 74//157 93//157 92//157
f 94//158 76//158 77//158
f 89//159 76//159 94//159
f 90//160 76//160 89//160
f 93//161 89//161 94//161
f 90//162 72//162 76//162
f 95//163 97//163 96//163
f 96//164 97//164 91//164
f 91//165 97//165 78//165
f 91//166 78//166 73//166
f 94//167 77//167 80//167
f 98//168 94//168 80//168
f 99//169 97//169 95//169
f 97//170 99//170 78//170
f 78//171 99//171 100//171
f 78//172 100//172 82//172
f 101//173 103//173 102//173
f 98//174 103//174 101//174
f 84//175 103//175 98//175
f 80//176 84//176 98//176
f 104//177 82//177 100//177
f 104//178 85//178 82//178
f 86//179 102//179 103//179
f 104//180 102//180 86//180
f 85//181 104//181 86//181
f 103//182 84//182 86//182
f 91//183 92//183 105//183
f 106//184 92//184 93//184
f 106//185 105//185 92//185
f 106//186 93//186 94//186
f 95//187 96//187 107//187
f 105//188 96//188 91//188
f 107//189 96//189 105//189
f 108//190 107//190 105//190
f 105//191 106//191 109//191
f 105//192 109//192 108//192
f 109//193 94//193 98//193
f 109//194 106//194 94//194
f 99//195 95//195 107//195
f 107//196 100//196 99//196
f 110//197 100//197 107//197
f 108//198 110//198 107//198
f 110//199 101//199 102//199
f 109//200 101//200 110//200
f 108//201 109//201 110//201
f 109//202 98//202 101//202
f 104//203 100//203 110//203
f 110//204 102//204 104//204
f 111//205 113//205 112//205
f 114//206 113//206 115//206
f 114//207 112//207 113//207
f 116//208 114//208 115//208
f 117//209 113//209 111//209
f 117//210 115//210 113//210
f 117//211 118//211 115//211
f 118//212 116//212 115//212
f 111//213 112//213 119//213
f 120//214 112//214 114//214
f 120//215 119//215 112//215
f 120//216 114//216 116//216
f 117//217 111//217 119//217
f 119//218 118//218 117//218
f 119//219 120//219 118//219
f 120//220 116//220 118//220

# Thankyou for using Spin3D

