# Created using Spin3D

# Vertex Array
v -39.406 -34.165 51.840
v -39.406 -34.167 51.840
v -39.406 -34.164 51.844
v -39.407 -34.166 51.841
v -42.409 -35.374 47.495
v -42.407 -35.374 47.496
v -42.407 -35.375 47.495
v -39.407 -34.164 51.843
v -42.406 -35.374 47.495
v -42.407 -35.374 47.494
v -39.406 -34.169 51.836
v -39.407 -34.172 51.834
v -39.407 -34.168 51.838
v -39.407 -34.168 51.836
v -39.405 -34.167 51.838
v -39.407 -34.166 51.838
v -42.407 -35.373 47.495
v -39.406 -34.164 51.840
v -26.895 -30.764 68.905
v -25.769 -31.044 69.992
v -25.615 -31.486 69.137
v -24.385 -31.402 70.347
v -24.233 -31.682 69.449
v -22.839 -31.339 70.490
v -23.273 -31.397 69.233
v -21.767 -30.820 70.374
v -26.550 -31.087 68.169
v -27.700 -30.321 67.776
v -25.038 -31.376 68.325
v -22.593 -30.708 69.092
v -23.836 -31.093 68.301
v -26.515 -30.497 67.482
v -24.916 -30.778 67.721
v -39.406 -34.170 51.834
v -39.406 -34.167 51.835
v -26.377 -29.994 70.214
v -24.975 -29.504 71.576
v -24.698 -30.569 71.129
v -23.258 -29.887 72.146
v -22.893 -30.796 71.556
v -21.509 -30.075 72.463
v -21.193 -30.565 71.770
v -20.384 -30.075 72.581
v -20.204 -30.142 72.300
v -20.067 -29.826 72.516
v -27.843 -29.714 68.499
v -20.627 -29.932 71.569
v -21.542 -30.146 70.116
v -28.806 -29.420 67.178
v -28.632 -29.324 67.586
v -28.573 -29.683 67.454
v -22.551 -29.778 69.204
v -23.789 -30.331 68.168
v -28.065 -29.669 67.202
v -26.834 -29.613 67.283
v -25.378 -29.944 67.576
v -26.015 -29.054 70.974
v -25.082 -28.736 71.575
v -23.717 -28.959 72.118
v -22.013 -29.284 72.560
v -20.628 -29.576 72.708
v -20.373 -29.426 72.350
v -26.836 -28.991 69.824
v -25.788 -28.528 70.835
v -21.013 -29.142 71.680
v -21.615 -29.337 70.544
v -28.461 -29.195 67.358
v -27.642 -28.915 68.325
v -22.942 -28.974 69.632
v -24.114 -29.350 68.448
v -27.462 -29.066 67.541
v -25.891 -29.066 67.894
v -24.333 -28.375 71.276
v -22.688 -28.668 72.062
v -21.306 -28.986 72.271
v -25.848 -28.389 69.796
v -24.364 -28.233 70.403
v -22.697 -28.589 70.989
v -26.443 -28.612 68.446
v -24.601 -28.544 69.306
v 2.761 -19.212 74.844
v 2.762 -19.212 74.845
v 2.762 -19.213 74.844
v 2.763 -19.212 74.844
v 2.762 -19.211 74.843
v 2.762 -19.210 74.844
v 5.733 -7.561 31.585
v 6.281 -7.482 32.267
v 6.499 -7.763 31.366
v 6.885 -7.369 32.326
v 4.727 -7.257 29.914
v 4.998 -7.182 30.937
v 5.544 -7.745 30.337
v 6.484 -7.873 29.955
v 7.275 -7.371 31.461
v 7.280 -7.518 30.236
v 7.769 -6.899 30.600
v 5.236 -7.376 28.971
v 4.639 -6.692 29.055
v 6.046 -7.732 29.066
v 7.066 -7.426 28.606
v 7.945 -6.693 29.020
v 5.301 -6.709 28.097
v 6.222 -7.120 27.803
v 6.043 -6.213 27.219
v 7.749 -6.792 27.698
v 7.219 -6.963 27.311
v 6.949 -6.418 26.819
v 5.868 -6.801 31.876
v 6.562 -7.176 32.648
v 6.966 -7.038 32.618
v 4.452 -6.612 30.078
v 4.902 -6.429 30.887
v 7.399 -6.596 31.705
v 8.072 -5.910 29.992
v 4.462 -6.065 29.302
v 8.260 -5.881 28.758
v 5.219 -5.786 28.288
v 6.222 -5.465 27.203
v 7.638 -6.428 26.964
v 8.042 -5.963 27.698
v 6.774 -5.747 26.710
v 7.489 -5.770 26.812
v 6.755 -6.708 32.375
v 4.696 -5.852 29.985
v 5.604 -5.720 30.751
v 6.796 -5.792 31.390
v 7.405 -4.977 30.461
v 7.681 -5.529 30.862
v 4.731 -5.606 29.196
v 5.542 -5.179 29.316
v 7.917 -5.053 29.934
v 8.027 -5.182 28.670
v 7.031 -5.164 27.109
v 6.288 -4.965 27.998
v 7.740 -5.217 27.447
v 7.295 -4.742 28.106
v 6.579 -4.939 30.124
v 6.640 -4.641 28.935
v 7.435 -4.666 29.372
v 53.083 7.324 1.956
v 53.079 7.324 1.952
v 53.079 7.323 1.954
v 53.076 7.325 1.952
v 53.074 7.323 1.954
v 53.074 7.324 1.953
v 53.084 7.322 1.958
v 53.083 7.323 1.959
v 53.079 7.322 1.958
v 53.075 7.324 1.957
v 53.082 7.323 1.961
v 53.078 7.323 1.960
v 53.081 7.325 1.956
v 53.077 7.326 1.952
v 53.081 7.325 1.961
v 53.077 7.325 1.957
v 28.548 72.622 -4.202
v 28.549 72.622 -4.201
v 28.549 72.621 -4.202
v 28.550 72.622 -4.202
v 28.549 72.622 -4.203
v 28.549 72.623 -4.202

# Normal Array
vn 1.000 -0.003 0.026
vn -0.457 -0.745 0.486
vn -0.569 -0.652 0.502
vn 0.194 0.978 -0.071
vn 0.532 -0.671 0.517
vn -0.642 -0.606 0.470
vn -0.596 -0.491 -0.636
vn 0.570 -0.502 -0.651
vn 0.455 -0.704 0.546
vn -1.000 -0.000 0.000
vn 0.260 -0.821 0.509
vn 1.000 -0.004 0.030
vn 0.804 -0.370 0.466
vn -0.236 -0.739 0.632
vn -0.998 -0.055 -0.014
vn -0.835 -0.522 0.176
vn -0.549 0.476 0.688
vn 0.972 0.230 0.037
vn 0.912 0.298 0.283
vn 0.576 0.465 0.672
vn -0.952 -0.260 0.164
vn -0.855 0.499 -0.140
vn -0.544 0.683 -0.488
vn 0.583 0.661 -0.472
vn -0.509 -0.799 0.322
vn -0.193 -0.945 0.262
vn -0.323 -0.863 0.388
vn 0.274 -0.960 -0.051
vn 0.011 -0.954 0.299
vn 0.424 -0.899 -0.105
vn -0.505 -0.852 0.136
vn -0.573 -0.815 0.088
vn -0.094 -0.976 -0.199
vn -0.158 -0.957 -0.242
vn 0.543 -0.645 -0.538
vn 0.201 -0.889 -0.411
vn 0.184 -0.907 -0.379
vn 0.592 -0.674 -0.441
vn -0.265 -0.725 -0.636
vn -0.077 -0.755 -0.652
vn -0.019 -0.709 -0.705
vn 0.155 -0.718 -0.679
vn 0.645 -0.641 0.416
vn -0.177 0.391 -0.903
vn 0.875 0.255 -0.412
vn 0.936 -0.278 0.213
vn -0.974 0.026 -0.226
vn -0.927 -0.148 -0.345
vn 0.737 0.531 -0.418
vn -0.720 0.586 -0.371
vn -0.541 -0.441 0.716
vn -0.255 -0.596 0.761
vn -0.370 -0.440 0.818
vn 0.036 -0.808 0.588
vn -0.205 -0.589 0.782
vn 0.203 -0.915 0.349
vn -0.059 -0.828 0.558
vn 0.590 -0.615 0.523
vn -0.541 -0.462 0.703
vn -0.662 -0.501 0.557
vn -0.717 -0.438 0.542
vn -0.342 -0.708 0.618
vn -0.246 -0.711 0.659
vn -0.006 -0.891 0.454
vn 0.064 -0.888 0.455
vn 0.554 -0.658 -0.510
vn 0.708 -0.686 -0.165
vn 0.791 -0.430 -0.435
vn 0.435 -0.901 -0.014
vn 0.862 -0.028 -0.507
vn -0.850 -0.300 0.433
vn -0.780 -0.326 0.534
vn -0.632 -0.651 0.421
vn -0.761 -0.563 0.322
vn 0.623 0.066 -0.779
vn 0.567 -0.176 -0.805
vn 0.736 -0.441 -0.513
vn 0.681 0.057 -0.730
vn -0.250 -0.799 -0.547
vn -0.294 -0.719 -0.630
vn -0.266 -0.716 -0.645
vn 0.073 -0.194 -0.978
vn 0.130 -0.100 -0.986
vn 0.159 -0.162 -0.974
vn 0.424 -0.181 -0.887
vn 0.356 0.035 -0.934
vn -0.580 -0.365 0.728
vn -0.523 -0.072 0.849
vn -0.376 -0.051 0.925
vn -0.340 -0.140 0.930
vn -0.198 -0.243 0.950
vn -0.268 -0.103 0.958
vn -0.100 -0.290 0.952
vn -0.148 -0.213 0.966
vn 0.278 -0.105 0.955
vn 0.486 0.625 0.610
vn -0.715 0.450 0.535
vn -0.809 -0.149 0.569
vn -0.764 -0.102 0.637
vn -0.588 0.434 0.683
vn 0.761 0.439 -0.478
vn 0.768 0.352 -0.535
vn 0.775 0.385 -0.502
vn 0.736 0.433 -0.520
vn -0.563 0.826 0.045
vn -0.467 0.873 0.143
vn -0.647 0.315 0.694
vn -0.831 0.311 0.462
vn 0.478 0.582 -0.658
vn 0.485 0.385 -0.785
vn 0.692 0.385 -0.610
vn 0.562 0.584 -0.585
vn 0.175 0.438 -0.882
vn -0.088 0.974 -0.207
vn 0.115 0.397 -0.911
vn 0.037 0.461 -0.886
vn 0.275 0.465 -0.841
vn 0.178 0.580 -0.795
vn 0.402 0.372 -0.836
vn 0.330 0.486 -0.809
vn -0.123 0.771 0.625
vn -0.110 0.549 0.829
vn -0.175 0.744 0.645
vn 0.051 0.631 0.774
vn 0.035 0.651 0.758
vn 0.317 0.772 0.551
vn -0.512 0.847 0.143
vn -0.230 0.857 0.461
vn -0.145 0.979 0.140
vn -0.169 0.972 0.163
vn 0.142 0.987 0.071
vn 0.155 0.976 0.153
vn 0.422 0.829 -0.366
vn 0.340 0.937 -0.079
vn 0.214 0.974 0.070
vn 0.428 0.903 -0.026
vn -0.240 0.969 -0.055
vn -0.490 0.817 0.304
vn 0.011 0.962 -0.274
vn 0.049 0.982 -0.184
vn 0.309 0.774 -0.552
vn 0.295 0.904 -0.309
vn 0.304 0.897 -0.319
vn 0.447 0.836 -0.318
vn -0.216 0.948 -0.232
vn 0.124 0.824 -0.553
vn 0.199 0.846 -0.495
vn 0.298 0.774 -0.559
vn -0.591 -0.654 0.473
vn 0.584 -0.662 0.470
vn -0.567 -0.437 -0.699
vn 0.567 -0.454 -0.687
vn -0.583 0.480 0.655
vn 0.590 0.461 0.663
vn -0.567 0.655 -0.500
vn 0.580 0.643 -0.500
vn -0.178 -0.951 0.253
vn 0.143 -0.935 0.326
vn -0.580 -0.787 0.211
vn -0.585 -0.785 0.204
vn -0.204 -0.964 0.173
vn -0.103 -0.992 0.079
vn 0.423 -0.885 0.193
vn 0.437 -0.893 0.108
vn 0.387 -0.920 0.068
vn 0.758 -0.647 0.080
vn -0.456 -0.880 -0.135
vn -0.733 -0.600 -0.320
vn -0.165 -0.984 -0.075
vn -0.382 -0.910 -0.160
vn 0.437 -0.893 -0.107
vn 0.178 -0.954 -0.239
vn 0.782 -0.623 0.006
vn 0.670 -0.731 -0.129
vn -0.693 -0.547 -0.469
vn -0.465 -0.542 -0.699
vn -0.480 -0.680 -0.554
vn -0.315 -0.836 -0.449
vn 0.457 -0.853 -0.252
vn -0.019 -0.941 -0.339
vn 0.078 -0.901 -0.426
vn 0.651 -0.758 -0.040
vn -0.438 -0.546 -0.714
vn -0.218 -0.711 -0.668
vn -0.762 -0.095 0.640
vn -0.769 -0.105 0.630
vn 0.094 -0.808 0.581
vn 0.280 -0.672 0.685
vn -0.864 -0.077 0.498
vn -0.863 -0.434 0.260
vn -0.696 -0.147 0.703
vn -0.724 -0.046 0.689
vn 0.885 -0.411 0.220
vn 0.879 -0.266 0.396
vn 0.892 -0.260 0.370
vn 0.938 -0.081 0.336
vn -0.923 -0.358 -0.141
vn -0.965 -0.209 -0.160
vn 0.965 -0.250 0.075
vn 0.938 -0.320 0.135
vn -0.802 0.009 -0.597
vn -0.821 0.045 -0.569
vn -0.779 0.060 -0.624
vn -0.748 0.165 -0.642
vn 0.548 -0.714 -0.437
vn 0.901 -0.318 -0.294
vn 0.937 -0.330 -0.114
vn 0.904 -0.400 -0.155
vn -0.622 0.132 -0.772
vn -0.438 -0.255 -0.862
vn 0.153 -0.619 -0.770
vn 0.200 -0.178 -0.964
vn 0.136 -0.125 -0.983
vn 0.854 0.074 -0.516
vn -0.444 0.581 0.682
vn -0.120 0.536 0.835
vn -0.856 0.323 0.403
vn -0.546 0.644 0.537
vn -0.460 0.584 0.669
vn -0.333 0.640 0.693
vn -0.414 0.675 0.611
vn 0.241 0.646 0.725
vn 0.309 0.538 0.784
vn 0.513 0.618 0.596
vn 0.455 0.697 0.554
vn 0.920 0.063 0.387
vn -0.844 0.522 0.125
vn -0.922 0.322 0.215
vn -0.408 0.848 0.338
vn -0.480 0.844 0.242
vn 0.593 0.645 0.482
vn 0.924 0.190 0.333
vn 0.981 0.182 0.067
vn 0.933 0.329 0.149
vn -0.794 0.349 -0.497
vn -0.354 0.805 -0.476
vn -0.626 0.682 -0.377
vn -0.632 0.738 -0.238
vn -0.387 0.842 -0.376
vn 0.271 0.859 -0.435
vn -0.167 0.923 -0.347
vn 0.597 0.785 -0.162
vn 0.927 0.298 -0.226
vn 0.935 0.284 -0.214
vn -0.316 0.627 -0.712
vn 0.137 0.518 -0.844
vn 0.374 0.621 -0.689
vn 0.852 0.178 -0.492
vn -0.259 0.780 0.570
vn -0.196 0.797 0.571
vn -0.371 0.905 0.207
vn -0.451 0.829 0.332
vn 0.400 0.878 0.261
vn -0.067 0.960 0.272
vn -0.099 0.966 0.237
vn 0.641 0.767 -0.022
vn -0.471 0.873 -0.125
vn -0.182 0.948 -0.260
vn 0.069 0.995 -0.067
vn 0.574 0.811 -0.112
vn 0.410 -0.774 -0.484
vn 0.082 -0.713 -0.696
vn -0.045 -0.796 -0.604
vn -0.621 -0.199 -0.758
vn 0.422 -0.632 -0.650
vn 0.968 0.249 -0.017
vn 0.019 -0.987 -0.159
vn -0.046 -0.985 -0.165
vn -0.962 0.242 0.123
vn -0.456 -0.784 0.422
vn 0.622 -0.423 0.659
vn -0.103 -0.896 0.432
vn 0.020 -0.948 0.317
vn -0.447 -0.868 0.218
vn 0.375 0.881 -0.288
vn 0.075 -0.091 -0.993
vn 0.552 0.771 -0.316
vn -0.704 0.428 -0.567
vn 0.581 0.812 0.060
vn 0.482 0.857 0.183
vn 0.017 0.981 0.194
vn 0.012 0.991 0.131
vn -0.463 0.878 0.117
vn -0.560 0.800 0.218
vn 0.710 0.219 0.669
vn -0.081 -0.410 0.908
vn -0.540 0.642 0.544
vn -0.359 0.750 0.555
vn -0.613 -0.637 0.468
vn 0.573 -0.660 0.485
vn -0.607 -0.453 -0.652
vn 0.580 -0.465 -0.669
vn -0.594 0.488 0.640
vn 0.584 0.434 0.686
vn -0.593 0.669 -0.448
vn 0.597 0.624 -0.503

# Facets
f 1//1 3//1 2//1
f 4//2 2//2 3//2
f 5//3 7//3 6//3
f 3//4 1//4 8//4
f 9//5 6//5 7//5
f 8//6 4//6 3//6
f 10//7 7//7 5//7
f 10//8 9//8 7//8
f 11//9 13//9 12//9
f 14//10 12//10 13//10
f 11//11 2//11 13//11
f 1//12 2//12 11//12
f 15//13 1//13 11//13
f 4//14 13//14 2//14
f 14//15 13//15 4//15
f 16//16 14//16 4//16
f 5//17 6//17 17//17
f 18//18 1//18 15//18
f 8//19 1//19 18//19
f 6//20 9//20 17//20
f 8//21 16//21 4//21
f 8//22 18//22 16//22
f 10//23 5//23 17//23
f 17//24 9//24 10//24
f 19//25 21//25 20//25
f 22//26 21//26 23//26
f 22//27 20//27 21//27
f 24//28 23//28 25//28
f 24//29 22//29 23//29
f 26//30 24//30 25//30
f 19//31 27//31 21//31
f 19//32 28//32 27//32
f 29//33 23//33 21//33
f 27//34 29//34 21//34
f 25//35 31//35 30//35
f 29//36 31//36 25//36
f 23//37 29//37 25//37
f 30//38 26//38 25//38
f 32//39 27//39 28//39
f 32//40 29//40 27//40
f 32//41 33//41 29//41
f 33//42 31//42 29//42
f 11//43 12//43 34//43
f 34//44 12//44 14//44
f 15//45 34//45 35//45
f 15//46 11//46 34//46
f 35//47 14//47 16//47
f 35//48 34//48 14//48
f 18//49 15//49 35//49
f 35//50 16//50 18//50
f 36//51 38//51 37//51
f 39//52 38//52 40//52
f 39//53 37//53 38//53
f 41//54 40//54 42//54
f 41//55 39//55 40//55
f 43//56 42//56 44//56
f 43//57 41//57 42//57
f 45//58 43//58 44//58
f 36//59 20//59 38//59
f 19//60 20//60 36//60
f 46//61 19//61 36//61
f 20//62 22//62 38//62
f 22//63 40//63 38//63
f 22//64 24//64 40//64
f 24//65 42//65 40//65
f 42//66 47//66 44//66
f 26//67 47//67 42//67
f 48//68 47//68 26//68
f 42//69 24//69 26//69
f 47//70 45//70 44//70
f 49//71 51//71 50//71
f 50//72 51//72 46//72
f 46//73 51//73 28//73
f 46//74 28//74 19//74
f 52//75 30//75 53//75
f 30//76 31//76 53//76
f 30//77 48//77 26//77
f 30//78 52//78 48//78
f 54//79 51//79 49//79
f 54//80 28//80 51//80
f 32//81 28//81 54//81
f 55//82 32//82 54//82
f 56//83 33//83 32//83
f 56//84 32//84 55//84
f 33//85 53//85 31//85
f 33//86 56//86 53//86
f 36//87 37//87 57//87
f 37//88 58//88 57//88
f 59//89 58//89 37//89
f 39//90 59//90 37//90
f 39//91 41//91 60//91
f 59//92 39//92 60//92
f 41//93 43//93 61//93
f 60//94 41//94 61//94
f 45//95 61//95 43//95
f 45//96 62//96 61//96
f 63//97 57//97 64//97
f 36//98 57//98 63//98
f 46//99 36//99 63//99
f 57//100 58//100 64//100
f 65//101 47//101 66//101
f 47//102 48//102 66//102
f 47//103 62//103 45//103
f 47//104 65//104 62//104
f 49//105 50//105 67//105
f 67//106 50//106 68//106
f 68//107 50//107 46//107
f 68//108 46//108 63//108
f 69//109 52//109 70//109
f 52//110 53//110 70//110
f 52//111 66//111 48//111
f 52//112 69//112 66//112
f 54//113 49//113 67//113
f 71//114 67//114 68//114
f 54//115 67//115 71//115
f 55//116 54//116 71//116
f 72//117 56//117 55//117
f 72//118 55//118 71//118
f 56//119 70//119 53//119
f 56//120 72//120 70//120
f 58//121 59//121 73//121
f 74//122 59//122 60//122
f 74//123 73//123 59//123
f 75//124 60//124 61//124
f 75//125 74//125 60//125
f 75//126 61//126 62//126
f 63//127 64//127 76//127
f 73//128 64//128 58//128
f 76//129 64//129 73//129
f 77//130 76//130 73//130
f 73//131 74//131 78//131
f 73//132 78//132 77//132
f 78//133 65//133 66//133
f 75//134 65//134 78//134
f 74//135 75//135 78//135
f 75//136 62//136 65//136
f 68//137 76//137 79//137
f 68//138 63//138 76//138
f 76//139 77//139 80//139
f 76//140 80//140 79//140
f 80//141 69//141 70//141
f 78//142 69//142 80//142
f 77//143 78//143 80//143
f 78//144 66//144 69//144
f 71//145 68//145 79//145
f 79//146 72//146 71//146
f 79//147 80//147 72//147
f 80//148 70//148 72//148
f 81//149 83//149 82//149
f 84//150 82//150 83//150
f 85//151 83//151 81//151
f 85//152 84//152 83//152
f 81//153 82//153 86//153
f 86//154 82//154 84//154
f 85//155 81//155 86//155
f 86//156 84//156 85//156
f 87//157 89//157 88//157
f 90//158 88//158 89//158
f 91//159 93//159 92//159
f 93//160 87//160 92//160
f 89//161 87//161 93//161
f 94//162 89//162 93//162
f 89//163 95//163 90//163
f 96//164 95//164 89//164
f 94//165 96//165 89//165
f 97//166 95//166 96//166
f 91//167 98//167 93//167
f 91//168 99//168 98//168
f 100//169 94//169 93//169
f 98//170 100//170 93//170
f 101//171 96//171 94//171
f 100//172 101//172 94//172
f 96//173 102//173 97//173
f 96//174 101//174 102//174
f 103//175 98//175 99//175
f 104//176 103//176 105//176
f 98//177 103//177 104//177
f 100//178 98//178 104//178
f 101//179 107//179 106//179
f 104//180 107//180 101//180
f 100//181 104//181 101//181
f 106//182 102//182 101//182
f 108//183 104//183 105//183
f 108//184 107//184 104//184
f 109//185 88//185 110//185
f 109//186 87//186 88//186
f 90//187 110//187 88//187
f 90//188 111//188 110//188
f 112//189 92//189 113//189
f 112//190 91//190 92//190
f 87//191 109//191 92//191
f 109//192 113//192 92//192
f 111//193 90//193 114//193
f 90//194 95//194 114//194
f 97//195 114//195 95//195
f 97//196 115//196 114//196
f 99//197 91//197 112//197
f 99//198 112//198 116//198
f 115//199 97//199 102//199
f 117//200 115//200 102//200
f 118//201 99//201 116//201
f 118//202 103//202 99//202
f 103//203 118//203 105//203
f 118//204 119//204 105//204
f 120//205 106//205 107//205
f 121//206 106//206 120//206
f 102//207 106//207 121//207
f 117//208 102//208 121//208
f 122//209 105//209 119//209
f 122//210 108//210 105//210
f 108//211 120//211 107//211
f 123//212 120//212 108//212
f 122//213 123//213 108//213
f 123//214 121//214 120//214
f 109//215 110//215 124//215
f 124//216 110//216 111//216
f 112//217 113//217 125//217
f 125//218 113//218 126//218
f 113//219 109//219 126//219
f 126//220 109//220 127//220
f 127//221 109//221 124//221
f 127//222 129//222 128//222
f 127//223 114//223 129//223
f 124//224 114//224 127//224
f 111//225 114//225 124//225
f 129//226 114//226 115//226
f 116//227 125//227 130//227
f 116//228 112//228 125//228
f 126//229 131//229 125//229
f 131//230 130//230 125//230
f 128//231 129//231 132//231
f 115//232 132//232 129//232
f 133//233 132//233 115//233
f 117//234 133//234 115//234
f 118//235 116//235 130//235
f 134//236 119//236 135//236
f 119//237 118//237 135//237
f 135//238 118//238 131//238
f 131//239 118//239 130//239
f 136//240 134//240 137//240
f 134//241 135//241 137//241
f 133//242 136//242 137//242
f 121//243 136//243 133//243
f 117//244 121//244 133//244
f 122//245 119//245 134//245
f 134//246 123//246 122//246
f 134//247 136//247 123//247
f 136//248 121//248 123//248
f 126//249 127//249 138//249
f 138//250 127//250 128//250
f 131//251 138//251 139//251
f 131//252 126//252 138//252
f 140//253 128//253 132//253
f 138//254 128//254 140//254
f 139//255 138//255 140//255
f 140//256 132//256 133//256
f 135//257 131//257 139//257
f 139//258 137//258 135//258
f 139//259 140//259 137//259
f 140//260 133//260 137//260
f 141//261 143//261 142//261
f 144//262 143//262 145//262
f 144//263 142//263 143//263
f 146//264 144//264 145//264
f 141//265 147//265 143//265
f 141//266 148//266 147//266
f 149//267 145//267 143//267
f 147//268 149//268 143//268
f 145//269 150//269 146//269
f 145//270 149//270 150//270
f 151//271 147//271 148//271
f 151//272 149//272 147//272
f 151//273 152//273 149//273
f 152//274 150//274 149//274
f 141//275 142//275 153//275
f 154//276 142//276 144//276
f 154//277 153//277 142//277
f 154//278 144//278 146//278
f 148//279 153//279 155//279
f 148//280 141//280 153//280
f 153//281 154//281 156//281
f 153//282 156//282 155//282
f 156//283 146//283 150//283
f 156//284 154//284 146//284
f 151//285 148//285 155//285
f 155//286 152//286 151//286
f 155//287 156//287 152//287
f 156//288 150//288 152//288
f 157//289 159//289 158//289
f 160//290 158//290 159//290
f 161//291 159//291 157//291
f 161//292 160//292 159//292
f 157//293 158//293 162//293
f 162//294 158//294 160//294
f 161//295 157//295 162//295
f 162//296 160//296 161//296

# Thankyou for using Spin3D

