# Created using Spin3D

# Vertex Array
v -21.426 -47.280 25.923
v -21.428 -47.281 25.923
v -21.428 -47.279 25.923
v -21.430 -47.281 25.923
v -21.427 -47.279 25.921
v -21.426 -47.281 25.921
v -21.430 -47.280 25.921
v -21.428 -47.280 25.920
v -21.427 -47.283 25.922
v -21.428 -47.282 25.921
v 10.495 -22.823 22.576
v 10.495 -22.823 22.574
v 10.495 -22.821 22.576
v 10.497 -22.822 22.574
v 10.497 -22.821 22.577
v 10.497 -22.823 22.576
v 10.495 -22.823 22.578
v 10.497 -22.824 22.578
v 10.495 -22.825 22.576
v 10.497 -22.825 22.576
v -37.349 -2.077 -12.657
v -37.267 -2.163 -12.573
v -37.213 -2.380 -12.572
v -37.145 -2.439 -12.500
v -37.330 -2.149 -12.676
v -37.476 -1.757 -12.767
v -37.135 -2.483 -12.524
v -37.239 -2.289 -12.623
v -37.191 -2.263 -12.577
v -37.412 -1.879 -12.750
v -37.318 -1.998 -12.688
v -37.472 -1.646 -12.722
v -37.347 -1.841 -12.611
v -37.209 -2.175 -12.526
v -37.133 -2.388 -12.502
v -37.242 -2.030 -12.579
v -37.603 -1.335 -12.843
v -37.326 -1.862 -12.670
v -37.564 -1.455 -12.844
v -37.499 -1.496 -12.799
v -37.497 -1.411 -12.727
v -37.336 -1.777 -12.613
v -37.637 -1.122 -12.845
v -37.624 -1.060 -12.835
v -37.628 -1.074 -12.859
v -37.460 -1.466 -12.731
v -37.653 -1.107 -12.884
v -37.690 -0.928 -12.892

# Normal Array
vn 0.175 0.085 0.981
vn -0.254 -0.002 0.967
vn 0.522 0.758 0.390
vn 0.809 0.543 -0.223
vn -0.811 0.444 0.381
vn -0.487 0.858 -0.166
vn 0.278 0.325 -0.904
vn -0.185 0.442 -0.878
vn 0.256 -0.286 0.923
vn -0.162 -0.371 0.914
vn 0.488 -0.781 -0.391
vn 0.796 -0.560 0.230
vn -0.811 -0.443 -0.381
vn -0.536 -0.837 0.111
vn 0.157 -0.130 -0.979
vn -0.308 -0.034 -0.951
vn -0.964 0.173 -0.202
vn 0.317 0.873 -0.370
vn -0.268 0.627 -0.732
vn 0.941 0.313 -0.132
vn -0.961 0.210 0.182
vn -0.263 0.730 0.631
vn 0.317 0.370 0.873
vn 0.938 0.136 0.320
vn -0.962 -0.202 -0.183
vn 0.244 -0.378 -0.893
vn -0.314 -0.704 -0.637
vn 0.947 -0.125 -0.295
vn -0.962 -0.182 0.202
vn -0.273 -0.645 0.713
vn 0.267 -0.887 0.376
vn 0.945 -0.302 0.128
vn -0.799 -0.198 0.567
vn -0.787 -0.195 0.585
vn -0.897 -0.313 0.314
vn -0.930 -0.296 0.217
vn -0.806 -0.412 0.425
vn -0.140 -0.507 -0.851
vn -0.346 -0.524 -0.778
vn 0.687 -0.003 -0.727
vn -0.468 -0.362 -0.806
vn 0.291 -0.169 -0.942
vn 0.501 -0.056 -0.863
vn 0.680 0.022 -0.733
vn -0.750 -0.108 0.653
vn -0.777 -0.129 0.617
vn -0.119 0.065 0.991
vn -0.635 -0.080 0.769
vn -0.633 -0.065 0.771
vn 0.844 0.345 0.411
vn -0.849 -0.167 0.501
vn -0.850 -0.166 0.500
vn 0.762 -0.157 0.628
vn 0.859 0.095 -0.503
vn 0.909 0.199 -0.367
vn 0.875 0.191 -0.446
vn -0.942 -0.307 -0.132
vn -0.402 -0.333 -0.853
vn 0.576 0.026 -0.817
vn 0.578 0.027 -0.816
vn 0.780 0.120 -0.614
vn 0.745 0.123 -0.656
vn -0.715 -0.061 0.696
vn -0.361 0.089 0.928
vn -0.419 0.098 0.903
vn 0.796 0.361 0.486
vn -0.638 0.004 0.770
vn -0.712 -0.061 0.700
vn -0.810 -0.121 0.574
vn 0.904 0.286 -0.317
vn 0.691 0.429 0.582
vn 0.745 0.474 0.469
vn 0.898 0.249 -0.362
vn 0.937 0.333 -0.103
vn -0.932 -0.142 0.334
vn -0.837 -0.270 -0.476
vn 0.817 0.172 -0.551
vn 0.650 0.092 -0.754
vn 0.589 0.057 -0.806
vn 0.810 0.189 -0.555
vn -0.648 0.007 0.761
vn 0.895 0.303 -0.327
vn -0.930 -0.177 0.321
vn 0.644 0.100 -0.759

# Facets
f 1//1 3//1 2//1
f 4//2 2//2 3//2
f 1//3 5//3 3//3
f 1//4 6//4 5//4
f 3//5 7//5 4//5
f 3//6 5//6 7//6
f 8//7 5//7 6//7
f 8//8 7//8 5//8
f 1//9 2//9 9//9
f 9//10 2//10 4//10
f 6//11 9//11 10//11
f 6//12 1//12 9//12
f 10//13 4//13 7//13
f 10//14 9//14 4//14
f 8//15 6//15 10//15
f 10//16 7//16 8//16
f 11//17 13//17 12//17
f 14//18 13//18 15//18
f 14//19 12//19 13//19
f 16//20 14//20 15//20
f 17//21 13//21 11//21
f 17//22 15//22 13//22
f 17//23 18//23 15//23
f 18//24 16//24 15//24
f 11//25 12//25 19//25
f 20//26 12//26 14//26
f 20//27 19//27 12//27
f 20//28 14//28 16//28
f 17//29 11//29 19//29
f 19//30 18//30 17//30
f 19//31 20//31 18//31
f 20//32 16//32 18//32
f 21//33 23//33 22//33
f 24//34 22//34 23//34
f 21//35 25//35 23//35
f 21//36 26//36 25//36
f 23//37 27//37 24//37
f 28//38 27//38 23//38
f 25//39 28//39 23//39
f 29//40 27//40 28//40
f 30//41 25//41 26//41
f 30//42 28//42 25//42
f 30//43 31//43 28//43
f 31//44 29//44 28//44
f 32//45 22//45 33//45
f 32//46 21//46 22//46
f 34//47 24//47 35//47
f 22//48 24//48 34//48
f 33//49 22//49 34//49
f 36//50 34//50 35//50
f 26//51 21//51 32//51
f 26//52 32//52 37//52
f 35//53 24//53 27//53
f 29//54 35//54 27//54
f 36//55 35//55 29//55
f 38//56 36//56 29//56
f 39//57 26//57 37//57
f 39//58 30//58 26//58
f 40//59 31//59 30//59
f 40//60 30//60 39//60
f 31//61 38//61 29//61
f 31//62 40//62 38//62
f 32//63 33//63 41//63
f 42//64 33//64 34//64
f 42//65 41//65 33//65
f 42//66 34//66 36//66
f 43//67 41//67 44//67
f 32//68 41//68 43//68
f 37//69 32//69 43//69
f 45//70 44//70 46//70
f 46//71 44//71 41//71
f 46//72 41//72 42//72
f 46//73 36//73 38//73
f 46//74 42//74 36//74
f 47//75 37//75 43//75
f 47//76 39//76 37//76
f 40//77 45//77 46//77
f 47//78 45//78 40//78
f 39//79 47//79 40//79
f 46//80 38//80 40//80
f 43//81 44//81 48//81
f 48//82 44//82 45//82
f 47//83 43//83 48//83
f 48//84 45//84 47//84

# Thankyou for using Spin3D

