# Created using Spin3D

# Vertex Array
v 3.652 -42.634 27.753
v 4.253 -43.019 28.741
v 4.742 -43.550 27.785
v 5.515 -43.408 28.990
v 6.389 -43.726 27.814
v 7.423 -43.090 29.102
v 7.927 -43.517 27.699
v 8.889 -42.926 28.020
v 4.265 -43.280 26.945
v 5.520 -43.515 26.816
v 4.748 -42.914 26.386
v 7.323 -43.390 26.815
v 8.923 -42.975 27.052
v 6.358 -42.535 26.166
v 8.410 -42.408 26.333
v -16.501 -41.505 17.110
v -16.368 -41.546 17.374
v -16.061 -41.735 17.100
v -15.889 -41.750 17.270
v -15.487 -41.903 16.928
v -15.471 -41.773 16.979
v -16.237 -41.565 16.706
v -16.630 -41.301 16.754
v -15.726 -41.797 16.692
v -15.050 -41.981 16.721
v -15.206 -41.887 16.480
v -14.882 -41.995 16.528
v -16.348 -41.331 16.320
v -15.809 -41.553 16.216
v -16.153 -41.213 15.951
v -15.026 -41.845 16.392
v -15.388 -41.600 16.121
v -15.760 -41.341 15.853
v 3.753 -41.813 29.081
v 4.704 -41.269 30.329
v 4.800 -42.568 29.845
v 5.540 -42.011 30.702
v 6.107 -42.834 30.177
v 6.588 -41.995 30.824
v 7.009 -42.655 30.308
v 7.689 -41.919 30.206
v 3.282 -41.637 28.129
v 9.115 -41.753 28.830
v 9.884 -42.132 27.518
v 10.290 -41.079 27.876
v 3.895 -42.536 26.762
v 3.539 -41.385 27.281
v 9.709 -42.062 26.719
v 10.410 -41.135 27.050
v 4.716 -41.664 26.349
v 6.330 -41.189 26.087
v 7.721 -41.485 26.074
v 9.391 -41.004 26.466
v -16.685 -41.300 17.178
v -16.505 -41.340 17.383
v -16.094 -41.534 17.354
v -15.884 -41.461 17.038
v -16.718 -41.125 16.780
v -15.013 -41.897 16.613
v -15.488 -41.536 16.466
v 29.763 -40.428 16.786
v 29.764 -40.428 16.787
v 29.764 -40.429 16.785
v 29.765 -40.428 16.786
v -16.537 -41.117 16.316
v -16.282 -41.059 16.020
v -15.665 -41.322 15.943
v 29.764 -40.428 16.784
v -15.972 -41.152 15.821
v 4.059 -40.497 29.672
v 5.232 -39.764 30.332
v 5.985 -40.817 30.978
v 6.900 -40.062 30.839
v 7.126 -41.027 30.858
v 3.591 -40.492 28.497
v 4.350 -39.504 29.369
v 8.154 -40.316 29.992
v 9.689 -40.127 28.597
v 10.524 -40.135 27.533
v 3.794 -40.069 27.524
v 10.404 -39.635 27.233
v 9.570 -39.635 26.975
v 10.429 -40.231 26.917
v 4.152 -40.488 26.804
v 5.462 -40.179 26.552
v 7.637 -40.029 26.556
v -16.582 -41.161 17.049
v -16.302 -41.303 17.236
v -16.467 -41.057 16.480
v -16.151 -41.222 16.762
v 29.764 -40.427 16.786
v -16.007 -41.157 16.153
v 6.204 -39.750 30.843
v 4.620 -39.078 28.312
v 5.466 -38.622 29.461
v 6.863 -38.944 30.088
v 8.586 -38.897 29.150
v 8.421 -38.236 28.489
v 9.637 -39.129 27.907
v 4.612 -39.541 27.211
v 5.919 -38.161 28.641
v 6.174 -38.832 27.524
v 8.251 -38.705 27.576
v 7.201 -37.977 28.469
v 6.594 -38.000 29.279
v 7.620 -38.068 29.197
v 46.640 -15.709 -30.160
v 46.986 -15.517 -29.542
v 47.202 -16.080 -30.016
v 47.556 -15.865 -29.542
v 47.856 -16.009 -29.960
v 48.109 -15.578 -29.682
v 46.854 -15.969 -30.789
v 46.369 -15.266 -30.865
v 47.623 -16.022 -30.637
v 48.570 -15.412 -30.403
v 46.649 -15.654 -31.433
v 47.217 -15.791 -31.392
v 46.897 -15.337 -31.792
v 47.968 -15.556 -31.155
v 47.565 -15.109 -31.691
v 46.435 -14.838 -29.930
v 46.935 -14.597 -29.282
v 47.629 -15.158 -29.344
v 48.544 -14.707 -29.869
v 46.226 -14.571 -30.577
v 49.370 -14.882 -30.622
v 49.367 -14.878 -30.322
v 49.675 -14.712 -30.494
v 46.516 -15.084 -31.596
v 46.397 -14.313 -31.211
v 49.371 -14.553 -30.659
v 48.549 -14.729 -31.120
v 46.961 -14.488 -31.808
v 47.733 -14.333 -31.714
v -37.758 -10.213 -11.440
v -37.795 -10.594 -11.285
v -37.814 -10.733 -11.443
v -37.706 -10.618 -11.358
v -37.618 -10.215 -11.558
v 46.556 -14.056 -29.524
v 46.940 -13.853 -29.287
v 47.571 -14.203 -29.341
v 48.020 -13.833 -29.811
v 46.411 -13.905 -30.296
v 46.736 -13.546 -29.694
v 49.368 -14.548 -30.359
v 48.565 -14.029 -30.554
v 46.766 -13.721 -31.548
v 46.594 -13.530 -31.023
v 47.009 -13.314 -31.236
v 48.050 -13.916 -31.335
v 47.348 -13.707 -31.619
v -37.685 -9.781 -11.116
v -37.457 -9.187 -10.776
v -37.555 -10.099 -11.062
v -37.297 -9.399 -10.800
v -37.241 -9.568 -11.051
v -37.074 -8.902 -10.915
v -37.572 -9.048 -11.398
v -37.390 -9.897 -11.372
v -36.977 -8.721 -11.366
v -37.507 -9.414 -11.656
v -37.162 -8.895 -11.755
v 47.310 -13.505 -29.650
v 47.000 -13.297 -30.425
v 47.747 -13.410 -30.235
v 47.648 -13.407 -30.976
v -37.490 -8.439 -10.947
v -37.325 -8.244 -10.660
v -37.176 -8.558 -10.705
v -36.894 -7.914 -11.064
v -37.390 -7.941 -11.336
v -36.745 -7.808 -11.488
v -37.167 -8.017 -11.776
v -36.776 -7.297 -12.099
v -36.838 -7.769 -12.083
v -36.741 -7.745 -11.878
v -36.662 -7.338 -12.179
v -37.286 -7.601 -10.773
v -37.095 -7.615 -10.759
v -37.286 -7.349 -11.083
v -37.084 -7.007 -10.974
v -36.894 -7.112 -11.073
v -36.738 -7.186 -11.541
v -37.177 -7.258 -11.465
v -36.671 -7.137 -12.010
v -36.887 -7.016 -11.713
v -37.065 -6.850 -11.299
v -36.895 -6.797 -11.310
v 7.070 32.421 -35.302
v 7.071 32.420 -35.301
v 7.071 32.419 -35.302
v 7.072 32.421 -35.302
v 7.071 32.421 -35.303
v 7.090 34.896 -31.849
v 7.091 34.895 -31.848
v 7.091 34.894 -31.850
v 7.092 34.895 -31.849
v 7.071 32.422 -35.302
v 7.091 34.896 -31.851
v 7.091 34.897 -31.849

# Normal Array
vn -0.642 -0.761 0.093
vn -0.108 -0.977 0.184
vn -0.336 -0.886 0.320
vn 0.151 -0.929 0.337
vn 0.134 -0.927 0.350
vn 0.384 -0.836 0.393
vn -0.641 -0.758 0.120
vn -0.203 -0.729 -0.654
vn -0.200 -0.960 -0.195
vn -0.103 -0.987 -0.119
vn 0.115 -0.969 -0.218
vn 0.067 -0.963 -0.262
vn 0.508 -0.859 0.062
vn 0.282 -0.903 -0.323
vn 0.020 -0.565 -0.825
vn 0.039 -0.576 -0.817
vn 0.101 -0.526 -0.844
vn 0.274 -0.651 -0.709
vn -0.460 -0.883 0.094
vn -0.234 -0.960 0.153
vn -0.331 -0.908 0.256
vn 0.518 -0.368 0.773
vn -0.460 -0.871 -0.172
vn -0.560 -0.790 -0.250
vn -0.309 -0.945 -0.112
vn -0.409 -0.890 -0.203
vn 0.340 -0.379 0.860
vn -0.263 -0.944 -0.198
vn -0.241 -0.953 -0.184
vn -0.285 -0.941 -0.182
vn -0.555 -0.772 -0.308
vn -0.413 -0.782 -0.467
vn -0.414 -0.826 -0.382
vn -0.393 -0.845 -0.364
vn -0.103 -0.802 -0.589
vn -0.213 -0.813 -0.542
vn -0.310 -0.867 -0.390
vn -0.150 -0.742 -0.654
vn -0.379 -0.776 -0.504
vn -0.209 -0.832 -0.514
vn -0.693 -0.296 0.657
vn -0.308 -0.654 0.691
vn -0.607 -0.317 0.729
vn 0.007 -0.614 0.789
vn -0.086 -0.578 0.812
vn 0.479 -0.331 0.813
vn -0.715 -0.447 0.537
vn -0.833 -0.439 0.335
vn -0.836 -0.436 0.333
vn -0.344 -0.797 0.496
vn -0.296 -0.793 0.532
vn 0.131 -0.916 0.379
vn 0.128 -0.918 0.375
vn 0.674 -0.503 0.540
vn 0.536 -0.548 0.643
vn 0.578 -0.625 0.524
vn 0.688 -0.575 0.444
vn 0.704 -0.457 0.544
vn -0.840 -0.480 -0.253
vn -0.951 -0.182 -0.251
vn -0.916 -0.212 -0.340
vn -0.518 -0.438 -0.735
vn 0.701 -0.681 -0.212
vn 0.641 -0.765 0.062
vn 0.902 -0.402 0.158
vn 0.814 -0.536 -0.225
vn -0.585 0.175 -0.792
vn -0.417 -0.038 -0.908
vn -0.128 -0.033 -0.991
vn -0.142 -0.061 -0.988
vn 0.092 -0.205 -0.974
vn -0.022 -0.059 -0.998
vn 0.370 -0.582 -0.724
vn 0.314 -0.130 -0.940
vn 0.251 -0.084 -0.964
vn 0.490 -0.061 -0.870
vn -0.701 -0.488 0.520
vn -0.682 -0.692 0.235
vn 0.084 -0.290 0.953
vn 0.074 0.004 0.997
vn 0.565 0.227 0.793
vn 0.561 0.642 0.522
vn -0.756 -0.647 -0.097
vn -0.896 -0.429 -0.115
vn 0.618 0.505 0.602
vn 0.496 0.794 0.352
vn 0.600 0.733 0.320
vn 0.693 0.437 0.574
vn -0.582 -0.662 0.473
vn 0.582 -0.662 0.473
vn -0.861 -0.378 -0.341
vn -0.682 -0.611 -0.402
vn -0.636 -0.572 -0.518
vn -0.697 -0.289 -0.657
vn 0.568 0.808 0.155
vn 0.558 0.830 0.006
vn 0.686 0.725 0.062
vn 0.645 0.751 0.138
vn -0.582 -0.472 -0.662
vn 0.582 -0.472 -0.662
vn -0.558 -0.100 -0.824
vn -0.365 -0.538 -0.759
vn 0.657 0.189 -0.730
vn 0.546 0.495 -0.676
vn -0.769 -0.105 0.631
vn -0.572 0.199 0.796
vn -0.492 0.171 0.854
vn -0.439 -0.043 0.898
vn 0.112 0.046 0.993
vn 0.088 -0.084 0.993
vn -0.111 -0.184 0.977
vn 0.483 -0.298 0.823
vn -0.867 0.359 0.346
vn -0.928 0.049 0.370
vn -0.886 0.092 0.455
vn -0.624 0.390 0.677
vn 0.574 0.151 0.805
vn 0.681 -0.101 0.725
vn 0.697 -0.107 0.709
vn 0.675 -0.134 0.725
vn 0.669 -0.131 0.732
vn 0.786 0.030 0.617
vn -0.931 0.312 -0.189
vn -0.971 0.209 -0.112
vn 0.263 0.461 -0.848
vn 0.976 0.132 -0.172
vn 0.988 -0.042 -0.147
vn 0.971 -0.185 0.153
vn -0.798 0.256 -0.546
vn -0.620 0.007 -0.785
vn -0.224 0.242 -0.944
vn -0.239 0.249 -0.939
vn 0.058 0.317 -0.947
vn -0.026 0.400 -0.916
vn 0.163 0.325 -0.932
vn 0.135 0.330 -0.934
vn 0.129 0.319 -0.939
vn 0.479 -0.137 -0.867
vn -0.403 0.765 0.503
vn 0.358 0.660 0.660
vn 0.155 0.885 0.438
vn 0.502 0.707 0.498
vn -0.065 0.984 0.167
vn -0.544 0.750 0.376
vn 0.297 0.921 0.252
vn 0.283 0.932 0.228
vn 0.499 0.833 0.237
vn 0.455 0.843 0.288
vn -0.583 0.472 0.661
vn 0.583 0.472 0.661
vn -0.416 0.898 -0.146
vn -0.391 0.906 -0.160
vn 0.285 0.952 0.112
vn 0.326 0.929 0.177
vn 0.512 0.842 0.170
vn 0.492 0.846 0.207
vn -0.583 0.661 -0.472
vn 0.583 0.661 -0.472
vn 0.315 0.948 0.048
vn 0.466 0.883 0.062
vn -0.458 0.203 0.866
vn 0.057 0.113 0.992
vn -0.806 0.591 0.031
vn -0.620 0.770 0.151
vn -0.514 0.584 0.628
vn -0.198 0.620 0.759
vn -0.305 0.772 0.558
vn 0.249 0.546 0.800
vn 0.557 0.476 0.681
vn 0.439 0.355 0.825
vn 0.659 0.608 0.443
vn 0.732 0.412 0.542
vn 0.636 0.241 0.733
vn 0.714 0.422 0.558
vn -0.597 0.742 -0.307
vn -0.799 0.594 0.092
vn -0.593 0.796 0.120
vn -0.391 0.747 -0.538
vn -0.323 0.873 -0.364
vn -0.030 0.757 -0.653
vn -0.190 0.822 -0.537
vn 0.190 0.858 -0.477
vn 0.359 0.801 -0.479
vn 0.358 0.810 -0.465
vn 0.149 0.865 -0.480
vn 0.737 0.469 0.486
vn -0.582 0.542 -0.606
vn -0.275 0.488 -0.828
vn -0.128 0.624 -0.771
vn -0.040 0.599 -0.800
vn -0.018 0.615 -0.788
vn 0.053 0.594 -0.803
vn -0.207 0.602 0.771
vn 0.419 0.444 0.792
vn 0.103 0.664 0.740
vn 0.578 0.645 0.501
vn -0.437 0.865 0.245
vn -0.153 0.984 -0.086
vn 0.072 0.994 0.083
vn 0.208 0.978 0.004
vn -0.561 -0.648 0.515
vn 0.070 -0.927 0.369
vn -0.413 -0.673 0.614
vn 0.487 -0.657 0.575
vn -0.571 -0.809 0.140
vn -0.820 -0.570 -0.043
vn 0.110 -0.994 -0.018
vn -0.044 -0.991 -0.123
vn 0.716 -0.624 0.314
vn 0.563 -0.807 -0.178
vn -0.822 -0.569 -0.017
vn -0.120 -0.703 -0.701
vn -0.191 -0.904 -0.382
vn -0.009 -0.958 -0.288
vn 0.568 -0.763 -0.309
vn 0.394 -0.798 -0.456
vn 0.295 -0.506 -0.811
vn 0.402 -0.532 -0.745
vn -0.730 -0.223 0.646
vn -0.778 -0.326 0.537
vn -0.155 -0.252 0.955
vn -0.139 -0.277 0.951
vn 0.372 -0.286 0.883
vn 0.526 -0.080 0.847
vn -0.943 -0.273 0.191
vn -0.942 -0.274 0.191
vn 0.556 -0.831 0.018
vn 0.303 -0.568 0.765
vn 0.831 -0.316 0.458
vn 0.482 -0.876 0.019
vn -0.922 -0.289 -0.257
vn -0.977 -0.048 -0.208
vn -0.954 -0.078 -0.289
vn -0.602 -0.346 -0.720
vn 0.503 -0.098 -0.859
vn 0.275 -0.692 -0.668
vn 0.724 -0.488 -0.487
vn 0.433 -0.102 -0.896
vn -0.667 0.247 -0.703
vn -0.450 0.017 -0.893
vn 0.159 -0.031 -0.987
vn 0.133 -0.057 -0.990
vn 0.570 -0.369 -0.734
vn 0.537 -0.140 -0.832
vn -0.994 0.107 0.022
vn 0.300 -0.732 0.612
vn -0.642 0.073 -0.764
vn 0.793 -0.400 -0.460
vn -0.730 -0.223 0.646
vn -0.527 0.010 0.850
vn 0.088 0.007 0.996
vn 0.091 0.003 0.996
vn 0.488 0.027 0.873
vn 0.568 0.289 0.771
vn -0.886 0.395 0.243
vn -0.980 0.051 0.193
vn -0.931 0.113 0.347
vn -0.627 0.438 0.645
vn 0.495 0.096 0.864
vn 0.274 0.679 0.681
vn 0.777 0.435 0.455
vn 0.443 0.099 0.891
vn -0.863 0.313 -0.396
vn -0.958 0.267 -0.104
vn -0.941 0.315 -0.126
vn -0.581 0.685 -0.439
vn 0.544 0.839 -0.008
vn 0.291 0.598 -0.747
vn 0.801 0.365 -0.474
vn 0.467 0.884 -0.010
vn -0.718 0.053 -0.694
vn -0.107 0.646 -0.756
vn -0.122 0.291 -0.949
vn 0.080 0.198 -0.977
vn 0.637 0.192 -0.747
vn 0.442 0.394 -0.806
vn -0.675 -0.154 0.722
vn 0.751 -0.456 0.478
vn -0.218 -0.271 0.938
vn 0.868 -0.298 0.398
vn -0.567 -0.094 0.818
vn -0.991 0.122 0.060
vn -0.988 0.157 0.012
vn 0.441 -0.538 0.719
vn 0.894 -0.388 0.225
vn 0.852 -0.508 0.125
vn 0.960 -0.261 0.101
vn 0.939 -0.329 -0.099
vn -0.882 0.157 -0.444
vn -0.644 -0.004 -0.765
vn 0.840 -0.376 -0.390
vn 0.834 -0.352 -0.424
vn -0.131 -0.102 -0.986
vn 0.904 -0.316 -0.289
vn 0.337 0.484 0.808
vn 0.402 0.492 0.772
vn -0.721 0.693 -0.024
vn -0.103 0.768 0.632
vn -0.091 0.952 0.292
vn 0.090 0.970 0.224
vn 0.647 0.706 0.288
vn 0.456 0.760 0.463
vn -0.685 0.703 0.191
vn -0.470 0.882 -0.024
vn 0.151 0.988 -0.019
vn 0.154 0.988 -0.016
vn 0.628 0.715 -0.309
vn 0.583 0.809 -0.075
vn 0.326 0.789 -0.521
vn 0.432 0.722 -0.540
vn -0.884 0.067 0.463
vn -0.880 0.069 0.470
vn 0.000 -0.112 0.994
vn 0.035 -0.127 0.991
vn 0.736 -0.180 0.653
vn 0.844 -0.073 0.531
vn -0.989 0.146 -0.017
vn -0.985 0.165 -0.043
vn 0.977 -0.156 0.147
vn 0.939 -0.201 0.279
vn -0.867 0.169 -0.468
vn -0.870 0.172 -0.463
vn -0.707 0.069 -0.703
vn -0.673 -0.021 -0.739
vn -0.245 -0.024 -0.969
vn 0.860 -0.355 -0.366
vn 0.895 -0.357 -0.266
vn 0.968 -0.249 -0.028
vn -0.565 0.046 -0.824
vn 0.839 -0.419 -0.348
vn -0.895 0.129 0.427
vn 0.340 0.025 0.940
vn -0.055 0.176 0.983
vn 0.817 -0.037 0.575
vn -0.855 0.403 0.327
vn -0.966 0.201 0.164
vn -0.983 0.181 -0.021
vn -0.041 0.334 0.942
vn 0.557 0.268 0.786
vn 0.837 0.006 0.547
vn 0.949 0.004 0.316
vn 0.942 0.017 0.334
vn -0.944 0.254 -0.208
vn -0.865 0.180 -0.469
vn -0.472 0.643 -0.603
vn -0.857 0.268 -0.441
vn -0.739 0.247 -0.627
vn 0.649 0.741 0.171
vn 0.988 -0.084 0.133
vn 1.000 -0.011 0.011
vn -0.303 0.605 -0.736
vn 0.986 -0.081 0.148
vn -0.870 0.461 0.174
vn 0.599 0.482 0.640
vn -0.249 0.877 0.411
vn 0.937 0.211 0.278
vn -0.926 0.330 -0.185
vn -0.765 0.413 -0.495
vn -0.295 0.837 -0.462
vn 0.840 0.484 -0.247
vn -0.611 -0.666 0.428
vn 0.564 -0.694 0.447
vn -0.583 -0.456 -0.672
vn 0.553 -0.480 -0.681
vn -0.609 -0.665 0.432
vn 0.565 -0.696 0.443
vn -0.560 0.491 0.668
vn -0.602 -0.480 -0.637
vn 0.572 -0.505 -0.646
vn 0.587 0.463 0.664
vn -0.531 0.673 -0.515
vn 0.576 0.646 -0.502
vn -0.558 0.487 0.672
vn 0.588 0.464 0.662
vn -0.545 0.684 -0.484
vn 0.590 0.655 -0.472

# Facets
f 1//1 3//1 2//1
f 4//2 3//2 5//2
f 4//3 2//3 3//3
f 6//4 5//4 7//4
f 6//5 4//5 5//5
f 8//6 6//6 7//6
f 9//7 3//7 1//7
f 10//8 9//8 11//8
f 3//9 9//9 10//9
f 5//10 3//10 10//10
f 12//11 7//11 5//11
f 10//12 12//12 5//12
f 7//13 13//13 8//13
f 7//14 12//14 13//14
f 14//15 10//15 11//15
f 14//16 12//16 10//16
f 14//17 15//17 12//17
f 15//18 13//18 12//18
f 16//19 18//19 17//19
f 19//20 18//20 20//20
f 19//21 17//21 18//21
f 21//22 19//22 20//22
f 16//23 22//23 18//23
f 16//24 23//24 22//24
f 24//25 20//25 18//25
f 22//26 24//26 18//26
f 20//27 25//27 21//27
f 26//28 25//28 20//28
f 24//29 26//29 20//29
f 27//30 25//30 26//30
f 28//31 22//31 23//31
f 29//32 28//32 30//32
f 22//33 28//33 29//33
f 24//34 22//34 29//34
f 26//35 32//35 31//35
f 29//36 32//36 26//36
f 24//37 29//37 26//37
f 31//38 27//38 26//38
f 33//39 29//39 30//39
f 33//40 32//40 29//40
f 34//41 36//41 35//41
f 37//42 36//42 38//42
f 37//43 35//43 36//43
f 39//44 38//44 40//44
f 39//45 37//45 38//45
f 41//46 39//46 40//46
f 34//47 2//47 36//47
f 1//48 2//48 34//48
f 42//49 1//49 34//49
f 2//50 4//50 36//50
f 4//51 38//51 36//51
f 4//52 6//52 38//52
f 6//53 40//53 38//53
f 43//54 8//54 44//54
f 43//55 6//55 8//55
f 41//56 6//56 43//56
f 40//57 6//57 41//57
f 45//58 43//58 44//58
f 1//59 46//59 9//59
f 47//60 46//60 1//60
f 42//61 47//61 1//61
f 11//62 9//62 46//62
f 48//63 44//63 13//63
f 44//64 8//64 13//64
f 44//65 49//65 45//65
f 44//66 48//66 49//66
f 50//67 46//67 47//67
f 50//68 11//68 46//68
f 14//69 11//69 50//69
f 51//70 14//70 50//70
f 52//71 15//71 14//71
f 52//72 14//72 51//72
f 15//73 48//73 13//73
f 53//74 48//74 15//74
f 52//75 53//75 15//75
f 53//76 49//76 48//76
f 54//77 17//77 55//77
f 54//78 16//78 17//78
f 17//79 19//79 56//79
f 55//80 17//80 56//80
f 21//81 56//81 19//81
f 21//82 57//82 56//82
f 23//83 16//83 54//83
f 23//84 54//84 58//84
f 25//85 59//85 21//85
f 21//86 59//86 60//86
f 21//87 60//87 57//87
f 59//88 25//88 27//88
f 61//89 63//89 62//89
f 64//90 62//90 63//90
f 65//91 23//91 58//91
f 65//92 28//92 23//92
f 28//93 65//93 30//93
f 65//94 66//94 30//94
f 59//95 31//95 60//95
f 60//96 31//96 32//96
f 60//97 32//97 67//97
f 59//98 27//98 31//98
f 68//99 63//99 61//99
f 68//100 64//100 63//100
f 69//101 30//101 66//101
f 69//102 33//102 30//102
f 33//103 67//103 32//103
f 33//104 69//104 67//104
f 34//105 35//105 70//105
f 35//106 71//106 70//106
f 72//107 71//107 35//107
f 37//108 72//108 35//108
f 72//109 74//109 73//109
f 39//110 74//110 72//110
f 37//111 39//111 72//111
f 74//112 39//112 41//112
f 75//113 70//113 76//113
f 34//114 70//114 75//114
f 42//115 34//115 75//115
f 70//116 71//116 76//116
f 73//117 74//117 77//117
f 74//118 41//118 77//118
f 77//119 41//119 43//119
f 77//120 43//120 78//120
f 45//121 78//121 43//121
f 45//122 79//122 78//122
f 47//123 42//123 75//123
f 47//124 75//124 80//124
f 81//125 83//125 82//125
f 79//126 83//126 81//126
f 49//127 83//127 79//127
f 45//128 49//128 79//128
f 84//129 47//129 80//129
f 84//130 50//130 47//130
f 85//131 51//131 50//131
f 85//132 50//132 84//132
f 86//133 52//133 51//133
f 86//134 51//134 85//134
f 53//135 82//135 83//135
f 86//136 82//136 53//136
f 52//137 86//137 53//137
f 83//138 49//138 53//138
f 54//139 55//139 87//139
f 88//140 55//140 56//140
f 88//141 87//141 55//141
f 88//142 56//142 57//142
f 58//143 87//143 89//143
f 58//144 54//144 87//144
f 87//145 88//145 90//145
f 87//146 90//146 89//146
f 90//147 57//147 60//147
f 90//148 88//148 57//148
f 61//149 62//149 91//149
f 91//150 62//150 64//150
f 65//151 58//151 89//151
f 89//152 66//152 65//152
f 92//153 66//153 89//153
f 90//154 92//154 89//154
f 92//155 60//155 67//155
f 92//156 90//156 60//156
f 68//157 61//157 91//157
f 91//158 64//158 68//158
f 69//159 66//159 92//159
f 92//160 67//160 69//160
f 71//161 72//161 93//161
f 93//162 72//162 73//162
f 75//163 76//163 94//163
f 94//164 76//164 95//164
f 76//165 71//165 95//165
f 95//166 71//166 96//166
f 96//167 71//167 93//167
f 93//168 73//168 96//168
f 96//169 73//169 77//169
f 96//170 77//170 97//170
f 97//171 99//171 98//171
f 78//172 99//172 97//172
f 77//173 78//173 97//173
f 99//174 78//174 79//174
f 80//175 94//175 100//175
f 80//176 75//176 94//176
f 95//177 101//177 94//177
f 94//178 101//178 102//178
f 94//179 102//179 100//179
f 103//180 102//180 104//180
f 102//181 101//181 104//181
f 104//182 98//182 103//182
f 98//183 99//183 103//183
f 103//184 99//184 82//184
f 82//185 99//185 81//185
f 99//186 79//186 81//186
f 84//187 80//187 100//187
f 100//188 85//188 84//188
f 100//189 102//189 85//189
f 102//190 86//190 85//190
f 102//191 103//191 86//191
f 103//192 82//192 86//192
f 95//193 96//193 105//193
f 106//194 96//194 97//194
f 106//195 105//195 96//195
f 106//196 97//196 98//196
f 101//197 95//197 105//197
f 105//198 104//198 101//198
f 105//199 106//199 104//199
f 106//200 98//200 104//200
f 107//201 109//201 108//201
f 110//202 109//202 111//202
f 110//203 108//203 109//203
f 112//204 110//204 111//204
f 107//205 113//205 109//205
f 107//206 114//206 113//206
f 115//207 111//207 109//207
f 113//208 115//208 109//208
f 111//209 116//209 112//209
f 111//210 115//210 116//210
f 117//211 113//211 114//211
f 118//212 117//212 119//212
f 113//213 117//213 118//213
f 115//214 113//214 118//214
f 115//215 120//215 116//215
f 115//216 118//216 120//216
f 121//217 118//217 119//217
f 121//218 120//218 118//218
f 122//219 108//219 123//219
f 122//220 107//220 108//220
f 108//221 110//221 124//221
f 123//222 108//222 124//222
f 112//223 124//223 110//223
f 112//224 125//224 124//224
f 114//225 107//225 122//225
f 114//226 122//226 126//226
f 127//227 128//227 116//227
f 116//228 128//228 125//228
f 116//229 125//229 112//229
f 129//230 128//230 127//230
f 114//231 130//231 117//231
f 131//232 130//232 114//232
f 126//233 131//233 114//233
f 119//234 117//234 130//234
f 132//235 127//235 133//235
f 133//236 127//236 116//236
f 133//237 116//237 120//237
f 132//238 129//238 127//238
f 134//239 130//239 131//239
f 134//240 119//240 130//240
f 121//241 119//241 134//241
f 135//242 121//242 134//242
f 121//243 133//243 120//243
f 121//244 135//244 133//244
f 136//245 138//245 137//245
f 139//246 137//246 138//246
f 140//247 138//247 136//247
f 140//248 139//248 138//248
f 122//249 123//249 141//249
f 123//250 142//250 141//250
f 143//251 142//251 123//251
f 124//252 143//252 123//252
f 125//253 143//253 124//253
f 125//254 144//254 143//254
f 145//255 141//255 146//255
f 122//256 141//256 145//256
f 126//257 122//257 145//257
f 141//258 142//258 146//258
f 128//259 147//259 125//259
f 125//260 147//260 148//260
f 125//261 148//261 144//261
f 147//262 128//262 129//262
f 131//263 150//263 149//263
f 145//264 150//264 131//264
f 126//265 145//265 131//265
f 149//266 150//266 151//266
f 147//267 132//267 148//267
f 148//268 132//268 133//268
f 148//269 133//269 152//269
f 147//270 129//270 132//270
f 134//271 131//271 149//271
f 153//272 149//272 151//272
f 134//273 149//273 153//273
f 135//274 134//274 153//274
f 135//275 152//275 133//275
f 135//276 153//276 152//276
f 154//277 156//277 155//277
f 157//278 156//278 158//278
f 157//279 155//279 156//279
f 159//280 157//280 158//280
f 154//281 137//281 156//281
f 136//282 137//282 154//282
f 160//283 136//283 154//283
f 137//284 139//284 156//284
f 156//285 139//285 161//285
f 156//286 161//286 158//286
f 158//287 162//287 159//287
f 158//288 161//288 162//288
f 163//289 136//289 160//289
f 163//290 140//290 136//290
f 140//291 161//291 139//291
f 164//292 161//292 140//292
f 163//293 164//293 140//293
f 164//294 162//294 161//294
f 142//295 143//295 165//295
f 165//296 143//296 144//296
f 145//297 146//297 166//297
f 165//298 146//298 142//298
f 166//299 146//299 165//299
f 167//300 166//300 165//300
f 167//301 144//301 148//301
f 167//302 165//302 144//302
f 150//303 145//303 166//303
f 166//304 151//304 150//304
f 168//305 151//305 166//305
f 167//306 168//306 166//306
f 168//307 148//307 152//307
f 168//308 167//308 148//308
f 153//309 151//309 168//309
f 168//310 152//310 153//310
f 169//311 155//311 170//311
f 169//312 154//312 155//312
f 155//313 157//313 171//313
f 170//314 155//314 171//314
f 159//315 171//315 157//315
f 159//316 172//316 171//316
f 160//317 154//317 169//317
f 160//318 169//318 173//318
f 172//319 159//319 162//319
f 174//320 172//320 162//320
f 175//321 160//321 173//321
f 175//322 163//322 160//322
f 176//323 177//323 175//323
f 175//324 177//324 164//324
f 175//325 164//325 163//325
f 178//326 164//326 177//326
f 162//327 164//327 178//327
f 174//328 162//328 178//328
f 179//329 177//329 176//329
f 179//330 178//330 177//330
f 169//331 170//331 180//331
f 181//332 170//332 171//332
f 181//333 180//333 170//333
f 181//334 171//334 172//334
f 182//335 180//335 183//335
f 169//336 180//336 182//336
f 173//337 169//337 182//337
f 180//338 181//338 183//338
f 181//339 184//339 183//339
f 172//340 184//340 181//340
f 185//341 184//341 172//341
f 174//342 185//342 172//342
f 186//343 173//343 182//343
f 186//344 175//344 173//344
f 187//345 176//345 188//345
f 188//346 176//346 175//346
f 188//347 175//347 186//347
f 185//348 187//348 188//348
f 178//349 187//349 185//349
f 174//350 178//350 185//350
f 179//351 176//351 187//351
f 187//352 178//352 179//352
f 182//353 183//353 189//353
f 190//354 183//354 184//354
f 190//355 189//355 183//355
f 190//356 184//356 185//356
f 186//357 182//357 189//357
f 189//358 188//358 186//358
f 189//359 190//359 188//359
f 190//360 185//360 188//360
f 191//361 193//361 192//361
f 194//362 192//362 193//362
f 195//363 193//363 191//363
f 195//364 194//364 193//364
f 196//365 198//365 197//365
f 199//366 197//366 198//366
f 191//367 192//367 200//367
f 201//368 198//368 196//368
f 199//369 198//369 201//369
f 200//370 192//370 194//370
f 195//371 191//371 200//371
f 200//372 194//372 195//372
f 196//373 197//373 202//373
f 202//374 197//374 199//374
f 201//375 196//375 202//375
f 202//376 199//376 201//376

# Thankyou for using Spin3D

