# Created using Spin3D

# Vertex Array
v -15.172 -26.589 17.710
v -14.857 -26.264 17.709
v -14.854 -26.577 17.705
v -14.333 -26.245 17.725
v -14.239 -26.449 17.677
v -13.868 -26.241 17.708
v -13.717 -26.209 17.644
v -13.488 -25.908 17.652
v -15.047 -26.495 17.659
v -14.540 -26.325 17.601
v -14.627 -25.853 17.550
v -13.871 -26.076 17.556
v -13.384 -25.700 17.549
v -13.994 -25.634 17.462
v -13.482 -25.466 17.449
v -15.068 -26.304 17.664
v -14.625 -25.664 17.612
v -14.111 -25.449 17.656
v -13.691 -25.708 17.682
v -13.236 -25.254 17.573
v -14.286 -25.122 17.495
v -13.145 -24.967 17.444
v -13.944 -24.995 17.416
v -13.431 -24.887 17.380
v -14.018 -24.835 17.535
v -13.603 -24.597 17.558
v -13.401 -24.873 17.590
v -13.063 -24.507 17.472
v -13.828 -24.567 17.431
v -13.474 -24.270 17.454
v -13.101 -24.411 17.384
v -13.409 -24.370 17.377
v 38.278 -14.862 -21.587
v 38.276 -14.864 -21.589
v 38.278 -14.863 -21.589
v 38.275 -14.867 -21.590
v 38.278 -14.866 -21.588
v 38.273 -14.870 -21.589
v 38.277 -14.866 -21.588
v 38.274 -14.868 -21.588
v -13.227 -24.289 17.497
v -13.130 -24.157 17.413
v 38.274 -14.865 -21.588
v 38.272 -14.867 -21.589
v 38.273 -14.869 -21.590
v 38.270 -14.870 -21.589
v 38.271 -14.868 -21.588
v 38.269 -14.870 -21.590
v 0.668 -8.701 25.027
v 0.657 -8.723 25.153
v 1.016 -9.069 24.783
v 1.122 -9.183 24.777
v 1.225 -9.231 24.590
v 1.233 -9.220 24.629
v 0.723 -8.560 24.750
v 1.201 -9.102 24.519
v 9.177 -8.990 21.788
v 9.175 -8.989 21.786
v 9.175 -8.990 21.788
v 9.173 -8.989 21.787
v 9.174 -8.990 21.790
v -0.932 -7.034 26.375
v -1.140 -6.802 26.668
v -0.646 -7.372 26.279
v -0.704 -7.247 26.368
v -0.050 -7.953 25.783
v -0.297 -7.505 25.868
v -0.093 -7.874 25.614
v -0.926 -6.897 26.097
v 0.706 -8.651 25.081
v 1.059 -8.913 24.651
v -0.246 -7.411 25.299
v -0.025 -7.421 24.879
v 0.313 -7.843 24.678
v 0.552 -8.111 24.599
v 0.935 -8.682 24.569
v 9.177 -8.988 21.788
v 9.174 -8.988 21.786
v 9.173 -8.988 21.788
v 0.283 -7.702 24.602
v 9.175 -8.988 21.790
v -1.352 -6.504 26.625
v -1.419 -6.397 26.793
v -1.073 -6.746 26.585
v -0.927 -6.739 26.285
v -1.337 -6.390 26.377
v 0.454 -8.125 24.966
v -0.428 -7.138 25.632
v -0.978 -6.665 25.924
v 0.069 -7.526 24.921
v -0.618 -6.894 25.549
v 9.175 -8.987 21.788
v -1.451 -6.255 26.602
v -1.329 -6.373 26.639
v -1.230 -6.375 26.192
v -1.106 -6.481 26.221
v 6.013 -5.412 64.975
v 6.015 -5.412 64.976
v 6.015 -5.413 64.975
v 6.016 -5.412 64.975
v 6.015 -5.412 64.974
v 6.015 -5.411 64.975

# Normal Array
vn 0.016 -0.011 1.000
vn 0.085 -0.191 0.978
vn -0.030 -0.012 0.999
vn 0.381 -0.760 0.526
vn 0.036 -0.213 0.976
vn 0.425 -0.345 0.836
vn 0.005 -0.485 -0.874
vn -0.073 -0.119 -0.990
vn 0.039 -0.424 -0.905
vn 0.049 -0.435 -0.899
vn 0.141 -0.429 -0.892
vn 0.078 -0.378 -0.923
vn 0.745 -0.556 -0.370
vn 0.240 -0.328 -0.914
vn -0.094 -0.123 -0.988
vn 0.010 -0.203 -0.979
vn 0.038 -0.196 -0.980
vn 0.221 -0.303 -0.927
vn -0.243 0.240 0.940
vn -0.244 0.246 0.938
vn -0.176 0.223 0.959
vn -0.034 0.095 0.995
vn 0.035 0.036 0.999
vn -0.008 0.087 0.996
vn 0.147 -0.001 0.989
vn 0.191 0.045 0.981
vn -0.372 -0.013 -0.928
vn -0.252 0.001 -0.968
vn -0.495 0.275 -0.824
vn -0.643 0.245 -0.726
vn 0.907 -0.316 0.276
vn 0.949 -0.313 -0.033
vn -0.238 0.038 -0.971
vn -0.116 -0.063 -0.991
vn 0.013 -0.119 -0.993
vn -0.055 -0.068 -0.996
vn 0.345 -0.242 -0.907
vn 0.181 -0.131 -0.975
vn -0.174 0.216 0.961
vn -0.177 0.217 0.960
vn -0.001 0.115 0.993
vn 0.005 0.108 0.994
vn 0.195 0.041 0.980
vn 0.260 0.070 0.963
vn -0.716 0.627 0.308
vn -0.641 0.522 0.562
vn -0.271 0.387 0.881
vn -0.551 0.611 0.568
vn 0.950 -0.186 0.250
vn 0.855 -0.123 -0.504
vn -0.259 0.103 -0.960
vn -0.315 0.440 -0.841
vn -0.163 0.078 -0.984
vn -0.069 -0.003 -0.998
vn 0.184 -0.121 -0.976
vn 0.021 -0.007 -1.000
vn -0.462 0.677 -0.573
vn 0.478 -0.068 -0.876
vn -0.176 0.358 -0.917
vn 0.519 -0.359 -0.776
vn 0.945 -0.280 0.169
vn 0.272 0.050 0.961
vn 0.194 -0.080 0.978
vn 0.457 -0.628 0.629
vn 0.042 0.146 0.988
vn 0.250 0.080 0.965
vn -0.095 0.580 0.809
vn -0.133 0.348 0.928
vn 0.955 0.140 -0.260
vn 0.435 0.229 0.871
vn -0.255 0.479 -0.840
vn 0.038 0.120 -0.992
vn -0.676 0.684 -0.275
vn -0.642 0.764 -0.066
vn -0.047 0.161 -0.986
vn -0.505 0.404 -0.763
vn 0.023 -0.101 -0.995
vn -0.204 -0.198 -0.959
vn 0.025 -0.187 0.982
vn -0.722 0.615 0.316
vn 0.028 -0.149 0.988
vn -0.272 0.393 0.878
vn 0.189 -0.598 0.779
vn -0.225 0.079 0.971
vn -0.013 0.164 -0.986
vn 0.218 -0.904 -0.367
vn -0.612 0.610 0.504
vn -0.562 0.387 0.731
vn -0.771 -0.611 -0.179
vn -0.719 -0.656 -0.228
vn -0.732 -0.676 -0.079
vn 0.061 -0.958 0.281
vn -0.784 -0.477 -0.397
vn -0.767 -0.470 -0.436
vn -0.737 -0.427 -0.524
vn 0.975 0.061 -0.215
vn 0.242 -0.916 -0.320
vn -0.163 -0.895 -0.415
vn 0.147 -0.984 0.097
vn -0.267 -0.964 0.002
vn -0.768 -0.640 -0.036
vn 0.213 -0.499 0.840
vn -0.057 -0.596 0.801
vn 0.806 0.356 0.473
vn -0.775 -0.603 -0.189
vn -0.795 -0.536 -0.284
vn -0.784 -0.596 -0.177
vn -0.771 -0.629 -0.095
vn -0.741 -0.661 -0.118
vn 0.789 0.339 0.512
vn 0.742 0.145 0.654
vn 0.719 0.178 0.672
vn 0.793 0.327 0.514
vn 0.809 0.429 0.403
vn -0.791 -0.501 -0.351
vn -0.797 -0.442 -0.411
vn -0.790 -0.489 -0.371
vn -0.792 -0.501 -0.350
vn -0.799 -0.458 -0.390
vn -0.691 -0.452 -0.564
vn -0.715 -0.451 -0.534
vn -0.717 -0.385 -0.581
vn 0.850 0.464 0.249
vn 0.842 0.513 0.170
vn 0.525 0.376 -0.763
vn 0.804 -0.206 -0.558
vn -0.486 -0.153 -0.860
vn -0.804 0.385 -0.453
vn -0.788 -0.411 -0.459
vn -0.690 -0.449 -0.568
vn 0.820 0.174 0.545
vn 0.504 -0.433 0.747
vn -0.817 -0.361 0.449
vn -0.515 0.136 0.846
vn -0.817 -0.576 0.034
vn -0.804 -0.586 -0.105
vn 0.688 0.203 0.697
vn 0.666 0.243 0.705
vn 0.802 0.395 0.449
vn 0.803 0.444 0.398
vn -0.813 -0.514 -0.273
vn -0.815 -0.506 -0.281
vn 0.811 0.466 0.355
vn 0.804 0.496 0.328
vn 0.810 0.493 0.319
vn 0.802 0.466 0.375
vn -0.811 -0.456 -0.366
vn -0.800 -0.464 -0.381
vn 0.722 0.684 0.102
vn -0.820 -0.385 -0.424
vn -0.773 -0.282 -0.568
vn 0.747 0.642 0.171
vn 0.801 0.535 0.267
vn 0.809 0.538 0.237
vn 0.813 0.532 0.238
vn 0.814 0.526 0.248
vn 0.176 0.980 -0.097
vn -0.244 0.970 -0.006
vn 0.721 0.685 0.107
vn 0.810 0.531 0.251
vn 0.267 0.913 0.309
vn -0.145 0.905 0.400
vn -0.916 -0.379 -0.131
vn 0.744 0.441 0.502
vn 0.557 0.708 0.434
vn 0.783 0.484 0.389
vn -0.864 0.094 -0.495
vn -0.896 -0.380 -0.228
vn 0.661 0.732 0.166
vn 0.630 0.768 0.117
vn 0.773 0.591 0.231
vn 0.764 0.592 0.257
vn -0.827 -0.255 -0.501
vn -0.715 0.026 -0.699
vn 0.650 0.760 0.004
vn 0.753 0.641 0.152
vn -0.589 -0.662 0.464
vn 0.567 -0.678 0.467
vn -0.588 -0.473 -0.656
vn 0.577 -0.494 -0.650
vn -0.577 0.489 0.654
vn 0.591 0.472 0.654
vn -0.568 0.674 -0.473
vn 0.592 0.659 -0.463

# Facets
f 1//1 3//1 2//1
f 4//2 3//2 5//2
f 4//3 2//3 3//3
f 6//4 5//4 7//4
f 6//5 4//5 5//5
f 8//6 6//6 7//6
f 9//7 3//7 1//7
f 10//8 9//8 11//8
f 3//9 9//9 10//9
f 5//10 3//10 10//10
f 12//11 7//11 5//11
f 10//12 12//12 5//12
f 7//13 13//13 8//13
f 7//14 12//14 13//14
f 14//15 10//15 11//15
f 14//16 12//16 10//16
f 14//17 15//17 12//17
f 15//18 13//18 12//18
f 1//19 2//19 16//19
f 2//20 17//20 16//20
f 18//21 17//21 2//21
f 4//22 18//22 2//22
f 4//23 6//23 19//23
f 18//24 4//24 19//24
f 8//25 19//25 6//25
f 8//26 20//26 19//26
f 9//27 1//27 16//27
f 9//28 16//28 11//28
f 11//29 16//29 17//29
f 11//30 17//30 21//30
f 20//31 8//31 13//31
f 22//32 20//32 13//32
f 23//33 11//33 21//33
f 23//34 14//34 11//34
f 24//35 15//35 14//35
f 24//36 14//36 23//36
f 15//37 22//37 13//37
f 15//38 24//38 22//38
f 17//39 18//39 25//39
f 18//40 26//40 25//40
f 27//41 26//41 18//41
f 19//42 27//42 18//42
f 20//43 27//43 19//43
f 20//44 28//44 27//44
f 21//45 25//45 29//45
f 21//46 17//46 25//46
f 26//47 30//47 25//47
f 30//48 29//48 25//48
f 28//49 20//49 22//49
f 31//50 28//50 22//50
f 23//51 21//51 29//51
f 32//52 29//52 30//52
f 23//53 29//53 32//53
f 24//54 23//54 32//54
f 24//55 31//55 22//55
f 24//56 32//56 31//56
f 33//57 35//57 34//57
f 36//58 35//58 37//58
f 36//59 34//59 35//59
f 38//60 36//60 37//60
f 39//61 35//61 33//61
f 39//62 37//62 35//62
f 39//63 40//63 37//63
f 40//64 38//64 37//64
f 26//65 27//65 41//65
f 41//66 27//66 28//66
f 30//67 41//67 42//67
f 30//68 26//68 41//68
f 42//69 28//69 31//69
f 42//70 41//70 28//70
f 32//71 30//71 42//71
f 42//72 31//72 32//72
f 33//73 34//73 43//73
f 34//74 44//74 43//74
f 45//75 44//75 34//75
f 36//76 45//76 34//76
f 38//77 45//77 36//77
f 38//78 46//78 45//78
f 39//79 33//79 43//79
f 47//80 43//80 44//80
f 39//81 43//81 47//81
f 40//82 39//82 47//82
f 40//83 46//83 38//83
f 40//84 47//84 46//84
f 44//85 45//85 48//85
f 48//86 45//86 46//86
f 47//87 44//87 48//87
f 48//88 46//88 47//88
f 49//89 51//89 50//89
f 52//90 51//90 53//90
f 52//91 50//91 51//91
f 54//92 52//92 53//92
f 55//93 51//93 49//93
f 55//94 53//94 51//94
f 55//95 56//95 53//95
f 56//96 54//96 53//96
f 57//97 59//97 58//97
f 60//98 58//98 59//98
f 61//99 59//99 57//99
f 61//100 60//100 59//100
f 62//101 64//101 63//101
f 65//102 64//102 66//102
f 65//103 63//103 64//103
f 67//104 65//104 66//104
f 62//105 68//105 64//105
f 62//106 69//106 68//106
f 49//107 50//107 68//107
f 68//108 50//108 66//108
f 68//109 66//109 64//109
f 67//110 66//110 70//110
f 70//111 66//111 50//111
f 70//112 50//112 52//112
f 54//113 70//113 52//113
f 54//114 71//114 70//114
f 72//115 68//115 69//115
f 73//116 74//116 72//116
f 74//117 55//117 72//117
f 72//118 55//118 68//118
f 68//119 55//119 49//119
f 74//120 75//120 55//120
f 55//121 75//121 76//121
f 55//122 76//122 56//122
f 56//123 71//123 54//123
f 56//124 76//124 71//124
f 77//125 58//125 78//125
f 77//126 57//126 58//126
f 60//127 78//127 58//127
f 60//128 79//128 78//128
f 80//129 74//129 73//129
f 80//130 75//130 74//130
f 81//131 57//131 77//131
f 81//132 61//132 57//132
f 61//133 79//133 60//133
f 61//134 81//134 79//134
f 82//135 63//135 83//135
f 82//136 62//136 63//136
f 63//137 65//137 84//137
f 83//138 63//138 84//138
f 67//139 84//139 65//139
f 67//140 85//140 84//140
f 69//141 62//141 82//141
f 69//142 82//142 86//142
f 70//143 87//143 67//143
f 67//144 87//144 88//144
f 67//145 88//145 85//145
f 87//146 70//146 71//146
f 89//147 69//147 86//147
f 89//148 72//148 69//148
f 90//149 73//149 91//149
f 91//150 73//150 72//150
f 91//151 72//151 89//151
f 91//152 88//152 90//152
f 88//153 87//153 90//153
f 90//154 87//154 75//154
f 75//155 87//155 76//155
f 87//156 71//156 76//156
f 77//157 78//157 92//157
f 92//158 78//158 79//158
f 80//159 73//159 90//159
f 90//160 75//160 80//160
f 81//161 77//161 92//161
f 92//162 79//162 81//162
f 82//163 83//163 93//163
f 94//164 83//164 84//164
f 94//165 93//165 83//165
f 94//166 84//166 85//166
f 86//167 93//167 95//167
f 86//168 82//168 93//168
f 93//169 94//169 96//169
f 93//170 96//170 95//170
f 96//171 85//171 88//171
f 96//172 94//172 85//172
f 89//173 86//173 95//173
f 95//174 91//174 89//174
f 95//175 96//175 91//175
f 96//176 88//176 91//176
f 97//177 99//177 98//177
f 100//178 98//178 99//178
f 101//179 99//179 97//179
f 101//180 100//180 99//180
f 97//181 98//181 102//181
f 102//182 98//182 100//182
f 101//183 97//183 102//183
f 102//184 100//184 101//184

# Thankyou for using Spin3D

