# Created using Spin3D

# Vertex Array
v 19.977 -46.488 19.031
v 20.248 -46.459 19.218
v 20.312 -46.628 19.255
v 20.662 -46.558 19.454
v 20.767 -46.699 19.479
v 21.018 -46.648 19.626
v 21.060 -46.669 19.584
v 21.084 -46.544 19.577
v 19.957 -46.535 18.927
v 19.773 -46.329 18.768
v 20.370 -46.649 19.181
v 20.732 -46.590 19.300
v 21.018 -46.529 19.465
v 19.728 -46.375 18.647
v 19.687 -46.204 18.564
v 20.094 -46.451 18.847
v 20.830 -46.434 19.282
v 20.463 -46.316 19.005
v 19.755 -46.266 18.555
v 20.013 -46.212 18.676
v 20.012 -46.296 18.986
v 20.429 -46.173 19.171
v 20.884 -46.452 19.497
v 19.999 -46.024 18.780
v 20.489 -45.822 19.047
v 20.308 -45.778 18.936
v 20.443 -45.778 18.955
v 20.729 -46.206 19.233
v 19.838 -46.105 18.577
v 20.262 -45.734 18.844
v 20.230 -45.994 18.815
v 20.387 -45.650 18.926
v 5.509 -26.833 27.475
v 5.642 -26.704 27.579
v 5.658 -26.847 27.515
v 5.895 -26.474 27.424
v 5.456 -26.335 27.105
v 21.999 -27.630 13.813
v 22.000 -27.631 13.813
v 21.998 -27.631 13.815
v 21.997 -27.632 13.816
v 21.995 -27.630 13.816
v 21.996 -27.631 13.813
v 21.995 -27.631 13.818
v 21.993 -27.631 13.818
v 21.992 -27.632 13.822
v 21.992 -27.632 13.818
v 21.992 -27.633 13.821
v 4.924 -25.543 26.795
v 5.279 -25.937 27.247
v 5.264 -26.401 27.244
v 5.680 -26.331 27.548
v 6.011 -26.449 27.622
v 6.197 -26.516 27.632
v 6.239 -26.377 27.614
v 5.032 -25.797 26.706
v 4.977 -25.218 26.278
v 5.208 -25.466 26.463
v 5.651 -25.040 26.435
v 6.097 -25.929 27.242
v 5.163 -24.330 25.847
v 21.997 -27.631 13.814
v 21.994 -27.632 13.816
v 21.993 -27.632 13.819
v 4.924 -25.101 26.775
v 5.174 -24.987 26.831
v 5.657 -25.502 27.130
v 5.806 -24.419 26.360
v 6.075 -25.866 27.323
v 4.874 -24.885 26.225
v 4.836 -24.472 26.256
v 5.739 -23.719 25.748
v 4.998 -23.641 25.610
v 5.305 -22.347 24.951
v 5.266 -22.963 25.148
v 5.544 -23.122 25.276
v 5.471 -22.175 24.747
v 4.972 -24.334 26.388
v 5.365 -23.919 26.176
v 5.072 -23.398 25.719
v 5.619 -22.906 25.497
v 5.415 -22.486 25.220
v 5.718 -22.631 25.181
v 5.533 -21.738 24.680
v 5.632 -21.993 24.695
v 5.547 -21.683 24.549
v 5.630 -22.012 24.899
v 5.659 -21.702 24.620
v 7.417 -6.757 30.474
v 7.231 -6.662 30.381
v 7.097 -6.595 30.320
v 7.446 -6.773 30.487
v 7.354 -6.726 30.444
v 52.972 -0.390 -11.817
v 53.055 -0.229 -11.365
v 53.470 -0.787 -11.955
v 53.578 -0.605 -11.590
v 54.023 -0.815 -12.133
v 54.071 -0.400 -11.896
v 53.465 -0.611 -12.550
v 52.942 0.068 -12.204
v 54.182 -0.817 -12.788
v 54.780 -0.452 -12.838
v 53.545 -0.159 -13.007
v 54.250 -0.515 -13.428
v 54.200 0.085 -13.639
v 55.048 -0.535 -13.685
v 55.036 -0.193 -14.104
v -1.361 -5.842 31.381
v -1.360 -5.842 31.379
v -1.360 -5.840 31.381
v -1.359 -5.842 31.379
v -1.359 -5.841 31.382
v -1.358 -5.842 31.381
v 6.727 -6.404 30.135
v 6.855 -6.467 30.196
v 6.422 -6.246 29.983
v 7.246 -6.669 30.389
v 7.280 -6.689 30.409
v -1.360 -5.842 31.383
v -1.359 -5.843 31.383
v 6.136 -6.101 29.846
v 6.020 -6.042 29.793
v 6.229 -6.150 29.894
v 6.507 -6.295 30.034
v 6.911 -6.501 30.233
v 6.497 -6.291 30.032
v 6.113 -6.092 29.841
v 6.258 -6.167 29.914
v 52.658 0.369 -11.422
v 52.850 0.695 -11.020
v 53.495 0.097 -11.352
v 54.346 0.440 -12.160
v 52.633 0.982 -11.757
v 55.653 -0.231 -13.857
v 55.368 0.061 -13.286
v 55.836 0.145 -13.920
v 53.324 0.666 -12.729
v 54.193 0.674 -13.466
v 55.645 -0.219 -14.258
v 55.931 0.023 -14.289
v 54.867 0.297 -14.037
v 55.541 0.159 -14.289
v -1.360 -5.844 31.381
v -1.359 -5.844 31.381
v 6.434 -6.252 29.993
v 6.903 -6.494 30.226
v 6.127 -6.098 29.847
v 6.476 -6.278 30.021
v 52.530 1.277 -11.122
v 52.779 1.455 -10.903
v 53.319 1.051 -11.157
v 53.656 1.367 -11.570
v 52.557 1.645 -11.439
v 55.251 0.528 -13.334
v 54.240 1.153 -12.463
v 52.862 1.439 -12.005
v 54.896 0.717 -13.605
v 53.634 1.321 -12.545
v 55.723 0.347 -14.073
v 52.726 1.812 -11.158
v 53.081 1.680 -11.102
v 52.894 1.807 -11.683
v 53.315 1.735 -11.651

# Normal Array
vn -0.564 -0.031 0.825
vn -0.458 -0.185 0.870
vn -0.495 0.005 0.869
vn -0.051 -0.913 0.404
vn -0.466 -0.192 0.864
vn 0.675 -0.084 0.733
vn -0.576 -0.698 0.425
vn -0.817 -0.452 0.360
vn -0.206 -0.973 0.109
vn -0.289 -0.956 0.040
vn 0.275 -0.795 -0.541
vn 0.306 -0.784 -0.540
vn 0.835 -0.188 -0.518
vn 0.514 -0.461 -0.723
vn -0.810 -0.378 0.448
vn -0.930 -0.044 0.365
vn 0.142 -0.795 -0.589
vn 0.151 -0.801 -0.580
vn 0.472 -0.391 -0.790
vn 0.477 -0.384 -0.790
vn 0.330 -0.667 -0.668
vn 0.518 -0.415 -0.748
vn -0.520 -0.469 -0.714
vn 0.251 -0.659 -0.709
vn 0.456 -0.411 -0.789
vn 0.479 -0.398 -0.782
vn -0.563 0.284 0.776
vn -0.388 0.381 0.839
vn -0.468 0.422 0.776
vn -0.335 0.347 0.876
vn -0.356 0.404 0.843
vn -0.124 0.485 0.866
vn -0.637 0.447 0.628
vn -0.668 0.283 0.688
vn -0.422 0.365 0.830
vn -0.596 0.269 0.757
vn -0.469 0.520 0.714
vn 0.871 0.434 -0.229
vn -0.150 0.352 0.924
vn -0.066 0.711 0.701
vn 0.805 0.423 -0.416
vn 0.085 0.753 0.652
vn -0.554 0.826 0.109
vn -0.670 0.474 0.572
vn -0.670 0.483 0.564
vn 0.140 0.091 -0.986
vn -0.073 0.945 -0.319
vn 0.530 0.028 -0.848
vn 0.614 -0.097 -0.783
vn 0.647 0.019 -0.763
vn 0.621 0.108 -0.776
vn 0.731 0.183 -0.657
vn -0.004 0.136 -0.991
vn 0.439 -0.106 -0.892
vn 0.510 0.041 -0.859
vn 0.580 -0.058 -0.812
vn -0.433 0.336 0.836
vn 0.900 0.320 -0.297
vn -0.681 0.469 0.563
vn 0.531 0.034 -0.847
vn -0.274 -0.416 0.867
vn 0.655 -0.241 0.716
vn 0.163 -0.576 -0.801
vn 0.422 -0.458 -0.782
vn 0.551 0.531 0.644
vn 0.579 0.376 0.724
vn 0.249 0.864 0.438
vn -0.186 0.926 -0.328
vn 0.735 0.124 0.666
vn -0.014 0.985 0.172
vn 0.284 0.717 0.636
vn -0.013 0.988 0.153
vn -0.472 0.781 -0.410
vn -0.217 0.956 0.198
vn -0.303 0.879 0.368
vn -0.953 0.209 -0.218
vn -0.777 0.021 0.629
vn -0.644 0.042 0.764
vn -0.656 0.016 0.755
vn -0.516 0.122 0.848
vn -0.333 -0.892 0.306
vn 0.569 -0.788 -0.235
vn -0.183 0.099 0.978
vn -0.005 0.125 0.992
vn -0.924 -0.381 -0.030
vn 0.004 -0.594 -0.804
vn 0.004 -0.594 -0.804
vn -0.245 -0.695 -0.676
vn -0.330 -0.584 -0.742
vn 0.401 -0.468 -0.788
vn 0.418 -0.466 -0.780
vn 0.495 -0.434 -0.752
vn 0.470 -0.431 -0.770
vn 0.719 -0.295 -0.629
vn 0.196 -0.461 -0.865
vn 0.364 -0.433 -0.825
vn -0.223 -0.056 -0.973
vn -0.013 -0.986 -0.164
vn 0.034 -0.929 -0.369
vn 0.198 -0.871 -0.450
vn 0.642 -0.348 0.683
vn 0.045 -0.985 -0.166
vn 0.478 -0.870 0.119
vn 0.667 -0.509 0.544
vn -0.508 -0.638 -0.579
vn -0.460 -0.819 -0.343
vn 0.269 -0.961 0.067
vn 0.558 -0.669 0.491
vn -0.349 0.344 0.872
vn -0.774 0.028 0.632
vn -0.228 0.433 0.872
vn -0.157 0.382 0.911
vn 0.116 0.565 0.817
vn -0.010 0.458 0.889
vn -0.039 0.449 0.893
vn -0.116 0.464 0.878
vn -0.918 -0.297 -0.261
vn -0.996 -0.090 -0.016
vn -0.984 0.008 0.177
vn -0.886 -0.327 -0.329
vn 0.968 0.235 0.084
vn 0.700 -0.255 -0.667
vn 0.876 -0.267 -0.401
vn 0.949 0.314 0.017
vn -0.946 -0.063 -0.319
vn -0.727 -0.167 -0.666
vn -0.436 -0.383 -0.815
vn -0.376 -0.380 -0.845
vn -0.508 -0.288 -0.812
vn 0.142 -0.459 -0.877
vn 0.293 -0.482 -0.825
vn 0.515 -0.422 -0.746
vn -0.684 -0.183 -0.707
vn 0.128 -0.476 -0.870
vn -0.379 0.436 0.816
vn 0.023 0.519 0.854
vn -0.112 0.533 0.838
vn 0.270 0.533 0.802
vn -0.813 0.394 0.429
vn -0.804 0.307 0.509
vn 0.012 0.555 0.832
vn -0.279 0.540 0.794
vn -0.192 0.584 0.789
vn 0.223 0.504 0.835
vn 0.698 0.418 0.581
vn 0.973 -0.093 -0.213
vn -0.963 0.254 0.085
vn -0.963 0.262 0.067
vn -0.644 0.539 0.542
vn -0.685 0.494 0.536
vn 0.617 -0.354 -0.703
vn 0.705 -0.367 -0.607
vn -0.928 0.370 0.053
vn -0.687 -0.178 -0.705
vn 0.244 -0.459 -0.854
vn 0.150 -0.390 -0.909
vn 0.014 0.556 0.831
vn 0.758 0.357 0.547
vn 0.163 0.652 0.741
vn -0.124 0.594 0.795
vn 0.896 -0.186 -0.404
vn 0.837 0.321 0.444
vn -0.087 0.923 0.375
vn 0.492 -0.259 -0.831
vn -0.304 -0.899 -0.316
vn -0.556 -0.766 0.324
vn 0.112 -0.560 -0.821
vn 0.555 0.464 -0.690
vn -0.514 -0.774 0.371
vn 0.091 -0.902 0.423
vn -0.354 -0.791 0.499
vn 0.599 -0.448 0.663
vn -0.644 -0.735 -0.213
vn -0.810 -0.409 -0.422
vn -0.053 -0.999 -0.010
vn -0.347 -0.900 -0.264
vn 0.719 -0.406 0.564
vn 0.524 -0.841 0.130
vn -0.792 -0.358 -0.494
vn -0.598 -0.309 -0.739
vn -0.616 -0.503 -0.606
vn -0.379 -0.821 -0.428
vn 0.520 -0.819 0.244
vn -0.163 -0.885 -0.436
vn -0.540 -0.318 -0.779
vn -0.217 -0.759 -0.614
vn -0.947 0.222 -0.231
vn 0.299 0.878 -0.375
vn -0.247 0.650 -0.718
vn 0.956 0.269 -0.115
vn -0.045 -0.737 -0.674
vn -0.259 -0.882 -0.394
vn 0.101 -0.576 -0.811
vn 0.580 0.601 -0.550
vn 0.581 0.591 -0.560
vn 0.112 0.785 0.610
vn -0.949 0.244 0.200
vn -0.286 0.717 0.636
vn 0.262 0.372 0.891
vn -0.245 -0.873 -0.422
vn 0.956 0.102 0.276
vn -0.184 -0.841 -0.508
vn -0.229 -0.868 -0.441
vn -0.186 -0.844 -0.504
vn -0.200 -0.852 -0.483
vn -0.352 -0.908 -0.226
vn -0.300 -0.897 -0.325
vn -0.384 -0.909 -0.162
vn 0.556 0.727 -0.404
vn 0.048 -0.633 -0.773
vn -0.230 -0.865 -0.446
vn -0.260 -0.881 -0.396
vn -0.316 -0.900 -0.301
vn -0.382 -0.908 -0.173
vn -0.671 -0.385 0.633
vn -0.802 -0.501 0.326
vn 0.190 -0.295 0.937
vn 0.197 -0.304 0.932
vn 0.576 -0.200 0.793
vn 0.688 0.003 0.726
vn -0.935 -0.262 -0.239
vn -0.944 -0.187 -0.272
vn 0.745 -0.366 0.558
vn 0.694 -0.190 0.694
vn 0.795 -0.071 0.602
vn 0.787 -0.294 0.542
vn -0.813 0.009 -0.582
vn -0.801 -0.014 -0.598
vn -0.703 0.050 -0.709
vn -0.633 0.211 -0.745
vn 0.441 -0.897 -0.035
vn 0.489 -0.840 0.237
vn 0.866 -0.365 0.342
vn 0.644 -0.764 -0.036
vn -0.552 0.229 -0.802
vn -0.499 -0.054 -0.865
vn -0.189 -0.763 -0.618
vn -0.249 -0.146 -0.958
vn -0.348 0.008 -0.937
vn -0.032 -0.089 -0.996
vn -0.956 -0.210 -0.207
vn 0.301 -0.375 -0.877
vn -0.267 -0.714 -0.647
vn 0.949 -0.138 -0.285
vn 0.456 0.890 -0.002
vn 0.343 0.906 0.249
vn 0.341 0.905 0.253
vn 0.102 0.778 0.620
vn -0.956 -0.189 0.226
vn -0.308 -0.633 0.711
vn 0.253 -0.890 0.379
vn 0.949 -0.292 0.121
vn 0.291 0.893 0.343
vn 0.452 0.892 0.004
vn 0.291 0.897 0.333
vn 0.186 0.846 0.500
vn -0.172 0.480 0.860
vn -0.035 0.651 0.758
vn 0.192 0.848 0.494
vn -0.028 0.655 0.755
vn 0.068 0.760 0.647
vn 0.060 0.751 0.657
vn 0.034 0.729 0.684
vn -0.222 0.414 0.882
vn -0.574 -0.177 0.799
vn -0.741 -0.303 0.599
vn 0.362 -0.122 0.924
vn 0.355 -0.110 0.928
vn 0.693 -0.019 0.721
vn 0.727 0.110 0.678
vn -0.988 -0.101 -0.112
vn -0.989 -0.047 -0.138
vn 0.757 0.252 0.603
vn 0.726 0.358 0.587
vn 0.826 0.320 0.463
vn 0.762 0.252 0.596
vn -0.847 0.148 -0.511
vn -0.800 0.079 -0.595
vn -0.172 0.754 -0.634
vn -0.576 0.462 -0.674
vn -0.469 0.438 -0.767
vn 0.286 0.938 -0.194
vn 0.497 0.867 -0.045
vn 0.435 0.899 0.058
vn 0.855 0.516 0.049
vn 0.716 0.629 0.303
vn -0.179 0.711 -0.680
vn -0.112 0.716 -0.689
vn -0.023 0.764 -0.645
vn 0.221 0.636 -0.739
vn -0.743 0.312 0.592
vn 0.489 0.108 0.866
vn 0.091 0.588 0.804
vn 0.681 0.195 0.706
vn -0.526 0.832 -0.176
vn -0.881 0.345 0.325
vn 0.307 0.925 0.223
vn 0.164 0.985 0.043
vn 0.674 0.685 0.277
vn 0.650 0.677 0.344
vn -0.648 0.533 -0.544
vn -0.379 0.629 -0.679
vn 0.183 0.915 -0.359
vn 0.292 0.903 -0.314

# Facets
f 1//1 3//1 2//1
f 4//2 3//2 5//2
f 4//3 2//3 3//3
f 6//4 5//4 7//4
f 6//5 4//5 5//5
f 8//6 6//6 7//6
f 1//7 9//7 3//7
f 1//8 10//8 9//8
f 11//9 5//9 3//9
f 9//10 11//10 3//10
f 12//11 7//11 5//11
f 11//12 12//12 5//12
f 7//13 13//13 8//13
f 7//14 12//14 13//14
f 10//15 14//15 9//15
f 10//16 15//16 14//16
f 16//17 11//17 9//17
f 14//18 16//18 9//18
f 12//19 18//19 17//19
f 16//20 18//20 12//20
f 11//21 16//21 12//21
f 17//22 13//22 12//22
f 19//23 14//23 15//23
f 19//24 16//24 14//24
f 19//25 20//25 16//25
f 20//26 18//26 16//26
f 1//27 2//27 21//27
f 22//28 2//28 4//28
f 22//29 21//29 2//29
f 23//30 4//30 6//30
f 23//31 22//31 4//31
f 23//32 6//32 8//32
f 10//33 21//33 24//33
f 10//34 1//34 21//34
f 25//35 26//35 22//35
f 22//36 26//36 24//36
f 22//37 24//37 21//37
f 27//38 25//38 28//38
f 28//39 25//39 22//39
f 28//40 22//40 23//40
f 28//41 8//41 13//41
f 28//42 23//42 8//42
f 15//43 24//43 29//43
f 15//44 10//44 24//44
f 26//45 30//45 24//45
f 24//46 30//46 31//46
f 24//47 31//47 29//47
f 30//48 27//48 31//48
f 27//49 28//49 31//49
f 31//50 28//50 18//50
f 18//51 28//51 17//51
f 28//52 13//52 17//52
f 19//53 15//53 29//53
f 29//54 20//54 19//54
f 29//55 31//55 20//55
f 31//56 18//56 20//56
f 26//57 25//57 32//57
f 32//58 25//58 27//58
f 30//59 26//59 32//59
f 32//60 27//60 30//60
f 33//61 35//61 34//61
f 36//62 34//62 35//62
f 37//63 35//63 33//63
f 37//64 36//64 35//64
f 38//65 40//65 39//65
f 41//66 39//66 40//66
f 38//67 42//67 40//67
f 38//68 43//68 42//68
f 40//69 44//69 41//69
f 45//70 44//70 40//70
f 42//71 45//71 40//71
f 46//72 44//72 45//72
f 47//73 42//73 43//73
f 47//74 45//74 42//74
f 47//75 48//75 45//75
f 48//76 46//76 45//76
f 49//77 51//77 50//77
f 34//78 51//78 33//78
f 50//79 51//79 34//79
f 52//80 50//80 34//80
f 53//81 36//81 54//81
f 34//82 36//82 53//82
f 52//83 34//83 53//83
f 55//84 53//84 54//84
f 56//85 51//85 49//85
f 57//86 58//86 56//86
f 58//87 37//87 56//87
f 56//88 37//88 51//88
f 51//89 37//89 33//89
f 59//90 37//90 58//90
f 59//91 36//91 37//91
f 60//92 36//92 59//92
f 54//93 36//93 60//93
f 60//94 55//94 54//94
f 61//95 58//95 57//95
f 61//96 59//96 58//96
f 38//97 39//97 62//97
f 62//98 39//98 41//98
f 43//99 62//99 63//99
f 43//100 38//100 62//100
f 64//101 41//101 44//101
f 62//102 41//102 64//102
f 63//103 62//103 64//103
f 64//104 44//104 46//104
f 47//105 43//105 63//105
f 63//106 48//106 47//106
f 63//107 64//107 48//107
f 64//108 46//108 48//108
f 65//109 50//109 66//109
f 65//110 49//110 50//110
f 50//111 52//111 67//111
f 66//112 50//112 67//112
f 67//113 69//113 68//113
f 53//114 69//114 67//114
f 52//115 53//115 67//115
f 69//116 53//116 55//116
f 49//117 70//117 56//117
f 71//118 70//118 49//118
f 65//119 71//119 49//119
f 57//120 56//120 70//120
f 69//121 60//121 68//121
f 68//122 60//122 59//122
f 68//123 59//123 72//123
f 69//124 55//124 60//124
f 73//125 70//125 71//125
f 74//126 75//126 73//126
f 75//127 61//127 73//127
f 73//128 61//128 70//128
f 70//129 61//129 57//129
f 76//130 61//130 75//130
f 59//131 61//131 76//131
f 72//132 59//132 76//132
f 77//133 75//133 74//133
f 77//134 76//134 75//134
f 65//135 66//135 78//135
f 79//136 66//136 67//136
f 79//137 78//137 66//137
f 79//138 67//138 68//138
f 71//139 78//139 80//139
f 71//140 65//140 78//140
f 81//141 82//141 79//141
f 79//142 82//142 80//142
f 79//143 80//143 78//143
f 68//144 81//144 79//144
f 83//145 81//145 68//145
f 72//146 83//146 68//146
f 73//147 71//147 80//147
f 73//148 80//148 74//148
f 74//149 80//149 82//149
f 74//150 82//150 84//150
f 83//151 72//151 76//151
f 85//152 83//152 76//152
f 86//153 74//153 84//153
f 86//154 77//154 74//154
f 77//155 85//155 76//155
f 77//156 86//156 85//156
f 82//157 81//157 87//157
f 87//158 81//158 83//158
f 84//159 87//159 88//159
f 84//160 82//160 87//160
f 88//161 83//161 85//161
f 88//162 87//162 83//162
f 86//163 84//163 88//163
f 88//164 85//164 86//164
f 89//165 91//165 90//165
f 90//166 92//166 89//166
f 89//167 93//167 91//167
f 92//168 93//168 89//168
f 94//169 96//169 95//169
f 97//170 96//170 98//170
f 97//171 95//171 96//171
f 99//172 97//172 98//172
f 94//173 100//173 96//173
f 94//174 101//174 100//174
f 102//175 98//175 96//175
f 100//176 102//176 96//176
f 98//177 103//177 99//177
f 98//178 102//178 103//178
f 104//179 100//179 101//179
f 105//180 104//180 106//180
f 100//181 104//181 105//181
f 102//182 100//182 105//182
f 102//183 107//183 103//183
f 102//184 105//184 107//184
f 108//185 105//185 106//185
f 108//186 107//186 105//186
f 109//187 111//187 110//187
f 112//188 111//188 113//188
f 112//189 110//189 111//189
f 114//190 112//190 113//190
f 115//191 117//191 116//191
f 115//192 90//192 91//192
f 115//193 116//193 90//193
f 116//194 118//194 90//194
f 118//195 92//195 90//195
f 119//196 92//196 118//196
f 120//197 111//197 109//197
f 120//198 113//198 111//198
f 120//199 121//199 113//199
f 122//200 124//200 123//200
f 121//201 114//201 113//201
f 117//202 124//202 122//202
f 117//203 115//203 124//203
f 115//204 125//204 124//204
f 91//205 125//205 115//205
f 91//206 126//206 125//206
f 91//207 93//207 126//207
f 126//208 127//208 125//208
f 119//209 93//209 92//209
f 126//210 93//210 119//210
f 124//211 128//211 123//211
f 125//212 128//212 124//212
f 129//213 128//213 125//213
f 127//214 129//214 125//214
f 130//215 95//215 131//215
f 130//216 94//216 95//216
f 95//217 97//217 132//217
f 131//218 95//218 132//218
f 99//219 132//219 97//219
f 99//220 133//220 132//220
f 101//221 94//221 130//221
f 101//222 130//222 134//222
f 135//223 136//223 103//223
f 103//224 136//224 133//224
f 103//225 133//225 99//225
f 137//226 136//226 135//226
f 138//227 101//227 134//227
f 138//228 104//228 101//228
f 104//229 138//229 106//229
f 138//230 139//230 106//230
f 140//231 135//231 107//231
f 135//232 103//232 107//232
f 135//233 141//233 137//233
f 135//234 140//234 141//234
f 142//235 106//235 139//235
f 142//236 108//236 106//236
f 108//237 140//237 107//237
f 143//238 140//238 108//238
f 142//239 143//239 108//239
f 143//240 141//240 140//240
f 109//241 110//241 144//241
f 145//242 110//242 112//242
f 145//243 144//243 110//243
f 145//244 112//244 114//244
f 116//245 117//245 146//245
f 116//246 147//246 118//246
f 146//247 147//247 116//247
f 118//248 147//248 119//248
f 120//249 109//249 144//249
f 144//250 121//250 120//250
f 144//251 145//251 121//251
f 145//252 114//252 121//252
f 122//253 123//253 148//253
f 122//254 146//254 117//254
f 122//255 148//255 146//255
f 148//256 149//256 146//256
f 126//257 149//257 127//257
f 126//258 147//258 149//258
f 147//259 146//259 149//259
f 119//260 147//260 126//260
f 123//261 128//261 148//261
f 129//262 148//262 128//262
f 149//263 148//263 129//263
f 127//264 149//264 129//264
f 150//265 131//265 151//265
f 150//266 130//266 131//266
f 131//267 132//267 152//267
f 151//268 131//268 152//268
f 133//269 152//269 132//269
f 133//270 153//270 152//270
f 134//271 130//271 150//271
f 134//272 150//272 154//272
f 136//273 155//273 133//273
f 133//274 155//274 156//274
f 133//275 156//275 153//275
f 155//276 136//276 137//276
f 157//277 134//277 154//277
f 157//278 138//278 134//278
f 158//279 139//279 159//279
f 159//280 139//280 138//280
f 159//281 138//281 157//281
f 159//282 156//282 158//282
f 158//283 156//283 155//283
f 158//284 155//284 160//284
f 160//285 137//285 141//285
f 160//286 155//286 137//286
f 142//287 139//287 158//287
f 158//288 143//288 142//288
f 158//289 160//289 143//289
f 160//290 141//290 143//290
f 150//291 151//291 161//291
f 162//292 151//292 152//292
f 162//293 161//293 151//293
f 162//294 152//294 153//294
f 154//295 161//295 163//295
f 154//296 150//296 161//296
f 161//297 162//297 164//297
f 161//298 164//298 163//298
f 164//299 153//299 156//299
f 164//300 162//300 153//300
f 157//301 154//301 163//301
f 163//302 159//302 157//302
f 163//303 164//303 159//303
f 164//304 156//304 159//304

# Thankyou for using Spin3D

