# Created using Spin3D

# Vertex Array
v -2.374 -14.199 26.074
v -2.280 -14.260 26.273
v -2.400 -14.370 25.887
v -2.250 -14.277 26.269
v -2.393 -14.294 25.917
v -1.820 -13.794 27.729
v -1.613 -13.564 28.358
v -1.634 -13.823 28.086
v -1.480 -13.626 28.555
v -1.517 -13.767 28.328
v -1.483 -13.586 28.507
v 7.999 -13.866 30.124
v 7.997 -13.868 30.122
v 7.999 -13.867 30.122
v 7.997 -13.871 30.121
v 7.999 -13.870 30.123
v 7.995 -13.874 30.122
v -1.969 -14.070 27.120
v -2.116 -13.907 26.932
v -1.700 -13.937 27.781
v -1.646 -13.749 27.976
v 7.998 -13.870 30.123
v 7.996 -13.872 30.123
v -2.252 -13.817 26.594
v -1.947 -14.016 27.106
v -2.217 -14.066 26.427
v -2.353 -14.075 26.142
v -1.838 -13.522 27.883
v -1.662 -13.333 28.386
v -1.529 -13.416 28.573
v -1.628 -13.447 28.224
v 7.996 -13.870 30.123
v 7.994 -13.871 30.122
v 7.994 -13.873 30.122
v 7.991 -13.874 30.122
v -2.034 -13.492 27.376
v -1.812 -13.327 27.860
v -1.999 -13.426 27.345
v -1.912 -13.663 27.371
v 7.993 -13.873 30.123
v -2.183 -13.743 26.718
v -2.110 -13.487 27.103
v -1.819 -13.284 28.035
v -1.693 -13.252 28.275
v 7.990 -13.874 30.122
v -1.915 -13.278 27.719
v 28.204 50.902 -1.672
v 28.205 50.901 -1.671
v 28.205 50.900 -1.673
v 28.206 50.902 -1.672
v 28.205 50.902 -1.674
v 28.205 50.903 -1.672

# Normal Array
vn -0.903 -0.246 0.353
vn -0.443 -0.816 0.372
vn -0.994 0.059 0.087
vn 0.924 0.061 -0.377
vn -0.838 -0.360 0.409
vn -0.688 -0.561 0.461
vn -0.817 -0.384 0.429
vn 0.990 -0.072 -0.117
vn -0.515 0.652 -0.556
vn 0.478 -0.088 -0.874
vn -0.275 0.388 -0.880
vn 0.515 -0.361 -0.777
vn -0.816 -0.425 0.392
vn -0.860 -0.351 0.370
vn -0.434 -0.809 0.397
vn -0.620 -0.681 0.390
vn 0.930 0.153 -0.333
vn 0.937 0.084 -0.339
vn 0.945 -0.272 0.179
vn 0.277 0.082 0.957
vn 0.175 -0.098 0.980
vn 0.433 -0.615 0.659
vn -0.861 -0.329 0.389
vn -0.903 -0.244 0.354
vn -0.930 -0.156 0.332
vn 0.864 -0.428 -0.266
vn 0.888 -0.418 -0.191
vn 0.918 0.132 -0.374
vn -0.450 -0.822 0.349
vn 0.930 0.100 -0.353
vn -0.982 0.071 0.178
vn -0.988 0.150 0.032
vn 0.916 0.135 -0.377
vn 0.865 0.272 -0.421
vn -0.885 -0.239 0.400
vn -0.876 -0.281 0.392
vn -0.839 -0.238 0.490
vn -0.838 -0.240 0.490
vn 0.969 0.217 0.119
vn 0.891 0.352 -0.285
vn -0.657 0.663 -0.359
vn -0.631 0.772 -0.075
vn -0.044 0.162 -0.986
vn -0.503 0.415 -0.758
vn 0.023 -0.101 -0.995
vn -0.203 -0.204 -0.958
vn -0.890 -0.269 0.369
vn -0.921 -0.185 0.344
vn 0.883 0.282 -0.376
vn 0.894 0.262 -0.364
vn 0.900 0.245 -0.362
vn 0.906 0.236 -0.351
vn -0.006 -0.155 0.988
vn -0.711 0.622 0.330
vn -0.004 -0.093 0.996
vn -0.231 0.315 0.921
vn 0.192 -0.578 0.793
vn -0.185 0.048 0.982
vn 0.146 0.811 -0.567
vn -0.963 -0.002 0.270
vn -0.929 -0.167 0.329
vn 0.743 0.484 -0.463
vn 0.875 0.277 -0.397
vn 0.878 0.268 -0.397
vn 0.908 0.191 -0.374
vn 0.908 0.190 -0.373
vn -0.079 0.874 -0.480
vn 0.861 0.289 -0.419
vn -0.909 -0.168 0.382
vn -0.438 0.664 0.606
vn -0.872 0.245 0.424
vn 0.885 0.369 -0.285
vn -0.013 0.164 -0.986
vn 0.219 -0.903 -0.370
vn -0.954 0.057 0.294
vn -0.926 -0.145 0.348
vn 0.763 0.523 -0.379
vn 0.722 0.615 -0.317
vn -0.558 0.809 0.187
vn 0.872 0.373 -0.316
vn -0.606 0.614 0.505
vn -0.558 0.393 0.731
vn -0.958 0.096 0.270
vn 0.481 0.773 -0.415
vn -0.581 -0.656 0.481
vn 0.579 -0.658 0.482
vn -0.574 -0.466 -0.673
vn 0.578 -0.465 -0.671
vn -0.565 0.497 0.658
vn 0.561 0.499 0.660
vn -0.558 0.692 -0.458
vn 0.560 0.691 -0.457

# Facets
f 1//1 3//1 2//1
f 4//2 2//2 3//2
f 5//3 3//3 1//3
f 5//4 4//4 3//4
f 6//5 8//5 7//5
f 9//6 8//6 10//6
f 9//7 7//7 8//7
f 11//8 9//8 10//8
f 12//9 14//9 13//9
f 15//10 14//10 16//10
f 15//11 13//11 14//11
f 17//12 15//12 16//12
f 6//13 18//13 8//13
f 6//14 19//14 18//14
f 20//15 10//15 8//15
f 18//16 20//16 8//16
f 10//17 21//17 11//17
f 10//18 20//18 21//18
f 22//19 14//19 12//19
f 22//20 16//20 14//20
f 22//21 23//21 16//21
f 23//22 17//22 16//22
f 19//23 2//23 18//23
f 1//24 2//24 19//24
f 24//25 1//25 19//25
f 18//26 25//26 20//26
f 4//27 25//27 18//27
f 26//28 25//28 4//28
f 18//29 2//29 4//29
f 25//30 21//30 20//30
f 27//31 1//31 24//31
f 27//32 5//32 1//32
f 5//33 26//33 4//33
f 5//34 27//34 26//34
f 28//35 7//35 29//35
f 28//36 6//36 7//36
f 7//37 9//37 30//37
f 29//38 7//38 30//38
f 11//39 30//39 9//39
f 11//40 31//40 30//40
f 12//41 13//41 32//41
f 13//42 33//42 32//42
f 34//43 33//43 13//43
f 15//44 34//44 13//44
f 17//45 34//45 15//45
f 17//46 35//46 34//46
f 19//47 6//47 28//47
f 19//48 28//48 36//48
f 37//49 39//49 38//49
f 31//50 39//50 37//50
f 21//51 39//51 31//51
f 11//52 21//52 31//52
f 22//53 12//53 32//53
f 40//54 32//54 33//54
f 22//55 32//55 40//55
f 23//56 22//56 40//56
f 23//57 35//57 17//57
f 23//58 40//58 35//58
f 24//59 42//59 41//59
f 36//60 42//60 24//60
f 19//61 36//61 24//61
f 42//62 38//62 41//62
f 38//63 39//63 41//63
f 41//64 39//64 26//64
f 26//65 39//65 25//65
f 39//66 21//66 25//66
f 27//67 24//67 41//67
f 41//68 26//68 27//68
f 28//69 29//69 43//69
f 44//70 29//70 30//70
f 44//71 43//71 29//71
f 44//72 30//72 31//72
f 33//73 34//73 45//73
f 45//74 34//74 35//74
f 36//75 43//75 46//75
f 36//76 28//76 43//76
f 46//77 37//77 38//77
f 44//78 37//78 46//78
f 43//79 44//79 46//79
f 44//80 31//80 37//80
f 40//81 33//81 45//81
f 45//82 35//82 40//82
f 42//83 36//83 46//83
f 46//84 38//84 42//84
f 47//85 49//85 48//85
f 50//86 48//86 49//86
f 51//87 49//87 47//87
f 51//88 50//88 49//88
f 47//89 48//89 52//89
f 52//90 48//90 50//90
f 51//91 47//91 52//91
f 52//92 50//92 51//92

# Thankyou for using Spin3D

