# Created using Spin3D

# Vertex Array
v 0.962 -8.103 81.612
v 0.957 -8.103 81.608
v 0.960 -8.102 81.609
v 0.957 -8.102 81.605
v 0.959 -8.102 81.606
v 0.957 -8.102 81.604
v 0.962 -8.103 81.612
v 0.965 -8.104 81.612
v 0.960 -8.103 81.607
v 0.962 -8.103 81.609
v 0.966 -8.103 81.612
v 0.960 -8.104 81.610
v 0.958 -8.103 81.607
v 0.963 -8.104 81.610

# Normal Array
vn -0.515 0.629 0.582
vn 0.255 0.966 -0.054
vn -0.458 0.819 0.345
vn 0.532 0.723 -0.439
vn 0.029 0.921 0.387
vn 0.228 0.851 0.472
vn 0.646 0.343 -0.681
vn 0.066 0.983 0.169
vn 0.510 0.851 -0.123
vn 0.675 0.534 -0.509
vn -0.221 0.063 0.973
vn 0.023 0.986 0.166
vn -0.477 -0.791 0.383
vn -0.345 -0.863 -0.370
vn -0.242 -0.954 -0.177
vn -0.956 -0.227 0.186
vn 0.208 -0.894 -0.398
vn -0.222 -0.924 0.310
vn 0.732 -0.136 -0.667
vn -0.017 -0.977 -0.214
vn 0.268 -0.727 -0.632
vn -0.015 -0.985 -0.170
vn 0.550 -0.561 -0.619
vn 0.591 -0.349 -0.728

# Facets
f 1//1 3//1 2//1
f 4//2 3//2 5//2
f 4//3 2//3 3//3
f 6//4 4//4 5//4
f 1//5 7//5 3//5
f 1//6 8//6 7//6
f 5//7 10//7 9//7
f 7//8 10//8 5//8
f 3//9 7//9 5//9
f 9//10 6//10 5//10
f 11//11 7//11 8//11
f 11//12 10//12 7//12
f 1//13 2//13 12//13
f 13//14 2//14 4//14
f 13//15 12//15 2//15
f 13//16 4//16 6//16
f 8//17 12//17 14//17
f 8//18 1//18 12//18
f 14//19 9//19 10//19
f 13//20 9//20 14//20
f 12//21 13//21 14//21
f 13//22 6//22 9//22
f 11//23 8//23 14//23
f 14//24 10//24 11//24

# Thankyou for using Spin3D

