# Created using Spin3D

# Vertex Array
v -24.561 17.297 -71.416
v -24.562 17.151 -71.226
v -24.236 16.752 -71.902
v -24.253 16.740 -71.721
v -24.036 16.541 -72.166
v -24.119 16.723 -71.921
v -24.220 16.945 -72.077
v -23.982 16.640 -72.405
v -24.038 16.980 -72.429
v -23.939 16.675 -72.350
v -23.879 16.777 -72.604
v -24.902 17.733 -70.686
v -25.056 18.022 -70.295
v -24.836 17.608 -70.655
v -24.897 17.902 -70.495
v -24.877 17.939 -70.896
v -24.490 17.224 -71.224
v -24.184 17.102 -71.821
v -24.450 17.506 -71.726
v -24.155 17.357 -72.233
v -23.975 17.039 -72.355
v -23.943 17.062 -72.551
v -25.103 18.233 -70.346
v -25.104 18.275 -70.210
v -24.946 18.204 -70.465
v -25.033 18.342 -70.589
v -24.606 17.730 -71.041
v -24.318 17.570 -71.700
v -24.802 18.098 -71.078
v -24.114 17.382 -72.213
v -24.495 17.842 -71.561
v -25.056 18.401 -70.407
v -24.889 18.309 -70.830
v -24.751 18.127 -70.928
v -11.197 70.139 -12.054
v -10.820 69.990 -11.241
v -10.693 69.828 -12.063
v -10.276 70.018 -11.279
v -10.798 70.114 -12.604
v -11.179 70.585 -12.688
v -10.212 70.224 -12.134
v -10.507 70.907 -12.795
v -10.445 71.786 -6.851
v -9.489 71.848 -5.792
v -9.647 71.261 -7.103
v -8.921 71.612 -5.848
v -8.775 71.421 -6.615
v -8.547 71.775 -5.997
v -11.759 71.615 -9.417
v -11.316 71.861 -7.978
v -10.920 71.193 -8.451
v -10.237 70.532 -9.634
v -9.096 71.118 -8.299
v -8.541 71.741 -7.258
v -11.382 70.690 -10.575
v -11.959 71.481 -10.882
v -9.516 70.749 -10.656
v -8.780 71.673 -9.293
v 7.418 72.979 -11.374
v 8.039 73.132 -11.169
v 7.825 72.997 -11.355
v 8.565 73.144 -11.153
v -11.656 70.967 -11.967
v -11.880 71.959 -11.761
v -9.734 70.994 -12.082
v -9.155 71.701 -11.214
v 7.575 72.913 -11.464
v 7.484 72.919 -11.451
v 7.993 72.982 -11.372
v -11.241 71.567 -12.682
v -10.566 71.718 -12.901
v -9.850 71.886 -12.426
v 7.791 72.937 -11.428
v -10.009 72.238 -6.076
v -9.376 72.283 -5.574
v -8.861 72.037 -5.538
v -8.637 72.229 -6.409
v -11.666 72.275 -8.683
v -10.835 72.450 -7.413
v -8.732 72.391 -8.212
v -11.888 72.356 -10.247
v -11.363 72.778 -8.946
v -8.931 72.467 -10.227
v 7.291 73.088 -11.220
v 7.722 73.152 -11.132
v 7.368 73.069 -11.251
v 8.531 73.263 -10.981
v 9.328 73.348 -10.868
v 9.577 73.346 -10.865
v 10.238 73.494 -10.659
v 10.287 73.495 -10.653
v 10.533 73.553 -10.574
v -11.487 72.443 -12.256
v -11.718 72.704 -11.430
v -11.169 72.951 -11.730
v -9.400 72.942 -11.055
v -9.782 72.729 -11.985
v -9.246 72.455 -11.597
v 7.241 73.035 -11.292
v 7.506 73.006 -11.327
v 9.536 73.356 -10.846
v 8.534 73.115 -11.183
v 10.225 73.503 -10.644
v -10.648 72.464 -12.442
v 7.842 72.993 -11.345
v 25.639 74.588 -15.981
v 25.640 74.588 -15.980
v 25.640 74.587 -15.981
v 25.642 74.588 -15.981
v 25.640 74.588 -15.982
v -9.795 72.632 -6.485
v -9.061 72.453 -5.912
v -10.355 73.032 -8.440
v -9.232 72.751 -7.281
v -11.146 73.085 -10.334
v -10.333 73.290 -9.893
v -9.502 73.037 -9.475
v 7.585 73.109 -11.186
v 8.258 73.225 -11.027
v 9.318 73.369 -10.832
v 10.176 73.502 -10.650
v -10.269 73.135 -11.152
v 8.345 73.165 -11.107
v 25.640 74.589 -15.981

# Normal Array
vn -0.913 -0.322 -0.250
vn -0.789 -0.603 -0.116
vn -0.856 -0.504 -0.115
vn 0.756 -0.376 0.536
vn -0.909 -0.236 -0.343
vn -0.867 -0.177 -0.466
vn -0.881 -0.276 -0.384
vn -0.858 -0.375 -0.351
vn 0.911 -0.115 0.396
vn 0.715 -0.688 -0.124
vn -0.822 -0.175 -0.542
vn 0.709 -0.696 -0.114
vn -0.884 -0.468 -0.002
vn 0.693 -0.226 0.685
vn -0.879 -0.475 -0.042
vn -0.919 -0.312 -0.243
vn -0.928 -0.205 -0.311
vn 0.797 -0.150 0.585
vn 0.520 -0.528 0.671
vn 0.487 -0.498 0.718
vn 0.812 -0.174 0.557
vn 0.892 0.035 0.450
vn -0.907 -0.118 -0.405
vn -0.907 -0.118 -0.405
vn -0.883 -0.071 -0.464
vn -0.866 -0.010 -0.500
vn 0.923 0.058 0.381
vn 0.931 0.097 0.353
vn -0.807 0.054 -0.588
vn -0.772 -0.056 -0.634
vn 0.959 0.099 0.265
vn 0.967 0.184 0.178
vn -0.977 -0.206 0.055
vn -0.949 -0.257 -0.184
vn 0.760 -0.073 0.646
vn 0.858 0.089 0.506
vn -0.940 -0.181 -0.289
vn -0.939 -0.117 -0.323
vn 0.890 0.100 0.444
vn 0.886 0.035 0.463
vn 0.893 0.041 0.449
vn 0.918 0.168 0.360
vn -0.911 -0.040 -0.410
vn -0.901 -0.067 -0.429
vn -0.159 0.761 -0.629
vn -0.836 0.147 -0.529
vn -0.781 0.187 -0.596
vn 0.862 0.478 0.167
vn 0.926 0.262 0.272
vn 0.924 0.175 0.341
vn -0.085 0.701 -0.708
vn 0.935 0.301 0.186
vn -0.967 0.242 -0.082
vn 0.839 0.340 0.425
vn -0.354 0.875 -0.330
vn -0.961 0.203 -0.186
vn 0.909 0.236 0.343
vn 0.869 0.394 0.300
vn 0.832 0.511 0.217
vn 0.910 0.237 0.340
vn -0.807 0.280 -0.520
vn -0.576 0.512 -0.637
vn 0.814 0.576 0.070
vn 0.858 0.498 0.123
vn -0.521 -0.849 0.087
vn 0.064 -0.977 0.203
vn -0.500 -0.802 -0.326
vn -0.655 -0.609 -0.448
vn 0.617 -0.774 -0.140
vn 0.516 -0.712 -0.476
vn -0.052 -0.215 -0.975
vn 0.619 -0.391 -0.681
vn -0.405 -0.815 0.414
vn 0.039 -0.968 0.248
vn -0.314 -0.852 0.420
vn 0.478 -0.826 0.297
vn -0.695 -0.642 0.324
vn -0.611 -0.666 0.428
vn -0.402 -0.813 0.421
vn -0.300 -0.896 0.328
vn 0.091 -0.983 0.159
vn 0.231 -0.948 0.219
vn 0.825 -0.565 0.019
vn 0.773 -0.633 -0.034
vn -0.684 -0.662 0.305
vn -0.826 -0.540 0.162
vn -0.675 -0.715 0.182
vn -0.460 -0.777 0.429
vn -0.360 -0.887 0.288
vn 0.070 -0.953 0.296
vn 0.567 -0.790 0.233
vn 0.384 -0.920 0.076
vn 0.803 -0.591 -0.075
vn 0.820 -0.569 -0.057
vn 0.012 -0.817 0.577
vn 0.000 -0.810 0.586
vn -0.815 -0.577 0.046
vn -0.966 -0.180 -0.185
vn -0.841 -0.431 -0.328
vn -0.869 -0.489 0.074
vn 0.836 -0.504 -0.215
vn 0.732 -0.672 -0.106
vn 0.881 -0.438 -0.178
vn 0.867 -0.452 -0.210
vn 0.010 -0.803 0.596
vn 0.049 -0.768 0.638
vn -0.011 -0.791 0.611
vn -0.009 -0.782 0.623
vn -0.834 -0.075 -0.547
vn -0.845 -0.050 -0.532
vn -0.155 -0.004 -0.988
vn -0.276 -0.144 -0.950
vn 0.654 -0.361 -0.665
vn 0.678 -0.186 -0.712
vn 0.562 -0.066 -0.824
vn 0.859 -0.083 -0.505
vn -0.018 0.884 -0.467
vn -0.048 -0.684 0.728
vn -0.594 -0.232 0.770
vn -0.658 -0.427 0.620
vn -0.157 -0.568 0.808
vn -0.246 -0.383 0.890
vn 0.505 -0.555 0.661
vn 0.836 0.450 0.314
vn -0.919 -0.229 0.322
vn -0.834 0.182 0.521
vn -0.788 0.057 0.613
vn -0.854 -0.063 0.517
vn 0.981 0.194 -0.001
vn 0.970 0.241 -0.029
vn -0.812 0.565 0.144
vn -0.990 -0.017 0.139
vn -0.990 -0.019 0.137
vn -0.697 0.614 0.372
vn 0.986 0.113 -0.120
vn 0.992 0.077 -0.095
vn 0.012 -0.835 0.550
vn 0.003 -0.805 0.594
vn 0.011 -0.835 0.551
vn 0.011 -0.835 0.551
vn -0.015 -0.794 0.608
vn 0.000 -0.813 0.582
vn 0.011 -0.834 0.551
vn -0.076 -0.678 0.731
vn -0.015 -0.789 0.615
vn -0.077 -0.672 0.737
vn -0.870 0.346 -0.352
vn -0.968 0.241 -0.068
vn -0.994 0.104 -0.033
vn -0.546 0.743 -0.387
vn 0.633 0.657 -0.410
vn 0.848 0.491 -0.199
vn 0.975 0.004 -0.224
vn 0.981 -0.039 -0.192
vn 0.029 -0.815 0.579
vn 0.019 -0.801 0.598
vn 0.024 0.845 -0.534
vn 0.059 0.812 -0.581
vn -0.027 0.850 -0.526
vn -0.068 -0.688 0.723
vn -0.090 -0.675 0.732
vn -0.024 0.853 -0.521
vn 0.016 0.781 -0.625
vn 0.016 0.779 -0.627
vn -0.809 0.058 -0.586
vn -0.159 0.757 -0.634
vn -0.208 0.379 -0.902
vn -0.365 0.459 -0.810
vn 0.656 0.307 -0.689
vn 0.320 0.418 -0.850
vn 0.387 0.514 -0.766
vn 0.846 -0.157 -0.509
vn -0.001 0.819 -0.574
vn -0.008 0.829 -0.559
vn -0.129 0.947 -0.296
vn -0.016 0.831 -0.555
vn -0.567 -0.653 0.502
vn 0.568 -0.652 0.502
vn -0.582 -0.474 -0.661
vn 0.582 -0.473 -0.661
vn -0.442 0.751 0.491
vn 0.295 0.713 0.636
vn -0.080 0.918 0.389
vn 0.709 0.628 0.321
vn -0.414 0.862 0.295
vn -0.518 0.735 0.437
vn 0.080 0.976 0.202
vn 0.055 0.981 0.185
vn 0.628 0.778 0.037
vn 0.561 0.821 0.108
vn -0.697 0.715 0.049
vn -0.377 0.870 0.316
vn -0.314 0.936 0.158
vn -0.322 0.933 0.161
vn 0.130 0.985 0.113
vn 0.205 0.963 0.174
vn 0.679 0.733 -0.039
vn 0.616 0.787 0.027
vn 0.026 0.744 -0.668
vn 0.142 -0.989 -0.038
vn 0.032 0.736 -0.676
vn 0.019 -0.860 0.510
vn 0.151 -0.984 -0.092
vn -0.017 -0.783 0.621
vn 0.025 -0.859 0.511
vn -0.018 -0.788 0.616
vn -0.690 0.716 0.111
vn -0.444 0.892 -0.078
vn -0.142 0.985 -0.092
vn -0.176 0.976 -0.129
vn 0.239 0.921 -0.309
vn 0.221 0.974 -0.044
vn 0.335 0.937 -0.098
vn 0.708 0.706 0.003
vn 0.014 0.801 -0.599
vn 0.012 0.804 -0.594
vn 0.001 0.807 -0.590
vn 0.003 0.800 -0.599
vn -0.008 0.825 -0.565
vn 0.008 0.791 -0.612
vn 0.002 0.800 -0.600
vn 0.008 0.795 -0.607
vn 0.091 0.547 -0.832
vn 0.087 0.588 -0.804
vn 0.137 0.862 -0.489
vn -0.034 0.891 -0.454
vn -0.002 0.813 -0.583
vn -0.011 0.821 -0.570
vn -0.562 0.448 0.695
vn 0.563 0.448 0.695
vn -0.581 0.662 -0.473
vn 0.582 0.662 -0.473

# Facets
f 1//1 3//1 2//1
f 4//2 3//2 5//2
f 4//3 2//3 3//3
f 6//4 4//4 5//4
f 7//5 3//5 1//5
f 8//6 7//6 9//6
f 3//7 7//7 8//7
f 5//8 3//8 8//8
f 5//9 10//9 6//9
f 5//10 8//10 10//10
f 11//11 8//11 9//11
f 11//12 10//12 8//12
f 12//13 14//13 13//13
f 15//14 13//14 14//14
f 12//15 2//15 14//15
f 1//16 2//16 12//16
f 16//17 1//17 12//17
f 15//18 14//18 17//18
f 17//19 14//19 2//19
f 17//20 2//20 4//20
f 6//21 17//21 4//21
f 6//22 18//22 17//22
f 19//23 1//23 16//23
f 19//24 7//24 1//24
f 7//25 19//25 9//25
f 19//26 20//26 9//26
f 18//27 6//27 10//27
f 21//28 18//28 10//28
f 22//29 9//29 20//29
f 22//30 11//30 9//30
f 11//31 21//31 10//31
f 11//32 22//32 21//32
f 23//33 13//33 24//33
f 23//34 12//34 13//34
f 15//35 24//35 13//35
f 15//36 25//36 24//36
f 16//37 12//37 23//37
f 16//38 23//38 26//38
f 25//39 15//39 27//39
f 15//40 17//40 27//40
f 18//41 27//41 17//41
f 18//42 28//42 27//42
f 29//43 16//43 26//43
f 29//44 19//44 16//44
f 30//45 20//45 31//45
f 31//46 20//46 19//46
f 31//47 19//47 29//47
f 28//48 30//48 31//48
f 21//49 30//49 28//49
f 18//50 21//50 28//50
f 22//51 20//51 30//51
f 30//52 21//52 22//52
f 23//53 24//53 32//53
f 32//54 24//54 25//54
f 26//55 32//55 33//55
f 26//56 23//56 32//56
f 34//57 25//57 27//57
f 32//58 25//58 34//58
f 33//59 32//59 34//59
f 34//60 27//60 28//60
f 29//61 26//61 33//61
f 33//62 31//62 29//62
f 33//63 34//63 31//63
f 34//64 28//64 31//64
f 35//65 37//65 36//65
f 38//66 36//66 37//66
f 35//67 39//67 37//67
f 35//68 40//68 39//68
f 37//69 41//69 38//69
f 37//70 39//70 41//70
f 42//71 39//71 40//71
f 42//72 41//72 39//72
f 43//73 45//73 44//73
f 46//74 45//74 47//74
f 46//75 44//75 45//75
f 48//76 46//76 47//76
f 49//77 51//77 50//77
f 51//78 43//78 50//78
f 45//79 43//79 51//79
f 52//80 45//80 51//80
f 53//81 47//81 45//81
f 52//82 53//82 45//82
f 47//83 54//83 48//83
f 47//84 53//84 54//84
f 49//85 55//85 51//85
f 49//86 56//86 55//86
f 35//87 36//87 55//87
f 55//88 36//88 52//88
f 55//89 52//89 51//89
f 36//90 38//90 52//90
f 52//91 38//91 57//91
f 52//92 57//92 53//92
f 53//93 58//93 54//93
f 53//94 57//94 58//94
f 59//95 61//95 60//95
f 62//96 60//96 61//96
f 56//97 63//97 55//97
f 56//98 64//98 63//98
f 40//99 35//99 63//99
f 35//100 55//100 63//100
f 65//101 57//101 41//101
f 57//102 38//102 41//102
f 57//103 66//103 58//103
f 57//104 65//104 66//104
f 59//105 67//105 61//105
f 59//106 68//106 67//106
f 61//107 69//107 62//107
f 61//108 67//108 69//108
f 70//109 63//109 64//109
f 70//110 40//110 63//110
f 42//111 40//111 70//111
f 71//112 42//112 70//112
f 42//113 65//113 41//113
f 72//114 65//114 42//114
f 71//115 72//115 42//115
f 72//116 66//116 65//116
f 73//117 67//117 68//117
f 73//118 69//118 67//118
f 74//119 44//119 75//119
f 74//120 43//120 44//120
f 44//121 46//121 76//121
f 75//122 44//122 76//122
f 48//123 76//123 46//123
f 48//124 77//124 76//124
f 49//125 50//125 78//125
f 78//126 50//126 79//126
f 79//127 50//127 43//127
f 79//128 43//128 74//128
f 77//129 48//129 54//129
f 80//130 77//130 54//130
f 81//131 78//131 82//131
f 49//132 78//132 81//132
f 56//133 49//133 81//133
f 78//134 79//134 82//134
f 80//135 54//135 58//135
f 83//136 80//136 58//136
f 84//137 86//137 85//137
f 60//138 86//138 59//138
f 85//139 86//139 60//139
f 87//140 85//140 60//140
f 88//141 62//141 89//141
f 60//142 62//142 88//142
f 87//143 60//143 88//143
f 90//144 89//144 91//144
f 90//145 88//145 89//145
f 92//146 90//146 91//146
f 64//147 94//147 93//147
f 81//148 94//148 64//148
f 56//149 81//149 64//149
f 93//150 94//150 95//150
f 96//151 98//151 97//151
f 83//152 98//152 96//152
f 66//153 98//153 83//153
f 58//154 66//154 83//154
f 99//155 86//155 84//155
f 86//156 99//156 59//156
f 59//157 99//157 100//157
f 59//158 100//158 68//158
f 101//159 89//159 102//159
f 102//160 89//160 62//160
f 102//161 62//161 69//161
f 101//162 91//162 89//162
f 101//163 103//163 91//163
f 103//164 92//164 91//164
f 70//165 64//165 93//165
f 104//166 93//166 95//166
f 70//167 93//167 104//167
f 71//168 70//168 104//168
f 72//169 97//169 98//169
f 104//170 97//170 72//170
f 71//171 104//171 72//171
f 98//172 66//172 72//172
f 105//173 68//173 100//173
f 105//174 73//174 68//174
f 73//175 102//175 69//175
f 73//176 105//176 102//176
f 106//177 108//177 107//177
f 109//178 107//178 108//178
f 110//179 108//179 106//179
f 110//180 109//180 108//180
f 74//181 75//181 111//181
f 112//182 75//182 76//182
f 112//183 111//183 75//183
f 112//184 76//184 77//184
f 79//185 111//185 113//185
f 79//186 74//186 111//186
f 111//187 112//187 114//187
f 111//188 114//188 113//188
f 114//189 77//189 80//189
f 114//190 112//190 77//190
f 81//191 82//191 115//191
f 113//192 82//192 79//192
f 115//193 82//193 113//193
f 116//194 115//194 113//194
f 113//195 114//195 117//195
f 113//196 117//196 116//196
f 117//197 80//197 83//197
f 117//198 114//198 80//198
f 84//199 85//199 118//199
f 119//200 85//200 87//200
f 119//201 118//201 85//201
f 120//202 87//202 88//202
f 120//203 119//203 87//203
f 121//204 88//204 90//204
f 121//205 120//205 88//205
f 121//206 90//206 92//206
f 94//207 81//207 115//207
f 115//208 95//208 94//208
f 122//209 95//209 115//209
f 116//210 122//210 115//210
f 122//211 96//211 97//211
f 117//212 96//212 122//212
f 116//213 117//213 122//213
f 117//214 83//214 96//214
f 99//215 84//215 118//215
f 118//216 100//216 99//216
f 123//217 100//217 118//217
f 119//218 123//218 118//218
f 123//219 101//219 102//219
f 120//220 101//220 123//220
f 119//221 120//221 123//221
f 120//222 103//222 101//222
f 120//223 121//223 103//223
f 121//224 92//224 103//224
f 104//225 95//225 122//225
f 122//226 97//226 104//226
f 105//227 100//227 123//227
f 123//228 102//228 105//228
f 106//229 107//229 124//229
f 124//230 107//230 109//230
f 110//231 106//231 124//231
f 124//232 109//232 110//232

# Thankyou for using Spin3D

