# Created using Spin3D

# Vertex Array
v -43.764 -36.257 46.424
v -43.744 -35.900 46.523
v -43.539 -36.269 46.584
v -43.521 -35.818 46.581
v -45.120 -35.521 45.292
v -44.862 -36.111 45.404
v -44.958 -36.009 45.257
v -43.793 -36.061 46.298
v -44.731 -36.039 45.442
v -44.950 -35.269 45.229
v -45.176 -34.358 45.747
v -44.324 -34.705 46.275
v -44.510 -35.740 45.875
v -43.645 -35.307 46.636
v -43.589 -35.042 46.534
v -46.013 -33.434 45.059
v -45.896 -33.414 45.345
v -45.494 -34.535 45.363
v -44.341 -35.707 45.728
v -43.892 -35.113 46.100
v -45.572 -34.169 45.031
v -45.230 -33.442 44.957
v -44.529 -34.708 45.461
v -45.342 -33.084 45.669
v -44.445 -33.599 46.192
v -43.875 -34.385 46.478
v -43.943 -34.050 46.173
v -46.259 -32.720 45.036
v -46.125 -32.574 45.214
v -44.502 -32.862 45.693
v -44.819 -32.430 45.239
v -44.509 -33.489 45.476
v -45.976 -32.459 44.794
v -45.802 -31.612 44.498
v -45.633 -32.065 44.567
v -45.235 -32.159 44.814
v -45.609 -31.594 44.470
v -44.836 -32.667 45.760
v -44.201 -33.436 46.173
v -46.272 -32.285 44.987
v -45.946 -32.046 45.084
v -45.470 -32.057 45.339
v -45.250 -31.891 45.116
v -45.584 -31.518 44.608
v -45.799 -31.618 44.766
v -45.697 -31.652 45.036
v 43.477 -14.762 -23.021
v 43.453 -14.730 -23.027
v 43.432 -14.723 -23.029
v 43.515 -14.782 -23.016
v 43.496 -14.757 -23.020
v 43.519 -14.769 -23.014
v 43.446 -14.738 -23.024
v 43.410 -14.690 -23.030
v 43.486 -14.761 -23.016
v 43.512 -14.766 -23.013
v 43.440 -14.717 -23.023
v 43.468 -14.722 -23.018
v 43.450 -14.701 -23.028
v 43.412 -14.682 -23.033
v 43.491 -14.730 -23.020
v 43.447 -14.679 -23.026
v 43.392 -14.651 -23.032
v 43.491 -14.726 -23.017
v 43.442 -14.678 -23.024
v 43.416 -14.672 -23.027
v 43.409 -14.655 -23.033
v 43.406 -14.648 -23.031
v 2.728 -22.179 74.388
v 2.729 -22.179 74.390
v 2.729 -22.180 74.388
v 2.731 -22.179 74.388
v 2.729 -22.178 74.387
v 2.729 -22.177 74.389
v 7.549 8.134 -26.315
v 7.664 8.218 -26.105
v 7.502 8.102 -26.421
v 7.679 8.239 -26.091
v 7.401 8.046 -26.664
v 7.396 8.052 -26.711
v 7.549 8.163 -26.394
v 7.282 7.985 -26.980
v 7.314 8.022 -26.970
v 7.362 8.053 -26.848
v 7.244 7.973 -27.107
v 41.499 13.054 -68.691
v 41.499 13.054 -68.693
v 41.499 13.056 -68.691
v 41.501 13.054 -68.693
v 41.501 13.056 -68.691
v 41.501 13.054 -68.691
v 41.499 13.054 -68.689
v 41.501 13.053 -68.689
v 3.631 8.272 -18.003
v 3.632 8.272 -18.002
v 3.632 8.271 -18.003
v 3.633 8.272 -18.003
v 3.632 8.272 -18.004
v 7.766 8.315 -25.979
v 7.598 8.190 -26.296
v 7.748 8.323 -26.057
v 7.804 8.346 -25.899
v 7.855 8.417 -25.887
v 7.517 8.167 -26.560
v 7.608 8.245 -26.398
v 7.786 8.385 -26.072
v 7.473 8.155 -26.702
v 7.291 8.015 -27.041
v 7.694 8.324 -26.293
v 41.499 13.052 -68.691
v 41.501 13.052 -68.692
v 3.632 8.273 -18.003
v 7.732 8.320 -26.131
v 7.848 8.401 -25.883
v 7.665 8.297 -26.338
v 7.811 8.402 -26.030
v -4.466 73.356 -5.810
v -4.468 73.356 -5.810
v -4.468 73.358 -5.810
v -4.470 73.355 -5.810
v -4.468 73.358 -5.812
v -4.466 73.356 -5.812
v -4.470 73.356 -5.812
v -4.468 73.356 -5.812
v -4.468 73.354 -5.811
v -4.469 73.354 -5.812

# Normal Array
vn -0.577 -0.190 0.794
vn -0.255 0.018 0.967
vn -0.880 -0.318 0.354
vn 0.517 -0.404 -0.755
vn 0.490 -0.536 -0.687
vn 0.734 -0.034 -0.678
vn -0.302 -0.032 -0.953
vn 0.628 -0.036 -0.777
vn -0.574 -0.203 0.793
vn -0.657 -0.169 0.735
vn -0.657 -0.166 0.736
vn -0.519 -0.075 0.852
vn -0.193 -0.151 0.969
vn 0.732 0.105 0.673
vn -0.873 -0.307 0.379
vn -0.692 -0.237 0.682
vn -0.680 -0.264 0.684
vn -0.712 -0.315 0.627
vn -0.713 -0.183 0.677
vn 0.348 -0.845 0.405
vn 0.453 -0.825 0.338
vn 0.270 -0.489 -0.829
vn -0.170 -0.902 -0.396
vn 0.694 -0.078 -0.716
vn 0.745 -0.062 -0.665
vn 0.817 0.038 -0.575
vn -0.815 -0.476 -0.332
vn -0.927 -0.340 -0.157
vn -0.053 -0.207 -0.977
vn 0.075 -0.136 -0.988
vn 0.615 -0.042 -0.788
vn 0.584 -0.105 -0.805
vn 0.528 -0.046 -0.848
vn 0.685 -0.065 -0.726
vn -0.498 0.011 0.867
vn -0.532 -0.018 0.847
vn -0.438 0.043 0.898
vn -0.426 0.021 0.905
vn 0.407 0.251 0.878
vn 0.880 0.404 0.248
vn -0.751 -0.103 0.652
vn -0.878 -0.291 0.380
vn -0.500 -0.012 0.866
vn -0.504 -0.003 0.864
vn 0.872 0.151 -0.465
vn 0.828 0.175 -0.533
vn 0.804 0.079 -0.590
vn 0.812 0.079 -0.578
vn -0.521 -0.206 -0.829
vn -0.427 -0.222 -0.877
vn -0.312 -0.255 -0.915
vn -0.230 -0.327 -0.917
vn 0.051 -0.125 -0.991
vn 0.732 0.062 -0.678
vn 0.579 -0.088 -0.811
vn 0.585 0.000 -0.811
vn 0.510 -0.093 -0.855
vn 0.707 -0.003 -0.708
vn -0.126 -0.194 -0.973
vn 0.483 -0.200 -0.852
vn -0.372 0.257 0.892
vn -0.107 0.271 0.956
vn -0.167 0.356 0.920
vn 0.900 0.378 0.215
vn -0.814 0.043 0.580
vn -0.501 0.363 0.785
vn -0.308 0.325 0.894
vn -0.457 0.220 0.862
vn -0.362 0.244 0.900
vn 0.772 0.632 0.062
vn 0.507 0.694 0.511
vn 0.507 0.694 0.512
vn 0.194 0.686 0.702
vn 0.916 0.385 -0.114
vn -0.588 -0.108 -0.802
vn -0.407 0.913 0.026
vn -0.978 0.207 0.017
vn -0.963 0.197 -0.182
vn -0.184 0.574 -0.798
vn 0.041 0.819 0.573
vn 0.876 0.383 -0.294
vn 0.754 0.510 -0.413
vn -0.147 0.876 -0.458
vn 0.864 0.358 -0.353
vn -0.432 0.374 0.821
vn 0.225 0.662 0.715
vn -0.769 0.531 0.357
vn 0.480 0.874 -0.071
vn 0.039 -0.150 -0.988
vn 0.090 -0.080 -0.993
vn 0.097 -0.107 -0.990
vn 0.269 0.057 -0.961
vn -0.367 -0.572 -0.733
vn -0.689 -0.440 0.576
vn -0.389 -0.538 0.748
vn -0.415 -0.461 0.784
vn 0.134 -0.174 0.976
vn -0.179 -0.236 0.955
vn -0.316 -0.114 0.942
vn -0.235 -0.092 0.968
vn -0.178 -0.031 0.984
vn -0.145 -0.016 0.989
vn 0.130 -0.014 -0.991
vn 0.067 -0.069 -0.995
vn 0.261 0.101 -0.960
vn 0.232 0.056 -0.971
vn 0.156 -0.010 -0.988
vn 0.273 0.064 -0.960
vn -0.326 -0.252 -0.911
vn -0.405 -0.228 -0.885
vn 0.625 0.454 -0.635
vn 0.370 0.498 0.785
vn 0.277 0.243 0.930
vn 0.698 0.428 -0.574
vn -0.241 -0.068 0.968
vn -0.270 -0.057 0.961
vn -0.051 0.098 0.994
vn -0.107 0.065 0.992
vn -0.172 -0.004 0.985
vn -0.055 0.075 0.996
vn 0.146 0.018 -0.989
vn 0.235 0.099 -0.967
vn -0.001 0.296 -0.955
vn -0.074 -0.009 -0.997
vn 0.355 0.580 0.733
vn 0.398 0.402 -0.825
vn -0.096 0.107 0.990
vn -0.096 0.107 0.990
vn -0.563 -0.678 0.472
vn 0.550 -0.689 0.472
vn -0.576 -0.490 -0.654
vn 0.569 -0.509 -0.646
vn -0.570 0.453 0.685
vn 0.570 0.436 0.697
vn -0.583 0.664 -0.468
vn 0.590 0.656 -0.471
vn 0.671 -0.738 -0.072
vn -0.850 0.441 0.290
vn -0.909 0.271 0.317
vn 0.733 -0.663 -0.152
vn -0.798 0.568 0.201
vn -0.803 0.562 0.199
vn 0.742 -0.653 -0.152
vn 0.772 -0.611 -0.175
vn -0.796 0.575 0.189
vn -0.799 0.571 0.189
vn 0.772 -0.611 -0.176
vn -0.797 0.574 0.186
vn -0.952 0.228 -0.202
vn 0.317 0.874 -0.369
vn -0.226 0.659 -0.717
vn 0.958 0.263 -0.111
vn -0.952 0.247 0.179
vn -0.269 0.720 0.640
vn 0.261 0.367 0.893
vn 0.954 0.085 0.287
vn -0.605 -0.636 0.479
vn 0.558 -0.668 0.493
vn -0.554 -0.487 -0.675
vn 0.580 -0.493 -0.648
vn 0.787 -0.589 -0.185
vn 0.783 -0.594 -0.183
vn -0.800 0.564 0.205
vn -0.850 0.419 0.319
vn 0.751 -0.652 -0.107
vn -0.812 0.544 0.212
vn 0.783 -0.594 -0.183
vn 0.791 -0.581 -0.191
vn -0.792 0.581 0.190
vn -0.800 0.565 0.202
vn -0.807 0.553 0.205
vn -0.808 0.553 0.203
vn 0.802 -0.563 -0.199
vn 0.804 -0.560 -0.200
vn 0.788 -0.589 -0.183
vn -0.767 0.622 0.156
vn -0.774 0.612 0.162
vn -0.792 0.581 0.186
vn -0.774 0.611 0.163
vn -0.761 0.633 0.143
vn 0.785 -0.589 -0.190
vn -0.769 0.619 0.160
vn -0.962 -0.202 -0.183
vn 0.282 -0.382 -0.880
vn -0.278 -0.712 -0.645
vn 0.951 -0.150 -0.270
vn -0.962 -0.183 0.202
vn -0.314 -0.637 0.704
vn 0.245 -0.893 0.378
vn 0.947 -0.295 0.125
vn -0.579 0.491 0.651
vn 0.553 0.486 0.677
vn -0.556 0.666 -0.497
vn 0.604 0.635 -0.483
vn 0.796 -0.573 -0.196
vn 0.798 -0.582 -0.157
vn 0.812 -0.549 -0.199
vn -0.762 0.467 0.448
vn 0.792 -0.580 -0.190
vn 0.794 -0.576 -0.192
vn 0.819 -0.535 -0.207
vn 0.818 -0.539 -0.203
vn -0.719 0.679 0.150
vn 0.864 -0.454 -0.218
vn 0.796 -0.572 -0.197
vn 0.855 -0.435 -0.281
vn 0.831 -0.511 -0.219
vn -0.606 0.794 0.035
vn 0.155 0.096 0.983
vn -0.259 0.010 0.966
vn 0.516 0.761 0.393
vn 0.811 0.553 -0.192
vn -0.804 0.479 0.352
vn -0.482 0.861 -0.162
vn 0.260 0.321 -0.910
vn -0.148 0.421 -0.895
vn 0.247 -0.312 0.917
vn -0.179 -0.399 0.899
vn 0.508 -0.751 -0.422
vn 0.810 -0.554 0.192
vn -0.820 -0.451 -0.353
vn -0.545 -0.827 0.139
vn 0.165 -0.102 -0.981
vn -0.254 -0.003 -0.967

# Facets
f 1//1 3//1 2//1
f 4//2 2//2 3//2
f 5//3 7//3 6//3
f 3//4 1//4 8//4
f 9//5 6//5 7//5
f 8//6 4//6 3//6
f 10//7 7//7 5//7
f 10//8 9//8 7//8
f 11//9 13//9 12//9
f 2//10 13//10 1//10
f 12//11 13//11 2//11
f 14//12 12//12 2//12
f 4//13 14//13 2//13
f 4//14 15//14 14//14
f 16//15 18//15 17//15
f 18//16 11//16 17//16
f 18//17 13//17 11//17
f 5//18 13//18 18//18
f 6//19 13//19 5//19
f 6//20 9//20 13//20
f 13//21 9//21 19//21
f 8//22 1//22 13//22
f 19//23 8//23 13//23
f 20//24 8//24 19//24
f 4//25 8//25 20//25
f 15//26 4//26 20//26
f 21//27 18//27 16//27
f 21//28 5//28 18//28
f 10//29 5//29 21//29
f 22//30 10//30 21//30
f 10//31 19//31 9//31
f 23//32 19//32 10//32
f 22//33 23//33 10//33
f 23//34 20//34 19//34
f 24//35 12//35 25//35
f 24//36 11//36 12//36
f 12//37 14//37 26//37
f 25//38 12//38 26//38
f 15//39 26//39 14//39
f 15//40 27//40 26//40
f 28//41 17//41 29//41
f 28//42 16//42 17//42
f 11//43 24//43 17//43
f 24//44 29//44 17//44
f 30//45 32//45 31//45
f 27//46 32//46 30//46
f 20//47 32//47 27//47
f 15//48 20//48 27//48
f 33//49 16//49 28//49
f 33//50 21//50 16//50
f 34//51 35//51 33//51
f 33//52 35//52 22//52
f 33//53 22//53 21//53
f 31//54 32//54 36//54
f 36//55 32//55 22//55
f 22//56 32//56 23//56
f 22//57 35//57 36//57
f 32//58 20//58 23//58
f 37//59 35//59 34//59
f 37//60 36//60 35//60
f 24//61 25//61 38//61
f 39//62 25//62 26//62
f 39//63 38//63 25//63
f 39//64 26//64 27//64
f 28//65 29//65 40//65
f 40//66 29//66 41//66
f 29//67 24//67 41//67
f 41//68 24//68 42//68
f 42//69 24//69 38//69
f 43//70 30//70 31//70
f 38//71 30//71 43//71
f 39//72 30//72 38//72
f 42//73 38//73 43//73
f 39//74 27//74 30//74
f 33//75 28//75 40//75
f 44//76 34//76 45//76
f 34//77 33//77 45//77
f 45//78 33//78 41//78
f 41//79 33//79 40//79
f 43//80 44//80 45//80
f 36//81 44//81 43//81
f 31//82 36//82 43//82
f 37//83 34//83 44//83
f 44//84 36//84 37//84
f 41//85 42//85 46//85
f 46//86 42//86 43//86
f 45//87 41//87 46//87
f 46//88 43//88 45//88
f 47//89 49//89 48//89
f 47//90 51//90 50//90
f 48//91 51//91 47//91
f 51//92 52//92 50//92
f 53//93 49//93 47//93
f 54//94 49//94 53//94
f 50//95 55//95 47//95
f 55//96 53//96 47//96
f 56//97 50//97 52//97
f 55//98 50//98 56//98
f 53//99 57//99 54//99
f 55//100 57//100 53//100
f 58//101 57//101 55//101
f 56//102 58//102 55//102
f 48//103 60//103 59//103
f 49//104 60//104 48//104
f 61//105 59//105 62//105
f 61//106 51//106 59//106
f 51//107 48//107 59//107
f 51//108 61//108 52//108
f 49//109 54//109 60//109
f 60//110 54//110 63//110
f 64//111 61//111 62//111
f 65//112 64//112 62//112
f 52//113 64//113 56//113
f 61//114 64//114 52//114
f 54//115 66//115 63//115
f 57//116 66//116 54//116
f 65//117 58//117 64//117
f 65//118 66//118 58//118
f 66//119 57//119 58//119
f 56//120 64//120 58//120
f 59//121 60//121 67//121
f 59//122 67//122 62//122
f 67//123 63//123 68//123
f 60//124 63//124 67//124
f 62//125 68//125 65//125
f 67//126 68//126 62//126
f 63//127 66//127 68//127
f 65//128 68//128 66//128
f 69//129 71//129 70//129
f 72//130 70//130 71//130
f 73//131 71//131 69//131
f 73//132 72//132 71//132
f 69//133 70//133 74//133
f 74//134 70//134 72//134
f 73//135 69//135 74//135
f 74//136 72//136 73//136
f 75//137 77//137 76//137
f 76//138 78//138 75//138
f 79//139 77//139 75//139
f 80//140 77//140 79//140
f 81//141 75//141 78//141
f 79//142 75//142 81//142
f 82//143 80//143 79//143
f 83//144 80//144 82//144
f 84//145 79//145 81//145
f 82//146 79//146 84//146
f 82//147 85//147 83//147
f 84//148 85//148 82//148
f 86//149 88//149 87//149
f 89//150 88//150 90//150
f 89//151 87//151 88//151
f 91//152 89//152 90//152
f 92//153 88//153 86//153
f 92//154 90//154 88//154
f 92//155 93//155 90//155
f 93//156 91//156 90//156
f 94//157 96//157 95//157
f 97//158 95//158 96//158
f 98//159 96//159 94//159
f 98//160 97//160 96//160
f 76//161 100//161 99//161
f 77//162 100//162 76//162
f 78//163 102//163 101//163
f 78//164 76//164 102//164
f 76//165 99//165 102//165
f 102//166 103//166 101//166
f 77//167 80//167 100//167
f 100//168 80//168 104//168
f 101//169 105//169 81//169
f 78//170 101//170 81//170
f 106//171 101//171 103//171
f 105//172 101//172 106//172
f 107//173 83//173 108//173
f 107//174 104//174 83//174
f 104//175 80//175 83//175
f 105//176 109//176 107//176
f 105//177 107//177 84//177
f 105//178 84//178 81//178
f 84//179 107//179 108//179
f 106//180 109//180 105//180
f 83//181 85//181 108//181
f 84//182 108//182 85//182
f 86//183 87//183 110//183
f 111//184 87//184 89//184
f 111//185 110//185 87//185
f 111//186 89//186 91//186
f 92//187 86//187 110//187
f 110//188 93//188 92//188
f 110//189 111//189 93//189
f 111//190 91//190 93//190
f 94//191 95//191 112//191
f 112//192 95//192 97//192
f 98//193 94//193 112//193
f 112//194 97//194 98//194
f 99//195 100//195 113//195
f 99//196 114//196 102//196
f 113//197 114//197 99//197
f 102//198 114//198 103//198
f 113//199 104//199 115//199
f 100//200 104//200 113//200
f 114//201 113//201 116//201
f 116//202 113//202 115//202
f 103//203 116//203 106//203
f 114//204 116//204 103//204
f 104//205 107//205 115//205
f 109//206 115//206 107//206
f 116//207 115//207 109//207
f 106//208 116//208 109//208
f 117//209 119//209 118//209
f 120//210 118//210 119//210
f 117//211 121//211 119//211
f 117//212 122//212 121//212
f 119//213 123//213 120//213
f 119//214 121//214 123//214
f 124//215 121//215 122//215
f 124//216 123//216 121//216
f 117//217 118//217 125//217
f 125//218 118//218 120//218
f 122//219 125//219 126//219
f 122//220 117//220 125//220
f 126//221 120//221 123//221
f 126//222 125//222 120//222
f 124//223 122//223 126//223
f 126//224 123//224 124//224

# Thankyou for using Spin3D

