# Created using Spin3D

# Vertex Array
v 5.745 -43.203 29.684
v 6.012 -42.986 30.292
v 6.462 -43.586 29.906
v 6.763 -43.428 30.281
v 7.012 -43.594 29.961
v 7.127 -43.209 30.151
v 6.138 -43.365 29.348
v 5.708 -43.038 29.170
v 6.725 -43.366 29.411
v 7.199 -43.111 29.640
v 5.971 -42.410 28.599
v 6.874 -42.726 29.007
v 4.767 -41.723 29.646
v 5.299 -41.946 30.281
v 5.277 -42.567 29.911
v 5.967 -42.358 30.530
v 6.624 -42.631 30.415
v 7.127 -42.340 29.880
v 5.186 -42.363 29.155
v 4.677 -41.393 28.913
v 7.136 -42.347 29.207
v 5.072 -41.461 28.279
v 5.134 -40.693 27.708
v 5.478 -41.302 27.748
v 5.927 -41.354 27.800
v 6.569 -41.700 28.453
v 5.557 -40.784 27.483
v 4.744 -41.172 29.924
v 5.161 -41.092 30.143
v 5.957 -41.602 30.360
v 6.346 -41.096 29.974
v 6.708 -41.784 30.230
v 4.602 -40.879 29.263
v 4.860 -40.657 29.671
v 6.828 -41.399 29.771
v 6.891 -41.499 29.149
v 4.769 -40.709 28.402
v 5.111 -40.288 28.023
v 6.374 -40.854 28.477
v 5.961 -40.765 27.817
v 5.444 -40.387 27.640
v 5.564 -40.637 29.695
v 5.051 -40.329 28.880
v 5.616 -40.263 29.009
v 6.265 -40.690 29.205
v 5.680 -40.303 28.312
v -35.794 -18.753 -25.802
v -35.795 -18.753 -25.804
v -35.796 -18.753 -25.802
v -35.798 -18.753 -25.803
v -35.796 -18.753 -25.800
v -38.801 -17.714 -22.608
v -38.800 -17.714 -22.607
v -38.800 -17.715 -22.609
v -38.798 -17.714 -22.608
v -38.800 -17.714 -22.610
v -35.793 -18.751 -25.802
v -35.796 -18.751 -25.804
v -35.798 -18.751 -25.801
v -35.795 -18.752 -25.800
v 21.026 -21.998 16.699
v 21.027 -21.999 16.700
v 21.027 -22.000 16.698
v 21.028 -21.999 16.699
v 21.027 -21.998 16.698
v -38.800 -17.713 -22.608
v -35.796 -18.751 -25.802
v 51.406 -14.630 -30.573
v 51.407 -14.630 -30.572
v 51.407 -14.631 -30.574
v 51.408 -14.630 -30.573
v 51.407 -14.630 -30.575
v 21.027 -21.997 16.699
v -36.990 -11.456 -9.384
v -36.977 -11.355 -9.368
v -36.977 -11.358 -9.368
v -36.996 -11.475 -9.385
v -36.991 -11.450 -9.382
v -36.993 -11.414 -9.376
v -36.986 -11.389 -9.373
v -36.991 -11.386 -9.372
v -20.697 -12.056 -21.544
v -20.696 -12.057 -21.542
v -20.696 -12.058 -21.544
v -20.695 -12.057 -21.544
v -20.696 -12.056 -21.545
v 51.407 -14.629 -30.573
v -23.750 -19.457 47.281
v -23.144 -19.569 47.804
v -23.315 -19.611 47.360
v -22.826 -19.592 47.833
v -22.753 -19.582 47.564
v -22.612 -19.442 47.665
v -24.877 -19.383 46.161
v -24.525 -19.373 46.581
v -24.286 -19.510 46.583
v -23.695 -19.559 46.679
v -23.046 -19.530 47.028
v -22.646 -19.431 47.278
v -24.790 -19.406 45.997
v -24.970 -19.286 45.868
v -24.251 -19.434 46.124
v -23.530 -19.389 46.361
v -22.922 -19.281 46.700
v -24.616 -19.259 45.804
v -24.019 -19.248 45.934
v -23.413 -19.123 46.150
v -36.963 -11.171 -9.341
v -36.964 -11.238 -9.352
v -36.979 -11.304 -9.360
v -36.979 -11.256 -9.353
v -36.965 -11.224 -9.349
v -36.973 -11.230 -9.349
v -20.696 -12.055 -21.543
v -23.238 -19.462 47.762
v -22.889 -19.456 47.852
v -24.770 -19.223 46.166
v -24.151 -19.205 46.748
v -23.342 -19.254 47.385
v -22.804 -19.255 47.516
v -22.708 -19.174 47.064
v -24.701 -19.138 45.866
v -24.251 -19.034 46.229
v -23.014 -18.940 46.572
v -23.327 -18.935 46.192
v -22.949 -19.036 46.468
v -24.037 -19.044 45.939
v -36.955 -11.111 -9.332
v -36.953 -11.040 -9.321
v -36.964 -11.110 -9.332
v -36.963 -11.095 -9.330
v -36.955 -11.071 -9.326
v -23.691 -19.024 46.749
v -23.098 -19.031 46.978
v -23.549 -18.916 46.375
v -36.954 -11.018 -9.318

# Normal Array
vn -0.524 -0.703 0.481
vn -0.056 -0.903 0.425
vn -0.396 -0.689 0.607
vn 0.541 -0.497 0.679
vn -0.446 -0.890 -0.094
vn -0.529 -0.819 -0.225
vn 0.026 -0.918 -0.395
vn 0.041 -0.921 -0.389
vn 0.946 -0.317 0.072
vn 0.585 -0.593 -0.553
vn -0.160 -0.626 -0.763
vn 0.084 -0.606 -0.791
vn 0.174 -0.554 -0.814
vn 0.582 -0.527 -0.620
vn -0.780 -0.299 0.549
vn -0.609 -0.624 0.490
vn -0.590 -0.397 0.703
vn -0.505 -0.337 0.795
vn -0.092 -0.180 0.979
vn 0.017 -0.354 0.935
vn 0.381 -0.088 0.920
vn 0.644 0.228 0.731
vn -0.850 -0.525 -0.040
vn -0.868 -0.483 -0.110
vn -0.782 -0.608 -0.139
vn -0.814 -0.578 -0.058
vn 0.988 0.046 0.148
vn 0.996 0.089 0.012
vn -0.757 -0.502 -0.419
vn -0.659 -0.414 -0.628
vn -0.490 -0.657 -0.572
vn -0.467 -0.646 -0.604
vn -0.539 -0.432 -0.723
vn 0.023 -0.602 -0.798
vn 0.449 -0.527 -0.721
vn 0.259 -0.399 -0.880
vn 0.790 -0.252 -0.559
vn 0.726 -0.148 -0.672
vn -0.499 -0.334 -0.800
vn 0.049 -0.461 -0.886
vn -0.779 -0.308 0.545
vn -0.474 0.065 0.878
vn -0.184 0.127 0.975
vn -0.225 0.211 0.951
vn 0.257 0.453 0.853
vn 0.211 0.188 0.959
vn 0.256 0.215 0.942
vn 0.702 0.084 0.707
vn -0.864 0.365 0.348
vn -0.980 -0.121 0.157
vn -0.984 -0.173 0.044
vn -0.480 0.471 0.741
vn 0.590 0.536 0.604
vn 0.819 0.316 0.479
vn 0.951 0.307 0.047
vn 0.961 0.278 0.009
vn -0.981 -0.012 -0.192
vn -0.832 -0.255 -0.492
vn -0.850 -0.268 -0.454
vn -0.849 0.293 -0.441
vn 0.842 0.208 -0.498
vn 0.707 -0.021 -0.707
vn 0.861 0.217 -0.461
vn 0.862 0.212 -0.460
vn -0.605 0.466 -0.646
vn -0.420 0.227 -0.879
vn 0.638 -0.015 -0.770
vn 0.561 0.438 -0.703
vn 0.178 0.607 0.775
vn 0.051 0.581 0.812
vn -0.735 0.670 0.100
vn -0.043 0.720 0.692
vn -0.038 0.926 0.375
vn -0.205 0.866 0.457
vn 0.597 0.734 0.324
vn 0.349 0.843 0.408
vn 0.385 0.798 0.464
vn 0.790 0.613 -0.019
vn -0.784 0.620 -0.030
vn -0.787 0.617 -0.025
vn 0.002 0.999 0.048
vn -0.101 0.993 -0.066
vn 0.636 0.710 -0.303
vn 0.631 0.772 -0.078
vn 0.549 0.836 0.004
vn 0.790 0.613 -0.019
vn 0.107 0.981 -0.161
vn 0.628 0.714 -0.310
vn 0.227 -0.924 -0.309
vn -0.151 -0.910 -0.387
vn 0.134 -0.987 0.083
vn -0.241 -0.970 -0.011
vn -0.568 -0.652 0.502
vn 0.530 -0.671 0.518
vn -0.583 -0.472 -0.662
vn 0.792 -0.243 -0.560
vn 0.527 0.359 -0.770
vn 0.557 -0.483 -0.676
vn -0.491 -0.137 -0.860
vn -0.790 0.384 -0.479
vn 0.813 0.151 0.562
vn 0.505 -0.425 0.752
vn -0.817 -0.361 0.450
vn -0.514 0.130 0.848
vn -0.633 -0.651 0.419
vn 0.562 -0.696 0.447
vn -0.629 -0.474 -0.616
vn 0.568 -0.502 -0.652
vn -0.549 0.475 0.687
vn 0.577 0.464 0.671
vn -0.562 0.696 -0.447
vn 0.601 0.672 -0.432
vn 0.207 0.969 -0.138
vn -0.251 0.967 -0.047
vn 0.303 0.900 0.315
vn -0.143 0.901 0.409
vn -0.582 -0.662 0.472
vn 0.616 -0.641 0.458
vn -0.562 -0.447 -0.695
vn 0.597 -0.434 -0.675
vn -0.570 0.504 0.649
vn 0.599 0.437 0.671
vn -0.559 0.693 -0.456
vn 0.599 0.631 -0.494
vn -0.046 -0.149 0.988
vn 0.362 -0.202 0.910
vn 0.403 -0.191 0.895
vn 0.124 -0.157 0.980
vn 0.021 0.153 -0.988
vn -0.233 0.163 -0.959
vn -0.165 0.157 -0.974
vn -0.153 -0.139 0.978
vn -0.583 -0.661 0.472
vn 0.578 -0.664 0.474
vn -0.576 -0.465 -0.672
vn 0.583 -0.463 -0.668
vn -0.568 0.502 0.653
vn 0.602 0.487 0.633
vn -0.550 0.687 -0.475
vn 0.584 0.668 -0.462
vn -0.362 -0.905 0.225
vn 0.060 -0.998 -0.022
vn -0.081 -0.989 0.124
vn 0.643 -0.752 0.146
vn -0.457 -0.793 0.403
vn -0.456 -0.790 0.410
vn -0.370 -0.861 0.349
vn -0.077 -0.996 -0.034
vn 0.107 -0.982 -0.154
vn 0.120 -0.982 -0.143
vn 0.732 -0.677 -0.082
vn 0.403 -0.864 -0.304
vn -0.221 -0.975 0.017
vn -0.482 -0.865 -0.136
vn -0.054 -0.984 -0.168
vn -0.012 -0.986 -0.165
vn 0.234 -0.903 -0.360
vn 0.183 -0.904 -0.387
vn 0.457 -0.784 -0.421
vn 0.395 -0.798 -0.455
vn -0.059 -0.769 -0.637
vn 0.087 -0.830 -0.551
vn 0.146 -0.790 -0.596
vn 0.224 -0.819 -0.528
vn 0.366 -0.673 -0.643
vn 0.448 -0.669 -0.592
vn 0.246 -0.160 0.956
vn 0.016 -0.139 0.990
vn 0.005 -0.149 0.989
vn 0.027 -0.148 0.989
vn 0.124 -0.157 0.980
vn 0.026 -0.146 0.989
vn -0.134 0.150 -0.980
vn 0.091 0.132 -0.987
vn -0.165 0.158 -0.974
vn -0.090 0.154 -0.984
vn 0.092 -0.151 0.984
vn -0.067 0.149 -0.987
vn -0.569 0.502 0.651
vn 0.629 0.474 0.616
vn -0.530 0.672 -0.517
vn 0.602 0.633 -0.487
vn -0.655 -0.299 0.694
vn -0.102 -0.182 0.978
vn -0.249 0.156 0.956
vn 0.548 0.142 0.825
vn -0.692 0.445 0.569
vn -0.535 0.643 0.549
vn -0.534 0.534 0.655
vn -0.466 0.611 0.640
vn -0.482 0.705 0.520
vn -0.144 0.850 0.507
vn -0.118 0.865 0.487
vn 0.328 0.772 0.545
vn 0.562 0.785 0.261
vn 0.982 0.170 -0.081
vn -0.476 0.869 0.136
vn -0.765 0.499 0.407
vn -0.357 0.865 0.353
vn -0.355 0.918 0.178
vn 0.497 0.769 -0.401
vn 0.740 0.657 -0.148
vn 0.859 -0.297 -0.417
vn 0.871 -0.173 -0.460
vn -0.193 0.336 -0.922
vn -0.126 0.984 -0.125
vn 0.030 0.473 -0.881
vn 0.213 0.043 -0.976
vn 0.575 -0.078 -0.815
vn 0.326 0.064 -0.943
vn 0.325 0.052 -0.944
vn 0.543 -0.544 -0.640
vn 0.085 -0.162 0.983
vn -0.068 -0.141 0.988
vn -0.072 -0.140 0.988
vn -0.036 -0.140 0.989
vn 0.036 -0.146 0.989
vn -0.907 0.036 0.419
vn -0.046 0.159 -0.986
vn 0.413 0.122 -0.902
vn 0.235 0.129 -0.963
vn -0.090 0.154 -0.984
vn -0.038 0.143 -0.989
vn 0.143 0.127 -0.981
vn -0.322 0.820 0.473
vn -0.104 0.897 0.431
vn -0.148 0.901 0.407
vn 0.290 0.929 0.229
vn -0.203 0.959 0.200
vn -0.342 0.871 0.352
vn 0.056 0.998 -0.035
vn -0.035 0.977 0.212
vn -0.085 0.965 0.247
vn 0.280 0.923 0.265
vn -0.137 0.982 -0.133
vn -0.079 0.977 -0.197
vn -0.059 -0.142 0.988
vn -0.917 0.039 0.397
vn 0.195 0.144 -0.970
vn 0.077 0.148 -0.986

# Facets
f 1//1 3//1 2//1
f 4//2 3//2 5//2
f 4//3 2//3 3//3
f 6//4 4//4 5//4
f 1//5 7//5 3//5
f 1//6 8//6 7//6
f 9//7 5//7 3//7
f 7//8 9//8 3//8
f 5//9 10//9 6//9
f 5//10 9//10 10//10
f 11//11 7//11 8//11
f 11//12 9//12 7//12
f 11//13 12//13 9//13
f 12//14 10//14 9//14
f 13//15 15//15 14//15
f 2//16 15//16 1//16
f 14//17 15//17 2//17
f 16//18 14//18 2//18
f 2//19 4//19 17//19
f 16//20 2//20 17//20
f 6//21 17//21 4//21
f 6//22 18//22 17//22
f 13//23 19//23 15//23
f 13//24 20//24 19//24
f 8//25 1//25 19//25
f 1//26 15//26 19//26
f 18//27 6//27 10//27
f 21//28 18//28 10//28
f 22//29 19//29 20//29
f 23//30 24//30 22//30
f 24//31 11//31 22//31
f 22//32 11//32 19//32
f 19//33 11//33 8//33
f 24//34 25//34 11//34
f 11//35 25//35 26//35
f 11//36 26//36 12//36
f 12//37 21//37 10//37
f 12//38 26//38 21//38
f 27//39 24//39 23//39
f 27//40 25//40 24//40
f 13//41 14//41 28//41
f 14//42 29//42 28//42
f 30//43 29//43 14//43
f 16//44 30//44 14//44
f 30//45 32//45 31//45
f 17//46 32//46 30//46
f 16//47 17//47 30//47
f 32//48 17//48 18//48
f 33//49 28//49 34//49
f 13//50 28//50 33//50
f 20//51 13//51 33//51
f 28//52 29//52 34//52
f 31//53 32//53 35//53
f 18//54 35//54 32//54
f 36//55 35//55 18//55
f 21//56 36//56 18//56
f 37//57 20//57 33//57
f 37//58 22//58 20//58
f 22//59 37//59 23//59
f 37//60 38//60 23//60
f 39//61 26//61 40//61
f 26//62 25//62 40//62
f 26//63 36//63 21//63
f 26//64 39//64 36//64
f 41//65 23//65 38//65
f 41//66 27//66 23//66
f 27//67 40//67 25//67
f 27//68 41//68 40//68
f 29//69 30//69 42//69
f 42//70 30//70 31//70
f 33//71 34//71 43//71
f 42//72 34//72 29//72
f 43//73 34//73 42//73
f 44//74 43//74 42//74
f 45//75 31//75 35//75
f 42//76 31//76 45//76
f 44//77 42//77 45//77
f 45//78 35//78 36//78
f 37//79 33//79 43//79
f 43//80 38//80 37//80
f 46//81 38//81 43//81
f 44//82 46//82 43//82
f 46//83 39//83 40//83
f 45//84 39//84 46//84
f 44//85 45//85 46//85
f 45//86 36//86 39//86
f 41//87 38//87 46//87
f 46//88 40//88 41//88
f 47//89 49//89 48//89
f 50//90 48//90 49//90
f 51//91 49//91 47//91
f 51//92 50//92 49//92
f 52//93 54//93 53//93
f 55//94 53//94 54//94
f 56//95 54//95 52//95
f 48//96 57//96 47//96
f 58//97 57//97 48//97
f 56//98 55//98 54//98
f 50//99 58//99 48//99
f 50//100 59//100 58//100
f 60//101 47//101 57//101
f 60//102 51//102 47//102
f 51//103 59//103 50//103
f 51//104 60//104 59//104
f 61//105 63//105 62//105
f 64//106 62//106 63//106
f 65//107 63//107 61//107
f 65//108 64//108 63//108
f 52//109 53//109 66//109
f 66//110 53//110 55//110
f 56//111 52//111 66//111
f 66//112 55//112 56//112
f 57//113 58//113 67//113
f 67//114 58//114 59//114
f 60//115 57//115 67//115
f 67//116 59//116 60//116
f 68//117 70//117 69//117
f 71//118 69//118 70//118
f 72//119 70//119 68//119
f 72//120 71//120 70//120
f 61//121 62//121 73//121
f 73//122 62//122 64//122
f 65//123 61//123 73//123
f 73//124 64//124 65//124
f 74//125 76//125 75//125
f 74//126 78//126 77//126
f 75//127 78//127 74//127
f 78//128 79//128 77//128
f 74//129 80//129 76//129
f 77//130 80//130 74//130
f 81//131 80//131 77//131
f 79//132 81//132 77//132
f 82//133 84//133 83//133
f 85//134 83//134 84//134
f 86//135 84//135 82//135
f 86//136 85//136 84//136
f 68//137 69//137 87//137
f 87//138 69//138 71//138
f 72//139 68//139 87//139
f 87//140 71//140 72//140
f 88//141 90//141 89//141
f 91//142 90//142 92//142
f 91//143 89//143 90//143
f 93//144 91//144 92//144
f 94//145 96//145 95//145
f 96//146 88//146 95//146
f 90//147 88//147 96//147
f 97//148 90//148 96//148
f 98//149 92//149 90//149
f 97//150 98//150 90//150
f 92//151 99//151 93//151
f 92//152 98//152 99//152
f 94//153 100//153 96//153
f 94//154 101//154 100//154
f 102//155 97//155 96//155
f 100//156 102//156 96//156
f 103//157 98//157 97//157
f 102//158 103//158 97//158
f 98//159 104//159 99//159
f 98//160 103//160 104//160
f 105//161 100//161 101//161
f 105//162 102//162 100//162
f 105//163 106//163 102//163
f 106//164 103//164 102//164
f 106//165 107//165 103//165
f 107//166 104//166 103//166
f 75//167 109//167 108//167
f 76//168 109//168 75//168
f 78//169 75//169 110//169
f 75//170 108//170 110//170
f 110//171 79//171 78//171
f 111//172 79//172 110//172
f 76//173 112//173 109//173
f 80//174 112//174 76//174
f 81//175 113//175 80//175
f 80//176 113//176 112//176
f 111//177 81//177 79//177
f 113//178 81//178 111//178
f 82//179 83//179 114//179
f 114//180 83//180 85//180
f 86//181 82//181 114//181
f 114//182 85//182 86//182
f 88//183 89//183 115//183
f 116//184 89//184 91//184
f 116//185 115//185 89//185
f 116//186 91//186 93//186
f 94//187 95//187 117//187
f 117//188 95//188 118//188
f 95//189 88//189 118//189
f 118//190 88//190 119//190
f 119//191 88//191 115//191
f 115//192 116//192 119//192
f 116//193 120//193 119//193
f 93//194 120//194 116//194
f 121//195 120//195 93//195
f 99//196 121//196 93//196
f 101//197 117//197 122//197
f 101//198 94//198 117//198
f 118//199 123//199 117//199
f 123//200 122//200 117//200
f 124//201 126//201 125//201
f 121//202 126//202 124//202
f 104//203 126//203 121//203
f 99//204 104//204 121//204
f 105//205 101//205 122//205
f 127//206 122//206 123//206
f 105//207 122//207 127//207
f 106//208 105//208 127//208
f 107//209 125//209 126//209
f 127//210 125//210 107//210
f 106//211 127//211 107//211
f 126//212 104//212 107//212
f 108//213 109//213 128//213
f 129//214 108//214 128//214
f 129//215 130//215 108//215
f 130//216 110//216 108//216
f 130//217 111//217 110//217
f 131//218 111//218 130//218
f 109//219 112//219 128//219
f 128//220 132//220 129//220
f 128//221 112//221 132//221
f 112//222 113//222 132//222
f 131//223 113//223 111//223
f 132//224 113//224 131//224
f 118//225 119//225 133//225
f 134//226 119//226 120//226
f 134//227 133//227 119//227
f 134//228 120//228 121//228
f 123//229 133//229 135//229
f 123//230 118//230 133//230
f 135//231 124//231 125//231
f 134//232 124//232 135//232
f 133//233 134//233 135//233
f 134//234 121//234 124//234
f 127//235 123//235 135//235
f 135//236 125//236 127//236
f 130//237 129//237 136//237
f 130//238 136//238 131//238
f 129//239 132//239 136//239
f 131//240 136//240 132//240

# Thankyou for using Spin3D

