# Created using Spin3D

# Vertex Array
v 19.569 -46.838 19.743
v 19.565 -46.838 19.740
v 19.569 -46.838 19.741
v 19.566 -46.839 19.740
v 19.574 -46.840 19.748
v 19.570 -46.839 19.745
v 19.572 -46.839 19.746
v 19.571 -46.838 19.743
v 19.569 -46.838 19.740
v 19.574 -46.839 19.747
v 19.574 -46.839 19.744
v 19.568 -46.839 19.741
v 19.573 -46.839 19.744
v 19.570 -46.839 19.742
v 27.042 -21.668 15.637
v 27.038 -21.816 15.644
v 27.035 -22.076 15.670
v 27.039 -21.631 15.633
v 27.039 -21.764 15.648
v 27.051 -21.096 15.586
v 27.050 -20.985 15.575
v 27.054 -20.623 15.548
v 27.049 -21.147 15.599
v 27.061 -20.259 15.525
v 27.053 -20.700 15.560
v 27.062 -20.130 15.517
v 27.072 -19.566 15.463
v 27.067 -19.836 15.482
v 27.076 -19.067 15.422
v 27.086 -18.537 15.383
v 27.074 -19.221 15.440
v 27.081 -18.735 15.403
v 1.028 -16.956 28.690
v 2.573 -16.111 30.034
v 3.389 -16.974 28.493
v 5.909 -15.926 30.862
v 7.014 -16.979 29.003
v 9.187 -16.169 30.237
v 9.941 -17.066 28.889
v 11.787 -16.357 29.520
v 11.976 -16.971 28.512
v 13.390 -16.373 28.582
v -3.533 -15.624 26.006
v -2.370 -16.118 27.423
v -1.924 -16.639 26.237
v -0.827 -16.744 28.007
v 0.327 -17.059 27.003
v 2.092 -16.688 26.122
v 5.314 -16.833 27.174
v 8.393 -17.056 27.642
v 10.970 -17.030 27.565
v 13.286 -16.561 27.252
v -3.031 -16.039 24.693
v -4.481 -14.829 24.193
v -1.041 -16.234 24.557
v 3.885 -15.431 25.529
v 1.105 -15.712 24.548
v 7.306 -16.028 26.357
v 9.772 -16.504 26.640
v 12.135 -16.171 26.051
v 16.773 -15.590 22.320
v 15.668 -14.949 22.775
v 16.189 -15.741 23.105
v 16.656 -15.816 23.167
v -3.233 -15.369 23.270
v -4.345 -14.314 22.784
v -0.582 -14.861 23.346
v -2.153 -15.108 22.836
v 16.829 -15.075 21.747
v 16.572 -14.414 21.684
v 17.284 -15.553 22.563
v 17.409 -15.171 21.844
v 17.728 -14.873 22.652
v -3.365 -14.208 22.265
v 17.291 -14.488 21.456
v 17.758 -14.488 21.823
v 27.086 -18.531 15.377
v 27.103 -17.383 15.286
v 27.104 -17.210 15.269
v 27.099 -17.452 15.292
v 27.105 -17.142 15.270
v 5.799 -15.195 32.184
v 6.273 -14.971 32.586
v 6.639 -15.152 32.191
v 6.832 -14.498 32.337
v -3.204 -14.637 27.668
v -1.803 -13.413 29.192
v -1.334 -15.490 28.819
v 0.971 -14.443 30.187
v 0.331 -16.223 29.331
v 4.430 -14.648 31.415
v 8.517 -14.474 31.445
v 11.636 -14.901 30.352
v 13.850 -15.307 29.241
v 15.241 -15.526 27.464
v 15.722 -14.264 28.485
v -4.833 -13.892 25.976
v 15.277 -15.745 24.807
v 16.744 -14.465 27.207
v 16.849 -14.965 25.670
v 17.452 -13.992 26.188
v -5.865 -12.516 24.277
v -5.794 -12.916 25.273
v -5.521 -13.638 24.493
v 3.569 -13.188 25.361
v 1.421 -14.152 24.244
v 6.542 -14.045 25.839
v 9.989 -14.907 25.667
v 11.868 -13.256 24.836
v 13.217 -14.872 24.480
v 17.113 -15.342 23.770
v 17.720 -14.151 24.337
v -5.245 -13.456 23.341
v -5.382 -11.962 23.317
v -0.474 -13.102 23.266
v -2.034 -13.781 22.420
v 14.162 -13.513 23.483
v 15.825 -13.569 22.261
v 17.912 -13.840 22.663
v -4.442 -12.875 22.391
v -3.210 -12.906 22.113
v 16.887 -13.596 21.628
v 17.601 -13.678 21.782
v 30.154 -13.242 18.192
v 30.155 -13.242 18.193
v 30.155 -13.243 18.192
v 30.156 -13.242 18.192
v 27.120 -16.141 15.184
v 27.119 -16.156 15.184
v 27.119 -16.139 15.187
v 30.155 -13.242 18.191
v 27.120 -16.124 15.186
v 5.993 -14.542 32.330
v -4.001 -12.245 27.809
v -2.269 -11.549 29.258
v 0.093 -11.792 29.895
v 3.385 -12.601 30.772
v 6.842 -12.958 31.531
v 9.226 -12.826 31.282
v 11.560 -12.858 30.449
v 14.061 -13.732 29.606
v 15.777 -13.087 28.597
v -5.857 -11.806 25.462
v -5.246 -11.390 26.633
v -5.427 -12.459 26.301
v 16.904 -13.445 27.451
v 17.428 -13.022 25.840
v -5.726 -11.193 24.520
v 2.972 -11.724 25.916
v 1.089 -12.011 24.764
v 5.460 -11.760 26.646
v 9.054 -12.620 26.019
v 11.505 -11.618 25.784
v 17.653 -12.911 23.959
v -4.691 -11.410 22.778
v -4.992 -10.519 23.940
v -4.151 -10.541 23.179
v -0.610 -11.738 23.693
v -2.037 -11.906 22.885
v 13.234 -12.269 24.344
v 16.308 -12.753 22.222
v 14.997 -12.287 23.393
v 16.249 -12.104 23.015
v 17.658 -12.974 22.599
v -3.683 -11.588 22.489
v 17.099 -12.765 22.191
v 30.155 -13.241 18.192
v 27.125 -15.710 15.149
v -3.161 -10.570 28.651
v -1.685 -10.235 29.253
v -1.452 -9.284 28.619
v 0.091 -10.080 28.983
v 2.679 -10.927 29.529
v 5.636 -11.199 30.353
v 7.840 -10.978 30.648
v 9.728 -11.390 30.563
v 10.619 -10.251 29.222
v 12.363 -11.204 29.108
v 14.374 -12.245 28.938
v -5.400 -10.624 25.768
v -4.269 -10.249 27.277
v -0.521 -9.284 27.945
v -0.777 -9.286 26.710
v 1.706 -10.440 27.165
v 5.365 -10.639 28.630
v 7.739 -10.314 29.587
v 12.252 -10.702 27.203
v 10.363 -10.042 28.412
v 14.734 -11.392 27.238
v 16.281 -12.341 27.385
v -5.374 -10.327 24.906
v -4.516 -9.690 25.604
v -1.950 -9.052 25.929
v -2.625 -9.393 24.816
v -1.026 -10.309 24.819
v 8.926 -10.679 27.726
v 13.505 -11.429 25.009
v 15.202 -11.474 24.876
v 16.639 -12.002 25.450
v -2.954 -10.373 23.539
v -3.834 -9.668 24.370
v 16.958 -12.183 23.513
v -2.792 -9.451 28.277
v 9.117 -10.253 30.022
v -3.470 -9.153 27.019
v -2.063 -8.881 27.351
v 9.402 -9.954 29.127
v -3.151 -8.991 25.873

# Normal Array
vn 0.012 0.986 0.166
vn 0.228 0.343 -0.911
vn -0.679 0.326 0.658
vn -0.650 0.101 0.753
vn -0.048 0.986 0.161
vn -0.488 0.782 0.387
vn -0.196 0.956 -0.217
vn 0.031 0.994 -0.107
vn -0.515 0.551 0.657
vn -0.209 0.910 0.358
vn 0.493 0.868 -0.055
vn 0.559 0.733 -0.388
vn -0.624 -0.487 0.611
vn -0.591 -0.691 0.416
vn -0.007 -0.988 -0.155
vn -0.740 -0.277 0.613
vn -0.005 -0.993 -0.120
vn -0.281 -0.891 0.356
vn 0.207 -0.771 -0.603
vn -0.230 -0.970 0.085
vn 0.958 -0.140 -0.249
vn 0.373 -0.926 0.059
vn 0.262 -0.948 -0.182
vn 0.488 -0.605 -0.629
vn 0.960 -0.039 -0.276
vn -0.975 -0.010 -0.224
vn 0.918 0.015 0.397
vn -0.917 0.041 0.397
vn 0.658 -0.072 -0.749
vn 0.956 -0.040 -0.290
vn -0.919 -0.020 -0.393
vn -0.924 -0.019 -0.383
vn 0.890 0.022 0.455
vn 0.998 -0.008 0.065
vn 0.991 -0.002 0.136
vn -0.667 0.070 0.742
vn -0.863 0.053 0.502
vn -0.995 0.023 0.098
vn 0.911 0.022 0.412
vn -0.865 0.051 0.499
vn 0.897 -0.049 -0.439
vn 0.707 -0.067 -0.704
vn -0.841 -0.031 -0.540
vn -0.797 -0.037 -0.602
vn 0.982 0.002 0.190
vn 0.981 0.002 0.196
vn -0.996 0.021 0.089
vn -0.999 0.016 0.028
vn 0.872 0.028 0.489
vn 0.899 0.023 0.438
vn -0.977 0.031 0.209
vn -0.959 0.036 0.281
vn 0.035 -0.864 0.502
vn -0.066 -0.885 0.462
vn -0.065 -0.885 0.461
vn -0.003 -0.833 0.553
vn 0.033 -0.861 0.507
vn 0.138 -0.834 0.534
vn 0.105 -0.800 0.591
vn 0.306 -0.786 0.537
vn -0.543 -0.825 0.158
vn -0.206 -0.976 0.070
vn -0.437 -0.872 0.219
vn -0.158 -0.979 0.126
vn -0.003 -0.998 0.062
vn 0.115 -0.977 -0.181
vn 0.011 -0.996 -0.090
vn -0.007 -0.993 -0.116
vn -0.029 -0.999 0.028
vn -0.070 -0.997 -0.014
vn 0.049 -0.999 0.010
vn 0.010 -1.000 -0.020
vn 0.384 -0.918 0.100
vn 0.180 -0.975 -0.130
vn -0.539 -0.840 0.059
vn -0.640 -0.768 -0.002
vn -0.085 -0.958 -0.275
vn -0.113 -0.951 -0.289
vn 0.295 -0.718 -0.630
vn 0.187 -0.778 -0.599
vn 0.031 -0.942 -0.335
vn 0.210 -0.646 -0.734
vn 0.030 -0.748 -0.663
vn 0.043 -0.762 -0.646
vn -0.091 -0.814 -0.574
vn -0.006 -0.873 -0.488
vn -0.000 -0.870 -0.493
vn -0.577 -0.607 -0.546
vn 0.126 -0.901 -0.414
vn -0.117 -0.955 -0.271
vn -0.552 -0.782 -0.289
vn -0.570 -0.752 -0.330
vn 0.320 -0.685 -0.655
vn -0.014 -0.841 -0.541
vn -0.117 -0.905 -0.409
vn 0.163 -0.683 -0.712
vn -0.574 -0.580 -0.577
vn -0.648 -0.318 -0.692
vn 0.178 -0.957 -0.231
vn 0.261 -0.870 -0.418
vn -0.011 -0.743 -0.669
vn 0.838 -0.529 -0.136
vn -0.303 -0.643 -0.704
vn -0.138 -0.657 -0.741
vn -0.314 -0.211 -0.926
vn 0.066 -0.485 -0.872
vn 0.585 -0.322 -0.744
vn 0.874 -0.452 -0.178
vn 0.888 -0.050 -0.458
vn -0.718 -0.046 -0.694
vn 0.898 -0.048 -0.438
vn 0.930 -0.043 -0.365
vn 0.973 0.005 0.229
vn -0.603 -0.056 -0.796
vn -0.938 -0.014 -0.347
vn -0.999 0.018 0.044
vn 0.949 0.012 0.315
vn 0.878 0.027 0.477
vn -0.982 0.030 0.185
vn -0.949 0.040 0.312
vn 0.042 -0.893 0.448
vn 0.607 -0.340 0.718
vn -0.591 -0.270 0.760
vn -0.393 -0.280 0.876
vn -0.408 -0.250 0.878
vn -0.169 -0.735 0.656
vn -0.266 -0.338 0.903
vn -0.328 -0.394 0.859
vn 0.041 -0.873 0.486
vn -0.519 -0.765 0.380
vn -0.172 -0.552 0.816
vn 0.447 -0.319 0.836
vn 0.421 -0.865 0.273
vn 0.118 -0.545 0.830
vn 0.203 -0.470 0.859
vn 0.223 -0.506 0.833
vn 0.597 -0.592 0.541
vn 0.399 -0.601 0.692
vn 0.337 -0.441 0.832
vn 0.566 -0.638 0.522
vn -0.608 -0.451 0.654
vn -0.748 -0.495 0.442
vn -0.716 -0.529 0.456
vn -0.485 -0.605 0.632
vn -0.465 -0.606 0.645
vn -0.295 -0.773 0.562
vn 0.460 -0.885 0.079
vn 0.458 -0.884 0.089
vn 0.546 -0.643 0.537
vn 0.585 -0.759 0.287
vn 0.407 -0.910 0.080
vn 0.758 -0.603 0.248
vn -0.952 -0.302 -0.054
vn -0.775 -0.575 0.261
vn -0.709 -0.673 0.214
vn -0.791 -0.591 0.155
vn 0.462 -0.002 -0.887
vn 0.345 -0.246 -0.906
vn 0.203 -0.173 -0.964
vn 0.144 -0.054 -0.988
vn -0.002 -0.520 -0.854
vn -0.121 -0.294 -0.948
vn -0.343 -0.081 -0.936
vn -0.256 -0.651 -0.715
vn -0.142 -0.501 -0.854
vn 0.005 -0.950 -0.313
vn -0.183 -0.692 -0.698
vn -0.695 -0.613 -0.374
vn -0.304 -0.866 -0.398
vn -0.147 -0.986 -0.082
vn 0.392 -0.844 0.366
vn 0.330 -0.916 0.227
vn 0.796 -0.582 0.165
vn 0.823 -0.524 0.218
vn -0.905 -0.329 -0.269
vn -0.869 -0.088 -0.487
vn -0.748 -0.596 -0.290
vn -0.758 -0.592 -0.275
vn 0.499 -0.070 -0.864
vn 0.337 -0.309 -0.889
vn 0.470 -0.260 -0.843
vn 0.428 -0.067 -0.901
vn -0.512 -0.247 -0.822
vn -0.564 -0.196 -0.802
vn -0.582 -0.225 -0.782
vn -0.716 -0.171 -0.677
vn 0.548 -0.807 0.220
vn 0.806 -0.553 0.212
vn 0.818 -0.527 0.230
vn 0.981 -0.176 0.080
vn -0.737 -0.078 -0.671
vn -0.665 -0.238 -0.708
vn -0.428 -0.265 -0.864
vn -0.222 -0.088 -0.971
vn 0.207 -0.310 -0.928
vn 0.156 -0.133 -0.979
vn -0.504 0.137 -0.853
vn -0.296 0.050 -0.954
vn 0.616 0.079 -0.784
vn 0.233 0.284 -0.930
vn 0.984 -0.175 -0.045
vn 0.939 0.167 -0.300
vn -0.563 -0.695 0.447
vn 0.563 -0.695 0.447
vn 0.253 -0.081 -0.964
vn 0.876 -0.052 -0.480
vn -0.935 -0.015 -0.354
vn -0.991 0.004 -0.131
vn -0.568 -0.501 -0.652
vn 0.568 -0.501 -0.652
vn 0.992 -0.004 0.124
vn 0.942 0.014 0.335
vn -0.936 0.042 0.349
vn -0.300 0.084 0.950
vn -0.654 0.024 0.756
vn -0.034 0.497 0.867
vn -0.589 -0.175 0.789
vn -0.607 -0.246 0.756
vn -0.341 -0.010 0.940
vn -0.269 -0.101 0.958
vn -0.325 0.128 0.937
vn -0.252 0.023 0.967
vn -0.503 -0.044 0.863
vn -0.440 0.582 0.684
vn -0.190 0.205 0.960
vn -0.032 0.464 0.885
vn 0.420 0.419 0.805
vn 0.100 0.055 0.993
vn 0.327 -0.033 0.945
vn 0.335 -0.051 0.941
vn 0.395 -0.257 0.882
vn 0.309 -0.034 0.951
vn 0.482 -0.259 0.837
vn 0.533 -0.105 0.840
vn -0.888 0.007 0.461
vn -0.717 -0.093 0.691
vn -0.633 -0.411 0.656
vn -0.750 -0.285 0.596
vn 0.694 -0.100 0.713
vn 0.732 -0.266 0.627
vn 0.845 -0.247 0.474
vn 0.929 0.146 0.340
vn -0.918 -0.117 0.380
vn -0.997 -0.064 0.044
vn -0.991 0.115 -0.063
vn -0.775 -0.427 0.467
vn 0.409 0.465 -0.785
vn 0.345 0.272 -0.898
vn 0.263 0.429 -0.864
vn 0.259 0.433 -0.863
vn -0.013 0.147 -0.989
vn -0.097 0.290 -0.952
vn -0.391 -0.019 -0.920
vn -0.262 0.440 -0.859
vn 0.988 0.074 0.136
vn 0.988 0.091 0.124
vn -0.743 0.424 -0.518
vn -0.767 0.417 -0.487
vn -0.916 0.163 -0.366
vn -0.526 0.604 -0.599
vn 0.441 0.308 -0.843
vn 0.388 0.222 -0.894
vn 0.557 0.277 -0.783
vn 0.543 0.300 -0.784
vn -0.524 0.337 -0.782
vn -0.474 0.234 -0.849
vn -0.573 0.303 -0.762
vn -0.554 0.321 -0.768
vn -0.458 0.249 -0.853
vn -0.293 0.729 -0.618
vn 0.987 0.093 0.130
vn 0.960 0.281 -0.010
vn -0.655 0.087 -0.751
vn -0.158 0.494 -0.855
vn -0.235 0.210 -0.949
vn -0.211 0.197 -0.957
vn 0.397 0.221 -0.890
vn 0.283 0.356 -0.891
vn -0.491 0.250 -0.835
vn -0.012 0.774 -0.634
vn -0.023 0.565 -0.825
vn 0.237 0.503 -0.831
vn 0.927 0.251 -0.280
vn 0.611 0.578 -0.540
vn -0.583 0.472 0.661
vn 0.583 0.472 0.661
vn 0.228 -0.080 -0.970
vn -0.583 0.661 -0.472
vn -0.992 0.004 -0.126
vn 0.583 0.661 -0.472
vn 0.993 -0.003 0.116
vn -0.354 0.086 0.931
vn -0.407 0.184 0.895
vn -0.620 -0.081 0.780
vn 0.080 0.539 0.838
vn 0.093 0.468 0.879
vn -0.248 0.114 0.962
vn -0.076 0.573 0.816
vn -0.032 0.470 0.882
vn -0.140 0.483 0.865
vn -0.181 0.536 0.825
vn -0.163 0.469 0.868
vn 0.119 0.354 0.928
vn 0.070 0.427 0.901
vn 0.363 0.577 0.732
vn 0.408 0.447 0.796
vn 0.321 0.332 0.887
vn 0.398 0.305 0.865
vn 0.325 0.496 0.806
vn 0.394 0.306 0.866
vn -0.892 0.247 0.378
vn -0.780 0.393 0.487
vn -0.638 0.117 0.761
vn -0.769 0.066 0.636
vn 0.324 0.833 0.448
vn 0.434 0.897 -0.091
vn 0.521 0.798 0.305
vn 0.296 0.952 0.074
vn 0.001 0.951 0.309
vn -0.033 0.976 0.215
vn -0.155 0.831 0.534
vn -0.259 0.906 0.335
vn 0.480 0.855 0.197
vn 0.390 0.914 0.111
vn 0.436 0.764 0.476
vn 0.258 0.938 0.232
vn 0.707 0.432 0.560
vn 0.515 0.618 0.594
vn 0.426 0.769 0.476
vn 0.795 0.471 0.382
vn -0.936 0.341 0.088
vn -0.937 0.338 0.090
vn -0.658 0.680 0.324
vn -0.690 0.691 0.217
vn 0.433 0.754 -0.494
vn 0.462 0.753 -0.468
vn 0.441 0.764 -0.471
vn 0.511 0.653 -0.559
vn 0.231 0.786 -0.574
vn 0.189 0.774 -0.604
vn 0.234 0.851 -0.470
vn -0.045 0.975 -0.220
vn -0.115 0.862 -0.493
vn 0.027 0.661 -0.750
vn -0.249 0.868 -0.430
vn -0.075 0.855 -0.513
vn -0.320 0.614 -0.722
vn -0.085 0.813 -0.576
vn 0.268 0.963 0.020
vn 0.001 0.949 -0.314
vn 0.491 0.838 0.237
vn 0.333 0.942 0.033
vn 0.760 0.637 0.129
vn 0.719 0.650 0.247
vn -0.771 0.493 -0.403
vn 0.069 0.796 -0.602
vn -0.403 0.786 -0.469
vn -0.505 0.821 -0.265
vn -0.381 0.867 -0.323
vn 0.048 0.786 -0.616
vn 0.390 0.679 -0.622
vn 0.444 0.563 -0.697
vn 0.320 0.642 -0.697
vn 0.486 0.623 -0.613
vn -0.328 0.649 -0.687
vn -0.357 0.648 -0.673
vn -0.014 0.878 -0.479
vn -0.258 0.862 -0.437
vn 0.238 0.953 -0.189
vn 0.355 0.934 -0.028
vn 0.732 0.681 -0.030
vn 0.706 0.706 0.051
vn 0.155 0.591 -0.791
vn 0.293 0.518 -0.803
vn 0.341 0.873 -0.348
vn 0.518 0.802 -0.298
vn -0.423 0.410 0.808
vn -0.269 0.579 0.770
vn 0.145 0.488 0.861
vn 0.389 0.558 0.733
vn -0.647 0.587 0.487
vn -0.654 0.425 0.626
vn 0.164 0.960 0.226
vn -0.211 0.898 0.386
vn -0.257 0.900 0.351
vn 0.273 0.960 -0.058
vn -0.130 0.952 0.277
vn -0.205 0.821 0.533
vn 0.220 0.959 0.177
vn 0.193 0.910 0.366
vn -0.456 0.890 -0.001
vn -0.731 0.607 0.311
vn 0.063 0.943 -0.327
vn 0.056 0.992 -0.114
vn -0.208 0.975 0.080
vn 0.255 0.962 -0.095
vn -0.291 0.886 -0.360
vn -0.210 0.896 -0.392
vn -0.412 0.886 -0.212
vn -0.068 0.921 -0.384

# Facets
f 1//1 3//1 2//1
f 4//2 2//2 3//2
f 5//3 7//3 6//3
f 7//4 1//4 6//4
f 3//5 1//5 7//5
f 8//6 3//6 7//6
f 3//7 9//7 4//7
f 3//8 8//8 9//8
f 10//9 7//9 5//9
f 10//10 8//10 7//10
f 10//11 11//11 8//11
f 11//12 9//12 8//12
f 1//13 2//13 12//13
f 12//14 2//14 4//14
f 5//15 6//15 13//15
f 12//16 6//16 1//16
f 13//17 6//17 12//17
f 14//18 13//18 12//18
f 14//19 4//19 9//19
f 14//20 12//20 4//20
f 10//21 5//21 13//21
f 13//22 11//22 10//22
f 13//23 14//23 11//23
f 14//24 9//24 11//24
f 15//25 17//25 16//25
f 18//26 16//26 17//26
f 19//27 17//27 15//27
f 19//28 18//28 17//28
f 20//29 16//29 21//29
f 20//30 15//30 16//30
f 18//31 21//31 16//31
f 18//32 22//32 21//32
f 15//33 23//33 19//33
f 24//34 23//34 15//34
f 20//35 24//35 15//35
f 25//36 19//36 23//36
f 18//37 19//37 25//37
f 22//38 18//38 25//38
f 26//39 23//39 24//39
f 26//40 25//40 23//40
f 27//41 21//41 28//41
f 27//42 20//42 21//42
f 22//43 28//43 21//43
f 22//44 29//44 28//44
f 24//45 20//45 27//45
f 24//46 27//46 30//46
f 29//47 22//47 25//47
f 31//48 29//48 25//48
f 32//49 24//49 30//49
f 32//50 26//50 24//50
f 26//51 31//51 25//51
f 26//52 32//52 31//52
f 33//53 35//53 34//53
f 36//54 35//54 37//54
f 36//55 34//55 35//55
f 38//56 37//56 39//56
f 38//57 36//57 37//57
f 40//58 39//58 41//58
f 40//59 38//59 39//59
f 42//60 40//60 41//60
f 43//61 45//61 44//61
f 46//62 45//62 47//62
f 46//63 44//63 45//63
f 47//64 33//64 46//64
f 35//65 33//65 47//65
f 48//66 35//66 47//66
f 49//67 37//67 35//67
f 48//68 49//68 35//68
f 50//69 39//69 37//69
f 49//70 50//70 37//70
f 51//71 41//71 39//71
f 50//72 51//72 39//72
f 41//73 52//73 42//73
f 41//74 51//74 52//74
f 43//75 53//75 45//75
f 43//76 54//76 53//76
f 55//77 47//77 45//77
f 53//78 55//78 45//78
f 48//79 57//79 56//79
f 55//80 57//80 48//80
f 47//81 55//81 48//81
f 56//82 49//82 48//82
f 56//83 58//83 49//83
f 58//84 50//84 49//84
f 58//85 59//85 50//85
f 59//86 51//86 50//86
f 59//87 60//87 51//87
f 61//88 63//88 62//88
f 60//89 52//89 51//89
f 64//90 63//90 61//90
f 54//91 65//91 53//91
f 54//92 66//92 65//92
f 55//93 68//93 67//93
f 65//94 68//94 55//94
f 53//95 65//95 55//95
f 67//96 57//96 55//96
f 62//97 69//97 61//97
f 62//98 70//98 69//98
f 61//99 71//99 64//99
f 72//100 71//100 61//100
f 69//101 72//101 61//101
f 73//102 71//102 72//102
f 74//103 65//103 66//103
f 74//104 68//104 65//104
f 75//105 69//105 70//105
f 75//106 72//106 69//106
f 75//107 76//107 72//107
f 76//108 73//108 72//108
f 27//109 28//109 77//109
f 77//110 28//110 29//110
f 78//111 77//111 79//111
f 27//112 77//112 78//112
f 30//113 27//113 78//113
f 29//114 79//114 77//114
f 80//115 79//115 29//115
f 31//116 80//116 29//116
f 81//117 30//117 78//117
f 81//118 32//118 30//118
f 32//119 80//119 31//119
f 32//120 81//120 80//120
f 82//121 84//121 83//121
f 85//122 83//122 84//122
f 86//123 88//123 87//123
f 89//124 88//124 90//124
f 89//125 87//125 88//125
f 34//126 90//126 33//126
f 89//127 90//127 34//127
f 91//128 89//128 34//128
f 84//129 82//129 36//129
f 36//130 82//130 91//130
f 36//131 91//131 34//131
f 85//132 84//132 92//132
f 92//133 84//133 36//133
f 92//134 36//134 38//134
f 38//135 40//135 93//135
f 92//136 38//136 93//136
f 94//137 42//137 95//137
f 40//138 42//138 94//138
f 93//139 40//139 94//139
f 96//140 94//140 95//140
f 86//141 44//141 88//141
f 43//142 44//142 86//142
f 97//143 43//143 86//143
f 44//144 46//144 88//144
f 46//145 90//145 88//145
f 46//146 33//146 90//146
f 98//147 95//147 52//147
f 95//148 42//148 52//148
f 95//149 99//149 96//149
f 100//150 99//150 95//150
f 98//151 100//151 95//151
f 101//152 99//152 100//152
f 102//153 104//153 103//153
f 103//154 104//154 97//154
f 97//155 104//155 54//155
f 97//156 54//156 43//156
f 105//157 56//157 106//157
f 56//158 57//158 106//158
f 107//159 58//159 56//159
f 107//160 56//160 105//160
f 108//161 59//161 58//161
f 108//162 58//162 107//162
f 109//163 110//163 108//163
f 108//164 110//164 60//164
f 108//165 60//165 59//165
f 52//166 60//166 98//166
f 98//167 60//167 110//167
f 62//168 63//168 98//168
f 110//169 62//169 98//169
f 63//170 64//170 98//170
f 98//171 64//171 111//171
f 98//172 111//172 100//172
f 100//173 112//173 101//173
f 100//174 111//174 112//174
f 102//175 113//175 104//175
f 102//176 114//176 113//176
f 66//177 54//177 113//177
f 54//178 104//178 113//178
f 115//179 67//179 116//179
f 67//180 68//180 116//180
f 67//181 106//181 57//181
f 67//182 115//182 106//182
f 117//183 110//183 109//183
f 110//184 117//184 62//184
f 62//185 117//185 118//185
f 62//186 118//186 70//186
f 111//187 64//187 71//187
f 73//188 111//188 71//188
f 112//189 111//189 73//189
f 119//190 112//190 73//190
f 120//191 113//191 114//191
f 120//192 66//192 113//192
f 74//193 66//193 120//193
f 121//194 74//194 120//194
f 74//195 116//195 68//195
f 74//196 121//196 116//196
f 122//197 70//197 118//197
f 122//198 75//198 70//198
f 123//199 76//199 75//199
f 123//200 75//200 122//200
f 76//201 119//201 73//201
f 76//202 123//202 119//202
f 124//203 126//203 125//203
f 127//204 125//204 126//204
f 128//205 79//205 129//205
f 128//206 78//206 79//206
f 80//207 129//207 79//207
f 130//208 129//208 80//208
f 124//209 131//209 126//209
f 131//210 127//210 126//210
f 132//211 78//211 128//211
f 132//212 81//212 78//212
f 81//213 130//213 80//213
f 81//214 132//214 130//214
f 82//215 83//215 133//215
f 133//216 83//216 85//216
f 134//217 87//217 135//217
f 134//218 86//218 87//218
f 87//219 89//219 136//219
f 135//220 87//220 136//220
f 89//221 91//221 137//221
f 136//222 89//222 137//222
f 82//223 133//223 91//223
f 91//224 133//224 138//224
f 91//225 138//225 137//225
f 133//226 85//226 138//226
f 138//227 85//227 92//227
f 138//228 92//228 139//228
f 92//229 93//229 140//229
f 139//230 92//230 140//230
f 93//231 94//231 141//231
f 140//232 93//232 141//232
f 96//233 141//233 94//233
f 96//234 142//234 141//234
f 143//235 145//235 144//235
f 144//236 145//236 134//236
f 134//237 145//237 97//237
f 134//238 97//238 86//238
f 142//239 96//239 146//239
f 96//240 99//240 146//240
f 101//241 146//241 99//241
f 101//242 147//242 146//242
f 143//243 103//243 145//243
f 102//244 103//244 143//244
f 148//245 102//245 143//245
f 103//246 97//246 145//246
f 149//247 105//247 150//247
f 105//248 106//248 150//248
f 151//249 107//249 105//249
f 151//250 105//250 149//250
f 152//251 108//251 107//251
f 152//252 107//252 151//252
f 108//253 152//253 109//253
f 152//254 153//254 109//254
f 147//255 101//255 112//255
f 154//256 147//256 112//256
f 114//257 156//257 155//257
f 148//258 156//258 114//258
f 102//259 148//259 114//259
f 155//260 156//260 157//260
f 158//261 115//261 159//261
f 115//262 116//262 159//262
f 115//263 150//263 106//263
f 115//264 158//264 150//264
f 160//265 109//265 153//265
f 160//266 117//266 109//266
f 161//267 118//267 162//267
f 162//268 118//268 117//268
f 162//269 117//269 160//269
f 161//270 162//270 163//270
f 154//271 112//271 119//271
f 164//272 154//272 119//272
f 120//273 114//273 155//273
f 165//274 155//274 157//274
f 120//275 155//275 165//275
f 121//276 120//276 165//276
f 121//277 159//277 116//277
f 121//278 165//278 159//278
f 122//279 118//279 161//279
f 166//280 161//280 163//280
f 122//281 161//281 166//281
f 123//282 122//282 166//282
f 123//283 164//283 119//283
f 123//284 166//284 164//284
f 124//285 125//285 167//285
f 167//286 125//286 127//286
f 128//287 129//287 168//287
f 167//288 131//288 124//288
f 129//289 130//289 168//289
f 167//290 127//290 131//290
f 132//291 128//291 168//291
f 168//292 130//292 132//292
f 169//293 135//293 170//293
f 169//294 134//294 135//294
f 170//295 172//295 171//295
f 136//296 172//296 170//296
f 135//297 136//297 170//297
f 173//298 136//298 137//298
f 173//299 172//299 136//299
f 174//300 137//300 138//300
f 174//301 173//301 137//301
f 138//302 175//302 174//302
f 176//303 175//303 138//303
f 139//304 176//304 138//304
f 176//305 178//305 177//305
f 140//306 178//306 176//306
f 139//307 140//307 176//307
f 179//308 140//308 141//308
f 179//309 178//309 140//309
f 179//310 141//310 142//310
f 143//311 144//311 180//311
f 180//312 144//312 181//312
f 181//313 144//313 134//313
f 181//314 134//314 169//314
f 171//315 172//315 182//315
f 183//316 182//316 184//316
f 184//317 182//317 172//317
f 184//318 172//318 173//318
f 173//319 174//319 185//319
f 173//320 185//320 184//320
f 175//321 186//321 174//321
f 186//322 185//322 174//322
f 178//323 187//323 177//323
f 187//324 188//324 177//324
f 178//325 179//325 189//325
f 178//326 189//326 187//326
f 190//327 142//327 146//327
f 179//328 142//328 190//328
f 189//329 179//329 190//329
f 190//330 146//330 147//330
f 148//331 180//331 191//331
f 148//332 143//332 180//332
f 181//333 192//333 180//333
f 192//334 191//334 180//334
f 193//335 195//335 194//335
f 193//336 183//336 195//336
f 183//337 184//337 195//337
f 195//338 184//338 150//338
f 150//339 184//339 149//339
f 184//340 151//340 149//340
f 184//341 185//341 151//341
f 196//342 185//342 186//342
f 151//343 185//343 196//343
f 152//344 151//344 196//344
f 197//345 153//345 187//345
f 187//346 153//346 196//346
f 196//347 153//347 152//347
f 187//348 196//348 188//348
f 187//349 189//349 198//349
f 187//350 198//350 197//350
f 189//351 190//351 199//351
f 189//352 199//352 198//352
f 199//353 147//353 154//353
f 199//354 190//354 147//354
f 156//355 148//355 191//355
f 200//356 157//356 201//356
f 157//357 156//357 201//357
f 201//358 156//358 192//358
f 192//359 156//359 191//359
f 201//360 194//360 200//360
f 194//361 195//361 200//361
f 200//362 195//362 159//362
f 159//363 195//363 158//363
f 195//364 150//364 158//364
f 160//365 153//365 197//365
f 197//366 162//366 160//366
f 197//367 198//367 162//367
f 198//368 163//368 162//368
f 202//369 163//369 198//369
f 199//370 202//370 198//370
f 202//371 154//371 164//371
f 202//372 199//372 154//372
f 165//373 157//373 200//373
f 200//374 159//374 165//374
f 166//375 163//375 202//375
f 202//376 164//376 166//376
f 169//377 170//377 203//377
f 203//378 170//378 171//378
f 175//379 176//379 204//379
f 204//380 176//380 177//380
f 181//381 203//381 205//381
f 181//382 169//382 203//382
f 206//383 171//383 182//383
f 203//384 171//384 206//384
f 205//385 203//385 206//385
f 206//386 182//386 183//386
f 186//387 204//387 207//387
f 186//388 175//388 204//388
f 207//389 177//389 188//389
f 207//390 204//390 177//390
f 192//391 205//391 208//391
f 192//392 181//392 205//392
f 208//393 193//393 194//393
f 206//394 193//394 208//394
f 205//395 206//395 208//395
f 206//396 183//396 193//396
f 196//397 186//397 207//397
f 207//398 188//398 196//398
f 201//399 192//399 208//399
f 208//400 194//400 201//400

# Thankyou for using Spin3D

