# Created using Spin3D

# Vertex Array
v 20.653 -46.974 20.224
v 20.672 -46.974 20.231
v 20.597 -46.967 20.196
v 20.714 -46.980 20.257
v 20.728 -46.980 20.261
v 20.753 -46.982 20.275
v 20.554 -46.965 20.178
v 20.540 -46.962 20.172
v 20.514 -46.960 20.161
v 20.615 -46.971 20.211
v 20.671 -46.975 20.240
v 20.727 -46.980 20.264
v 20.540 -46.963 20.175
v 20.595 -46.969 20.205
v 20.617 -46.968 20.207
v 20.714 -46.977 20.254
v 20.553 -46.963 20.182
v 20.651 -46.972 20.229
v -35.634 -2.972 -10.994
v -35.635 -2.971 -10.996
v -35.636 -2.972 -10.994
v -35.638 -2.971 -10.995
v -35.636 -2.972 -10.992
v -35.634 -2.970 -10.994
v -35.636 -2.970 -10.996
v -35.638 -2.970 -10.993
v 53.368 -0.818 -8.899
v 53.350 -0.797 -8.868
v 53.360 -0.806 -8.879
v 53.345 -0.796 -8.862
v -35.635 -2.970 -10.992
v 53.356 -0.810 -8.877
v 53.280 -0.713 -8.733
v 53.262 -0.696 -8.703
v 53.279 -0.711 -8.725
v 53.310 -0.752 -8.797
v 53.274 -0.710 -8.731
v 53.301 -0.747 -8.784
v -35.636 -2.970 -10.994
v 53.319 -0.757 -8.799
v 53.301 -0.739 -8.761
v 53.330 -0.784 -8.835
v 53.336 -0.781 -8.827
v 53.331 -0.783 -8.825
v 53.277 -0.714 -8.723
v 53.270 -0.709 -8.721
v 53.308 -0.752 -8.775
v 53.299 -0.745 -8.771
v 9.385 4.806 21.060
v 9.386 4.806 21.062
v 9.386 4.805 21.060
v 9.387 4.806 21.060
v 9.386 4.807 21.059
v 9.386 4.808 21.061
v 15.279 65.292 -38.139
v 15.372 65.321 -38.084
v 15.309 65.302 -38.122
v 15.632 65.398 -37.926
v 15.497 65.358 -38.004
v 16.239 65.577 -37.558
v 16.481 65.649 -37.408
v 16.229 65.574 -37.561
v 16.628 65.693 -37.315
v 16.510 65.659 -37.383
v 16.722 65.722 -37.254
v 15.447 65.342 -38.039
v 15.820 65.453 -37.814
v 16.006 65.509 -37.691
v 16.604 65.687 -37.323
v 16.315 65.601 -37.498
v 15.482 65.354 -38.014
v 15.877 65.472 -37.769
v 16.260 65.585 -37.544
v 16.613 65.690 -37.323
v 15.828 65.458 -37.805
v 16.303 65.599 -37.509

# Normal Array
vn 0.174 -0.819 -0.547
vn 0.153 -0.876 -0.458
vn 0.128 -0.903 -0.410
vn 0.142 -0.900 -0.412
vn 0.408 0.023 -0.913
vn 0.381 -0.117 -0.917
vn 0.254 -0.692 -0.676
vn -0.024 -0.991 -0.135
vn -0.387 -0.418 0.822
vn -0.278 -0.861 0.425
vn -0.007 -0.983 -0.183
vn -0.408 -0.309 0.859
vn -0.172 -0.979 0.106
vn -0.182 -0.970 0.159
vn -0.165 -0.979 0.122
vn -0.210 -0.937 0.280
vn 0.258 0.886 -0.386
vn 0.469 0.393 -0.791
vn 0.218 0.936 -0.276
vn 0.462 0.518 -0.720
vn 0.145 0.979 -0.146
vn 0.188 0.949 -0.254
vn 0.134 0.982 -0.131
vn 0.028 0.990 0.139
vn -0.172 0.809 0.563
vn -0.105 0.895 0.434
vn 0.006 0.985 0.173
vn -0.112 0.890 0.442
vn -0.459 0.225 0.859
vn -0.467 0.089 0.880
vn -0.192 0.805 0.561
vn -0.240 0.712 0.659
vn 0.251 -0.916 -0.313
vn -0.169 -0.902 -0.396
vn 0.153 -0.982 0.107
vn -0.266 -0.964 0.001
vn 0.535 0.403 -0.742
vn 0.818 -0.189 -0.544
vn -0.521 -0.100 -0.848
vn -0.789 0.372 -0.490
vn -0.342 -0.859 0.382
vn 0.580 -0.492 0.649
vn 0.807 0.193 0.558
vn 0.512 -0.388 0.766
vn -0.822 -0.345 0.454
vn -0.506 0.182 0.843
vn -0.756 0.385 -0.528
vn 0.844 0.474 0.250
vn -0.486 -0.852 0.197
vn -0.227 -0.874 0.430
vn -0.267 -0.896 0.355
vn 0.703 -0.358 0.615
vn 0.186 0.978 -0.095
vn -0.240 0.971 -0.011
vn -0.629 -0.764 0.142
vn -0.885 -0.413 -0.215
vn -0.439 -0.849 0.293
vn -0.393 -0.862 0.321
vn -0.383 -0.857 0.346
vn 0.575 -0.503 0.645
vn 0.702 -0.358 0.615
vn 0.902 0.175 0.394
vn 0.280 0.904 0.324
vn -0.157 0.895 0.418
vn -0.899 -0.364 -0.245
vn -0.898 -0.367 -0.242
vn -0.754 0.380 -0.535
vn -0.472 0.663 -0.581
vn 0.831 0.519 0.200
vn 0.616 0.782 -0.094
vn -0.767 0.088 -0.636
vn 0.937 0.168 0.305
vn 0.441 0.809 -0.389
vn 0.920 0.268 0.287
vn -0.616 0.415 -0.670
vn -0.794 0.132 -0.593
vn 0.472 0.820 -0.323
vn 0.426 0.833 -0.353
vn 0.785 0.620 0.010
vn 0.790 0.613 0.012
vn -0.846 0.117 -0.520
vn -0.474 0.634 -0.611
vn 0.444 0.836 -0.322
vn 0.698 0.711 -0.088
vn -0.604 -0.639 0.477
vn 0.584 -0.651 0.486
vn -0.551 -0.489 -0.676
vn 0.539 -0.504 -0.674
vn -0.581 0.488 0.652
vn 0.589 0.468 0.659
vn -0.559 0.664 -0.496
vn 0.577 0.650 -0.494
vn 0.543 -0.211 -0.813
vn 0.090 0.830 -0.550
vn -0.537 0.630 0.561
vn -0.286 0.958 0.006
vn -0.359 0.924 0.135
vn -0.232 0.968 -0.094
vn -0.282 0.959 -0.008
vn -0.208 0.969 -0.136
vn 0.142 0.775 -0.615
vn 0.530 -0.612 -0.587
vn -0.178 0.968 -0.176
vn -0.318 0.946 0.064
vn -0.265 0.964 -0.034
vn -0.361 0.921 0.144
vn -0.163 0.965 -0.204
vn -0.202 0.969 -0.139
vn -0.161 0.965 -0.205
vn -0.217 0.969 -0.120
vn 0.093 -0.944 0.317
vn 0.567 -0.397 -0.722
vn -0.242 0.967 -0.073
vn 0.119 0.803 -0.583
vn 0.566 -0.408 -0.716
vn -0.022 0.916 -0.402
vn -0.251 -0.652 0.716
vn 0.044 -0.927 0.371
vn 0.009 -0.909 0.417
vn 0.054 -0.933 0.355
vn -0.052 -0.860 0.508
vn -0.199 -0.714 0.672
vn -0.058 -0.857 0.513
vn 0.170 -0.967 0.189
vn 0.421 -0.866 -0.271
vn 0.267 -0.963 0.023
vn 0.165 -0.967 0.194
vn 0.267 -0.963 0.032
vn 0.084 -0.941 0.327
vn 0.321 -0.945 -0.064
vn 0.318 -0.946 -0.059
vn 0.425 -0.862 -0.276

# Facets
f 1//1 3//1 2//1
f 1//2 5//2 4//2
f 2//3 5//3 1//3
f 5//4 6//4 4//4
f 7//5 9//5 8//5
f 3//6 7//6 8//6
f 3//7 1//7 7//7
f 1//8 10//8 7//8
f 11//9 4//9 12//9
f 11//10 10//10 4//10
f 10//11 1//11 4//11
f 6//12 12//12 4//12
f 7//13 13//13 9//13
f 10//14 13//14 7//14
f 14//15 13//15 10//15
f 11//16 14//16 10//16
f 2//17 3//17 15//17
f 2//18 16//18 5//18
f 15//19 16//19 2//19
f 5//20 16//20 6//20
f 8//21 9//21 17//21
f 8//22 15//22 3//22
f 8//23 17//23 15//23
f 17//24 18//24 15//24
f 12//25 18//25 11//25
f 12//26 16//26 18//26
f 16//27 15//27 18//27
f 6//28 16//28 12//28
f 9//29 13//29 17//29
f 14//30 17//30 13//30
f 18//31 17//31 14//31
f 11//32 18//32 14//32
f 19//33 21//33 20//33
f 22//34 20//34 21//34
f 23//35 21//35 19//35
f 23//36 22//36 21//36
f 24//37 20//37 25//37
f 24//38 19//38 20//38
f 22//39 25//39 20//39
f 22//40 26//40 25//40
f 27//41 29//41 28//41
f 28//42 30//42 27//42
f 31//43 19//43 24//43
f 31//44 23//44 19//44
f 23//45 26//45 22//45
f 23//46 31//46 26//46
f 27//47 32//47 29//47
f 30//48 32//48 27//48
f 33//49 35//49 34//49
f 33//50 37//50 36//50
f 34//51 37//51 33//51
f 37//52 38//52 36//52
f 24//53 25//53 39//53
f 39//54 25//54 26//54
f 40//55 35//55 33//55
f 41//56 35//56 40//56
f 28//57 29//57 40//57
f 28//58 40//58 36//58
f 36//59 40//59 33//59
f 36//60 30//60 28//60
f 36//61 38//61 30//61
f 38//62 42//62 30//62
f 31//63 24//63 39//63
f 39//64 26//64 31//64
f 40//65 43//65 41//65
f 29//66 43//66 40//66
f 29//67 32//67 43//67
f 32//68 44//68 43//68
f 42//69 32//69 30//69
f 44//70 32//70 42//70
f 34//71 35//71 45//71
f 34//72 46//72 37//72
f 45//73 46//73 34//73
f 37//74 46//74 38//74
f 45//75 41//75 47//75
f 35//76 41//76 45//76
f 46//77 45//77 48//77
f 48//78 45//78 47//78
f 38//79 48//79 42//79
f 46//80 48//80 38//80
f 41//81 43//81 47//81
f 44//82 47//82 43//82
f 48//83 47//83 44//83
f 42//84 48//84 44//84
f 49//85 51//85 50//85
f 52//86 50//86 51//86
f 53//87 51//87 49//87
f 53//88 52//88 51//88
f 49//89 50//89 54//89
f 54//90 50//90 52//90
f 53//91 49//91 54//91
f 54//92 52//92 53//92
f 55//93 57//93 56//93
f 58//94 56//94 57//94
f 59//95 57//95 55//95
f 59//96 58//96 57//96
f 60//97 62//97 61//97
f 63//98 62//98 64//98
f 63//99 61//99 62//99
f 65//100 63//100 64//100
f 66//101 56//101 67//101
f 66//102 55//102 56//102
f 62//103 58//103 68//103
f 67//104 58//104 62//104
f 56//105 58//105 67//105
f 60//106 67//106 62//106
f 64//107 70//107 69//107
f 68//108 70//108 64//108
f 62//109 68//109 64//109
f 69//110 65//110 64//110
f 71//111 55//111 66//111
f 71//112 59//112 55//112
f 59//113 68//113 58//113
f 72//114 68//114 59//114
f 71//115 72//115 59//115
f 72//116 70//116 68//116
f 60//117 61//117 73//117
f 74//118 61//118 63//118
f 74//119 73//119 61//119
f 74//120 63//120 65//120
f 66//121 67//121 75//121
f 73//122 67//122 60//122
f 75//123 67//123 73//123
f 76//124 75//124 73//124
f 76//125 69//125 70//125
f 74//126 69//126 76//126
f 73//127 74//127 76//127
f 74//128 65//128 69//128
f 71//129 66//129 75//129
f 75//130 72//130 71//130
f 75//131 76//131 72//131
f 76//132 70//132 72//132

# Thankyou for using Spin3D

