# Created using Spin3D

# Vertex Array
v 20.642 -46.724 18.722
v 20.643 -46.725 18.723
v 20.643 -46.726 18.721
v 20.644 -46.724 18.722
v 20.643 -46.724 18.720
v 20.643 -46.723 18.722
v 8.358 -5.929 30.343
v 8.374 -5.871 30.343
v 8.413 -6.007 30.383
v 8.418 -5.854 30.364
v 8.388 -5.898 30.353
v 8.174 -5.432 30.174
v 8.279 -5.510 30.242
v 8.265 -5.700 30.259
v 8.387 -5.687 30.325
v 8.398 -5.579 30.316
v 8.172 -5.478 30.179
v 8.124 -5.271 30.126
v 8.277 -5.646 30.257
v 8.356 -5.571 30.290
v 8.165 -5.295 30.149
v 8.250 -5.347 30.200
v 8.167 -5.211 30.142
v 8.248 -5.198 30.184
v 8.339 -5.378 30.257
v 8.339 -5.286 30.242
v 8.138 -5.116 30.111
v 8.200 -5.051 30.135
v 8.286 -5.228 30.204
v 8.202 -5.111 30.142
v 8.284 -5.124 30.189
v 8.262 -5.076 30.169
v 2.457 7.877 47.208
v 3.505 8.167 48.318
v 3.767 7.367 47.118
v 5.377 8.089 49.051
v 5.533 7.522 47.556
v 6.834 8.024 48.659
v 1.375 8.532 45.220
v 1.476 8.573 46.493
v 2.249 7.622 46.014
v 3.271 7.296 45.641
v 4.737 7.433 46.080
v 6.815 8.461 46.907
v 2.395 7.901 44.814
v 3.804 7.821 44.768
v 5.281 8.184 45.180
v 6.241 9.219 50.722
v 7.631 9.859 51.693
v 7.545 8.708 50.388
v 8.607 9.474 51.492
v 8.870 9.237 50.720
v 9.269 10.015 51.399
v 2.352 9.183 47.970
v 4.319 9.826 49.774
v 8.364 8.969 49.108
v 9.418 10.206 50.305
v 0.872 9.475 45.746
v 1.235 10.178 46.931
v 8.348 9.462 47.757
v 9.157 10.555 48.617
v 1.770 8.905 44.307
v 1.081 10.017 44.711
v 2.952 8.835 43.998
v 4.560 9.027 44.154
v 6.236 9.620 45.035
v 8.034 10.830 46.633
v 2.152 10.153 43.881
v 3.736 10.420 43.674
v 5.284 10.581 44.013
v 6.229 10.828 51.543
v 7.716 11.462 52.312
v 8.759 10.635 52.011
v 9.434 11.455 51.330
v 2.526 11.846 48.629
v 4.767 12.922 50.889
v 9.662 12.122 49.867
v 0.772 10.874 45.794
v 1.254 11.978 46.950
v 9.253 12.827 48.082
v 1.592 11.378 44.296
v 1.022 11.583 45.010
v 2.008 13.312 45.153
v 7.966 14.140 46.318
v 6.641 11.898 44.847
v 2.888 12.014 43.960
v 4.882 12.608 44.026
v 15.076 19.459 9.629
v 15.594 19.497 9.772
v 15.755 19.412 9.815
v 16.764 19.475 10.092
v 16.894 19.374 10.087
v 17.706 19.387 10.331
v 17.895 19.348 10.315
v 18.456 19.398 10.470
v 18.430 19.365 10.391
v 18.823 19.371 10.497
v 15.189 19.443 9.620
v 14.959 19.520 9.535
v 15.985 19.427 9.788
v 17.249 19.425 10.068
v 18.733 19.388 10.442
v 18.051 19.474 10.244
v 15.380 19.548 9.573
v 16.185 19.547 9.735
v 16.881 19.621 9.883
v 6.619 12.562 52.126
v 7.652 13.071 52.415
v 8.677 12.420 52.134
v 9.118 13.999 50.996
v 3.220 14.714 49.662
v 4.503 16.245 50.919
v 6.491 14.797 51.859
v 9.539 14.241 49.387
v 1.137 12.490 45.978
v 2.132 14.756 47.528
v 9.050 15.469 48.089
v 3.081 16.410 46.162
v 6.334 17.006 46.059
v 5.235 15.006 44.668
v 6.376 14.148 44.864
v 8.096 16.832 47.153
v 3.707 14.375 44.598
v 21.671 20.912 14.657
v 21.672 20.912 14.658
v 21.672 20.911 14.657
v 21.673 20.912 14.657
v 15.174 19.554 9.612
v 16.122 19.655 9.810
v 17.465 19.600 10.252
v 17.938 19.496 10.409
v 21.672 20.912 14.656
v 18.264 19.546 10.441
v 18.535 19.458 10.423
v 15.332 19.655 9.550
v 16.276 19.811 9.704
v 15.770 19.797 9.575
v 16.436 19.789 9.716
v 17.419 19.649 10.106
v 17.962 19.625 10.374
v 15.865 19.727 9.587
v 8.095 14.228 52.013
v 3.052 17.694 49.619
v 4.174 19.319 50.759
v 5.759 17.549 51.382
v 7.569 16.732 51.254
v 8.767 16.766 49.737
v 2.674 19.267 48.272
v 8.494 17.704 48.338
v 4.523 16.577 45.440
v 4.237 19.525 47.087
v 5.826 19.593 47.118
v 7.101 19.315 47.778
v 21.672 20.913 14.658
v 18.078 19.587 10.444
v 15.976 19.851 9.570
v 2.666 21.155 49.923
v 3.685 22.236 50.674
v 5.829 20.017 50.921
v 6.505 21.197 50.125
v 7.530 19.017 50.387
v 1.916 23.466 49.489
v 1.954 22.992 49.883
v 2.143 22.028 49.248
v 7.753 19.455 49.260
v 6.396 21.556 49.094
v 2.740 22.156 48.580
v 3.805 21.956 48.117
v 5.124 21.751 48.237
v 1.984 23.991 50.082
v 2.730 23.946 50.485
v 2.386 23.114 50.326
v 3.693 23.734 50.618
v 4.947 22.641 50.566
v 5.443 23.019 49.918
v 1.982 24.305 49.740
v 4.602 23.906 49.737
v 4.384 23.587 49.187
v 5.294 23.057 49.242
v 2.287 23.807 49.261
v 3.374 23.411 48.935
v 2.454 24.514 50.088
v 3.202 24.404 50.366
v 4.223 23.981 50.277
v 2.524 24.362 49.589
v 3.457 24.330 49.793
v 16.578 65.844 -35.815
v 16.579 65.844 -35.813
v 16.579 65.843 -35.815
v 16.580 65.844 -35.815
v 16.579 65.845 -35.816
v 16.579 65.846 -35.814

# Normal Array
vn -0.583 -0.661 0.472
vn 0.583 -0.661 0.472
vn -0.583 -0.472 -0.661
vn 0.583 -0.472 -0.661
vn -0.582 0.472 0.662
vn 0.582 0.472 0.662
vn -0.582 0.662 -0.473
vn 0.582 0.662 -0.473
vn -0.476 0.119 0.871
vn -0.456 0.128 0.881
vn 0.451 -0.142 -0.881
vn 0.494 -0.126 -0.860
vn -0.482 0.112 0.869
vn -0.481 0.120 0.868
vn -0.491 0.112 0.864
vn -0.475 0.119 0.872
vn -0.453 0.118 0.883
vn -0.433 0.124 0.893
vn -0.487 0.110 0.867
vn -0.486 0.110 0.867
vn 0.449 -0.139 -0.883
vn 0.443 -0.142 -0.885
vn 0.434 -0.140 -0.890
vn 0.480 -0.121 -0.869
vn 0.486 -0.119 -0.866
vn 0.506 -0.112 -0.855
vn 0.438 -0.126 -0.890
vn 0.453 -0.125 -0.883
vn 0.450 -0.126 -0.884
vn 0.480 -0.121 -0.869
vn -0.482 0.112 0.869
vn -0.469 0.119 0.875
vn -0.473 0.119 0.873
vn -0.474 0.119 0.873
vn -0.451 0.125 0.884
vn -0.397 0.148 0.906
vn -0.492 0.124 0.862
vn -0.479 0.113 0.871
vn -0.470 0.136 0.872
vn -0.467 0.136 0.874
vn 0.506 -0.113 -0.855
vn 0.491 -0.115 -0.864
vn 0.441 -0.122 -0.889
vn 0.434 -0.096 -0.896
vn 0.435 -0.124 -0.892
vn 0.450 -0.126 -0.884
vn 0.485 -0.117 -0.867
vn 0.482 -0.116 -0.868
vn -0.439 0.141 0.887
vn -0.427 0.145 0.893
vn -0.426 0.177 0.887
vn -0.449 0.146 0.881
vn 0.483 -0.123 -0.867
vn 0.637 -0.035 -0.770
vn 0.457 -0.095 -0.885
vn 0.470 -0.127 -0.873
vn -0.287 -0.825 0.487
vn -0.006 -0.935 0.354
vn -0.232 -0.832 0.504
vn 0.055 -0.932 0.359
vn -0.753 -0.652 0.081
vn -0.679 -0.685 0.265
vn -0.336 -0.907 0.253
vn -0.257 -0.957 0.132
vn 0.083 -0.996 0.015
vn 0.087 -0.996 0.019
vn 0.505 -0.836 -0.214
vn 0.502 -0.837 -0.220
vn -0.580 -0.775 -0.251
vn -0.376 -0.891 -0.253
vn -0.065 -0.837 -0.543
vn 0.205 -0.889 -0.409
vn 0.333 -0.813 -0.477
vn 0.522 -0.783 -0.338
vn -0.121 -0.740 0.661
vn 0.265 -0.893 0.364
vn -0.154 -0.736 0.659
vn 0.610 -0.675 0.415
vn -0.556 -0.377 0.741
vn -0.592 -0.441 0.674
vn -0.151 -0.781 0.606
vn -0.501 -0.575 0.647
vn -0.329 -0.527 0.784
vn 0.052 -0.936 0.348
vn 0.491 -0.860 0.138
vn 0.362 -0.931 0.041
vn 0.876 -0.480 0.035
vn 0.825 -0.539 -0.169
vn -0.877 -0.245 0.414
vn -0.859 -0.505 0.085
vn -0.708 -0.398 0.584
vn -0.774 -0.273 0.571
vn 0.627 -0.729 -0.273
vn 0.557 -0.804 -0.207
vn 0.840 -0.491 -0.231
vn 0.854 -0.485 -0.187
vn -0.590 -0.625 -0.511
vn -0.811 -0.327 -0.485
vn -0.896 -0.292 -0.334
vn -0.062 -0.636 -0.769
vn -0.242 -0.553 -0.797
vn 0.348 -0.589 -0.729
vn 0.144 -0.519 -0.843
vn 0.534 -0.429 -0.728
vn 0.683 -0.507 -0.525
vn 0.744 -0.441 -0.503
vn 0.630 -0.401 -0.665
vn 0.835 -0.222 -0.504
vn -0.603 -0.086 -0.793
vn -0.259 -0.240 -0.935
vn -0.103 -0.150 -0.983
vn 0.124 -0.257 -0.959
vn 0.229 -0.193 -0.954
vn 0.527 -0.317 -0.789
vn -0.321 -0.326 0.889
vn -0.380 -0.422 0.823
vn 0.026 -0.411 0.911
vn -0.015 -0.359 0.933
vn 0.449 -0.413 0.793
vn 0.740 -0.053 0.670
vn -0.659 -0.169 0.733
vn -0.643 -0.144 0.752
vn -0.504 -0.395 0.768
vn -0.613 -0.188 0.768
vn 0.988 -0.107 0.115
vn 0.989 -0.101 0.108
vn -0.925 0.006 0.380
vn -0.939 -0.078 0.334
vn -0.731 -0.119 0.672
vn -0.797 0.002 0.604
vn 0.969 -0.166 -0.184
vn 0.960 -0.102 -0.261
vn -0.765 0.093 -0.637
vn -0.958 0.019 -0.288
vn -0.972 -0.061 -0.228
vn -0.646 0.421 -0.637
vn 0.775 -0.044 -0.630
vn 0.719 -0.183 -0.670
vn 0.850 -0.154 -0.503
vn 0.792 -0.042 -0.609
vn -0.612 -0.011 -0.791
vn -0.422 0.442 -0.792
vn -0.323 0.168 -0.931
vn -0.145 0.100 -0.984
vn 0.209 0.048 -0.977
vn -0.017 0.167 -0.986
vn 0.633 -0.175 -0.754
vn 0.452 0.095 -0.887
vn -0.265 -0.006 0.964
vn -0.229 -0.342 0.911
vn -0.265 -0.006 0.964
vn -0.135 -0.858 0.495
vn -0.260 -0.381 0.887
vn -0.024 -0.923 0.385
vn -0.105 -0.770 0.629
vn -0.096 -0.910 0.403
vn -0.122 -0.972 0.201
vn -0.161 -0.907 -0.388
vn 0.030 -0.964 -0.263
vn 0.033 -0.969 -0.246
vn 0.096 -0.851 -0.517
vn 0.103 -0.878 -0.468
vn 0.181 -0.503 -0.845
vn 0.219 -0.421 -0.880
vn 0.102 -0.843 -0.529
vn 0.151 -0.842 -0.518
vn 0.111 -0.567 -0.816
vn 0.151 -0.619 -0.771
vn 0.158 -0.603 -0.782
vn 0.170 -0.616 -0.769
vn 0.230 -0.405 -0.885
vn 0.219 -0.422 -0.880
vn -0.373 -0.219 0.902
vn -0.236 -0.072 0.969
vn 0.232 -0.053 0.971
vn 0.235 -0.056 0.970
vn 0.719 -0.015 0.695
vn 0.813 0.174 0.556
vn -0.661 -0.059 0.748
vn -0.684 -0.095 0.723
vn -0.569 -0.144 0.810
vn -0.545 0.069 0.836
vn -0.453 -0.044 0.890
vn -0.311 0.095 0.946
vn 0.964 0.149 0.218
vn 0.956 0.117 0.268
vn -0.957 0.191 0.216
vn -0.938 0.246 0.243
vn -0.786 0.123 0.605
vn -0.889 0.051 0.454
vn 0.975 0.007 -0.221
vn 0.954 0.074 -0.289
vn -0.968 0.230 -0.100
vn -0.797 0.485 -0.359
vn -0.787 0.544 -0.290
vn -0.910 0.374 -0.180
vn 0.412 0.357 -0.838
vn 0.673 0.085 -0.735
vn 0.644 0.303 -0.702
vn 0.530 0.228 -0.817
vn 0.829 0.065 -0.556
vn 0.791 0.146 -0.594
vn -0.509 0.421 -0.751
vn -0.494 0.382 -0.781
vn 0.312 0.203 -0.928
vn -0.067 0.267 -0.961
vn -0.051 0.277 -0.960
vn 0.442 0.059 -0.895
vn -0.568 -0.652 0.501
vn 0.568 -0.652 0.501
vn -0.269 0.432 0.861
vn -0.216 0.524 0.824
vn -0.226 0.562 0.796
vn -0.271 0.405 0.873
vn -0.256 0.241 0.936
vn -0.255 -0.138 0.957
vn -0.583 -0.472 -0.661
vn 0.196 0.428 0.882
vn -0.106 0.060 0.993
vn -0.169 -0.306 0.937
vn 0.583 -0.472 -0.661
vn -0.011 0.622 0.783
vn -0.311 0.802 0.510
vn -0.360 0.511 0.780
vn -0.199 0.677 0.709
vn -0.245 0.621 0.745
vn -0.213 0.733 0.646
vn 0.133 0.991 0.020
vn -0.164 0.659 0.734
vn -0.130 0.928 0.348
vn -0.071 0.940 0.333
vn 0.322 0.746 -0.584
vn 0.262 0.883 -0.389
vn 0.315 0.497 -0.809
vn 0.290 0.617 -0.731
vn 0.345 0.894 -0.286
vn 0.099 -0.168 -0.981
vn 0.078 -0.059 -0.995
vn 0.092 -0.172 -0.981
vn 0.180 -0.417 -0.891
vn 0.378 0.087 -0.922
vn 0.241 -0.283 -0.928
vn 0.229 -0.344 -0.910
vn 0.313 0.487 -0.815
vn 0.364 0.179 0.914
vn 0.708 0.272 0.651
vn -0.686 -0.036 0.726
vn -0.682 -0.028 0.731
vn -0.395 0.054 0.917
vn -0.356 0.010 0.934
vn 0.023 0.321 0.947
vn 0.012 0.292 0.956
vn 0.164 0.211 0.964
vn 0.700 0.338 0.629
vn 0.729 0.358 0.584
vn 0.928 0.245 0.280
vn -0.891 -0.044 0.453
vn -0.941 0.058 0.332
vn 0.951 0.301 -0.073
vn 0.969 0.244 -0.026
vn -0.446 0.403 -0.799
vn -0.591 0.423 -0.687
vn -0.895 0.175 -0.410
vn 0.173 0.497 -0.851
vn 0.174 0.493 -0.852
vn 0.002 0.379 -0.925
vn 0.512 0.397 -0.762
vn 0.488 0.411 -0.770
vn 0.840 0.262 -0.475
vn 0.716 0.426 -0.554
vn -0.440 0.458 -0.773
vn -0.121 0.393 -0.911
vn -0.550 0.475 0.687
vn 0.550 0.475 0.687
vn -0.297 0.080 0.952
vn -0.563 0.695 -0.447
vn -0.047 -0.301 0.952
vn 0.563 0.695 -0.447
vn -0.181 0.756 0.629
vn -0.205 0.684 0.700
vn 0.135 0.991 -0.005
vn 0.217 0.964 0.152
vn 0.012 -0.147 -0.989
vn 0.243 -0.342 -0.908
vn -0.545 -0.067 0.836
vn -0.602 -0.136 0.787
vn -0.173 0.186 0.967
vn -0.102 0.012 0.995
vn 0.446 0.310 0.840
vn 0.451 0.323 0.832
vn 0.149 0.178 0.973
vn 0.759 0.242 0.605
vn -0.987 -0.143 -0.076
vn -0.904 -0.345 0.255
vn -0.901 -0.288 0.325
vn -0.983 -0.121 0.134
vn 0.837 0.434 0.334
vn 0.832 0.545 0.102
vn 0.930 0.362 0.061
vn 0.866 0.383 0.320
vn -0.745 -0.006 -0.667
vn -0.751 0.087 -0.655
vn -0.611 0.098 -0.785
vn -0.327 0.319 -0.890
vn -0.002 0.460 -0.888
vn 0.146 0.408 -0.901
vn 0.787 0.477 -0.391
vn 0.524 0.548 -0.652
vn 0.479 0.522 -0.706
vn 0.760 0.524 -0.384
vn -0.474 0.027 0.880
vn -0.399 -0.239 0.885
vn -0.296 -0.060 0.953
vn -0.129 0.037 0.991
vn 0.037 0.146 0.989
vn 0.073 0.036 0.997
vn 0.490 0.276 0.827
vn 0.586 0.421 0.693
vn -0.694 -0.121 0.710
vn -0.994 0.008 0.106
vn -0.996 0.061 0.060
vn -0.661 -0.241 0.711
vn 0.438 0.692 -0.574
vn 0.733 0.669 -0.124
vn 0.791 0.595 -0.141
vn 0.856 0.509 0.087
vn -0.668 0.261 -0.697
vn -0.614 0.151 -0.774
vn -0.302 0.398 -0.866
vn -0.154 0.340 -0.928
vn 0.361 0.539 -0.761
vn 0.127 0.496 -0.859
vn 0.157 0.519 -0.840
vn 0.542 0.467 -0.698
vn -0.424 0.371 0.826
vn -0.063 0.312 0.948
vn -0.245 0.473 0.847
vn 0.368 0.382 0.847
vn 0.284 0.513 0.810
vn 0.561 0.453 0.693
vn -0.185 0.932 -0.311
vn -0.637 0.566 0.523
vn 0.165 0.985 -0.054
vn 0.094 0.956 -0.278
vn 0.264 0.786 -0.559
vn 0.349 0.930 0.117
vn 0.386 0.921 0.052
vn 0.641 0.680 0.356
vn -0.275 0.574 -0.771
vn -0.062 0.527 -0.847
vn 0.182 0.662 -0.727
vn 0.064 0.678 -0.732
vn -0.629 -0.617 0.474
vn 0.596 -0.637 0.489
vn -0.558 -0.455 -0.694
vn 0.560 -0.506 -0.656
vn -0.584 0.523 0.621
vn 0.587 0.466 0.663
vn -0.551 0.688 -0.472
vn 0.584 0.669 -0.459

# Facets
f 1//1 3//1 2//1
f 4//2 2//2 3//2
f 5//3 3//3 1//3
f 5//4 4//4 3//4
f 1//5 2//5 6//5
f 6//6 2//6 4//6
f 5//7 1//7 6//7
f 6//8 4//8 5//8
f 7//9 9//9 8//9
f 10//10 8//10 9//10
f 11//11 9//11 7//11
f 11//12 10//12 9//12
f 12//13 14//13 13//13
f 8//14 14//14 7//14
f 13//15 14//15 8//15
f 15//16 13//16 8//16
f 10//17 15//17 8//17
f 10//18 16//18 15//18
f 12//19 17//19 14//19
f 12//20 18//20 17//20
f 11//21 7//21 19//21
f 19//22 7//22 14//22
f 19//23 14//23 17//23
f 20//24 11//24 19//24
f 10//25 11//25 20//25
f 16//26 10//26 20//26
f 21//27 17//27 18//27
f 21//28 19//28 17//28
f 21//29 22//29 19//29
f 22//30 20//30 19//30
f 12//31 13//31 23//31
f 13//32 24//32 23//32
f 25//33 24//33 13//33
f 15//34 25//34 13//34
f 16//35 25//35 15//35
f 16//36 26//36 25//36
f 18//37 23//37 27//37
f 18//38 12//38 23//38
f 24//39 28//39 23//39
f 28//40 27//40 23//40
f 26//41 16//41 20//41
f 29//42 26//42 20//42
f 21//43 18//43 27//43
f 30//44 27//44 28//44
f 21//45 27//45 30//45
f 22//46 21//46 30//46
f 22//47 29//47 20//47
f 22//48 30//48 29//48
f 24//49 25//49 31//49
f 31//50 25//50 26//50
f 28//51 31//51 32//51
f 28//52 24//52 31//52
f 32//53 26//53 29//53
f 32//54 31//54 26//54
f 30//55 28//55 32//55
f 32//56 29//56 30//56
f 33//57 35//57 34//57
f 36//58 35//58 37//58
f 36//59 34//59 35//59
f 38//60 36//60 37//60
f 39//61 41//61 40//61
f 41//62 33//62 40//62
f 35//63 33//63 41//63
f 42//64 35//64 41//64
f 43//65 37//65 35//65
f 42//66 43//66 35//66
f 37//67 44//67 38//67
f 37//68 43//68 44//68
f 45//69 41//69 39//69
f 45//70 42//70 41//70
f 45//71 46//71 42//71
f 46//72 43//72 42//72
f 46//73 47//73 43//73
f 47//74 44//74 43//74
f 48//75 50//75 49//75
f 51//76 50//76 52//76
f 51//77 49//77 50//77
f 53//78 51//78 52//78
f 54//79 34//79 55//79
f 54//80 33//80 34//80
f 50//81 48//81 36//81
f 36//82 48//82 55//82
f 36//83 55//83 34//83
f 36//84 38//84 50//84
f 50//85 38//85 56//85
f 50//86 56//86 52//86
f 52//87 57//87 53//87
f 52//88 56//88 57//88
f 58//89 40//89 59//89
f 58//90 39//90 40//90
f 33//91 54//91 40//91
f 54//92 59//92 40//92
f 60//93 56//93 44//93
f 56//94 38//94 44//94
f 56//95 61//95 57//95
f 56//96 60//96 61//96
f 39//97 62//97 45//97
f 63//98 62//98 39//98
f 58//99 63//99 39//99
f 46//100 45//100 64//100
f 45//101 62//101 64//101
f 47//102 46//102 65//102
f 46//103 64//103 65//103
f 66//104 47//104 65//104
f 66//105 44//105 47//105
f 67//106 44//106 66//106
f 60//107 44//107 67//107
f 67//108 61//108 60//108
f 68//109 62//109 63//109
f 68//110 64//110 62//110
f 68//111 69//111 64//111
f 69//112 65//112 64//112
f 69//113 70//113 65//113
f 70//114 66//114 65//114
f 71//115 49//115 72//115
f 71//116 48//116 49//116
f 49//117 51//117 73//117
f 72//118 49//118 73//118
f 53//119 73//119 51//119
f 53//120 74//120 73//120
f 75//121 55//121 76//121
f 75//122 54//122 55//122
f 48//123 71//123 55//123
f 71//124 76//124 55//124
f 74//125 53//125 57//125
f 77//126 74//126 57//126
f 78//127 59//127 79//127
f 78//128 58//128 59//128
f 54//129 75//129 59//129
f 75//130 79//130 59//130
f 77//131 57//131 61//131
f 80//132 77//132 61//132
f 63//133 82//133 81//133
f 78//134 82//134 63//134
f 58//135 78//135 63//135
f 81//136 82//136 83//136
f 84//137 67//137 85//137
f 67//138 66//138 85//138
f 67//139 80//139 61//139
f 67//140 84//140 80//140
f 68//141 63//141 81//141
f 86//142 81//142 83//142
f 68//143 81//143 86//143
f 69//144 68//144 86//144
f 87//145 70//145 69//145
f 87//146 69//146 86//146
f 70//147 85//147 66//147
f 70//148 87//148 85//148
f 88//149 90//149 89//149
f 91//150 90//150 92//150
f 91//151 89//151 90//151
f 93//152 92//152 94//152
f 93//153 91//153 92//153
f 95//154 94//154 96//154
f 95//155 93//155 94//155
f 97//156 95//156 96//156
f 88//157 98//157 90//157
f 88//158 99//158 98//158
f 100//159 92//159 90//159
f 98//160 100//160 90//160
f 101//161 94//161 92//161
f 100//162 101//162 92//162
f 96//163 103//163 102//163
f 101//164 103//164 96//164
f 94//165 101//165 96//165
f 102//166 97//166 96//166
f 104//167 98//167 99//167
f 104//168 100//168 98//168
f 104//169 105//169 100//169
f 105//170 101//170 100//170
f 105//171 106//171 101//171
f 106//172 103//172 101//172
f 71//173 72//173 107//173
f 72//174 108//174 107//174
f 109//175 108//175 72//175
f 73//176 109//176 72//176
f 74//177 109//177 73//177
f 74//178 110//178 109//178
f 111//179 76//179 112//179
f 111//180 75//180 76//180
f 71//181 107//181 76//181
f 76//182 107//182 113//182
f 76//183 113//183 112//183
f 107//184 108//184 113//184
f 110//185 74//185 77//185
f 114//186 110//186 77//186
f 78//187 79//187 115//187
f 115//188 79//188 116//188
f 116//189 79//189 75//189
f 116//190 75//190 111//190
f 114//191 77//191 80//191
f 117//192 114//192 80//192
f 82//193 78//193 115//193
f 82//194 115//194 83//194
f 83//195 115//195 116//195
f 83//196 116//196 118//196
f 119//197 121//197 120//197
f 85//198 121//198 84//198
f 84//199 121//199 119//199
f 84//200 119//200 122//200
f 84//201 117//201 80//201
f 84//202 122//202 117//202
f 123//203 83//203 118//203
f 123//204 86//204 83//204
f 87//205 120//205 121//205
f 123//206 120//206 87//206
f 86//207 123//207 87//207
f 121//208 85//208 87//208
f 124//209 126//209 125//209
f 127//210 125//210 126//210
f 88//211 89//211 128//211
f 129//212 89//212 91//212
f 129//213 128//213 89//213
f 91//214 130//214 129//214
f 131//215 130//215 91//215
f 93//216 131//216 91//216
f 132//217 126//217 124//217
f 95//218 134//218 133//218
f 131//219 95//219 133//219
f 93//220 95//220 131//220
f 127//221 126//221 132//221
f 134//222 95//222 97//222
f 99//223 128//223 135//223
f 99//224 88//224 128//224
f 136//225 137//225 129//225
f 129//226 137//226 135//226
f 129//227 135//227 128//227
f 138//228 136//228 139//228
f 139//229 136//229 129//229
f 130//230 140//230 139//230
f 129//231 130//231 139//231
f 140//232 133//232 139//232
f 133//233 134//233 139//233
f 139//234 134//234 103//234
f 103//235 134//235 102//235
f 134//236 97//236 102//236
f 104//237 99//237 135//237
f 141//238 135//238 137//238
f 104//239 135//239 141//239
f 105//240 104//240 141//240
f 106//241 138//241 139//241
f 141//242 138//242 106//242
f 105//243 141//243 106//243
f 139//244 103//244 106//244
f 108//245 109//245 142//245
f 142//246 109//246 110//246
f 143//247 112//247 144//247
f 143//248 111//248 112//248
f 112//249 113//249 145//249
f 144//250 112//250 145//250
f 108//251 142//251 113//251
f 113//252 142//252 146//252
f 113//253 146//253 145//253
f 110//254 146//254 142//254
f 147//255 146//255 110//255
f 114//256 147//256 110//256
f 116//257 111//257 143//257
f 116//258 143//258 148//258
f 147//259 114//259 117//259
f 149//260 147//260 117//260
f 118//261 151//261 150//261
f 148//262 151//262 118//262
f 116//263 148//263 118//263
f 120//264 150//264 119//264
f 119//265 150//265 151//265
f 119//266 151//266 152//266
f 153//267 122//267 119//267
f 153//268 119//268 152//268
f 122//269 149//269 117//269
f 122//270 153//270 149//270
f 123//271 118//271 150//271
f 150//272 120//272 123//272
f 124//273 125//273 154//273
f 154//274 125//274 127//274
f 130//275 131//275 155//275
f 154//276 132//276 124//276
f 131//277 133//277 155//277
f 154//278 127//278 132//278
f 137//279 136//279 156//279
f 155//280 140//280 130//280
f 136//281 138//281 156//281
f 155//282 133//282 140//282
f 141//283 137//283 156//283
f 156//284 138//284 141//284
f 157//285 144//285 158//285
f 157//286 143//286 144//286
f 144//287 145//287 159//287
f 158//288 144//288 159//288
f 159//289 161//289 160//289
f 146//290 161//290 159//290
f 145//291 146//291 159//291
f 161//292 146//292 147//292
f 162//293 164//293 163//293
f 163//294 164//294 157//294
f 157//295 164//295 148//295
f 157//296 148//296 143//296
f 161//297 165//297 160//297
f 165//298 166//298 160//298
f 165//299 147//299 149//299
f 165//300 161//300 147//300
f 167//301 164//301 162//301
f 167//302 148//302 164//302
f 151//303 148//303 167//303
f 168//304 151//304 167//304
f 169//305 152//305 151//305
f 169//306 151//306 168//306
f 153//307 166//307 165//307
f 169//308 166//308 153//308
f 152//309 169//309 153//309
f 165//310 149//310 153//310
f 170//311 172//311 171//311
f 158//312 172//312 157//312
f 171//313 172//313 158//313
f 173//314 171//314 158//314
f 158//315 159//315 174//315
f 173//316 158//316 174//316
f 160//317 174//317 159//317
f 160//318 175//318 174//318
f 170//319 163//319 172//319
f 162//320 163//320 170//320
f 176//321 162//321 170//321
f 163//322 157//322 172//322
f 177//323 179//323 178//323
f 175//324 179//324 177//324
f 166//325 179//325 175//325
f 160//326 166//326 175//326
f 180//327 162//327 176//327
f 180//328 167//328 162//328
f 181//329 168//329 167//329
f 181//330 167//330 180//330
f 169//331 178//331 179//331
f 181//332 178//332 169//332
f 168//333 181//333 169//333
f 179//334 166//334 169//334
f 170//335 171//335 182//335
f 183//336 171//336 173//336
f 183//337 182//337 171//337
f 184//338 173//338 174//338
f 184//339 183//339 173//339
f 184//340 174//340 175//340
f 176//341 182//341 185//341
f 176//342 170//342 182//342
f 182//343 183//343 186//343
f 182//344 186//344 185//344
f 186//345 177//345 178//345
f 184//346 177//346 186//346
f 183//347 184//347 186//347
f 184//348 175//348 177//348
f 180//349 176//349 185//349
f 185//350 181//350 180//350
f 185//351 186//351 181//351
f 186//352 178//352 181//352
f 187//353 189//353 188//353
f 190//354 188//354 189//354
f 191//355 189//355 187//355
f 191//356 190//356 189//356
f 187//357 188//357 192//357
f 192//358 188//358 190//358
f 191//359 187//359 192//359
f 192//360 190//360 191//360

# Thankyou for using Spin3D

