# Created using Spin3D

# Vertex Array
v -20.308 -46.619 26.375
v -20.317 -46.617 26.375
v -20.260 -46.660 26.336
v -20.272 -46.656 26.339
v -20.217 -46.699 26.301
v -20.226 -46.696 26.305
v -20.264 -46.655 26.346
v -20.310 -46.622 26.380
v -20.219 -46.695 26.308
v -20.201 -46.714 26.290
v -20.251 -46.668 26.337
v -20.221 -46.698 26.310
v 13.171 -45.855 14.239
v 13.168 -45.855 14.236
v 13.167 -45.856 14.238
v 13.164 -45.854 14.235
v 13.163 -45.856 14.237
v 13.163 -45.855 14.237
v 13.172 -45.857 14.242
v 13.172 -45.856 14.243
v 13.167 -45.857 14.241
v 13.163 -45.855 14.240
v 13.170 -45.856 14.244
v 13.167 -45.856 14.244
v -20.354 -46.589 26.406
v -20.341 -46.603 26.392
v -20.347 -46.602 26.397
v -20.285 -46.651 26.349
v -20.287 -46.647 26.358
v -20.357 -46.593 26.409
v -20.229 -46.694 26.312
v 13.169 -45.854 14.240
v 13.165 -45.853 14.235
v 13.170 -45.855 14.245
v 13.166 -45.854 14.240
v -20.375 -46.579 26.419
v -15.136 -29.126 16.788
v -15.134 -29.127 16.786
v -15.134 -29.126 16.788
v -15.132 -29.128 16.786
v -15.134 -29.127 16.791
v -15.136 -29.131 16.792
v -15.133 -29.129 16.790
v -15.134 -29.131 16.794
v -15.135 -29.131 16.788
v -15.134 -29.131 16.786
v -15.133 -29.133 16.790
v -15.136 -29.136 16.791
v -15.133 -29.134 16.794
v -15.134 -29.135 16.794
v -15.134 -29.135 16.789
v -15.134 -29.136 16.792
v 2.067 -22.671 28.761
v 2.091 -22.734 28.844
v 2.092 -22.665 28.694
v 2.077 -22.647 28.693
v 1.959 -22.343 28.297
v 1.995 -22.497 28.547
v 2.033 -22.496 28.463
v 2.076 -22.521 28.424
v 2.086 -22.565 28.503
v 1.975 -22.288 28.148
v 2.027 -22.338 28.153
v 1.966 -22.176 27.938
v 2.054 -22.385 28.200
v 2.010 -22.224 27.958
v 2.058 -22.669 28.777
v 1.929 -22.298 28.267
v 1.947 -22.357 28.357
v 2.009 -22.507 28.542
v 2.029 -22.416 28.318
v 1.929 -22.198 28.059
v 1.935 -22.130 27.914
v 2.010 -22.246 28.007
v 1.971 -22.145 27.873
v 1.923 -22.210 28.105
v 1.963 -22.322 28.259
v 1.962 -22.204 28.017
v 48.468 -7.922 -24.916
v 48.470 -7.923 -24.918
v 48.470 -7.922 -24.917
v 48.472 -7.924 -24.919
v 48.470 -7.923 -24.913
v 48.468 -7.927 -24.913
v 48.471 -7.926 -24.914
v 48.470 -7.927 -24.910
v 12.049 -14.946 29.982
v 12.050 -14.946 29.983
v 12.050 -14.947 29.982
v 12.051 -14.946 29.982
v 12.050 -14.946 29.981
v -38.708 -4.496 -13.973
v -38.075 -4.430 -13.670
v -38.263 -4.622 -14.291
v -37.729 -4.080 -14.340
v -38.680 -4.075 -14.703
v 48.468 -7.927 -24.916
v 48.470 -7.927 -24.918
v 48.471 -7.929 -24.915
v 48.468 -7.932 -24.913
v 48.471 -7.930 -24.910
v 48.470 -7.931 -24.910
v 12.050 -14.945 29.983
v 6.792 -7.194 18.533
v 6.874 -7.171 19.147
v 7.000 -7.486 18.240
v 7.185 -7.336 18.237
v 7.022 -7.384 17.643
v 6.987 -6.810 17.400
v 7.269 -7.369 17.394
v 7.252 -7.149 16.840
v -39.642 -3.252 -12.641
v -38.965 -2.456 -11.838
v -38.858 -3.954 -13.071
v -37.952 -3.522 -12.632
v -40.112 -2.118 -13.464
v -40.132 -2.696 -12.784
v -39.512 -3.643 -13.697
v -37.326 -3.815 -13.402
v -37.123 -3.554 -13.890
v -36.938 -2.697 -13.176
v -39.438 -2.956 -14.709
v -39.066 -2.335 -15.462
v -38.807 -3.301 -15.449
v -38.120 -3.374 -15.211
v -37.329 -2.621 -14.257
v -38.517 -2.768 -15.740
v 48.470 -7.931 -24.915
v 48.470 -7.932 -24.912
v 6.619 -6.880 19.552
v 6.620 -6.624 20.033
v 6.680 -6.899 19.883
v 6.878 -6.600 19.677
v 6.672 -6.578 18.715
v 7.237 -6.858 18.651
v 7.493 -6.951 17.469
v 7.551 -6.418 17.840
v 6.867 -6.138 17.798
v 7.598 -6.822 16.316
v 7.773 -6.254 16.586
v 7.424 -6.622 16.156
v 7.271 -6.003 16.594
v 7.733 -6.427 15.522
v 7.858 -6.311 15.634
v 7.631 -6.143 15.635
v 7.839 -6.068 15.385
v -40.297 -1.225 -12.153
v -39.618 -0.344 -10.960
v -39.932 -2.178 -11.992
v -38.545 -0.583 -10.751
v -37.794 -1.904 -11.591
v -37.218 -2.869 -12.502
v -37.078 -1.305 -11.936
v -40.267 -0.213 -12.689
v -36.999 -0.896 -12.853
v -39.644 -1.127 -14.225
v -38.939 -1.221 -15.119
v -37.652 -0.508 -13.932
v -38.013 -2.145 -15.263
v -38.584 -1.977 -15.663
v 6.603 -6.327 19.621
v 6.711 -6.245 19.922
v 6.958 -6.007 19.477
v 6.743 -5.900 18.705
v 7.274 -6.167 18.769
v 7.597 -5.790 17.579
v 7.044 -5.560 17.614
v 7.550 -5.317 17.315
v 7.585 -5.267 16.683
v 7.765 -5.586 16.497
v 7.678 -5.669 15.951
v 7.382 -5.396 16.747
v 7.881 -5.923 15.757
v -40.190 0.748 -11.264
v -39.651 1.703 -10.154
v -38.672 1.835 -9.658
v -37.707 0.251 -10.645
v -37.166 0.803 -11.282
v -40.058 1.639 -11.728
v -37.256 1.108 -12.280
v -39.798 0.697 -13.003
v -38.359 -1.073 -15.031
v -38.769 0.460 -13.724
v -37.823 1.375 -12.856
v 6.809 -5.815 19.320
v 6.978 -5.459 18.424
v 7.220 -5.545 18.459
v 7.298 -5.240 17.526
v -38.588 3.527 -8.789
v -38.329 3.983 -8.552
v -38.240 3.396 -8.810
v -38.101 3.815 -8.863
v -39.823 2.504 -10.436
v -39.159 3.107 -9.425
v -37.783 2.543 -9.733
v -37.479 2.569 -10.810
v -39.365 2.160 -12.101
v -39.613 2.932 -10.948
v -38.390 2.464 -12.058
v -38.894 3.399 -10.883
v -37.653 2.435 -11.761
v -38.067 3.396 -10.759
v -38.541 3.985 -9.034
v -39.175 3.618 -9.934
v -38.516 3.953 -9.884
v -37.986 3.684 -9.644
v 62.044 14.437 32.147
v 62.044 14.436 32.145
v 62.044 14.439 32.147
v 62.046 14.437 32.145
v 62.046 14.439 32.148
v 62.046 14.437 32.147
v 62.044 14.437 32.149
v 62.046 14.436 32.149
v 62.044 14.435 32.147
v 62.046 14.435 32.146

# Normal Array
vn 0.221 0.796 -0.564
vn 0.110 0.735 -0.669
vn 0.113 0.742 -0.661
vn -0.231 0.462 -0.856
vn 0.473 0.831 -0.291
vn 0.706 0.415 0.575
vn 0.480 0.820 -0.313
vn 0.506 0.819 -0.273
vn -0.266 0.371 -0.890
vn 0.544 0.790 -0.284
vn 0.527 -0.117 0.842
vn 0.725 0.179 0.666
vn 0.603 -0.104 0.791
vn 0.638 -0.150 0.755
vn 0.421 -0.754 -0.505
vn 0.086 -0.706 -0.703
vn -0.037 -0.788 -0.615
vn -0.628 -0.178 -0.758
vn 0.430 -0.638 -0.639
vn 0.966 0.257 -0.016
vn 0.018 -0.989 -0.144
vn -0.046 -0.988 -0.149
vn -0.969 0.230 0.091
vn -0.449 -0.790 0.417
vn 0.596 -0.456 0.661
vn -0.099 -0.895 0.434
vn 0.047 -0.953 0.299
vn -0.439 -0.876 0.201
vn -0.092 0.685 -0.723
vn 0.237 0.849 -0.472
vn -0.713 -0.262 -0.650
vn -0.655 -0.106 -0.748
vn -0.338 0.405 -0.849
vn -0.657 -0.113 -0.746
vn 0.156 -0.559 0.814
vn 0.582 0.142 0.801
vn 0.680 0.450 0.579
vn -0.450 -0.848 0.279
vn -0.479 -0.846 0.232
vn -0.502 -0.835 0.224
vn -0.509 -0.853 0.117
vn -0.577 -0.812 0.083
vn 0.163 -0.554 0.816
vn 0.129 -0.590 0.797
vn -0.304 -0.831 0.466
vn -0.366 -0.875 0.315
vn 0.374 0.885 -0.276
vn 0.070 -0.116 -0.991
vn 0.559 0.770 -0.307
vn -0.708 0.414 -0.572
vn 0.586 0.810 0.039
vn 0.475 0.862 0.175
vn 0.044 0.983 0.176
vn 0.039 0.992 0.117
vn -0.455 0.887 0.085
vn -0.568 0.797 0.204
vn 0.709 0.173 0.684
vn -0.069 -0.394 0.916
vn -0.540 0.633 0.554
vn -0.344 0.748 0.567
vn -0.155 0.649 -0.745
vn -0.715 -0.254 -0.652
vn 0.578 0.146 0.803
vn -0.533 -0.825 0.189
vn -0.279 0.761 -0.586
vn 0.312 0.801 -0.510
vn 0.212 0.944 0.252
vn -0.712 0.368 0.598
vn 0.836 0.516 0.186
vn 0.900 0.434 0.047
vn -0.817 0.390 0.425
vn 0.841 0.263 0.472
vn -0.881 0.096 -0.462
vn -0.825 0.006 -0.565
vn -0.235 0.071 -0.969
vn 0.728 -0.462 -0.506
vn -0.999 -0.019 -0.031
vn -0.999 0.042 -0.026
vn 0.999 -0.009 0.039
vn 1.000 0.005 -0.020
vn -0.811 -0.003 0.586
vn -0.882 -0.109 0.458
vn 0.725 0.460 0.512
vn -0.283 -0.101 0.954
vn -0.837 -0.349 -0.421
vn 0.828 -0.304 -0.471
vn 0.224 -0.944 -0.244
vn -0.707 -0.327 -0.627
vn 0.814 -0.556 -0.168
vn 0.876 -0.482 -0.038
vn -0.346 -0.707 0.617
vn 0.267 -0.802 0.535
vn -0.677 -0.668 -0.310
vn 0.734 0.616 0.287
vn -0.676 -0.667 -0.313
vn -0.677 -0.665 -0.314
vn -0.681 -0.662 -0.312
vn -0.674 -0.667 -0.317
vn 0.730 0.614 0.300
vn -0.269 -0.856 -0.441
vn -0.669 -0.671 -0.320
vn -0.628 -0.697 -0.345
vn -0.628 -0.697 -0.345
vn -0.677 -0.660 -0.325
vn 0.826 -0.443 -0.349
vn -0.595 -0.711 -0.374
vn -0.611 -0.707 -0.357
vn -0.615 -0.704 -0.355
vn -0.679 -0.666 -0.309
vn 0.659 0.677 0.329
vn -0.826 -0.533 -0.184
vn -0.688 -0.658 -0.306
vn -0.681 -0.663 -0.310
vn 0.632 0.693 0.347
vn 0.632 0.691 0.351
vn 0.660 0.676 0.329
vn 0.652 0.680 0.336
vn 0.688 0.654 0.316
vn -0.683 -0.660 -0.314
vn -0.675 -0.666 -0.319
vn -0.663 -0.672 -0.330
vn -0.691 -0.642 -0.333
vn 0.686 0.655 0.317
vn 0.681 0.660 0.317
vn -0.678 -0.644 -0.355
vn -0.600 -0.705 -0.378
vn 0.721 0.631 0.287
vn 0.684 0.664 0.303
vn 0.512 0.762 0.396
vn 0.632 0.691 0.350
vn 0.616 0.705 0.352
vn 0.660 0.673 0.334
vn -0.867 -0.451 -0.213
vn -0.933 -0.308 -0.185
vn 0.640 0.694 0.330
vn 0.646 0.688 0.332
vn 0.665 0.672 0.325
vn 0.667 0.671 0.324
vn 0.654 0.686 0.319
vn 0.666 0.675 0.316
vn -0.307 0.732 -0.608
vn 0.290 0.808 -0.513
vn 0.258 0.937 0.235
vn -0.708 0.349 0.614
vn 0.817 0.546 0.185
vn 0.881 0.470 0.053
vn -0.824 0.371 0.428
vn 0.825 0.292 0.484
vn -0.588 -0.665 0.460
vn 0.550 -0.687 0.475
vn -0.596 -0.490 -0.637
vn 0.568 -0.501 -0.652
vn -0.049 -0.950 0.308
vn 0.712 -0.702 0.000
vn -0.522 -0.730 -0.440
vn 0.326 -0.398 -0.858
vn -0.878 0.134 -0.459
vn -0.806 0.020 -0.591
vn -0.277 0.108 -0.955
vn 0.708 -0.485 -0.513
vn -1.000 -0.020 -0.002
vn -0.999 0.040 0.004
vn 0.999 -0.038 0.031
vn 0.999 -0.024 -0.028
vn -0.829 0.011 0.559
vn -0.885 -0.074 0.460
vn 0.734 0.441 0.516
vn -0.240 -0.066 0.968
vn -0.536 0.456 0.710
vn 0.563 0.447 0.695
vn -0.544 0.683 -0.488
vn 0.583 0.661 -0.472
vn -0.745 -0.655 0.124
vn 0.593 -0.731 0.336
vn -0.861 -0.495 -0.117
vn -0.964 -0.150 -0.217
vn 0.625 -0.775 0.092
vn -0.115 -0.978 -0.172
vn -0.927 -0.193 -0.322
vn -0.295 -0.891 -0.345
vn -0.152 -0.635 0.758
vn -0.068 -0.637 0.768
vn -0.905 -0.311 -0.292
vn -0.761 -0.634 0.141
vn -0.581 -0.784 0.219
vn -0.636 -0.703 0.317
vn -0.146 -0.859 0.491
vn 0.691 -0.717 -0.094
vn 0.647 -0.760 -0.063
vn 0.382 -0.717 0.583
vn 0.042 -0.754 0.655
vn 0.915 -0.356 0.192
vn -0.907 -0.314 -0.280
vn -0.791 -0.219 -0.572
vn -0.756 -0.514 -0.405
vn -0.756 -0.514 -0.405
vn -0.734 -0.576 -0.360
vn 0.179 -0.667 -0.723
vn 0.254 -0.693 -0.675
vn 0.825 -0.196 -0.529
vn 0.666 -0.141 -0.733
vn 0.939 0.076 -0.334
vn -0.542 -0.156 -0.826
vn 0.218 -0.556 -0.802
vn -0.833 -0.351 -0.428
vn 0.828 -0.302 -0.472
vn 0.225 -0.946 -0.234
vn -0.732 -0.334 -0.594
vn 0.820 -0.546 -0.170
vn 0.878 -0.475 -0.053
vn -0.322 -0.739 0.592
vn 0.297 -0.801 0.520
vn -0.944 -0.292 0.157
vn 0.807 -0.137 0.574
vn -0.689 -0.720 0.084
vn -0.662 -0.741 0.116
vn -0.981 -0.156 -0.118
vn 0.929 -0.294 0.225
vn 0.841 -0.402 0.361
vn 0.846 -0.365 0.388
vn 0.874 -0.334 0.353
vn 0.940 -0.257 0.224
vn -0.970 -0.126 -0.210
vn -0.973 -0.041 -0.226
vn 0.879 -0.476 0.027
vn 0.869 -0.484 0.105
vn 0.968 -0.205 0.145
vn 0.948 -0.315 0.051
vn -0.926 -0.150 -0.347
vn -0.944 0.001 -0.331
vn -0.948 0.017 -0.317
vn 0.292 -0.886 -0.361
vn -0.261 -0.732 -0.630
vn -0.456 -0.764 -0.457
vn 0.936 -0.337 0.104
vn 0.754 -0.630 -0.185
vn -0.935 0.020 -0.354
vn -0.875 -0.128 -0.466
vn -0.766 -0.018 -0.643
vn 0.792 -0.406 -0.455
vn -0.781 -0.199 0.592
vn -0.284 -0.551 0.785
vn -0.263 -0.438 0.859
vn -0.265 -0.439 0.859
vn 0.336 -0.533 0.777
vn 0.081 -0.545 0.835
vn 0.060 -0.511 0.857
vn 0.614 -0.317 0.723
vn -0.877 -0.269 0.397
vn -0.993 -0.072 -0.091
vn -0.992 -0.033 -0.118
vn -0.709 -0.495 0.502
vn 0.460 -0.639 0.617
vn 0.889 -0.365 0.276
vn 0.922 -0.202 0.331
vn 0.995 0.017 0.094
vn -0.900 0.100 -0.424
vn -0.869 0.032 -0.493
vn -0.901 0.013 -0.434
vn -0.741 0.273 -0.613
vn 0.852 0.204 -0.483
vn 0.802 -0.094 -0.590
vn 0.939 0.091 -0.333
vn 0.868 0.202 -0.453
vn -0.551 0.302 -0.778
vn -0.419 0.052 -0.907
vn 0.742 -0.092 -0.664
vn 0.595 0.127 -0.794
vn -0.922 0.294 0.250
vn -0.999 -0.032 0.018
vn 0.811 -0.024 0.585
vn 0.861 0.054 0.506
vn -0.997 -0.020 -0.071
vn -0.989 0.101 -0.104
vn 0.914 0.013 0.405
vn 0.929 -0.110 0.353
vn 0.945 -0.104 0.310
vn 0.961 0.043 0.274
vn -0.982 0.100 -0.160
vn -0.954 0.231 -0.191
vn 0.888 0.451 0.085
vn 0.962 0.201 0.187
vn 0.987 0.033 0.159
vn 0.985 -0.000 0.174
vn -0.871 0.263 -0.415
vn -0.918 0.246 -0.312
vn -0.936 0.193 -0.293
vn -0.575 0.683 -0.449
vn 0.793 0.571 -0.213
vn 0.676 0.705 -0.214
vn 0.991 -0.091 0.094
vn 0.989 0.031 0.142
vn -0.865 0.335 -0.374
vn -0.757 0.413 -0.507
vn 0.582 0.734 -0.351
vn 0.994 -0.029 -0.101
vn -0.774 -0.243 0.585
vn -0.762 -0.231 0.605
vn -0.262 -0.409 0.874
vn -0.387 -0.343 0.856
vn 0.282 -0.395 0.874
vn 0.271 -0.385 0.882
vn 0.622 -0.336 0.708
vn 0.812 -0.142 0.566
vn -0.999 0.043 0.025
vn -0.991 0.129 -0.033
vn 0.996 0.013 0.092
vn 0.989 0.140 -0.047
vn -0.863 0.306 -0.402
vn -0.832 0.259 -0.492
vn -0.049 0.641 -0.766
vn -0.639 0.529 -0.559
vn -0.428 0.478 -0.767
vn 0.691 0.358 -0.628
vn 0.445 0.647 -0.619
vn 0.276 0.496 -0.824
vn 0.866 0.237 -0.439
vn 0.741 0.382 -0.552
vn -0.025 0.577 -0.816
vn 0.605 0.350 -0.715
vn -0.869 0.459 0.186
vn 0.341 0.738 0.583
vn -0.874 0.484 0.028
vn -0.917 0.396 0.045
vn 0.904 0.251 0.346
vn 0.479 0.746 0.462
vn 0.258 0.880 0.398
vn 0.914 0.242 0.325
vn -0.794 0.593 -0.138
vn -0.906 0.405 -0.124
vn 0.364 0.927 0.093
vn 0.506 0.806 0.307
vn 0.279 0.905 0.320
vn 0.910 0.268 0.316
vn -0.793 0.575 -0.201
vn -0.571 0.791 -0.220
vn -0.102 -0.414 0.905
vn 0.751 -0.167 0.639
vn -0.839 0.012 0.544
vn -0.889 -0.030 0.457
vn -0.116 -0.449 0.886
vn -0.568 -0.353 0.743
vn -0.396 -0.310 0.864
vn 0.798 -0.191 0.572
vn 0.473 -0.518 0.713
vn 0.343 -0.337 0.877
vn 0.823 -0.186 0.537
vn 0.957 0.097 0.272
vn -0.676 0.537 -0.505
vn -0.928 0.364 -0.075
vn -0.982 0.176 0.061
vn -0.196 0.724 -0.661
vn -0.412 0.714 -0.567
vn 0.273 0.748 -0.605
vn 0.092 0.798 -0.596
vn 0.787 0.574 -0.226
vn 0.908 0.357 -0.217
vn 0.983 0.183 -0.033
vn -0.674 0.522 -0.523
vn -0.383 0.564 -0.732
vn -0.169 0.649 -0.742
vn 0.107 0.624 -0.774
vn 0.302 0.661 -0.686
vn 0.736 0.426 -0.526
vn -0.874 0.296 0.385
vn 0.415 0.892 -0.178
vn -0.866 0.338 0.367
vn -0.800 0.344 0.491
vn -0.820 0.391 0.418
vn -0.450 0.892 -0.046
vn 0.979 0.166 0.117
vn 0.392 0.915 -0.096
vn 0.460 0.888 -0.020
vn 0.951 0.148 0.272
vn -0.873 0.485 0.049
vn -0.492 0.805 -0.332
vn -0.410 0.854 -0.319
vn 0.079 0.859 -0.506
vn 0.526 0.814 -0.248
vn 0.792 0.575 -0.206
vn -0.953 0.228 -0.202
vn 0.266 0.888 -0.376
vn -0.262 0.654 -0.710
vn 0.964 0.245 -0.104
vn -0.952 0.247 0.178
vn -0.310 0.713 0.629
vn 0.257 0.357 0.898
vn 0.955 0.080 0.285
vn -0.962 -0.202 -0.182
vn 0.300 -0.369 -0.880
vn -0.278 -0.713 -0.644
vn 0.950 -0.148 -0.275
vn -0.962 -0.183 0.202
vn -0.315 -0.637 0.704
vn 0.245 -0.893 0.377
vn 0.947 -0.295 0.125

# Facets
f 1//1 3//1 2//1
f 4//2 3//2 5//2
f 4//3 2//3 3//3
f 6//4 4//4 5//4
f 1//5 7//5 3//5
f 1//6 8//6 7//6
f 9//7 5//7 3//7
f 7//8 9//8 3//8
f 5//9 10//9 6//9
f 5//10 9//10 10//10
f 11//11 7//11 8//11
f 11//12 9//12 7//12
f 11//13 12//13 9//13
f 12//14 10//14 9//14
f 13//15 15//15 14//15
f 16//16 15//16 17//16
f 16//17 14//17 15//17
f 18//18 16//18 17//18
f 13//19 19//19 15//19
f 13//20 20//20 19//20
f 21//21 17//21 15//21
f 19//22 21//22 15//22
f 17//23 22//23 18//23
f 17//24 21//24 22//24
f 23//25 19//25 20//25
f 23//26 21//26 19//26
f 23//27 24//27 21//27
f 24//28 22//28 21//28
f 25//29 2//29 26//29
f 25//30 1//30 2//30
f 26//31 28//31 27//31
f 4//32 28//32 26//32
f 2//33 4//33 26//33
f 28//34 4//34 6//34
f 8//35 30//35 29//35
f 25//36 30//36 8//36
f 1//37 25//37 8//37
f 30//38 27//38 29//38
f 29//39 27//39 28//39
f 29//40 28//40 31//40
f 31//41 6//41 10//41
f 31//42 28//42 6//42
f 11//43 8//43 29//43
f 29//44 12//44 11//44
f 29//45 31//45 12//45
f 31//46 10//46 12//46
f 13//47 14//47 32//47
f 33//48 14//48 16//48
f 33//49 32//49 14//49
f 33//50 16//50 18//50
f 20//51 32//51 34//51
f 20//52 13//52 32//52
f 32//53 33//53 35//53
f 32//54 35//54 34//54
f 35//55 18//55 22//55
f 35//56 33//56 18//56
f 23//57 20//57 34//57
f 34//58 24//58 23//58
f 34//59 35//59 24//59
f 35//60 22//60 24//60
f 25//61 26//61 36//61
f 36//62 26//62 27//62
f 30//63 25//63 36//63
f 36//64 27//64 30//64
f 37//65 39//65 38//65
f 40//66 38//66 39//66
f 37//67 41//67 39//67
f 37//68 42//68 41//68
f 39//69 43//69 40//69
f 39//70 41//70 43//70
f 44//71 41//71 42//71
f 44//72 43//72 41//72
f 45//73 38//73 46//73
f 45//74 37//74 38//74
f 40//75 46//75 38//75
f 40//76 47//76 46//76
f 42//77 37//77 45//77
f 42//78 45//78 48//78
f 47//79 40//79 43//79
f 49//80 47//80 43//80
f 50//81 42//81 48//81
f 50//82 44//82 42//82
f 44//83 49//83 43//83
f 44//84 50//84 49//84
f 45//85 46//85 51//85
f 51//86 46//86 47//86
f 48//87 51//87 52//87
f 48//88 45//88 51//88
f 52//89 47//89 49//89
f 52//90 51//90 47//90
f 50//91 48//91 52//91
f 52//92 49//92 50//92
f 53//93 55//93 54//93
f 56//94 54//94 55//94
f 57//95 59//95 58//95
f 59//96 53//96 58//96
f 55//97 53//97 59//97
f 60//98 55//98 59//98
f 55//99 61//99 56//99
f 55//100 60//100 61//100
f 62//101 59//101 57//101
f 63//102 62//102 64//102
f 59//103 62//103 63//103
f 60//104 59//104 63//104
f 60//105 65//105 61//105
f 60//106 63//106 65//106
f 66//107 63//107 64//107
f 66//108 65//108 63//108
f 53//109 54//109 67//109
f 67//110 54//110 56//110
f 68//111 58//111 69//111
f 68//112 57//112 58//112
f 53//113 67//113 58//113
f 58//114 67//114 70//114
f 58//115 70//115 69//115
f 56//116 70//116 67//116
f 71//117 70//117 56//117
f 61//118 71//118 56//118
f 72//119 57//119 68//119
f 72//120 62//120 57//120
f 62//121 72//121 64//121
f 72//122 73//122 64//122
f 71//123 61//123 65//123
f 74//124 71//124 65//124
f 75//125 64//125 73//125
f 75//126 66//126 64//126
f 66//127 74//127 65//127
f 66//128 75//128 74//128
f 68//129 69//129 76//129
f 77//130 69//130 70//130
f 77//131 76//131 69//131
f 77//132 70//132 71//132
f 72//133 68//133 76//133
f 76//134 73//134 72//134
f 78//135 73//135 76//135
f 77//136 78//136 76//136
f 78//137 71//137 74//137
f 78//138 77//138 71//138
f 75//139 73//139 78//139
f 78//140 74//140 75//140
f 79//141 81//141 80//141
f 82//142 80//142 81//142
f 79//143 83//143 81//143
f 79//144 84//144 83//144
f 81//145 85//145 82//145
f 81//146 83//146 85//146
f 86//147 83//147 84//147
f 86//148 85//148 83//148
f 87//149 89//149 88//149
f 90//150 88//150 89//150
f 91//151 89//151 87//151
f 91//152 90//152 89//152
f 92//153 94//153 93//153
f 95//154 93//154 94//154
f 96//155 94//155 92//155
f 96//156 95//156 94//156
f 97//157 80//157 98//157
f 97//158 79//158 80//158
f 82//159 98//159 80//159
f 82//160 99//160 98//160
f 84//161 79//161 97//161
f 84//162 97//162 100//162
f 99//163 82//163 85//163
f 101//164 99//164 85//164
f 102//165 84//165 100//165
f 102//166 86//166 84//166
f 86//167 101//167 85//167
f 86//168 102//168 101//168
f 87//169 88//169 103//169
f 103//170 88//170 90//170
f 91//171 87//171 103//171
f 103//172 90//172 91//172
f 104//173 106//173 105//173
f 107//174 105//174 106//174
f 104//175 108//175 106//175
f 104//176 109//176 108//176
f 106//177 110//177 107//177
f 106//178 108//178 110//178
f 111//179 108//179 109//179
f 111//180 110//180 108//180
f 112//181 114//181 113//181
f 115//182 113//182 114//182
f 116//183 118//183 117//183
f 118//184 112//184 117//184
f 118//185 114//185 112//185
f 92//186 114//186 118//186
f 93//187 114//187 92//187
f 119//188 95//188 120//188
f 119//189 93//189 95//189
f 115//190 93//190 119//190
f 114//191 93//191 115//191
f 121//192 119//192 120//192
f 122//193 118//193 116//193
f 123//194 124//194 122//194
f 124//195 96//195 122//195
f 122//196 96//196 118//196
f 118//197 96//197 92//197
f 125//198 96//198 124//198
f 125//199 95//199 96//199
f 126//200 95//200 125//200
f 120//201 95//201 126//201
f 126//202 121//202 120//202
f 127//203 124//203 123//203
f 127//204 125//204 124//204
f 97//205 98//205 128//205
f 128//206 98//206 99//206
f 100//207 128//207 129//207
f 100//208 97//208 128//208
f 129//209 99//209 101//209
f 129//210 128//210 99//210
f 102//211 100//211 129//211
f 129//212 101//212 102//212
f 130//213 132//213 131//213
f 133//214 131//214 132//214
f 130//215 105//215 132//215
f 104//216 105//216 130//216
f 134//217 104//217 130//217
f 135//218 107//218 136//218
f 135//219 105//219 107//219
f 133//220 105//220 135//220
f 132//221 105//221 133//221
f 137//222 135//222 136//222
f 109//223 104//223 134//223
f 109//224 134//224 138//224
f 139//225 136//225 110//225
f 136//226 107//226 110//226
f 136//227 140//227 137//227
f 136//228 139//228 140//228
f 109//229 141//229 111//229
f 142//230 141//230 109//230
f 138//231 142//231 109//231
f 110//232 111//232 139//232
f 139//233 111//233 141//233
f 139//234 141//234 143//234
f 139//235 144//235 140//235
f 139//236 143//236 144//236
f 145//237 141//237 142//237
f 145//238 143//238 141//238
f 145//239 146//239 143//239
f 146//240 144//240 143//240
f 147//241 149//241 148//241
f 113//242 149//242 112//242
f 148//243 149//243 113//243
f 150//244 148//244 113//244
f 151//245 115//245 152//245
f 113//246 115//246 151//246
f 150//247 113//247 151//247
f 153//248 151//248 152//248
f 147//249 117//249 149//249
f 116//250 117//250 147//250
f 154//251 116//251 147//251
f 117//252 112//252 149//252
f 152//253 115//253 119//253
f 121//254 152//254 119//254
f 153//255 152//255 121//255
f 155//256 153//256 121//256
f 156//257 116//257 154//257
f 156//258 122//258 116//258
f 122//259 156//259 123//259
f 156//260 157//260 123//260
f 158//261 126//261 159//261
f 126//262 125//262 159//262
f 126//263 155//263 121//263
f 126//264 158//264 155//264
f 160//265 123//265 157//265
f 160//266 127//266 123//266
f 127//267 159//267 125//267
f 127//268 160//268 159//268
f 161//269 131//269 162//269
f 161//270 130//270 131//270
f 133//271 162//271 131//271
f 133//272 163//272 162//272
f 134//273 130//273 161//273
f 134//274 161//274 164//274
f 163//275 133//275 165//275
f 133//276 135//276 165//276
f 137//277 165//277 135//277
f 137//278 166//278 165//278
f 138//279 134//279 164//279
f 138//280 164//280 167//280
f 168//281 170//281 169//281
f 166//282 170//282 168//282
f 140//283 170//283 166//283
f 137//284 140//284 166//284
f 142//285 172//285 171//285
f 167//286 172//286 142//286
f 138//287 167//287 142//287
f 172//288 169//288 171//288
f 171//289 169//289 170//289
f 171//290 170//290 173//290
f 173//291 140//291 144//291
f 173//292 170//292 140//292
f 145//293 142//293 171//293
f 171//294 146//294 145//294
f 171//295 173//295 146//295
f 173//296 144//296 146//296
f 174//297 148//297 175//297
f 174//298 147//298 148//298
f 148//299 150//299 176//299
f 175//300 148//300 176//300
f 150//301 151//301 177//301
f 176//302 150//302 177//302
f 153//303 177//303 151//303
f 153//304 178//304 177//304
f 154//305 147//305 174//305
f 154//306 174//306 179//306
f 178//307 153//307 155//307
f 180//308 178//308 155//308
f 181//309 154//309 179//309
f 181//310 156//310 154//310
f 182//311 157//311 183//311
f 183//312 157//312 156//312
f 183//313 156//313 181//313
f 159//314 182//314 158//314
f 158//315 182//315 183//315
f 158//316 183//316 184//316
f 158//317 180//317 155//317
f 158//318 184//318 180//318
f 160//319 157//319 182//319
f 182//320 159//320 160//320
f 161//321 162//321 185//321
f 185//322 162//322 163//322
f 164//323 185//323 186//323
f 164//324 161//324 185//324
f 187//325 163//325 165//325
f 185//326 163//326 187//326
f 186//327 185//327 187//327
f 187//328 165//328 166//328
f 167//329 186//329 188//329
f 167//330 164//330 186//330
f 188//331 168//331 169//331
f 187//332 168//332 188//332
f 186//333 187//333 188//333
f 187//334 166//334 168//334
f 172//335 167//335 188//335
f 188//336 169//336 172//336
f 189//337 191//337 190//337
f 192//338 190//338 191//338
f 193//339 175//339 194//339
f 193//340 174//340 175//340
f 191//341 189//341 176//341
f 176//342 189//342 194//342
f 176//343 194//343 175//343
f 192//344 191//344 195//344
f 195//345 191//345 176//345
f 195//346 176//346 177//346
f 178//347 195//347 177//347
f 178//348 196//348 195//348
f 179//349 198//349 197//349
f 193//350 198//350 179//350
f 174//351 193//351 179//351
f 199//352 197//352 200//352
f 197//353 198//353 200//353
f 201//354 199//354 202//354
f 199//355 200//355 202//355
f 196//356 201//356 202//356
f 180//357 201//357 196//357
f 178//358 180//358 196//358
f 181//359 179//359 197//359
f 197//360 183//360 181//360
f 197//361 199//361 183//361
f 199//362 184//362 183//362
f 199//363 201//363 184//363
f 201//364 180//364 184//364
f 189//365 190//365 203//365
f 203//366 190//366 192//366
f 193//367 194//367 204//367
f 203//368 194//368 189//368
f 204//369 194//369 203//369
f 205//370 204//370 203//370
f 206//371 192//371 195//371
f 203//372 192//372 206//372
f 205//373 203//373 206//373
f 206//374 195//374 196//374
f 198//375 193//375 204//375
f 204//376 200//376 198//376
f 204//377 205//377 200//377
f 205//378 202//378 200//378
f 205//379 206//379 202//379
f 206//380 196//380 202//380
f 207//381 209//381 208//381
f 210//382 209//382 211//382
f 210//383 208//383 209//383
f 212//384 210//384 211//384
f 213//385 209//385 207//385
f 213//386 211//386 209//386
f 213//387 214//387 211//387
f 214//388 212//388 211//388
f 207//389 208//389 215//389
f 216//390 208//390 210//390
f 216//391 215//391 208//391
f 216//392 210//392 212//392
f 213//393 207//393 215//393
f 215//394 214//394 213//394
f 215//395 216//395 214//395
f 216//396 212//396 214//396

# Thankyou for using Spin3D

