# Created using Spin3D

# Vertex Array
v 31.394 -23.038 -22.249
v 31.390 -23.035 -22.252
v 31.440 -23.085 -22.312
v 31.440 -23.091 -22.320
v 31.467 -23.116 -22.348
v 31.452 -23.106 -22.336
v 31.442 -23.091 -22.312
v 31.458 -23.110 -22.337
v 31.338 -22.982 -22.184
v 31.311 -22.957 -22.157
v 31.338 -22.983 -22.189
v 31.330 -22.979 -22.181
v 31.354 -23.000 -22.198
v 31.392 -23.044 -22.260
v 31.425 -23.082 -22.300
v 31.395 -23.043 -22.249
v 31.414 -23.069 -22.280
v 31.328 -22.976 -22.171
v 31.365 -23.015 -22.212
v 31.368 -23.024 -22.227
v 50.806 -27.132 51.512
v 50.806 -27.135 51.509
v 50.805 -27.131 51.514
v 50.805 -27.133 51.511
v 50.806 -27.128 51.515
v 50.806 -27.129 51.513
v 50.805 -27.131 51.513
v 50.805 -27.127 51.515
v 50.806 -27.134 51.509
v 50.805 -27.134 51.506
v 50.805 -27.133 51.508
v 50.805 -27.130 51.511
v 50.806 -27.132 51.509
v 50.806 -27.134 51.505
v 13.976 3.057 25.019
v 14.255 2.916 25.247
v 14.110 3.001 24.996
v 14.291 3.011 25.167
v 13.256 3.661 24.271
v 13.467 3.549 24.604
v 13.650 3.320 24.595
v 13.779 3.340 24.540
v 14.057 3.267 24.794
v 13.118 3.965 23.865
v 13.635 3.670 24.277
v 14.005 3.201 25.106
v 14.257 3.090 25.239
v 14.065 3.464 24.907
v 12.640 4.381 23.794
v 12.931 4.225 24.124
v 12.920 4.050 23.999
v 13.561 3.785 24.711
v 13.784 3.736 24.438
v 12.622 4.497 23.511
v 12.522 4.698 23.067
v 12.604 4.526 23.157
v 12.740 4.477 23.212
v 13.167 4.278 23.754
v 12.526 4.672 22.944
v 14.007 3.447 25.046
v 12.603 4.511 23.748
v 12.744 4.595 23.781
v 13.169 4.367 24.248
v 13.666 3.970 24.649
v 13.574 4.121 24.329
v 12.658 4.649 23.123
v 12.755 4.671 23.468
v 13.144 4.544 23.890
v -10.153 9.070 33.757
v -10.152 9.070 33.755
v -10.152 9.072 33.756
v -10.151 9.071 33.755
v -10.151 9.072 33.757
v -10.150 9.070 33.757
v -10.152 9.070 33.758
v -10.151 9.069 33.758
v 12.976 4.654 23.886
v 13.312 4.437 24.213
v -10.152 9.068 33.757
v -10.151 9.068 33.756
v -5.300 45.116 73.221
v -5.299 45.115 73.223
v -5.299 45.114 73.221
v -5.298 45.116 73.221
v -5.299 45.116 73.220
v -5.299 45.117 73.222

# Normal Array
vn 0.696 0.718 -0.024
vn 0.072 0.777 -0.625
vn 0.020 0.779 -0.627
vn -0.064 0.713 -0.699
vn 0.863 0.283 0.419
vn 0.866 0.283 0.413
vn 0.459 -0.548 0.699
vn -0.554 -0.832 0.006
vn 0.637 0.766 -0.085
vn -0.614 0.285 -0.736
vn 0.654 0.753 -0.080
vn 0.695 0.719 -0.022
vn 0.807 0.547 0.222
vn -0.588 0.336 -0.736
vn -0.293 0.603 -0.742
vn -0.345 0.586 -0.733
vn -0.626 0.289 -0.725
vn -0.839 -0.177 -0.515
vn 0.825 0.119 0.553
vn 0.836 0.120 0.535
vn 0.189 -0.728 0.659
vn 0.397 -0.563 0.725
vn -0.532 -0.833 0.153
vn -0.317 -0.871 0.375
vn 0.812 0.358 0.461
vn -0.741 -0.671 0.034
vn 0.285 -0.555 0.782
vn 0.811 0.369 0.454
vn -0.850 -0.231 -0.474
vn -0.743 -0.669 0.033
vn -0.513 -0.800 0.309
vn -0.849 -0.225 -0.478
vn 0.644 -0.252 0.723
vn 0.251 -0.657 0.711
vn -0.431 -0.833 0.348
vn -0.562 -0.801 0.207
vn 0.693 -0.563 0.449
vn -0.708 -0.591 0.387
vn 0.853 -0.290 0.433
vn 0.958 0.222 -0.181
vn -0.973 -0.030 0.228
vn -0.921 0.180 0.347
vn 0.672 0.620 -0.405
vn -0.241 -0.359 0.902
vn 0.908 -0.302 -0.292
vn 0.972 -0.233 -0.043
vn -0.861 -0.493 0.126
vn -0.961 0.233 -0.149
vn 0.243 0.822 -0.516
vn 0.998 0.007 -0.059
vn 0.851 0.313 -0.421
vn -0.146 0.770 -0.621
vn -0.998 0.056 0.014
vn -0.856 0.494 -0.152
vn 0.447 0.694 -0.564
vn -1.000 0.025 0.006
vn 0.090 -0.993 0.074
vn -0.613 0.610 -0.502
vn 1.000 0.003 -0.026
vn -0.334 0.788 -0.517
vn -0.399 -0.914 -0.079
vn 0.540 -0.651 -0.533
vn -0.747 -0.607 0.270
vn -0.761 -0.616 0.203
vn -0.412 -0.882 -0.230
vn -0.105 -0.833 -0.543
vn 0.646 -0.377 -0.663
vn 0.539 -0.440 -0.718
vn -0.281 -0.811 -0.513
vn -0.136 -0.789 -0.599
vn 0.363 -0.478 -0.800
vn 0.587 -0.331 -0.739
vn -0.450 0.046 0.892
vn -0.687 -0.269 0.675
vn 0.909 0.005 0.416
vn 0.904 0.425 -0.045
vn -0.781 -0.334 0.529
vn -0.816 -0.445 0.369
vn -0.818 -0.303 0.489
vn -0.698 -0.047 0.714
vn -0.740 -0.232 0.632
vn -0.698 -0.048 0.715
vn 0.887 0.205 -0.415
vn 0.887 0.205 -0.413
vn -0.657 -0.712 -0.250
vn -0.904 -0.427 0.009
vn -0.724 -0.689 -0.021
vn -0.558 -0.753 -0.348
vn -0.564 -0.741 -0.364
vn -0.043 -0.798 -0.601
vn 0.674 -0.340 -0.656
vn 0.445 -0.362 -0.819
vn 0.747 -0.065 -0.662
vn 0.738 -0.013 -0.675
vn -0.912 -0.407 0.054
vn -0.080 -0.836 -0.544
vn -0.377 0.223 0.899
vn 0.661 0.659 0.359
vn -0.748 0.014 0.664
vn -0.456 0.470 0.755
vn -0.592 0.367 0.718
vn -0.560 0.251 0.790
vn -0.479 0.212 0.852
vn -0.291 0.451 0.844
vn -0.307 0.457 0.835
vn 0.637 0.685 0.353
vn 0.759 0.645 0.087
vn 0.872 0.391 -0.296
vn -0.953 -0.297 -0.059
vn 0.397 0.902 -0.170
vn -0.663 0.615 0.427
vn -0.772 0.623 0.124
vn -0.496 0.864 -0.089
vn 0.795 0.064 -0.603
vn 0.754 0.606 -0.252
vn 0.739 0.358 -0.571
vn 0.815 0.304 -0.494
vn 0.812 0.321 -0.487
vn 0.399 0.899 -0.178
vn 0.808 0.081 -0.583
vn -0.942 0.224 -0.249
vn 0.282 0.882 -0.377
vn -0.291 0.638 -0.712
vn 0.964 0.246 -0.105
vn -0.953 0.247 0.177
vn -0.243 0.726 0.643
vn 0.262 0.404 0.877
vn 0.962 0.114 0.247
vn -0.453 0.566 0.689
vn -0.119 0.627 0.770
vn -0.188 0.719 0.669
vn 0.748 0.656 0.096
vn -0.328 0.921 0.211
vn 0.538 0.804 -0.251
vn 0.552 0.834 -0.011
vn 0.789 0.574 -0.221
vn -0.953 -0.201 -0.227
vn 0.256 -0.383 -0.887
vn -0.310 -0.699 -0.644
vn 0.955 -0.146 -0.260
vn -0.962 -0.182 0.203
vn -0.293 -0.638 0.712
vn 0.269 -0.894 0.358
vn 0.952 -0.295 0.086
vn -0.592 -0.654 0.470
vn 0.589 -0.660 0.466
vn -0.569 -0.439 -0.695
vn 0.569 -0.450 -0.688
vn -0.587 0.476 0.655
vn 0.594 0.462 0.659
vn -0.568 0.655 -0.498
vn 0.578 0.646 -0.499

# Facets
f 1//1 3//1 2//1
f 4//2 3//2 5//2
f 4//3 2//3 3//3
f 6//4 4//4 5//4
f 7//5 3//5 1//5
f 7//6 5//6 3//6
f 7//7 8//7 5//7
f 8//8 6//8 5//8
f 9//9 11//9 10//9
f 12//10 10//10 11//10
f 9//11 2//11 11//11
f 1//12 2//12 9//12
f 13//13 1//13 9//13
f 12//14 11//14 14//14
f 14//15 11//15 2//15
f 14//16 2//16 4//16
f 6//17 14//17 4//17
f 6//18 15//18 14//18
f 16//19 1//19 13//19
f 16//20 7//20 1//20
f 17//21 8//21 7//21
f 17//22 7//22 16//22
f 8//23 15//23 6//23
f 8//24 17//24 15//24
f 9//25 10//25 18//25
f 18//26 10//26 12//26
f 13//27 18//27 19//27
f 13//28 9//28 18//28
f 20//29 12//29 14//29
f 18//30 12//30 20//30
f 19//31 18//31 20//31
f 20//32 14//32 15//32
f 16//33 13//33 19//33
f 19//34 17//34 16//34
f 19//35 20//35 17//35
f 20//36 15//36 17//36
f 21//37 23//37 22//37
f 24//38 22//38 23//38
f 21//39 25//39 23//39
f 21//40 26//40 25//40
f 23//41 27//41 24//41
f 23//42 25//42 27//42
f 28//43 25//43 26//43
f 28//44 27//44 25//44
f 29//45 22//45 30//45
f 29//46 21//46 22//46
f 24//47 30//47 22//47
f 24//48 31//48 30//48
f 26//49 33//49 32//49
f 29//50 33//50 26//50
f 21//51 29//51 26//51
f 31//52 32//52 33//52
f 27//53 32//53 31//53
f 24//54 27//54 31//54
f 28//55 26//55 32//55
f 32//56 27//56 28//56
f 29//57 30//57 34//57
f 34//58 30//58 31//58
f 33//59 29//59 34//59
f 34//60 31//60 33//60
f 35//61 37//61 36//61
f 38//62 36//62 37//62
f 39//63 41//63 40//63
f 41//64 35//64 40//64
f 37//65 35//65 41//65
f 42//66 37//66 41//66
f 37//67 43//67 38//67
f 37//68 42//68 43//68
f 44//69 41//69 39//69
f 44//70 42//70 41//70
f 44//71 45//71 42//71
f 45//72 43//72 42//72
f 46//73 36//73 47//73
f 46//74 35//74 36//74
f 38//75 47//75 36//75
f 38//76 48//76 47//76
f 49//77 51//77 50//77
f 40//78 51//78 39//78
f 50//79 51//79 40//79
f 52//80 50//80 40//80
f 35//81 46//81 40//81
f 46//82 52//82 40//82
f 48//83 38//83 43//83
f 53//84 48//84 43//84
f 54//85 51//85 49//85
f 55//86 56//86 54//86
f 56//87 44//87 54//87
f 54//88 44//88 51//88
f 51//89 44//89 39//89
f 56//90 57//90 44//90
f 44//91 57//91 58//91
f 44//92 58//92 45//92
f 45//93 53//93 43//93
f 45//94 58//94 53//94
f 59//95 56//95 55//95
f 59//96 57//96 56//96
f 46//97 47//97 60//97
f 60//98 47//98 48//98
f 49//99 50//99 61//99
f 50//100 62//100 61//100
f 63//101 62//101 50//101
f 52//102 63//102 50//102
f 46//103 60//103 52//103
f 52//104 60//104 64//104
f 52//105 64//105 63//105
f 48//106 64//106 60//106
f 65//107 64//107 48//107
f 53//108 65//108 48//108
f 54//109 49//109 61//109
f 66//110 55//110 67//110
f 55//111 54//111 67//111
f 67//112 54//112 62//112
f 62//113 54//113 61//113
f 57//114 66//114 58//114
f 58//115 66//115 67//115
f 58//116 67//116 68//116
f 58//117 65//117 53//117
f 58//118 68//118 65//118
f 59//119 55//119 66//119
f 66//120 57//120 59//120
f 69//121 71//121 70//121
f 72//122 71//122 73//122
f 72//123 70//123 71//123
f 74//124 72//124 73//124
f 75//125 71//125 69//125
f 75//126 73//126 71//126
f 75//127 76//127 73//127
f 76//128 74//128 73//128
f 62//129 63//129 77//129
f 78//130 63//130 64//130
f 78//131 77//131 63//131
f 78//132 64//132 65//132
f 67//133 62//133 77//133
f 77//134 68//134 67//134
f 77//135 78//135 68//135
f 78//136 65//136 68//136
f 69//137 70//137 79//137
f 80//138 70//138 72//138
f 80//139 79//139 70//139
f 80//140 72//140 74//140
f 75//141 69//141 79//141
f 79//142 76//142 75//142
f 79//143 80//143 76//143
f 80//144 74//144 76//144
f 81//145 83//145 82//145
f 84//146 82//146 83//146
f 85//147 83//147 81//147
f 85//148 84//148 83//148
f 81//149 82//149 86//149
f 86//150 82//150 84//150
f 85//151 81//151 86//151
f 86//152 84//152 85//152

# Thankyou for using Spin3D

