# Created using Spin3D

# Vertex Array
v 5.733 -36.072 29.500
v 5.735 -36.072 29.501
v 5.735 -36.074 29.499
v 5.736 -36.072 29.500
v 5.735 -36.072 29.498
v 5.735 -36.071 29.500
v 41.660 -22.963 -24.362
v 41.933 -22.480 -24.052
v 42.593 -23.332 -24.605
v 42.964 -23.076 -24.338
v 40.973 -22.014 -24.465
v 41.087 -22.533 -24.335
v 41.759 -23.012 -24.680
v 42.535 -23.246 -24.935
v 43.407 -23.403 -24.639
v 43.267 -23.351 -24.910
v 43.689 -23.085 -24.738
v 41.876 -22.546 -24.881
v 42.806 -22.803 -25.025
v 43.461 -22.875 -24.949
v 40.476 -21.380 -23.942
v 40.720 -20.896 -23.553
v 41.090 -22.232 -24.034
v 41.651 -21.482 -23.692
v 42.615 -22.085 -24.010
v 43.458 -22.985 -24.430
v 43.412 -22.341 -24.404
v 40.176 -20.467 -23.943
v 43.544 -22.450 -24.733
v 41.091 -21.272 -24.519
v 42.072 -21.893 -24.854
v 42.834 -21.890 -24.779
v 24.023 -24.275 11.791
v 24.021 -24.276 11.791
v 24.021 -24.274 11.791
v 24.019 -24.276 11.791
v 24.021 -24.274 11.790
v 24.023 -24.276 11.789
v 24.019 -24.275 11.789
v 24.021 -24.275 11.789
v -36.891 -18.406 -18.575
v -36.895 -18.406 -18.578
v -36.891 -18.406 -18.577
v -36.894 -18.407 -18.579
v -36.886 -18.408 -18.570
v -36.889 -18.407 -18.573
v -36.888 -18.406 -18.572
v -36.888 -18.406 -18.575
v -36.890 -18.406 -18.578
v -36.886 -18.407 -18.571
v -36.886 -18.407 -18.574
v 39.662 -19.542 -23.299
v 39.576 -18.708 -22.873
v 41.178 -20.150 -23.438
v 41.945 -20.301 -23.897
v 42.618 -21.289 -24.011
v 39.430 -18.740 -23.260
v 42.995 -21.517 -24.407
v 42.255 -20.737 -24.331
v 40.345 -19.874 -23.953
v 41.459 -20.542 -24.344
v 51.374 -16.353 -29.327
v 51.375 -16.354 -29.329
v 51.375 -16.353 -29.327
v 51.377 -16.355 -29.330
v 51.375 -16.354 -29.324
v 51.374 -16.358 -29.323
v 51.377 -16.356 -29.325
v 51.375 -16.358 -29.321
v 24.021 -24.278 11.790
v 24.021 -24.277 11.789
v 18.210 -17.802 -8.495
v 18.208 -17.803 -8.494
v 18.207 -17.801 -8.495
v 18.206 -17.803 -8.495
v 18.208 -17.801 -8.496
v 18.210 -17.803 -8.497
v 18.206 -17.802 -8.496
v 18.208 -17.802 -8.497
v -36.892 -18.407 -18.577
v -36.887 -18.407 -18.574
v -36.889 -18.407 -18.576
v 38.139 -16.620 -22.156
v 38.577 -17.102 -22.329
v 38.665 -17.538 -22.551
v 39.534 -18.023 -22.737
v 39.381 -17.718 -22.795
v 40.554 -18.923 -23.315
v 38.172 -16.654 -22.213
v 38.734 -17.267 -22.578
v 40.086 -18.772 -23.435
v 41.312 -19.717 -23.891
v 51.374 -16.357 -29.327
v 51.375 -16.357 -29.329
v 51.376 -16.359 -29.326
v 51.374 -16.363 -29.324
v 51.377 -16.361 -29.321
v 51.375 -16.361 -29.321
v 18.208 -17.805 -8.495
v 18.207 -17.805 -8.497
v 38.204 -16.574 -22.174
v 38.681 -17.010 -22.384
v 51.375 -16.362 -29.326
v 51.375 -16.362 -29.323

# Normal Array
vn -0.576 -0.645 0.502
vn 0.532 -0.672 0.515
vn -0.601 -0.478 -0.641
vn 0.574 -0.507 -0.643
vn -0.553 0.481 0.680
vn 0.583 0.457 0.672
vn -0.544 0.683 -0.488
vn 0.592 0.656 -0.468
vn 0.005 -0.542 0.840
vn -0.137 -0.612 0.779
vn -0.603 -0.317 -0.732
vn -0.602 -0.795 -0.067
vn -0.360 -0.932 0.030
vn -0.338 -0.924 -0.181
vn -0.031 -0.699 0.715
vn -0.093 -0.986 -0.141
vn -0.131 -0.965 -0.228
vn 0.599 -0.669 -0.440
vn -0.515 -0.227 -0.827
vn -0.375 -0.286 -0.882
vn -0.177 -0.092 -0.980
vn 0.005 -0.203 -0.979
vn 0.101 -0.123 -0.987
vn 0.505 -0.274 -0.819
vn -0.450 -0.410 0.793
vn -0.124 -0.485 0.866
vn -0.085 -0.358 0.930
vn -0.088 -0.359 0.929
vn 0.219 -0.236 0.947
vn 0.104 -0.280 0.955
vn 0.120 -0.306 0.944
vn 0.442 -0.004 0.897
vn -0.656 -0.531 0.536
vn -0.845 -0.298 -0.443
vn -0.841 -0.277 -0.465
vn -0.445 -0.631 0.635
vn 0.243 -0.458 0.855
vn 0.667 -0.397 0.630
vn 0.805 0.034 0.593
vn 0.930 0.211 0.302
vn -0.520 0.020 -0.854
vn -0.418 -0.000 -0.908
vn -0.132 0.080 -0.988
vn -0.254 0.115 -0.960
vn 0.139 0.253 -0.957
vn 0.093 0.256 -0.962
vn 0.751 0.177 -0.636
vn 0.348 0.370 -0.861
vn 0.175 0.084 0.981
vn -0.254 -0.002 0.967
vn 0.523 0.759 0.389
vn 0.809 0.543 -0.224
vn -0.817 0.451 0.361
vn -0.482 0.861 -0.163
vn 0.278 0.325 -0.904
vn -0.142 0.435 -0.889
vn 0.014 0.987 0.159
vn 0.233 0.348 -0.908
vn -0.699 0.262 0.666
vn -0.658 0.011 0.753
vn -0.045 0.987 0.156
vn -0.485 0.784 0.388
vn -0.194 0.952 -0.239
vn 0.030 0.994 -0.104
vn -0.539 0.503 0.676
vn -0.209 0.910 0.358
vn 0.491 0.869 -0.053
vn 0.546 0.751 -0.371
vn -0.384 -0.451 0.806
vn -0.385 -0.452 0.805
vn 0.036 -0.175 0.984
vn 0.132 -0.231 0.964
vn 0.534 0.271 0.801
vn 0.369 -0.001 0.929
vn 0.259 -0.092 0.961
vn 0.443 -0.001 0.897
vn -0.907 -0.298 -0.296
vn -0.897 -0.241 -0.370
vn 0.759 0.465 0.456
vn 0.704 0.686 -0.186
vn 0.873 0.442 0.203
vn 0.768 0.390 0.507
vn -0.495 0.127 -0.860
vn -0.455 0.115 -0.883
vn -0.135 0.296 -0.946
vn -0.149 0.302 -0.942
vn 0.469 0.515 -0.717
vn 0.114 0.409 -0.905
vn 0.088 0.387 -0.918
vn 0.459 0.521 -0.719
vn -0.346 0.707 -0.617
vn 0.307 0.797 -0.520
vn 0.223 0.944 0.243
vn -0.719 0.354 0.598
vn 0.815 0.550 0.183
vn 0.878 0.475 0.058
vn -0.816 0.373 0.442
vn 0.819 0.290 0.495
vn 0.263 -0.327 0.908
vn -0.150 -0.410 0.899
vn 0.499 -0.771 -0.395
vn 0.791 -0.566 0.233
vn -0.817 -0.451 -0.361
vn -0.533 -0.839 0.108
vn 0.171 -0.083 -0.982
vn -0.254 0.002 -0.967
vn 0.158 0.096 0.983
vn -0.275 0.012 0.961
vn 0.534 0.744 0.401
vn 0.819 0.542 -0.188
vn -0.820 0.454 0.349
vn -0.507 0.842 -0.183
vn 0.272 0.318 -0.908
vn -0.174 0.432 -0.885
vn -0.622 -0.520 0.585
vn -0.591 -0.690 0.417
vn -0.007 -0.988 -0.155
vn -0.727 -0.348 0.592
vn -0.005 -0.993 -0.120
vn -0.280 -0.892 0.355
vn 0.207 -0.771 -0.602
vn -0.229 -0.970 0.084
vn 0.963 -0.111 -0.246
vn 0.376 -0.925 0.056
vn 0.263 -0.947 -0.184
vn 0.488 -0.605 -0.629
vn -0.182 -0.475 0.861
vn -0.293 -0.459 0.839
vn -0.329 -0.480 0.813
vn 0.239 -0.175 0.955
vn 0.709 0.459 0.535
vn 0.635 0.250 0.731
vn 0.178 -0.181 0.967
vn 0.532 0.188 0.826
vn -0.881 -0.390 -0.266
vn -0.822 -0.212 -0.528
vn -0.611 0.076 -0.788
vn -0.511 0.043 -0.859
vn -0.230 0.317 -0.920
vn 0.131 0.577 -0.806
vn 0.378 0.652 -0.657
vn 0.380 0.752 -0.538
vn 0.656 0.713 -0.247
vn 0.672 0.730 -0.123
vn -0.223 0.371 -0.901
vn -0.072 0.410 -0.909
vn 0.052 0.488 -0.872
vn 0.134 0.495 -0.858
vn -0.872 0.123 -0.473
vn -0.806 0.020 -0.591
vn -0.232 0.080 -0.969
vn 0.701 -0.488 -0.520
vn -1.000 -0.020 -0.002
vn -0.999 0.039 0.003
vn 0.999 -0.037 0.032
vn 0.999 -0.023 -0.027
vn -0.827 -0.001 0.562
vn -0.877 -0.073 0.475
vn 0.718 0.451 0.530
vn -0.301 -0.068 0.951
vn 0.251 -0.333 0.909
vn -0.186 -0.421 0.888
vn 0.493 -0.775 -0.397
vn 0.787 -0.583 0.202
vn -0.808 -0.467 -0.359
vn -0.535 -0.838 0.112
vn 0.161 -0.101 -0.982
vn -0.266 -0.014 -0.964
vn 0.310 -0.060 0.949
vn 0.432 0.050 0.901
vn 0.436 0.044 0.899
vn 0.749 0.467 0.470
vn -0.559 0.535 -0.634
vn -0.072 0.461 -0.884
vn 0.230 0.616 -0.754
vn 0.170 0.615 -0.770
vn -0.821 -0.357 -0.445
vn 0.826 -0.301 -0.477
vn 0.288 -0.935 -0.207
vn -0.714 -0.342 -0.611
vn 0.803 -0.571 -0.171
vn 0.874 -0.485 -0.026
vn -0.292 -0.753 0.589
vn 0.294 -0.820 0.490

# Facets
f 1//1 3//1 2//1
f 4//2 2//2 3//2
f 5//3 3//3 1//3
f 5//4 4//4 3//4
f 1//5 2//5 6//5
f 6//6 2//6 4//6
f 5//7 1//7 6//7
f 6//8 4//8 5//8
f 7//9 9//9 8//9
f 10//10 8//10 9//10
f 11//11 13//11 12//11
f 13//12 7//12 12//12
f 9//13 7//13 13//13
f 14//14 9//14 13//14
f 9//15 15//15 10//15
f 16//16 15//16 9//16
f 14//17 16//17 9//17
f 17//18 15//18 16//18
f 18//19 13//19 11//19
f 18//20 14//20 13//20
f 18//21 19//21 14//21
f 19//22 16//22 14//22
f 19//23 20//23 16//23
f 20//24 17//24 16//24
f 21//25 23//25 22//25
f 8//26 23//26 7//26
f 22//27 23//27 8//27
f 24//28 22//28 8//28
f 25//29 10//29 26//29
f 8//30 10//30 25//30
f 24//31 8//31 25//31
f 27//32 25//32 26//32
f 21//33 12//33 23//33
f 11//34 12//34 21//34
f 28//35 11//35 21//35
f 12//36 7//36 23//36
f 26//37 10//37 15//37
f 17//38 26//38 15//38
f 27//39 26//39 17//39
f 29//40 27//40 17//40
f 30//41 11//41 28//41
f 30//42 18//42 11//42
f 31//43 19//43 18//43
f 31//44 18//44 30//44
f 32//45 20//45 19//45
f 32//46 19//46 31//46
f 20//47 29//47 17//47
f 20//48 32//48 29//48
f 33//49 35//49 34//49
f 36//50 34//50 35//50
f 33//51 37//51 35//51
f 33//52 38//52 37//52
f 35//53 39//53 36//53
f 35//54 37//54 39//54
f 40//55 37//55 38//55
f 40//56 39//56 37//56
f 41//57 43//57 42//57
f 44//58 42//58 43//58
f 45//59 47//59 46//59
f 47//60 41//60 46//60
f 43//61 41//61 47//61
f 48//62 43//62 47//62
f 43//63 49//63 44//63
f 43//64 48//64 49//64
f 50//65 47//65 45//65
f 50//66 48//66 47//66
f 50//67 51//67 48//67
f 51//68 49//68 48//68
f 52//69 22//69 53//69
f 52//70 21//70 22//70
f 22//71 24//71 54//71
f 53//72 22//72 54//72
f 54//73 56//73 55//73
f 25//74 56//74 54//74
f 24//75 25//75 54//75
f 56//76 25//76 27//76
f 28//77 21//77 52//77
f 28//78 52//78 57//78
f 56//79 58//79 55//79
f 58//80 59//80 55//80
f 58//81 27//81 29//81
f 58//82 56//82 27//82
f 60//83 28//83 57//83
f 60//84 30//84 28//84
f 61//85 31//85 30//85
f 61//86 30//86 60//86
f 32//87 59//87 58//87
f 61//88 59//88 32//88
f 31//89 61//89 32//89
f 58//90 29//90 32//90
f 62//91 64//91 63//91
f 65//92 63//92 64//92
f 62//93 66//93 64//93
f 62//94 67//94 66//94
f 64//95 68//95 65//95
f 64//96 66//96 68//96
f 69//97 66//97 67//97
f 69//98 68//98 66//98
f 33//99 34//99 70//99
f 70//100 34//100 36//100
f 38//101 70//101 71//101
f 38//102 33//102 70//102
f 71//103 36//103 39//103
f 71//104 70//104 36//104
f 40//105 38//105 71//105
f 71//106 39//106 40//106
f 72//107 74//107 73//107
f 75//108 73//108 74//108
f 72//109 76//109 74//109
f 72//110 77//110 76//110
f 74//111 78//111 75//111
f 74//112 76//112 78//112
f 79//113 76//113 77//113
f 79//114 78//114 76//114
f 41//115 42//115 80//115
f 80//116 42//116 44//116
f 45//117 46//117 81//117
f 80//118 46//118 41//118
f 81//119 46//119 80//119
f 82//120 81//120 80//120
f 82//121 44//121 49//121
f 82//122 80//122 44//122
f 50//123 45//123 81//123
f 81//124 51//124 50//124
f 81//125 82//125 51//125
f 82//126 49//126 51//126
f 83//127 85//127 84//127
f 53//128 85//128 52//128
f 84//129 85//129 53//129
f 86//130 84//130 53//130
f 86//131 88//131 87//131
f 54//132 88//132 86//132
f 53//133 54//133 86//133
f 88//134 54//134 55//134
f 89//135 85//135 83//135
f 52//136 85//136 57//136
f 57//137 85//137 90//137
f 90//138 85//138 89//138
f 90//139 91//139 57//139
f 90//140 87//140 91//140
f 91//141 87//141 88//141
f 91//142 88//142 92//142
f 92//143 55//143 59//143
f 92//144 88//144 55//144
f 60//145 57//145 91//145
f 91//146 61//146 60//146
f 91//147 92//147 61//147
f 92//148 59//148 61//148
f 93//149 63//149 94//149
f 93//150 62//150 63//150
f 65//151 94//151 63//151
f 65//152 95//152 94//152
f 67//153 62//153 93//153
f 67//154 93//154 96//154
f 95//155 65//155 68//155
f 97//156 95//156 68//156
f 98//157 67//157 96//157
f 98//158 69//158 67//158
f 69//159 97//159 68//159
f 69//160 98//160 97//160
f 72//161 73//161 99//161
f 99//162 73//162 75//162
f 77//163 99//163 100//163
f 77//164 72//164 99//164
f 100//165 75//165 78//165
f 100//166 99//166 75//166
f 79//167 77//167 100//167
f 100//168 78//168 79//168
f 83//169 84//169 101//169
f 102//170 84//170 86//170
f 102//171 101//171 84//171
f 102//172 86//172 87//172
f 89//173 83//173 101//173
f 101//174 90//174 89//174
f 101//175 102//175 90//175
f 102//176 87//176 90//176
f 93//177 94//177 103//177
f 103//178 94//178 95//178
f 96//179 103//179 104//179
f 96//180 93//180 103//180
f 104//181 95//181 97//181
f 104//182 103//182 95//182
f 98//183 96//183 104//183
f 104//184 97//184 98//184

# Thankyou for using Spin3D

