# Created using Spin3D

# Vertex Array
v 5.187 -6.316 15.044
v 5.186 -6.317 15.045
v 5.186 -6.317 15.048
v 5.186 -6.317 15.048
v 5.183 -6.316 15.050
v 5.182 -6.318 15.052
v 5.183 -6.317 15.048
v 5.180 -6.317 15.051
v 5.181 -6.317 15.049
v 5.179 -6.317 15.053
v 5.178 -6.318 15.052
v 5.185 -6.317 15.046
v 5.184 -6.318 15.049
v 5.182 -6.318 15.052
v 6.265 8.201 10.904
v 7.188 8.202 12.532
v 7.912 7.934 10.867
v 8.272 8.174 12.160
v 7.335 7.861 8.726
v 5.810 8.254 8.237
v 9.208 8.372 10.900
v 8.957 8.058 8.964
v 10.087 8.661 9.063
v 6.795 8.042 6.553
v 5.603 8.542 6.115
v 8.366 8.064 6.950
v 9.952 8.690 7.275
v 6.429 8.451 5.179
v 5.767 8.954 4.907
v 7.646 8.397 5.381
v 8.967 8.627 5.868
v 6.864 9.183 4.595
v 8.333 9.087 5.037
v 5.948 9.338 13.002
v 6.297 8.780 13.688
v 6.168 8.551 12.953
v 6.794 8.556 13.529
v 4.717 9.566 10.879
v 5.117 9.766 11.927
v 5.314 8.970 11.870
v 7.909 8.801 12.863
v 8.758 8.422 12.222
v 9.132 8.913 11.804
v 5.012 8.890 9.871
v 4.617 9.861 9.133
v 10.136 9.540 10.000
v 10.874 9.303 8.097
v 10.949 10.003 8.315
v 4.889 9.100 7.578
v 4.815 10.163 7.025
v 10.882 9.427 6.941
v 11.180 9.850 7.364
v 5.085 9.406 5.702
v 5.196 10.259 5.515
v 10.907 9.889 6.745
v 9.769 9.646 6.050
v 5.720 9.746 4.703
v 6.610 10.177 4.619
v 7.968 10.058 5.003
v 6.757 9.035 13.545
v 4.955 10.418 10.584
v 5.868 10.461 11.822
v 7.210 9.996 12.542
v 8.283 10.864 11.364
v 8.825 9.847 11.739
v 5.099 10.953 8.583
v 5.888 11.377 10.064
v 9.475 10.793 10.270
v 9.589 11.444 8.721
v 10.406 10.581 8.952
v 5.659 11.150 6.496
v 6.157 11.887 8.163
v 10.407 10.603 7.338
v 9.208 11.648 7.374
v 5.883 10.582 5.060
v 6.735 11.944 6.843
v 7.053 11.135 5.589
v 8.868 10.979 6.146
v 7.957 11.951 6.873
v 7.093 11.266 11.071
v 7.154 12.055 9.318
v 8.415 11.666 9.975
v 7.243 12.300 7.850
v 8.346 12.133 8.337

# Normal Array
vn 0.957 0.128 0.262
vn 0.237 0.962 0.134
vn 0.327 0.943 -0.066
vn 0.481 0.614 0.626
vn 0.026 0.987 0.160
vn -0.711 0.382 -0.591
vn 0.028 0.993 0.118
vn -0.246 0.903 -0.353
vn 0.213 0.774 0.596
vn -0.189 0.979 -0.072
vn -0.580 0.574 -0.578
vn -0.544 0.729 -0.414
vn -0.535 -0.508 -0.675
vn 0.453 -0.889 0.069
vn -0.240 -0.903 -0.357
vn 0.505 -0.791 0.346
vn -0.696 -0.253 -0.672
vn -0.653 -0.001 -0.758
vn -0.064 -0.986 -0.152
vn -0.506 -0.769 -0.391
vn -0.236 -0.960 0.150
vn -0.049 -0.997 0.058
vn -0.018 -0.988 -0.155
vn 0.216 -0.372 0.903
vn -0.158 -0.983 0.090
vn 0.033 -0.984 0.173
vn -0.158 -0.984 0.076
vn -0.257 -0.966 0.025
vn 0.317 -0.945 0.087
vn 0.315 -0.942 0.112
vn 0.120 -0.993 0.001
vn 0.464 -0.882 0.083
vn -0.243 -0.970 -0.021
vn -0.356 -0.930 -0.092
vn 0.126 -0.991 -0.040
vn 0.037 -0.995 -0.092
vn 0.474 -0.879 -0.050
vn 0.385 -0.916 -0.116
vn -0.319 -0.928 -0.191
vn -0.476 -0.811 -0.341
vn 0.074 -0.968 -0.239
vn 0.005 -0.958 -0.286
vn 0.398 -0.885 -0.239
vn 0.275 -0.907 -0.319
vn -0.109 -0.579 -0.808
vn 0.095 -0.655 -0.750
vn 0.198 -0.588 -0.784
vn 0.356 -0.676 -0.645
vn -0.928 -0.276 0.248
vn -0.298 -0.895 0.331
vn -0.889 -0.248 0.386
vn -0.812 -0.239 0.532
vn -0.805 -0.259 0.534
vn -0.551 -0.826 0.115
vn -0.264 -0.953 0.150
vn 0.245 -0.657 0.713
vn 0.226 -0.665 0.711
vn 0.440 -0.777 0.450
vn -0.221 -0.943 0.248
vn 0.639 0.155 0.754
vn -0.809 -0.569 0.145
vn -0.923 -0.384 -0.012
vn -0.526 -0.847 0.073
vn -0.550 -0.827 0.117
vn 0.430 -0.885 0.180
vn 0.817 -0.442 0.372
vn 0.846 -0.410 0.340
vn 0.846 -0.423 0.324
vn 0.864 -0.396 0.309
vn 0.901 -0.214 0.376
vn -0.931 -0.366 0.017
vn -0.986 -0.126 -0.110
vn -0.661 -0.749 -0.037
vn -0.663 -0.748 -0.033
vn 0.601 -0.795 -0.081
vn 0.588 -0.807 -0.058
vn 0.948 -0.183 0.259
vn 0.840 -0.540 -0.052
vn -0.983 -0.133 -0.125
vn -0.968 0.073 -0.240
vn -0.746 -0.593 -0.303
vn -0.804 -0.567 -0.177
vn 0.541 -0.353 -0.763
vn 0.347 -0.714 -0.609
vn 0.727 -0.485 -0.487
vn 0.887 -0.220 -0.405
vn -0.842 -0.009 -0.539
vn -0.796 -0.194 -0.573
vn -0.215 -0.256 -0.942
vn -0.094 0.001 -0.996
vn 0.292 0.076 -0.953
vn 0.278 0.095 -0.956
vn 0.627 -0.371 -0.684
vn 0.524 0.168 -0.835
vn -0.185 0.714 0.675
vn 0.301 -0.007 0.954
vn -0.897 0.346 0.276
vn -0.588 0.698 0.409
vn -0.484 0.618 0.620
vn -0.122 0.715 0.688
vn -0.154 0.747 0.647
vn 0.422 0.503 0.755
vn 0.429 0.460 0.777
vn 0.515 0.490 0.703
vn 0.511 0.012 0.860
vn 0.619 0.256 0.742
vn -0.905 0.423 0.048
vn -0.948 0.301 0.105
vn -0.551 0.742 0.381
vn -0.668 0.729 0.147
vn 0.588 0.536 0.606
vn 0.637 0.693 0.338
vn 0.799 0.311 0.514
vn 0.787 0.298 0.541
vn 0.787 0.297 0.541
vn 0.839 0.263 0.477
vn -0.790 0.593 -0.156
vn -0.920 0.391 -0.030
vn -0.631 0.767 0.116
vn -0.683 0.721 -0.115
vn 0.725 0.689 0.010
vn 0.654 0.753 -0.070
vn 0.696 0.716 0.053
vn 0.734 0.679 0.010
vn -0.586 0.718 -0.376
vn -0.791 0.590 -0.162
vn -0.539 0.818 -0.201
vn -0.362 0.739 -0.569
vn -0.244 0.888 -0.390
vn 0.258 0.723 -0.641
vn 0.009 0.841 -0.541
vn 0.392 0.758 -0.521
vn 0.556 0.656 -0.511
vn 0.612 0.459 -0.644
vn 0.247 0.715 -0.654
vn 0.679 0.688 -0.256
vn -0.629 0.405 -0.663
vn -0.286 0.423 -0.860
vn -0.023 0.716 -0.697
vn 0.263 0.624 -0.736
vn 0.277 0.630 -0.726
vn 0.527 0.409 -0.745
vn -0.092 0.750 0.655
vn 0.097 0.757 0.646
vn -0.245 0.887 0.391
vn -0.290 0.850 0.440
vn 0.478 0.740 0.473
vn 0.162 0.848 0.505
vn 0.066 0.909 0.411
vn 0.531 0.767 0.361
vn -0.317 0.938 0.138
vn -0.374 0.908 0.191
vn 0.156 0.952 0.265
vn 0.075 0.983 0.169
vn 0.486 0.874 -0.004
vn 0.415 0.879 0.233
vn -0.385 0.914 -0.129
vn 0.003 0.942 -0.335
vn 0.225 0.958 -0.178
vn 0.304 0.932 -0.196

# Facets
f 1//1 3//1 2//1
f 4//2 3//2 5//2
f 4//3 2//3 3//3
f 6//4 4//4 5//4
f 7//5 3//5 1//5
f 8//6 7//6 9//6
f 3//7 7//7 8//7
f 5//8 3//8 8//8
f 5//9 10//9 6//9
f 5//10 8//10 10//10
f 11//11 8//11 9//11
f 11//12 10//12 8//12
f 1//13 2//13 12//13
f 13//14 2//14 4//14
f 13//15 12//15 2//15
f 13//16 4//16 6//16
f 7//17 1//17 12//17
f 12//18 9//18 7//18
f 14//19 9//19 12//19
f 13//20 14//20 12//20
f 14//21 6//21 10//21
f 14//22 13//22 6//22
f 11//23 9//23 14//23
f 14//24 10//24 11//24
f 15//25 17//25 16//25
f 18//26 16//26 17//26
f 15//27 19//27 17//27
f 15//28 20//28 19//28
f 17//29 21//29 18//29
f 22//30 21//30 17//30
f 19//31 22//31 17//31
f 23//32 21//32 22//32
f 20//33 24//33 19//33
f 20//34 25//34 24//34
f 26//35 22//35 19//35
f 24//36 26//36 19//36
f 22//37 27//37 23//37
f 22//38 26//38 27//38
f 25//39 28//39 24//39
f 25//40 29//40 28//40
f 30//41 26//41 24//41
f 28//42 30//42 24//42
f 26//43 31//43 27//43
f 26//44 30//44 31//44
f 32//45 28//45 29//45
f 32//46 30//46 28//46
f 32//47 33//47 30//47
f 33//48 31//48 30//48
f 34//49 36//49 35//49
f 37//50 35//50 36//50
f 38//51 40//51 39//51
f 40//52 34//52 39//52
f 40//53 36//53 34//53
f 15//54 36//54 40//54
f 16//55 36//55 15//55
f 41//56 18//56 42//56
f 41//57 16//57 18//57
f 37//58 16//58 41//58
f 36//59 16//59 37//59
f 43//60 41//60 42//60
f 38//61 44//61 40//61
f 38//62 45//62 44//62
f 20//63 15//63 44//63
f 15//64 40//64 44//64
f 42//65 18//65 21//65
f 46//66 23//66 47//66
f 46//67 21//67 23//67
f 43//68 21//68 46//68
f 42//69 21//69 43//69
f 48//70 46//70 47//70
f 45//71 49//71 44//71
f 45//72 50//72 49//72
f 25//73 20//73 49//73
f 20//74 44//74 49//74
f 51//75 47//75 27//75
f 47//76 23//76 27//76
f 47//77 52//77 48//77
f 47//78 51//78 52//78
f 50//79 53//79 49//79
f 50//80 54//80 53//80
f 29//81 25//81 53//81
f 25//82 49//82 53//82
f 55//83 51//83 56//83
f 56//84 51//84 27//84
f 56//85 27//85 31//85
f 55//86 52//86 51//86
f 57//87 53//87 54//87
f 57//88 29//88 53//88
f 32//89 29//89 57//89
f 58//90 32//90 57//90
f 59//91 33//91 32//91
f 59//92 32//92 58//92
f 33//93 56//93 31//93
f 33//94 59//94 56//94
f 34//95 35//95 60//95
f 60//96 35//96 37//96
f 38//97 39//97 61//97
f 61//98 39//98 62//98
f 39//99 34//99 62//99
f 62//100 34//100 63//100
f 63//101 34//101 60//101
f 63//102 65//102 64//102
f 63//103 41//103 65//103
f 60//104 41//104 63//104
f 37//105 41//105 60//105
f 65//106 41//106 43//106
f 45//107 61//107 66//107
f 45//108 38//108 61//108
f 62//109 67//109 61//109
f 67//110 66//110 61//110
f 64//111 65//111 68//111
f 68//112 70//112 69//112
f 68//113 46//113 70//113
f 65//114 46//114 68//114
f 43//115 46//115 65//115
f 70//116 46//116 48//116
f 50//117 66//117 71//117
f 50//118 45//118 66//118
f 67//119 72//119 66//119
f 72//120 71//120 66//120
f 70//121 73//121 69//121
f 73//122 74//122 69//122
f 73//123 48//123 52//123
f 73//124 70//124 48//124
f 54//125 71//125 75//125
f 54//126 50//126 71//126
f 72//127 76//127 71//127
f 71//128 76//128 77//128
f 71//129 77//129 75//129
f 78//130 77//130 79//130
f 77//131 76//131 79//131
f 79//132 74//132 78//132
f 74//133 73//133 78//133
f 78//134 73//134 56//134
f 56//135 73//135 55//135
f 73//136 52//136 55//136
f 57//137 54//137 75//137
f 75//138 58//138 57//138
f 75//139 77//139 58//139
f 77//140 59//140 58//140
f 77//141 78//141 59//141
f 78//142 56//142 59//142
f 62//143 63//143 80//143
f 80//144 63//144 64//144
f 67//145 80//145 81//145
f 67//146 62//146 80//146
f 82//147 64//147 68//147
f 80//148 64//148 82//148
f 81//149 80//149 82//149
f 82//150 68//150 69//150
f 72//151 81//151 83//151
f 72//152 67//152 81//152
f 81//153 82//153 84//153
f 81//154 84//154 83//154
f 84//155 69//155 74//155
f 84//156 82//156 69//156
f 76//157 72//157 83//157
f 83//158 79//158 76//158
f 83//159 84//159 79//159
f 84//160 74//160 79//160

# Thankyou for using Spin3D

