# Created using Spin3D

# Vertex Array
v 46.172 -42.107 34.891
v 46.169 -42.107 34.892
v 46.168 -42.103 34.891
v 46.166 -42.103 34.893
v 46.165 -42.103 34.892
v 46.163 -42.104 34.891
v 46.168 -42.105 34.890
v 46.163 -42.104 34.890
v 46.172 -42.110 34.890
v 46.170 -42.112 34.892
v 46.166 -42.107 34.892
v 46.164 -42.108 34.891
v 46.173 -42.109 34.889
v 46.167 -42.109 34.889
v 46.171 -42.112 34.890
v 46.167 -42.111 34.890
v 26.859 -33.951 14.784
v 26.861 -33.951 14.785
v 26.861 -33.952 14.784
v 26.862 -33.951 14.784
v 26.861 -33.951 14.783
v 22.507 -29.122 14.131
v 22.552 -29.130 14.215
v 22.549 -29.173 14.166
v 22.587 -29.170 14.232
v 22.585 -29.181 14.192
v 26.861 -33.950 14.784
v 22.604 -29.153 14.224
v 22.506 -29.153 14.087
v 22.544 -29.161 14.112
v 22.502 -29.124 14.049
v 22.583 -29.134 14.155
v 22.536 -29.098 14.074
v 22.520 -29.076 14.173
v 22.554 -29.076 14.222
v 22.587 -29.116 14.245
v 22.591 -29.091 14.197
v 22.485 -29.108 14.059
v 22.495 -29.062 14.097
v 22.566 -29.071 14.122
v 22.499 -29.066 14.047
v 22.531 -29.041 14.076
v -34.449 -18.340 -31.519
v -34.564 -18.366 -31.351
v -34.494 -18.350 -31.462
v -34.517 -18.357 -31.417
v -34.305 -18.306 -31.736
v -34.361 -18.321 -31.662
v -34.352 -18.322 -31.653
v -34.221 -18.288 -31.847
v -34.165 -18.281 -31.922
v 50.891 -18.575 -30.812
v 51.002 -18.520 -30.560
v 51.022 -18.683 -30.909
v 51.306 -18.333 -30.749
v -34.174 -18.278 -31.931
v -34.010 -18.241 -32.167
v -34.077 -18.255 -32.064
v -34.032 -18.248 -32.121
v 51.178 -18.073 -31.124
v -33.962 -18.229 -32.232
v 22.530 -29.035 14.161
v 22.570 -29.056 14.211
v 22.514 -29.025 14.090
v 22.552 -29.032 14.141
v -34.543 -18.364 -31.384
v 50.435 -17.160 -29.386
v 50.638 -16.826 -28.564
v 50.786 -17.378 -29.093
v 51.325 -16.731 -28.081
v 51.421 -17.722 -29.745
v 51.997 -16.997 -28.768
v 52.252 -17.184 -29.727
v 52.484 -16.669 -29.074
v -34.404 -18.336 -31.583
v -34.435 -18.341 -31.549
v -34.243 -18.301 -31.812
v -34.091 -18.265 -32.036
v 50.759 -17.863 -30.309
v 50.478 -16.866 -30.260
v 52.040 -17.373 -31.009
v 52.676 -16.625 -30.243
v -34.284 -18.307 -31.773
v -34.123 -18.271 -32.002
v -33.983 -18.238 -32.200
v 50.934 -17.137 -31.294
v 51.393 -16.307 -32.079
v 51.683 -17.015 -31.903
v 52.373 -16.624 -32.098
v 52.747 -16.389 -31.553
v 52.119 -16.186 -32.453
v 52.648 -16.071 -32.312
v 51.367 -16.065 -27.232
v 51.588 -15.849 -26.944
v 51.655 -16.105 -27.146
v 51.833 -15.850 -27.254
v 50.502 -16.465 -29.138
v 50.955 -16.211 -28.058
v 52.091 -16.283 -28.004
v 52.593 -16.070 -29.232
v -34.302 -18.313 -31.739
v -34.224 -18.297 -31.846
v 50.611 -16.118 -30.109
v 52.803 -15.904 -30.711
v 50.823 -16.247 -31.196
v 51.319 -15.754 -31.820
v 52.795 -15.802 -31.823
v 51.815 -15.750 -32.323
v 52.384 -15.664 -32.229
v 51.510 -15.733 -27.669
v 51.074 -15.741 -29.155
v 51.786 -15.473 -28.857
v 52.116 -15.717 -28.232
v 51.130 -15.642 -30.782
v 51.778 -15.385 -30.248
v 52.373 -15.535 -29.708
v 51.821 -15.447 -31.630
v 52.449 -15.474 -31.202
v 52.856 -9.963 -13.026
v 52.905 -9.992 -12.975
v 52.928 -10.034 -12.985
v 52.975 -10.055 -12.941
v 52.984 -10.063 -12.963
v 52.995 -10.045 -12.950
v 52.867 -9.970 -13.049
v 52.805 -9.888 -13.087
v 52.929 -10.008 -13.026
v 52.971 -10.009 -13.002
v 52.847 -9.911 -13.094
v 52.910 -9.946 -13.066
v 52.824 -9.895 -13.044
v 52.877 -9.924 -12.998
v 52.949 -9.996 -12.956
v 52.953 -9.966 -12.994
v 52.782 -9.828 -13.105
v 52.921 -9.926 -13.052
v 52.793 -9.834 -13.126
v 52.848 -9.865 -13.106
v -32.740 -5.424 3.830
v -32.741 -5.424 3.827
v -32.742 -5.424 3.829
v -32.744 -5.424 3.829
v -32.742 -5.424 3.831
v 52.828 -9.849 -13.060
v 52.900 -9.912 -13.006
v 52.802 -9.816 -13.112
v 52.872 -9.869 -13.063
v 57.631 -1.654 -35.986
v 57.629 -1.654 -35.985
v 57.629 -1.652 -35.986
v 57.627 -1.655 -35.986
v 57.630 -1.652 -35.987
v 57.631 -1.654 -35.987
v 57.627 -1.653 -35.987
v 57.630 -1.654 -35.988
v -32.740 -5.422 3.829
v -32.742 -5.422 3.828
v -32.744 -5.422 3.830
v -32.741 -5.423 3.832
v 57.630 -1.656 -35.986
v 57.629 -1.656 -35.988
v 9.193 -5.514 28.476
v 9.194 -5.514 28.477
v 9.194 -5.515 28.476
v 9.195 -5.514 28.476
v 9.194 -5.514 28.475
v -32.742 -5.422 3.830
v 9.194 -5.513 28.476

# Normal Array
vn 0.370 0.286 0.884
vn 0.100 0.993 -0.065
vn 0.545 0.310 0.779
vn -0.703 0.549 0.452
vn 0.429 0.480 -0.765
vn -0.020 0.609 -0.793
vn 0.099 0.696 -0.711
vn -0.628 0.758 -0.176
vn 0.570 -0.042 0.821
vn 0.473 -0.164 0.866
vn -0.017 -0.206 0.979
vn -0.022 -0.124 0.992
vn -0.564 -0.224 0.795
vn -0.452 -0.109 0.885
vn 0.961 0.038 0.276
vn 0.445 0.646 -0.620
vn 0.041 0.171 -0.984
vn -0.018 0.176 -0.984
vn -0.967 -0.098 0.234
vn -0.434 -0.397 -0.809
vn 0.681 -0.720 0.133
vn -0.556 -0.529 0.641
vn -0.105 -0.916 -0.387
vn -0.354 -0.539 0.764
vn 0.590 -0.664 -0.459
vn -0.085 -0.411 -0.908
vn 0.007 -0.328 -0.944
vn -0.425 -0.237 -0.874
vn -0.615 -0.642 0.458
vn 0.544 -0.683 0.487
vn -0.598 -0.438 -0.672
vn 0.570 -0.504 -0.649
vn -0.822 -0.393 0.412
vn -0.384 -0.885 0.262
vn -0.761 -0.455 0.463
vn -0.584 0.522 0.621
vn 0.741 -0.659 0.130
vn 0.612 0.452 0.649
vn -0.827 -0.457 0.327
vn 0.223 -0.767 -0.602
vn -0.087 -0.975 -0.203
vn -0.073 -0.976 -0.204
vn 0.796 -0.353 -0.492
vn 0.914 -0.227 -0.337
vn -0.564 0.695 -0.447
vn 0.634 0.650 -0.418
vn 0.705 -0.295 -0.645
vn 0.793 -0.233 -0.562
vn -0.821 -0.057 0.568
vn -0.872 -0.172 0.459
vn -0.603 -0.180 0.777
vn -0.632 -0.090 0.770
vn 0.569 -0.182 0.802
vn 0.928 0.293 0.229
vn -0.926 -0.306 0.222
vn -0.957 -0.033 0.287
vn -0.949 -0.015 0.316
vn -0.744 -0.570 -0.349
vn 0.960 0.082 -0.267
vn 0.952 0.103 -0.287
vn -0.951 0.290 -0.104
vn -0.538 -0.052 -0.842
vn 0.587 0.012 -0.810
vn 0.624 0.081 -0.777
vn 0.856 -0.043 -0.514
vn 0.820 0.087 -0.566
vn -0.180 0.983 0.031
vn 0.444 0.786 0.430
vn -0.146 0.987 0.059
vn -0.546 0.801 -0.247
vn 0.476 0.758 0.446
vn 0.552 0.675 0.490
vn 0.032 0.984 0.176
vn 0.626 0.578 0.523
vn -0.417 -0.833 0.364
vn 0.640 -0.682 0.353
vn -0.602 0.739 -0.302
vn -0.462 0.867 -0.184
vn -0.534 0.809 -0.246
vn -0.005 0.989 0.149
vn 0.573 0.656 0.491
vn 0.180 0.947 0.265
vn -0.645 -0.102 -0.757
vn 0.762 -0.380 -0.525
vn -0.419 0.895 -0.152
vn 0.210 0.935 0.287
vn -0.776 0.342 0.530
vn 0.004 0.486 0.874
vn -0.407 0.679 0.611
vn 0.869 0.406 0.284
vn -0.832 0.491 0.259
vn -0.878 0.317 0.358
vn 0.150 0.947 0.285
vn 0.013 0.990 0.138
vn 0.894 0.408 -0.184
vn 0.852 0.522 -0.036
vn -0.887 0.447 -0.111
vn 0.091 0.704 -0.704
vn 0.534 0.797 -0.282
vn 0.825 0.458 -0.330
vn -0.816 -0.194 -0.544
vn 0.664 -0.633 0.398
vn -0.702 -0.582 0.410
vn 0.064 -0.856 0.513
vn -0.346 -0.696 0.629
vn 0.515 -0.805 0.293
vn 0.189 -0.839 0.510
vn 0.658 -0.687 0.308
vn 0.017 -0.991 -0.130
vn -0.700 -0.483 -0.526
vn -0.779 -0.283 -0.559
vn 0.545 -0.795 0.267
vn 0.716 -0.562 0.414
vn 0.750 -0.479 0.456
vn 0.815 -0.226 0.533
vn 0.633 -0.707 0.315
vn -0.667 -0.687 0.289
vn -0.955 -0.263 -0.135
vn -0.775 -0.454 0.439
vn -0.514 -0.465 0.721
vn -0.118 -0.921 0.370
vn 0.639 -0.687 0.346
vn 0.801 -0.547 0.242
vn 0.543 -0.839 0.034
vn 0.840 -0.529 0.119
vn 0.779 -0.626 -0.036
vn -0.655 -0.545 -0.524
vn -0.820 -0.004 -0.572
vn -0.569 -0.646 -0.508
vn -0.735 -0.366 -0.571
vn -0.765 -0.274 -0.583
vn -0.047 -0.979 -0.196
vn 0.698 -0.623 0.353
vn 0.774 -0.456 0.440
vn -0.910 -0.240 -0.339
vn -0.537 -0.403 -0.741
vn -0.575 -0.289 -0.765
vn -0.878 -0.297 -0.375
vn -0.854 0.185 -0.487
vn 0.553 -0.583 -0.595
vn 0.587 -0.643 -0.492
vn 0.335 -0.821 -0.462
vn 0.792 -0.606 -0.066
vn 0.729 -0.647 -0.222
vn -0.674 -0.466 -0.574
vn 0.817 -0.348 0.461
vn -0.378 -0.366 -0.850
vn 0.106 -0.588 -0.802
vn 0.322 -0.476 -0.818
vn 0.793 -0.518 -0.321
vn -0.301 -0.638 0.709
vn 0.756 -0.274 0.595
vn -0.920 0.195 0.340
vn -0.972 0.010 0.236
vn -0.284 -0.748 0.600
vn -0.717 -0.531 0.452
vn -0.494 -0.386 0.779
vn 0.802 -0.355 0.481
vn 0.436 -0.812 0.389
vn 0.351 -0.705 0.617
vn 0.677 -0.577 0.457
vn 0.927 -0.074 0.367
vn 0.006 -0.990 -0.140
vn 0.068 -0.992 -0.102
vn 0.121 -0.991 -0.065
vn 0.144 -0.988 -0.061
vn -0.995 0.101 -0.015
vn -0.982 0.185 -0.045
vn 0.978 -0.138 0.156
vn 0.988 -0.089 0.130
vn -0.162 -0.954 -0.253
vn -0.086 -0.973 -0.215
vn -0.160 -0.951 -0.263
vn -0.034 -0.982 -0.185
vn -0.954 0.213 -0.211
vn -0.919 -0.072 -0.387
vn -0.841 -0.045 -0.540
vn -0.827 0.143 -0.544
vn 0.987 -0.157 0.025
vn 0.996 -0.088 -0.015
vn -0.694 0.226 -0.683
vn -0.452 -0.049 -0.891
vn 0.182 0.308 -0.934
vn 0.102 0.349 -0.932
vn 0.966 -0.169 -0.197
vn 0.677 0.540 -0.501
vn -0.796 0.578 0.179
vn 0.176 0.975 0.138
vn -0.770 0.612 0.179
vn -0.727 0.640 0.249
vn -0.718 0.664 0.207
vn -0.389 0.915 0.110
vn 0.955 0.073 0.287
vn 0.133 0.976 0.171
vn 0.213 0.943 0.256
vn 0.912 0.118 0.394
vn -0.660 0.751 0.023
vn -0.777 0.616 0.133
vn -0.373 0.926 0.061
vn -0.398 0.917 0.042
vn 0.350 0.920 0.174
vn 0.192 0.979 0.061
vn 0.845 0.505 0.176
vn 0.825 0.525 0.208
vn -0.800 0.557 -0.222
vn -0.809 0.551 -0.207
vn -0.463 0.868 -0.178
vn -0.330 0.942 -0.053
vn 0.202 0.978 0.050
vn 0.071 0.997 -0.043
vn 0.738 0.672 0.057
vn 0.733 0.678 0.065
vn -0.379 0.849 -0.368
vn -0.073 0.914 -0.399
vn 0.170 0.967 -0.190
vn 0.475 0.859 -0.189
vn -0.744 -0.508 0.433
vn -0.488 -0.867 0.097
vn -0.703 -0.502 0.503
vn 0.565 -0.673 0.478
vn -0.676 -0.732 -0.085
vn -0.755 -0.638 -0.152
vn -0.206 -0.818 -0.537
vn -0.290 -0.800 -0.526
vn 0.847 -0.170 -0.503
vn 0.422 -0.467 -0.777
vn -0.448 -0.634 -0.630
vn -0.093 -0.628 -0.772
vn 0.083 -0.530 -0.844
vn 0.440 -0.395 -0.806
vn -0.663 -0.025 0.748
vn -0.753 -0.182 0.633
vn -0.396 0.056 0.916
vn -0.387 0.141 0.911
vn 0.240 0.329 0.913
vn 0.588 0.606 0.535
vn -0.885 -0.326 0.331
vn -0.903 -0.247 0.352
vn 0.905 0.407 -0.127
vn 0.886 0.413 -0.211
vn -0.850 -0.419 -0.319
vn -0.430 -0.584 -0.689
vn 0.280 -0.244 -0.928
vn 0.198 -0.247 -0.949
vn 0.751 0.059 -0.658
vn 0.672 0.152 -0.725
vn 0.249 -0.915 -0.318
vn -0.167 -0.901 -0.401
vn 0.149 -0.984 0.101
vn -0.260 -0.966 -0.002
vn -0.514 0.324 0.794
vn 0.045 0.535 0.844
vn -0.034 0.628 0.777
vn 0.521 0.645 0.559
vn -0.231 0.761 0.606
vn -0.581 0.315 0.751
vn 0.396 0.815 0.423
vn 0.405 0.847 0.344
vn 0.757 0.654 0.025
vn 0.668 0.713 0.212
vn -0.563 0.673 -0.479
vn 0.486 0.368 -0.793
vn 0.705 0.633 -0.320
vn 0.745 0.569 -0.348
vn 0.164 0.131 0.978
vn -0.308 0.035 0.951
vn 0.510 0.744 0.431
vn 0.816 0.544 -0.195
vn -0.810 0.455 0.370
vn -0.498 0.853 -0.157
vn 0.283 0.329 -0.901
vn -0.142 0.419 -0.897
vn 0.539 0.385 -0.749
vn 0.813 -0.191 -0.551
vn -0.511 -0.122 -0.851
vn -0.792 0.377 -0.480
vn 0.813 0.191 0.550
vn 0.503 -0.417 0.757
vn -0.815 -0.358 0.455
vn -0.512 0.147 0.847
vn 0.259 -0.322 0.911
vn -0.201 -0.433 0.879
vn 0.511 -0.754 -0.414
vn 0.810 -0.553 0.198
vn -0.814 -0.450 -0.367
vn -0.520 -0.841 0.150
vn 0.180 -0.094 -0.979
vn -0.240 0.012 -0.971
vn -0.577 -0.655 0.488
vn 0.552 -0.668 0.498
vn -0.590 -0.475 -0.653
vn 0.576 -0.492 -0.653
vn 0.185 0.978 -0.100
vn -0.240 0.971 -0.015
vn 0.280 0.905 0.321
vn -0.148 0.899 0.411
vn -0.560 0.466 0.685
vn 0.571 0.444 0.691
vn -0.569 0.676 -0.469
vn 0.591 0.659 -0.466

# Facets
f 1//1 3//1 2//1
f 4//2 3//2 5//2
f 4//3 2//3 3//3
f 6//4 4//4 5//4
f 7//5 3//5 1//5
f 7//6 5//6 3//6
f 7//7 8//7 5//7
f 8//8 6//8 5//8
f 9//9 2//9 10//9
f 9//10 1//10 2//10
f 2//11 4//11 11//11
f 10//12 2//12 11//12
f 6//13 11//13 4//13
f 6//14 12//14 11//14
f 13//15 1//15 9//15
f 13//16 7//16 1//16
f 14//17 8//17 7//17
f 14//18 7//18 13//18
f 8//19 12//19 6//19
f 8//20 14//20 12//20
f 9//21 10//21 15//21
f 16//22 10//22 11//22
f 16//23 15//23 10//23
f 16//24 11//24 12//24
f 13//25 9//25 15//25
f 15//26 14//26 13//26
f 15//27 16//27 14//27
f 16//28 12//28 14//28
f 17//29 19//29 18//29
f 20//30 18//30 19//30
f 21//31 19//31 17//31
f 21//32 20//32 19//32
f 22//33 24//33 23//33
f 25//34 24//34 26//34
f 25//35 23//35 24//35
f 18//36 27//36 17//36
f 26//37 28//37 25//37
f 27//38 18//38 20//38
f 29//39 24//39 22//39
f 30//40 29//40 31//40
f 24//41 29//41 30//41
f 26//42 24//42 30//42
f 32//43 26//43 30//43
f 28//44 26//44 32//44
f 17//45 27//45 21//45
f 27//46 20//46 21//46
f 33//47 30//47 31//47
f 33//48 32//48 30//48
f 34//49 23//49 35//49
f 34//50 22//50 23//50
f 23//51 25//51 36//51
f 35//52 23//52 36//52
f 28//53 36//53 25//53
f 28//54 37//54 36//54
f 22//55 38//55 29//55
f 39//56 38//56 22//56
f 34//57 39//57 22//57
f 31//58 29//58 38//58
f 37//59 28//59 32//59
f 40//60 37//60 32//60
f 41//61 38//61 39//61
f 41//62 31//62 38//62
f 33//63 31//63 41//63
f 42//64 33//64 41//64
f 33//65 40//65 32//65
f 33//66 42//66 40//66
f 43//67 45//67 44//67
f 44//68 46//68 43//68
f 47//69 45//69 43//69
f 48//70 45//70 47//70
f 49//71 43//71 46//71
f 49//72 50//72 43//72
f 50//73 47//73 43//73
f 49//74 51//74 50//74
f 52//75 54//75 53//75
f 55//76 53//76 54//76
f 47//77 56//77 48//77
f 56//78 58//78 57//78
f 56//79 47//79 58//79
f 47//80 50//80 58//80
f 59//81 50//81 51//81
f 58//82 50//82 59//82
f 60//83 54//83 52//83
f 60//84 55//84 54//84
f 58//85 61//85 57//85
f 59//86 61//86 58//86
f 34//87 35//87 62//87
f 63//88 35//88 36//88
f 63//89 62//89 35//89
f 63//90 36//90 37//90
f 39//91 62//91 64//91
f 39//92 34//92 62//92
f 62//93 63//93 65//93
f 62//94 65//94 64//94
f 65//95 37//95 40//95
f 65//96 63//96 37//96
f 41//97 39//97 64//97
f 64//98 42//98 41//98
f 64//99 65//99 42//99
f 65//100 40//100 42//100
f 44//101 45//101 66//101
f 44//102 66//102 46//102
f 67//103 69//103 68//103
f 70//104 69//104 71//104
f 70//105 68//105 69//105
f 72//106 71//106 73//106
f 72//107 70//107 71//107
f 74//108 72//108 73//108
f 66//109 76//109 75//109
f 66//110 45//110 76//110
f 45//111 48//111 76//111
f 46//112 66//112 75//112
f 46//113 75//113 49//113
f 49//114 75//114 77//114
f 77//115 51//115 49//115
f 78//116 51//116 77//116
f 67//117 79//117 69//117
f 67//118 80//118 79//118
f 52//119 53//119 79//119
f 79//120 53//120 71//120
f 79//121 71//121 69//121
f 53//122 55//122 71//122
f 71//123 55//123 81//123
f 71//124 81//124 73//124
f 73//125 82//125 74//125
f 73//126 81//126 82//126
f 48//127 83//127 76//127
f 56//128 83//128 48//128
f 57//129 85//129 84//129
f 57//130 84//130 56//130
f 56//131 84//131 83//131
f 85//132 78//132 84//132
f 85//133 59//133 78//133
f 59//134 51//134 78//134
f 86//135 79//135 80//135
f 87//136 88//136 86//136
f 88//137 60//137 86//137
f 86//138 60//138 79//138
f 79//139 60//139 52//139
f 55//140 60//140 81//140
f 81//141 60//141 88//141
f 81//142 88//142 89//142
f 81//143 90//143 82//143
f 81//144 89//144 90//144
f 57//145 61//145 85//145
f 59//146 85//146 61//146
f 91//147 88//147 87//147
f 91//148 89//148 88//148
f 91//149 92//149 89//149
f 92//150 90//150 89//150
f 93//151 95//151 94//151
f 96//152 94//152 95//152
f 97//153 68//153 98//153
f 97//154 67//154 68//154
f 95//155 93//155 70//155
f 70//156 93//156 98//156
f 70//157 98//157 68//157
f 96//158 95//158 99//158
f 99//159 95//159 70//159
f 99//160 70//160 72//160
f 74//161 99//161 72//161
f 74//162 100//162 99//162
f 75//163 76//163 101//163
f 75//164 102//164 77//164
f 101//165 102//165 75//165
f 77//166 102//166 78//166
f 80//167 67//167 97//167
f 80//168 97//168 103//168
f 100//169 74//169 82//169
f 104//170 100//170 82//170
f 76//171 83//171 101//171
f 84//172 101//172 83//172
f 102//173 101//173 84//173
f 78//174 102//174 84//174
f 105//175 80//175 103//175
f 105//176 86//176 80//176
f 86//177 105//177 87//177
f 105//178 106//178 87//178
f 104//179 82//179 90//179
f 107//180 104//180 90//180
f 108//181 87//181 106//181
f 108//182 91//182 87//182
f 109//183 92//183 91//183
f 109//184 91//184 108//184
f 92//185 107//185 90//185
f 92//186 109//186 107//186
f 93//187 94//187 110//187
f 110//188 94//188 96//188
f 97//189 98//189 111//189
f 110//190 98//190 93//190
f 111//191 98//191 110//191
f 112//192 111//192 110//192
f 113//193 96//193 99//193
f 110//194 96//194 113//194
f 112//195 110//195 113//195
f 113//196 99//196 100//196
f 103//197 111//197 114//197
f 103//198 97//198 111//198
f 111//199 112//199 115//199
f 111//200 115//200 114//200
f 112//201 113//201 116//201
f 112//202 116//202 115//202
f 116//203 100//203 104//203
f 116//204 113//204 100//204
f 105//205 103//205 114//205
f 114//206 106//206 105//206
f 117//207 106//207 114//207
f 115//208 117//208 114//208
f 115//209 116//209 118//209
f 115//210 118//210 117//210
f 118//211 104//211 107//211
f 118//212 116//212 104//212
f 108//213 106//213 117//213
f 117//214 109//214 108//214
f 117//215 118//215 109//215
f 118//216 107//216 109//216
f 119//217 121//217 120//217
f 122//218 121//218 123//218
f 122//219 120//219 121//219
f 124//220 122//220 123//220
f 119//221 125//221 121//221
f 119//222 126//222 125//222
f 127//223 123//223 121//223
f 125//224 127//224 121//224
f 123//225 128//225 124//225
f 123//226 127//226 128//226
f 129//227 125//227 126//227
f 129//228 127//228 125//228
f 129//229 130//229 127//229
f 130//230 128//230 127//230
f 131//231 120//231 132//231
f 131//232 119//232 120//232
f 120//233 122//233 133//233
f 132//234 120//234 133//234
f 124//235 133//235 122//235
f 124//236 134//236 133//236
f 126//237 119//237 131//237
f 126//238 131//238 135//238
f 134//239 124//239 128//239
f 136//240 134//240 128//240
f 137//241 126//241 135//241
f 137//242 129//242 126//242
f 138//243 130//243 129//243
f 138//244 129//244 137//244
f 130//245 136//245 128//245
f 130//246 138//246 136//246
f 139//247 141//247 140//247
f 142//248 140//248 141//248
f 143//249 141//249 139//249
f 143//250 142//250 141//250
f 131//251 132//251 144//251
f 145//252 132//252 133//252
f 145//253 144//253 132//253
f 145//254 133//254 134//254
f 135//255 144//255 146//255
f 135//256 131//256 144//256
f 144//257 145//257 147//257
f 144//258 147//258 146//258
f 147//259 134//259 136//259
f 147//260 145//260 134//260
f 137//261 135//261 146//261
f 146//262 138//262 137//262
f 146//263 147//263 138//263
f 147//264 136//264 138//264
f 148//265 150//265 149//265
f 151//266 149//266 150//266
f 148//267 152//267 150//267
f 148//268 153//268 152//268
f 150//269 154//269 151//269
f 150//270 152//270 154//270
f 155//271 152//271 153//271
f 155//272 154//272 152//272
f 156//273 140//273 157//273
f 156//274 139//274 140//274
f 142//275 157//275 140//275
f 142//276 158//276 157//276
f 159//277 139//277 156//277
f 159//278 143//278 139//278
f 143//279 158//279 142//279
f 143//280 159//280 158//280
f 148//281 149//281 160//281
f 160//282 149//282 151//282
f 153//283 160//283 161//283
f 153//284 148//284 160//284
f 161//285 151//285 154//285
f 161//286 160//286 151//286
f 155//287 153//287 161//287
f 161//288 154//288 155//288
f 162//289 164//289 163//289
f 165//290 163//290 164//290
f 166//291 164//291 162//291
f 166//292 165//292 164//292
f 156//293 157//293 167//293
f 167//294 157//294 158//294
f 159//295 156//295 167//295
f 167//296 158//296 159//296
f 162//297 163//297 168//297
f 168//298 163//298 165//298
f 166//299 162//299 168//299
f 168//300 165//300 166//300

# Thankyou for using Spin3D

