# Created using Spin3D

# Vertex Array
v 6.879 -33.291 27.444
v 6.793 -33.180 27.558
v 6.812 -33.150 27.513
v 6.915 -33.343 27.388
v 6.869 -33.296 27.457
v 6.882 -33.297 27.419
v 6.880 -33.245 27.413
v 6.896 -33.281 27.385
v 6.704 -33.066 27.677
v 6.665 -33.004 27.725
v 6.711 -33.026 27.649
v 6.679 -33.026 27.706
v 6.748 -32.999 27.567
v 6.766 -33.120 27.568
v 6.842 -33.194 27.443
v 6.811 -33.084 27.480
v 6.824 -33.107 27.448
v 6.678 -32.978 27.679
v 6.708 -32.942 27.593
v 6.695 -32.917 27.620
v 6.773 -33.048 27.508
v 6.741 -32.945 27.529
v 6.746 -32.950 27.535
v 6.704 -32.884 27.577
v -11.963 -19.544 13.801
v -11.965 -19.544 13.799
v -11.965 -19.545 13.801
v -11.967 -19.544 13.800
v -11.966 -19.545 13.803
v 21.069 -19.043 17.169
v 21.071 -19.044 17.170
v 21.071 -19.045 17.169
v 21.072 -19.043 17.169
v -11.963 -19.543 13.801
v -11.965 -19.542 13.799
v -11.967 -19.543 13.802
v 21.071 -19.043 17.168
v -11.965 -19.543 13.803
v 21.071 -19.042 17.170
v -11.965 -19.542 13.801
v -1.731 -6.290 22.149
v -1.732 -6.287 22.149
v -1.735 -6.285 22.150
v -1.734 -6.285 22.150
v -1.735 -6.282 22.151
v -1.735 -6.281 22.150
v -1.733 -6.287 22.151
v -1.733 -6.284 22.151
v -1.728 -6.290 22.149
v -1.729 -6.288 22.149
v -1.730 -6.287 22.150
v -1.732 -6.285 22.150
v -1.730 -6.289 22.150
v -1.726 -6.290 22.150

# Normal Array
vn 0.862 0.176 0.475
vn 0.799 -0.083 0.596
vn 0.789 -0.022 0.613
vn -0.855 -0.436 -0.279
vn 0.892 0.232 0.389
vn 0.899 0.224 0.378
vn 0.944 0.302 0.132
vn -0.830 -0.285 -0.479
vn 0.865 0.186 0.465
vn -0.849 -0.529 -0.005
vn 0.864 0.188 0.468
vn 0.860 0.180 0.477
vn 0.864 0.198 0.464
vn -0.884 -0.302 -0.356
vn -0.879 -0.340 -0.335
vn -0.897 -0.362 -0.254
vn -0.895 -0.334 -0.296
vn -0.887 -0.254 -0.385
vn 0.882 0.223 0.416
vn 0.889 0.216 0.403
vn 0.926 0.376 0.024
vn 0.928 0.357 0.104
vn -0.858 -0.224 -0.462
vn -0.822 -0.143 -0.552
vn 0.853 0.303 0.425
vn -0.895 -0.220 -0.389
vn -0.930 -0.091 -0.357
vn 0.835 0.248 0.492
vn 0.847 0.245 0.471
vn -0.879 -0.187 -0.439
vn -0.891 -0.238 -0.386
vn -0.885 -0.233 -0.402
vn -0.884 -0.229 -0.407
vn -0.888 -0.242 -0.392
vn 0.865 0.300 0.403
vn 0.888 0.278 0.367
vn -0.826 -0.150 -0.543
vn 0.803 0.538 -0.257
vn 0.907 0.417 0.052
vn -0.824 -0.143 -0.547
vn -0.939 -0.149 -0.309
vn -0.879 -0.182 -0.440
vn 0.866 0.293 0.406
vn 0.775 0.606 -0.177
vn 0.228 -0.924 -0.308
vn -0.150 -0.910 -0.387
vn 0.135 -0.987 0.084
vn -0.240 -0.971 -0.011
vn -0.563 -0.695 0.447
vn 0.563 -0.695 0.447
vn 0.517 0.356 -0.779
vn 0.796 -0.230 -0.559
vn -0.490 -0.138 -0.861
vn -0.796 0.410 -0.446
vn -0.569 -0.501 -0.652
vn 0.569 -0.501 -0.652
vn 0.812 0.144 0.565
vn 0.505 -0.425 0.751
vn -0.827 -0.316 0.464
vn -0.528 0.140 0.838
vn -0.583 0.472 0.661
vn 0.583 0.472 0.661
vn 0.163 0.978 -0.131
vn -0.263 0.964 -0.044
vn -0.583 0.661 -0.472
vn 0.583 0.661 -0.472
vn 0.263 0.908 0.326
vn -0.150 0.900 0.410
vn -0.479 -0.396 -0.783
vn -0.307 0.377 -0.874
vn -0.218 0.193 -0.957
vn -0.955 -0.174 -0.239
vn -0.529 -0.572 0.627
vn -0.476 -0.344 0.810
vn 0.175 0.009 0.985
vn 0.502 0.440 0.744
vn 0.199 0.325 -0.925
vn -0.197 -0.321 -0.926
vn 0.743 0.662 -0.095
vn -0.011 0.205 -0.979
vn 0.270 0.624 -0.733
vn -0.010 0.178 -0.984
vn 0.199 -0.447 0.872
vn 0.029 -0.369 0.929
vn 0.663 0.678 0.318
vn 0.067 -0.170 0.983
vn 0.469 0.085 0.879
vn 0.694 0.530 0.488
vn 0.583 0.586 -0.563
vn 0.626 0.725 -0.287
vn -0.243 -0.969 0.041
vn -0.016 -0.164 0.986

# Facets
f 1//1 3//1 2//1
f 1//2 5//2 4//2
f 2//3 5//3 1//3
f 5//4 6//4 4//4
f 1//5 7//5 3//5
f 4//6 7//6 1//6
f 8//7 7//7 4//7
f 6//8 8//8 4//8
f 9//9 11//9 10//9
f 10//10 12//10 9//10
f 2//11 11//11 9//11
f 2//12 3//12 11//12
f 3//13 13//13 11//13
f 9//14 12//14 14//14
f 9//15 14//15 2//15
f 2//16 14//16 5//16
f 14//17 6//17 5//17
f 15//18 6//18 14//18
f 3//19 16//19 13//19
f 7//20 16//20 3//20
f 8//21 17//21 7//21
f 7//22 17//22 16//22
f 15//23 8//23 6//23
f 17//24 8//24 15//24
f 10//25 11//25 18//25
f 10//26 18//26 12//26
f 18//27 20//27 19//27
f 18//28 11//28 20//28
f 11//29 13//29 20//29
f 21//30 19//30 22//30
f 14//31 19//31 21//31
f 14//32 18//32 19//32
f 14//33 12//33 18//33
f 14//34 21//34 15//34
f 13//35 23//35 20//35
f 16//36 23//36 13//36
f 22//37 17//37 21//37
f 22//38 23//38 17//38
f 23//39 16//39 17//39
f 15//40 21//40 17//40
f 19//41 20//41 24//41
f 19//42 24//42 22//42
f 20//43 23//43 24//43
f 22//44 24//44 23//44
f 25//45 27//45 26//45
f 28//46 26//46 27//46
f 29//47 27//47 25//47
f 29//48 28//48 27//48
f 30//49 32//49 31//49
f 33//50 31//50 32//50
f 34//51 26//51 35//51
f 34//52 25//52 26//52
f 28//53 35//53 26//53
f 28//54 36//54 35//54
f 37//55 32//55 30//55
f 37//56 33//56 32//56
f 38//57 25//57 34//57
f 38//58 29//58 25//58
f 29//59 36//59 28//59
f 29//60 38//60 36//60
f 30//61 31//61 39//61
f 39//62 31//62 33//62
f 34//63 35//63 40//63
f 40//64 35//64 36//64
f 37//65 30//65 39//65
f 39//66 33//66 37//66
f 38//67 34//67 40//67
f 40//68 36//68 38//68
f 41//69 43//69 42//69
f 44//70 43//70 45//70
f 44//71 42//71 43//71
f 46//72 44//72 45//72
f 47//73 43//73 41//73
f 47//74 45//74 43//74
f 47//75 48//75 45//75
f 48//76 46//76 45//76
f 49//77 42//77 50//77
f 49//78 41//78 42//78
f 50//79 52//79 51//79
f 44//80 52//80 50//80
f 42//81 44//81 50//81
f 52//82 44//82 46//82
f 53//83 41//83 49//83
f 53//84 47//84 41//84
f 48//85 51//85 52//85
f 53//86 51//86 48//86
f 47//87 53//87 48//87
f 52//88 46//88 48//88
f 49//89 50//89 54//89
f 54//90 50//90 51//90
f 53//91 49//91 54//91
f 54//92 51//92 53//92

# Thankyou for using Spin3D

