# Created using Spin3D

# Vertex Array
v 2.699 -44.492 6.766
v 2.700 -44.492 6.767
v 2.700 -44.493 6.766
v 2.702 -44.492 6.766
v 2.700 -44.491 6.765
v -13.820 -40.555 11.872
v -13.771 -40.585 11.922
v -13.748 -40.627 11.912
v -13.701 -40.648 11.956
v -13.692 -40.656 11.935
v -13.681 -40.638 11.947
v -13.809 -40.563 11.849
v -13.871 -40.481 11.810
v -13.747 -40.600 11.872
v -13.705 -40.602 11.896
v -13.828 -40.504 11.803
v -13.766 -40.539 11.831
v 2.700 -44.490 6.766
v -13.852 -40.488 11.854
v -13.798 -40.517 11.900
v -13.727 -40.588 11.941
v -13.723 -40.558 11.903
v -13.894 -40.421 11.793
v -13.755 -40.519 11.846
v -13.883 -40.426 11.772
v -13.827 -40.458 11.791
v -13.848 -40.442 11.837
v -13.776 -40.505 11.891
v -13.874 -40.409 11.786
v -13.804 -40.462 11.834
v 42.233 -23.906 -29.127
v 42.235 -23.906 -29.126
v 42.235 -23.907 -29.128
v 42.236 -23.906 -29.127
v 42.235 -23.906 -29.128
v 20.927 -27.957 15.714
v 20.928 -27.958 15.715
v 20.928 -27.959 15.714
v 20.929 -27.958 15.714
v 20.928 -27.957 15.713
v 42.235 -23.905 -29.127
v 20.928 -27.956 15.714
v 23.972 -25.039 16.217
v 23.973 -25.039 16.218
v 23.973 -25.040 16.217
v 23.975 -25.039 16.217
v 23.973 -25.039 16.216
v 23.973 -25.038 16.217
v 15.248 -17.291 -5.106
v 15.422 -17.243 -5.102
v 15.592 -17.314 -5.245
v 15.905 -17.291 -5.195
v 16.209 -17.327 -5.509
v 16.382 -17.316 -5.388
v 16.644 -17.303 -5.693
v 16.667 -17.245 -5.613
v 15.425 -17.249 -5.334
v 16.069 -17.212 -5.816
v 15.703 -17.077 -5.675
v 16.678 -17.231 -6.072
v 16.889 -17.177 -6.054
v 16.375 -17.015 -6.313
v 16.767 -17.096 -6.528
v 16.880 -16.985 -6.752
v 17.029 -17.087 -6.574
v 17.066 -17.025 -6.844
v 32.392 -19.570 23.375
v 32.396 -19.581 23.462
v 32.366 -19.574 23.402
v 32.404 -19.577 23.407
v 32.346 -19.556 23.278
v 32.315 -19.562 23.312
v 32.307 -19.555 23.263
v 32.389 -19.553 23.242
v 32.407 -19.562 23.293
v 32.333 -19.550 23.201
v 32.371 -19.539 23.099
v 32.372 -19.541 23.140
v 32.400 -19.546 23.158
v 32.390 -19.535 23.078
v 15.292 -17.205 -5.214
v 15.550 -17.076 -5.350
v 15.840 -17.131 -5.256
v 16.313 -17.199 -5.376
v 16.678 -17.093 -5.809
v 15.832 -16.934 -5.736
v 16.915 -17.009 -6.364
v 16.119 -16.917 -6.089
v 17.041 -16.980 -6.768
v 16.639 -16.917 -6.439
v 32.395 -19.583 23.462
v 32.305 -19.557 23.266
v 32.339 -19.564 23.297
v 32.382 -19.576 23.379
v 32.395 -19.562 23.256
v 32.365 -19.554 23.186
v 32.390 -19.544 23.115
v 15.986 -16.954 -5.604
v 16.274 -17.037 -5.546
v 16.202 -16.872 -6.005
v 16.495 -16.934 -5.985
v 51.388 -10.690 -17.749
v 51.389 -10.690 -17.747
v 51.389 -10.691 -17.749
v 51.390 -10.690 -17.749
v 51.389 -10.689 -17.750
v 32.369 -19.568 23.282
v 51.389 -10.688 -17.749
v 7.523 10.355 47.466
v 7.568 10.291 47.512
v 7.570 10.292 47.518
v 7.595 10.255 47.543
v 7.586 10.266 47.537
v 7.580 10.267 47.533
v 7.524 10.355 47.471
v 7.484 10.407 47.429
v 7.544 10.324 47.497
v 7.553 10.304 47.509
v 7.494 10.393 47.444
v 7.498 10.378 47.452
v 7.520 10.353 47.463
v 7.568 10.284 47.518
v 7.468 10.422 47.410
v 7.469 10.416 47.411
v 7.461 10.425 47.408
v 7.521 10.345 47.472
v 7.458 10.435 47.404
v 7.442 10.449 47.386
v 3.687 38.303 58.477
v 3.685 38.302 58.477
v 3.685 38.304 58.477
v 3.683 38.302 58.477
v 3.686 38.304 58.475
v 3.687 38.302 58.475
v 3.683 38.303 58.475
v 3.685 38.302 58.475
v 3.686 38.300 58.476
v 3.685 38.300 58.475

# Normal Array
vn -0.591 -0.648 0.481
vn 0.540 -0.680 0.496
vn -0.596 -0.475 -0.647
vn 0.566 -0.499 -0.656
vn -0.744 -0.509 0.432
vn -0.490 -0.867 0.096
vn -0.704 -0.503 0.502
vn 0.567 -0.669 0.480
vn -0.675 -0.733 -0.087
vn -0.754 -0.639 -0.153
vn -0.208 -0.819 -0.536
vn -0.291 -0.800 -0.525
vn 0.847 -0.171 -0.504
vn 0.420 -0.468 -0.777
vn -0.447 -0.634 -0.631
vn -0.093 -0.628 -0.772
vn 0.082 -0.531 -0.843
vn 0.438 -0.397 -0.806
vn -0.570 0.497 0.654
vn 0.594 0.475 0.649
vn -0.544 0.677 -0.495
vn 0.588 0.649 -0.483
vn -0.662 -0.025 0.749
vn -0.753 -0.183 0.632
vn -0.399 0.053 0.915
vn -0.390 0.139 0.910
vn 0.239 0.327 0.914
vn 0.588 0.607 0.534
vn -0.885 -0.326 0.332
vn -0.903 -0.245 0.353
vn 0.904 0.409 -0.125
vn 0.886 0.415 -0.209
vn -0.853 -0.417 -0.315
vn -0.428 -0.583 -0.690
vn 0.282 -0.242 -0.929
vn 0.199 -0.245 -0.949
vn 0.750 0.059 -0.659
vn 0.672 0.152 -0.725
vn -0.514 0.324 0.795
vn 0.042 0.534 0.845
vn -0.036 0.627 0.778
vn 0.523 0.645 0.557
vn -0.229 0.763 0.605
vn -0.581 0.314 0.751
vn 0.397 0.815 0.422
vn 0.405 0.848 0.342
vn 0.757 0.653 0.024
vn 0.669 0.713 0.212
vn -0.565 0.671 -0.480
vn 0.484 0.366 -0.795
vn 0.704 0.634 -0.320
vn 0.745 0.568 -0.349
vn -0.615 -0.642 0.458
vn 0.545 -0.682 0.487
vn -0.611 -0.453 -0.650
vn 0.584 -0.522 -0.622
vn -0.596 -0.637 0.490
vn 0.530 -0.672 0.517
vn -0.560 -0.505 -0.656
vn 0.568 -0.502 -0.652
vn -0.582 0.523 0.623
vn 0.612 0.452 0.649
vn -0.544 0.683 -0.487
vn 0.616 0.641 -0.458
vn -0.568 0.502 0.652
vn 0.560 0.506 0.656
vn -0.582 -0.662 0.472
vn 0.583 -0.661 0.472
vn -0.530 0.672 -0.517
vn -0.562 -0.447 -0.695
vn 0.596 0.637 -0.489
vn 0.563 -0.447 -0.695
vn -0.582 0.472 0.662
vn 0.583 0.472 0.661
vn -0.568 0.653 -0.501
vn 0.569 0.652 -0.501
vn 0.196 -0.766 0.612
vn 0.046 -0.986 0.160
vn -0.004 -0.899 0.438
vn 0.060 -0.998 0.007
vn -0.010 -0.994 0.106
vn 0.508 -0.761 0.403
vn -0.188 -0.930 -0.316
vn -0.471 -0.571 -0.672
vn -0.186 -0.929 -0.320
vn -0.146 -0.946 -0.290
vn -0.022 -0.982 -0.187
vn -0.150 -0.946 -0.287
vn 0.717 -0.646 0.262
vn 0.257 -0.954 -0.156
vn -0.469 -0.683 -0.560
vn -0.456 -0.683 -0.571
vn -0.450 -0.699 -0.555
vn -0.159 -0.938 -0.308
vn 0.255 -0.962 -0.100
vn -0.014 -0.958 -0.286
vn -0.433 -0.700 -0.568
vn -0.003 -0.975 -0.223
vn -0.040 0.990 0.133
vn 0.291 0.950 0.110
vn -0.031 0.991 0.133
vn -0.015 0.989 0.148
vn -0.023 0.989 0.149
vn 0.037 0.992 0.121
vn 0.224 0.965 0.139
vn 0.106 0.987 0.119
vn -0.010 0.997 0.080
vn -0.170 0.984 0.044
vn -0.096 0.991 0.093
vn 0.035 0.992 0.119
vn 0.144 0.984 0.105
vn 0.126 0.987 0.103
vn -0.147 0.988 0.043
vn 0.117 0.986 0.118
vn -0.238 0.802 0.547
vn -0.169 0.857 0.487
vn -0.023 0.836 0.548
vn 0.212 0.420 0.883
vn 0.378 0.131 0.917
vn 0.281 0.437 0.854
vn 0.560 0.253 0.789
vn 0.464 0.686 0.560
vn -0.684 -0.408 -0.605
vn -0.694 -0.231 -0.682
vn -0.534 0.807 -0.252
vn -0.763 0.537 -0.359
vn 0.726 0.522 0.447
vn 0.692 0.609 0.388
vn -0.718 0.410 -0.563
vn -0.678 -0.115 -0.726
vn -0.055 0.966 -0.252
vn -0.507 0.674 -0.537
vn -0.512 0.399 -0.761
vn 0.277 0.948 0.155
vn 0.846 0.445 0.295
vn 0.851 0.429 0.304
vn -0.079 0.846 -0.528
vn 0.956 0.228 0.183
vn -0.717 0.547 0.431
vn 0.856 -0.510 0.086
vn -0.530 0.825 0.199
vn -0.130 -0.989 -0.069
vn -0.129 -0.989 -0.068
vn -0.175 -0.983 -0.055
vn -0.178 -0.982 -0.058
vn 0.071 -0.993 -0.097
vn 0.087 -0.990 -0.108
vn 0.348 -0.930 -0.119
vn -0.915 0.148 -0.375
vn -0.096 -0.981 -0.170
vn -0.184 -0.968 -0.173
vn -0.165 -0.978 -0.128
vn -0.069 -0.988 -0.136
vn 0.032 -0.992 -0.126
vn 0.354 -0.927 -0.128
vn 0.369 -0.921 -0.126
vn -0.050 -0.974 -0.223
vn 0.607 -0.774 -0.177
vn 0.017 0.889 0.457
vn 0.267 0.727 0.633
vn 0.147 0.856 0.496
vn 0.458 0.692 0.557
vn -0.027 0.982 0.185
vn -0.108 0.955 0.275
vn 0.203 0.926 0.319
vn 0.179 0.941 0.288
vn 0.433 0.846 0.312
vn 0.367 0.848 0.383
vn -0.298 0.934 -0.197
vn -0.199 0.934 -0.295
vn 0.199 0.975 0.102
vn 0.285 0.950 0.128
vn -0.582 -0.662 0.472
vn 0.583 -0.661 0.472
vn -0.562 -0.447 -0.695
vn 0.564 -0.447 -0.695
vn -0.172 -0.983 -0.057
vn 0.158 -0.982 -0.100
vn -0.208 -0.968 -0.137
vn 0.101 -0.983 -0.155
vn -0.582 0.473 0.662
vn 0.583 0.473 0.661
vn -0.568 0.652 -0.502
vn 0.569 0.651 -0.501
vn 0.868 0.407 -0.283
vn 0.432 0.687 0.584
vn 0.871 0.402 -0.284
vn -0.545 0.021 0.838
vn 0.843 0.524 -0.120
vn 0.832 0.542 -0.119
vn 0.197 0.650 0.734
vn 0.416 0.716 0.560
vn -0.518 0.167 0.839
vn -0.303 0.379 0.874
vn 0.653 0.713 0.255
vn 0.256 0.702 0.665
vn -0.410 0.360 0.838
vn -0.543 0.223 0.809
vn 0.689 -0.035 -0.723
vn 0.054 -0.626 -0.778
vn -0.001 -0.627 -0.779
vn -0.084 -0.698 -0.711
vn 0.642 -0.095 -0.761
vn 0.689 -0.033 -0.724
vn 0.806 0.206 -0.555
vn -0.591 -0.727 -0.349
vn -0.318 -0.736 -0.597
vn -0.367 -0.726 -0.581
vn -0.846 -0.502 0.180
vn -0.648 -0.710 -0.274
vn 0.815 0.448 -0.368
vn 0.295 0.775 0.559
vn -0.856 -0.460 0.236
vn -0.728 0.059 0.683
vn -0.498 0.322 0.805
vn -0.856 -0.463 0.230
vn 0.627 -0.099 -0.773
vn -0.618 -0.729 -0.294
vn 0.817 0.456 -0.355
vn -0.728 0.059 0.683
vn 0.178 0.085 0.980
vn -0.248 -0.003 0.969
vn 0.520 0.739 0.429
vn 0.821 0.538 -0.191
vn -0.807 0.481 0.342
vn -0.511 0.850 -0.129
vn 0.266 0.316 -0.911
vn -0.145 0.413 -0.899
vn 0.260 -0.282 0.923
vn -0.176 -0.376 0.910
vn 0.503 -0.756 -0.419
vn 0.815 -0.546 0.194
vn -0.817 -0.460 -0.348
vn -0.544 -0.827 0.144
vn 0.164 -0.136 -0.977
vn -0.255 -0.036 -0.966

# Facets
f 1//1 3//1 2//1
f 4//2 2//2 3//2
f 5//3 3//3 1//3
f 5//4 4//4 3//4
f 6//5 8//5 7//5
f 9//6 8//6 10//6
f 9//7 7//7 8//7
f 11//8 9//8 10//8
f 6//9 12//9 8//9
f 6//10 13//10 12//10
f 14//11 10//11 8//11
f 12//12 14//12 8//12
f 10//13 15//13 11//13
f 10//14 14//14 15//14
f 16//15 12//15 13//15
f 16//16 14//16 12//16
f 16//17 17//17 14//17
f 17//18 15//18 14//18
f 1//19 2//19 18//19
f 18//20 2//20 4//20
f 5//21 1//21 18//21
f 18//22 4//22 5//22
f 19//23 7//23 20//23
f 19//24 6//24 7//24
f 7//25 9//25 21//25
f 20//26 7//26 21//26
f 11//27 21//27 9//27
f 11//28 22//28 21//28
f 13//29 6//29 19//29
f 13//30 19//30 23//30
f 22//31 11//31 15//31
f 24//32 22//32 15//32
f 25//33 13//33 23//33
f 25//34 16//34 13//34
f 26//35 17//35 16//35
f 26//36 16//36 25//36
f 17//37 24//37 15//37
f 17//38 26//38 24//38
f 19//39 20//39 27//39
f 28//40 20//40 21//40
f 28//41 27//41 20//41
f 28//42 21//42 22//42
f 23//43 27//43 29//43
f 23//44 19//44 27//44
f 27//45 28//45 30//45
f 27//46 30//46 29//46
f 30//47 22//47 24//47
f 30//48 28//48 22//48
f 25//49 23//49 29//49
f 29//50 26//50 25//50
f 29//51 30//51 26//51
f 30//52 24//52 26//52
f 31//53 33//53 32//53
f 34//54 32//54 33//54
f 35//55 33//55 31//55
f 35//56 34//56 33//56
f 36//57 38//57 37//57
f 39//58 37//58 38//58
f 40//59 38//59 36//59
f 40//60 39//60 38//60
f 31//61 32//61 41//61
f 41//62 32//62 34//62
f 35//63 31//63 41//63
f 41//64 34//64 35//64
f 36//65 37//65 42//65
f 37//66 39//66 42//66
f 43//67 45//67 44//67
f 46//68 44//68 45//68
f 40//69 36//69 42//69
f 47//70 45//70 43//70
f 42//71 39//71 40//71
f 47//72 46//72 45//72
f 43//73 44//73 48//73
f 48//74 44//74 46//74
f 47//75 43//75 48//75
f 48//76 46//76 47//76
f 49//77 51//77 50//77
f 52//78 51//78 53//78
f 52//79 50//79 51//79
f 54//80 53//80 55//80
f 54//81 52//81 53//81
f 56//82 54//82 55//82
f 57//83 51//83 49//83
f 58//84 57//84 59//84
f 51//85 57//85 58//85
f 53//86 51//86 58//86
f 60//87 55//87 53//87
f 58//88 60//88 53//88
f 55//89 61//89 56//89
f 55//90 60//90 61//90
f 62//91 58//91 59//91
f 63//92 62//92 64//92
f 58//93 62//93 63//93
f 60//94 58//94 63//94
f 60//95 65//95 61//95
f 60//96 63//96 65//96
f 66//97 63//97 64//97
f 66//98 65//98 63//98
f 67//99 69//99 68//99
f 68//100 70//100 67//100
f 71//101 73//101 72//101
f 69//102 71//102 72//102
f 69//103 67//103 71//103
f 67//104 74//104 71//104
f 75//105 67//105 70//105
f 74//106 67//106 75//106
f 71//107 76//107 73//107
f 76//108 78//108 77//108
f 76//109 71//109 78//109
f 71//110 74//110 78//110
f 79//111 74//111 75//111
f 78//112 74//112 79//112
f 78//113 80//113 77//113
f 79//114 80//114 78//114
f 49//115 50//115 81//115
f 50//116 82//116 81//116
f 83//117 82//117 50//117
f 52//118 83//118 50//118
f 52//119 54//119 84//119
f 83//120 52//120 84//120
f 56//121 84//121 54//121
f 56//122 85//122 84//122
f 57//123 49//123 81//123
f 57//124 81//124 59//124
f 59//125 81//125 82//125
f 59//126 82//126 86//126
f 85//127 56//127 61//127
f 87//128 85//128 61//128
f 88//129 59//129 86//129
f 88//130 62//130 59//130
f 89//131 64//131 90//131
f 90//132 64//132 62//132
f 90//133 62//133 88//133
f 87//134 89//134 90//134
f 65//135 89//135 87//135
f 61//136 65//136 87//136
f 66//137 64//137 89//137
f 89//138 65//138 66//138
f 68//139 69//139 91//139
f 68//140 91//140 70//140
f 72//141 73//141 92//141
f 72//142 92//142 93//142
f 69//143 72//143 93//143
f 69//144 93//144 94//144
f 69//145 94//145 91//145
f 94//146 70//146 91//146
f 94//147 95//147 70//147
f 95//148 75//148 70//148
f 73//149 76//149 92//149
f 77//150 97//150 96//150
f 76//151 77//151 96//151
f 76//152 96//152 93//152
f 76//153 93//153 92//153
f 97//154 95//154 96//154
f 97//155 79//155 95//155
f 79//156 75//156 95//156
f 77//157 80//157 97//157
f 79//158 97//158 80//158
f 82//159 83//159 98//159
f 99//160 83//160 84//160
f 99//161 98//161 83//161
f 99//162 84//162 85//162
f 86//163 98//163 100//163
f 86//164 82//164 98//164
f 98//165 99//165 101//165
f 98//166 101//166 100//166
f 101//167 85//167 87//167
f 101//168 99//168 85//168
f 88//169 86//169 100//169
f 100//170 90//170 88//170
f 100//171 101//171 90//171
f 101//172 87//172 90//172
f 102//173 104//173 103//173
f 105//174 103//174 104//174
f 106//175 104//175 102//175
f 106//176 105//176 104//176
f 94//177 93//177 107//177
f 94//178 107//178 95//178
f 93//179 96//179 107//179
f 95//180 107//180 96//180
f 102//181 103//181 108//181
f 108//182 103//182 105//182
f 106//183 102//183 108//183
f 108//184 105//184 106//184
f 109//185 111//185 110//185
f 112//186 111//186 113//186
f 112//187 110//187 111//187
f 114//188 112//188 113//188
f 109//189 115//189 111//189
f 109//190 116//190 115//190
f 117//191 113//191 111//191
f 115//192 117//192 111//192
f 113//193 118//193 114//193
f 113//194 117//194 118//194
f 119//195 115//195 116//195
f 119//196 117//196 115//196
f 119//197 120//197 117//197
f 120//198 118//198 117//198
f 109//199 110//199 121//199
f 122//200 110//200 112//200
f 122//201 121//201 110//201
f 122//202 112//202 114//202
f 123//203 121//203 124//203
f 109//204 121//204 123//204
f 116//205 109//205 123//205
f 125//206 124//206 126//206
f 126//207 124//207 121//207
f 126//208 121//208 122//208
f 126//209 114//209 118//209
f 126//210 122//210 114//210
f 127//211 116//211 123//211
f 127//212 119//212 116//212
f 120//213 125//213 126//213
f 127//214 125//214 120//214
f 119//215 127//215 120//215
f 126//216 118//216 120//216
f 123//217 124//217 128//217
f 128//218 124//218 125//218
f 127//219 123//219 128//219
f 128//220 125//220 127//220
f 129//221 131//221 130//221
f 132//222 130//222 131//222
f 129//223 133//223 131//223
f 129//224 134//224 133//224
f 131//225 135//225 132//225
f 131//226 133//226 135//226
f 136//227 133//227 134//227
f 136//228 135//228 133//228
f 129//229 130//229 137//229
f 137//230 130//230 132//230
f 134//231 137//231 138//231
f 134//232 129//232 137//232
f 138//233 132//233 135//233
f 138//234 137//234 132//234
f 136//235 134//235 138//235
f 138//236 135//236 136//236

# Thankyou for using Spin3D

