# Created using Spin3D

# Vertex Array
v 5.764 -35.095 23.563
v 5.765 -35.096 23.564
v 5.765 -35.097 23.563
v 5.766 -35.095 23.563
v 5.765 -35.095 23.562
v 8.790 -34.653 20.614
v 8.789 -34.652 20.614
v 8.790 -34.652 20.615
v 8.791 -34.652 20.614
v 8.790 -34.652 20.613
v 5.765 -35.094 23.563
v 8.790 -34.651 20.614
v 24.329 -20.865 16.915
v 24.304 -20.872 16.914
v 24.250 -20.871 16.914
v 24.492 -20.853 16.914
v 24.465 -20.858 16.914
v 24.652 -20.844 16.914
v 24.623 -20.844 16.914
v 24.713 -20.841 16.914
v 24.343 -20.864 16.915
v 24.540 -20.854 16.914
v 24.688 -20.847 16.914
v 21.208 -17.603 -9.972
v 21.209 -17.604 -9.971
v 21.209 -17.605 -9.973
v 21.210 -17.603 -9.972
v 21.209 -17.603 -9.974
v 24.272 -20.873 16.914
v 24.344 -20.873 16.913
v 24.459 -20.865 16.914
v 24.626 -20.850 16.914
v 24.694 -20.848 16.914
v 24.405 -20.866 16.913
v 24.591 -20.857 16.913
v 21.209 -17.602 -9.972
v 24.473 -20.867 16.913
v 24.594 -20.858 16.913

# Normal Array
vn -0.559 -0.681 0.472
vn 0.549 -0.687 0.476
vn -0.575 -0.493 -0.653
vn -0.591 -0.654 0.473
vn 0.571 -0.506 -0.647
vn 0.546 -0.683 0.485
vn -0.582 -0.454 -0.675
vn 0.556 -0.482 -0.678
vn -0.568 0.453 0.687
vn 0.567 0.436 0.699
vn -0.585 0.662 -0.469
vn 0.591 0.654 -0.471
vn -0.572 0.506 0.646
vn 0.602 0.482 0.637
vn -0.530 0.673 -0.517
vn 0.578 0.647 -0.497
vn 0.005 -0.237 0.972
vn 0.014 -0.108 0.994
vn 0.024 -0.303 0.953
vn -0.009 0.099 -0.995
vn 0.007 -0.073 0.997
vn -0.013 0.359 -0.933
vn -0.077 0.993 -0.086
vn -0.077 0.994 -0.082
vn -0.011 0.114 -0.993
vn -0.010 0.129 -0.992
vn -0.001 0.026 -1.000
vn -0.001 0.024 -1.000
vn -0.581 -0.657 0.480
vn 0.579 -0.658 0.481
vn -0.573 -0.467 -0.673
vn 0.578 -0.465 -0.671
vn 0.003 -0.400 0.916
vn 0.008 -0.588 0.809
vn 0.017 -0.390 0.921
vn 0.003 -0.068 0.998
vn 0.001 0.000 1.000
vn 0.004 -0.069 0.998
vn 0.002 0.001 1.000
vn -0.005 0.079 0.997
vn -0.013 0.239 -0.971
vn -0.012 0.215 -0.977
vn -0.013 0.239 -0.971
vn -0.015 0.199 -0.980
vn -0.007 0.158 -0.987
vn -0.009 0.134 -0.991
vn 0.043 -0.199 -0.979
vn 0.036 -0.232 -0.972
vn -0.564 0.497 0.659
vn 0.561 0.499 0.661
vn -0.557 0.692 -0.458
vn 0.560 0.691 -0.457
vn -0.001 -0.127 0.992
vn 0.021 -0.240 0.970
vn 0.010 -0.040 0.999
vn 0.002 -0.170 0.985
vn 0.004 0.069 -0.998
vn 0.002 -0.091 -0.996
vn -0.014 0.098 -0.995
vn -0.001 0.160 -0.987

# Facets
f 1//1 3//1 2//1
f 4//2 2//2 3//2
f 5//3 3//3 1//3
f 6//4 8//4 7//4
f 5//5 4//5 3//5
f 9//6 8//6 6//6
f 10//7 6//7 7//7
f 10//8 9//8 6//8
f 1//9 2//9 11//9
f 11//10 2//10 4//10
f 5//11 1//11 11//11
f 11//12 4//12 5//12
f 7//13 8//13 12//13
f 12//14 8//14 9//14
f 10//15 7//15 12//15
f 12//16 9//16 10//16
f 13//17 15//17 14//17
f 13//18 17//18 16//18
f 14//19 17//19 13//19
f 16//20 19//20 18//20
f 17//21 19//21 16//21
f 19//22 20//22 18//22
f 13//23 21//23 15//23
f 16//24 21//24 13//24
f 22//25 21//25 16//25
f 18//26 22//26 16//26
f 23//27 22//27 18//27
f 20//28 23//28 18//28
f 24//29 26//29 25//29
f 27//30 25//30 26//30
f 28//31 26//31 24//31
f 28//32 27//32 26//32
f 14//33 15//33 29//33
f 30//34 14//34 29//34
f 30//35 31//35 14//35
f 31//36 17//36 14//36
f 19//37 17//37 32//37
f 17//38 31//38 32//38
f 32//39 20//39 19//39
f 33//40 20//40 32//40
f 15//41 21//41 29//41
f 29//42 34//42 30//42
f 29//43 21//43 34//43
f 21//44 22//44 34//44
f 23//45 35//45 22//45
f 22//46 35//46 34//46
f 33//47 23//47 20//47
f 35//48 23//48 33//48
f 24//49 25//49 36//49
f 36//50 25//50 27//50
f 28//51 24//51 36//51
f 36//52 27//52 28//52
f 31//53 30//53 37//53
f 31//54 38//54 32//54
f 37//55 38//55 31//55
f 32//56 38//56 33//56
f 30//57 34//57 37//57
f 35//58 37//58 34//58
f 38//59 37//59 35//59
f 33//60 38//60 35//60

# Thankyou for using Spin3D

