# Created using Spin3D

# Vertex Array
v 45.389 -14.814 -29.089
v 45.387 -14.814 -29.089
v 45.387 -14.812 -29.089
v 45.385 -14.814 -29.089
v 45.388 -14.812 -29.091
v 45.389 -14.814 -29.091
v 45.385 -14.813 -29.091
v 45.387 -14.814 -29.091
v 45.388 -14.816 -29.090
v 45.387 -14.816 -29.091
v -29.501 7.830 -3.072
v -29.502 7.831 -3.074
v -29.503 7.830 -3.072
v -29.505 7.830 -3.073
v -29.503 7.830 -3.070
v -29.501 7.832 -3.073
v -29.503 7.832 -3.074
v -29.505 7.832 -3.072
v -29.502 7.832 -3.070
v -29.503 7.832 -3.072

# Normal Array
vn 0.168 0.140 0.976
vn -0.291 0.023 0.956
vn 0.512 0.768 0.385
vn 0.813 0.543 -0.211
vn -0.811 0.444 0.380
vn -0.487 0.858 -0.167
vn 0.242 0.305 -0.921
vn -0.150 0.387 -0.910
vn 0.275 -0.323 0.906
vn -0.184 -0.414 0.891
vn 0.484 -0.770 -0.416
vn 0.813 -0.543 0.211
vn -0.812 -0.444 -0.380
vn -0.517 -0.845 0.133
vn 0.130 -0.081 -0.988
vn -0.240 0.012 -0.971
vn 0.252 -0.917 -0.309
vn -0.169 -0.895 -0.413
vn 0.152 -0.983 0.107
vn -0.265 -0.964 0.001
vn 0.519 0.410 -0.750
vn 0.819 -0.230 -0.526
vn -0.495 -0.145 -0.857
vn -0.799 0.403 -0.446
vn 0.825 0.142 0.547
vn 0.500 -0.446 0.742
vn -0.827 -0.309 0.470
vn -0.508 0.179 0.842
vn 0.173 0.981 -0.093
vn -0.247 0.969 -0.009
vn 0.260 0.915 0.309
vn -0.151 0.898 0.413

# Facets
f 1//1 3//1 2//1
f 4//2 2//2 3//2
f 1//3 5//3 3//3
f 1//4 6//4 5//4
f 3//5 7//5 4//5
f 3//6 5//6 7//6
f 8//7 5//7 6//7
f 8//8 7//8 5//8
f 1//9 2//9 9//9
f 9//10 2//10 4//10
f 6//11 9//11 10//11
f 6//12 1//12 9//12
f 10//13 4//13 7//13
f 10//14 9//14 4//14
f 8//15 6//15 10//15
f 10//16 7//16 8//16
f 11//17 13//17 12//17
f 14//18 12//18 13//18
f 15//19 13//19 11//19
f 15//20 14//20 13//20
f 16//21 12//21 17//21
f 16//22 11//22 12//22
f 14//23 17//23 12//23
f 14//24 18//24 17//24
f 19//25 11//25 16//25
f 19//26 15//26 11//26
f 15//27 18//27 14//27
f 15//28 19//28 18//28
f 16//29 17//29 20//29
f 20//30 17//30 18//30
f 19//31 16//31 20//31
f 20//32 18//32 19//32

# Thankyou for using Spin3D

