# Created using Spin3D

# Vertex Array
v 5.629 -7.864 31.989
v 6.078 -7.829 32.538
v 6.405 -7.971 31.774
v 6.696 -7.553 32.462
v 4.749 -7.184 30.401
v 5.056 -7.257 31.397
v 5.467 -7.790 30.867
v 6.385 -7.839 30.620
v 7.205 -7.573 31.819
v 7.193 -7.614 30.955
v 7.677 -7.085 31.200
v 5.014 -7.288 29.801
v 4.674 -6.408 29.408
v 5.823 -7.336 29.642
v 6.889 -7.134 29.732
v 7.689 -6.731 30.171
v 5.244 -6.614 28.940
v 6.245 -5.946 28.361
v 7.334 -6.137 29.052
v 5.611 -7.344 32.361
v 6.182 -7.399 32.762
v 6.586 -6.871 32.486
v 4.637 -6.238 30.386
v 5.316 -6.146 31.476
v 7.309 -6.691 31.810
v 7.863 -6.111 30.686
v 4.619 -5.150 29.155
v 7.790 -5.549 29.437
v 5.149 -5.311 28.188
v 5.477 -4.129 27.312
v 5.822 -4.790 27.366
v 6.399 -4.686 27.380
v 7.131 -4.915 28.190
v 6.024 -4.119 27.016
v 5.998 -6.732 32.412
v 4.845 -4.967 30.139
v 5.551 -4.831 30.739
v 6.492 -5.642 31.543
v 7.490 -5.546 31.049
v 7.688 -4.950 29.993
v 4.832 -4.168 29.062
v 7.527 -4.538 28.907
v 4.985 -4.152 28.134
v 5.499 -3.577 27.604
v 7.002 -3.995 28.172
v 6.515 -3.984 27.392
v 5.923 -3.661 27.188
v 5.348 -3.978 29.643
v 6.253 -4.221 30.206
v 7.117 -4.695 30.505
v 5.360 -3.565 28.479
v 5.999 -3.569 29.073
v 6.950 -3.981 29.228
v 6.194 -3.510 27.991
v 3.818 40.237 40.067
v 3.818 40.235 40.067
v 3.818 40.237 40.071
v 3.818 40.236 40.068
v 3.817 40.237 40.070
v 3.819 40.232 40.063
v 3.818 40.230 40.061
v 3.818 40.233 40.065
v 3.818 40.234 40.062
v 3.819 40.235 40.064
v 3.817 40.236 40.065
v 3.818 40.238 40.067
v 3.819 40.231 40.061
v 3.818 40.234 40.062

# Normal Array
vn -0.097 -0.985 0.142
vn 0.418 -0.844 0.336
vn -0.696 -0.699 0.164
vn -0.758 -0.649 0.066
vn -0.149 -0.988 -0.044
vn -0.083 -0.990 -0.112
vn 0.403 -0.848 0.345
vn 0.444 -0.895 0.037
vn 0.310 -0.944 -0.113
vn 0.733 -0.680 0.023
vn -0.592 -0.797 -0.124
vn -0.841 -0.456 -0.293
vn -0.152 -0.912 -0.382
vn -0.129 -0.917 -0.377
vn 0.401 -0.815 -0.419
vn 0.200 -0.819 -0.537
vn 0.767 -0.609 -0.200
vn 0.582 -0.698 -0.418
vn -0.649 -0.505 -0.569
vn -0.170 -0.754 -0.635
vn 0.033 -0.683 -0.730
vn 0.190 -0.696 -0.692
vn 0.336 -0.628 -0.702
vn 0.594 -0.617 -0.516
vn -0.571 -0.265 0.777
vn -0.681 -0.441 0.584
vn 0.322 -0.497 0.806
vn 0.516 0.053 0.855
vn -0.844 0.161 0.512
vn -0.952 -0.107 0.287
vn -0.826 -0.346 0.444
vn -0.849 0.162 0.503
vn 0.669 0.082 0.739
vn 0.780 -0.086 0.620
vn 0.825 -0.092 0.557
vn 0.876 0.083 0.474
vn -0.993 -0.117 -0.017
vn -0.998 -0.049 -0.029
vn 0.973 -0.220 -0.064
vn 0.977 -0.165 -0.131
vn -0.879 -0.131 -0.459
vn -0.662 -0.410 -0.627
vn -0.591 -0.368 -0.718
vn -0.290 -0.683 -0.670
vn -0.157 -0.502 -0.850
vn 0.131 -0.619 -0.774
vn 0.529 -0.561 -0.637
vn 0.409 -0.480 -0.776
vn 0.824 -0.348 -0.446
vn 0.795 -0.257 -0.550
vn -0.449 -0.303 -0.841
vn 0.110 -0.485 -0.868
vn -0.535 0.271 0.800
vn 0.000 0.464 0.886
vn -0.624 0.464 0.629
vn -0.834 0.233 0.500
vn -0.641 0.348 0.684
vn -0.327 0.676 0.661
vn -0.264 0.507 0.820
vn 0.047 0.610 0.791
vn 0.491 0.553 0.673
vn 0.352 0.479 0.804
vn 0.828 0.214 0.518
vn 0.869 0.344 0.357
vn -0.963 0.193 0.185
vn -0.958 0.225 0.178
vn 0.988 0.156 0.013
vn 0.973 0.222 -0.060
vn -0.968 0.195 -0.157
vn -0.878 -0.145 -0.456
vn -0.848 -0.143 -0.511
vn -0.825 0.290 -0.485
vn 0.844 0.108 -0.526
vn 0.722 -0.107 -0.683
vn 0.880 -0.020 -0.475
vn 0.845 0.109 -0.523
vn -0.604 0.391 -0.695
vn -0.467 0.218 -0.857
vn 0.622 -0.089 -0.778
vn 0.486 0.400 -0.777
vn -0.589 0.581 0.562
vn -0.038 0.681 0.731
vn -0.185 0.758 0.625
vn 0.306 0.605 0.735
vn 0.134 0.691 0.710
vn 0.670 0.586 0.456
vn -0.582 0.768 0.266
vn -0.697 0.572 0.433
vn -0.089 0.855 0.511
vn -0.289 0.903 0.317
vn 0.315 0.845 0.431
vn 0.301 0.854 0.424
vn 0.728 0.670 0.146
vn 0.612 0.722 0.323
vn -0.802 0.585 -0.123
vn -0.797 0.589 -0.134
vn -0.081 0.996 -0.026
vn -0.038 0.998 0.048
vn 0.538 0.777 -0.326
vn 0.512 0.859 0.015
vn 0.379 0.918 0.118
vn 0.701 0.712 0.026
vn 0.011 0.982 -0.189
vn 0.537 0.778 -0.328
vn 1.000 -0.009 0.011
vn -0.420 -0.764 0.489
vn 0.291 0.954 -0.069
vn -0.686 -0.558 0.466
vn 0.454 -0.697 0.555
vn -1.000 0.010 -0.010
vn 0.227 -0.832 0.506
vn 0.998 -0.013 0.053
vn 0.829 -0.346 0.440
vn -0.229 -0.759 0.609
vn -0.999 -0.037 -0.022
vn -0.851 -0.502 0.155
vn 0.979 0.189 0.077
vn 0.934 0.238 0.265
vn -0.964 -0.218 0.151
vn -0.857 0.499 -0.131
vn 0.658 -0.632 0.410
vn -0.237 0.366 -0.900
vn 0.856 0.282 -0.432
vn 0.947 -0.254 0.195
vn -0.971 0.038 -0.237
vn -0.923 -0.146 -0.356
vn 0.716 0.539 -0.443
vn -0.697 0.596 -0.398

# Facets
f 1//1 3//1 2//1
f 4//2 2//2 3//2
f 5//3 7//3 6//3
f 7//4 1//4 6//4
f 3//5 1//5 7//5
f 8//6 3//6 7//6
f 3//7 9//7 4//7
f 10//8 9//8 3//8
f 8//9 10//9 3//9
f 11//10 9//10 10//10
f 5//11 12//11 7//11
f 5//12 13//12 12//12
f 14//13 8//13 7//13
f 12//14 14//14 7//14
f 15//15 10//15 8//15
f 14//16 15//16 8//16
f 10//17 16//17 11//17
f 10//18 15//18 16//18
f 17//19 12//19 13//19
f 17//20 14//20 12//20
f 17//21 18//21 14//21
f 18//22 15//22 14//22
f 18//23 19//23 15//23
f 19//24 16//24 15//24
f 20//25 2//25 21//25
f 20//26 1//26 2//26
f 4//27 21//27 2//27
f 4//28 22//28 21//28
f 23//29 6//29 24//29
f 23//30 5//30 6//30
f 1//31 20//31 6//31
f 20//32 24//32 6//32
f 22//33 4//33 25//33
f 4//34 9//34 25//34
f 11//35 25//35 9//35
f 11//36 26//36 25//36
f 13//37 5//37 23//37
f 13//38 23//38 27//38
f 26//39 11//39 16//39
f 28//40 26//40 16//40
f 29//41 13//41 27//41
f 29//42 17//42 13//42
f 30//43 31//43 29//43
f 29//44 31//44 18//44
f 29//45 18//45 17//45
f 31//46 32//46 18//46
f 18//47 32//47 33//47
f 18//48 33//48 19//48
f 19//49 28//49 16//49
f 19//50 33//50 28//50
f 34//51 31//51 30//51
f 34//52 32//52 31//52
f 20//53 21//53 35//53
f 35//54 21//54 22//54
f 36//55 24//55 37//55
f 36//56 23//56 24//56
f 20//57 35//57 24//57
f 24//58 35//58 38//58
f 24//59 38//59 37//59
f 35//60 22//60 38//60
f 38//61 22//61 25//61
f 38//62 25//62 39//62
f 26//63 39//63 25//63
f 26//64 40//64 39//64
f 27//65 23//65 36//65
f 27//66 36//66 41//66
f 40//67 26//67 28//67
f 42//68 40//68 28//68
f 43//69 27//69 41//69
f 43//70 29//70 27//70
f 29//71 43//71 30//71
f 43//72 44//72 30//72
f 45//73 33//73 46//73
f 33//74 32//74 46//74
f 33//75 42//75 28//75
f 33//76 45//76 42//76
f 47//77 30//77 44//77
f 47//78 34//78 30//78
f 34//79 46//79 32//79
f 34//80 47//80 46//80
f 36//81 37//81 48//81
f 49//82 37//82 38//82
f 49//83 48//83 37//83
f 50//84 38//84 39//84
f 50//85 49//85 38//85
f 50//86 39//86 40//86
f 41//87 48//87 51//87
f 41//88 36//88 48//88
f 48//89 49//89 52//89
f 48//90 52//90 51//90
f 49//91 50//91 53//91
f 49//92 53//92 52//92
f 53//93 40//93 42//93
f 53//94 50//94 40//94
f 43//95 41//95 51//95
f 51//96 44//96 43//96
f 54//97 44//97 51//97
f 52//98 54//98 51//98
f 54//99 45//99 46//99
f 53//100 45//100 54//100
f 52//101 53//101 54//101
f 53//102 42//102 45//102
f 47//103 44//103 54//103
f 54//104 46//104 47//104
f 55//105 57//105 56//105
f 58//106 56//106 57//106
f 59//107 57//107 55//107
f 59//108 58//108 57//108
f 60//109 62//109 61//109
f 63//110 61//110 62//110
f 60//111 56//111 62//111
f 55//112 56//112 60//112
f 64//113 55//113 60//113
f 58//114 62//114 56//114
f 63//115 62//115 58//115
f 65//116 63//116 58//116
f 66//117 55//117 64//117
f 66//118 59//118 55//118
f 59//119 65//119 58//119
f 59//120 66//120 65//120
f 60//121 61//121 67//121
f 67//122 61//122 63//122
f 64//123 67//123 68//123
f 64//124 60//124 67//124
f 68//125 63//125 65//125
f 68//126 67//126 63//126
f 66//127 64//127 68//127
f 68//128 65//128 66//128

# Thankyou for using Spin3D

