# Created using Spin3D

# Vertex Array
v -4.906 -46.801 21.531
v -4.906 -46.801 21.529
v -4.906 -46.799 21.531
v -4.904 -46.800 21.529
v -4.904 -46.799 21.532
v -4.904 -46.801 21.531
v -4.906 -46.801 21.533
v -4.904 -46.802 21.533
v -4.906 -46.803 21.531
v -4.904 -46.803 21.530
v 5.766 -28.314 29.196
v 6.270 -28.035 29.656
v 6.671 -28.437 29.305
v 7.211 -28.230 29.620
v 7.606 -28.191 29.234
v 7.979 -27.881 29.431
v 6.223 -28.333 28.834
v 5.716 -28.173 28.739
v 7.181 -28.027 28.690
v 8.581 -27.288 28.655
v 6.243 -27.487 28.112
v 7.571 -27.184 27.951
v 5.032 -27.304 29.088
v 5.691 -27.190 29.455
v 5.390 -27.856 29.361
v 6.471 -27.434 29.754
v 7.398 -27.561 29.676
v 8.479 -27.299 29.295
v 5.276 -27.679 28.752
v 4.950 -26.911 28.564
v 9.590 -26.755 28.563
v 9.283 -26.678 28.813
v 9.794 -26.507 28.508
v 5.417 -26.715 27.953
v 5.896 -25.592 27.295
v 6.179 -26.313 27.303
v 7.129 -26.375 27.226
v 8.321 -26.228 27.525
v 9.392 -26.424 28.205
v 6.743 -25.486 26.772
v 7.588 -25.555 26.806
v 5.195 -26.522 28.782
v 5.927 -26.210 28.965
v 6.868 -26.622 29.392
v 7.803 -25.914 28.879
v 8.246 -26.663 29.249
v 5.220 -26.192 28.102
v 5.874 -25.544 28.046
v 8.791 -25.972 28.582
v 8.739 -25.643 27.776
v 9.512 -26.193 28.383
v 6.334 -24.893 27.160
v 8.065 -25.302 26.997
v 6.579 -24.899 26.734
v 7.306 -24.934 26.661
v 3.229 -25.736 74.376
v 3.770 -25.835 74.632
v 3.907 -25.877 74.199
v 4.745 -25.455 74.532
v 4.564 -25.580 73.711
v 5.771 -24.968 73.444
v 3.705 -25.536 73.608
v 4.734 -25.010 72.953
v 6.827 -25.591 28.555
v 6.897 -24.917 27.573
v 7.889 -25.307 28.082
v 6.944 -24.659 26.875
v 7.717 -24.908 27.181
v 3.028 -24.673 74.995
v 3.855 -24.472 75.517
v 3.649 -25.334 75.075
v 4.427 -24.837 75.521
v 4.545 -25.206 75.243
v 5.388 -24.657 75.126
v 2.390 -25.079 74.182
v 2.531 -24.770 74.427
v 2.665 -25.275 74.567
v 6.205 -24.703 74.192
v 6.662 -24.566 73.558
v 6.909 -24.084 73.715
v 2.834 -25.270 73.875
v 3.751 -24.561 72.864
v 4.456 -23.889 72.173
v 4.828 -24.303 72.340
v 5.767 -24.339 72.578
v 6.650 -24.223 73.057
v 5.417 -23.605 72.203
v 3.584 -23.999 75.194
v 4.287 -23.805 75.449
v 4.839 -24.146 75.542
v 5.760 -23.853 75.141
v 2.822 -24.591 73.755
v 3.277 -23.978 74.324
v 6.458 -23.990 74.523
v 6.828 -23.503 73.904
v 3.772 -23.697 73.029
v 4.013 -23.819 72.375
v 6.371 -23.713 72.557
v 6.817 -23.535 73.154
v 4.551 -23.387 72.273
v 5.288 -23.032 72.412
v 6.119 -23.150 72.679
v 4.280 -23.421 74.784
v 5.182 -23.462 75.109
v 4.402 -23.158 73.676
v 5.381 -23.024 74.176
v 6.188 -23.343 74.498
v 4.654 -23.043 72.754
v 5.439 -22.869 73.116
v 6.338 -23.065 73.558
v 6.875 -5.924 29.191
v 7.133 -6.192 29.215
v 7.218 -6.255 29.126
v 7.390 -6.201 29.277
v 7.458 -6.203 29.169
v 7.651 -5.970 29.381
v 7.146 -5.871 29.141
v 7.552 -5.893 29.249
v 24.235 -7.237 19.133
v 24.236 -7.238 19.134
v 24.236 -7.239 19.133
v 24.237 -7.237 19.133
v 24.236 -7.237 19.132
v 6.613 -5.052 29.628
v 7.100 -5.021 29.861
v 7.050 -5.717 29.474
v 7.425 -5.428 29.759
v 7.515 -5.860 29.530
v 7.672 -5.465 29.694
v 6.206 -5.191 29.285
v 6.254 -5.027 29.428
v 6.461 -5.411 29.335
v 7.680 -5.475 29.502
v 6.536 -5.388 29.216
v 6.935 -5.288 29.253
v 7.383 -5.420 29.325
v 24.236 -7.236 19.133
v 6.843 -4.660 29.883
v 7.183 -4.612 30.019
v 7.472 -4.944 29.946
v 7.609 -4.946 29.807
v 6.273 -4.991 29.355
v 6.539 -4.709 29.626
v 7.505 -5.009 29.589
v 6.629 -4.901 29.401
v 7.119 -4.889 29.486
v 7.012 -4.476 29.901
v 7.378 -4.585 29.985
v 6.887 -4.586 29.660
v 7.301 -4.618 29.785
v 4.560 13.276 -16.021
v 4.532 13.420 -15.973
v 4.691 13.078 -16.114
v 4.633 13.395 -16.025
v 4.672 13.091 -16.118
v 4.520 13.477 -15.982
v 4.804 13.034 -16.177
v 4.808 12.964 -16.205
v 4.868 13.024 -16.222
v 4.688 13.250 -16.110
v 4.821 13.127 -16.193
v 4.405 13.740 -15.868
v 4.409 13.899 -15.833
v 4.498 13.954 -15.873
v 4.345 14.053 -15.800
v 4.760 13.327 -16.109
v 4.809 13.283 -16.154
v 4.508 13.724 -15.944
v 4.641 13.620 -16.024
v 4.262 14.306 -15.703
v 4.292 14.378 -15.700
v 4.305 14.482 -15.695
v 4.237 14.492 -15.671
v 4.661 13.672 -16.014
v 4.448 14.172 -15.827
v 4.380 14.196 -15.799
v 18.759 18.970 -10.074
v 18.760 18.970 -10.073
v 18.760 18.969 -10.074
v 18.762 18.970 -10.074
v 4.213 14.613 -15.630
v 18.761 18.970 -10.075
v 4.270 14.550 -15.676
v 18.761 18.971 -10.074

# Normal Array
vn -0.949 0.217 -0.229
vn 0.294 0.880 -0.373
vn -0.273 0.647 -0.712
vn 0.955 0.273 -0.116
vn -0.951 0.238 0.197
vn -0.234 0.723 0.650
vn 0.315 0.364 0.877
vn 0.947 0.109 0.301
vn -0.955 -0.211 -0.209
vn 0.241 -0.382 -0.892
vn -0.313 -0.701 -0.640
vn 0.956 -0.130 -0.264
vn -0.957 -0.190 0.220
vn -0.273 -0.644 0.714
vn 0.263 -0.889 0.376
vn 0.949 -0.291 0.123
vn -0.179 -0.741 0.647
vn 0.264 -0.949 0.172
vn -0.123 -0.719 0.684
vn 0.459 -0.800 0.387
vn -0.122 -0.987 -0.102
vn -0.246 -0.934 -0.261
vn 0.201 -0.884 -0.423
vn 0.222 -0.886 -0.407
vn 0.657 -0.751 -0.063
vn 0.386 -0.756 -0.529
vn -0.061 -0.647 -0.760
vn 0.094 -0.648 -0.756
vn 0.065 -0.675 -0.735
vn 0.356 -0.704 -0.615
vn -0.497 0.103 0.861
vn -0.363 -0.565 0.741
vn -0.316 0.009 0.949
vn -0.366 -0.030 0.930
vn 0.019 -0.088 0.996
vn 0.058 -0.181 0.982
vn 0.305 -0.163 0.938
vn 0.348 -0.081 0.934
vn -0.839 -0.544 -0.001
vn -0.890 -0.421 -0.176
vn -0.742 -0.659 -0.122
vn -0.779 -0.626 -0.036
vn 0.392 -0.625 0.675
vn 0.642 -0.761 0.090
vn 0.766 -0.632 0.112
vn 0.559 -0.288 0.777
vn -0.646 -0.428 -0.631
vn -0.559 -0.229 -0.797
vn -0.361 -0.542 -0.759
vn -0.379 -0.557 -0.739
vn -0.455 -0.384 -0.803
vn 0.056 -0.649 -0.759
vn -0.103 -0.568 -0.817
vn 0.265 -0.558 -0.786
vn 0.406 -0.618 -0.673
vn 0.316 -0.655 -0.687
vn 0.267 -0.630 -0.729
vn 0.440 -0.526 -0.728
vn -0.495 -0.205 -0.844
vn -0.102 -0.487 -0.867
vn -0.002 -0.456 -0.890
vn 0.266 -0.554 -0.789
vn -0.497 0.404 0.768
vn -0.401 0.485 0.777
vn -0.183 0.475 0.861
vn -0.182 0.473 0.862
vn 0.104 0.490 0.866
vn 0.107 0.342 0.934
vn 0.126 0.351 0.928
vn 0.289 0.174 0.941
vn -0.874 0.448 0.186
vn -0.863 0.330 0.383
vn -0.441 0.715 0.543
vn -0.655 0.689 0.311
vn 0.270 0.550 0.790
vn 0.359 0.872 0.333
vn 0.371 0.512 0.775
vn 0.342 0.499 0.796
vn 0.382 0.205 0.901
vn 0.278 0.561 0.780
vn -0.772 -0.113 -0.626
vn -0.733 -0.084 -0.676
vn -0.705 0.707 -0.065
vn -0.850 0.523 -0.057
vn 0.685 0.186 -0.704
vn 0.534 -0.018 -0.845
vn 0.695 -0.200 -0.690
vn 0.615 0.255 -0.746
vn -0.789 0.407 -0.460
vn -0.497 -0.194 -0.846
vn 0.021 -0.218 -0.976
vn -0.104 -0.094 -0.990
vn 0.495 -0.322 -0.807
vn 0.389 -0.038 -0.920
vn -0.195 -0.980 0.032
vn 0.436 -0.899 0.041
vn 0.374 -0.905 0.204
vn 0.458 -0.888 0.034
vn -0.286 -0.869 -0.404
vn 0.015 -0.864 -0.504
vn 0.030 -0.802 -0.597
vn 0.285 -0.796 -0.534
vn -0.077 0.627 0.775
vn -0.050 0.629 0.776
vn -0.246 0.807 0.536
vn -0.269 0.773 0.575
vn 0.227 0.763 0.606
vn 0.059 0.791 0.609
vn 0.032 0.823 0.567
vn 0.444 0.839 0.314
vn -0.202 0.923 0.328
vn -0.301 0.837 0.458
vn 0.168 0.913 0.372
vn 0.158 0.922 0.352
vn 0.659 0.705 -0.262
vn 0.440 0.849 0.292
vn -0.454 0.848 -0.273
vn -0.056 0.567 -0.822
vn 0.414 0.832 -0.368
vn 0.544 0.698 -0.465
vn -0.448 -0.321 0.834
vn -0.061 -0.613 0.788
vn -0.256 -0.393 0.883
vn 0.410 -0.462 0.787
vn -0.827 -0.066 0.558
vn -0.751 -0.017 0.660
vn -0.449 -0.322 0.833
vn -0.361 -0.698 0.619
vn -0.417 -0.656 0.629
vn 0.306 -0.587 0.750
vn 0.068 -0.935 0.347
vn 0.400 -0.912 0.090
vn 0.465 -0.884 0.043
vn 0.488 -0.739 0.464
vn 0.537 -0.738 0.410
vn 0.743 -0.520 0.422
vn -0.462 -0.879 -0.119
vn -0.657 -0.736 -0.166
vn -0.383 -0.808 -0.448
vn -0.393 -0.546 -0.740
vn -0.256 -0.549 -0.795
vn -0.217 -0.623 -0.751
vn -0.198 -0.589 -0.784
vn 0.162 -0.659 -0.734
vn 0.297 -0.772 -0.562
vn 0.392 -0.744 -0.542
vn 0.405 -0.750 -0.523
vn 0.889 -0.368 -0.273
vn 0.113 -0.281 -0.953
vn 0.217 -0.360 -0.907
vn -0.403 0.347 0.847
vn -0.558 0.225 0.799
vn -0.019 -0.019 1.000
vn -0.074 0.149 0.986
vn 0.409 -0.270 0.872
vn 0.448 -0.223 0.866
vn -0.816 0.539 -0.210
vn -0.730 0.669 -0.138
vn -0.626 0.647 0.437
vn -0.778 0.558 0.288
vn 0.601 -0.291 0.745
vn 0.640 -0.498 0.585
vn 0.741 -0.480 0.470
vn 0.870 -0.037 0.491
vn -0.605 -0.149 -0.782
vn -0.683 -0.139 -0.717
vn -0.687 0.153 -0.711
vn -0.732 0.668 -0.135
vn -0.929 0.091 -0.358
vn -0.432 -0.385 -0.815
vn 0.467 -0.476 -0.745
vn 0.812 -0.117 -0.572
vn 0.928 -0.179 -0.328
vn 0.989 0.145 -0.021
vn -0.625 0.693 -0.360
vn -0.369 0.248 -0.896
vn -0.029 0.201 -0.979
vn 0.011 0.345 -0.938
vn 0.298 -0.318 -0.900
vn 0.360 0.349 -0.865
vn 0.331 0.389 -0.860
vn 0.658 0.428 -0.620
vn -0.388 0.796 0.464
vn 0.147 0.475 0.868
vn -0.140 0.857 0.496
vn 0.243 0.429 0.870
vn -0.529 0.837 0.141
vn -0.547 0.810 0.212
vn -0.104 0.908 0.405
vn -0.233 0.952 0.200
vn 0.664 0.303 0.684
vn 0.364 0.596 0.716
vn 0.168 0.878 0.449
vn 0.687 0.312 0.656
vn -0.608 0.791 -0.067
vn -0.611 0.789 -0.063
vn -0.200 0.971 0.131
vn -0.240 0.969 0.055
vn 0.240 0.920 0.310
vn 0.139 0.979 0.151
vn 0.681 0.731 -0.041
vn 0.497 0.808 0.318
vn -0.626 0.691 -0.361
vn -0.291 0.806 -0.515
vn -0.123 0.972 -0.200
vn 0.218 0.939 -0.265
vn 0.286 0.944 -0.163
vn 0.582 0.783 -0.221
vn -0.701 -0.693 -0.169
vn 0.185 -0.973 0.140
vn -0.145 -0.865 0.480
vn 0.536 -0.766 0.356
vn -0.182 0.004 -0.983
vn 0.160 0.068 -0.985
vn 0.262 0.166 -0.951
vn 0.778 -0.075 -0.623
vn -0.566 -0.660 0.493
vn 0.555 -0.666 0.498
vn -0.582 -0.482 -0.655
vn 0.575 -0.485 -0.660
vn -0.367 -0.433 0.824
vn -0.252 -0.494 0.832
vn -0.297 -0.448 0.843
vn 0.165 -0.435 0.885
vn -0.537 -0.461 0.706
vn -0.461 -0.436 0.773
vn -0.422 -0.459 0.782
vn -0.454 -0.561 0.693
vn -0.552 -0.471 0.688
vn -0.218 -0.496 0.841
vn -0.257 -0.514 0.818
vn 0.275 -0.637 0.720
vn 0.435 -0.488 0.757
vn 0.997 -0.069 0.043
vn -0.522 -0.713 -0.468
vn -0.724 -0.432 -0.538
vn -0.170 -0.061 -0.984
vn 0.039 0.202 -0.979
vn 0.261 0.244 -0.934
vn 0.229 0.263 -0.937
vn 0.823 0.088 -0.561
vn 0.529 0.316 -0.788
vn -0.555 0.459 0.694
vn 0.563 0.455 0.689
vn -0.569 0.676 -0.468
vn 0.581 0.669 -0.464
vn -0.321 -0.283 0.904
vn -0.390 -0.330 0.860
vn -0.141 -0.345 0.928
vn -0.145 -0.331 0.933
vn 0.182 -0.370 0.911
vn 0.709 -0.066 0.702
vn -0.939 0.336 -0.073
vn -0.774 0.623 0.110
vn -0.489 -0.101 0.866
vn -0.627 -0.132 0.768
vn 0.993 0.114 0.034
vn 0.787 0.384 -0.483
vn 0.001 0.331 -0.944
vn -0.099 0.736 -0.670
vn 0.033 0.350 -0.936
vn -0.003 0.356 -0.935
vn 0.259 0.396 -0.881
vn 0.142 0.450 -0.882
vn 0.527 0.342 -0.778
vn 0.353 0.428 -0.832
vn -0.390 0.274 0.879
vn 0.178 -0.061 0.982
vn 0.034 0.680 0.732
vn 0.708 0.108 0.698
vn -0.299 0.918 -0.261
vn -0.605 0.498 0.621
vn 0.332 0.903 -0.272
vn 0.213 0.843 -0.493
vn 0.657 0.583 -0.478
vn 0.692 0.623 -0.365
vn -0.184 0.709 -0.681
vn 0.127 0.565 -0.815
vn 0.269 0.625 -0.733
vn 0.370 0.563 -0.739
vn 0.272 -0.257 0.927
vn 0.418 -0.174 0.892
vn -0.539 -0.624 0.565
vn -0.629 0.025 -0.777
vn 0.427 -0.171 0.888
vn 0.362 -0.322 0.875
vn -0.589 -0.778 0.220
vn 0.518 -0.285 0.806
vn -0.520 0.093 -0.849
vn -0.475 0.090 -0.875
vn -0.455 0.101 -0.885
vn -0.361 0.097 -0.928
vn 0.240 -0.215 0.947
vn -0.030 -0.322 0.946
vn 0.424 -0.152 0.893
vn 0.470 -0.125 0.874
vn -0.713 -0.007 -0.701
vn -0.666 0.033 -0.745
vn 0.508 -0.110 0.854
vn 0.503 -0.122 0.856
vn 0.558 -0.106 0.823
vn 0.657 -0.044 0.753
vn -0.538 0.100 -0.837
vn -0.509 0.105 -0.855
vn -0.413 0.155 -0.897
vn -0.415 0.155 -0.897
vn -0.099 0.228 -0.969
vn -0.317 0.200 -0.927
vn 0.322 -0.179 0.930
vn 0.237 -0.215 0.947
vn 0.471 -0.127 0.873
vn 0.507 -0.102 0.856
vn -0.775 -0.013 -0.631
vn -0.732 0.020 -0.681
vn 0.610 -0.044 0.792
vn 0.638 -0.017 0.770
vn 0.674 -0.002 0.739
vn 0.674 -0.011 0.739
vn -0.491 0.133 -0.861
vn -0.493 0.133 -0.860
vn -0.210 0.263 -0.942
vn -0.311 0.221 -0.924
vn -0.405 0.169 -0.898
vn -0.206 0.262 -0.943
vn -0.629 -0.616 0.474
vn 0.569 -0.652 0.502
vn 0.312 -0.175 0.934
vn 0.480 -0.100 0.872
vn -0.560 -0.455 -0.692
vn 0.599 -0.493 -0.631
vn -0.481 0.196 -0.854
vn -0.930 -0.062 -0.363
vn 0.816 0.500 -0.289
vn 0.739 0.199 0.643
vn -0.438 0.168 -0.883
vn -0.311 0.222 -0.924
vn -0.583 0.523 0.622
vn 0.546 0.485 0.684
vn -0.550 0.687 -0.476
vn 0.610 0.652 -0.451

# Facets
f 1//1 3//1 2//1
f 4//2 3//2 5//2
f 4//3 2//3 3//3
f 6//4 4//4 5//4
f 7//5 3//5 1//5
f 7//6 5//6 3//6
f 7//7 8//7 5//7
f 8//8 6//8 5//8
f 1//9 2//9 9//9
f 10//10 2//10 4//10
f 10//11 9//11 2//11
f 10//12 4//12 6//12
f 7//13 1//13 9//13
f 9//14 8//14 7//14
f 9//15 10//15 8//15
f 10//16 6//16 8//16
f 11//17 13//17 12//17
f 14//18 13//18 15//18
f 14//19 12//19 13//19
f 16//20 14//20 15//20
f 11//21 17//21 13//21
f 11//22 18//22 17//22
f 19//23 15//23 13//23
f 17//24 19//24 13//24
f 15//25 20//25 16//25
f 15//26 19//26 20//26
f 21//27 17//27 18//27
f 21//28 19//28 17//28
f 21//29 22//29 19//29
f 22//30 20//30 19//30
f 23//31 25//31 24//31
f 12//32 25//32 11//32
f 24//33 25//33 12//33
f 26//34 24//34 12//34
f 12//35 14//35 27//35
f 26//36 12//36 27//36
f 16//37 27//37 14//37
f 16//38 28//38 27//38
f 23//39 29//39 25//39
f 23//40 30//40 29//40
f 18//41 11//41 29//41
f 11//42 25//42 29//42
f 31//43 32//43 20//43
f 20//44 32//44 28//44
f 20//45 28//45 16//45
f 33//46 32//46 31//46
f 34//47 29//47 30//47
f 35//48 36//48 34//48
f 36//49 21//49 34//49
f 34//50 21//50 29//50
f 29//51 21//51 18//51
f 22//52 21//52 37//52
f 21//53 36//53 37//53
f 38//54 22//54 37//54
f 38//55 20//55 22//55
f 39//56 20//56 38//56
f 31//57 20//57 39//57
f 39//58 33//58 31//58
f 40//59 36//59 35//59
f 40//60 37//60 36//60
f 40//61 41//61 37//61
f 41//62 38//62 37//62
f 23//63 24//63 42//63
f 24//64 43//64 42//64
f 44//65 43//65 24//65
f 26//66 44//66 24//66
f 44//67 46//67 45//67
f 27//68 46//68 44//68
f 26//69 27//69 44//69
f 46//70 27//70 28//70
f 30//71 42//71 47//71
f 30//72 23//72 42//72
f 43//73 48//73 42//73
f 48//74 47//74 42//74
f 45//75 46//75 49//75
f 49//76 51//76 50//76
f 49//77 32//77 51//77
f 46//78 32//78 49//78
f 28//79 32//79 46//79
f 51//80 32//80 33//80
f 34//81 30//81 47//81
f 34//82 47//82 35//82
f 35//83 47//83 48//83
f 35//84 48//84 52//84
f 51//85 39//85 50//85
f 50//86 39//86 38//86
f 50//87 38//87 53//87
f 51//88 33//88 39//88
f 54//89 35//89 52//89
f 54//90 40//90 35//90
f 55//91 41//91 40//91
f 55//92 40//92 54//92
f 41//93 53//93 38//93
f 41//94 55//94 53//94
f 56//95 58//95 57//95
f 59//96 58//96 60//96
f 59//97 57//97 58//97
f 61//98 59//98 60//98
f 62//99 58//99 56//99
f 62//100 60//100 58//100
f 62//101 63//101 60//101
f 63//102 61//102 60//102
f 43//103 44//103 64//103
f 64//104 44//104 45//104
f 48//105 64//105 65//105
f 48//106 43//106 64//106
f 66//107 45//107 49//107
f 64//108 45//108 66//108
f 65//109 64//109 66//109
f 66//110 49//110 50//110
f 52//111 65//111 67//111
f 52//112 48//112 65//112
f 65//113 66//113 68//113
f 65//114 68//114 67//114
f 68//115 50//115 53//115
f 68//116 66//116 50//116
f 54//117 52//117 67//117
f 67//118 55//118 54//118
f 67//119 68//119 55//119
f 68//120 53//120 55//120
f 69//121 71//121 70//121
f 72//122 71//122 73//122
f 72//123 70//123 71//123
f 74//124 72//124 73//124
f 75//125 77//125 76//125
f 77//126 69//126 76//126
f 77//127 71//127 69//127
f 56//128 71//128 77//128
f 57//129 71//129 56//129
f 57//130 59//130 71//130
f 59//131 73//131 71//131
f 78//132 61//132 79//132
f 78//133 59//133 61//133
f 74//134 59//134 78//134
f 73//135 59//135 74//135
f 80//136 78//136 79//136
f 81//137 77//137 75//137
f 81//138 56//138 77//138
f 62//139 56//139 81//139
f 82//140 62//140 81//140
f 83//141 84//141 82//141
f 82//142 84//142 63//142
f 82//143 63//143 62//143
f 85//144 63//144 84//144
f 85//145 61//145 63//145
f 86//146 61//146 85//146
f 79//147 61//147 86//147
f 86//148 80//148 79//148
f 87//149 84//149 83//149
f 87//150 85//150 84//150
f 88//151 70//151 89//151
f 88//152 69//152 70//152
f 70//153 72//153 90//153
f 89//154 70//154 90//154
f 74//155 90//155 72//155
f 74//156 91//156 90//156
f 75//157 76//157 92//157
f 92//158 76//158 93//158
f 93//159 76//159 69//159
f 93//160 69//160 88//160
f 91//161 74//161 94//161
f 74//162 78//162 94//162
f 80//163 94//163 78//163
f 80//164 95//164 94//164
f 81//165 75//165 92//165
f 81//166 92//166 82//166
f 82//167 92//167 96//167
f 96//168 92//168 93//168
f 82//169 96//169 97//169
f 83//170 82//170 97//170
f 98//171 86//171 85//171
f 99//172 86//172 98//172
f 80//173 86//173 99//173
f 95//174 80//174 99//174
f 100//175 97//175 96//175
f 100//176 83//176 97//176
f 87//177 83//177 100//177
f 101//178 87//178 100//178
f 87//179 98//179 85//179
f 102//180 98//180 87//180
f 101//181 102//181 87//181
f 102//182 99//182 98//182
f 88//183 89//183 103//183
f 104//184 89//184 90//184
f 104//185 103//185 89//185
f 104//186 90//186 91//186
f 93//187 103//187 105//187
f 93//188 88//188 103//188
f 103//189 104//189 106//189
f 103//190 106//190 105//190
f 107//191 91//191 94//191
f 104//192 91//192 107//192
f 106//193 104//193 107//193
f 107//194 94//194 95//194
f 96//195 105//195 108//195
f 96//196 93//196 105//196
f 105//197 106//197 109//197
f 105//198 109//198 108//198
f 106//199 107//199 110//199
f 106//200 110//200 109//200
f 110//201 95//201 99//201
f 110//202 107//202 95//202
f 100//203 96//203 108//203
f 108//204 101//204 100//204
f 108//205 109//205 101//205
f 109//206 102//206 101//206
f 109//207 110//207 102//207
f 110//208 99//208 102//208
f 111//209 113//209 112//209
f 114//210 113//210 115//210
f 114//211 112//211 113//211
f 116//212 114//212 115//212
f 117//213 113//213 111//213
f 117//214 115//214 113//214
f 117//215 118//215 115//215
f 118//216 116//216 115//216
f 119//217 121//217 120//217
f 122//218 120//218 121//218
f 123//219 121//219 119//219
f 123//220 122//220 121//220
f 124//221 126//221 125//221
f 127//222 126//222 128//222
f 127//223 125//223 126//223
f 129//224 127//224 128//224
f 130//225 132//225 131//225
f 132//226 124//226 131//226
f 132//227 126//227 124//227
f 111//228 126//228 132//228
f 112//229 126//229 111//229
f 112//230 114//230 126//230
f 114//231 128//231 126//231
f 116//232 128//232 114//232
f 129//233 128//233 116//233
f 133//234 129//234 116//234
f 134//235 132//235 130//235
f 134//236 111//236 132//236
f 117//237 111//237 134//237
f 135//238 117//238 134//238
f 136//239 118//239 117//239
f 136//240 117//240 135//240
f 118//241 133//241 116//241
f 118//242 136//242 133//242
f 119//243 120//243 137//243
f 137//244 120//244 122//244
f 123//245 119//245 137//245
f 137//246 122//246 123//246
f 138//247 125//247 139//247
f 138//248 124//248 125//248
f 125//249 127//249 140//249
f 139//250 125//250 140//250
f 129//251 140//251 127//251
f 129//252 141//252 140//252
f 130//253 131//253 142//253
f 142//254 131//254 143//254
f 143//255 131//255 124//255
f 143//256 124//256 138//256
f 141//257 129//257 133//257
f 144//258 141//258 133//258
f 134//259 130//259 142//259
f 145//260 142//260 143//260
f 134//261 142//261 145//261
f 135//262 134//262 145//262
f 146//263 136//263 135//263
f 146//264 135//264 145//264
f 136//265 144//265 133//265
f 136//266 146//266 144//266
f 138//267 139//267 147//267
f 148//268 139//268 140//268
f 148//269 147//269 139//269
f 148//270 140//270 141//270
f 143//271 147//271 149//271
f 143//272 138//272 147//272
f 147//273 148//273 150//273
f 147//274 150//274 149//274
f 150//275 141//275 144//275
f 150//276 148//276 141//276
f 145//277 143//277 149//277
f 149//278 146//278 145//278
f 149//279 150//279 146//279
f 150//280 144//280 146//280
f 151//281 153//281 152//281
f 154//282 152//282 153//282
f 151//283 155//283 153//283
f 151//284 156//284 155//284
f 153//285 157//285 154//285
f 158//286 157//286 153//286
f 155//287 158//287 153//287
f 159//288 157//288 158//288
f 160//289 155//289 156//289
f 160//290 158//290 155//290
f 160//291 161//291 158//291
f 161//292 159//292 158//292
f 162//293 152//293 163//293
f 162//294 151//294 152//294
f 154//295 163//295 152//295
f 154//296 164//296 163//296
f 156//297 151//297 162//297
f 156//298 162//298 165//298
f 164//299 154//299 166//299
f 154//300 157//300 166//300
f 159//301 166//301 157//301
f 159//302 167//302 166//302
f 168//303 156//303 165//303
f 168//304 160//304 156//304
f 169//305 161//305 160//305
f 169//306 160//306 168//306
f 161//307 167//307 159//307
f 161//308 169//308 167//308
f 170//309 163//309 171//309
f 170//310 162//310 163//310
f 164//311 171//311 163//311
f 164//312 172//312 171//312
f 165//313 162//313 170//313
f 165//314 170//314 173//314
f 166//315 174//315 164//315
f 164//316 174//316 175//316
f 164//317 175//317 172//317
f 174//318 166//318 167//318
f 176//319 165//319 173//319
f 176//320 168//320 165//320
f 169//321 175//321 174//321
f 176//322 175//322 169//322
f 168//323 176//323 169//323
f 174//324 167//324 169//324
f 177//325 179//325 178//325
f 180//326 178//326 179//326
f 170//327 171//327 181//327
f 181//328 171//328 172//328
f 182//329 179//329 177//329
f 182//330 180//330 179//330
f 173//331 181//331 183//331
f 173//332 170//332 181//332
f 183//333 172//333 175//333
f 183//334 181//334 172//334
f 176//335 173//335 183//335
f 183//336 175//336 176//336
f 177//337 178//337 184//337
f 184//338 178//338 180//338
f 182//339 177//339 184//339
f 184//340 180//340 182//340

# Thankyou for using Spin3D

