# Created using Spin3D

# Vertex Array
v -2.923 -8.037 44.639
v -2.925 -8.037 44.639
v -2.926 -8.035 44.639
v -2.927 -8.038 44.639
v -2.925 -8.035 44.638
v -2.923 -8.037 44.637
v -2.927 -8.036 44.637
v -2.925 -8.037 44.637
v -2.925 -8.039 44.639
v -2.926 -8.039 44.637
v 2.924 -6.576 81.451
v 2.926 -6.577 81.449
v 2.926 -6.576 81.450
v 2.928 -6.578 81.448
v 2.926 -6.577 81.454
v 2.925 -6.581 81.454
v 2.927 -6.579 81.453
v 2.926 -6.581 81.457
v 2.925 -6.581 81.451
v 2.926 -6.581 81.449
v 2.927 -6.583 81.452
v 2.924 -6.586 81.454
v 2.928 -6.584 81.457
v 2.926 -6.585 81.457
v 2.926 -6.585 81.451
v 2.926 -6.586 81.455

# Normal Array
vn 0.179 0.085 0.980
vn -0.247 -0.002 0.969
vn 0.531 0.741 0.410
vn 0.819 0.540 -0.194
vn -0.809 0.477 0.343
vn -0.500 0.854 -0.144
vn 0.275 0.322 -0.906
vn -0.145 0.422 -0.895
vn 0.266 -0.330 0.906
vn -0.157 -0.420 0.894
vn 0.508 -0.759 -0.408
vn 0.802 -0.562 0.202
vn -0.822 -0.447 -0.353
vn -0.522 -0.841 0.145
vn 0.175 -0.091 -0.980
vn -0.246 0.011 -0.969
vn -0.301 0.738 -0.604
vn 0.293 0.805 -0.515
vn 0.266 0.935 0.234
vn -0.708 0.351 0.613
vn 0.825 0.534 0.184
vn 0.890 0.453 0.048
vn -0.829 0.375 0.416
vn 0.833 0.276 0.479
vn -0.882 0.130 -0.452
vn -0.813 0.019 -0.582
vn -0.279 0.107 -0.954
vn 0.713 -0.478 -0.513
vn -1.000 -0.020 -0.011
vn -0.999 0.047 -0.004
vn 0.999 -0.024 0.037
vn 1.000 -0.008 -0.029
vn -0.816 0.003 0.578
vn -0.888 -0.105 0.448
vn 0.725 0.455 0.517
vn -0.287 -0.101 0.953
vn -0.838 -0.347 -0.420
vn 0.828 -0.302 -0.473
vn 0.233 -0.944 -0.232
vn -0.717 -0.328 -0.615
vn 0.810 -0.559 -0.177
vn 0.877 -0.480 -0.040
vn -0.331 -0.725 0.604
vn 0.265 -0.812 0.521

# Facets
f 1//1 3//1 2//1
f 4//2 2//2 3//2
f 1//3 5//3 3//3
f 1//4 6//4 5//4
f 3//5 7//5 4//5
f 3//6 5//6 7//6
f 8//7 5//7 6//7
f 8//8 7//8 5//8
f 1//9 2//9 9//9
f 9//10 2//10 4//10
f 6//11 9//11 10//11
f 6//12 1//12 9//12
f 10//13 4//13 7//13
f 10//14 9//14 4//14
f 8//15 6//15 10//15
f 10//16 7//16 8//16
f 11//17 13//17 12//17
f 14//18 12//18 13//18
f 11//19 15//19 13//19
f 11//20 16//20 15//20
f 13//21 17//21 14//21
f 13//22 15//22 17//22
f 18//23 15//23 16//23
f 18//24 17//24 15//24
f 19//25 12//25 20//25
f 19//26 11//26 12//26
f 14//27 20//27 12//27
f 14//28 21//28 20//28
f 16//29 11//29 19//29
f 16//30 19//30 22//30
f 21//31 14//31 17//31
f 23//32 21//32 17//32
f 24//33 16//33 22//33
f 24//34 18//34 16//34
f 18//35 23//35 17//35
f 18//36 24//36 23//36
f 19//37 20//37 25//37
f 25//38 20//38 21//38
f 22//39 25//39 26//39
f 22//40 19//40 25//40
f 26//41 21//41 23//41
f 26//42 25//42 21//42
f 24//43 22//43 26//43
f 26//44 23//44 24//44

# Thankyou for using Spin3D

