# Created using Spin3D

# Vertex Array
v -4.904 -46.789 21.538
v -4.904 -46.789 21.537
v -4.904 -46.787 21.538
v -4.902 -46.788 21.537
v -4.902 -46.787 21.539
v -4.902 -46.789 21.538
v 20.647 -46.685 18.731
v 20.647 -46.689 18.745
v 20.645 -46.686 18.731
v 20.646 -46.688 18.730
v -4.904 -46.789 21.541
v -4.902 -46.790 21.540
v 20.647 -46.680 18.699
v 20.649 -46.681 18.699
v 20.645 -46.681 18.699
v 20.649 -46.676 18.667
v 20.648 -46.678 18.666
v 20.647 -46.675 18.667
v 20.647 -46.674 18.652
v -4.904 -46.791 21.539
v -4.902 -46.791 21.538
v 20.649 -46.687 18.731
v 20.647 -46.683 18.698
v 20.646 -46.677 18.667
v 7.444 -21.558 24.277
v 7.494 -21.587 24.327
v 7.517 -21.629 24.317
v 7.563 -21.651 24.361
v 7.573 -21.658 24.340
v 7.583 -21.640 24.352
v 7.455 -21.565 24.254
v 7.394 -21.483 24.215
v 7.518 -21.603 24.277
v 7.560 -21.604 24.301
v 7.436 -21.507 24.208
v 7.499 -21.541 24.236
v 7.413 -21.491 24.259
v 7.466 -21.520 24.305
v 7.538 -21.591 24.347
v 7.542 -21.561 24.308
v 7.371 -21.423 24.198
v 7.510 -21.522 24.251
v 7.382 -21.429 24.177
v 7.437 -21.460 24.197
v 7.417 -21.445 24.243
v 7.488 -21.507 24.296
v 7.391 -21.412 24.191
v 7.460 -21.464 24.239
v -4.451 -14.189 20.772
v -4.433 -14.196 20.806
v -4.581 -14.158 20.580
v -4.375 -14.208 20.880
v -4.276 -14.237 21.037
v -4.245 -14.243 21.071
v -4.550 -14.163 20.615
v -4.393 -14.203 20.845
v -4.139 -14.274 21.236
v -4.118 -14.283 21.268
v -4.165 -14.270 21.202
v -4.187 -14.263 21.157
v -4.326 -14.228 20.965
v -4.509 -14.180 20.694
v -4.317 -14.226 20.956
v -4.687 -14.131 20.414
v -4.639 -14.147 20.493
v -4.661 -14.139 20.448
v -4.500 -14.179 20.685
v -4.708 -14.128 20.381
v -1.394 -10.280 30.627
v -1.396 -10.281 30.628
v -1.397 -10.276 30.627
v -1.400 -10.276 30.629
v -1.401 -10.276 30.628
v -1.402 -10.277 30.627
v -1.398 -10.279 30.626
v -1.403 -10.278 30.626
v 9.134 -9.687 28.837
v 9.134 -9.690 28.837
v 9.134 -9.687 28.841
v 9.133 -9.689 28.838
v -4.231 -14.254 21.099
v 9.133 -9.687 28.840
v -4.454 -14.197 20.769
v -4.372 -14.216 20.881
v -4.595 -14.158 20.551
v -1.393 -10.284 30.626
v -1.396 -10.285 30.628
v -1.400 -10.281 30.628
v -1.402 -10.281 30.627
v 9.134 -9.692 28.833
v 9.133 -9.694 28.831
v 9.133 -9.691 28.835
v 9.133 -9.691 28.832
v -1.393 -10.283 30.625
v -1.398 -10.282 30.625
v 9.135 -9.689 28.834
v 9.133 -9.689 28.835
v 9.134 -9.687 28.837
v -1.395 -10.285 30.626
v -1.399 -10.285 30.626
v 9.134 -9.693 28.831
v 9.134 -9.690 28.832

# Normal Array
vn -0.944 0.219 -0.245
vn 0.266 0.888 -0.375
vn -0.301 0.622 -0.722
vn 0.958 0.263 -0.111
vn -0.482 0.848 0.221
vn -0.868 -0.496 0.000
vn -0.951 0.243 0.192
vn -0.304 0.724 0.619
vn 0.310 0.355 0.882
vn 0.947 0.109 0.301
vn -0.483 0.862 0.151
vn 0.730 0.674 0.111
vn -0.872 -0.484 -0.072
vn -0.693 0.713 0.107
vn 0.730 0.672 0.122
vn 0.872 -0.483 -0.084
vn -0.693 0.711 0.118
vn 0.485 0.865 0.131
vn 0.870 -0.467 -0.158
vn 0.483 0.874 0.062
vn -0.948 -0.226 -0.223
vn 0.259 -0.369 -0.893
vn -0.315 -0.701 -0.640
vn 0.952 -0.130 -0.275
vn 0.878 0.449 0.166
vn 0.450 -0.891 -0.055
vn -0.959 -0.185 0.214
vn -0.273 -0.644 0.714
vn 0.264 -0.889 0.375
vn 0.948 -0.296 0.121
vn 0.711 -0.693 -0.117
vn 0.881 0.463 0.095
vn -0.711 -0.692 -0.124
vn 0.453 -0.883 -0.128
vn -0.483 -0.861 -0.160
vn 0.711 -0.695 -0.102
vn -0.872 0.486 0.059
vn -0.711 -0.693 -0.115
vn -0.482 -0.846 -0.228
vn -0.867 0.497 -0.012
vn -0.744 -0.509 0.433
vn -0.490 -0.867 0.096
vn -0.704 -0.503 0.502
vn 0.564 -0.673 0.478
vn -0.676 -0.732 -0.084
vn -0.755 -0.639 -0.151
vn -0.209 -0.819 -0.535
vn -0.291 -0.800 -0.524
vn 0.846 -0.171 -0.504
vn 0.423 -0.466 -0.777
vn -0.449 -0.634 -0.630
vn -0.094 -0.629 -0.772
vn 0.084 -0.530 -0.844
vn 0.441 -0.395 -0.806
vn -0.663 -0.026 0.748
vn -0.753 -0.182 0.633
vn -0.397 0.056 0.916
vn -0.388 0.140 0.911
vn 0.240 0.329 0.914
vn 0.588 0.607 0.535
vn -0.885 -0.327 0.331
vn -0.903 -0.246 0.353
vn 0.904 0.408 -0.126
vn 0.886 0.414 -0.209
vn -0.851 -0.418 -0.318
vn -0.430 -0.584 -0.689
vn 0.281 -0.244 -0.928
vn 0.197 -0.247 -0.949
vn 0.749 0.056 -0.660
vn 0.670 0.150 -0.727
vn -0.514 0.324 0.794
vn 0.045 0.535 0.844
vn -0.034 0.628 0.777
vn 0.522 0.645 0.558
vn -0.233 0.760 0.606
vn -0.581 0.314 0.751
vn 0.397 0.815 0.422
vn 0.405 0.848 0.343
vn 0.757 0.653 0.025
vn 0.669 0.713 0.211
vn -0.143 0.956 0.256
vn -0.133 0.956 0.260
vn -0.069 0.973 0.221
vn -0.001 0.983 0.182
vn -0.565 0.673 -0.478
vn 0.485 0.368 -0.793
vn 0.705 0.632 -0.322
vn 0.745 0.569 -0.350
vn 0.041 0.990 0.136
vn 0.152 0.986 0.065
vn 0.104 0.990 0.098
vn 0.181 0.982 0.057
vn -0.671 0.474 0.570
vn 0.831 0.323 -0.453
vn -0.825 0.028 0.564
vn -0.641 0.567 0.517
vn -0.559 0.658 0.505
vn -0.733 0.378 0.565
vn -0.765 0.289 0.576
vn -0.012 0.981 0.191
vn 0.713 0.614 -0.340
vn 0.787 0.446 -0.427
vn 0.054 0.991 0.125
vn -0.700 0.487 0.522
vn -0.780 0.294 0.552
vn 0.576 0.773 -0.266
vn 0.745 0.521 -0.416
vn 0.775 0.438 -0.456
vn 0.657 0.687 -0.309
vn 0.828 0.184 -0.529
vn -0.821 0.195 0.537
vn 0.687 0.613 -0.390
vn 0.367 0.280 0.887
vn 0.072 0.992 -0.107
vn 0.544 0.303 0.782
vn -0.708 0.607 0.361
vn 0.448 0.489 -0.749
vn -0.015 0.613 -0.790
vn 0.099 0.697 -0.711
vn -0.618 0.763 -0.190
vn 1.000 -0.014 0.014
vn -0.445 -0.754 0.484
vn -0.461 -0.873 0.158
vn 0.199 -0.935 -0.293
vn 0.208 0.976 -0.066
vn -0.647 -0.602 0.469
vn -0.628 -0.719 0.297
vn -0.484 -0.857 0.175
vn -0.554 -0.799 0.236
vn -0.033 -0.988 -0.149
vn 0.552 -0.680 -0.483
vn 0.162 -0.950 -0.268
vn -0.184 -0.981 -0.054
vn -0.574 -0.782 0.243
vn 0.461 -0.769 -0.443
vn 0.532 -0.696 -0.482
vn 0.004 -0.984 -0.176
vn 0.609 -0.603 -0.515
vn -0.220 -0.975 -0.025
vn 0.437 -0.789 -0.432
vn 0.560 -0.066 0.826
vn 0.469 -0.179 0.865
vn -0.017 -0.201 0.979
vn -0.020 -0.146 0.989
vn -0.588 -0.215 0.779
vn -0.469 -0.091 0.879
vn 0.380 -0.722 0.578
vn -1.000 0.009 -0.010
vn 0.969 0.026 0.244
vn 0.458 0.648 -0.608
vn 0.037 0.142 -0.989
vn -0.042 0.149 -0.988
vn -0.970 -0.099 0.221
vn -0.441 -0.429 -0.788
vn 0.172 -0.834 0.525
vn 0.998 -0.018 0.061
vn 0.813 -0.352 0.463
vn -0.247 -0.752 0.611
vn -0.999 -0.034 -0.020
vn -0.841 -0.514 0.169
vn 0.976 0.206 0.063
vn 0.925 0.266 0.270
vn -0.956 -0.248 0.159
vn -0.854 0.503 -0.132
vn 0.708 -0.651 0.274
vn -0.542 -0.545 0.640
vn -0.098 -0.931 -0.352
vn -0.376 -0.555 0.742
vn 0.620 -0.659 0.427
vn -0.138 0.376 -0.917
vn 0.668 -0.656 -0.351
vn -0.107 -0.429 -0.897
vn 0.038 -0.300 -0.953
vn -0.424 -0.195 -0.885
vn 0.871 0.264 -0.414
vn 0.948 -0.252 0.195
vn -0.970 0.047 -0.239
vn -0.913 -0.148 -0.381
vn 0.737 0.526 -0.425
vn -0.703 0.597 -0.387

# Facets
f 1//1 3//1 2//1
f 4//2 3//2 5//2
f 4//3 2//3 3//3
f 6//4 4//4 5//4
f 7//5 9//5 8//5
f 10//6 8//6 9//6
f 11//7 3//7 1//7
f 11//8 5//8 3//8
f 11//9 12//9 5//9
f 12//10 6//10 5//10
f 7//11 13//11 9//11
f 7//12 14//12 13//12
f 9//13 15//13 10//13
f 9//14 13//14 15//14
f 14//15 16//15 13//15
f 14//16 17//16 16//16
f 13//17 18//17 15//17
f 13//18 16//18 18//18
f 19//19 16//19 17//19
f 19//20 18//20 16//20
f 1//21 2//21 20//21
f 21//22 2//22 4//22
f 21//23 20//23 2//23
f 21//24 4//24 6//24
f 7//25 8//25 22//25
f 22//26 8//26 10//26
f 11//27 1//27 20//27
f 20//28 12//28 11//28
f 20//29 21//29 12//29
f 21//30 6//30 12//30
f 14//31 22//31 23//31
f 14//32 7//32 22//32
f 23//33 10//33 15//33
f 23//34 22//34 10//34
f 17//35 23//35 24//35
f 17//36 14//36 23//36
f 24//37 15//37 18//37
f 24//38 23//38 15//38
f 19//39 17//39 24//39
f 24//40 18//40 19//40
f 25//41 27//41 26//41
f 28//42 27//42 29//42
f 28//43 26//43 27//43
f 30//44 28//44 29//44
f 25//45 31//45 27//45
f 25//46 32//46 31//46
f 33//47 29//47 27//47
f 31//48 33//48 27//48
f 29//49 34//49 30//49
f 29//50 33//50 34//50
f 35//51 31//51 32//51
f 35//52 33//52 31//52
f 35//53 36//53 33//53
f 36//54 34//54 33//54
f 37//55 26//55 38//55
f 37//56 25//56 26//56
f 26//57 28//57 39//57
f 38//58 26//58 39//58
f 30//59 39//59 28//59
f 30//60 40//60 39//60
f 32//61 25//61 37//61
f 32//62 37//62 41//62
f 40//63 30//63 34//63
f 42//64 40//64 34//64
f 43//65 32//65 41//65
f 43//66 35//66 32//66
f 44//67 36//67 35//67
f 44//68 35//68 43//68
f 36//69 42//69 34//69
f 36//70 44//70 42//70
f 37//71 38//71 45//71
f 46//72 38//72 39//72
f 46//73 45//73 38//73
f 46//74 39//74 40//74
f 41//75 45//75 47//75
f 41//76 37//76 45//76
f 45//77 46//77 48//77
f 45//78 48//78 47//78
f 48//79 40//79 42//79
f 48//80 46//80 40//80
f 49//81 51//81 50//81
f 49//82 53//82 52//82
f 50//83 53//83 49//83
f 53//84 54//84 52//84
f 43//85 41//85 47//85
f 47//86 44//86 43//86
f 47//87 48//87 44//87
f 48//88 42//88 44//88
f 49//89 55//89 51//89
f 52//90 55//90 49//90
f 56//91 55//91 52//91
f 54//92 56//92 52//92
f 57//93 59//93 58//93
f 58//94 60//94 57//94
f 50//95 62//95 61//95
f 51//96 62//96 50//96
f 59//97 57//97 53//97
f 59//98 53//98 61//98
f 61//99 53//99 50//99
f 57//100 54//100 53//100
f 57//101 60//101 54//101
f 60//102 63//102 54//102
f 64//103 51//103 55//103
f 64//104 65//104 51//104
f 65//105 62//105 51//105
f 66//106 64//106 55//106
f 66//107 55//107 67//107
f 67//108 55//108 56//108
f 63//109 56//109 54//109
f 67//110 56//110 63//110
f 64//111 68//111 65//111
f 66//112 68//112 64//112
f 69//113 71//113 70//113
f 72//114 71//114 73//114
f 72//115 70//115 71//115
f 74//116 72//116 73//116
f 75//117 71//117 69//117
f 75//118 73//118 71//118
f 75//119 76//119 73//119
f 76//120 74//120 73//120
f 77//121 79//121 78//121
f 80//122 78//122 79//122
f 58//123 59//123 81//123
f 58//124 81//124 60//124
f 82//125 79//125 77//125
f 82//126 80//126 79//126
f 61//127 62//127 83//127
f 61//128 81//128 59//128
f 61//129 83//129 81//129
f 83//130 84//130 81//130
f 60//131 84//131 63//131
f 81//132 84//132 60//132
f 83//133 65//133 85//133
f 62//134 65//134 83//134
f 67//135 85//135 66//135
f 67//136 84//136 85//136
f 84//137 83//137 85//137
f 63//138 84//138 67//138
f 65//139 68//139 85//139
f 66//140 85//140 68//140
f 86//141 70//141 87//141
f 86//142 69//142 70//142
f 70//143 72//143 88//143
f 87//144 70//144 88//144
f 74//145 88//145 72//145
f 74//146 89//146 88//146
f 90//147 92//147 91//147
f 93//148 91//148 92//148
f 94//149 69//149 86//149
f 94//150 75//150 69//150
f 95//151 76//151 75//151
f 95//152 75//152 94//152
f 76//153 89//153 74//153
f 76//154 95//154 89//154
f 90//155 78//155 92//155
f 77//156 78//156 90//156
f 96//157 77//157 90//157
f 80//158 92//158 78//158
f 93//159 92//159 80//159
f 97//160 93//160 80//160
f 98//161 77//161 96//161
f 98//162 82//162 77//162
f 82//163 97//163 80//163
f 82//164 98//164 97//164
f 86//165 87//165 99//165
f 100//166 87//166 88//166
f 100//167 99//167 87//167
f 100//168 88//168 89//168
f 90//169 91//169 101//169
f 101//170 91//170 93//170
f 94//171 86//171 99//171
f 99//172 95//172 94//172
f 99//173 100//173 95//173
f 100//174 89//174 95//174
f 96//175 101//175 102//175
f 96//176 90//176 101//176
f 102//177 93//177 97//177
f 102//178 101//178 93//178
f 98//179 96//179 102//179
f 102//180 97//180 98//180

# Thankyou for using Spin3D

