# Created using Spin3D

# Vertex Array
v -28.383 -31.080 68.589
v -27.559 -31.171 69.011
v -27.960 -31.448 68.302
v -27.206 -30.951 69.042
v -30.631 -30.419 67.020
v -29.412 -30.907 67.922
v -29.027 -31.251 67.688
v -28.415 -31.394 67.689
v -27.725 -31.250 68.186
v -29.416 -30.828 67.204
v -28.300 -30.952 67.723
v -27.908 -29.537 70.360
v -26.654 -29.276 71.365
v -27.140 -30.260 70.072
v -25.978 -29.474 71.476
v -25.891 -29.664 71.071
v -25.505 -29.162 71.710
v -30.690 -29.148 68.149
v -28.967 -29.095 69.789
v -29.471 -30.087 68.590
v -26.401 -30.018 70.063
v -25.655 -29.202 71.101
v -33.515 -29.107 65.626
v -32.300 -29.039 66.687
v -32.186 -29.515 66.562
v -26.449 -29.224 69.969
v -27.375 -30.368 68.682
v -34.688 -29.054 64.612
v -34.329 -29.019 64.927
v -34.035 -29.204 65.112
v -33.040 -29.532 65.540
v -31.090 -29.922 66.463
v -32.944 -29.273 65.536
v -29.006 -30.020 67.564
v -34.423 -29.162 64.708
v -34.106 -29.171 64.838
v -27.514 -28.840 71.042
v -26.458 -28.676 71.750
v -25.799 -28.899 71.934
v -25.549 -28.691 71.729
v -29.570 -28.665 69.285
v -28.369 -28.539 70.381
v -25.778 -28.670 71.068
v -33.159 -28.984 65.729
v -30.720 -28.740 67.870
v -27.435 -28.727 69.381
v -28.703 -29.108 68.182
v -27.655 -29.455 68.686
v -26.413 -28.495 70.487
v -34.475 -29.021 64.709
v -33.995 -29.056 64.959
v -30.755 -29.171 67.012
v -27.101 -28.350 71.115
v -26.002 -28.463 71.836
v -28.673 -28.366 69.708
v -27.325 -28.295 70.223
v -26.146 -28.333 71.275
v -28.923 -28.587 68.717
v -14.827 -13.590 5.608
v -14.826 -13.590 5.609
v -14.826 -13.592 5.608
v -14.825 -13.590 5.608
v -14.826 -13.590 5.607
v 10.519 -11.814 30.275
v 10.543 -11.923 30.372
v 10.878 -12.259 30.385
v 10.868 -12.157 30.422
v 10.717 -11.852 30.313
v -14.826 -13.589 5.608
v 20.030 -12.755 34.477
v 20.026 -12.755 34.474
v 20.030 -12.755 34.475
v 20.027 -12.756 34.474
v 20.035 -12.757 34.483
v 20.031 -12.756 34.479
v 20.033 -12.755 34.480
v 20.032 -12.755 34.478
v 20.031 -12.755 34.474
v 8.198 -9.112 29.865
v 8.572 -9.536 30.113
v 8.996 -10.204 30.084
v 9.672 -10.842 30.297
v 9.808 -11.076 30.172
v 10.487 -11.658 30.416
v 10.621 -11.571 30.375
v 20.035 -12.756 34.482
v 20.035 -12.756 34.478
v 8.866 -9.852 29.876
v 9.775 -10.583 30.016
v 10.386 -11.116 30.222
v 20.029 -12.756 34.476
v 20.034 -12.756 34.479
v 20.031 -12.756 34.476
v 7.852 -8.489 29.904
v 8.163 -8.617 30.052
v 8.995 -9.729 30.235
v 9.862 -10.568 30.317
v 10.188 -10.718 30.258
v 8.063 -8.689 29.632
v 7.546 -7.887 29.623
v 8.534 -8.963 29.622
v 8.860 -8.932 29.694
v 9.695 -9.981 30.030
v 7.750 -7.867 29.445
v 8.131 -8.040 29.451
v 7.542 -7.688 29.790
v 7.893 -7.858 29.908
v 8.737 -8.900 30.085
v 8.711 -8.530 29.826
v 9.537 -9.750 30.137
v 7.281 -7.156 29.556
v 8.189 -7.853 29.523
v 7.348 -7.212 29.427
v 7.651 -7.323 29.400
v 7.518 -7.221 29.670
v 8.063 -7.774 29.817
v 7.368 -6.985 29.469
v 7.825 -7.371 29.574

# Normal Array
vn -0.345 -0.791 0.505
vn 0.527 -0.849 0.034
vn -0.533 -0.795 0.290
vn -0.425 -0.784 0.452
vn -0.401 -0.804 0.439
vn -0.228 -0.970 0.084
vn 0.612 -0.785 -0.096
vn 0.459 -0.788 -0.411
vn -0.189 -0.810 -0.555
vn -0.189 -0.810 -0.555
vn 0.418 -0.040 -0.908
vn 0.594 -0.095 -0.799
vn -0.381 -0.661 0.646
vn 0.078 -0.896 0.438
vn -0.309 -0.697 0.647
vn 0.320 -0.829 0.459
vn -0.599 -0.475 0.645
vn -0.564 -0.504 0.654
vn -0.426 -0.687 0.589
vn -0.483 -0.530 0.697
vn -0.415 -0.604 0.681
vn 0.433 -0.762 0.482
vn 0.272 -0.807 0.523
vn 0.310 -0.935 0.171
vn 0.879 -0.437 -0.187
vn 0.860 -0.421 -0.287
vn -0.609 -0.334 0.719
vn -0.646 -0.334 0.686
vn -0.592 -0.456 0.664
vn -0.537 -0.653 0.534
vn -0.634 -0.515 0.577
vn -0.514 -0.564 0.646
vn 0.819 -0.018 -0.573
vn 0.825 -0.104 -0.556
vn 0.863 -0.060 -0.502
vn 0.819 -0.018 -0.574
vn -0.624 -0.259 0.738
vn -0.637 -0.315 0.703
vn -0.607 -0.397 0.688
vn -0.432 -0.820 0.375
vn -0.543 -0.699 0.465
vn 0.228 -0.625 -0.746
vn -0.185 -0.804 -0.565
vn 0.396 -0.160 -0.904
vn 0.431 0.176 -0.885
vn 0.467 0.151 -0.871
vn 0.666 0.147 -0.732
vn 0.582 0.313 -0.751
vn -0.461 -0.811 0.361
vn -0.417 -0.853 0.314
vn 0.291 -0.596 -0.749
vn 0.492 -0.195 -0.848
vn -0.481 -0.355 0.801
vn -0.503 -0.442 0.742
vn -0.287 -0.540 0.791
vn -0.371 -0.411 0.832
vn 0.030 -0.628 0.777
vn 0.620 0.026 0.784
vn -0.668 -0.069 0.741
vn -0.683 -0.113 0.721
vn -0.559 -0.397 0.728
vn -0.635 -0.128 0.762
vn 0.965 0.099 -0.245
vn 0.928 0.195 -0.316
vn -0.402 0.820 0.408
vn -0.503 0.711 0.492
vn -0.593 0.424 0.685
vn -0.738 0.342 0.581
vn 0.504 0.512 -0.695
vn 0.692 0.215 -0.689
vn 0.613 0.441 -0.655
vn 0.613 0.437 -0.659
vn 0.808 0.152 -0.570
vn 0.676 0.403 -0.616
vn -0.217 0.966 0.139
vn -0.412 0.712 0.569
vn -0.047 0.999 0.025
vn 0.255 0.897 -0.362
vn 0.514 0.346 -0.785
vn 0.381 0.693 -0.612
vn 0.448 0.703 -0.552
vn 0.300 0.847 -0.438
vn 0.499 0.366 -0.785
vn 0.445 0.396 -0.803
vn 0.444 0.392 -0.806
vn 0.582 0.182 -0.793
vn 0.392 0.154 -0.907
vn 0.380 0.150 -0.913
vn 0.445 0.408 -0.797
vn 0.505 0.345 -0.791
vn -0.557 0.358 0.749
vn -0.233 0.108 0.966
vn -0.404 0.580 0.707
vn 0.385 0.369 0.846
vn -0.456 0.790 0.410
vn -0.511 0.311 0.801
vn -0.347 0.858 0.378
vn -0.084 0.993 0.082
vn -0.058 0.969 0.240
vn -0.030 0.997 0.069
vn 0.605 0.774 -0.186
vn 0.463 0.882 0.087
vn 0.022 0.975 -0.223
vn -0.426 0.853 0.301
vn 0.331 0.741 -0.585
vn 0.287 0.836 -0.467
vn 0.035 0.974 -0.226
vn 0.316 0.827 -0.466
vn 0.283 0.916 -0.284
vn 0.526 0.781 -0.338
vn 0.137 0.883 -0.449
vn 0.315 0.742 -0.592
vn -0.580 -0.656 0.483
vn 0.539 -0.678 0.499
vn -0.587 -0.484 -0.649
vn 0.564 -0.494 -0.662
vn -0.587 -0.607 -0.535
vn -0.382 -0.347 0.856
vn 0.167 -0.108 -0.980
vn 0.848 0.252 -0.467
vn -0.563 0.494 0.662
vn 0.587 0.484 0.649
vn -0.539 0.679 -0.499
vn 0.580 0.656 -0.483
vn -0.012 0.986 0.164
vn 0.217 0.388 -0.896
vn -0.655 0.366 0.661
vn -0.633 0.144 0.761
vn -0.047 0.986 0.161
vn -0.475 0.790 0.389
vn -0.193 0.951 -0.239
vn 0.057 0.994 -0.089
vn -0.796 -0.519 0.311
vn -0.696 -0.609 0.380
vn -0.606 -0.415 0.678
vn -0.561 -0.617 -0.552
vn -0.757 -0.591 0.279
vn -0.356 -0.224 0.907
vn -0.299 -0.215 0.930
vn 0.192 0.160 0.968
vn -0.567 0.490 0.662
vn -0.221 0.911 0.349
vn 0.448 0.892 -0.054
vn 0.501 0.807 -0.312
vn -0.610 -0.558 -0.562
vn -0.542 -0.567 -0.620
vn -0.100 -0.306 -0.947
vn -0.184 -0.308 -0.934
vn 0.168 -0.105 -0.980
vn 0.352 0.043 -0.935
vn 0.902 0.360 -0.240
vn 0.887 0.364 -0.283
vn -0.593 -0.557 0.581
vn -0.539 -0.759 0.365
vn -0.006 -0.988 -0.155
vn -0.743 -0.323 0.587
vn -0.005 -0.993 -0.120
vn -0.293 -0.878 0.378
vn 0.207 -0.776 -0.596
vn -0.238 -0.967 0.091
vn -0.474 -0.153 0.867
vn -0.791 -0.465 0.397
vn -0.338 -0.154 0.929
vn -0.306 -0.072 0.949
vn -0.129 0.015 0.991
vn -0.100 -0.006 0.995
vn 0.174 0.186 0.967
vn 0.294 0.275 0.915
vn 0.963 -0.113 -0.246
vn 0.375 -0.925 0.056
vn 0.259 -0.947 -0.191
vn 0.470 -0.632 -0.616
vn -0.575 -0.528 -0.625
vn -0.748 -0.487 -0.451
vn -0.873 -0.481 -0.079
vn -0.102 -0.308 -0.946
vn -0.220 -0.343 -0.913
vn 0.222 -0.067 -0.973
vn 0.457 0.080 -0.886
vn 0.373 0.070 -0.925
vn 0.893 0.448 -0.042
vn 0.824 0.442 -0.354
vn -0.586 -0.386 -0.713
vn -0.187 -0.286 -0.940
vn -0.080 -0.215 -0.973
vn 0.223 -0.082 -0.971
vn -0.282 0.080 0.956
vn -0.443 -0.044 0.895
vn 0.037 0.190 0.981
vn 0.042 0.200 0.979
vn 0.507 0.519 0.689
vn 0.269 0.309 0.912
vn 0.112 0.211 0.971
vn 0.312 0.322 0.894
vn -0.894 -0.299 0.333
vn -0.897 -0.296 0.329
vn 0.827 0.562 0.008
vn 0.751 0.440 -0.493
vn 0.801 0.432 -0.414
vn 0.829 0.559 0.015
vn -0.883 -0.350 -0.314
vn -0.588 -0.379 -0.715
vn -0.021 -0.085 -0.996
vn -0.126 -0.103 -0.987
vn 0.495 0.173 -0.852
vn 0.410 0.212 -0.887
vn -0.206 0.233 0.950
vn 0.283 0.379 0.881
vn 0.233 0.457 0.858
vn 0.572 0.497 0.652
vn -0.246 0.534 0.809
vn -0.378 0.212 0.901
vn 0.498 0.644 0.581
vn 0.503 0.723 0.473
vn 0.796 0.605 -0.020
vn 0.717 0.618 0.321
vn -0.841 0.167 -0.515
vn -0.021 0.180 -0.983
vn 0.633 0.621 -0.462
vn 0.660 0.554 -0.507

# Facets
f 1//1 3//1 2//1
f 4//2 2//2 3//2
f 5//3 7//3 6//3
f 7//4 1//4 6//4
f 3//5 1//5 7//5
f 8//6 3//6 7//6
f 3//7 9//7 4//7
f 3//8 8//8 9//8
f 10//9 7//9 5//9
f 10//10 8//10 7//10
f 10//11 11//11 8//11
f 11//12 9//12 8//12
f 12//13 14//13 13//13
f 15//14 14//14 16//14
f 15//15 13//15 14//15
f 17//16 15//16 16//16
f 18//17 20//17 19//17
f 20//18 12//18 19//18
f 20//19 14//19 12//19
f 1//20 14//20 20//20
f 2//21 14//21 1//21
f 2//22 4//22 14//22
f 14//23 4//23 21//23
f 14//24 21//24 16//24
f 16//25 22//25 17//25
f 16//26 21//26 22//26
f 23//27 25//27 24//27
f 25//28 18//28 24//28
f 25//29 20//29 18//29
f 5//30 20//30 25//30
f 6//31 20//31 5//31
f 6//32 1//32 20//32
f 26//33 21//33 27//33
f 27//34 21//34 4//34
f 27//35 4//35 9//35
f 26//36 22//36 21//36
f 28//37 30//37 29//37
f 30//38 23//38 29//38
f 25//39 23//39 30//39
f 31//40 25//40 30//40
f 31//41 5//41 25//41
f 32//42 5//42 31//42
f 10//43 5//43 32//43
f 33//44 32//44 31//44
f 34//45 11//45 10//45
f 34//46 10//46 32//46
f 11//47 27//47 9//47
f 11//48 34//48 27//48
f 35//49 30//49 28//49
f 35//50 31//50 30//50
f 35//51 36//51 31//51
f 36//52 33//52 31//52
f 37//53 13//53 38//53
f 37//54 12//54 13//54
f 13//55 15//55 39//55
f 38//56 13//56 39//56
f 17//57 39//57 15//57
f 17//58 40//58 39//58
f 41//59 19//59 42//59
f 41//60 18//60 19//60
f 12//61 37//61 19//61
f 37//62 42//62 19//62
f 40//63 17//63 22//63
f 43//64 40//64 22//64
f 23//65 24//65 44//65
f 44//66 24//66 45//66
f 45//67 24//67 18//67
f 45//68 18//68 41//68
f 46//69 48//69 47//69
f 27//70 48//70 26//70
f 26//71 48//71 46//71
f 26//72 46//72 49//72
f 26//73 43//73 22//73
f 26//74 49//74 43//74
f 28//75 29//75 50//75
f 44//76 29//76 23//76
f 50//77 29//77 44//77
f 51//78 50//78 44//78
f 32//79 33//79 52//79
f 52//80 33//80 44//80
f 44//81 33//81 51//81
f 44//82 45//82 52//82
f 34//83 47//83 48//83
f 52//84 47//84 34//84
f 32//85 52//85 34//85
f 48//86 27//86 34//86
f 35//87 28//87 50//87
f 50//88 36//88 35//88
f 50//89 51//89 36//89
f 51//90 33//90 36//90
f 37//91 38//91 53//91
f 54//92 38//92 39//92
f 54//93 53//93 38//93
f 54//94 39//94 40//94
f 41//95 42//95 55//95
f 53//96 42//96 37//96
f 55//97 42//97 53//97
f 56//98 55//98 53//98
f 53//99 54//99 57//99
f 53//100 57//100 56//100
f 57//101 40//101 43//101
f 57//102 54//102 40//102
f 45//103 55//103 58//103
f 45//104 41//104 55//104
f 58//105 46//105 47//105
f 56//106 46//106 58//106
f 55//107 56//107 58//107
f 56//108 49//108 46//108
f 56//109 57//109 49//109
f 57//110 43//110 49//110
f 52//111 45//111 58//111
f 58//112 47//112 52//112
f 59//113 61//113 60//113
f 62//114 60//114 61//114
f 63//115 61//115 59//115
f 63//116 62//116 61//116
f 64//117 66//117 65//117
f 67//118 65//118 66//118
f 68//119 66//119 64//119
f 68//120 67//120 66//120
f 59//121 60//121 69//121
f 69//122 60//122 62//122
f 63//123 59//123 69//123
f 69//124 62//124 63//124
f 70//125 72//125 71//125
f 73//126 71//126 72//126
f 74//127 76//127 75//127
f 76//128 70//128 75//128
f 72//129 70//129 76//129
f 77//130 72//130 76//130
f 72//131 78//131 73//131
f 72//132 77//132 78//132
f 79//133 81//133 80//133
f 82//134 81//134 83//134
f 82//135 80//135 81//135
f 65//136 83//136 64//136
f 82//137 83//137 65//137
f 84//138 82//138 65//138
f 67//139 84//139 65//139
f 67//140 85//140 84//140
f 86//141 76//141 74//141
f 86//142 77//142 76//142
f 86//143 87//143 77//143
f 87//144 78//144 77//144
f 88//145 81//145 79//145
f 88//146 83//146 81//146
f 88//147 89//147 83//147
f 89//148 64//148 83//148
f 68//149 64//149 89//149
f 90//150 68//150 89//150
f 68//151 85//151 67//151
f 68//152 90//152 85//152
f 70//153 71//153 91//153
f 91//154 71//154 73//154
f 74//155 75//155 92//155
f 91//156 75//156 70//156
f 92//157 75//157 91//157
f 93//158 92//158 91//158
f 93//159 73//159 78//159
f 93//160 91//160 73//160
f 94//161 80//161 95//161
f 94//162 79//162 80//162
f 80//163 82//163 96//163
f 95//164 80//164 96//164
f 82//165 84//165 97//165
f 96//166 82//166 97//166
f 85//167 97//167 84//167
f 85//168 98//168 97//168
f 86//169 74//169 92//169
f 92//170 87//170 86//170
f 92//171 93//171 87//171
f 93//172 78//172 87//172
f 79//173 99//173 88//173
f 100//174 99//174 79//174
f 94//175 100//175 79//175
f 89//176 88//176 101//176
f 88//177 99//177 101//177
f 101//178 102//178 89//178
f 89//179 102//179 103//179
f 89//180 103//180 90//180
f 90//181 98//181 85//181
f 90//182 103//182 98//182
f 104//183 99//183 100//183
f 104//184 101//184 99//184
f 104//185 105//185 101//185
f 105//186 102//186 101//186
f 106//187 95//187 107//187
f 106//188 94//188 95//188
f 95//189 96//189 108//189
f 107//190 95//190 108//190
f 108//191 110//191 109//191
f 97//192 110//192 108//192
f 96//193 97//193 108//193
f 110//194 97//194 98//194
f 100//195 94//195 106//195
f 100//196 106//196 111//196
f 110//197 103//197 109//197
f 109//198 103//198 102//198
f 109//199 102//199 112//199
f 110//200 98//200 103//200
f 113//201 100//201 111//201
f 113//202 104//202 100//202
f 114//203 105//203 104//203
f 114//204 104//204 113//204
f 105//205 112//205 102//205
f 105//206 114//206 112//206
f 106//207 107//207 115//207
f 116//208 107//208 108//208
f 116//209 115//209 107//209
f 116//210 108//210 109//210
f 111//211 115//211 117//211
f 111//212 106//212 115//212
f 115//213 116//213 118//213
f 115//214 118//214 117//214
f 118//215 109//215 112//215
f 118//216 116//216 109//216
f 113//217 111//217 117//217
f 117//218 114//218 113//218
f 117//219 118//219 114//219
f 118//220 112//220 114//220

# Thankyou for using Spin3D

