# Created using Spin3D

# Vertex Array
v 13.188 -46.106 15.814
v 13.209 -46.111 15.853
v 13.198 -46.107 15.827
v 13.195 -46.106 15.828
v 13.163 -46.095 15.751
v 13.174 -46.097 15.771
v 13.140 -46.084 15.696
v 13.142 -46.089 15.717
v 13.165 -46.097 15.773
v 13.117 -46.078 15.655
v 13.111 -46.074 15.641
v 13.107 -46.075 15.641
v 13.131 -46.084 15.698
v 13.096 -46.070 15.616
v 13.192 -46.103 15.814
v 13.146 -46.086 15.716
v 13.159 -46.092 15.753
v 13.114 -46.075 15.655
v -29.300 -17.733 -29.857
v -28.660 -17.375 -29.508
v -28.390 -17.852 -29.878
v -27.632 -17.527 -29.564
v -27.623 -17.874 -29.853
v -27.010 -17.583 -29.604
v -28.799 -18.018 -30.081
v -29.169 -17.913 -30.055
v -28.079 -18.034 -30.049
v -27.397 -17.862 -29.873
v -28.550 -17.972 -30.086
v -27.789 -17.878 -29.959
v 38.086 -17.189 -23.319
v 38.700 -17.078 -23.120
v 38.697 -17.308 -23.227
v 39.597 -17.163 -23.094
v 39.850 -17.230 -23.413
v 40.491 -17.134 -23.243
v 38.194 -17.329 -23.466
v 39.055 -17.263 -23.663
v 38.509 -17.201 -23.811
v 41.167 -16.907 -23.803
v 40.460 -16.962 -24.092
v 41.721 -16.553 -24.580
v -29.764 -17.315 -29.539
v -29.200 -17.133 -29.382
v -29.571 -17.418 -29.594
v -28.212 -16.839 -29.126
v -27.680 -17.072 -29.235
v -26.862 -17.156 -29.272
v -26.505 -17.308 -29.384
v -26.391 -17.128 -29.246
v 39.665 -16.907 -24.262
v 41.284 -16.437 -24.870
v -29.770 -17.487 -29.691
v -29.449 -17.620 -29.836
v -26.435 -17.194 -29.315
v -27.060 -17.442 -29.564
v -28.950 -17.751 -29.957
v -28.142 -17.597 -29.800
v 49.313 -14.729 -32.328
v 49.312 -14.651 -32.271
v 49.307 -14.590 -32.218
v 49.340 -14.698 -32.304
v 49.344 -14.656 -32.266
v 38.372 -16.925 -23.351
v 39.032 -16.764 -23.356
v 39.785 -16.820 -23.272
v 40.638 -16.922 -23.285
v 41.065 -16.977 -23.395
v 41.571 -16.646 -23.831
v 38.077 -17.175 -23.639
v 38.345 -16.909 -23.696
v 42.280 -16.334 -24.590
v 42.638 -15.971 -25.336
v 42.952 -15.855 -25.234
v -29.457 -17.264 -29.539
v -28.465 -16.836 -29.197
v -27.779 -16.491 -28.903
v -27.321 -16.663 -28.975
v -27.261 -16.552 -28.941
v -26.808 -16.954 -29.174
v 38.844 -16.883 -24.097
v 40.521 -16.332 -24.824
v 41.828 -15.784 -25.419
v 42.190 -15.854 -25.535
v 43.073 -15.559 -25.859
v 43.244 -15.584 -25.710
v -28.802 -17.328 -29.619
v -27.667 -16.493 -28.930
v -27.686 -16.961 -29.282
v 42.752 -15.521 -25.828
v 43.146 -15.450 -25.844
v 49.343 -14.250 -31.968
v 49.311 -14.416 -32.092
v 49.362 -14.499 -32.156
v 49.431 -14.429 -32.098
v 49.400 -14.259 -31.973
v 49.446 -14.300 -31.998
v 49.312 -14.310 -32.000
v 49.397 -14.579 -32.208
v 49.444 -14.430 -32.093
v 49.340 -14.477 -32.124
v 49.397 -14.470 -32.119
v 39.126 -16.586 -23.807
v 40.182 -16.412 -23.862
v 41.101 -16.464 -23.832
v 39.329 -16.544 -24.238
v 40.709 -16.104 -24.664
v 41.709 -15.977 -24.663
v 42.294 -16.104 -24.605
v -27.416 -16.381 -28.820
v 42.359 -15.622 -25.448
v 42.880 -15.652 -25.378
v 49.350 -14.070 -31.826
v 49.312 -14.135 -31.874
v 49.402 -14.150 -31.883
v 49.347 -14.029 -31.788
v 49.319 -14.075 -31.822
v 49.365 -14.228 -31.936
v 49.433 -14.301 -31.994
v 49.321 -13.997 -31.765
v 57.640 0.546 -30.894
v 57.642 0.538 -30.864
v 57.641 0.553 -30.927
v 57.641 0.539 -30.878
v 57.636 0.575 -31.022
v 57.637 0.582 -31.067
v 57.636 0.563 -30.982
v 57.632 0.604 -31.162
v 57.630 0.608 -31.196
v 57.629 0.600 -31.145
v 57.627 0.616 -31.226
v 60.693 4.034 -27.872
v 60.696 3.996 -27.717
v 60.693 4.064 -28.015
v 60.692 4.043 -27.930
v 57.640 0.554 -30.944
v 60.688 4.152 -28.389
v 60.688 4.205 -28.630
v 60.687 4.116 -28.240
v 57.632 0.590 -31.108
v 60.681 4.328 -29.173
v 60.683 4.351 -29.284
v 60.681 4.277 -28.953
v 57.626 0.612 -31.212
v 60.676 4.463 -29.769
v 60.676 4.480 -29.856
v 60.675 4.448 -29.709
v 60.672 4.521 -30.028
v 60.693 4.037 -27.907
v 60.688 4.112 -28.243
v 60.688 4.178 -28.531
v 60.684 4.206 -28.656
v 60.681 4.355 -29.317
v 60.677 4.393 -29.484
v 60.677 4.447 -29.726
v 60.673 4.501 -29.955
v 60.685 4.233 -28.782
v 60.680 4.340 -29.260

# Normal Array
vn 0.288 -0.916 -0.278
vn -0.830 -0.389 0.399
vn 0.531 -0.760 -0.374
vn 0.420 -0.847 -0.324
vn 0.281 -0.920 -0.272
vn 0.008 -0.984 -0.176
vn -0.868 -0.259 0.424
vn -0.457 -0.887 0.063
vn 0.421 -0.840 -0.343
vn 0.856 -0.166 -0.490
vn -0.423 -0.906 0.025
vn -0.298 -0.954 -0.041
vn -0.033 -0.988 -0.151
vn -0.539 -0.836 0.104
vn 0.812 -0.293 -0.505
vn -0.308 -0.951 -0.033
vn 0.907 0.210 -0.364
vn -0.271 0.910 0.314
vn 0.447 0.893 -0.049
vn 0.890 0.322 -0.323
vn 0.568 0.813 -0.125
vn -0.007 0.985 0.170
vn -0.253 0.921 0.296
vn -0.311 0.895 0.319
vn 0.319 0.948 -0.005
vn 0.295 0.956 0.008
vn -0.892 0.188 0.411
vn -0.569 0.724 0.389
vn 0.034 0.987 0.156
vn -0.422 0.843 0.333
vn 0.270 0.963 0.007
vn -0.909 0.065 0.412
vn -0.065 -0.634 0.771
vn -0.043 -0.641 0.767
vn -0.051 -0.629 0.775
vn -0.008 -0.641 0.768
vn -0.074 -0.694 0.716
vn -0.179 -0.784 0.595
vn -0.042 -0.722 0.691
vn -0.047 -0.725 0.687
vn 0.095 -0.756 0.648
vn 0.088 -0.861 0.502
vn -0.040 0.106 -0.994
vn 0.036 -0.300 -0.953
vn 0.117 0.323 -0.939
vn 0.205 0.174 -0.963
vn -0.214 -0.410 0.887
vn 0.110 -0.951 0.288
vn -0.066 -0.420 0.905
vn 0.075 -0.962 0.262
vn -0.239 -0.785 0.572
vn -0.011 -0.935 -0.355
vn 0.065 -0.997 -0.048
vn 0.059 -0.997 -0.053
vn 0.189 -0.968 -0.165
vn 0.168 -0.959 -0.227
vn 0.124 -0.956 -0.265
vn 0.192 -0.937 -0.291
vn -0.055 -0.550 0.833
vn -0.040 -0.660 0.751
vn -0.052 -0.553 0.832
vn -0.052 -0.552 0.832
vn -0.043 -0.588 0.808
vn -0.065 -0.543 0.837
vn -0.012 -0.611 0.791
vn -0.004 -0.613 0.790
vn -0.024 -0.587 0.809
vn -0.007 -0.604 0.797
vn 0.032 -0.873 -0.487
vn 0.041 -0.876 -0.480
vn 0.052 -0.852 -0.521
vn 0.093 -0.868 -0.488
vn -0.134 -0.651 0.747
vn -0.106 -0.689 0.717
vn -0.523 -0.572 -0.632
vn -0.536 -0.770 0.346
vn 0.187 0.420 -0.888
vn 0.216 0.337 -0.916
vn 0.338 0.366 -0.867
vn 0.875 -0.471 -0.107
vn -0.050 0.565 -0.823
vn 0.005 0.513 -0.859
vn 0.070 0.557 -0.828
vn 0.050 0.571 -0.819
vn 0.168 0.493 -0.854
vn 0.094 0.578 -0.811
vn -0.842 0.313 -0.440
vn 0.040 0.589 -0.807
vn -0.096 -0.620 0.779
vn 0.124 -0.672 0.731
vn -0.166 0.699 0.695
vn -0.348 0.478 0.807
vn 0.017 0.454 0.891
vn -0.039 0.627 0.778
vn 0.251 0.016 0.968
vn 0.161 0.082 0.983
vn 0.065 0.432 0.899
vn 0.272 0.588 0.762
vn -0.793 -0.609 -0.005
vn -0.698 0.714 0.051
vn -0.669 0.738 0.089
vn -0.261 -0.803 -0.535
vn 0.235 -0.966 -0.108
vn 0.346 -0.898 -0.271
vn 0.356 -0.920 -0.165
vn 0.542 -0.823 0.168
vn 0.542 -0.841 -0.010
vn 0.404 -0.884 -0.236
vn -0.141 0.860 -0.490
vn -0.268 0.064 0.961
vn -0.301 0.914 -0.273
vn -0.263 -0.267 0.927
vn -0.049 -0.494 0.868
vn -0.045 -0.508 0.860
vn 0.151 -0.363 0.920
vn 0.087 -0.453 0.887
vn -0.016 -0.527 0.850
vn -0.024 -0.431 0.902
vn -0.577 0.436 -0.691
vn -0.360 -0.386 -0.850
vn -0.180 -0.546 -0.818
vn -0.181 -0.537 -0.824
vn -0.334 -0.202 -0.921
vn -0.134 -0.648 -0.750
vn -0.129 -0.589 -0.798
vn 0.115 -0.850 -0.514
vn 0.062 -0.791 -0.609
vn 0.051 -0.805 -0.592
vn 0.407 -0.878 -0.251
vn 0.268 -0.852 -0.449
vn -0.107 0.659 -0.745
vn -0.084 0.639 -0.765
vn -0.032 0.641 -0.766
vn -0.028 0.662 -0.749
vn -0.131 0.781 -0.610
vn 0.009 0.601 -0.799
vn 0.019 0.643 -0.765
vn 0.065 0.599 -0.798
vn 0.095 0.577 -0.811
vn 0.094 0.592 -0.801
vn 0.082 0.596 -0.799
vn 0.150 0.663 -0.733
vn -0.337 -0.234 -0.912
vn -0.143 -0.508 -0.850
vn -0.074 0.187 -0.980
vn -0.021 0.600 -0.800
vn 0.603 -0.298 -0.740
vn 0.060 0.599 -0.799
vn 0.032 0.602 -0.798
vn 0.105 0.602 -0.792
vn -0.022 0.629 -0.777
vn 0.035 0.616 -0.787
vn 0.035 0.616 -0.787
vn 0.091 0.589 -0.803
vn -0.006 0.606 -0.796
vn -0.749 0.398 -0.529
vn -0.995 0.072 -0.071
vn 0.051 0.593 -0.804
vn 0.119 0.585 -0.803
vn 0.092 0.578 -0.811
vn 0.305 0.562 -0.769
vn 0.311 0.518 -0.797
vn -0.152 -0.604 0.782
vn -0.094 -0.619 0.780
vn 0.192 -0.668 0.719
vn 0.084 -0.632 0.771
vn 0.009 -0.621 0.784
vn 0.115 -0.630 0.768
vn -0.223 0.921 0.318
vn -0.002 0.823 0.569
vn -0.135 0.931 0.340
vn 0.096 0.722 0.686
vn 0.027 0.813 0.581
vn 0.243 0.633 0.735
vn -0.392 0.915 -0.096
vn -0.373 0.925 0.074
vn -0.142 0.952 0.272
vn -0.320 0.946 -0.059
vn 0.031 0.852 0.523
vn -0.121 0.951 0.285
vn 0.731 0.001 0.683
vn 0.255 0.664 0.703
vn 0.122 0.815 0.567
vn 0.689 0.006 0.725
vn -0.049 -0.495 0.868
vn 0.247 -0.403 0.881
vn -0.552 0.517 -0.654
vn -0.463 0.319 -0.827
vn -0.403 0.725 -0.558
vn -0.511 0.735 -0.446
vn -0.294 0.955 -0.031
vn -0.120 0.938 0.325
vn 0.121 0.814 0.568
vn -0.001 0.911 0.411
vn 0.463 0.618 0.635
vn 0.405 0.622 0.670
vn -0.119 0.819 -0.561
vn 0.068 0.618 -0.783
vn -0.295 0.954 -0.054
vn -0.175 0.982 0.077
vn 0.001 0.917 0.399
vn -0.070 0.622 -0.780
vn -0.129 0.608 -0.783
vn 0.337 0.778 0.531
vn 0.217 0.661 -0.718
vn 0.110 0.629 -0.770
vn 0.036 0.620 -0.784
vn 0.140 0.626 -0.767
vn -0.031 -0.605 0.795
vn -0.772 -0.371 0.516
vn -0.998 -0.033 0.050
vn 0.029 -0.594 0.804
vn 0.093 -0.588 0.804
vn 0.065 -0.580 0.812
vn 0.286 -0.570 0.770
vn 0.293 -0.525 0.799
vn -0.045 -0.599 0.799
vn 0.005 -0.603 0.798
vn 0.034 -0.600 0.799
vn 0.081 -0.605 0.792
vn -0.071 0.622 -0.780
vn 0.148 0.667 -0.730
vn -0.862 -0.280 0.423
vn 0.017 -0.589 0.808
vn -0.299 -0.927 -0.226
vn 0.975 -0.184 -0.121
vn 0.015 -0.975 -0.224
vn -0.702 -0.702 -0.122
vn 0.999 0.037 -0.035
vn 0.927 -0.359 -0.110
vn -0.713 -0.691 -0.120
vn -0.998 0.025 0.060
vn 0.859 -0.490 -0.149
vn 0.187 -0.961 -0.205
vn -0.958 -0.288 0.017
vn 0.237 -0.952 -0.195
vn -0.825 -0.552 -0.119
vn 0.993 -0.111 -0.044
vn -0.969 0.235 0.071
vn -0.841 -0.529 -0.114
vn -0.874 -0.476 -0.101
vn -0.724 0.673 0.152
vn 0.985 -0.164 -0.052
vn 0.507 -0.839 -0.197
vn -0.483 0.850 0.211
vn -0.980 0.185 0.070
vn 0.378 0.906 0.192
vn 0.547 0.823 0.153
vn -0.778 -0.615 -0.131
vn -0.701 -0.697 -0.151
vn 0.651 -0.740 -0.172
vn 0.745 -0.649 -0.153
vn 0.068 0.976 0.208
vn -0.331 0.921 0.206
vn 0.848 0.524 0.080
vn 0.941 0.339 0.021
vn -0.679 -0.718 -0.155
vn -0.858 -0.504 -0.103
vn 0.713 -0.683 -0.161
vn 0.604 -0.776 -0.180
vn -0.170 0.952 0.254
vn -0.792 -0.598 -0.122
vn 0.667 -0.727 -0.162
vn 0.560 -0.807 -0.189
vn -0.972 0.225 0.060
vn 0.675 0.723 0.145
vn -0.216 0.952 0.218
vn -0.979 0.198 0.053
vn -0.988 0.147 0.042
vn 0.606 0.778 0.166
vn 0.989 -0.144 -0.042
vn 0.950 0.306 0.059
vn -0.994 0.109 0.032
vn -0.959 0.273 0.070
vn 0.993 0.116 0.018
vn 0.995 0.100 0.014
vn -0.867 0.482 0.130
vn -0.999 0.034 0.018
vn -0.967 0.245 0.067
vn 0.557 0.810 0.181
vn 0.986 0.165 0.029
vn 0.988 0.155 0.026
vn -0.923 0.369 0.108
vn 0.997 0.075 0.009
vn -0.692 0.704 0.161
vn 0.749 0.647 0.140
vn -0.766 0.625 0.148
vn -0.888 0.447 0.108
vn 0.961 0.270 0.053
vn 0.661 0.734 0.158
vn -0.762 0.630 0.149
vn 0.779 0.612 0.136

# Facets
f 1//1 3//1 2//1
f 2//2 4//2 1//2
f 5//3 7//3 6//3
f 3//4 5//4 6//4
f 3//5 1//5 5//5
f 1//6 8//6 5//6
f 9//7 1//7 4//7
f 8//8 1//8 9//8
f 10//9 7//9 5//9
f 11//10 7//10 10//10
f 12//11 8//11 13//11
f 12//12 10//12 8//12
f 10//13 5//13 8//13
f 9//14 13//14 8//14
f 10//15 14//15 11//15
f 12//16 14//16 10//16
f 2//17 3//17 15//17
f 2//18 15//18 4//18
f 6//19 7//19 16//19
f 6//20 15//20 3//20
f 6//21 16//21 15//21
f 16//22 17//22 15//22
f 4//23 17//23 9//23
f 15//24 17//24 4//24
f 16//25 11//25 18//25
f 7//26 11//26 16//26
f 13//27 18//27 12//27
f 13//28 17//28 18//28
f 17//29 16//29 18//29
f 9//30 17//30 13//30
f 11//31 14//31 18//31
f 12//32 18//32 14//32
f 19//33 21//33 20//33
f 22//34 21//34 23//34
f 22//35 20//35 21//35
f 24//36 22//36 23//36
f 19//37 25//37 21//37
f 19//38 26//38 25//38
f 27//39 23//39 21//39
f 25//40 27//40 21//40
f 23//41 28//41 24//41
f 23//42 27//42 28//42
f 29//43 25//43 26//43
f 29//44 27//44 25//44
f 29//45 30//45 27//45
f 30//46 28//46 27//46
f 31//47 33//47 32//47
f 34//48 33//48 35//48
f 34//49 32//49 33//49
f 36//50 34//50 35//50
f 37//51 33//51 31//51
f 38//52 37//52 39//52
f 33//53 37//53 38//53
f 35//54 33//54 38//54
f 35//55 40//55 36//55
f 41//56 40//56 35//56
f 38//57 41//57 35//57
f 42//58 40//58 41//58
f 43//59 45//59 44//59
f 20//60 45//60 19//60
f 44//61 45//61 20//61
f 46//62 44//62 20//62
f 20//63 22//63 47//63
f 46//64 20//64 47//64
f 48//65 24//65 49//65
f 22//66 24//66 48//66
f 47//67 22//67 48//67
f 50//68 48//68 49//68
f 51//69 38//69 39//69
f 51//70 41//70 38//70
f 51//71 52//71 41//71
f 52//72 42//72 41//72
f 53//73 45//73 43//73
f 45//74 53//74 19//74
f 19//75 53//75 54//75
f 19//76 54//76 26//76
f 55//77 49//77 56//77
f 56//78 49//78 24//78
f 56//79 24//79 28//79
f 55//80 50//80 49//80
f 57//81 26//81 54//81
f 57//82 29//82 26//82
f 58//83 30//83 29//83
f 58//84 29//84 57//84
f 30//85 56//85 28//85
f 30//86 58//86 56//86
f 59//87 61//87 60//87
f 60//88 62//88 59//88
f 59//89 63//89 61//89
f 62//90 63//90 59//90
f 64//91 32//91 65//91
f 64//92 31//92 32//92
f 32//93 34//93 66//93
f 65//94 32//94 66//94
f 67//95 36//95 68//95
f 34//96 36//96 67//96
f 66//97 34//97 67//97
f 69//98 67//98 68//98
f 31//99 70//99 37//99
f 71//100 70//100 31//100
f 64//101 71//101 31//101
f 39//102 37//102 70//102
f 68//103 36//103 40//103
f 72//104 42//104 73//104
f 72//105 40//105 42//105
f 69//106 40//106 72//106
f 68//107 40//107 69//107
f 74//108 72//108 73//108
f 43//109 44//109 75//109
f 76//110 44//110 46//110
f 76//111 75//111 44//111
f 46//112 77//112 76//112
f 78//113 77//113 46//113
f 47//114 78//114 46//114
f 78//115 80//115 79//115
f 48//116 80//116 78//116
f 47//117 48//117 78//117
f 80//118 48//118 50//118
f 81//119 70//119 71//119
f 81//120 39//120 70//120
f 51//121 39//121 81//121
f 82//122 51//122 81//122
f 83//123 84//123 82//123
f 82//124 84//124 52//124
f 82//125 52//125 51//125
f 42//126 52//126 73//126
f 73//127 52//127 84//127
f 73//128 84//128 85//128
f 73//129 86//129 74//129
f 73//130 85//130 86//130
f 53//131 43//131 75//131
f 75//132 54//132 53//132
f 87//133 54//133 75//133
f 76//134 87//134 75//134
f 77//135 88//135 76//135
f 76//136 88//136 89//136
f 76//137 89//137 87//137
f 88//138 79//138 89//138
f 79//139 80//139 89//139
f 89//140 80//140 56//140
f 56//141 80//141 55//141
f 80//142 50//142 55//142
f 90//143 84//143 83//143
f 90//144 85//144 84//144
f 90//145 91//145 85//145
f 92//146 94//146 93//146
f 91//147 86//147 85//147
f 94//148 96//148 95//148
f 92//149 96//149 94//149
f 96//150 97//150 95//150
f 57//151 54//151 87//151
f 87//152 58//152 57//152
f 87//153 89//153 58//153
f 89//154 56//154 58//154
f 60//155 93//155 94//155
f 60//156 61//156 93//156
f 61//157 98//157 93//157
f 62//158 60//158 94//158
f 62//159 94//159 99//159
f 99//160 94//160 95//160
f 100//161 95//161 97//161
f 99//162 95//162 100//162
f 61//163 101//163 98//163
f 63//164 101//164 61//164
f 99//165 63//165 62//165
f 99//166 102//166 63//166
f 102//167 101//167 63//167
f 100//168 102//168 99//168
f 64//169 65//169 103//169
f 104//170 65//170 66//170
f 104//171 103//171 65//171
f 105//172 66//172 67//172
f 105//173 104//173 66//173
f 105//174 67//174 69//174
f 71//175 103//175 106//175
f 71//176 64//176 103//176
f 103//177 104//177 107//177
f 103//178 107//178 106//178
f 104//179 105//179 108//179
f 104//180 108//180 107//180
f 109//181 69//181 72//181
f 105//182 69//182 109//182
f 108//183 105//183 109//183
f 109//184 72//184 74//184
f 77//185 78//185 110//185
f 110//186 78//186 79//186
f 81//187 71//187 106//187
f 106//188 82//188 81//188
f 106//189 107//189 82//189
f 107//190 83//190 82//190
f 111//191 83//191 107//191
f 108//192 111//192 107//192
f 108//193 109//193 112//193
f 108//194 112//194 111//194
f 112//195 74//195 86//195
f 112//196 109//196 74//196
f 88//197 77//197 110//197
f 110//198 79//198 88//198
f 90//199 83//199 111//199
f 111//200 91//200 90//200
f 111//201 112//201 91//201
f 92//202 114//202 113//202
f 92//203 93//203 114//203
f 86//204 91//204 112//204
f 115//205 113//205 116//205
f 115//206 96//206 113//206
f 96//207 92//207 113//207
f 96//208 115//208 97//208
f 117//209 98//209 118//209
f 117//210 114//210 98//210
f 114//211 93//211 98//211
f 116//212 117//212 118//212
f 116//213 118//213 115//213
f 115//214 118//214 119//214
f 97//215 119//215 100//215
f 115//216 119//216 97//216
f 98//217 101//217 118//217
f 102//218 118//218 101//218
f 119//219 118//219 102//219
f 100//220 119//220 102//220
f 113//221 114//221 120//221
f 113//222 120//222 116//222
f 114//223 117//223 120//223
f 116//224 120//224 117//224
f 121//225 123//225 122//225
f 122//226 124//226 121//226
f 125//227 123//227 121//227
f 126//228 123//228 125//228
f 127//229 121//229 124//229
f 125//230 121//230 127//230
f 128//231 126//231 125//231
f 129//232 126//232 128//232
f 130//233 125//233 127//233
f 128//234 125//234 130//234
f 128//235 131//235 129//235
f 130//236 131//236 128//236
f 132//237 134//237 133//237
f 133//238 135//238 132//238
f 122//239 123//239 136//239
f 137//240 134//240 132//240
f 137//241 138//241 134//241
f 136//242 124//242 122//242
f 139//243 132//243 135//243
f 137//244 132//244 139//244
f 136//245 126//245 140//245
f 123//246 126//246 136//246
f 124//247 136//247 127//247
f 127//248 136//248 140//248
f 138//249 137//249 141//249
f 138//250 141//250 142//250
f 143//251 137//251 139//251
f 141//252 137//252 143//252
f 140//253 129//253 144//253
f 126//254 129//254 140//254
f 127//255 140//255 130//255
f 130//256 140//256 144//256
f 142//257 141//257 145//257
f 142//258 145//258 146//258
f 147//259 141//259 143//259
f 145//260 141//260 147//260
f 129//261 131//261 144//261
f 145//262 148//262 146//262
f 130//263 144//263 131//263
f 147//264 148//264 145//264
f 133//265 134//265 149//265
f 133//266 149//266 135//266
f 149//267 151//267 150//267
f 149//268 134//268 151//268
f 134//269 138//269 151//269
f 150//270 135//270 149//270
f 150//271 152//271 135//271
f 152//272 139//272 135//272
f 138//273 142//273 151//273
f 151//274 142//274 153//274
f 139//275 152//275 143//275
f 152//276 154//276 143//276
f 155//277 146//277 156//277
f 155//278 153//278 146//278
f 153//279 142//279 146//279
f 156//280 154//280 155//280
f 156//281 147//281 154//281
f 147//282 143//282 154//282
f 146//283 148//283 156//283
f 147//284 156//284 148//284
f 150//285 151//285 157//285
f 150//286 157//286 152//286
f 157//287 153//287 158//287
f 151//288 153//288 157//288
f 152//289 158//289 154//289
f 157//290 158//290 152//290
f 153//291 155//291 158//291
f 154//292 158//292 155//292

# Thankyou for using Spin3D

