# Created using Spin3D

# Vertex Array
v -15.048 -25.907 15.782
v -15.049 -25.907 15.779
v -15.050 -25.908 15.781
v -15.052 -25.907 15.781
v -15.050 -25.907 15.783
v -15.048 -25.906 15.781
v -15.050 -25.905 15.780
v -15.052 -25.906 15.782
v -15.049 -25.906 15.783
v -15.050 -25.905 15.781

# Normal Array
vn 0.252 -0.904 -0.346
vn -0.157 -0.889 -0.430
vn 0.130 -0.988 0.082
vn -0.241 -0.971 -0.011
vn 0.528 0.383 -0.758
vn 0.808 -0.214 -0.549
vn -0.509 -0.159 -0.846
vn -0.797 0.357 -0.487
vn 0.813 0.211 0.543
vn 0.484 -0.416 0.770
vn -0.813 -0.345 0.470
vn -0.514 0.130 0.848
vn 0.171 0.976 -0.132
vn -0.251 0.967 -0.047
vn 0.276 0.905 0.323
vn -0.143 0.901 0.409

# Facets
f 1//1 3//1 2//1
f 4//2 2//2 3//2
f 5//3 3//3 1//3
f 5//4 4//4 3//4
f 6//5 2//5 7//5
f 6//6 1//6 2//6
f 4//7 7//7 2//7
f 4//8 8//8 7//8
f 9//9 1//9 6//9
f 9//10 5//10 1//10
f 5//11 8//11 4//11
f 5//12 9//12 8//12
f 6//13 7//13 10//13
f 10//14 7//14 8//14
f 9//15 6//15 10//15
f 10//16 8//16 9//16

# Thankyou for using Spin3D

