# Created using Spin3D

# Vertex Array
v -38.803 -17.746 -22.573
v -38.802 -17.747 -22.572
v -38.802 -17.747 -22.573
v -38.801 -17.746 -22.573
v -38.802 -17.746 -22.574
v 51.317 -16.616 -18.683
v 51.318 -16.616 -18.682
v 51.318 -16.617 -18.683
v 51.319 -16.616 -18.683
v -38.802 -17.745 -22.573
v 51.318 -16.616 -18.684
v 13.666 -18.368 26.207
v 14.391 -18.666 25.889
v 14.432 -18.713 25.783
v 14.567 -18.604 25.732
v 13.957 -18.331 25.879
v 51.318 -16.615 -18.683
v 7.560 -15.072 28.789
v 7.964 -14.962 29.184
v 8.647 -16.094 28.469
v 9.332 -15.906 28.757
v 10.379 -16.936 27.867
v 10.836 -16.632 28.124
v 12.213 -17.569 27.149
v 11.967 -16.647 27.633
v 8.171 -15.914 28.227
v 9.522 -16.594 27.735
v 8.585 -15.789 27.895
v 11.877 -17.514 26.857
v 13.748 -18.084 26.344
v 14.416 -18.224 25.844
v 10.179 -16.103 27.361
v 12.631 -17.288 26.408
v 13.572 -17.466 26.079
v 14.130 -18.072 25.708
v 14.634 -18.396 25.559
v 14.484 -18.127 25.572
v 7.217 -13.959 29.338
v 7.611 -13.482 29.676
v 8.602 -14.614 29.382
v 10.040 -15.239 28.861
v 10.909 -15.200 28.462
v 7.710 -15.097 28.362
v 7.214 -13.660 28.940
v 13.221 -17.200 26.593
v 11.683 -15.777 27.736
v 8.305 -14.514 28.148
v 9.502 -14.817 27.751
v 11.102 -15.448 27.445
v 14.373 -18.018 25.750
v 6.991 -12.507 29.641
v 7.379 -11.853 29.964
v 8.574 -13.228 29.636
v 9.026 -12.668 29.372
v 9.847 -14.046 29.108
v 6.965 -11.839 29.406
v 10.398 -14.255 28.540
v 9.247 -12.899 28.774
v 7.526 -12.819 28.798
v 8.663 -13.241 28.421
v 6.909 -11.043 29.903
v 7.197 -10.703 30.083
v 7.883 -11.434 29.910
v 8.133 -11.322 29.559
v 7.455 -11.551 29.201
v 6.983 -10.755 29.695
v 8.105 -11.644 29.147
v 7.408 -10.662 29.658
v 7.041 -10.361 29.967
v 7.431 -10.524 29.956
v 54.484 -0.835 -3.881
v 54.486 -0.835 -3.880
v 54.486 -0.836 -3.881
v 54.487 -0.835 -3.881
v 54.486 -0.835 -3.882
v 54.486 -0.834 -3.881
v 5.440 9.625 10.740
v 5.437 9.625 10.736
v 5.440 9.625 10.737
v 5.438 9.624 10.736
v 5.445 9.623 10.745
v 5.442 9.624 10.741
v 5.443 9.624 10.743
v 5.443 9.625 10.740
v 5.441 9.625 10.736
v 5.445 9.624 10.744
v 5.445 9.624 10.741
v -20.977 24.446 -70.284
v -20.979 24.444 -70.285
v -20.977 24.445 -70.285
v -20.980 24.441 -70.286
v -20.977 24.442 -70.285
v -20.982 24.438 -70.286
v -20.978 24.442 -70.285
v -20.980 24.440 -70.285
v 5.439 9.624 10.738
v 5.444 9.624 10.741
v 5.442 9.623 10.739
v -20.980 24.442 -70.285
v -20.982 24.441 -70.286
v -20.982 24.439 -70.286
v -20.985 24.438 -70.285
v -20.983 24.439 -70.285
v -20.986 24.438 -70.286

# Normal Array
vn -0.583 -0.661 0.472
vn 0.582 -0.662 0.472
vn -0.563 -0.446 -0.695
vn 0.562 -0.447 -0.696
vn -0.569 -0.652 0.501
vn 0.568 -0.653 0.501
vn -0.569 0.501 0.652
vn 0.568 0.501 0.653
vn -0.583 -0.472 -0.661
vn 0.582 -0.472 -0.662
vn -0.551 0.686 -0.475
vn 0.550 0.687 -0.476
vn -0.241 -0.919 0.312
vn 0.650 -0.567 0.506
vn -0.579 -0.576 -0.578
vn -0.280 -0.108 -0.954
vn -0.551 0.475 0.686
vn 0.550 0.475 0.687
vn -0.564 0.695 -0.447
vn 0.562 0.695 -0.447
vn -0.431 -0.653 0.622
vn -0.101 -0.708 0.699
vn -0.167 -0.597 0.785
vn 0.048 -0.685 0.727
vn 0.006 -0.651 0.759
vn 0.368 -0.353 0.860
vn -0.515 -0.702 0.492
vn -0.489 -0.417 -0.767
vn -0.407 -0.904 0.130
vn -0.387 -0.909 0.157
vn -0.275 -0.952 0.137
vn -0.369 -0.929 -0.016
vn 0.187 -0.469 0.863
vn 0.276 -0.480 0.833
vn -0.349 -0.908 0.231
vn 0.333 -0.367 0.869
vn 0.640 0.112 0.760
vn 0.600 0.003 0.800
vn -0.349 -0.226 -0.910
vn -0.398 -0.156 -0.904
vn -0.446 -0.227 -0.866
vn -0.258 0.321 -0.911
vn -0.504 -0.216 -0.836
vn -0.470 -0.156 -0.869
vn -0.514 -0.673 -0.531
vn -0.432 -0.278 -0.858
vn -0.409 -0.500 -0.763
vn 0.829 0.173 0.532
vn -0.306 0.277 -0.911
vn -0.375 -0.164 -0.912
vn -0.310 -0.366 0.877
vn -0.532 -0.501 0.683
vn -0.032 -0.450 0.893
vn -0.107 -0.337 0.935
vn 0.209 -0.362 0.909
vn 0.187 -0.340 0.922
vn 0.382 -0.252 0.889
vn 0.416 -0.204 0.886
vn -0.856 -0.437 -0.276
vn -0.929 -0.194 -0.316
vn -0.963 -0.219 -0.156
vn -0.577 -0.194 -0.793
vn 0.677 0.204 0.707
vn 0.666 0.130 0.734
vn 0.736 0.162 0.657
vn 0.613 0.147 0.777
vn -0.483 0.178 -0.857
vn -0.414 0.089 -0.906
vn -0.293 0.124 -0.948
vn -0.279 0.141 -0.950
vn -0.177 0.367 -0.913
vn -0.088 0.247 -0.965
vn 0.552 0.832 -0.054
vn 0.648 0.760 0.050
vn -0.265 0.297 -0.918
vn 0.564 0.793 -0.229
vn 0.832 0.363 0.420
vn 0.710 0.408 0.574
vn 0.497 0.843 -0.205
vn 0.851 0.462 0.250
vn -0.386 -0.213 0.898
vn -0.440 -0.249 0.863
vn 0.088 -0.177 0.980
vn 0.084 -0.162 0.983
vn 0.426 0.080 0.901
vn 0.297 -0.148 0.944
vn 0.271 -0.168 0.948
vn 0.418 -0.119 0.900
vn -0.987 -0.134 -0.092
vn -0.983 -0.094 -0.157
vn 0.735 0.324 0.595
vn 0.765 0.643 0.034
vn 0.767 0.372 0.523
vn 0.733 0.348 0.584
vn -0.638 0.108 -0.763
vn -0.553 0.065 -0.831
vn -0.241 0.268 -0.933
vn -0.215 0.262 -0.941
vn 0.716 0.652 -0.249
vn 0.171 0.551 -0.817
vn -0.028 0.379 -0.925
vn 0.594 0.705 -0.387
vn -0.384 -0.155 0.910
vn -0.428 -0.182 0.885
vn 0.173 -0.083 0.981
vn 0.167 -0.075 0.983
vn 0.463 0.043 0.885
vn 0.694 0.375 0.614
vn -0.488 0.233 -0.841
vn -0.968 0.079 -0.236
vn -0.998 -0.051 -0.032
vn -0.008 0.457 -0.890
vn -0.175 0.443 -0.880
vn 0.522 0.655 -0.547
vn 0.535 0.648 -0.542
vn 0.836 0.540 0.100
vn -0.491 0.239 -0.838
vn -0.204 0.286 -0.936
vn -0.017 0.409 -0.912
vn 0.238 0.470 -0.850
vn -0.552 0.028 0.833
vn 0.385 0.146 0.912
vn 0.191 0.391 0.900
vn 0.718 0.326 0.615
vn -0.978 0.196 -0.078
vn -0.196 0.576 -0.793
vn 0.340 0.843 -0.416
vn 0.596 0.710 -0.375
vn -0.596 -0.634 0.492
vn 0.580 -0.684 0.442
vn -0.590 -0.441 -0.676
vn 0.585 -0.500 -0.639
vn -0.572 0.479 0.666
vn 0.611 0.463 0.643
vn -0.564 0.671 -0.482
vn 0.613 0.642 -0.461
vn 0.006 0.988 0.157
vn 0.253 0.295 -0.921
vn -0.668 0.318 0.673
vn -0.646 0.118 0.754
vn -0.035 0.987 0.154
vn -0.476 0.791 0.385
vn -0.209 0.965 -0.158
vn -0.012 0.998 -0.061
vn -0.518 0.531 0.671
vn -0.212 0.911 0.353
vn 0.479 0.875 -0.065
vn 0.529 0.776 -0.343
vn -0.514 0.686 -0.515
vn 0.451 -0.067 -0.890
vn -0.169 0.326 -0.930
vn 0.503 -0.337 -0.796
vn 0.953 -0.272 0.135
vn 0.375 0.044 0.926
vn 0.260 -0.201 0.945
vn 0.458 -0.629 0.628
vn -0.614 -0.538 0.577
vn -0.585 -0.684 0.435
vn -0.013 -0.988 -0.156
vn -0.742 -0.325 0.587
vn -0.009 -0.994 -0.110
vn -0.275 -0.895 0.351
vn 0.191 -0.781 -0.595
vn -0.223 -0.971 0.083
vn 0.954 -0.165 -0.252
vn 0.303 -0.950 0.068
vn 0.211 -0.968 -0.137
vn 0.463 -0.630 -0.624
vn -0.676 0.684 -0.274
vn -0.632 0.774 -0.025
vn -0.072 0.160 -0.985
vn -0.460 0.375 -0.805
vn -0.059 -0.026 -0.998
vn -0.210 -0.094 -0.973
vn -0.013 -0.152 0.988
vn -0.695 0.575 0.432
vn -0.010 -0.117 0.993
vn -0.285 0.386 0.877
vn 0.190 -0.599 0.778
vn -0.231 0.091 0.969
vn 0.012 0.167 -0.986
vn 0.226 -0.898 -0.378
vn -0.589 0.553 0.590
vn -0.556 0.406 0.725

# Facets
f 1//1 3//1 2//1
f 4//2 2//2 3//2
f 5//3 3//3 1//3
f 5//4 4//4 3//4
f 6//5 8//5 7//5
f 9//6 7//6 8//6
f 1//7 2//7 10//7
f 10//8 2//8 4//8
f 11//9 8//9 6//9
f 11//10 9//10 8//10
f 5//11 1//11 10//11
f 10//12 4//12 5//12
f 12//13 14//13 13//13
f 15//14 13//14 14//14
f 16//15 14//15 12//15
f 16//16 15//16 14//16
f 6//17 7//17 17//17
f 17//18 7//18 9//18
f 11//19 6//19 17//19
f 17//20 9//20 11//20
f 18//21 20//21 19//21
f 21//22 20//22 22//22
f 21//23 19//23 20//23
f 23//24 22//24 24//24
f 23//25 21//25 22//25
f 25//26 23//26 24//26
f 26//27 20//27 18//27
f 27//28 26//28 28//28
f 20//29 26//29 27//29
f 22//30 20//30 27//30
f 29//31 24//31 22//31
f 27//32 29//32 22//32
f 30//33 12//33 13//33
f 24//34 12//34 30//34
f 29//35 12//35 24//35
f 30//36 25//36 24//36
f 15//37 30//37 13//37
f 15//38 31//38 30//38
f 32//39 27//39 28//39
f 32//40 29//40 27//40
f 32//41 33//41 29//41
f 34//42 35//42 33//42
f 35//43 16//43 33//43
f 33//44 16//44 29//44
f 29//45 16//45 12//45
f 36//46 16//46 35//46
f 15//47 16//47 36//47
f 31//48 15//48 36//48
f 37//49 35//49 34//49
f 37//50 36//50 35//50
f 38//51 19//51 39//51
f 38//52 18//52 19//52
f 19//53 21//53 40//53
f 39//54 19//54 40//54
f 21//55 23//55 41//55
f 40//56 21//56 41//56
f 25//57 41//57 23//57
f 25//58 42//58 41//58
f 18//59 43//59 26//59
f 44//60 43//60 18//60
f 38//61 44//61 18//61
f 28//62 26//62 43//62
f 30//63 45//63 25//63
f 25//64 45//64 46//64
f 25//65 46//65 42//65
f 45//66 30//66 31//66
f 47//67 43//67 44//67
f 47//68 28//68 43//68
f 32//69 28//69 47//69
f 48//70 32//70 47//70
f 49//71 33//71 32//71
f 49//72 32//72 48//72
f 50//73 34//73 45//73
f 45//74 34//74 49//74
f 49//75 34//75 33//75
f 45//76 49//76 46//76
f 50//77 31//77 36//77
f 50//78 45//78 31//78
f 37//79 34//79 50//79
f 50//80 36//80 37//80
f 51//81 39//81 52//81
f 51//82 38//82 39//82
f 39//83 40//83 53//83
f 52//84 39//84 53//84
f 53//85 55//85 54//85
f 41//86 55//86 53//86
f 40//87 41//87 53//87
f 55//88 41//88 42//88
f 44//89 38//89 51//89
f 44//90 51//90 56//90
f 55//91 57//91 54//91
f 57//92 58//92 54//92
f 57//93 42//93 46//93
f 57//94 55//94 42//94
f 59//95 44//95 56//95
f 59//96 47//96 44//96
f 60//97 48//97 47//97
f 60//98 47//98 59//98
f 49//99 58//99 57//99
f 60//100 58//100 49//100
f 48//101 60//101 49//101
f 57//102 46//102 49//102
f 61//103 52//103 62//103
f 61//104 51//104 52//104
f 52//105 53//105 63//105
f 62//106 52//106 63//106
f 54//107 63//107 53//107
f 54//108 64//108 63//108
f 56//109 66//109 65//109
f 61//110 66//110 56//110
f 51//111 61//111 56//111
f 67//112 65//112 68//112
f 65//113 66//113 68//113
f 64//114 67//114 68//114
f 58//115 67//115 64//115
f 54//116 58//116 64//116
f 59//117 56//117 65//117
f 65//118 60//118 59//118
f 65//119 67//119 60//119
f 67//120 58//120 60//120
f 61//121 62//121 69//121
f 70//122 62//122 63//122
f 70//123 69//123 62//123
f 70//124 63//124 64//124
f 66//125 61//125 69//125
f 69//126 68//126 66//126
f 69//127 70//127 68//127
f 70//128 64//128 68//128
f 71//129 73//129 72//129
f 74//130 72//130 73//130
f 75//131 73//131 71//131
f 75//132 74//132 73//132
f 71//133 72//133 76//133
f 76//134 72//134 74//134
f 75//135 71//135 76//135
f 76//136 74//136 75//136
f 77//137 79//137 78//137
f 80//138 78//138 79//138
f 81//139 83//139 82//139
f 83//140 77//140 82//140
f 79//141 77//141 83//141
f 84//142 79//142 83//142
f 79//143 85//143 80//143
f 79//144 84//144 85//144
f 86//145 83//145 81//145
f 86//146 84//146 83//146
f 86//147 87//147 84//147
f 87//148 85//148 84//148
f 88//149 90//149 89//149
f 91//150 90//150 92//150
f 91//151 89//151 90//151
f 93//152 91//152 92//152
f 94//153 90//153 88//153
f 94//154 92//154 90//154
f 94//155 95//155 92//155
f 95//156 93//156 92//156
f 77//157 78//157 96//157
f 96//158 78//158 80//158
f 81//159 82//159 97//159
f 96//160 82//160 77//160
f 97//161 82//161 96//161
f 98//162 97//162 96//162
f 98//163 80//163 85//163
f 98//164 96//164 80//164
f 86//165 81//165 97//165
f 97//166 87//166 86//166
f 97//167 98//167 87//167
f 98//168 85//168 87//168
f 88//169 89//169 99//169
f 89//170 100//170 99//170
f 101//171 100//171 89//171
f 91//172 101//172 89//172
f 93//173 101//173 91//173
f 93//174 102//174 101//174
f 94//175 88//175 99//175
f 103//176 99//176 100//176
f 94//177 99//177 103//177
f 95//178 94//178 103//178
f 95//179 102//179 93//179
f 95//180 103//180 102//180
f 100//181 101//181 104//181
f 104//182 101//182 102//182
f 103//183 100//183 104//183
f 104//184 102//184 103//184

# Thankyou for using Spin3D

