# Created using Spin3D

# Vertex Array
v -38.999 -12.539 -7.871
v -38.555 -12.064 -7.557
v -38.639 -12.683 -7.740
v -38.177 -12.226 -7.631
v -38.902 -12.670 -8.113
v -39.238 -12.340 -8.316
v -38.314 -12.240 -8.158
v -38.855 -11.871 -8.827
v -29.708 -11.992 -21.591
v -29.707 -11.993 -21.590
v -29.707 -11.994 -21.591
v -29.706 -11.992 -21.591
v -29.707 -11.992 -21.593
v -22.178 -11.616 -24.518
v -22.178 -11.616 -24.521
v -22.178 -11.614 -24.519
v -22.176 -11.615 -24.520
v -22.176 -11.614 -24.518
v -22.176 -11.616 -24.518
v -22.178 -11.616 -24.517
v -22.176 -11.617 -24.517
v 8.353 -15.858 29.932
v 8.485 -15.785 30.090
v 8.665 -15.962 29.827
v 9.120 -15.670 29.853
v 8.928 -15.511 29.638
v -39.109 -11.385 -8.163
v -38.248 -10.669 -7.489
v -37.826 -11.276 -7.464
v -37.584 -11.337 -8.014
v -37.152 -10.280 -7.830
v -39.761 -11.347 -9.206
v -39.623 -11.114 -8.942
v -39.539 -11.762 -8.829
v -37.624 -10.731 -9.080
v -36.807 -9.724 -8.699
v -39.291 -11.071 -9.414
v -38.550 -9.287 -9.967
v -38.248 -10.296 -9.776
v -37.236 -9.318 -10.131
v -36.522 -8.688 -9.890
v -37.412 -8.383 -10.606
v -36.525 -7.748 -10.716
v -29.707 -11.991 -21.591
v -22.178 -11.618 -24.518
v -22.176 -11.618 -24.519
v 6.320 -14.110 31.511
v 7.395 -13.981 31.834
v 7.296 -14.592 31.247
v 8.362 -14.369 31.541
v 8.940 -15.066 30.578
v 9.627 -14.319 31.321
v 10.382 -14.640 30.464
v 10.703 -14.134 30.878
v 5.642 -14.365 30.963
v 5.679 -14.183 31.201
v 6.186 -14.536 31.027
v 7.701 -15.217 30.354
v 10.614 -14.974 29.337
v 11.238 -14.442 29.899
v 6.453 -14.556 30.592
v 8.269 -14.736 29.774
v 9.798 -14.479 29.032
v 10.031 -14.898 28.952
v 11.307 -14.721 28.438
v 12.096 -14.403 28.777
v 12.161 -14.563 28.261
v 12.738 -14.402 28.076
v 10.896 -14.551 28.483
v 11.861 -14.415 28.225
v 12.608 -14.356 28.038
v -38.419 -9.442 -8.020
v -37.844 -9.255 -7.533
v -37.432 -9.776 -7.526
v -36.601 -8.487 -8.404
v -39.489 -10.628 -9.382
v -38.918 -9.577 -9.048
v -36.106 -7.911 -9.492
v 51.343 -7.222 -10.240
v 51.538 -6.878 -9.800
v 51.568 -7.290 -10.488
v 51.785 -6.772 -9.815
v -37.895 -7.330 -10.040
v -35.552 -6.050 -10.910
v 51.122 -7.695 -10.893
v 51.161 -7.513 -10.617
v 51.291 -7.643 -10.899
v 51.517 -7.668 -11.084
v 51.891 -7.109 -10.444
v 51.790 -7.549 -11.106
v 52.054 -7.199 -10.745
v -37.408 -7.178 -10.771
v -36.299 -6.089 -11.328
v 51.356 -7.685 -11.059
v 51.556 -7.849 -11.453
v 51.623 -7.857 -11.555
v 51.986 -7.481 -11.190
v 51.792 -7.829 -11.608
v 51.699 -7.957 -11.763
v 6.819 -13.711 31.782
v 7.727 -13.580 31.940
v 8.807 -13.801 31.874
v 9.727 -13.563 31.676
v 10.019 -13.842 31.597
v 5.836 -14.186 30.939
v 6.347 -13.852 31.277
v 10.522 -13.724 31.200
v 11.217 -13.974 30.054
v 6.953 -14.130 30.550
v 10.761 -14.195 28.860
v 8.871 -14.019 29.910
v 11.931 -14.164 28.683
v 10.389 -13.814 29.859
v 12.688 -14.310 28.169
v -37.754 -8.153 -8.003
v -37.180 -8.180 -7.923
v -37.894 -7.472 -8.951
v -37.102 -6.811 -8.714
v -36.496 -6.915 -8.807
v -35.860 -6.453 -9.742
v 51.487 -6.786 -9.646
v 51.683 -6.502 -9.325
v 51.880 -6.429 -9.364
v -37.275 -5.939 -10.026
v -34.855 -4.696 -11.446
v -35.164 -4.710 -11.076
v -34.734 -4.226 -11.640
v 51.161 -7.573 -10.736
v 51.461 -7.114 -10.208
v 52.045 -6.777 -10.063
v 52.165 -7.078 -10.666
v -36.492 -5.058 -11.201
v -35.614 -3.821 -12.093
v -35.748 -4.427 -11.960
v -35.290 -4.406 -11.925
v -34.863 -4.462 -11.698
v 51.800 -7.813 -11.612
v 51.766 -7.461 -11.019
v 52.084 -7.141 -10.732
v -35.368 -3.804 -12.255
v 7.489 -13.508 31.539
v 8.746 -13.457 31.666
v 7.503 -13.700 30.873
v 8.801 -13.544 30.877
v 10.016 -13.556 31.005
v -37.051 -5.868 -9.557
v -36.123 -5.230 -10.073
v 51.648 -6.470 -9.291
v 51.799 -6.275 -9.078
v 51.909 -6.396 -9.370
v -36.589 -4.977 -10.419
v -35.329 -3.817 -11.402
v -35.874 -4.059 -11.197
v -35.175 -3.334 -11.959
v -34.937 -3.831 -11.843
v 51.931 -6.846 -10.137
v 51.756 -6.515 -9.470
v 52.155 -6.910 -10.400
v -35.213 -3.529 -12.184
v -35.566 -3.576 -11.883
v 51.791 -6.273 -9.094
v -35.403 -3.390 -11.733
v 22.463 76.943 25.417
v 22.461 76.943 25.418
v 22.461 76.945 25.418
v 22.459 76.943 25.417
v 22.462 76.945 25.416
v 22.463 76.943 25.416
v 22.459 76.944 25.416
v 22.461 76.943 25.415
v 22.462 76.941 25.417
v 22.461 76.941 25.415

# Normal Array
vn -0.408 -0.208 0.889
vn 0.064 -0.292 0.954
vn -0.444 -0.850 0.285
vn -0.724 -0.685 0.083
vn 0.713 -0.681 -0.168
vn 0.523 -0.756 -0.395
vn -0.191 -0.648 -0.738
vn 0.404 -0.622 -0.670
vn -0.583 -0.621 0.523
vn 0.585 -0.664 0.465
vn -0.599 -0.437 -0.671
vn 0.599 -0.494 -0.631
vn -0.953 0.228 -0.202
vn 0.296 0.880 -0.372
vn -0.266 0.654 -0.709
vn 0.961 0.256 -0.108
vn -0.952 0.247 0.178
vn -0.233 0.727 0.646
vn 0.276 0.394 0.877
vn 0.951 0.098 0.292
vn -0.118 -0.860 0.497
vn 0.369 -0.635 0.679
vn -0.366 -0.169 -0.915
vn 0.388 -0.538 -0.748
vn -0.669 0.111 0.735
vn -0.659 0.125 0.742
vn 0.831 -0.378 0.407
vn 0.103 -0.209 0.973
vn -0.097 -0.027 0.995
vn 0.819 -0.406 0.405
vn -0.875 -0.030 0.483
vn -0.837 -0.013 0.548
vn -0.847 0.030 0.530
vn -0.873 0.040 0.487
vn 0.756 -0.556 -0.344
vn 0.778 -0.599 -0.187
vn 0.913 -0.393 0.110
vn 0.791 -0.519 -0.324
vn 0.052 -0.656 -0.753
vn -0.162 -0.230 -0.960
vn 0.117 -0.545 -0.830
vn -0.097 -0.622 -0.777
vn -0.108 -0.691 -0.715
vn 0.422 -0.605 -0.675
vn 0.391 -0.581 -0.714
vn 0.352 -0.619 -0.702
vn 0.795 -0.539 -0.278
vn 0.661 -0.556 -0.504
vn -0.304 -0.264 -0.915
vn 0.106 -0.434 -0.895
vn 0.187 -0.416 -0.890
vn 0.641 -0.505 -0.578
vn -0.562 0.447 0.696
vn 0.595 0.435 0.676
vn -0.583 0.661 -0.472
vn 0.616 0.641 -0.458
vn -0.962 -0.202 -0.183
vn 0.235 -0.386 -0.892
vn -0.315 -0.704 -0.637
vn 0.956 -0.145 -0.255
vn -0.962 -0.183 0.202
vn -0.315 -0.637 0.704
vn 0.261 -0.894 0.364
vn 0.946 -0.301 0.123
vn -0.137 -0.674 0.726
vn 0.007 -0.808 0.589
vn -0.056 -0.687 0.725
vn 0.277 -0.793 0.542
vn 0.140 -0.760 0.635
vn 0.367 -0.717 0.593
vn -0.301 -0.733 0.610
vn -0.249 -0.692 0.678
vn -0.171 -0.716 0.677
vn -0.146 -0.840 0.522
vn -0.322 -0.727 0.606
vn -0.090 -0.520 0.849
vn -0.004 -0.820 0.573
vn 0.363 -0.670 0.648
vn 0.497 -0.602 0.625
vn 0.292 -0.899 0.326
vn 0.493 -0.716 0.495
vn 0.417 -0.844 0.336
vn -0.283 -0.950 -0.130
vn -0.491 -0.831 -0.263
vn -0.400 -0.473 -0.785
vn -0.427 -0.066 -0.902
vn -0.429 -0.210 -0.878
vn -0.534 -0.315 -0.785
vn -0.490 0.073 -0.869
vn 0.119 -0.743 -0.659
vn 0.193 -0.865 -0.463
vn 0.036 -0.969 -0.245
vn 0.441 -0.843 0.308
vn 0.442 -0.839 0.316
vn 0.147 -0.976 -0.161
vn 0.349 -0.882 0.318
vn -0.450 -0.081 -0.890
vn -0.280 -0.449 -0.849
vn -0.214 -0.267 -0.940
vn -0.105 -0.433 -0.895
vn -0.165 -0.537 -0.827
vn -0.034 -0.698 -0.715
vn -0.671 0.214 0.710
vn -0.702 0.199 0.684
vn 0.001 0.041 0.999
vn 0.016 0.026 1.000
vn 0.613 -0.129 0.779
vn 0.731 -0.006 0.683
vn -0.914 0.381 0.141
vn -0.887 0.420 0.193
vn -0.712 0.368 0.598
vn -0.877 0.283 0.388
vn 0.947 -0.215 0.238
vn 0.926 -0.226 0.302
vn 0.305 -0.811 0.499
vn 0.369 -0.791 0.489
vn -0.357 -0.093 -0.930
vn -0.402 -0.115 -0.908
vn -0.841 0.512 -0.175
vn -0.915 0.296 -0.272
vn 0.901 -0.410 -0.141
vn 0.902 -0.397 -0.168
vn 0.273 -0.820 0.503
vn 0.272 -0.820 0.503
vn 0.301 -0.814 0.497
vn 0.312 -0.814 0.490
vn 0.376 -0.789 0.486
vn 0.381 -0.796 0.471
vn 0.384 -0.794 0.471
vn 0.415 -0.786 0.459
vn -0.828 0.259 -0.497
vn -0.409 -0.123 -0.904
vn 0.142 -0.360 -0.922
vn -0.342 -0.127 -0.931
vn 0.707 -0.466 -0.533
vn 0.469 -0.361 -0.806
vn 0.289 -0.892 0.347
vn -0.771 0.344 -0.536
vn -0.818 -0.544 -0.189
vn 0.273 -0.852 0.447
vn 0.456 -0.776 0.435
vn 0.367 -0.811 0.455
vn 0.389 -0.810 0.439
vn 0.454 -0.782 0.427
vn -0.695 0.517 -0.500
vn 0.366 -0.814 0.451
vn -0.151 -0.133 0.979
vn -0.236 -0.326 0.915
vn 0.044 -0.531 0.846
vn 0.006 -0.260 0.966
vn 0.221 -0.045 0.974
vn 0.160 -0.590 0.791
vn 0.161 -0.590 0.791
vn 0.377 -0.677 0.633
vn -0.650 0.649 -0.396
vn -0.407 0.878 -0.253
vn -0.393 0.639 0.661
vn -0.690 0.524 0.500
vn 0.533 0.337 0.776
vn 0.634 -0.284 0.719
vn 0.851 -0.035 0.524
vn 0.852 -0.130 0.506
vn -0.352 0.258 -0.900
vn -0.216 0.838 -0.501
vn -0.328 0.296 -0.897
vn -0.359 0.335 -0.871
vn -0.316 0.661 -0.680
vn -0.443 0.512 -0.736
vn -0.309 0.421 -0.853
vn -0.083 0.920 -0.382
vn -0.136 0.908 -0.397
vn 0.525 0.601 0.602
vn 0.728 0.620 0.293
vn 0.786 -0.163 0.596
vn 0.197 0.980 -0.034
vn 0.711 -0.266 0.651
vn -0.313 0.632 -0.709
vn -0.281 0.646 -0.710
vn -0.094 0.879 -0.467
vn -0.182 0.874 -0.451
vn -0.032 0.948 -0.316
vn 0.417 0.746 -0.519
vn -0.670 0.337 0.661
vn 0.236 0.199 0.951
vn -0.108 0.397 0.911
vn 0.662 0.081 0.745
vn -0.636 0.579 0.510
vn -0.810 0.413 0.416
vn -0.846 0.395 0.359
vn -0.096 0.502 0.859
vn 0.212 0.480 0.851
vn 0.676 0.140 0.724
vn 0.800 0.099 0.593
vn 0.924 -0.092 0.372
vn 0.241 -0.795 0.556
vn 0.191 -0.813 0.550
vn 0.365 -0.781 0.507
vn 0.388 -0.771 0.506
vn -0.899 0.434 0.057
vn -0.912 0.406 0.054
vn 0.763 -0.144 0.630
vn 0.953 -0.256 0.163
vn 0.969 -0.127 0.212
vn 0.766 0.067 0.640
vn -0.688 0.647 -0.330
vn -0.493 0.775 -0.395
vn -0.601 0.746 -0.287
vn -0.556 0.729 -0.400
vn 0.444 -0.755 0.482
vn 0.442 -0.758 0.480
vn 0.456 -0.755 0.472
vn 0.480 -0.744 0.465
vn -0.874 0.392 -0.289
vn -0.828 0.257 -0.498
vn -0.716 0.004 -0.698
vn -0.696 -0.042 -0.717
vn -0.465 0.022 -0.885
vn 0.088 -0.379 -0.921
vn 0.437 -0.522 -0.733
vn 0.340 -0.532 -0.775
vn 0.653 -0.544 -0.526
vn 0.849 -0.373 -0.374
vn -0.393 0.771 -0.501
vn -0.359 0.793 -0.492
vn -0.383 0.788 -0.482
vn -0.383 0.788 -0.481
vn -0.359 0.795 -0.489
vn 0.895 -0.445 -0.045
vn -0.313 0.808 -0.498
vn -0.329 0.791 -0.517
vn 0.536 -0.748 0.392
vn -0.173 0.808 -0.563
vn -0.545 -0.064 -0.836
vn 0.089 -0.471 -0.878
vn -0.361 0.783 -0.506
vn 0.876 -0.458 -0.150
vn -0.185 0.942 0.279
vn 0.160 0.531 0.832
vn -0.061 0.976 0.211
vn 0.048 0.523 0.851
vn -0.219 0.936 -0.275
vn -0.289 0.957 0.004
vn -0.029 0.993 -0.111
vn -0.114 0.954 -0.278
vn 0.269 0.955 0.126
vn 0.107 0.993 0.057
vn 0.022 0.994 -0.108
vn 0.319 0.948 -0.013
vn -0.293 0.785 -0.545
vn -0.244 0.763 -0.599
vn -0.106 0.889 -0.445
vn -0.135 0.885 -0.445
vn 0.032 0.977 -0.209
vn 0.220 0.965 -0.145
vn -0.621 0.540 0.568
vn 0.218 0.555 0.803
vn -0.044 0.667 0.744
vn 0.701 0.323 0.636
vn -0.008 -0.734 0.679
vn -0.023 -0.742 0.670
vn 0.387 -0.762 0.519
vn 0.700 -0.527 0.482
vn -0.735 0.629 0.256
vn -0.794 0.530 0.299
vn -0.038 0.696 0.717
vn -0.138 0.701 0.700
vn -0.115 0.721 0.683
vn 0.670 0.458 0.584
vn 0.703 0.356 0.616
vn 0.565 0.374 0.735
vn 0.592 0.327 0.736
vn 0.351 0.562 0.748
vn -0.376 0.787 -0.489
vn -0.432 0.777 -0.458
vn -0.550 0.732 -0.402
vn -0.246 0.872 -0.422
vn -0.178 0.846 -0.502
vn 0.712 -0.546 0.441
vn -0.318 0.814 -0.487
vn 0.569 -0.686 0.454
vn -0.833 0.529 -0.159
vn -0.565 0.598 -0.569
vn -0.867 0.412 -0.282
vn -0.851 0.526 -0.012
vn -0.839 0.520 -0.159
vn -0.522 0.687 -0.506
vn 0.855 0.314 -0.413
vn 0.617 -0.273 -0.738
vn 0.448 -0.149 -0.882
vn 0.578 -0.117 -0.808
vn -0.379 0.791 -0.480
vn -0.360 0.796 -0.487
vn -0.341 0.804 -0.487
vn -0.214 0.823 -0.526
vn -0.507 0.471 -0.722
vn 0.733 -0.252 -0.632
vn -0.877 0.201 0.437
vn 0.501 0.850 -0.164
vn 0.025 0.614 0.789
vn 0.495 0.583 0.644
vn -0.435 0.775 -0.459
vn -0.312 0.812 -0.494
vn -0.782 0.618 0.084
vn -0.540 0.762 -0.359
vn 0.176 0.084 0.981
vn -0.242 -0.000 0.970
vn 0.517 0.741 0.429
vn 0.817 0.544 -0.190
vn -0.803 0.505 0.316
vn -0.513 0.849 -0.131
vn 0.261 0.316 -0.912
vn -0.148 0.417 -0.897
vn 0.263 -0.327 0.908
vn -0.163 -0.412 0.897
vn 0.503 -0.753 -0.423
vn 0.799 -0.567 0.199
vn -0.830 -0.422 -0.365
vn -0.536 -0.831 0.147
vn 0.173 -0.093 -0.980
vn -0.252 0.014 -0.968

# Facets
f 1//1 3//1 2//1
f 4//2 2//2 3//2
f 1//3 5//3 3//3
f 1//4 6//4 5//4
f 3//5 7//5 4//5
f 3//6 5//6 7//6
f 8//7 5//7 6//7
f 8//8 7//8 5//8
f 9//9 11//9 10//9
f 12//10 10//10 11//10
f 13//11 11//11 9//11
f 13//12 12//12 11//12
f 14//13 16//13 15//13
f 17//14 16//14 18//14
f 17//15 15//15 16//15
f 19//16 17//16 18//16
f 20//17 16//17 14//17
f 20//18 18//18 16//18
f 20//19 21//19 18//19
f 21//20 19//20 18//20
f 22//21 24//21 23//21
f 25//22 23//22 24//22
f 26//23 24//23 22//23
f 26//24 25//24 24//24
f 27//25 2//25 28//25
f 27//26 1//26 2//26
f 29//27 4//27 30//27
f 2//28 4//28 29//28
f 28//29 2//29 29//29
f 31//30 29//30 30//30
f 32//31 34//31 33//31
f 33//32 34//32 27//32
f 27//33 34//33 6//33
f 27//34 6//34 1//34
f 35//35 30//35 7//35
f 30//36 4//36 7//36
f 30//37 36//37 31//37
f 30//38 35//38 36//38
f 37//39 34//39 32//39
f 38//40 39//40 37//40
f 39//41 8//41 37//41
f 37//42 8//42 34//42
f 34//43 8//43 6//43
f 7//44 8//44 35//44
f 35//45 8//45 39//45
f 35//46 39//46 40//46
f 35//47 41//47 36//47
f 35//48 40//48 41//48
f 42//49 39//49 38//49
f 42//50 40//50 39//50
f 42//51 43//51 40//51
f 43//52 41//52 40//52
f 9//53 10//53 44//53
f 44//54 10//54 12//54
f 13//55 9//55 44//55
f 44//56 12//56 13//56
f 14//57 15//57 45//57
f 46//58 15//58 17//58
f 46//59 45//59 15//59
f 46//60 17//60 19//60
f 20//61 14//61 45//61
f 45//62 21//62 20//62
f 45//63 46//63 21//63
f 46//64 19//64 21//64
f 47//65 49//65 48//65
f 50//66 49//66 51//66
f 50//67 48//67 49//67
f 52//68 51//68 53//68
f 52//69 50//69 51//69
f 54//70 52//70 53//70
f 55//71 57//71 56//71
f 57//72 47//72 56//72
f 49//73 47//73 57//73
f 58//74 49//74 57//74
f 22//75 23//75 58//75
f 58//76 23//76 51//76
f 58//77 51//77 49//77
f 23//78 25//78 51//78
f 51//79 25//79 59//79
f 51//80 59//80 53//80
f 53//81 60//81 54//81
f 53//82 59//82 60//82
f 61//83 57//83 55//83
f 61//84 58//84 57//84
f 61//85 62//85 58//85
f 63//86 64//86 62//86
f 64//87 26//87 62//87
f 62//88 26//88 58//88
f 58//89 26//89 22//89
f 25//90 26//90 59//90
f 59//91 26//91 64//91
f 59//92 64//92 65//92
f 59//93 66//93 60//93
f 67//94 66//94 59//94
f 65//95 67//95 59//95
f 68//96 66//96 67//96
f 69//97 64//97 63//97
f 69//98 65//98 64//98
f 69//99 70//99 65//99
f 70//100 67//100 65//100
f 70//101 71//101 67//101
f 71//102 68//102 67//102
f 72//103 28//103 73//103
f 72//104 27//104 28//104
f 28//105 29//105 74//105
f 73//106 28//106 74//106
f 31//107 74//107 29//107
f 31//108 75//108 74//108
f 32//109 33//109 76//109
f 76//110 33//110 77//110
f 77//111 33//111 27//111
f 77//112 27//112 72//112
f 75//113 31//113 36//113
f 78//114 75//114 36//114
f 79//115 81//115 80//115
f 82//116 80//116 81//116
f 37//117 32//117 76//117
f 37//118 76//118 38//118
f 38//119 76//119 77//119
f 38//120 77//120 83//120
f 78//121 36//121 41//121
f 84//122 78//122 41//122
f 85//123 87//123 86//123
f 87//124 79//124 86//124
f 81//125 79//125 87//125
f 88//126 81//126 87//126
f 81//127 89//127 82//127
f 90//128 89//128 81//128
f 88//129 90//129 81//129
f 91//130 89//130 90//130
f 92//131 38//131 83//131
f 92//132 42//132 38//132
f 93//133 43//133 42//133
f 93//134 42//134 92//134
f 43//135 84//135 41//135
f 43//136 93//136 84//136
f 94//137 87//137 85//137
f 95//138 94//138 96//138
f 87//139 94//139 95//139
f 88//140 87//140 95//140
f 90//141 98//141 97//141
f 95//142 98//142 90//142
f 88//143 95//143 90//143
f 97//144 91//144 90//144
f 99//145 95//145 96//145
f 99//146 98//146 95//146
f 100//147 48//147 101//147
f 100//148 47//148 48//148
f 48//149 50//149 102//149
f 101//150 48//150 102//150
f 102//151 104//151 103//151
f 52//152 104//152 102//152
f 50//153 52//153 102//153
f 104//154 52//154 54//154
f 55//155 56//155 105//155
f 105//156 56//156 106//156
f 106//157 56//157 47//157
f 106//158 47//158 100//158
f 103//159 104//159 107//159
f 54//160 107//160 104//160
f 108//161 107//161 54//161
f 60//162 108//162 54//162
f 61//163 55//163 105//163
f 109//164 105//164 106//164
f 61//165 105//165 109//165
f 62//166 61//166 109//166
f 110//167 63//167 111//167
f 111//168 63//168 62//168
f 111//169 62//169 109//169
f 112//170 110//170 113//170
f 110//171 111//171 113//171
f 112//172 66//172 114//172
f 108//173 66//173 112//173
f 60//174 66//174 108//174
f 112//175 113//175 108//175
f 114//176 66//176 68//176
f 69//177 63//177 110//177
f 110//178 70//178 69//178
f 110//179 112//179 70//179
f 112//180 71//180 70//180
f 112//181 114//181 71//181
f 114//182 68//182 71//182
f 72//183 73//183 115//183
f 116//184 73//184 74//184
f 116//185 115//185 73//185
f 116//186 74//186 75//186
f 117//187 115//187 118//187
f 72//188 115//188 117//188
f 77//189 72//189 117//189
f 115//190 116//190 118//190
f 116//191 119//191 118//191
f 75//192 119//192 116//192
f 120//193 119//193 75//193
f 78//194 120//194 75//194
f 121//195 80//195 122//195
f 121//196 79//196 80//196
f 82//197 122//197 80//197
f 82//198 123//198 122//198
f 83//199 77//199 117//199
f 83//200 117//200 124//200
f 125//201 126//201 84//201
f 84//202 126//202 120//202
f 84//203 120//203 78//203
f 127//204 126//204 125//204
f 85//205 86//205 128//205
f 128//206 86//206 129//206
f 129//207 86//207 79//207
f 129//208 79//208 121//208
f 123//209 82//209 130//209
f 82//210 89//210 130//210
f 91//211 130//211 89//211
f 91//212 131//212 130//212
f 132//213 83//213 124//213
f 132//214 92//214 83//214
f 133//215 134//215 132//215
f 132//216 134//216 93//216
f 132//217 93//217 92//217
f 135//218 93//218 134//218
f 135//219 84//219 93//219
f 136//220 84//220 135//220
f 125//221 84//221 136//221
f 136//222 127//222 125//222
f 94//223 85//223 128//223
f 137//224 96//224 138//224
f 96//225 94//225 138//225
f 138//226 94//226 129//226
f 129//227 94//227 128//227
f 98//228 137//228 97//228
f 97//229 137//229 138//229
f 97//230 138//230 139//230
f 97//231 131//231 91//231
f 97//232 139//232 131//232
f 140//233 134//233 133//233
f 140//234 135//234 134//234
f 99//235 96//235 137//235
f 137//236 98//236 99//236
f 100//237 101//237 141//237
f 142//238 101//238 102//238
f 142//239 141//239 101//239
f 142//240 102//240 103//240
f 106//241 141//241 143//241
f 106//242 100//242 141//242
f 141//243 142//243 144//243
f 141//244 144//244 143//244
f 145//245 103//245 107//245
f 142//246 103//246 145//246
f 144//247 142//247 145//247
f 145//248 107//248 108//248
f 109//249 106//249 143//249
f 143//250 111//250 109//250
f 143//251 144//251 111//251
f 144//252 113//252 111//252
f 144//253 145//253 113//253
f 145//254 108//254 113//254
f 117//255 118//255 146//255
f 147//256 118//256 119//256
f 147//257 146//257 118//257
f 147//258 119//258 120//258
f 148//259 122//259 149//259
f 148//260 121//260 122//260
f 123//261 149//261 122//261
f 123//262 150//262 149//262
f 124//263 146//263 151//263
f 124//264 117//264 146//264
f 152//265 153//265 147//265
f 147//266 153//266 151//266
f 147//267 151//267 146//267
f 152//268 155//268 154//268
f 152//269 126//269 155//269
f 147//270 126//270 152//270
f 120//271 126//271 147//271
f 155//272 126//272 127//272
f 129//273 157//273 156//273
f 148//274 157//274 129//274
f 121//275 148//275 129//275
f 156//276 130//276 158//276
f 150//277 130//277 156//277
f 123//278 130//278 150//278
f 156//279 157//279 150//279
f 158//280 130//280 131//280
f 132//281 124//281 151//281
f 159//282 133//282 160//282
f 133//283 132//283 160//283
f 160//284 132//284 153//284
f 153//285 132//285 151//285
f 160//286 154//286 159//286
f 154//287 155//287 159//287
f 159//288 155//288 135//288
f 135//289 155//289 136//289
f 155//290 127//290 136//290
f 138//291 129//291 156//291
f 156//292 139//292 138//292
f 156//293 158//293 139//293
f 158//294 131//294 139//294
f 140//295 133//295 159//295
f 159//296 135//296 140//296
f 148//297 149//297 161//297
f 161//298 149//298 150//298
f 153//299 152//299 162//299
f 162//300 152//300 154//300
f 157//301 148//301 161//301
f 161//302 150//302 157//302
f 160//303 153//303 162//303
f 162//304 154//304 160//304
f 163//305 165//305 164//305
f 166//306 164//306 165//306
f 163//307 167//307 165//307
f 163//308 168//308 167//308
f 165//309 169//309 166//309
f 165//310 167//310 169//310
f 170//311 167//311 168//311
f 170//312 169//312 167//312
f 163//313 164//313 171//313
f 171//314 164//314 166//314
f 168//315 171//315 172//315
f 168//316 163//316 171//316
f 172//317 166//317 169//317
f 172//318 171//318 166//318
f 170//319 168//319 172//319
f 172//320 169//320 170//320

# Thankyou for using Spin3D

