# Created using Spin3D

# Vertex Array
v 46.820 -16.074 -21.733
v 46.821 -16.074 -21.735
v 46.821 -16.072 -21.733
v 46.822 -16.073 -21.735
v 46.822 -16.072 -21.732
v 46.823 -16.074 -21.733
v 46.821 -16.074 -21.731
v 46.822 -16.075 -21.731
v 46.821 -16.076 -21.733
v 46.822 -16.076 -21.733
v 2.659 -22.167 74.358
v 2.673 -22.169 74.357
v 2.673 -22.166 74.356
v 2.706 -22.167 74.356
v 2.706 -22.166 74.358
v 2.738 -22.166 74.358
v 2.738 -22.168 74.360
v 2.753 -22.168 74.358
v 2.673 -22.166 74.359
v 2.706 -22.168 74.360
v 2.738 -22.170 74.359
v 2.673 -22.168 74.360
v 2.706 -22.170 74.358
v 2.738 -22.168 74.357
v 9.289 0.865 26.450
v 9.290 0.865 26.451
v 9.290 0.864 26.450
v 9.291 0.865 26.450
v 9.290 0.865 26.449
v 9.290 0.866 26.450
v -23.944 3.653 74.298
v -23.945 3.650 74.296
v -23.945 3.654 74.301
v -23.946 3.653 74.298
v -23.945 3.657 74.301
v -23.945 3.656 74.299
v -23.946 3.655 74.300
v -23.945 3.658 74.302
v 60.283 6.230 59.442
v 60.283 6.232 59.435
v 60.283 6.182 59.448
v 60.283 6.251 59.431
v 60.283 6.228 59.445
v 60.283 6.357 59.424
v 60.283 6.276 59.433
v 60.283 6.342 59.429
v -23.945 3.651 74.296
v -23.946 3.651 74.293
v -23.946 3.652 74.295
v -23.946 3.655 74.298
v -23.945 3.654 74.296
v 60.282 6.395 59.410
v 60.282 6.344 59.413
v 60.282 6.438 59.402
v 60.281 6.533 59.391
v 60.283 6.439 59.410
v 60.282 6.510 59.400
v -23.945 3.651 74.292
v 60.282 6.502 59.388
v 60.281 6.614 59.372
v 60.282 6.622 59.371
v 60.281 6.604 59.380
v 60.280 6.647 59.372
v 60.281 6.690 59.363
v -19.340 13.240 83.078
v -19.340 13.240 83.076
v -19.340 13.242 83.078
v -19.338 13.241 83.076
v -19.338 13.242 83.079
v -19.337 13.240 83.078
v -19.340 13.240 83.080
v -19.338 13.239 83.080
v -19.340 13.238 83.078
v -19.338 13.238 83.078
v 52.292 51.022 -13.676
v 52.290 51.022 -13.678
v 52.290 51.022 -13.676
v 52.288 51.022 -13.677
v 52.290 51.022 -13.674
v 52.292 51.024 -13.676
v 52.290 51.024 -13.678
v 52.288 51.024 -13.675
v 52.290 51.023 -13.674
v 52.290 51.024 -13.676

# Normal Array
vn -0.943 0.223 -0.247
vn 0.318 0.873 -0.369
vn -0.236 0.652 -0.721
vn 0.958 0.263 -0.111
vn -0.953 0.247 0.178
vn -0.270 0.720 0.639
vn 0.263 0.367 0.892
vn 0.954 0.085 0.287
vn -0.952 -0.202 -0.228
vn 0.299 -0.382 -0.875
vn -0.282 -0.705 -0.651
vn 0.951 -0.151 -0.270
vn -0.962 -0.183 0.202
vn -0.314 -0.637 0.704
vn 0.245 -0.893 0.378
vn 0.947 -0.295 0.125
vn -0.093 -0.326 -0.941
vn 0.021 0.826 -0.564
vn -0.012 -0.329 -0.944
vn 0.022 0.800 0.600
vn 0.008 0.826 -0.564
vn 0.092 0.796 0.599
vn -0.067 0.947 -0.316
vn 0.003 0.949 -0.316
vn 0.011 0.606 0.795
vn -0.000 0.607 0.795
vn 0.000 -0.601 0.800
vn 0.077 -0.599 0.797
vn -0.100 -0.944 0.315
vn 0.003 -0.589 -0.808
vn -0.030 -0.948 0.316
vn 0.028 0.600 -0.799
vn -0.013 -0.588 -0.809
vn 0.095 0.597 -0.796
vn -0.081 0.326 0.942
vn -0.015 0.326 0.945
vn -0.009 -0.808 0.589
vn -0.023 -0.808 0.589
vn 0.003 -0.800 -0.600
vn 0.080 -0.798 -0.598
vn -0.607 -0.633 0.481
vn 0.584 -0.651 0.485
vn -0.556 -0.487 -0.674
vn 0.539 -0.504 -0.675
vn -0.580 0.489 0.651
vn 0.590 0.473 0.654
vn -0.559 0.667 -0.493
vn 0.576 0.653 -0.492
vn 0.704 -0.562 0.435
vn -0.734 -0.564 0.378
vn 0.859 -0.286 0.425
vn 0.956 0.228 -0.185
vn -0.973 -0.019 0.229
vn -0.917 0.177 0.358
vn 0.643 0.642 -0.418
vn -0.171 -0.391 0.904
vn 0.998 0.006 0.062
vn -0.994 -0.017 -0.106
vn 0.973 -0.032 -0.227
vn 0.974 -0.031 -0.226
vn -0.998 -0.007 -0.063
vn -0.988 0.027 0.150
vn 0.999 0.001 -0.037
vn -0.999 -0.000 0.040
vn 0.924 -0.291 -0.249
vn 0.968 -0.242 -0.072
vn -0.880 -0.459 0.120
vn -0.955 0.252 -0.157
vn 0.177 0.832 -0.525
vn 0.999 -0.038 -0.032
vn 0.808 0.340 -0.481
vn -0.226 0.757 -0.613
vn -0.998 0.057 0.013
vn -0.844 0.509 -0.169
vn 0.384 0.717 -0.582
vn -1.000 0.025 0.006
vn 0.995 -0.008 -0.103
vn 0.998 0.019 0.065
vn 0.698 0.147 0.701
vn -0.957 0.040 0.286
vn 0.997 -0.010 -0.080
vn 0.998 -0.005 -0.068
vn -1.000 -0.009 -0.030
vn -0.999 0.004 0.038
vn 0.999 -0.001 -0.045
vn 0.999 0.000 -0.038
vn -1.000 -0.004 -0.015
vn -0.964 -0.052 -0.260
vn 0.192 -0.979 0.069
vn -0.641 0.607 -0.470
vn 0.999 -0.041 0.003
vn -0.422 0.765 -0.486
vn 0.999 0.003 0.044
vn -0.998 0.013 0.059
vn -0.777 0.079 0.624
vn 0.957 0.053 0.285
vn 1.000 0.007 0.019
vn -0.997 -0.017 -0.073
vn -0.992 -0.024 -0.120
vn -0.999 -0.003 0.039
vn 0.994 0.027 0.106
vn 0.999 0.004 -0.033
vn -0.991 -0.034 -0.131
vn -0.736 -0.144 -0.662
vn -0.737 0.077 0.672
vn -0.991 -0.028 -0.127
vn 0.978 0.027 0.208
vn -0.332 -0.187 -0.925
vn -0.943 0.223 -0.247
vn 0.267 0.888 -0.375
vn -0.275 0.645 -0.713
vn 0.963 0.247 -0.104
vn -0.943 0.247 0.223
vn -0.314 0.704 0.637
vn 0.244 0.377 0.893
vn 0.965 0.102 0.241
vn -0.952 -0.202 -0.228
vn 0.316 -0.369 -0.874
vn -0.226 -0.717 -0.660
vn 0.959 -0.111 -0.263
vn -0.952 -0.179 0.247
vn -0.274 -0.638 0.720
vn 0.280 -0.884 0.374
vn 0.961 -0.256 0.108
vn 0.223 -0.929 -0.294
vn -0.155 -0.916 -0.369
vn 0.133 -0.988 0.082
vn -0.240 -0.971 -0.012
vn 0.521 0.402 -0.753
vn 0.805 -0.238 -0.543
vn -0.521 -0.102 -0.848
vn -0.789 0.384 -0.479
vn 0.814 0.150 0.561
vn 0.505 -0.425 0.751
vn -0.816 -0.361 0.451
vn -0.513 0.130 0.848
vn 0.175 0.981 -0.086
vn -0.198 0.980 -0.011
vn 0.257 0.923 0.287
vn -0.112 0.924 0.365

# Facets
f 1//1 3//1 2//1
f 4//2 3//2 5//2
f 4//3 2//3 3//3
f 6//4 4//4 5//4
f 7//5 3//5 1//5
f 7//6 5//6 3//6
f 7//7 8//7 5//7
f 8//8 6//8 5//8
f 1//9 2//9 9//9
f 10//10 2//10 4//10
f 10//11 9//11 2//11
f 10//12 4//12 6//12
f 7//13 1//13 9//13
f 9//14 8//14 7//14
f 9//15 10//15 8//15
f 10//16 6//16 8//16
f 11//17 13//17 12//17
f 14//18 13//18 15//18
f 14//19 12//19 13//19
f 16//20 15//20 17//20
f 16//21 14//21 15//21
f 18//22 16//22 17//22
f 19//23 13//23 11//23
f 19//24 15//24 13//24
f 19//25 20//25 15//25
f 20//26 17//26 15//26
f 20//27 21//27 17//27
f 21//28 18//28 17//28
f 11//29 12//29 22//29
f 23//30 12//30 14//30
f 23//31 22//31 12//31
f 24//32 14//32 16//32
f 24//33 23//33 14//33
f 24//34 16//34 18//34
f 19//35 11//35 22//35
f 22//36 20//36 19//36
f 22//37 23//37 20//37
f 23//38 21//38 20//38
f 23//39 24//39 21//39
f 24//40 18//40 21//40
f 25//41 27//41 26//41
f 28//42 26//42 27//42
f 29//43 27//43 25//43
f 29//44 28//44 27//44
f 25//45 26//45 30//45
f 30//46 26//46 28//46
f 29//47 25//47 30//47
f 30//48 28//48 29//48
f 31//49 33//49 32//49
f 34//50 32//50 33//50
f 31//51 35//51 33//51
f 31//52 36//52 35//52
f 33//53 37//53 34//53
f 33//54 35//54 37//54
f 38//55 35//55 36//55
f 38//56 37//56 35//56
f 39//57 41//57 40//57
f 42//58 40//58 41//58
f 39//59 43//59 41//59
f 39//60 44//60 43//60
f 41//61 45//61 42//61
f 41//62 43//62 45//62
f 46//63 43//63 44//63
f 46//64 45//64 43//64
f 47//65 32//65 48//65
f 47//66 31//66 32//66
f 34//67 48//67 32//67
f 34//68 49//68 48//68
f 36//69 51//69 50//69
f 47//70 51//70 36//70
f 31//71 47//71 36//71
f 49//72 50//72 51//72
f 37//73 50//73 49//73
f 34//74 37//74 49//74
f 38//75 36//75 50//75
f 50//76 37//76 38//76
f 52//77 40//77 53//77
f 52//78 39//78 40//78
f 42//79 53//79 40//79
f 42//80 54//80 53//80
f 44//81 39//81 52//81
f 44//82 52//82 55//82
f 54//83 42//83 45//83
f 56//84 54//84 45//84
f 57//85 44//85 55//85
f 57//86 46//86 44//86
f 46//87 56//87 45//87
f 46//88 57//88 56//88
f 47//89 48//89 58//89
f 58//90 48//90 49//90
f 51//91 47//91 58//91
f 58//92 49//92 51//92
f 52//93 53//93 59//93
f 59//94 53//94 54//94
f 60//95 59//95 61//95
f 52//96 59//96 60//96
f 55//97 52//97 60//97
f 54//98 61//98 59//98
f 62//99 61//99 54//99
f 56//100 62//100 54//100
f 63//101 55//101 60//101
f 63//102 57//102 55//102
f 57//103 62//103 56//103
f 57//104 63//104 62//104
f 60//105 61//105 64//105
f 64//106 61//106 62//106
f 63//107 60//107 64//107
f 64//108 62//108 63//108
f 65//109 67//109 66//109
f 68//110 67//110 69//110
f 68//111 66//111 67//111
f 70//112 68//112 69//112
f 71//113 67//113 65//113
f 71//114 69//114 67//114
f 71//115 72//115 69//115
f 72//116 70//116 69//116
f 65//117 66//117 73//117
f 74//118 66//118 68//118
f 74//119 73//119 66//119
f 74//120 68//120 70//120
f 71//121 65//121 73//121
f 73//122 72//122 71//122
f 73//123 74//123 72//123
f 74//124 70//124 72//124
f 75//125 77//125 76//125
f 78//126 76//126 77//126
f 79//127 77//127 75//127
f 79//128 78//128 77//128
f 80//129 76//129 81//129
f 80//130 75//130 76//130
f 78//131 81//131 76//131
f 78//132 82//132 81//132
f 83//133 75//133 80//133
f 83//134 79//134 75//134
f 79//135 82//135 78//135
f 79//136 83//136 82//136
f 80//137 81//137 84//137
f 84//138 81//138 82//138
f 83//139 80//139 84//139
f 84//140 82//140 83//140

# Thankyou for using Spin3D

