# Created using Spin3D

# Vertex Array
v 5.692 -39.019 28.974
v 5.693 -39.019 28.976
v 5.693 -39.020 28.974
v 5.694 -39.019 28.974
v 5.693 -39.018 28.973
v 5.693 -39.017 28.975

# Normal Array
vn -0.574 -0.687 0.446
vn 0.564 -0.697 0.444
vn -0.576 -0.489 -0.654
vn 0.572 -0.508 -0.644
vn -0.588 0.478 0.652
vn 0.591 0.460 0.662
vn -0.585 0.662 -0.469
vn 0.595 0.652 -0.470

# Facets
f 1//1 3//1 2//1
f 4//2 2//2 3//2
f 5//3 3//3 1//3
f 5//4 4//4 3//4
f 1//5 2//5 6//5
f 6//6 2//6 4//6
f 5//7 1//7 6//7
f 6//8 4//8 5//8

# Thankyou for using Spin3D

