# Created using Spin3D

# Vertex Array
v -13.615 -26.683 20.236
v -13.566 -26.712 20.286
v -13.543 -26.754 20.276
v -13.496 -26.776 20.320
v -13.487 -26.783 20.299
v -13.476 -26.765 20.311
v -13.604 -26.690 20.212
v -13.666 -26.609 20.174
v -13.542 -26.728 20.236
v -13.499 -26.730 20.260
v -13.623 -26.632 20.167
v -13.561 -26.667 20.195
v -13.647 -26.616 20.217
v -13.593 -26.645 20.264
v -13.522 -26.716 20.305
v -13.518 -26.686 20.267
v -13.689 -26.548 20.157
v -13.550 -26.647 20.209
v -13.678 -26.554 20.136
v -13.622 -26.585 20.155
v -13.643 -26.570 20.201
v -13.571 -26.632 20.255
v -13.669 -26.537 20.149
v -13.599 -26.590 20.198

# Normal Array
vn -0.744 -0.509 0.432
vn -0.489 -0.867 0.096
vn -0.704 -0.503 0.502
vn 0.565 -0.673 0.478
vn -0.676 -0.732 -0.084
vn -0.755 -0.639 -0.151
vn -0.209 -0.819 -0.535
vn -0.291 -0.800 -0.525
vn 0.847 -0.170 -0.504
vn 0.423 -0.466 -0.777
vn -0.448 -0.634 -0.630
vn -0.094 -0.628 -0.772
vn 0.084 -0.530 -0.844
vn 0.441 -0.394 -0.806
vn -0.663 -0.025 0.748
vn -0.753 -0.182 0.633
vn -0.396 0.057 0.916
vn -0.387 0.141 0.911
vn 0.240 0.329 0.913
vn 0.588 0.607 0.535
vn -0.885 -0.326 0.333
vn -0.903 -0.245 0.354
vn 0.904 0.409 -0.125
vn 0.886 0.415 -0.208
vn -0.852 -0.418 -0.317
vn -0.430 -0.584 -0.689
vn 0.281 -0.244 -0.928
vn 0.197 -0.247 -0.949
vn 0.748 0.055 -0.661
vn 0.670 0.148 -0.728
vn -0.515 0.324 0.794
vn 0.045 0.534 0.844
vn -0.034 0.628 0.777
vn 0.521 0.645 0.559
vn -0.232 0.761 0.606
vn -0.581 0.314 0.751
vn 0.398 0.815 0.420
vn 0.407 0.847 0.342
vn 0.756 0.654 0.027
vn 0.669 0.713 0.211
vn -0.564 0.674 -0.477
vn 0.485 0.366 -0.794
vn 0.705 0.632 -0.321
vn 0.744 0.570 -0.348

# Facets
f 1//1 3//1 2//1
f 4//2 3//2 5//2
f 4//3 2//3 3//3
f 6//4 4//4 5//4
f 1//5 7//5 3//5
f 1//6 8//6 7//6
f 9//7 5//7 3//7
f 7//8 9//8 3//8
f 5//9 10//9 6//9
f 5//10 9//10 10//10
f 11//11 7//11 8//11
f 11//12 9//12 7//12
f 11//13 12//13 9//13
f 12//14 10//14 9//14
f 13//15 2//15 14//15
f 13//16 1//16 2//16
f 2//17 4//17 15//17
f 14//18 2//18 15//18
f 6//19 15//19 4//19
f 6//20 16//20 15//20
f 8//21 1//21 13//21
f 8//22 13//22 17//22
f 16//23 6//23 10//23
f 18//24 16//24 10//24
f 19//25 8//25 17//25
f 19//26 11//26 8//26
f 20//27 12//27 11//27
f 20//28 11//28 19//28
f 12//29 18//29 10//29
f 12//30 20//30 18//30
f 13//31 14//31 21//31
f 22//32 14//32 15//32
f 22//33 21//33 14//33
f 22//34 15//34 16//34
f 17//35 21//35 23//35
f 17//36 13//36 21//36
f 21//37 22//37 24//37
f 21//38 24//38 23//38
f 24//39 16//39 18//39
f 24//40 22//40 16//40
f 19//41 17//41 23//41
f 23//42 20//42 19//42
f 23//43 24//43 20//43
f 24//44 18//44 20//44

# Thankyou for using Spin3D

